<?xml version="1.0" encoding="iso-8859-1"?>
<!-- Generator: Adobe Illustrator 19.0.0, SVG Export Plug-In . SVG Version: 6.00 Build 0)  -->
<svg version="1.1" id="Capa_1" xmlns="http://www.w3.org/2000/svg" xmlns:xlink="http://www.w3.org/1999/xlink" x="0px" y="0px"
	 viewBox="0 0 496 496" style="enable-background:new 0 0 496 496;" xml:space="preserve">
<g>
	<rect x="416" y="248" style="fill:#f68a4c;" width="16" height="48"/>
	<rect x="448" y="248" style="fill:#f68a4c;" width="16" height="48"/>
	<polygon style="fill:#f68a4c;" points="372.672,120 368,72 288,72 283.328,120 	"/>
</g>
<rect style="fill:#fff;" x="272" y="424" width="64" height="16"/>
<path style="fill:#fff;" d="M480,240h-16.872L440.976,48H456c8.824,0,16-7.176,16-16V16c0-8.824-7.176-16-16-16H200c-8.824,0-16,7.176-16,16v16
	c0,8.824,7.176,16,16,16h15.024l-18.456,160h-5.632c-7.912,0-14.728,5.904-15.84,13.736L169.056,264H120v-32H80v-12.944l-64-32
	v30.832l16,32v92.224l-32,64V464h76.944L120,377.888V312h42.2l-2.12,14.864l15.84,2.264L190.936,224H208v104h16v-72h120v-16H224v-16
	h189.176l1.848,16H371.56L328,309.704V376h-56v16h64v-16h8v-61.704L380.44,256H384v24c0,13.232,10.768,24,24,24h72v104h16V256
	C496,247.176,488.824,240,480,240z M104,374.112L67.056,448H44.944L80,377.888V280H64v94.112L27.056,448H16v-38.112l32-64v-99.776
	l-16-32v-1.168l32,16V264h16v-16h24V374.112z M120,296v-16h46.768l-2.288,16H120z M200,16h256l0.008,16H200V16z M216,208h-3.328
	l18.456-160h15.896l-18.456,160H224H216z M244.672,208l18.456-160h129.744l18.464,160H244.672z M408.976,48h15.896l22.152,192
	h-15.896L408.976,48z M408,288c-4.416,0-8-3.592-8-8v-24h80v32H408z"/>
<g>
	<path style="fill:#f68a4c;" d="M192,496c-48.52,0-88-39.48-88-88s39.48-88,88-88s88,39.48,88,88S240.52,496,192,496z"/>
	<path style="fill:#f68a4c;" d="M408,496c-48.52,0-88-39.48-88-88s39.48-88,88-88s88,39.48,88,88S456.52,496,408,496z"/>
</g>
<path style="fill:#fff;" d="M192,448c-22.056,0-40-17.944-40-40s17.944-40,40-40s40,17.944,40,40S214.056,448,192,448z M192,384
	c-13.232,0-24,10.768-24,24s10.768,24,24,24s24-10.768,24-24S205.232,384,192,384z"/>
<path style="fill:#fff;" d="M408,448c-22.056,0-40-17.944-40-40s17.944-40,40-40s40,17.944,40,40S430.056,448,408,448z M408,384
	c-13.232,0-24,10.768-24,24s10.768,24,24,24s24-10.768,24-24S421.232,384,408,384z"/>
<rect style="fill:#fff;" x="288" y="272" width="32" height="16"/>
<path style="fill:#fff;" d="M375.256,64h-94.512l-12.472,128h119.456L375.256,64z M360.744,80l3.112,32h-71.712l3.112-32H360.744z M285.912,176
	l4.672-48h74.832l4.672,48H285.912z"/>
<rect style="fill:#fff;" x="304" y="144" width="32" height="16"/>
<g>
</g>
<g>
</g>
<g>
</g>
<g>
</g>
<g>
</g>
<g>
</g>
<g>
</g>
<g>
</g>
<g>
</g>
<g>
</g>
<g>
</g>
<g>
</g>
<g>
</g>
<g>
</g>
<g>
</g>
</svg>
