<?xml version="1.0" encoding="iso-8859-1"?>
<!-- Generator: Adobe Illustrator 19.0.0, SVG Export Plug-In . SVG Version: 6.00 Build 0)  -->
<svg version="1.1" id="Layer_1" xmlns="http://www.w3.org/2000/svg" xmlns:xlink="http://www.w3.org/1999/xlink" x="0px" y="0px"
	 viewBox="0 0 290.625 290.625" style="enable-background:new 0 0 290.625 290.625;" xml:space="preserve">
<g>
	<g>
		<rect x="23.438" y="65.625" style="fill:#f68a4c;" width="42.187" height="79.688"/>
		<path style="fill:#fff;" d="M229.687,168.75V150h56.25V0H93.75v150H150v18.75H84.375v-51.563h-18.75v9.375H75v42.188H14.063
			v-42.188h9.375v-9.375H4.688v51.563H0v121.875h290.625V168.75H229.687z M103.125,140.625V9.375h173.437v131.25h-46.875H150
			H103.125z M159.375,150h60.937v18.75h-60.937V150z M281.25,281.25H9.375V178.125h75H150h79.687h51.562V281.25H281.25z"/>
		<path style="fill:#fff;" d="M18.75,271.875h253.125V187.5H18.75V271.875z M28.125,196.875H262.5V262.5H28.125V196.875z"/>
		<path style="fill:#fff;" d="M145.313,210.938c-10.341,0-18.75,8.409-18.75,18.75s8.409,18.75,18.75,18.75
			s18.75-8.409,18.75-18.75S155.653,210.938,145.313,210.938z M145.313,239.063c-5.17,0-9.375-4.205-9.375-9.375
			s4.205-9.375,9.375-9.375s9.375,4.205,9.375,9.375S150.483,239.063,145.313,239.063z"/>
		<rect x="32.813" y="79.688" style="fill:#fff;" width="23.437" height="9.375"/>
		<rect x="32.813" y="98.438" style="fill:#fff;" width="23.437" height="9.375"/>
		<path style="fill:#fff;" d="M112.5,131.25h84.375V18.75H112.5V131.25z M121.875,121.875v-75H187.5v75H121.875z M187.5,28.125
			V37.5h-65.625v-9.375H187.5z"/>
		<rect x="206.25" y="23.438" style="fill:#fff;" width="60.937" height="9.375"/>
		<rect x="206.25" y="42.188" style="fill:#fff;" width="60.937" height="9.375"/>
		<rect x="206.25" y="60.938" style="fill:#fff;" width="60.937" height="9.375"/>
		<rect x="243.75" y="79.688" style="fill:#fff;" width="23.437" height="9.375"/>
	</g>
</g>
<g>
</g>
<g>
</g>
<g>
</g>
<g>
</g>
<g>
</g>
<g>
</g>
<g>
</g>
<g>
</g>
<g>
</g>
<g>
</g>
<g>
</g>
<g>
</g>
<g>
</g>
<g>
</g>
<g>
</g>
</svg>
