<?xml version="1.0" encoding="iso-8859-1"?>
<!-- Generator: Adobe Illustrator 19.0.0, SVG Export Plug-In . SVG Version: 6.00 Build 0)  -->
<svg xmlns="http://www.w3.org/2000/svg" xmlns:xlink="http://www.w3.org/1999/xlink" version="1.1" id="Capa_1" x="0px" y="0px" viewBox="0 0 496 496" style="enable-background:new 0 0 496 496;" xml:space="preserve">
<g>
	<path style="fill:#fff;" d="M496,144V88h-24c-39.704,0-72,32.304-72,72c0,14.232,9.4,26.176,22.264,30.328   c-5.808,21.976-6.552,45.248-1.56,67.72l2.176,9.808c0.744,3.328,1.12,6.744,1.12,10.176c0,15.936-7.912,30.4-20.936,39.04   c-6.48-10.176-15.112-19.04-25.768-25.696c-15.52-9.696-32.104-17.68-49.296-23.952v-36.248l15.824-4.52   c7.824-2.232,15.088-5.84,21.608-10.728c16.64-12.48,26.568-32.344,26.568-53.136v-20.864c10.168-11.928,16-27.248,16-43.136V77.84   c13.16-7.072,25.624-15.448,37.28-25.16C452.096,47,456,38.664,456,29.792C456,13.36,442.64,0,426.208,0h-6.48   c-3.376,0-6.712,0.568-9.92,1.696l-102.016,36c-21.392,7.552-39.6,22.432-51.28,41.888c-5.328,8.88-9.192,18.512-11.504,28.624   L216.56,233.416l-30.264-9.08l-4.592,15.328l31.304,9.392l-6.376,28.048l81.752,29.728c3.264,1.184,6.664,1.76,10.04,1.76   c7.712,0,15.312-3.016,20.928-8.632c4.328-4.32,7.088-9.76,8.136-15.664c14.376,5.6,28.248,12.472,41.32,20.648   c19.536,12.2,31.192,33.232,31.192,56.264c0,20.36-12.096,38.704-30.808,46.72C353.888,414.488,344,429.48,344,446.136V480h-42.048   L280,406.824v-45.288l15.432-38.568l-14.856-5.944L264,358.464v49.048c-17.128-1.128-34.056-5.48-49.408-13.152l-6.032-3.016   c-8.96-4.48-18.344-7.976-28-10.52l33.552-39.648l-12.216-10.336l-79.816,94.32c-3.68,4.344-9.056,6.84-14.752,6.84   C96.672,432,88,423.336,88,412.672v-2.112c0-4.824,1.784-9.44,5.032-13l72.888-80.184l-11.84-10.768l-53.016,58.328   c-7.104-3.944-13.616-8.816-19.408-14.6C65.112,333.8,56,311.8,56,288.4V264H40v24.4c0,27.672,10.776,53.688,30.344,73.256   c5.96,5.952,12.6,11.04,19.744,15.352l-8.896,9.784c-5.928,6.52-9.192,14.96-9.192,23.776v2.112C72,432.152,87.848,448,107.328,448   c10.408,0,20.232-4.56,26.968-12.504l34.624-40.92c11.264,2.256,22.192,5.936,32.48,11.08l6.032,3.016   c18.968,9.48,40.072,14.68,61.264,15.224L290.048,496H360v-49.864c0-10.24,6.08-19.464,15.496-23.504   c20.608-8.832,34.96-27.216,39.136-48.664l1.48-0.592c24.472-9.784,43.656-28.504,54.032-52.728l1.88-4.392   c5.296-12.352,7.976-25.424,7.976-38.864c0-15.24-3.6-30.496-10.416-44.112c-6.592-13.168-10.848-27.52-12.624-42.152   C479.16,186.92,496,167.4,496,144z M293.808,224.312l4.392,15.384l13.8-3.952v43.336c0,3.616-1.408,7.008-3.96,9.568   c-3.704,3.704-9.272,4.936-14.184,3.152l-68.488-24.904l35.248-155.136c1.928-8.456,5.168-16.512,9.616-23.944   c9.768-16.272,25-28.704,42.896-35.024l102-36c1.488-0.528,3.04-0.792,4.608-0.792h6.48c7.6,0,13.784,6.184,13.784,13.792   c0,4.104-1.816,7.968-4.968,10.6c-22.712,18.936-48.68,32.552-77.176,40.488l4.296,15.416c10.272-2.856,20.216-6.472,29.848-10.688   v13.184c0,15.784-7.536,30.864-20.168,40.336c-4.952,3.712-10.48,6.448-16.408,8.152L309.8,160.312l4.392,15.384l45.624-13.032   c5.72-1.632,11.128-4.016,16.176-7.08v7.216c0,15.784-7.536,30.864-20.168,40.336c-4.952,3.712-10.48,6.448-16.408,8.152   L293.808,224.312z M464,277.392c0,11.256-2.248,22.208-6.68,32.552l-1.88,4.392c-7.896,18.424-21.92,32.984-39.768,41.656   c-0.536-8.584-2.256-16.92-5.288-24.712C428.744,319.832,440,300,440,278.032c0-4.6-0.504-9.2-1.504-13.656l-2.168-9.8   c-5.128-23.064-3.608-47.104,4-69.184c1.296,19.088,6.4,37.944,14.944,55.04C460.984,251.848,464,264.632,464,277.392z    M456,174.864v-49.28l-14.656,21.984c-5.792,8.68-10.48,17.968-14.208,27.6C420.704,173.096,416,167.12,416,160   c0-30.88,25.128-56,56-56h8v40C480,158.864,469.768,171.288,456,174.864z"/>
	
		<rect x="327.799" y="86.227" transform="matrix(-0.9762 0.2168 -0.2168 -0.9762 684.4269 113.368)" style="fill:#fff;" width="16.392" height="16"/>
	<path style="fill:#fff;" d="M50.872,166.144l-44.08-36.736C2.48,125.808,0,120.52,0,114.896C0,104.48,8.48,96,18.896,96H80v16   H18.896c-1.6,0-2.896,1.296-2.896,2.896c0,0.864,0.384,1.672,1.048,2.224l44.08,36.736L50.872,166.144z"/>
	<path style="fill:#fff;" d="M189.128,166.144l-10.248-12.288l44.08-36.736c0.656-0.552,1.04-1.36,1.04-2.224   c0-1.6-1.296-2.896-2.896-2.896H160V96h61.104C231.52,96,240,104.48,240,114.896c0,5.624-2.48,10.912-6.8,14.512L189.128,166.144z"/>
</g>
<path style="fill:#f68a4c;" d="M120,320l-18.92-41.768L72,304v-38.24L24,272l24-41.888V152c0-39.704,32.296-72,72-72  s72,32.296,72,72v78.112L216,272l-48-6.24V304l-29.08-25.768L120,320z"/>
<path style="fill:#fff;" d="M148,160c11.032,0,20-8.976,20-20s-8.968-20-20-20c-5.896,0-11.16,3.96-12.8,9.648l-11.16,39.08  l-4.04-4.04l-4.04,4.04l-11.168-39.096C103.16,123.96,97.896,120,92,120c-11.032,0-20,8.976-20,20s8.968,20,20,20h4.824  l6.192,21.672L84.688,200L120,235.312L155.312,200l-18.328-18.328L143.176,160H148z M149.896,136.48c1.256,0.68,2.104,2,2.104,3.52  c0,2.208-1.8,4-4,4h-0.248L149.896,136.48z M92,144c-2.2,0-4-1.792-4-4c0-1.52,0.848-2.84,2.104-3.52l2.144,7.52H92z M120,212.688  L107.312,200L120,187.312L132.688,200L120,212.688z"/>
<g>
</g>
<g>
</g>
<g>
</g>
<g>
</g>
<g>
</g>
<g>
</g>
<g>
</g>
<g>
</g>
<g>
</g>
<g>
</g>
<g>
</g>
<g>
</g>
<g>
</g>
<g>
</g>
<g>
</g>
</svg>
