<?xml version="1.0" encoding="iso-8859-1"?>
<!-- Generator: Adobe Illustrator 19.0.0, SVG Export Plug-In . SVG Version: 6.00 Build 0)  -->
<svg version="1.1" id="Layer_1" xmlns="http://www.w3.org/2000/svg" xmlns:xlink="http://www.w3.org/1999/xlink" x="0px" y="0px"
	 viewBox="0 0 290.602 290.602" style="enable-background:new 0 0 290.602 290.602;" xml:space="preserve">
<g>
	<g>
		<circle style="fill:#f68a4c;" cx="145.311" cy="197.141" r="65.625"/>
		<path style="fill:#fff;" d="M280.573,117.008c-0.267-3.745-1.978-7.167-4.814-9.628s-6.445-3.652-10.214-3.403l-0.548,0.037
			L162.519,10.859l-0.258,0.281c-2.986-6.398-9.441-10.875-16.959-10.875c-7.556,0-14.044,4.519-17.011,10.973l-0.286-0.3
			L11.164,122.305c-6.759,1.43-11.634,7.622-11.128,14.7l9.994,140.269c0.267,3.745,1.978,7.167,4.814,9.628
			c2.578,2.236,5.812,3.436,9.187,3.436c0.337,0,0.68-0.014,1.022-0.038l252.482-17.995c3.745-0.267,7.167-1.978,9.628-4.814
			s3.67-6.464,3.403-10.214L280.573,117.008z M145.301,37.766c8.536,0,15.675-5.766,17.934-13.584l88.833,80.756L26.066,121.049
			l101.376-96.623C129.781,32.113,136.855,37.766,145.301,37.766z M145.301,9.641c5.17,0,9.375,4.205,9.375,9.375
			s-4.205,9.375-9.375,9.375s-9.375-4.205-9.375-9.375S140.131,9.641,145.301,9.641z M280.086,261.35
			c-0.82,0.947-1.959,1.514-3.211,1.603L24.392,280.949c-1.261,0.089-2.456-0.314-3.403-1.134s-1.514-1.959-1.603-3.211
			l-9.998-140.27c-0.089-1.247,0.314-2.456,1.134-3.403s1.959-1.514,3.211-1.603l252.482-17.995
			c0.112-0.009,0.225-0.014,0.342-0.014c1.125,0,2.203,0.398,3.061,1.148c0.947,0.82,1.514,1.959,1.603,3.211l9.998,140.269
			C281.309,259.194,280.906,260.403,280.086,261.35z"/>
		
			<rect x="19.112" y="132.336" transform="matrix(0.9975 -0.0711 0.0711 0.9975 -9.409 9.7046)" style="fill:#fff;" width="225.014" height="9.375"/>
		
			<rect x="253.175" y="123.339" transform="matrix(0.9975 -0.0708 0.0708 0.9975 -8.4171 18.5778)" style="fill:#fff;" width="9.375" height="9.375"/>
		
			<rect x="27.78" y="253.899" transform="matrix(0.9975 -0.0713 0.0713 0.9975 -18.0794 10.6603)" style="fill:#fff;" width="225.02" height="9.375"/>
		
			<rect x="261.841" y="244.902" transform="matrix(0.9975 -0.0713 0.0713 0.9975 -17.1167 19.6378)" style="fill:#fff;" width="9.375" height="9.375"/>
		<path style="fill:#fff;" d="M46.264,246.439c0.502,0,1.003-0.014,1.514-0.052c11.602-0.83,20.367-10.941,19.542-22.542
			l-0.169-2.339l-9.352,0.67l0.169,2.334c0.459,6.445-4.411,12.066-10.856,12.525c-3.103,0.225-6.145-0.783-8.508-2.836
			c-2.367-2.048-3.792-4.898-4.012-8.02l-3-42.084c-0.225-3.122,0.783-6.145,2.831-8.508c2.053-2.367,4.898-3.792,8.02-4.012
			c3.159-0.216,6.15,0.783,8.508,2.831c2.367,2.053,3.792,4.898,4.012,8.02l0.169,2.339l9.352-0.67l-0.169-2.334
			c-0.398-5.62-2.962-10.748-7.223-14.442s-9.712-5.498-15.319-5.1c-5.62,0.398-10.748,2.963-14.442,7.223s-5.503,9.698-5.1,15.319
			l3,42.08C26.024,237.941,35.305,246.444,46.264,246.439z"/>
		<polygon style="fill:#fff;" points="81.519,159.392 72.167,160.058 78.167,244.217 120.247,241.222 119.581,231.87 
			86.848,234.205 		"/>
		<path style="fill:#fff;" d="M144.641,154.892c-5.62,0.398-10.748,2.962-14.442,7.223s-5.503,9.698-5.1,15.319l3,42.08
			c0.398,5.62,2.967,10.748,7.223,14.442c3.872,3.356,8.714,5.161,13.786,5.161c0.506,0,1.017-0.019,1.528-0.056l0,0
			c11.602-0.83,20.367-10.941,19.542-22.542l-3-42.08c-0.398-5.62-2.962-10.748-7.223-14.442
			C155.698,156.303,150.228,154.494,144.641,154.892z M149.975,229.705c-3.127,0.234-6.141-0.783-8.508-2.836
			c-2.367-2.053-3.792-4.898-4.012-8.02l-3-42.08c-0.225-3.122,0.783-6.145,2.831-8.508c2.053-2.367,4.898-3.792,8.02-4.012
			c0.286-0.019,0.572-0.033,0.853-0.033c2.817,0,5.508,1.003,7.655,2.864c2.367,2.053,3.792,4.898,4.012,8.02l3,42.08
			C161.291,223.625,156.42,229.245,149.975,229.705z"/>
		<path style="fill:#fff;" d="M201.401,226.039c-3.159,0.216-6.145-0.783-8.508-2.831c-2.367-2.053-3.792-4.898-4.012-8.02
			l-0.497-7.012l-9.352,0.666l0.497,7.012c0.398,5.62,2.967,10.748,7.223,14.442c3.867,3.356,8.714,5.156,13.781,5.156
			c0.511,0,1.022-0.019,1.533-0.056c5.62-0.398,10.748-2.963,14.442-7.223s5.503-9.698,5.105-15.319l-0.333-4.673
			c-0.398-5.62-2.967-10.748-7.223-14.442c-4.256-3.694-9.708-5.508-15.314-5.1c-6.553,0.45-12.066-4.416-12.525-10.856
			l-0.333-4.678c-0.225-3.122,0.783-6.145,2.831-8.508c2.053-2.363,4.898-3.792,8.02-4.012c6.548-0.45,12.066,4.411,12.52,10.856
			l0.502,7.012l9.352-0.67l-0.502-7.012c-0.825-11.602-10.936-20.409-22.542-19.542c-5.62,0.403-10.748,2.967-14.437,7.223
			c-3.694,4.261-5.503,9.698-5.1,15.319l0.333,4.678c0.825,11.602,10.903,20.353,22.542,19.542c3.141-0.234,6.145,0.783,8.508,2.831
			c2.367,2.053,3.792,4.898,4.012,8.02l0.333,4.673C212.722,219.964,207.851,225.58,201.401,226.039z"/>
		<polygon style="fill:#fff;" points="232.461,233.22 269.867,230.558 269.201,221.206 241.147,223.208 239.145,195.153 
			267.2,193.152 266.534,183.8 238.479,185.802 236.483,157.747 264.537,155.745 263.867,146.394 226.465,149.061 		"/>
	</g>
</g>
<g>
</g>
<g>
</g>
<g>
</g>
<g>
</g>
<g>
</g>
<g>
</g>
<g>
</g>
<g>
</g>
<g>
</g>
<g>
</g>
<g>
</g>
<g>
</g>
<g>
</g>
<g>
</g>
<g>
</g>
</svg>
