<?xml version="1.0" encoding="iso-8859-1"?>
<!-- Generator: Adobe Illustrator 19.0.0, SVG Export Plug-In . SVG Version: 6.00 Build 0)  -->
<svg version="1.1" id="Capa_1" xmlns="http://www.w3.org/2000/svg" xmlns:xlink="http://www.w3.org/1999/xlink" x="0px" y="0px"
	 viewBox="0 0 496 496" style="enable-background:new 0 0 496 496;" xml:space="preserve">
<g>
	<path style="fill:#f68a4c;" d="M320,200v-70.248l-29.432-7.352c-2.816-9.8-6.72-19.216-11.656-28.136l15.608-26.016l-42.776-42.776
		L225.728,41.08c-8.904-4.928-18.328-8.84-28.128-11.648L190.248,0h-60.496L122.4,29.432c-9.8,2.816-19.216,6.72-28.136,11.656
		L68.248,25.48L25.48,68.248l15.608,26.016c-4.936,8.912-8.848,18.336-11.656,28.136L0,129.752v60.496l29.432,7.352
		c2.816,9.8,6.72,19.216,11.656,28.136L25.48,251.752l42.776,42.776l26.016-15.608c8.912,4.936,18.336,8.84,28.136,11.656
		L129.752,320h60.496l7.352-29.432c10.64-3.064,20.872-7.424,30.68-13.112l12.168-7.704l-8.56-13.512l0.064-32.84
		C214.36,243.352,188.688,256,160,256c-53.016,0-96-42.984-96-96s42.984-96,96-96s96,42.984,96,96c0,14.296-3.208,27.808-8.816,40
		H320z"/>
	<rect x="256" y="224" style="fill:#f68a4c;" width="80" height="16"/>
	<rect x="256" y="448" style="fill:#f68a4c;" width="80" height="16"/>
	<rect x="384" y="336" style="fill:#f68a4c;" width="80" height="16"/>
</g>
<rect style="fill:#fff;" x="256" y="448" width="16" height="16"/>
<rect style="fill:#fff;" x="288" y="448" width="16" height="16"/>
<rect style="fill:#fff;" x="320" y="448" width="16" height="16"/>
<rect style="fill:#fff;" x="384" y="336" width="16" height="16"/>
<rect style="fill:#fff;" x="416" y="336" width="16" height="16"/>
<rect style="fill:#fff;" x="448" y="336" width="16" height="16"/>
<path style="fill:#fff;" d="M472,192H258.936c3.336-10.288,5.064-21,5.064-32c0-57.344-46.656-104-104-104S56,102.656,56,160s46.656,104,104,104
	c23.36,0,45.832-8,64-22.192V248c0,13.232,10.768,24,24,24v32c-13.232,0-24,10.768-24,24v32c0,13.232,10.768,24,24,24v32
	c-13.232,0-24,10.768-24,24v32c0,13.232,10.768,24,24,24h224c13.232,0,24-10.768,24-24v-32c0-13.232-10.768-24-24-24v-32
	c13.232,0,24-10.768,24-24v-32c0-13.232-10.768-24-24-24v-32c13.232,0,24-10.768,24-24v-32C496,202.768,485.232,192,472,192z
	 M224,216v4.264c-0.232,0.248-0.48,0.472-0.712,0.72c-3.832-2.896-9.328-6.552-16.36-10.024c4.64-11.856,7.92-26.088,8.744-42.952
	h31.912c-0.768,8.632-2.848,16.992-6.112,25.016C231.416,195.888,224,205.048,224,216z M168,216.392
	c6.152,0.552,11.84,1.688,16.992,3.192c-5.576,9.376-11.76,16.208-16.992,20.864V216.392z M168,200.304V168h31.68
	c-0.792,14.584-3.656,26.824-7.624,36.992C184.92,202.72,176.912,200.968,168,200.304z M168,152v-32.304
	c8.912-0.664,16.92-2.424,24.056-4.688c3.96,10.168,6.824,22.408,7.624,36.992H168z M168,103.608V79.56
	c5.232,4.656,11.416,11.488,16.992,20.856C179.84,101.912,174.152,103.048,168,103.608z M187.232,76.36
	c8.496,2.776,16.4,6.816,23.552,11.896c-2.824,1.928-6.392,4.104-10.664,6.232C196.048,87.272,191.6,81.328,187.232,76.36z
	 M152,79.552v24.056c-6.152-0.552-11.84-1.688-16.992-3.192C140.584,91.04,146.768,84.208,152,79.552z M119.88,94.488
	c-4.272-2.128-7.84-4.296-10.664-6.232c7.144-5.072,15.056-9.12,23.552-11.896C128.4,81.328,123.952,87.272,119.88,94.488z
	 M152,119.696V152h-31.68c0.792-14.584,3.656-26.824,7.624-36.992C135.08,117.28,143.088,119.032,152,119.696z M152,168v32.304
	c-8.912,0.664-16.92,2.424-24.056,4.688c-3.96-10.168-6.824-22.408-7.624-36.992H152z M152,216.392v24.048
	c-5.232-4.656-11.416-11.488-16.992-20.856C140.16,218.088,145.848,216.952,152,216.392z M132.768,243.64
	c-8.496-2.776-16.4-6.816-23.552-11.896c2.824-1.928,6.392-4.104,10.664-6.232C123.952,232.728,128.4,238.672,132.768,243.64z
	 M200.12,225.512c4.288,2.136,7.872,4.32,10.696,6.256c-7.248,5.128-15.2,9.16-23.608,11.904
	C191.584,238.704,196.04,232.744,200.12,225.512z M247.592,152h-31.928c-0.824-16.864-4.104-31.096-8.744-42.952
	c7.04-3.48,12.536-7.136,16.368-10.032C236.816,113.04,245.736,131.504,247.592,152z M96.704,99.008
	c3.832,2.896,9.328,6.56,16.368,10.032c-4.64,11.856-7.92,26.088-8.744,42.952H72.4C74.264,131.504,83.184,113.04,96.704,99.008z
	 M72.408,168h31.928c0.824,16.864,4.104,31.096,8.744,42.952c-7.04,3.48-12.536,7.136-16.368,10.032
	C83.184,206.96,74.264,188.496,72.408,168z M480,440v32c0,4.416-3.584,8-8,8H248c-4.416,0-8-3.584-8-8v-32c0-4.416,3.584-8,8-8h224
	C476.416,432,480,435.584,480,440z M456,416H264v-32h192V416z M480,328v32c0,4.416-3.584,8-8,8H248c-4.416,0-8-3.584-8-8v-32
	c0-4.416,3.584-8,8-8h224C476.416,320,480,323.584,480,328z M456,304H264v-32h192V304z M480,248c0,4.416-3.584,8-8,8H248
	c-4.416,0-8-3.584-8-8v-32c0-4.416,3.584-8,8-8h224c4.416,0,8,3.584,8,8V248z"/>
<rect style="fill:#fff;" x="256" y="224" width="16" height="16"/>
<rect style="fill:#fff;" x="288" y="224" width="16" height="16"/>
<rect style="fill:#fff;" x="320" y="224" width="16" height="16"/>
<path style="fill:#fff;" d="M160,449.472V360h-16v89.472c-9.288,3.312-16,12.112-16,22.528c0,13.232,10.768,24,24,24s24-10.768,24-24
	C176,461.584,169.288,452.784,160,449.472z M152,480c-4.416,0-8-3.584-8-8s3.584-8,8-8s8,3.584,8,8S156.416,480,152,480z"/>
<path style="fill:#fff;" d="M128,360c0-13.232-10.768-24-24-24s-24,10.768-24,24c0,10.416,6.712,19.216,16,22.528V472h16v-89.472
	C121.288,379.216,128,370.416,128,360z M104,368c-4.416,0-8-3.584-8-8s3.584-8,8-8s8,3.584,8,8S108.416,368,104,368z"/>
<path style="fill:#fff;" d="M64,449.472V360H48v89.472c-9.288,3.312-16,12.112-16,22.528c0,13.232,10.768,24,24,24s24-10.768,24-24
	C80,461.584,73.288,452.784,64,449.472z M56,480c-4.416,0-8-3.584-8-8s3.584-8,8-8s8,3.584,8,8S60.416,480,56,480z"/>
<path style="fill:#fff;" d="M472,48c13.232,0,24-10.768,24-24S485.232,0,472,0c-10.416,0-19.216,6.712-22.528,16H360v16h89.472
	C452.784,41.288,461.584,48,472,48z M472,16c4.416,0,8,3.584,8,8s-3.584,8-8,8s-8-3.584-8-8S467.584,16,472,16z"/>
<path style="fill:#fff;" d="M360,96c10.416,0,19.216-6.712,22.528-16H472V64h-89.472c-3.312-9.288-12.112-16-22.528-16c-13.232,0-24,10.768-24,24
	S346.768,96,360,96z M360,64c4.416,0,8,3.584,8,8s-3.584,8-8,8s-8-3.584-8-8S355.584,64,360,64z"/>
<path style="fill:#fff;" d="M472,96c-10.416,0-19.216,6.712-22.528,16H360v16h89.472c3.312,9.288,12.112,16,22.528,16c13.232,0,24-10.768,24-24
	S485.232,96,472,96z M472,128c-4.416,0-8-3.584-8-8s3.584-8,8-8s8,3.584,8,8S476.416,128,472,128z"/>
<g>
</g>
<g>
</g>
<g>
</g>
<g>
</g>
<g>
</g>
<g>
</g>
<g>
</g>
<g>
</g>
<g>
</g>
<g>
</g>
<g>
</g>
<g>
</g>
<g>
</g>
<g>
</g>
<g>
</g>
</svg>
