<?xml version="1.0" encoding="iso-8859-1"?>
<!-- Generator: Adobe Illustrator 19.0.0, SVG Export Plug-In . SVG Version: 6.00 Build 0)  -->
<svg version="1.1" id="Capa_1" xmlns="http://www.w3.org/2000/svg" xmlns:xlink="http://www.w3.org/1999/xlink" x="0px" y="0px"
	 viewBox="0 0 496 496" style="enable-background:new 0 0 496 496;" xml:space="preserve">
<g>
	<path style="fill:#f68a4c;" d="M208,208h-32c-21.384,0-39.952-11.992-49.384-29.608C98.208,193.584,80,223.648,80,256
		c0,36.288,22.816,69.088,56.272,82.056c-0.176,1.976-0.272,3.96-0.272,5.944c0,35.288,28.712,64,64,64c2.672,0,5.352-0.24,8-0.568
		V208z"/>
	<path style="fill:#f68a4c;" d="M96,472c-8.384,0-16.384-3.328-22.304-9.12C70.368,463.632,67.16,464,64,464
		c-26.472,0-48-21.528-48-48s21.528-48,48-48c25.224,0,45.968,19.56,47.856,44.304C121.704,417.928,128,428.448,128,440
		C128,457.648,113.648,472,96,472z"/>
</g>
<g>
	<path style="fill:#fff;" d="M444,144H327.792C347.296,129.4,360,106.184,360,80c0-44.112-35.888-80-80-80s-80,35.888-80,80
		c0,26.184,12.704,49.4,32.208,64H184V84c0-19.848-16.152-36-36-36s-36,16.152-36,36v68c0,35.288,28.712,64,64,64h24v244
		c0,19.848,16.152,36,36,36s36-16.152,36-36V344h3.2l53.264,99.88C335.088,456.288,347.936,464,362,464c20.952,0,38-17.048,38-38
		v-2.44c0-6.264-1.568-12.496-4.536-18.008L344,309.984V216h100c19.848,0,36-16.152,36-36S463.848,144,444,144z M216,80
		c0-35.288,28.712-64,64-64s64,28.712,64,64s-28.712,64-64,64S216,115.288,216,80z M444,200H328v114.016l53.368,99.12
		c1.728,3.192,2.632,6.8,2.632,10.424V426c0,12.136-9.864,22-22,22c-8.144,0-15.576-4.464-19.408-11.648L284.8,328H256v132
		c0,11.032-8.968,20-20,20s-20-8.968-20-20V200h-40c-26.472,0-48-21.528-48-48V84c0-11.032,8.968-20,20-20s20,8.968,20,20v60
		c0,8.816,7.176,16,16,16h260c11.032,0,20,8.968,20,20S455.032,200,444,200z"/>
</g>
<g>
</g>
<g>
</g>
<g>
</g>
<g>
</g>
<g>
</g>
<g>
</g>
<g>
</g>
<g>
</g>
<g>
</g>
<g>
</g>
<g>
</g>
<g>
</g>
<g>
</g>
<g>
</g>
<g>
</g>
</svg>
