<?xml version="1.0" encoding="iso-8859-1"?>
<!-- Generator: Adobe Illustrator 19.0.0, SVG Export Plug-In . SVG Version: 6.00 Build 0)  -->
<svg version="1.1" id="Layer_1" xmlns="http://www.w3.org/2000/svg" xmlns:xlink="http://www.w3.org/1999/xlink" x="0px" y="0px"
	 viewBox="0 0 290.626 290.626" style="enable-background:new 0 0 290.626 290.626;" xml:space="preserve">
<g>
	<g>
		<circle style="fill:#f68a4c;" cx="248.437" cy="42.188" r="42.188"/>
		<path style="fill:#fff;" d="M276.563,229.688h-4.688v-51.563H252.68l-4.688-46.875H206.25V89.063H18.75v42.188v84.375v14.063
			h-4.687C6.31,229.688,0,235.997,0,243.75s6.309,14.063,14.062,14.063h4.687h9.375h14.062c0,18.089,14.719,32.813,32.812,32.813
			s32.812-14.723,32.812-32.813h89.062c0,18.089,14.719,32.813,32.812,32.813s32.812-14.723,32.812-32.813h9.375h4.688
			c7.753,0,14.062-6.309,14.062-14.063S284.315,229.688,276.563,229.688z M239.508,140.625l3.75,37.5H206.25v-37.5H239.508z
			 M196.875,187.5v18.75H28.125v-65.625h168.75v37.5V187.5z M28.125,98.438h168.75v32.813H28.125V98.438z M18.75,248.438h-4.687
			c-2.583,0-4.687-2.1-4.687-4.688s2.105-4.688,4.687-4.688h4.687V248.438z M75,281.25c-12.923,0-23.437-10.514-23.437-23.438
			S62.077,234.375,75,234.375s23.437,10.514,23.437,23.438S87.924,281.25,75,281.25z M106.43,248.438
			C102.384,234.9,89.831,225,75,225s-27.384,9.9-31.43,23.438H28.125v-18.75v-14.063h168.75v32.813H106.43z M229.687,281.25
			c-12.923,0-23.437-10.514-23.437-23.438s10.514-23.438,23.437-23.438c12.923,0,23.437,10.514,23.437,23.438
			S242.611,281.25,229.687,281.25z M262.5,248.438h-1.383C257.072,234.9,244.519,225,229.687,225
			c-9.178,0-17.475,3.797-23.437,9.895v-19.27V187.5h47.367h8.883v42.188V248.438z M276.563,248.438h-4.688v-9.375h4.688
			c2.583,0,4.687,2.1,4.687,4.688S279.145,248.438,276.563,248.438z"/>
		<path style="fill:#fff;" d="M75,243.75c-7.753,0-14.062,6.309-14.062,14.063c0,7.753,6.309,14.063,14.062,14.063
			s14.062-6.309,14.062-14.063C89.063,250.059,82.753,243.75,75,243.75z M75,262.5c-2.583,0-4.687-2.1-4.687-4.688
			s2.105-4.688,4.687-4.688s4.687,2.1,4.687,4.688C79.687,260.4,77.583,262.5,75,262.5z"/>
		<path style="fill:#fff;" d="M229.687,243.75c-7.753,0-14.062,6.309-14.062,14.063c0,7.753,6.309,14.063,14.062,14.063
			c7.753,0,14.062-6.309,14.062-14.063C243.75,250.059,237.44,243.75,229.687,243.75z M229.687,262.5
			c-2.583,0-4.688-2.1-4.688-4.688s2.105-4.688,4.688-4.688c2.583,0,4.687,2.1,4.687,4.688
			C234.374,260.4,232.27,262.5,229.687,262.5z"/>
		<rect x="23.438" y="9.375" style="fill:#fff;" width="173.437" height="9.375"/>
		<rect x="4.688" y="32.813" style="fill:#fff;" width="187.5" height="9.375"/>
		<rect x="23.438" y="56.25" style="fill:#fff;" width="173.437" height="9.375"/>
		<path style="fill:#fff;" d="M253.125,56.25h-9.375c-2.583,0-4.688-2.1-4.688-4.688h-9.375c0,7.753,6.309,14.063,14.062,14.063
			v4.688h9.375v-4.688c7.753,0,14.062-6.309,14.062-14.063S260.878,37.5,253.125,37.5h-9.375c-2.583,0-4.688-2.1-4.688-4.688
			s2.105-4.688,4.688-4.688h9.375c2.583,0,4.688,2.1,4.688,4.688h9.375c0-7.753-6.309-14.063-14.062-14.063v-4.688h-9.375v4.688
			c-7.753,0-14.062,6.309-14.062,14.063s6.309,14.063,14.062,14.063h9.375c2.583,0,4.688,2.1,4.688,4.688
			S255.708,56.25,253.125,56.25z"/>
	</g>
</g>
<g>
</g>
<g>
</g>
<g>
</g>
<g>
</g>
<g>
</g>
<g>
</g>
<g>
</g>
<g>
</g>
<g>
</g>
<g>
</g>
<g>
</g>
<g>
</g>
<g>
</g>
<g>
</g>
<g>
</g>
</svg>
