<?xml version="1.0" encoding="iso-8859-1"?>
<!-- Generator: Adobe Illustrator 19.0.0, SVG Export Plug-In . SVG Version: 6.00 Build 0)  -->
<svg version="1.1" id="Capa_1" xmlns="http://www.w3.org/2000/svg" xmlns:xlink="http://www.w3.org/1999/xlink" x="0px" y="0px"
	 viewBox="0 0 496 496" style="enable-background:new 0 0 496 496;" xml:space="preserve">
<g>
	<polygon style="fill:#f68a4c;" points="272,400 256,432 272,464 264,488 232,488 224,464 240,432 224,400 248,376 	"/>
	<path style="fill:#f68a4c;" d="M144,128c0,13.256,46.56,24,104,24s104-10.744,104-24V80c0,13.256-46.56,24-104,24
		S144,93.256,144,80V128z"/>
</g>
<g>
	<path style="fill:#fff;" d="M392,248v-57.536C434.672,178.304,464,160,464,136c0-26.832-37.848-49.28-104-62.048V49.688
		C360,22.288,337.712,0,310.312,0c-16.648,0-32.104,8.272-41.344,22.128L267.72,24h-39.44l-1.248-1.872
		C217.792,8.272,202.336,0,185.688,0C158.288,0,136,22.288,136,49.688V73.96C69.848,86.712,32,109.168,32,136
		c0,23.992,29.328,42.304,72,54.464V248c0,20.896,16.168,37.912,36.632,39.656c3.792,12.832,9.864,24.664,17.688,35.136
		l-54.472,18.152l34.352,28.632c-30.024,5.496-55.312,26.24-66.328,54.84L44.352,496h407.296l-27.528-71.576
		c-11.008-28.6-36.304-49.344-66.328-54.84l34.352-28.632L337.672,322.8c7.824-10.472,13.896-22.304,17.688-35.136
		C375.824,285.912,392,268.896,392,248z M358.896,270.872c0.648-4.88,1.104-9.816,1.104-14.872v-30.528
		c9.288,3.312,16,12.112,16,22.528C376,258.824,368.752,267.888,358.896,270.872z M376,216.208c-4.672-3.536-10.056-6.184-16-7.392
		V198c5.472-1.048,10.8-2.184,16-3.4V216.208z M48,136c0-14.32,27.36-33.6,88-45.752V152h16V49.688
		C152,31.112,167.112,16,185.688,16c11.288,0,21.768,5.608,28.032,15l6,9h56.56l6-9c6.264-9.392,16.744-15,28.032-15
		C328.888,16,344,31.112,344,49.688V152h16V90.248c60.64,12.16,88,31.44,88,45.752c0,26.48-82.144,56-200,56S48,162.48,48,136z
		 M136,197.992v10.816c-5.944,1.216-11.328,3.856-16,7.392v-21.616C125.2,195.808,130.528,196.944,136,197.992z M120,248
		c0-10.416,6.712-19.216,16-22.528V256c0,5.056,0.456,9.992,1.104,14.872C127.248,267.888,120,258.824,120,248z M169.64,335.88
		c6.688,6.56,14.216,12.232,22.36,16.96V376l28.688,101.392l-52.112-26.064l7.856-70.728l-40.272-33.56L169.64,335.88z
		 M278.128,409.44L257.96,480h-19.928l-20.16-70.56L248,379.312L278.128,409.44z M288,374.88l-4.848,16.96l-24.384-24.384
		c10.216-0.976,19.992-3.416,29.232-6.968V374.88z M212.848,391.84L208,374.88v-14.392c9.24,3.552,19.016,5.984,29.232,6.968
		L212.848,391.84z M86.816,430.168c9.248-24.04,30.8-41.408,56.256-45.32l11.352-1.752l5.144,4.288l-8.144,73.272L190.104,480
		H129.76l6.088-30.432l-15.688-3.144L113.44,480H67.648L86.816,430.168z M352.928,384.848c25.456,3.912,47.008,21.28,56.256,45.32
		L428.352,480H382.56l-6.712-33.568l-15.688,3.144L366.24,480h-60.352l38.68-19.336l-8.144-73.272l5.144-4.288L352.928,384.848z
		 M319.568,380.608l7.856,70.728l-52.072,26.04l28.336-99.176l0.296-25.344c8.152-4.728,15.688-10.408,22.376-16.968l33.48,11.16
		L319.568,380.608z M248,352c-52.936,0-96-43.064-96-96v-55.208c30.28,4.768,63.456,7.208,96,7.208s65.72-2.44,96-7.208V256
		C344,308.936,300.936,352,248,352z"/>
	<path style="fill:#fff;" d="M248,320c-17.648,0-32-14.352-32-32h-16c0,26.472,21.528,48,48,48s48-21.528,48-48h-16
		C280,305.648,265.648,320,248,320z"/>
	<path style="fill:#fff;" d="M216,236c0-11.032-8.968-20-20-20s-20,8.968-20,20s8.968,20,20,20S216,247.032,216,236z M196,240
		c-2.2,0-4-1.8-4-4s1.8-4,4-4s4,1.8,4,4S198.2,240,196,240z"/>
	<path style="fill:#fff;" d="M300,216c-11.032,0-20,8.968-20,20s8.968,20,20,20s20-8.968,20-20S311.032,216,300,216z M300,240
		c-2.2,0-4-1.8-4-4s1.8-4,4-4s4,1.8,4,4S302.2,240,300,240z"/>
</g>
<g>
</g>
<g>
</g>
<g>
</g>
<g>
</g>
<g>
</g>
<g>
</g>
<g>
</g>
<g>
</g>
<g>
</g>
<g>
</g>
<g>
</g>
<g>
</g>
<g>
</g>
<g>
</g>
<g>
</g>
</svg>
