<?xml version="1.0" encoding="iso-8859-1"?>
<!-- Generator: Adobe Illustrator 19.0.0, SVG Export Plug-In . SVG Version: 6.00 Build 0)  -->
<svg version="1.1" id="Capa_1" xmlns="http://www.w3.org/2000/svg" xmlns:xlink="http://www.w3.org/1999/xlink" x="0px" y="0px"
	 viewBox="0 0 496 496" style="enable-background:new 0 0 496 496;" xml:space="preserve">
<g>
	<path style="fill:#f68a4c;" d="M288,184l-80.664-29.336L200,184l9.552,7.96c25.496,21.248,53.944,38.68,84.448,51.752
		c6.456,2.768,11.72,7.736,14.864,14.016c2.064,4.128,3.136,8.672,3.136,13.28v76.344c0,1.552-0.096,3.104-0.184,4.648H344v-14.408
		c0-6.376,0.784-12.72,2.328-18.904l9.856-39.416c1.92-7.68,3.112-15.512,3.584-23.408C328.72,240.28,303.536,215.08,288,184z"/>
	<path style="fill:#f68a4c;" d="M360,241.168c0-6.096,0.6-12.176,1.8-18.16L368,192v-65.376c0-14.488,5.752-28.384,16-38.624
		l-29.088-10.912L352,80l-2.632,5.264C346.08,91.848,339.352,96,332,96s-14.08-4.152-17.368-10.736L312,80l-12.336-4.112
		c-6.32-2.104-12.88-3.32-19.52-3.712C285.168,77.288,288,84.144,288,91.312V112v72c15.536,31.08,40.72,56.28,71.768,71.872
		c0.152-2.536,0.232-5.08,0.232-7.616V241.168z"/>
</g>
<path style="fill:#fff;" d="M435.08,141.832l-30.728-49.16c-4.704-7.528-12.392-12.84-21.096-14.584L360,73.44v-4.496c4.92-5.632,8-12.904,8-20.944V32
	c0-17.648-14.352-32-32-32s-32,14.352-32,32v16c0,6.84,2.2,13.152,5.872,18.36l-1.928,3.848l-5.752-1.92
	C293.632,65.448,284.72,64,275.704,64h-33.816c-10.464,0-20.944-2.472-30.312-7.16C200,51.056,187.048,48,174.112,48h-28.816l-24-8
	H100L84.016,61.312c-6.68,8.912-14.064,17.424-22.36,25.72C58.008,90.68,56,95.528,56,100.688C56,111.336,64.664,120,75.312,120
	c6.04,0,11.728,2.352,16,6.624l36.728,36.728c7.44,7.44,15.992,13.608,25.416,18.328c13.488,6.736,28.576,10.312,43.648,10.328
	l7.328,6.104c26.12,21.76,55.192,39.584,86.424,52.968c4.712,2.016,8.568,5.648,10.856,10.232c1.496,2.984,2.288,6.344,2.288,9.696
	v76.344c0,7.528-1.208,14.976-3.584,22.12c-2.928,8.776-4.416,17.92-4.416,27.176v14.704c0,7.528-1.208,14.976-3.584,22.12
	c-2.928,8.776-4.416,17.92-4.416,27.176V472c0,13.232,10.768,24,24,24s24-10.768,24-24v-11.352c0-7.528,1.208-14.976,3.584-22.12
	l8-24c2.928-8.776,4.416-17.92,4.416-27.176v-49.76c0-5.712,0.704-11.424,2.088-16.968l9.848-39.408
	c2.696-10.752,4.064-21.848,4.064-32.968v-3.968l20.44-13.624l43.768-50.608c5.024-5.856,7.792-13.336,7.792-21.056
	C440,152.912,438.296,146.976,435.08,141.832z M375.96,142.76l13.8,17.24l-13.872,17.344L375.96,142.76z M322.496,76.904
	C326.608,78.84,331.16,80,336,80c2.616,0,5.12-0.4,7.552-1l-1.344,2.688C340.264,85.584,336.352,88,332,88
	s-8.264-2.416-10.208-6.312L320.944,80L322.496,76.904z M320,32c0-8.824,7.176-16,16-16s16,7.176,16,16v16c0,8.824-7.176,16-16,16
	s-16-7.176-16-16V32z M306.328,86.544l1.152,2.304C312.152,98.192,321.544,104,332,104c10.376,0,19.704-5.736,24.408-14.96
	l14.112,2.824c-6.84,10.208-10.52,22.2-10.52,34.768v64.576l-6.048,30.232c-1.296,6.48-1.952,13.112-1.952,19.728v1.192
	c-23.696-14.584-43.248-35.632-56-60.408V112v-8V91.312c0-2.88-0.448-5.664-1.112-8.392c0.744,0.216,1.512,0.312,2.248,0.552
	L306.328,86.544z M142.704,64h31.408c10.464,0,20.944,2.472,30.312,7.16C216,76.944,228.952,80,241.888,80h33.816
	c0.208,0,0.4,0.048,0.608,0.048C278.672,83.312,280,87.2,280,91.312V104h-6.112c-10.472,0-20.952-2.472-30.312-7.16
	C232,91.056,219.048,88,206.112,88h-1.816c-7.296,0-14.504-1.168-21.432-3.48L145.296,72h-20.352l-8-16h1.76L142.704,64z
	 M203.304,144.688l-71.504-39c-6.632-3.616-10.976-10.264-11.688-17.68h22.6l35.104,11.704c8.544,2.84,17.464,4.288,26.48,4.288
	h1.816c10.464,0,20.944,2.472,30.312,7.16C248,116.944,260.952,120,273.888,120H280v52.576L203.304,144.688z M139.352,152.04
	l-36.728-36.728C95.336,108.016,85.632,104,75.312,104c-1.824,0-3.312-1.488-3.312-3.312c0-0.872,0.352-1.728,1.384-2.76
	C81.8,89.52,89.68,80.424,96.816,70.912l5.824-7.76l1.36,2.736v19.936c0,14.144,7.712,27.136,20.128,33.912l72.04,39.296l1.68,0.608
	l-4.04,16.168c-11.488-0.488-22.904-3.296-33.184-8.432C152.728,163.416,145.576,158.264,139.352,152.04z M332.416,409.472l-8,24
	c-2.928,8.776-4.416,17.92-4.416,27.176V472c0,4.416-3.584,8-8,8s-8-3.584-8-8v-11.352c0-7.528,1.208-14.976,3.584-22.12
	c2.928-8.776,4.416-17.92,4.416-27.176v-14.704c0-7.528,1.208-14.976,3.584-22.12c1.584-4.752,2.712-9.608,3.44-14.528H336v27.352
	C336,394.88,334.792,402.328,332.416,409.472z M338.568,316.752c-1.704,6.808-2.568,13.824-2.568,20.84V344h-16v-72.992
	c0-5.832-1.376-11.656-3.976-16.856c-3.984-7.968-10.688-14.28-18.872-17.784c-29.8-12.776-57.552-29.784-82.48-50.544l-5.696-4.744
	l3.984-15.928l69.488,25.336c15.464,29.424,39.648,53.92,68.816,69.824c-0.576,5.736-1.44,11.44-2.84,17.032L338.568,316.752z
	 M420.064,169.64l-41.424,48.32l-8.856,5.904l3.56-17.792L410.24,160l-33.456-41.824c1.432-7.84,4.832-15.16,9.976-21.336
	c1.568,1.192,2.96,2.616,4.024,4.312l30.728,49.168c1.624,2.6,2.488,5.6,2.488,8.672C424,162.888,422.6,166.672,420.064,169.64z"/>
<g>
</g>
<g>
</g>
<g>
</g>
<g>
</g>
<g>
</g>
<g>
</g>
<g>
</g>
<g>
</g>
<g>
</g>
<g>
</g>
<g>
</g>
<g>
</g>
<g>
</g>
<g>
</g>
<g>
</g>
</svg>
