<?xml version="1.0" encoding="iso-8859-1"?>
<!-- Generator: Adobe Illustrator 19.0.0, SVG Export Plug-In . SVG Version: 6.00 Build 0)  -->
<svg version="1.1" id="Capa_1" xmlns="http://www.w3.org/2000/svg" xmlns:xlink="http://www.w3.org/1999/xlink" x="0px" y="0px"
	 viewBox="0 0 496 496" style="enable-background:new 0 0 496 496;" xml:space="preserve">
<g>
	<circle style="fill:#f68a4c;" cx="248" cy="336" r="80"/>
	<polygon style="fill:#f68a4c;" points="360,0 72,0 72,152 184,152 216,184 424,184 424,64 	"/>
</g>
<g>
	<path style="fill:#fff;" d="M472,176H219.312l-24.968-24.968c-4.528-4.536-10.56-7.032-16.968-7.032H24
		c-13.232,0-24,10.768-24,24v304c0,13.232,10.768,24,24,24h448c13.232,0,24-10.768,24-24V200C496,186.768,485.232,176,472,176z
		 M480,472c0,4.416-3.584,8-8,8H24c-4.416,0-8-3.584-8-8V168c0-4.416,3.584-8,8-8h153.376c2.104,0,4.168,0.848,5.656,2.344
		L212.688,192H472c4.416,0,8,3.584,8,8V472z"/>
	<polygon style="fill:#fff;" points="424,64 360,64 360,0 344,0 344,80 424,80 	"/>
	<path style="fill:#fff;" d="M224,160h168V96H224V160z M240,112h136v32H240V112z"/>
	<rect x="104" y="32" style="fill:#fff;" width="16" height="16"/>
	<rect x="136" y="32" style="fill:#fff;" width="192" height="16"/>
	<rect x="104" y="64" style="fill:#fff;" width="224" height="16"/>
	<rect x="104" y="96" style="fill:#fff;" width="104" height="16"/>
	<path style="fill:#fff;" d="M248,248c-48.52,0-88,39.48-88,88s39.48,88,88,88s88-39.48,88-88S296.52,248,248,248z
		 M286.728,396.6c2.584-6.016,4.976-12,7.104-17.896l-15.048-5.424c-3.848,10.672-8.632,21.648-14.04,32.664
		C259.36,407.24,253.768,408,248,408c-0.728,0-1.432-0.088-2.152-0.112c20.968-39.832,25.624-66.736,25.824-67.944
		c1.056-6.32-0.424-12.672-4.152-17.888s-9.232-8.664-15.496-9.72c-13.352-2.24-25.576,6.776-27.672,19.528
		c-0.016,0.096-1.824,9.568-7.952,25.216l14.904,5.832c6.704-17.136,8.696-27.688,8.8-28.288c0.712-4.304,4.672-7.304,9.256-6.504
		c2.064,0.344,3.888,1.496,5.136,3.232c1.256,1.768,1.744,3.832,1.384,5.976c-0.192,1.16-4.824,27.808-26.864,68.056
		c-5.288-1.448-10.36-3.424-15.096-5.976c3.704-6.704,7.224-13.408,10.312-20.024l-14.496-6.768
		c-2.704,5.808-5.776,11.688-8.992,17.576c-4.264-3.72-8.08-7.928-11.376-12.544c15.36-29.416,19.224-48.528,19.304-48.952
		c3.104-18.944,19.608-32.704,39.264-32.704c2.272,0,4.536,0.192,6.776,0.576c10.44,1.744,19.608,7.496,25.832,16.184
		c6.208,8.696,8.664,19.288,6.904,29.824c-0.24,1.44-1.208,6.8-3.632,15.208l15.376,4.424c2.584-8.976,3.688-14.88,4.04-17.008
		c2.464-14.752-0.976-29.576-9.672-41.76c-8.704-12.168-21.552-20.208-36.168-22.648c-3.096-0.528-6.272-0.808-9.456-0.808
		c-27.528,0-50.688,19.4-55,45.824c-0.04,0.152-2.968,13.424-12.728,34.232C177.536,352.512,176,344.44,176,336
		c0-39.704,32.296-72,72-72s72,32.296,72,72C320,361.44,306.704,383.792,286.728,396.6z"/>
	<polygon style="fill:#fff;" points="336,432 312,432 312,448 352,448 352,408 336,408 	"/>
	<polygon style="fill:#fff;" points="312,240 336,240 336,264 352,264 352,224 312,224 	"/>
	<polygon style="fill:#fff;" points="160,408 144,408 144,448 184,448 184,432 160,432 	"/>
	<polygon style="fill:#fff;" points="160,240 184,240 184,224 144,224 144,264 160,264 	"/>
</g>
<g>
</g>
<g>
</g>
<g>
</g>
<g>
</g>
<g>
</g>
<g>
</g>
<g>
</g>
<g>
</g>
<g>
</g>
<g>
</g>
<g>
</g>
<g>
</g>
<g>
</g>
<g>
</g>
<g>
</g>
</svg>
