<?xml version="1.0" encoding="iso-8859-1"?>
<!-- Generator: Adobe Illustrator 19.0.0, SVG Export Plug-In . SVG Version: 6.00 Build 0)  -->
<svg version="1.1" id="Capa_1" xmlns="http://www.w3.org/2000/svg" xmlns:xlink="http://www.w3.org/1999/xlink" x="0px" y="0px"
	 viewBox="0 0 496 496" style="enable-background:new 0 0 496 496;" xml:space="preserve">
<g>
	<path style="fill:#f68a4c;" d="M120,496c-48.52,0-88-39.48-88-88v-40h176v40C208,456.52,168.52,496,120,496z"/>
	<path style="fill:#f68a4c;" d="M96,240c0-74.776,60.36-135.408,135-135.952l0.696-1.584C215.184,36.392,175.512,0,120,0
		C44.856,0,0,65.8,0,176c0,46.752,11.208,115.256,32.64,155.744L34.888,336h93.528l2.376-5.376C109.224,306.552,96,274.856,96,240z"
		/>
</g>
<g>
	<rect x="80" y="400" style="fill:#fff;" width="80" height="16"/>
	<rect x="80" y="432" style="fill:#fff;" width="80" height="16"/>
	<path style="fill:#fff;" d="M317.72,283.256C324.536,269.784,328,255.224,328,240c0-52.936-43.064-96-96-96s-96,43.064-96,96
		s43.064,96,96,96c30.696,0,59.784-14.856,77.8-39.744l-12.952-9.392C281.816,307.616,257.584,320,232,320
		c-44.112,0-80-35.888-80-80s35.888-80,80-80s80,35.888,80,80c0,12.696-2.88,24.816-8.56,36.04L317.72,283.256z"/>
	<path style="fill:#fff;" d="M482.056,414.744L395.312,328l10.344-10.344l-11.312-11.312L384,316.688l-19.776-19.776
		C371.776,279.44,376,260.208,376,240c0-79.4-64.6-144-144-144S88,160.6,88,240s64.6,144,144,144
		c24.464,0,47.504-6.176,67.704-16.984L316.688,384l-10.344,10.344l11.312,11.312L328,395.312l86.744,86.744
		C423.736,491.048,435.688,496,448.4,496c26.248,0,47.6-21.352,47.6-47.6C496,435.688,491.048,423.736,482.056,414.744z M104,240
		c0-70.576,57.424-128,128-128s128,57.424,128,128s-57.424,128-128,128S104,310.576,104,240z M313.728,358.416
		c17.504-12.12,32.136-28.04,42.848-46.528L372.688,328L328,372.688L313.728,358.416z M448.4,480c-8.44,0-16.376-3.288-22.344-9.256
		L339.312,384L384,339.312l86.744,86.744C476.712,432.024,480,439.96,480,448.4C480,465.816,465.816,480,448.4,480z"/>
</g>
<g>
</g>
<g>
</g>
<g>
</g>
<g>
</g>
<g>
</g>
<g>
</g>
<g>
</g>
<g>
</g>
<g>
</g>
<g>
</g>
<g>
</g>
<g>
</g>
<g>
</g>
<g>
</g>
<g>
</g>
</svg>
