<?xml version="1.0" encoding="iso-8859-1"?>
<!-- Generator: Adobe Illustrator 19.0.0, SVG Export Plug-In . SVG Version: 6.00 Build 0)  -->
<svg version="1.1" id="Capa_1" xmlns="http://www.w3.org/2000/svg" xmlns:xlink="http://www.w3.org/1999/xlink" x="0px" y="0px"
	 viewBox="0 0 495.981 495.981" style="enable-background:new 0 0 495.981 495.981;" xml:space="preserve">
<g>
	<path style="fill:#f68a4c;" d="M175.981,278.69v-31.104c0-8.84-7.16-16-16-16h-24v16.8c0,8.84-7.16,16-16,16s-16-7.16-16-16v-16.8
		h-24c-8.84,0-16,7.16-16,16v31.104C26.957,300.138,3.277,342.074,8.773,389.066c5.96,50.968,47.368,92.128,98.376,97.8
		c67.6,7.512,124.832-45.2,124.832-111.28C231.981,334.155,209.421,298.059,175.981,278.69z M119.981,456.387
		c-44.184,0-80-35.816-80-80s35.816-80,80-80s80,35.816,80,80S164.165,456.387,119.981,456.387z"/>
	<path style="fill:#f68a4c;" d="M431.981,278.69v-31.104c0-8.84-7.16-16-16-16h-24v16.8c0,8.84-7.16,16-16,16s-16-7.16-16-16v-16.8
		h-24c-8.84,0-16,7.16-16,16v31.104c-37.024,21.448-60.704,63.384-55.208,110.376c5.96,50.976,47.368,92.136,98.376,97.808
		c67.6,7.504,124.832-45.208,124.832-111.288C487.981,334.155,465.429,298.059,431.981,278.69z M375.981,456.387
		c-44.184,0-80-35.816-80-80s35.816-80,80-80s80,35.816,80,80S420.165,456.387,375.981,456.387z"/>
</g>
<path style="fill:#fff;" d="M439.981,274.186v-26.6c0-13.232-10.768-24-24-24h-16V202.05c19.472-9.256,32-28.736,32-50.464v-16
	c0-30.872-25.128-56-56-56c-4.976,0-9.816,0.712-14.512,1.976c4.784-18.872-0.512-39.384-14.576-53.456l-11.32-11.312
	C325.005,6.211,310.941,0.387,295.981,0.387s-29.024,5.824-39.584,16.4c-2.104,2.096-3.96,4.4-5.704,6.8h-5.424
	c-1.736-2.392-3.592-4.696-5.688-6.792c-10.576-10.584-24.64-16.408-39.6-16.408s-29.024,5.824-39.592,16.408l-11.32,11.312
	c-14.104,14.104-19.352,34.568-14.552,53.456c-4.704-1.264-9.552-1.976-14.528-1.976c-30.872,0-56,25.128-56,56v16
	c0,21.72,12.696,41.232,32,50.44v21.56h-16c-13.232,0-24,10.768-24,24v26.6c-39.008,24.648-60.568,69.584-55.168,115.8
	c6.392,54.664,50.736,98.752,105.44,104.832c4.664,0.512,9.304,0.776,13.904,0.776c29.584,0,57.52-10.616,79.824-30.576
	c25.416-22.752,39.992-55.352,39.992-89.44c0-41.056-21.344-79.488-56-101.4v-26.6c0-13.232-10.768-24-24-24h-16v-21.56
	c19.312-9.2,32-28.712,32-50.44v-16c0-4.736-0.648-9.36-1.8-13.864c4.736,1.264,9.56,1.96,14.376,1.96
	c14.584,0,28.984-5.664,39.704-16.376l11.312-11.32c3.336-3.328,6.048-7.096,8.408-11.048c2.36,3.952,5.072,7.72,8.408,11.048
	l11.312,11.32c10.736,10.736,25.104,16.4,39.664,16.4c4.832,0,9.664-0.704,14.416-1.976c-1.152,4.504-1.8,9.12-1.8,13.856v16
	c0,21.72,12.696,41.232,32,50.44v21.56h-16c-13.232,0-24,10.768-24,24v26.6c-39,24.648-60.56,69.584-55.16,115.808
	c6.392,54.664,50.736,98.752,105.44,104.832c4.664,0.512,9.304,0.776,13.904,0.776c29.584,0,57.52-10.616,79.824-30.576
	c25.416-22.752,39.992-55.352,39.992-89.44C495.981,334.531,474.637,296.099,439.981,274.186z M302.813,74.147
	c-0.392-0.272-0.792-0.408-1.176-0.792l-10.936-10.936c3.072-3.872,4.984-8.664,5.192-13.928c2.096-0.016,4.184,0.688,5.744,2.24
	l11.32,11.32c0.344,0.344,0.496,0.792,0.768,1.176c-2.312,1.128-4.512,2.552-6.432,4.472
	C305.373,69.619,303.941,71.827,302.813,74.147z M223.981,55.579c-4.416,0-8-3.584-8-8s3.584-8,8-8h48c4.416,0,8,3.584,8,8
	s-3.584,8-8,8H223.981z M194.325,73.355c-0.344,0.344-0.784,0.52-1.176,0.784c-1.136-2.312-2.56-4.52-4.48-6.44
	c-1.912-1.912-4.112-3.336-6.424-4.472c0.272-0.392,0.424-0.848,0.768-1.184l11.312-11.312c1.584-1.584,3.664-2.352,5.736-2.328
	c0.184,5.304,2.104,10.12,5.2,14.016L194.325,73.355z M111.981,151.579v-16c0-4.416,3.584-8,8-8s8,3.584,8,8v16
	c0,0.488-0.192,0.92-0.272,1.392c-2.44-0.84-5.008-1.392-7.728-1.392c-2.712,0-5.272,0.552-7.704,1.384
	C112.197,152.499,111.981,152.066,111.981,151.579z M111.981,175.579c0-4.416,3.584-8,8-8s8,3.584,8,8v72c0,4.416-3.584,8-8,8
	s-8-3.584-8-8V175.579z M141.861,125.819c-2.248-5.024-6.192-9.064-11.08-11.552l35.248-35.256c3.136-3.128,8.2-3.112,11.32,0
	c3.12,3.128,3.12,8.192,0,11.32L141.861,125.819z M318.605,90.331c-3.12-3.128-3.12-8.192,0-11.32c3.12-3.12,8.184-3.136,11.32,0
	l35.256,35.256c-4.888,2.488-8.832,6.536-11.08,11.56L318.605,90.331z M383.981,151.579c0,0.488-0.208,0.912-0.296,1.384
	c-2.432-0.832-4.992-1.384-7.704-1.384c-2.752,0-5.352,0.56-7.816,1.416c-0.088-0.464-0.184-0.928-0.184-1.416v-16
	c0-4.416,3.584-8,8-8s8,3.584,8,8V151.579z M367.981,175.579c0-4.416,3.584-8,8-8s8,3.584,8,8v72c0,4.416-3.584,8-8,8s-8-3.584-8-8
	V175.579z M415.981,135.579v16c0,12.784-6.096,24.456-16,31.904v-7.904c0-4.4-1.28-8.48-3.352-12.032
	c2.096-3.616,3.352-7.696,3.352-11.968v-16c0-9.24-5.304-17.176-12.968-21.192l0.456-0.456l-17.8-17.8
	c2.072-0.328,4.168-0.552,6.312-0.552C398.037,95.579,415.981,113.531,415.981,135.579z M324.261,28.107l11.32,11.312
	c8.984,8.992,12.952,21.656,11.256,33.888l-5.6-5.6c-3.112-3.112-6.904-5.096-10.88-6.136c-1.08-4.048-3.072-7.824-6.096-10.832
	l-11.312-11.312c-5.88-5.888-14.256-8.144-22.072-6.448c-4.184-5.392-10.56-8.944-17.816-9.272c6.688-4.712,14.584-7.32,22.92-7.32
	C306.661,16.387,316.709,20.555,324.261,28.107z M160.381,39.419l11.32-11.312c7.552-7.552,17.6-11.72,28.28-11.72
	c8.328,0,16.232,2.6,22.912,7.304c-7.336,0.336-13.776,3.952-17.952,9.448c-7.728-1.536-16.184,0.536-21.928,6.28l-11.312,11.312
	c-3.024,3.024-5.016,6.792-6.096,10.832c-3.984,1.04-7.768,3.024-10.88,6.136l-5.624,5.624
	C147.381,61.099,151.357,48.435,160.381,39.419z M79.981,151.579v-16c0-22.056,17.944-40,40-40c2.144,0,4.24,0.224,6.312,0.552
	l-19.344,19.344c-6.584,4.288-10.968,11.68-10.968,20.104v16c0,4.272,1.256,8.352,3.352,11.968
	c-2.072,3.56-3.352,7.632-3.352,12.032v7.984C86.109,176.131,79.981,164.363,79.981,151.579z M159.981,239.579c4.416,0,8,3.584,8,8
	v35.72l3.992,2.312c32.08,18.584,52.008,53.056,52.008,89.968c0,29.544-12.632,57.8-34.664,77.512
	c-22.344,19.992-51.224,29.168-81.288,25.824c-26.336-2.928-49.872-16.048-66.56-35.24l13.496-9
	c16.112,17.712,39.248,28.904,65.016,28.904c48.52,0,88-39.48,88-88s-39.48-88-88-88s-88,39.48-88,88
	c0,17,4.928,32.84,13.312,46.312l-13.36,8.912c-8.016-12.704-13.4-27.176-15.216-42.672c-4.848-41.432,15.28-81.664,51.272-102.52
	l3.992-2.312v-35.72c0-4.416,3.584-8,8-8h16v8c0,13.232,10.768,24,24,24s24-10.768,24-24v-8L159.981,239.579L159.981,239.579z
	 M47.981,375.578c0-39.704,32.296-72,72-72s72,32.296,72,72s-32.296,72-72,72S47.981,415.283,47.981,375.578z M159.981,151.579
	c0,12.784-6.128,24.552-16,31.984v-7.984c0-4.384-1.264-8.44-3.328-11.984c2.112-3.616,3.328-7.704,3.328-12.016v-5.256
	l15.672-15.672c0.2,1.624,0.328,3.272,0.328,4.928V151.579z M216.949,95.987c-9.016,9.008-21.672,12.984-33.904,11.28l5.624-5.624
	c3.104-3.104,5.072-6.872,6.12-10.832c4.056-1.072,7.808-3.104,10.848-6.144l11.312-11.312c0.712-0.712,1.24-1.576,1.856-2.368
	c1.672,0.368,3.392,0.592,5.176,0.592h12.888c-1.992,4.84-4.816,9.296-8.608,13.088L216.949,95.987z M279.013,95.987l-11.312-11.32
	c-3.792-3.784-6.616-8.248-8.608-13.088h12.888c1.784,0,3.512-0.224,5.184-0.6c0.616,0.792,1.136,1.656,1.848,2.368l11.312,11.312
	c3.008,3.008,6.784,5.128,10.864,6.208c1.048,3.936,3.016,7.688,6.104,10.768l5.64,5.64
	C300.701,109.003,288.061,105.019,279.013,95.987z M335.981,151.579v-16c0-1.664,0.128-3.304,0.328-4.928l15.672,15.68v5.248
	c0,4.176,1.096,8.304,3.168,11.936l0.288-0.168c-2.144,3.6-3.456,7.752-3.456,12.232v7.984
	C342.109,176.131,335.981,164.363,335.981,151.579z M445.317,453.099c-22.336,19.992-51.232,29.168-81.288,25.824
	c-26.336-2.928-49.872-16.048-66.56-35.24l13.496-9c16.112,17.704,39.248,28.904,65.016,28.904c19.216,0,37.48-6.088,52.808-17.592
	l-9.608-12.8c-12.528,9.416-27.472,14.392-43.192,14.392c-39.704,0-72-32.296-72-72s32.296-72,72-72s72,32.296,72,72
	c0,17.736-6.512,34.784-18.32,47.984l11.92,10.672c14.448-16.144,22.4-36.976,22.4-58.656c0-48.52-39.48-88-88-88s-88,39.48-88,88
	c0,17,4.928,32.84,13.312,46.312l-13.36,8.912c-8.016-12.704-13.4-27.176-15.216-42.672c-4.848-41.432,15.28-81.664,51.272-102.52
	l3.984-2.32v-35.72c0-4.416,3.584-8,8-8h16v8c0,13.232,10.768,24,24,24s24-10.768,24-24v-8h16c4.416,0,8,3.584,8,8v35.72
	l3.992,2.312c32.08,18.584,52.008,53.056,52.008,89.968C479.981,405.13,467.349,433.379,445.317,453.099z"/>
<g>
</g>
<g>
</g>
<g>
</g>
<g>
</g>
<g>
</g>
<g>
</g>
<g>
</g>
<g>
</g>
<g>
</g>
<g>
</g>
<g>
</g>
<g>
</g>
<g>
</g>
<g>
</g>
<g>
</g>
</svg>
