<?xml version="1.0" encoding="iso-8859-1"?>
<!-- Generator: Adobe Illustrator 19.0.0, SVG Export Plug-In . SVG Version: 6.00 Build 0)  -->
<svg version="1.1" id="Layer_1" xmlns="http://www.w3.org/2000/svg" xmlns:xlink="http://www.w3.org/1999/xlink" x="0px" y="0px"
	 viewBox="0 0 496 496" style="enable-background:new 0 0 496 496;" xml:space="preserve">
<g>
	<path style="fill:#fff;" d="M368,40h32c11.032,0,20-8.968,20-20c0-2.2,1.8-4,4-4h68V0h-68c-11.032,0-20,8.968-20,20
		c0,2.2-1.8,4-4,4h-32c-11.032,0-20,8.968-20,20v12h-48V44c0-2.2,1.8-4,4-4h8c11.032,0,20-8.968,20-20c0-2.2,1.8-4,4-4h12V0h-12
		c-11.032,0-20,8.968-20,20c0,2.2-1.8,4-4,4h-8c-11.032,0-20,8.968-20,20v12h-16v40h16v45.032l-32-22.856L76,243.88v67.664
		l40-28.576V480H60v-32H44v32H12v16h104h24h56h112h56h24h104v-16h-32v-32h-16v32h-56V282.976l40,28.576v-67.664l-64-45.712V96h16V56
		h-16V44C364,41.8,365.8,40,368,40z M212,480v-72c0-22.056,17.944-40,40-40s40,17.944,40,40v72H212z M364,480h-56v-72
		c0-30.872-25.128-56-56-56s-56,25.128-56,56v72h-56h-8V280h240v200H364z M142.56,264L252,185.832L361.44,264H142.56z M412,280.456
		L252,166.168L92,280.456V252.12l160-114.288L412,252.12V280.456z M348,186.744L299.36,152H300V96h48V186.744z M364,80h-80v-8h80V80
		z"/>
	<circle style="fill:#fff;" cx="268" cy="432" r="8"/>
	<rect x="148" y="296" style="fill:#fff;" width="176" height="16"/>
</g>
<g>
	<path style="fill:#f68a4c;" d="M452,456c-22.056,0-40-17.944-40-40v-16c0-10.232,3.848-19.816,10.744-27.16
		C420.936,368.808,420,364.464,420,360c0-17.648,14.352-32,32-32s32,14.352,32,32c0,4.464-0.936,8.808-2.744,12.84
		C488.152,380.184,492,389.768,492,400v16C492,438.056,474.056,456,452,456z M452,344c-8.824,0-16,7.176-16,16
		c0,3.424,1.144,6.744,3.312,9.592c1.288,1.696,1.84,3.84,1.544,5.952s-1.424,4.016-3.136,5.288C431.544,385.456,428,392.44,428,400
		v16c0,13.232,10.768,24,24,24s24-10.768,24-24v-16c0-7.56-3.544-14.544-9.728-19.168c-1.712-1.272-2.832-3.176-3.136-5.288
		s0.256-4.256,1.544-5.952c2.176-2.848,3.32-6.168,3.32-9.592C468,351.176,460.824,344,452,344z"/>
	<path style="fill:#f68a4c;" d="M52,456c-22.056,0-40-17.944-40-40v-16c0-10.232,3.848-19.816,10.744-27.16
		C20.936,368.808,20,364.464,20,360c0-17.648,14.352-32,32-32s32,14.352,32,32c0,4.464-0.936,8.808-2.744,12.84
		C88.152,380.184,92,389.768,92,400v16C92,438.056,74.056,456,52,456z M52,344c-8.824,0-16,7.176-16,16
		c0,3.424,1.144,6.744,3.312,9.592c1.288,1.696,1.84,3.84,1.544,5.952s-1.424,4.016-3.136,5.288C31.544,385.456,28,392.44,28,400v16
		c0,13.232,10.768,24,24,24s24-10.768,24-24v-16c0-7.56-3.544-14.544-9.728-19.168c-1.712-1.272-2.832-3.176-3.136-5.288
		s0.256-4.256,1.544-5.952C66.856,366.744,68,363.424,68,360C68,351.176,60.824,344,52,344z"/>
</g>
<g>
	<rect x="340" y="296" style="fill:#fff;" width="16" height="16"/>
	<path style="fill:#fff;" d="M36,104h80c17.648,0,32-14.352,32-32s-14.352-32-32-32h-3.456C106.272,25.6,92.024,16,76,16
		s-30.272,9.6-36.544,24H36C18.352,40,4,54.352,4,72S18.352,104,36,104z M36,56h15.328l1.544-5.992C55.624,39.408,65.136,32,76,32
		s20.376,7.408,23.128,18.008L100.672,56H116c8.824,0,16,7.176,16,16s-7.176,16-16,16H36c-8.824,0-16-7.176-16-16S27.176,56,36,56z"
		/>
</g>
<g>
</g>
<g>
</g>
<g>
</g>
<g>
</g>
<g>
</g>
<g>
</g>
<g>
</g>
<g>
</g>
<g>
</g>
<g>
</g>
<g>
</g>
<g>
</g>
<g>
</g>
<g>
</g>
<g>
</g>
</svg>
