<?xml version="1.0" encoding="iso-8859-1"?>
<!-- Generator: Adobe Illustrator 19.0.0, SVG Export Plug-In . SVG Version: 6.00 Build 0)  -->
<svg version="1.1" id="Layer_1" xmlns="http://www.w3.org/2000/svg" xmlns:xlink="http://www.w3.org/1999/xlink" x="0px" y="0px"
	 viewBox="0 0 290.625 290.625" style="enable-background:new 0 0 290.625 290.625;" xml:space="preserve">
<g>
	<g>
		<path style="fill:#f68a4c;" d="M178.125,173.431h-70.313v-4.688c0-13.917-4.936-27.455-14.273-39.422
			C82.636,115.362,77.925,97.896,80.278,80.14c3.877-29.292,28.022-52.959,57.413-56.278c18.675-2.105,37.411,3.811,51.328,16.242
			c13.931,12.441,21.919,30.286,21.919,48.952c0,14.986-4.936,29.095-14.273,40.8c-8.93,11.208-13.852,24.919-13.852,38.597v4.688
			L178.125,173.431z"/>
		<path style="fill:#fff;" d="M262.697,201.574c0.928-12.206,5.677-24.211,13.659-34.223
			c9.333-11.705,14.269-25.809,14.269-40.795c0-18.666-7.988-36.511-21.919-48.952c-13.917-12.436-32.63-18.356-51.328-16.237
			c-3.914,0.441-7.753,1.373-11.541,2.531c1.2,2.883,2.175,5.845,2.953,8.878c3.164-0.956,6.37-1.725,9.637-2.095
			c16.308-1.852,31.927,3.103,44.03,13.912c11.944,10.669,18.792,25.964,18.792,41.963c0,12.839-4.228,24.923-12.22,34.955
			c-9.258,11.606-14.761,25.598-15.741,40.045h-4.852v-60.938h-4.688h-4.688h-9.375v-4.688h14.063v-9.375h-12.647l20.934-25.125
			l-7.2-6L225,119.234l-15.173-18.211c-0.689,3.759-1.716,7.425-3.052,10.983l12.122,14.55H206.25v9.375h14.063v4.688h-9.375h-4.688
			h-4.688v60.938h-9.375h-0.862c0.525-1.472,0.862-3.037,0.862-4.688c0-2.517-0.717-4.847-1.88-6.895
			c3.933-2.494,6.567-6.863,6.567-11.855c0-7.753-6.309-14.063-14.063-14.063H168.75v-60.937c0-10.341-8.409-18.75-18.75-18.75
			h-9.375c-5.17,0-9.375-4.205-9.375-9.375s4.205-9.375,9.375-9.375H150c5.17,0,9.375,4.205,9.375,9.375h9.375
			c0-10.341-8.409-18.75-18.75-18.75v-9.375h-9.375v9.375c-10.341,0-18.75,8.409-18.75,18.75s8.409,18.75,18.75,18.75H150
			c5.17,0,9.375,4.205,9.375,9.375s-4.205,9.375-9.375,9.375h-9.375c-5.17,0-9.375-4.205-9.375-9.375h-9.375v60.937h-14.063
			c-7.753,0-14.063,6.309-14.063,14.063c0,4.992,2.634,9.361,6.567,11.855c-1.163,2.048-1.88,4.378-1.88,6.895
			c0,1.65,0.338,3.216,0.863,4.688h-0.863h-9.375v-52.144c0.319-0.328,0.666-0.633,0.975-0.975l-6.975-6.263
			c-4.463,4.969-10.814,7.819-17.438,7.819c-7.627,0-14.348-3.717-18.628-9.375h23.316v-9.375h-27.65
			c-0.309-1.514-0.473-3.084-0.473-4.687c0-1.603,0.164-3.173,0.473-4.688h27.652v-9.375H46.997
			c4.284-5.658,11.006-9.375,18.628-9.375c6.623,0,12.975,2.85,17.433,7.819l0.333-0.3c-1.509-4.322-2.545-8.798-3.117-13.369
			c-4.514-2.264-9.511-3.525-14.648-3.525c-13.055,0-24.323,7.683-29.602,18.75h-7.898v9.375h5.063
			c-0.22,1.537-0.375,3.094-0.375,4.688c0,1.594,0.155,3.15,0.375,4.687h-5.063v9.375h7.898c1.57,3.286,3.647,6.281,6.164,8.859
			v52.078h-4.833c-0.952-14.236-6.473-28.153-16.116-40.5c-9.337-11.963-13.369-26.948-11.353-42.188
			c3.319-25.078,24-45.342,49.172-48.187c7.725-0.881,15.323-0.089,22.687,2.147c0.778-3.042,1.739-6.019,2.944-8.887
			c-8.658-2.662-17.602-3.6-26.686-2.578C28.612,64.681,4.472,88.348,0.59,117.635c-2.348,17.761,2.358,35.227,13.256,49.191
			c8.292,10.617,13.092,22.486,14.067,34.753c-7.655,0.112-13.852,6.356-13.852,14.039c0,4.992,2.634,9.361,6.567,11.855
			c-1.163,2.048-1.88,4.378-1.88,6.895c0,4.992,2.634,9.361,6.567,11.855c-1.163,2.048-1.88,4.378-1.88,6.895
			c0,7.753,6.309,14.063,14.063,14.063h56.25c7.753,0,14.063-6.309,14.063-14.063c0-2.517-0.717-4.847-1.88-6.895
			c3.933-2.494,6.567-6.863,6.567-11.855c0-2.245-0.591-4.331-1.542-6.206c1.889,0.942,3.984,1.519,6.23,1.519h56.25
			c2.245,0,4.341-0.577,6.23-1.519c-0.952,1.88-1.542,3.961-1.542,6.206c0,4.992,2.634,9.361,6.567,11.855
			c-1.163,2.048-1.88,4.378-1.88,6.895c0,7.753,6.309,14.063,14.063,14.063h56.25c7.753,0,14.063-6.309,14.063-14.063
			c0-2.517-0.717-4.847-1.88-6.895c3.933-2.494,6.567-6.863,6.567-11.855c0-2.517-0.717-4.847-1.88-6.895
			c3.933-2.494,6.567-6.863,6.567-11.855C276.562,207.931,270.356,201.682,262.697,201.574z M210.937,149.993h9.375v9.375h9.375
			v-9.375h9.375v51.563h-28.125V149.993z M131.25,119.262c2.77,1.612,5.944,2.606,9.375,2.606v9.375H150v-9.375
			c3.431,0,6.605-0.994,9.375-2.606v44.794H131.25V119.262z M51.562,156.157c4.27,2.039,9.023,3.211,14.062,3.211
			c4.913,0,9.703-1.144,14.063-3.225v45.412H51.562V156.157z M93.75,257.806H37.5c-2.583,0-4.688-2.105-4.688-4.688
			c0-2.583,2.105-4.688,4.688-4.688h56.25c2.583,0,4.688,2.105,4.688,4.688C98.437,255.701,96.333,257.806,93.75,257.806z
			 M98.437,239.056H93.75H37.5h-4.688c-2.583,0-4.688-2.105-4.688-4.688c0-2.583,2.105-4.688,4.688-4.688h65.625
			c2.583,0,4.688,2.105,4.688,4.688S101.02,239.056,98.437,239.056z M103.954,220.193c-0.267,0.052-0.525,0.112-0.83,0.112h-4.688
			H32.812h-4.688c-2.583,0-4.688-2.105-4.688-4.688c0-2.583,2.105-4.688,4.688-4.688h70.313h4.688c0.305,0,0.563,0.061,0.83,0.113
			c-0.502,1.444-0.83,2.967-0.83,4.575C103.125,217.226,103.453,218.749,103.954,220.193z M173.437,220.306h-56.25
			c-2.583,0-4.688-2.105-4.688-4.688c0-2.583,2.105-4.688,4.688-4.688h56.25c2.583,0,4.688,2.105,4.688,4.688
			S176.02,220.306,173.437,220.306z M178.125,201.556h-4.688h-56.25H112.5c-2.583,0-4.688-2.105-4.688-4.688
			c0-2.583,2.105-4.688,4.688-4.688h65.625c2.583,0,4.688,2.105,4.688,4.688C182.812,199.451,180.708,201.556,178.125,201.556z
			 M182.812,182.806h-4.688H112.5h-4.688c-2.583,0-4.688-2.105-4.688-4.688c0-2.583,2.105-4.688,4.688-4.688h75
			c2.583,0,4.688,2.105,4.688,4.688S185.395,182.806,182.812,182.806z M253.125,257.806h-56.25c-2.583,0-4.688-2.105-4.688-4.688
			c0-2.583,2.105-4.688,4.688-4.688h56.25c2.583,0,4.688,2.105,4.688,4.688C257.812,255.701,255.708,257.806,253.125,257.806z
			 M257.812,239.056h-4.688h-56.25h-4.688c-2.583,0-4.688-2.105-4.688-4.688c0-2.583,2.105-4.688,4.688-4.688h65.625
			c2.583,0,4.688,2.105,4.688,4.688C262.5,236.951,260.395,239.056,257.812,239.056z M262.5,220.306h-4.688h-65.625H187.5
			c-0.305,0-0.563-0.061-0.83-0.112c0.502-1.444,0.83-2.967,0.83-4.575s-0.328-3.131-0.83-4.575c0.267-0.052,0.525-0.113,0.83-0.113
			h70.313h4.688c2.583,0,4.688,2.105,4.688,4.688C267.187,218.201,265.083,220.306,262.5,220.306z"/>
	</g>
</g>
<g>
</g>
<g>
</g>
<g>
</g>
<g>
</g>
<g>
</g>
<g>
</g>
<g>
</g>
<g>
</g>
<g>
</g>
<g>
</g>
<g>
</g>
<g>
</g>
<g>
</g>
<g>
</g>
<g>
</g>
</svg>
