<?xml version="1.0" encoding="iso-8859-1"?>
<!-- Generator: Adobe Illustrator 19.0.0, SVG Export Plug-In . SVG Version: 6.00 Build 0)  -->
<svg version="1.1" id="Layer_1" xmlns="http://www.w3.org/2000/svg" xmlns:xlink="http://www.w3.org/1999/xlink" x="0px" y="0px"
	 viewBox="0 0 290.438 290.438" style="enable-background:new 0 0 290.438 290.438;" xml:space="preserve">
<g>
	<g>
		<path style="fill:#f68a4c;" d="M178.031,222.372h-70.313v-4.688c0-13.917-4.936-27.455-14.273-39.422
			c-10.903-13.959-15.614-31.425-13.261-49.181c3.877-29.292,28.027-52.959,57.413-56.278c18.67-2.105,37.411,3.811,51.328,16.242
			c13.931,12.441,21.919,30.286,21.919,48.952c0,14.986-4.936,29.095-14.273,40.8c-8.93,11.208-13.852,24.919-13.852,38.597v4.688
			L178.031,222.372z"/>
		<path style="fill:#fff;" d="M290.438,76.14l-5.442-27.206h-27.277v9.375h13.683l-16.927,21.16
			c-0.919-1.861-1.8-3.741-2.808-5.55l-8.184,4.58c1.65,2.948,3.136,5.991,4.509,9.075l-5.011,6.263l-28.238-23.536l-34.266,45.689
			c-2.203-0.914-4.608-1.43-7.134-1.43c-10.341,0-18.75,8.409-18.75,18.75v9.375h-18.75v-9.375c0-10.341-8.409-18.75-18.75-18.75
			c-2.527,0-4.931,0.516-7.134,1.425l-34.265-45.69L47.456,93.831l-5.002-6.253c1.425-3.197,2.958-6.352,4.673-9.398l-8.166-4.594
			c-1.078,1.913-2.025,3.905-3,5.878L19.036,58.309h13.683v-9.375H5.442L0,76.14l9.192,1.842l2.714-13.575l19.786,24.732
			c-0.328,0.839-0.717,1.65-1.027,2.494l4.261,1.552l11.184,13.978l28.012-23.339l28.388,37.852
			c-2.569,3.206-4.167,7.214-4.167,11.634c0,10.341,8.409,18.75,18.75,18.75h9.375v60.938h-18.75
			c-7.753,0-14.063,6.309-14.063,14.063c0,3.019,0.975,5.803,2.602,8.095l-3.839,7.997c1.945,0.938,3.947,1.739,5.934,2.564
			c0,0.033-0.009,0.061-0.009,0.094c0,4.992,2.634,9.361,6.567,11.855c-1.163,2.048-1.88,4.378-1.88,6.895
			c0,7.753,6.309,14.063,14.063,14.063h56.25c7.753,0,14.063-6.309,14.063-14.063c0-2.517-0.717-4.847-1.88-6.895
			c3.933-2.494,6.567-6.862,6.567-11.855c0-0.033-0.009-0.061-0.009-0.094c1.988-0.83,3.984-1.627,5.934-2.564l-3.839-7.997
			c1.627-2.292,2.602-5.077,2.602-8.095c0-7.753-6.309-14.063-14.063-14.063h-18.75v-60.939h9.375c10.341,0,18.75-8.409,18.75-18.75
			c0-4.42-1.598-8.428-4.163-11.639l28.387-37.852l28.012,23.339l10.725-13.406l4.856-1.748c-0.347-0.966-0.792-1.903-1.167-2.864
			l19.791-24.731l2.714,13.575L290.438,76.14z M117.094,142.684c-5.17,0-9.375-4.205-9.375-9.375c0-1.308,0.272-2.55,0.759-3.68
			l4.866,6.492l7.5-5.62l-4.842-6.455c0.366-0.047,0.717-0.112,1.092-0.112c5.17,0,9.375,4.205,9.375,9.375v9.375L117.094,142.684
			L117.094,142.684z M182.719,245.809c0,2.587-2.1,4.688-4.688,4.688h-4.688h-56.25h-4.688c-2.588,0-4.688-2.1-4.688-4.688
			c0-2.587,2.1-4.688,4.688-4.688h65.625C180.619,241.122,182.719,243.222,182.719,245.809z M173.344,269.247h-56.25
			c-2.588,0-4.688-2.1-4.688-4.688s2.1-4.688,4.688-4.688h56.25c2.587,0,4.688,2.1,4.688,4.688S175.931,269.247,173.344,269.247z
			 M187.406,227.059c0,2.587-2.1,4.688-4.688,4.688h-4.688h-65.625h-4.688c-2.588,0-4.688-2.1-4.688-4.688
			c0-2.587,2.1-4.688,4.688-4.688h75C185.306,222.372,187.406,224.472,187.406,227.059z M135.844,212.997v-60.938h18.75v60.938
			H135.844z M182.719,133.309c0,5.17-4.205,9.375-9.375,9.375h-9.375v-9.375c0-5.17,4.205-9.375,9.375-9.375
			c0.375,0,0.727,0.066,1.092,0.112l-4.842,6.45l7.5,5.62l4.87-6.492C182.447,130.759,182.719,132.001,182.719,133.309z"/>
		<path style="fill:#fff;" d="M100.758,29.936l-3.708-8.607c-6.075,2.616-11.981,5.756-17.55,9.323l5.063,7.894
			C89.7,35.251,95.147,32.354,100.758,29.936z"/>
		<path style="fill:#fff;" d="M136.228,21.161l-0.731-9.347c-6.623,0.52-13.219,1.594-19.617,3.178l2.264,9.098
			C124.031,22.628,130.12,21.644,136.228,21.161z"/>
		<path style="fill:#fff;" d="M69.984,49.665l-6.272-6.966c-4.903,4.406-9.483,9.267-13.631,14.428l7.317,5.869
			C61.223,58.22,65.456,53.739,69.984,49.665z"/>
		<path style="fill:#fff;" d="M33.806,149.054l-9.281,1.298c0.919,6.567,2.386,13.092,4.359,19.392l8.944-2.803
			C36.009,161.139,34.659,155.115,33.806,149.054z"/>
		<path style="fill:#fff;" d="M211.252,30.864c-5.569-3.6-11.456-6.75-17.508-9.375l-3.736,8.597
			c5.583,2.423,11.02,5.334,16.153,8.653L211.252,30.864z"/>
		<path style="fill:#fff;" d="M174.938,15.081c-6.403-1.608-12.994-2.695-19.594-3.239l-0.769,9.347
			c6.089,0.497,12.173,1.505,18.08,2.986L174.938,15.081z"/>
		<path style="fill:#fff;" d="M233.255,63.264l7.331-5.841c-4.111-5.166-8.686-10.036-13.584-14.48l-6.3,6.947
			C225.234,53.992,229.458,58.492,233.255,63.264z"/>
		<path style="fill:#fff;" d="M252.497,167.294l8.934,2.831c1.997-6.305,3.487-12.82,4.425-19.373l-9.281-1.327
			C255.708,155.467,254.334,161.481,252.497,167.294z"/>
		<path style="fill:#fff;" d="M255.867,112.867c1.092,5.995,1.711,12.136,1.828,18.253l9.375-0.183
			c-0.127-6.614-0.792-13.261-1.983-19.753L255.867,112.867z"/>
		<path style="fill:#fff;" d="M235.922,199.853l7.552,5.559c3.928-5.344,7.439-11.034,10.434-16.908l-8.353-4.256
			C242.784,189.672,239.545,194.926,235.922,199.853z"/>
		<path style="fill:#fff;" d="M209.775,225.419l5.381,7.673c5.428-3.806,10.57-8.077,15.286-12.698l-6.563-6.694
			C219.534,217.965,214.786,221.903,209.775,225.419z"/>
		<path style="fill:#fff;" d="M36.366,188.162c2.986,5.902,6.478,11.602,10.378,16.941l7.57-5.531
			c-3.605-4.936-6.83-10.195-9.581-15.642L36.366,188.162z"/>
		<path style="fill:#fff;" d="M34.636,112.511l-9.22-1.72c-1.205,6.469-1.894,13.111-2.048,19.753l9.375,0.211
			C32.883,124.619,33.52,118.478,34.636,112.511z"/>
		<path style="fill:#fff;" d="M59.723,220.136c4.692,4.613,9.816,8.902,15.23,12.741l5.419-7.655
			c-5.006-3.544-9.741-7.505-14.067-11.77L59.723,220.136z"/>
	</g>
</g>
<g>
</g>
<g>
</g>
<g>
</g>
<g>
</g>
<g>
</g>
<g>
</g>
<g>
</g>
<g>
</g>
<g>
</g>
<g>
</g>
<g>
</g>
<g>
</g>
<g>
</g>
<g>
</g>
<g>
</g>
</svg>
