<?xml version="1.0" encoding="iso-8859-1"?>
<!-- Generator: Adobe Illustrator 19.0.0, SVG Export Plug-In . SVG Version: 6.00 Build 0)  -->
<svg xmlns="http://www.w3.org/2000/svg" xmlns:xlink="http://www.w3.org/1999/xlink" version="1.1" id="Capa_1" x="0px" y="0px" viewBox="0 0 496 496" style="enable-background:new 0 0 496 496;" xml:space="preserve">
<polygon style="fill:#f68a4c;" points="408.688,192 342.344,258.344 385.656,301.656 452,235.312 452,192 "/>
<g>
	<path style="fill:#fff;" d="M242.784,239.608l-7-14.392C226.536,229.72,215.84,232,204,232c-34.824,0-48.8-19.656-49.376-20.496   l-13.28,8.928C142.096,221.56,160.224,248,204,248C218.288,248,231.336,245.176,242.784,239.608z"/>
	<path style="fill:#fff;" d="M266.656,220.44l-13.28-8.928c-0.024,0.04-2.592,3.72-8.08,7.888l9.688,12.736   C262.632,226.312,266.264,221.024,266.656,220.44z"/>
	<rect x="196" y="152" style="fill:#fff;" width="16" height="16"/>
	<rect x="228" y="104" style="fill:#fff;" width="16" height="16"/>
	<rect x="164" y="104" style="fill:#fff;" width="16" height="16"/>
	<path style="fill:#fff;" d="M388.688,301.376l-46.064-46.064c-4.712-4.72-10.984-7.312-17.656-7.312   c-2.528,0-4.92,0.488-7.216,1.192l-18.032-41.224C293.352,193.408,278.968,184,263.072,184H249.16   c10.368-8.376,18.32-19.568,22.792-32.4C287.712,149.632,300,136.296,300,120V96c0-52.936-43.064-96-96-96s-96,43.064-96,96v24   c0,16.296,12.288,29.632,28.056,31.6c4.472,12.832,12.424,24.024,22.792,32.4h-15.064c-15.248,0-28.96,8.472-35.776,22.112   l-15.16,30.312l14.312,7.16l15.16-30.312C126.4,205.088,134.632,200,143.776,200H180v-4.2c7.52,2.672,15.576,4.2,24,4.2   s16.48-1.528,24-4.2v4.2h35.072c9.536,0,18.168,5.64,21.992,14.376l6.392,14.608C281.768,237.464,248,264,204,264   c-13.424,0-27.104-2.496-40.656-7.4l-5.448,15.048C173.2,277.184,188.712,280,204,280c17.824,0,34.008-3.776,48-9.048V304h-24h-48   h-16v16h16v32h48v-32h26.584l27.248,68.12C271.656,392.392,247.416,400,204,400c-41.328,0-61.424-6.872-69.624-10.864l14.44-28.872   l-14.312-7.16l-20.24,40.48l4.08,4.08c1.144,1.144,8.536,7.752,29.024,12.712l-6.448,32.232l-20.304,10.152   C112.832,456.64,108,464.472,108,473.168C108,485.76,118.24,496,130.832,496h36.048c11.4,0,21.304-8.112,23.536-19.288   l12.144-60.736c0.496,0,0.936,0.024,1.44,0.024c0.496,0,0.944-0.024,1.44-0.024l12.144,60.736   C219.816,487.888,229.712,496,241.12,496h36.048C289.76,496,300,485.76,300,473.168c0-8.696-4.832-16.52-12.624-20.424   l-20.304-10.152l-6.336-31.688c24.392-4.952,35.024-11.8,35.696-12.248l5.4-3.6l-19.936-49.84L308,371.312l11.688-11.688   c14.672-1.712,26.232-13.272,27.944-27.944l0.368-0.368l5.376,5.376c4.712,4.72,10.984,7.312,17.656,7.312   C384.8,344,396,332.8,396,319.032C396,312.456,393.336,306.024,388.688,301.376z M275.696,133.936   c0.168-1.96,0.304-3.928,0.304-5.936v-21.776c4.76,2.776,8,7.88,8,13.776C284,126.016,280.624,131.208,275.696,133.936z M124,120   c0-5.896,3.24-11,8-13.776V128c0,2.008,0.136,3.976,0.304,5.936C127.376,131.208,124,126.016,124,120z M133.24,88.752   c-3.248,0.704-6.256,1.992-9.056,3.6C126.112,49.936,161.12,16,204,16s77.888,33.936,79.816,76.352   c-2.8-1.608-5.808-2.896-9.056-3.6C271.664,79.072,262.688,72,252,72c-3.024,0-5.864-1.168-8-3.312l-16-16l-16,16   c-2.136,2.144-4.976,3.312-8,3.312h-48C145.312,72,136.336,79.072,133.24,88.752z M204,184c-30.88,0-56-25.128-56-56V96   c0-4.416,3.592-8,8-8h48c7.304,0,14.16-2.84,19.312-8L228,75.312L232.68,80c5.16,5.16,12.016,8,19.32,8c4.408,0,8,3.584,8,8v32   C260,158.872,234.88,184,204,184z M212,336h-16v-16h16V336z M174.728,473.568c-0.744,3.728-4.048,6.432-7.848,6.432h-36.048   c-3.768,0-6.832-3.072-6.832-6.832c0-2.6,1.448-4.944,3.776-6.112l27.304-13.648L157.76,440h23.688L174.728,473.568z M184.64,424   h-23.68l2.128-10.632c6.736,0.976,14.528,1.704,23.256,2.152L184.64,424z M221.664,415.528c8.552-0.424,16.344-1.112,23.28-2.016   L247.04,424h-23.68L221.664,415.528z M280.216,467.056c2.336,1.16,3.784,3.504,3.784,6.112c0,3.76-3.064,6.832-6.832,6.832H241.12   c-3.8,0-7.104-2.704-7.848-6.432L226.56,440h23.688l2.68,13.408L280.216,467.056z M276.64,332.048L268,310.456V296l13.144,31.544   L276.64,332.048z M276.496,274.808l-5.256-12.624c11.832-6.352,21.008-13.064,26.904-17.896l6.336,14.472   c-0.624,0.904-1.12,1.88-1.624,2.864L276.496,274.808z M282.672,289.608l18.576-9.288c1.2,3.848,3.2,7.432,6.072,10.304   l5.368,5.376l-19.312,19.312L282.672,289.608z M295.312,336L324,307.312L336.688,320L308,348.688L295.312,336z M371.032,328   c-2.4,0-4.648-0.928-6.344-2.624l-46.064-46.064c-1.664-1.672-2.624-3.984-2.624-6.344c0-4.944,4.024-8.968,8.968-8.968   c2.4,0,4.648,0.928,6.344,2.624l46.064,46.064c1.664,1.672,2.624,3.984,2.624,6.344C380,323.976,375.976,328,371.032,328z"/>
</g>
<path style="fill:#f68a4c;" d="M108,376c-35.288,0-64-28.712-64-64v-38.112c0-9.152,5.088-17.376,13.264-21.472l32-16  c11.576-5.784,25.888-5.784,37.472,0l32,16c8.176,4.096,13.264,12.328,13.264,21.472V312C172,347.288,143.288,376,108,376z"/>
<path style="fill:#fff;" d="M108,344c-17.648,0-32-14.352-32-32v-32h64v32C140,329.648,125.648,344,108,344z M92,296v16  c0,8.824,7.176,16,16,16s16-7.176,16-16v-16H92z"/>
<g>
</g>
<g>
</g>
<g>
</g>
<g>
</g>
<g>
</g>
<g>
</g>
<g>
</g>
<g>
</g>
<g>
</g>
<g>
</g>
<g>
</g>
<g>
</g>
<g>
</g>
<g>
</g>
<g>
</g>
</svg>
