<?xml version="1.0" encoding="iso-8859-1"?>
<!-- Generator: Adobe Illustrator 19.0.0, SVG Export Plug-In . SVG Version: 6.00 Build 0)  -->
<svg version="1.1" id="Capa_1" xmlns="http://www.w3.org/2000/svg" xmlns:xlink="http://www.w3.org/1999/xlink" x="0px" y="0px"
	 viewBox="0 0 501.208 501.208" style="enable-background:new 0 0 501.208 501.208;" xml:space="preserve">
<g>
	<path style="fill:#f68a4c;" d="M370.608,210.604c-48.52,0-88,39.48-88,88v134.744c3.952-2.048,8.208-3.584,12.696-4.48
		l51.304-10.264V405.18c-16.584-7.904-28.656-23.712-31.36-42.576h-0.64c-13.256,0-24-10.744-24-24s10.744-24,24-24h14.056
		c21.728,0,42.576-8.632,57.944-24l2.688,4.032c8.32,12.472,22.32,19.968,37.312,19.968c13.256,0,24,10.744,24,24s-10.744,24-24,24
		h-0.64c-2.704,18.856-14.784,34.672-31.36,42.576v13.424l51.304,10.264c4.488,0.896,8.752,2.432,12.696,4.48V298.604
		C458.608,250.084,419.128,210.604,370.608,210.604z"/>
	<path style="fill:#f68a4c;" d="M130.608,2.604c-48.52,0-88,39.48-88,88v40h8c0-13.256,10.744-24,24-24
		c14.992,0,28.992-7.496,37.312-19.968l2.688-4.032c15.368,15.368,36.208,24,57.944,24h14.056c13.256,0,24,10.744,24,24h8v-40
		C218.608,42.084,179.128,2.604,130.608,2.604z"/>
	<path style="fill:#f68a4c;" d="M330.608,201.548v-54.944h-48c-13.232,0-24-10.768-24-24v-96c0-13.232,10.768-24,24-24h192
		c13.232,0,24,10.768,24,24v96c0,13.232-10.768,24-24,24h-61.576L330.608,201.548z"/>
</g>
<path style="fill:#fff;" d="M250.336,252.548c-5.784-20.248-22.208-35.392-42.856-39.52l-44.872-8.984v-2.104c14.8-8.592,25.824-22.928,30.048-39.952
	c14.76-2.84,25.952-15.808,25.952-31.384c0-17.648-14.352-32-32-32h-14.056c-19.752,0-38.32-7.688-52.288-21.656l-6.896-6.904
	l-8.104,12.152c-6.848,10.272-18.312,16.408-30.656,16.408c-17.648,0-32,14.352-32,32c0,15.576,11.192,28.544,25.952,31.392
	c4.224,17.024,15.248,31.36,30.048,39.952v2.104l-44.864,8.976c-20.656,4.128-37.08,19.272-42.864,39.52L0,290.604h261.208
	L250.336,252.548z M114.608,208.5c5.128,1.328,10.464,2.104,16,2.104s10.872-0.776,16-2.104v2.104c0,8.824-7.176,16-16,16
	s-16-7.176-16-16V208.5z M202.608,130.604c0,5.896-3.24,11-8,13.776v-27.552C199.368,119.604,202.608,124.708,202.608,130.604z
	 M58.608,130.604c0-5.896,3.24-11,8-13.776v27.552C61.848,141.604,58.608,136.5,58.608,130.604z M82.608,146.604v-32.68
	c13.136-2.008,25.072-8.816,33.392-19.312c15.96,12.952,35.712,19.992,56.552,19.992h6.056v32c0,26.472-21.528,48-48,48
	S82.608,173.076,82.608,146.604z M200.856,274.604l-6.488-25.944l-15.52,3.88l5.512,22.064H76.856l5.512-22.056l-15.52-3.88
	l-6.488,25.936H21.216l5.048-17.664c4.136-14.464,15.864-25.288,30.616-28.232l43.312-8.664c4.056,13.016,16.08,22.56,30.416,22.56
	s26.36-9.544,30.416-22.56l43.32,8.664c14.752,2.952,26.48,13.768,30.616,28.232l5.04,17.664H200.856z"/>
<path style="fill:#fff;" d="M490.336,460.548c-5.784-20.248-22.208-35.392-42.856-39.52l-44.872-8.984v-2.104c14.8-8.592,25.824-22.928,30.048-39.952
	c14.76-2.84,25.952-15.808,25.952-31.384c0-17.648-14.352-32-32-32c-12.344,0-23.808-6.136-30.656-16.408l-8.104-12.152
	l-6.896,6.904c-13.968,13.968-32.536,21.656-52.288,21.656h-14.056c-17.648,0-32,14.352-32,32c0,15.576,11.192,28.544,25.952,31.392
	c4.224,17.024,15.248,31.36,30.048,39.952v2.104l-44.864,8.976c-20.656,4.128-37.08,19.272-42.864,39.52L240,498.604h261.208
	L490.336,460.548z M354.608,416.5c5.128,1.328,10.464,2.104,16,2.104s10.872-0.776,16-2.104v2.104c0,8.824-7.176,16-16,16
	s-16-7.176-16-16V416.5z M442.608,338.604c0,5.896-3.24,11-8,13.776v-27.552C439.368,327.604,442.608,332.708,442.608,338.604z
	 M298.608,338.604c0-5.896,3.24-11,8-13.776v27.552C301.848,349.604,298.608,344.5,298.608,338.604z M322.608,354.604v-32h6.056
	c20.832,0,40.592-7.04,56.552-19.992c8.312,10.488,20.248,17.304,33.392,19.312v32.68c0,26.472-21.528,48-48,48
	S322.608,381.076,322.608,354.604z M440.856,482.604l-6.488-25.944l-15.52,3.88l5.512,22.064H316.856l5.512-22.056l-15.52-3.88
	l-6.488,25.936h-39.144l5.048-17.664c4.136-14.464,15.864-25.288,30.616-28.232l43.312-8.664c4.056,13.016,16.08,22.56,30.416,22.56
	s26.36-9.544,30.416-22.56l43.32,8.664c14.752,2.952,26.48,13.768,30.616,28.232l5.04,17.664H440.856z"/>
<path style="fill:#fff;" d="M79.704,338.092l31.328,15.664l7.16-14.312l-55.16-27.576l-27.576,55.16l14.312,7.16l15.024-30.048
	c29.808,58.944,87.16,101.304,152.552,111.824l2.536-15.8C159.968,430.524,107.384,391.892,79.704,338.092z"/>
<path style="fill:#fff;" d="M314.608,98.604c13.232,0,24-10.768,24-24s-10.768-24-24-24s-24,10.768-24,24S301.376,98.604,314.608,98.604z
	 M314.608,66.604c4.408,0,8,3.592,8,8s-3.592,8-8,8s-8-3.592-8-8S310.2,66.604,314.608,66.604z"/>
<path style="fill:#fff;" d="M378.608,98.604c13.232,0,24-10.768,24-24s-10.768-24-24-24s-24,10.768-24,24S365.376,98.604,378.608,98.604z
	 M378.608,66.604c4.408,0,8,3.592,8,8s-3.592,8-8,8s-8-3.592-8-8S374.2,66.604,378.608,66.604z"/>
<path style="fill:#fff;" d="M442.608,98.604c13.232,0,24-10.768,24-24s-10.768-24-24-24s-24,10.768-24,24S429.376,98.604,442.608,98.604z
	 M442.608,66.604c4.408,0,8,3.592,8,8s-3.592,8-8,8s-8-3.592-8-8S438.2,66.604,442.608,66.604z"/>
<g>
</g>
<g>
</g>
<g>
</g>
<g>
</g>
<g>
</g>
<g>
</g>
<g>
</g>
<g>
</g>
<g>
</g>
<g>
</g>
<g>
</g>
<g>
</g>
<g>
</g>
<g>
</g>
<g>
</g>
</svg>
