<?xml version="1.0" encoding="iso-8859-1"?>
<!-- Generator: Adobe Illustrator 19.0.0, SVG Export Plug-In . SVG Version: 6.00 Build 0)  -->
<svg version="1.1" id="Capa_1" xmlns="http://www.w3.org/2000/svg" xmlns:xlink="http://www.w3.org/1999/xlink" x="0px" y="0px"
	 viewBox="0 0 496 496" style="enable-background:new 0 0 496 496;" xml:space="preserve">
<g>
	<path style="fill:#f68a4c;" d="M144.12,423.472l1.4-5.608L144,415.96l-18.912-25.208c-3.2-4.28-8.232-6.792-13.576-6.792h-6.544
		C95.6,383.96,88,391.56,88,400.928c0,4.504-1.792,8.816-4.968,12l-8.2,8.2c-1.864,1.864-3.264,4.136-4.104,6.632L64,447.96v3.24
		c5.92,3.024,12.528,4.76,19.44,4.76h19.072C122.192,455.96,139.352,442.568,144.12,423.472z"/>
	<path style="fill:#f68a4c;" d="M59.52,242.52L56,231.96h-5.112C27.2,231.96,8,251.16,8,274.848v13.112h17.832
		c8.68,0,16.624-4.904,20.504-12.672c1.104-2.2,2.552-4.216,4.296-5.96l3.352-3.352C60.12,259.84,62.264,250.76,59.52,242.52z"/>
	<path style="fill:#f68a4c;" d="M136,343.96c-13.232,0-24-10.768-24-24s10.768-24,24-24s24,10.768,24,24S149.232,343.96,136,343.96z
		 M136,311.96c-4.416,0-8,3.584-8,8s3.584,8,8,8s8-3.584,8-8S140.416,311.96,136,311.96z"/>
	<path style="fill:#f68a4c;" d="M56,375.96c-13.232,0-24-10.768-24-24s10.768-24,24-24s24,10.768,24,24S69.232,375.96,56,375.96z
		 M56,343.96c-4.416,0-8,3.584-8,8s3.584,8,8,8s8-3.584,8-8S60.416,343.96,56,343.96z"/>
	<path style="fill:#f68a4c;" d="M288,335.96c-13.232,0-24-10.768-24-24s10.768-24,24-24s24,10.768,24,24S301.232,335.96,288,335.96z
		 M288,303.96c-4.416,0-8,3.584-8,8s3.584,8,8,8s8-3.584,8-8S292.416,303.96,288,303.96z"/>
</g>
<path style="fill:#fff;" d="M146.728,259.768l-15.408-1.712c-9.528-1.056-18.296-6.064-24.056-13.736c-9.56-12.752-24.776-20.36-40.712-20.36H50.888
	C22.832,223.96,0,246.792,0,274.848v67.688c0,7.32,1.624,14.696,4.68,21.328l32.552,70.528
	c8.296,17.968,26.432,29.568,46.208,29.568h19.072c23.392,0,43.696-15.848,49.368-38.544l6.08-24.304
	c0.976-3.888,2.592-7.552,4.816-10.888l20.672-31.016c5.6-8.4,8.552-18.152,8.552-28.232v-20.624
	C192,284.384,172.536,262.632,146.728,259.768z M176,330.976c0,6.904-2.024,13.6-5.856,19.352l-20.672,31.016
	c-3.248,4.856-5.608,10.208-7.024,15.888l-6.08,24.304c-3.896,15.56-17.816,26.424-33.856,26.424H83.44
	c-13.56,0-25.992-7.952-31.672-20.264l-32.56-70.536C17.112,352.608,16,347.552,16,342.536v-67.688
	c0-19.232,15.656-34.888,34.888-34.888h15.664c10.92,0,21.36,5.216,27.912,13.96c8.4,11.192,21.192,18.496,35.088,20.04
	l15.408,1.712c17.696,1.96,31.04,16.872,31.04,34.68V330.976z"/>
<rect style="fill:#fff;" x="72" y="279.96" width="16" height="16"/>
<path style="fill:#fff;" d="M235.56,177.304l8.872,13.312C261.696,179.112,272,159.856,272,139.12v-34.696l-32.672,23.336
	c-22.168,15.832-48.296,24.2-75.544,24.2c-8.848,0-17.496,1.664-25.696,4.952c-20.576,8.232-36.064,25.976-41.44,47.472l-0.408,1.64
	l15.52,3.88l0.408-1.64c4.128-16.528,16.04-30.168,31.856-36.496c6.312-2.528,12.96-3.808,19.76-3.808
	c30.608,0,59.944-9.4,84.84-27.184l7.376-5.272v3.616C256,154.496,248.36,168.776,235.56,177.304z"/>
<path style="fill:#fff;" d="M471.536,93.112c-17.312,17.312-40.336,26.848-64.824,26.848c-37.008,0-70.968,18.64-90.84,49.864l-3.048,4.792
	c-13.28,20.88-35.992,33.344-60.736,33.344H240c-27.552,0-53.864,13.16-70.4,35.2l12.8,9.6c13.528-18.032,35.056-28.8,57.6-28.8
	h12.088c30.248,0,58-15.232,74.24-40.76l3.048-4.784c16.92-26.584,45.832-42.456,77.336-42.456c27.44,0,53.312-10.192,73.288-28.784
	v14.16c0,12.456-4.848,24.168-13.656,32.976c-8.808,8.8-20.512,13.648-32.976,13.648v16c16.728,0,32.456-6.512,44.288-18.344
	S496,138.064,496,121.328v-52.68L471.536,93.112z"/>
<path style="fill:#fff;" d="M430.056,207.96H424v16h6.056c18,0,35.2-5.256,49.832-15.032c-0.544,9.84-3.112,19.584-7.52,28.392
	c-8.208,16.432-24.728,26.64-43.104,26.64c-7.44,0-14.896-1.76-21.552-5.088L397.968,254c-7.904-3.952-16.752-6.04-25.584-6.04
	c-15.28,0-29.648,5.952-40.456,16.76l-1.584,1.584l11.312,11.312l1.584-1.584c7.792-7.784,18.136-12.072,29.144-12.072
	c6.36,0,12.736,1.504,18.432,4.352l9.744,4.872c8.872,4.432,18.792,6.776,28.704,6.776c24.48,0,46.48-13.6,57.424-35.488
	c6.096-12.176,9.312-25.824,9.312-39.448v-32.376l-13.656,13.656C468.376,200.272,449.808,207.96,430.056,207.96z"/>
<rect style="fill:#fff;" x="400" y="167.96" width="16" height="16"/>
<path style="fill:#fff;" d="M288.84,379.392c13.704,8.224,29.392,12.568,45.368,12.568c38.016,0,71.64-24.232,83.656-60.296l11.832-35.496
	l-32.32,16.152c-16.96,8.496-37.248,9.936-55.224,3.92l-11.632-3.872l-5.056,15.184l11.632,3.864c21.16,7.08,44.96,5.712,65.2-3.712
	c-10.136,28.912-37.36,48.256-68.088,48.256c-13.072,0-25.912-3.552-37.144-10.296L292.608,363
	c-12.032-7.216-25.808-11.04-39.84-11.04c-20.68,0-40.136,8.056-54.76,22.688l-3.664,3.656l11.304,11.312l3.664-3.656
	c11.608-11.608,27.04-18,43.448-18c11.136,0,22.064,3.032,31.616,8.768L288.84,379.392z"/>
<path style="fill:#fff;" d="M264,279.96c17.616,0,34.176-6.856,46.624-19.312l7.032-7.032l-11.312-11.312l-7.032,7.032
	c-9.432,9.432-21.968,14.624-35.312,14.624c-17.616,0-34.176,6.856-46.624,19.312l-7.032,7.032l11.312,11.312l7.032-7.032
	C238.12,285.152,250.656,279.96,264,279.96z"/>
<rect style="fill:#fff;" x="328" y="223.96" width="16" height="16"/>
<rect style="fill:#fff;" x="288" y="119.96" width="16" height="16"/>
<rect style="fill:#fff;" x="360" y="87.96" width="16" height="16"/>
<rect style="fill:#fff;" x="419.921" y="366.535" transform="matrix(-0.9124 0.4093 -0.4093 -0.9124 1024.4105 529.8126)" width="71.176" height="15.992"/>
<rect style="fill:#fff;" x="440.757" y="403.18" transform="matrix(-0.9172 0.3985 -0.3985 -0.9172 1024.1351 609.4923)" width="15.936" height="16"/>
<rect style="fill:#fff;" x="264.952" y="446.183" transform="matrix(-0.917 0.3989 -0.3989 -0.917 851.5706 731.1674)" width="169.521" height="16"/>
<rect style="fill:#fff;" x="-1.909" y="57.603" transform="matrix(-0.9125 0.4091 -0.4091 -0.9125 239.9509 79.8784)" width="226.682" height="16"/>
<rect style="fill:#fff;" x="226.162" y="2.93" transform="matrix(-0.9125 0.4091 -0.4091 -0.9125 450.8439 -74.5784)" width="14.472" height="16"/>
<g>
</g>
<g>
</g>
<g>
</g>
<g>
</g>
<g>
</g>
<g>
</g>
<g>
</g>
<g>
</g>
<g>
</g>
<g>
</g>
<g>
</g>
<g>
</g>
<g>
</g>
<g>
</g>
<g>
</g>
</svg>
