<?xml version="1.0" encoding="iso-8859-1"?>
<!-- Generator: Adobe Illustrator 19.0.0, SVG Export Plug-In . SVG Version: 6.00 Build 0)  -->
<svg xmlns="http://www.w3.org/2000/svg" xmlns:xlink="http://www.w3.org/1999/xlink" version="1.1" id="Capa_1" x="0px" y="0px" viewBox="0 0 488 488" style="enable-background:new 0 0 488 488;" xml:space="preserve">
<g>
	<path style="fill:#f68a4c;" d="M137.696,224c6.824,0,13.608-1.104,20.08-3.256l0,0c9.352-3.12,17.856-8.368,24.824-15.344L196,192   l24,16l-8.672,11.568c-10.024,13.36-23.528,23.712-39.04,29.92c-10.76,4.304-22.24,6.512-33.832,6.512H116v-32H137.696z"/>
	<path style="fill:#f68a4c;" d="M350.304,224c-6.824,0-13.608-1.104-20.08-3.256l0,0c-9.352-3.12-17.856-8.368-24.824-15.344   L292,192l-24,16l8.672,11.568c10.024,13.36,23.528,23.712,39.04,29.92c10.76,4.304,22.24,6.512,33.832,6.512H372v-32H350.304z"/>
	<path style="fill:#f68a4c;" d="M359.616,4.312C357.544,1.56,354.264,0,350.816,0c-5.952,0-10.768,4.712-11.104,10.656   C337.568,49.216,324,56,324,56l8,32l24.016-9.544C356.016,78.456,372,64,372,40C372,23.384,364.336,10.608,359.616,4.312z"/>
	<path style="fill:#f68a4c;" d="M148.288,10.656C147.952,4.712,143.136,0,137.184,0c-3.448,0-6.728,1.56-8.792,4.312   C123.664,10.608,116,23.384,116,40c0,24,15.984,38.456,15.984,38.456L156,88l8-32C164,56,150.432,49.216,148.288,10.656z"/>
</g>
<g>
	<rect x="260" y="168" style="fill:#fff;" width="16" height="16"/>
	<rect x="212" y="168" style="fill:#fff;" width="16" height="16"/>
	<path style="fill:#fff;" d="M399.776,64c-20.728,0-41.456,4.168-60.632,12.032C334.76,51.056,312.96,32,286.744,32   c-14.224,0-27.6,5.536-37.656,15.6L244,52.688l-5.088-5.088C228.848,37.536,215.48,32,201.256,32   c-26.216,0-48.016,19.056-52.4,44.032C129.672,68.168,108.944,64,88.224,64H64.896l10.608,31.808   C81.92,115.064,99.864,128,120.168,128c9.328,0,18.352-2.736,26.112-7.904l5.368-3.576c3.04,13.136,7.912,25.84,14.648,37.624   L178.784,176h-21.616c-7.24,0-14.488,1.712-20.936,4.944l-2.344,1.168C117.92,190.096,108,206.144,108,224v8v24v8v72   c0,17.648,14.352,32,32,32v30.248l6.056,1.504c0.68,0.168,9.312,2.272,25.944,4.312V488h64v-80.064   c2.632,0.032,5.248,0.064,8,0.064c2.752,0,5.368-0.032,8-0.064V488h64v-83.928c16.632-2.04,25.264-4.144,25.944-4.312l6.056-1.512   V368c17.648,0,32-14.352,32-32v-72v-8v-24v-8c0-17.856-9.92-33.904-25.896-41.896l-2.32-1.16   c-6.464-3.232-13.712-4.944-20.952-4.944h-21.616l12.496-21.864c6.728-11.776,11.608-24.48,14.648-37.624l5.368,3.576   c7.752,5.176,16.776,7.912,26.104,7.912c20.304,0,38.248-12.936,44.664-32.192L423.104,64H399.776z M137.408,106.784   c-5.12,3.408-11.08,5.216-17.24,5.216c-13.4,0-25.248-8.536-29.488-21.256L87.104,80h1.12c20.648,0,41.288,4.6,60.04,13.224   c0.112,2,0.312,3.984,0.52,5.976L137.408,106.784z M220,152c6.912,0,13.296,2.952,17.984,8.304l6.016,6.88l6.016-6.888   C254.704,154.952,261.088,152,268,152c13.232,0,24,10.768,24,24s-10.768,24-24,24c-6.912,0-13.296-2.952-17.984-8.304l-6.016-6.88   l-6.016,6.888C233.296,197.048,226.912,200,220,200c-13.232,0-24-10.768-24-24S206.768,152,220,152z M169.312,242.056   c-4.336,1.736-8.792,3.024-13.312,4.008v-16.488c1.44-0.384,2.888-0.768,4.312-1.248c4.056-1.352,7.936-3.184,11.688-5.24v17.672   C171.088,241.168,170.24,241.688,169.312,242.056z M188,211.288c0.08-0.08,0.176-0.144,0.256-0.232l5.288-5.288   c3.64,3.24,7.816,5.824,12.456,7.568l-1.072,1.432c-4.816,6.416-10.552,12.016-16.928,16.76L188,211.288L188,211.288z    M283.072,214.768L282,213.336c4.64-1.744,8.816-4.328,12.456-7.568l5.288,5.288c0.08,0.08,0.176,0.152,0.256,0.232v20.24   C293.624,226.784,287.888,221.184,283.072,214.768z M318.68,242.056c-0.928-0.368-1.776-0.888-2.68-1.296v-17.672   c3.752,2.064,7.64,3.888,11.696,5.24c1.424,0.472,2.864,0.864,4.304,1.248v16.488C327.48,245.088,323.024,243.792,318.68,242.056z    M258.72,214.752C257.048,219.176,253.168,224,244,224c-9.08,0-13.024-4.752-14.728-9.248c5.296-1.296,10.336-3.56,14.728-6.896   C248.392,211.192,253.424,213.456,258.72,214.752z M141.032,196.424l2.352-1.168c4.256-2.128,9.016-3.256,13.784-3.256h26.224   c0.128,0.296,0.32,0.552,0.456,0.84l-6.904,6.904c-6.064,6.064-13.568,10.696-21.696,13.408   c-5.672,1.888-11.584,2.848-17.552,2.848H125.04C127.272,207.592,132.992,200.448,141.032,196.424z M137.696,232   c0.768,0,1.536-0.064,2.304-0.096v16.024c-0.512,0.008-1.024,0.072-1.536,0.072H124v-16H137.696z M124,336v-72h14.464   c5.92,0,11.776-0.568,17.536-1.608V312v16v8c0,8.824-7.176,16-16,16S124,344.824,124,336z M188,472v-32h32v32H188z M220,424h-32   v-18.272c9.168,0.8,19.8,1.48,32,1.88V424z M268,472v-32h32v32H268z M300,424h-32v-16.392c12.2-0.4,22.832-1.08,32-1.88V424z    M332,385.48c-11.944,2.184-41.448,6.52-88,6.52s-76.056-4.336-88-6.52v-21.928c9.52-5.552,16-15.76,16-27.552v-8h112v-16H172   v-53.96c1.08-0.392,2.184-0.696,3.256-1.128c16.496-6.6,30.84-17.552,41.664-31.616C221.696,233.352,230.208,240,244,240   c13.792,0,22.304-6.648,27.08-14.704c10.824,14.064,25.176,25.016,41.664,31.616c1.072,0.432,2.176,0.736,3.256,1.128V312h-16v16   h16v8c0,11.792,6.48,22,16,27.552V385.48z M364,336c0,8.824-7.176,16-16,16s-16-7.176-16-16v-8v-16v-49.608   c5.768,1.04,11.616,1.608,17.536,1.608H364V336z M364,248h-14.464c-0.52,0-1.024-0.064-1.536-0.072v-16.024   c0.768,0.032,1.536,0.096,2.304,0.096H364V248z M344.632,195.264l2.328,1.16c8.056,4.024,13.768,11.168,16,19.576h-12.656   c-5.976,0-11.88-0.96-17.552-2.848c-8.136-2.712-15.64-7.344-21.696-13.408l-6.904-6.904c0.136-0.288,0.328-0.544,0.456-0.84   h26.224C335.6,192,340.36,193.128,344.632,195.264z M307.816,146.2l-5.488,9.608c-5.664-9.584-15.08-16.704-26.328-18.992v-3.824   c0-7.016,0.456-14.024,1.36-20.984H288c11.024,0,20-8.976,20-20S299.024,72,288,72c-10.744,0-20.064,7.28-22.672,17.704   c-3.536,14.144-5.328,28.712-5.328,43.28v3.944c-5.776,1.208-11.256,3.616-16,7.216c-4.744-3.608-10.224-6.008-16-7.216v-3.944   c0-14.568-1.792-29.136-5.328-43.288C220.064,79.28,210.744,72,200,72c-11.024,0-20,8.976-20,20s8.976,20,20,20h10.64   c0.904,6.96,1.36,13.968,1.36,20.984v3.824c-11.248,2.296-20.664,9.408-26.328,18.992l-5.488-9.608   C169.6,127.672,164,106.6,164,85.256C164,64.712,180.712,48,201.256,48c9.952,0,19.312,3.872,26.344,10.912l16.4,16.4l16.4-16.4   C267.44,51.872,276.792,48,286.744,48C307.288,48,324,64.712,324,85.256C324,106.6,318.4,127.672,307.816,146.2z M280.264,96   c0.184-0.808,0.384-1.616,0.584-2.416C281.672,90.296,284.616,88,288,88c2.208,0,4,1.792,4,4s-1.792,4-4,4H280.264z M207.736,96   H200c-2.208,0-4-1.792-4-4s1.792-4,4-4c3.384,0,6.328,2.296,7.152,5.576C207.352,94.384,207.544,95.192,207.736,96z M397.32,90.752   C393.08,103.464,381.232,112,367.832,112c-6.16,0-12.12-1.808-17.24-5.216L339.224,99.2c0.2-1.992,0.4-3.976,0.52-5.976   C358.488,84.6,379.128,80,399.776,80h1.12L397.32,90.752z"/>
	<rect x="284" y="264" style="fill:#fff;" width="16" height="16"/>
	<rect x="188" y="264" style="fill:#fff;" width="16" height="16"/>
</g>
<g>
</g>
<g>
</g>
<g>
</g>
<g>
</g>
<g>
</g>
<g>
</g>
<g>
</g>
<g>
</g>
<g>
</g>
<g>
</g>
<g>
</g>
<g>
</g>
<g>
</g>
<g>
</g>
<g>
</g>
</svg>
