<?xml version="1.0" encoding="iso-8859-1"?>
<!-- Generator: Adobe Illustrator 19.0.0, SVG Export Plug-In . SVG Version: 6.00 Build 0)  -->
<svg version="1.1" id="Capa_1" xmlns="http://www.w3.org/2000/svg" xmlns:xlink="http://www.w3.org/1999/xlink" x="0px" y="0px"
	 viewBox="0 0 496 496" style="enable-background:new 0 0 496 496;" xml:space="preserve">
<g>
	<path style="fill:#f68a4c;" d="M472,112h-96c-13.232,0-24-10.768-24-24V24c0-13.232,10.768-24,24-24h96c13.232,0,24,10.768,24,24
		v64C496,101.232,485.232,112,472,112z"/>
	<path style="fill:#f68a4c;" d="M120,112H24c-13.232,0-24-10.768-24-24V24C0,10.768,10.768,0,24,0h96c13.232,0,24,10.768,24,24v64
		C144,101.232,133.232,112,120,112z"/>
	<path style="fill:#f68a4c;" d="M120,496H24c-13.232,0-24-10.768-24-24v-64c0-13.232,10.768-24,24-24h96c13.232,0,24,10.768,24,24
		v64C144,485.232,133.232,496,120,496z"/>
</g>
<path style="fill:#fff;" d="M400,336c0-10.416-6.712-19.216-16-22.528V286.52c9.288-3.312,16-12.112,16-22.528c0-13.232-10.768-24-24-24
	c-4.912,0-9.48,1.496-13.28,4.032l-27.912-20.936c0.704-2.248,1.192-4.6,1.192-7.088c0-10.416-6.712-19.216-16-22.528V166.52
	c9.288-3.312,16-12.112,16-22.528c0-13.232-10.768-24-24-24c-4.912,0-9.48,1.496-13.28,4.032l-27.912-20.936
	C271.512,100.84,272,98.488,272,96c0-13.232-10.768-24-24-24s-24,10.768-24,24c0,2.488,0.488,4.84,1.192,7.104L197.28,124.04
	c-3.8-2.544-8.368-4.04-13.28-4.04c-13.232,0-24,10.768-24,24c0,10.416,6.712,19.216,16,22.528v26.952
	c-9.288,3.312-16,12.112-16,22.528c0,2.488,0.488,4.84,1.192,7.104l-27.912,20.936c-3.8-2.552-8.368-4.048-13.28-4.048
	c-13.232,0-24,10.768-24,24c0,10.416,6.712,19.216,16,22.528v26.952c-9.288,3.312-16,12.112-16,22.528c0,13.232,10.768,24,24,24
	c4.912,0,9.48-1.496,13.288-4.04L160,376c0,13.232,10.768,24,24,24s24-10.768,24-24l26.72-20.04c3.8,2.544,8.368,4.04,13.28,4.04
	c4.912,0,9.48-1.496,13.28-4.032L288,376c0,13.232,10.768,24,24,24s24-10.768,24-24l26.712-20.04
	c3.808,2.544,8.376,4.04,13.288,4.04C389.232,360,400,349.232,400,336z M352,336c0,2.488,0.488,4.84,1.192,7.104l-23.088,17.32
	c-4.4-5.112-10.84-8.424-18.104-8.424s-13.704,3.312-18.104,8.424l-23.088-17.32c0.704-2.256,1.192-4.616,1.192-7.104
	c0-10.416-6.712-19.216-16-22.528V286.52c9.288-3.312,16-12.112,16-22.528c0-2.488-0.488-4.848-1.192-7.104l27.904-20.936
	C302.52,238.504,307.088,240,312,240s9.48-1.496,13.288-4.04l27.912,20.928c-0.712,2.264-1.2,4.624-1.2,7.112
	c0,10.416,6.712,19.216,16,22.528v26.952C358.712,316.784,352,325.584,352,336z M224,336c0,2.488,0.488,4.848,1.2,7.104
	l-23.088,17.32C197.704,355.312,191.264,352,184,352s-13.704,3.312-18.104,8.424l-23.088-17.32c0.704-2.256,1.192-4.616,1.192-7.104
	c0-10.416-6.712-19.216-16-22.528V286.52c9.288-3.312,16-12.112,16-22.528c0-2.488-0.488-4.848-1.2-7.104l27.912-20.928
	c3.808,2.544,8.376,4.04,13.288,4.04s9.48-1.496,13.288-4.04l27.904,20.936C224.488,259.16,224,261.512,224,264
	c0,10.416,6.712,19.216,16,22.528v26.952C230.712,316.784,224,325.584,224,336z M208,144c0-2.488-0.488-4.848-1.2-7.104
	l27.912-20.928C238.52,118.504,243.088,120,248,120c4.912,0,9.48-1.496,13.288-4.04l27.912,20.928c-0.712,2.264-1.2,4.624-1.2,7.112
	c0,10.416,6.712,19.216,16,22.528v26.952c-9.288,3.312-16,12.112-16,22.528c0,2.488,0.488,4.84,1.192,7.104l-27.912,20.936
	c-3.8-2.552-8.368-4.048-13.28-4.048s-9.48,1.496-13.288,4.04L206.8,223.104c0.712-2.264,1.2-4.616,1.2-7.104
	c0-10.416-6.712-19.216-16-22.528V166.52C201.288,163.216,208,154.416,208,144z M312,224c-4.408,0-8-3.584-8-8s3.592-8,8-8
	s8,3.584,8,8S316.408,224,312,224z M248,272c-4.408,0-8-3.584-8-8s3.592-8,8-8c4.408,0,8,3.584,8,8S252.408,272,248,272z M376,256
	c4.408,0,8,3.584,8,8s-3.592,8-8,8s-8-3.584-8-8S371.592,256,376,256z M312,136c4.408,0,8,3.584,8,8s-3.592,8-8,8s-8-3.584-8-8
	S307.592,136,312,136z M248,88c4.408,0,8,3.584,8,8s-3.592,8-8,8s-8-3.584-8-8S243.592,88,248,88z M184,136c4.408,0,8,3.584,8,8
	s-3.592,8-8,8s-8-3.584-8-8S179.592,136,184,136z M184,208c4.408,0,8,3.584,8,8s-3.592,8-8,8s-8-3.584-8-8S179.592,208,184,208z
	 M120,256c4.408,0,8,3.584,8,8s-3.592,8-8,8s-8-3.584-8-8S115.592,256,120,256z M120,344c-4.408,0-8-3.584-8-8s3.592-8,8-8
	c4.408,0,8,3.584,8,8S124.408,344,120,344z M184,384c-4.408,0-8-3.584-8-8s3.592-8,8-8s8,3.584,8,8S188.408,384,184,384z M248,344
	c-4.408,0-8-3.584-8-8s3.592-8,8-8c4.408,0,8,3.584,8,8S252.408,344,248,344z M312,384c-4.408,0-8-3.584-8-8s3.592-8,8-8
	s8,3.584,8,8S316.408,384,312,384z M376,344c-4.408,0-8-3.584-8-8s3.592-8,8-8s8,3.584,8,8S380.408,344,376,344z"/>
<rect style="fill:#fff;" x="368" y="32" width="112" height="16"/>
<rect style="fill:#fff;" x="368" y="64" width="80" height="16"/>
<rect style="fill:#fff;" x="16" y="32" width="112" height="16"/>
<rect style="fill:#fff;" x="16" y="64" width="80" height="16"/>
<rect style="fill:#fff;" x="16" y="416" width="112" height="16"/>
<rect style="fill:#fff;" x="16" y="448" width="80" height="16"/>
<polygon style="fill:#fff;" points="244.688,432 144,432 144,448 251.312,448 285.656,413.656 274.344,402.344 "/>
<polygon style="fill:#fff;" points="194.344,93.656 205.656,82.344 171.312,48 144,48 144,64 164.688,64 "/>
<polygon style="fill:#fff;" points="432,155.312 432,112 416,112 416,148.688 366.344,198.344 377.656,209.656 "/>
<rect style="fill:#fff;" x="416" y="376" width="16" height="16"/>
<rect style="fill:#fff;" x="416" y="424" width="16" height="16"/>
<rect style="fill:#fff;" x="440" y="400" width="16" height="16"/>
<rect style="fill:#fff;" x="392" y="400" width="16" height="16"/>
<rect style="fill:#fff;" x="96" y="136" width="16" height="16"/>
<rect style="fill:#fff;" x="96" y="184" width="16" height="16"/>
<rect style="fill:#fff;" x="120" y="160" width="16" height="16"/>
<rect style="fill:#fff;" x="72" y="160" width="16" height="16"/>
<rect style="fill:#fff;" x="464" y="216" width="16" height="16"/>
<rect style="fill:#fff;" x="432" y="296" width="16" height="16"/>
<rect style="fill:#fff;" x="352" y="384" width="16" height="16"/>
<rect style="fill:#fff;" x="464" y="64" width="16" height="16"/>
<rect style="fill:#fff;" x="112" y="64" width="16" height="16"/>
<rect style="fill:#fff;" x="64" y="248" width="16" height="16"/>
<rect style="fill:#fff;" x="112" y="448" width="16" height="16"/>
<g>
</g>
<g>
</g>
<g>
</g>
<g>
</g>
<g>
</g>
<g>
</g>
<g>
</g>
<g>
</g>
<g>
</g>
<g>
</g>
<g>
</g>
<g>
</g>
<g>
</g>
<g>
</g>
<g>
</g>
</svg>
