<?xml version="1.0" encoding="iso-8859-1"?>
<!-- Generator: Adobe Illustrator 19.0.0, SVG Export Plug-In . SVG Version: 6.00 Build 0)  -->
<svg version="1.1" id="Layer_1" xmlns="http://www.w3.org/2000/svg" xmlns:xlink="http://www.w3.org/1999/xlink" x="0px" y="0px"
	 viewBox="0 0 290.625 290.625" style="enable-background:new 0 0 290.625 290.625;" xml:space="preserve">
<g>
	<g>
		<polygon style="fill:#fff;" points="173.438,131.25 173.438,140.625 276.563,140.625 276.563,281.25 14.063,281.25 
			14.063,140.625 117.188,140.625 117.188,131.25 4.688,131.25 4.688,290.625 285.938,290.625 285.938,131.25 		"/>
		<path style="fill:#fff;" d="M51.089,159.375h70.786V150H42.188v4.688c0,7.753-6.309,14.063-14.063,14.063h-4.688v84.375h4.688
			c7.753,0,14.063,6.309,14.063,14.063v4.688h205.988l0.469-4.167c0.858-7.613,6.764-13.528,14.377-14.372l4.167-0.469V168.75H262.5
			c-7.753,0-14.063-6.309-14.063-14.063V150H168.75v9.375h70.786c1.866,9.169,9.108,16.411,18.277,18.277v67.172
			c-8.592,2.414-15.258,9.084-17.677,17.677h-72.408c19.884-8.681,33.834-28.514,33.834-51.562
			c0-23.728-15.047-45.014-37.444-52.964l-3.136,8.836c18.666,6.628,31.205,24.361,31.205,44.128
			c0,25.847-21.028,46.875-46.875,46.875s-46.875-21.028-46.875-46.875c0-19.767,12.544-37.5,31.209-44.128l-3.136-8.836
			c-22.402,7.95-37.448,29.236-37.448,52.964c0,23.048,13.95,42.881,33.834,51.563H51.089c-1.866-9.169-9.108-16.411-18.277-18.277
			v-66.572C41.981,175.786,49.223,168.544,51.089,159.375z"/>
		<path style="fill:#fff;" d="M121.875,196.875c0,10.341,8.409,18.75,18.75,18.75h4.688H150c5.17,0,9.375,4.205,9.375,9.375
			s-4.205,9.375-9.375,9.375h-9.375c-5.17,0-9.375-4.205-9.375-9.375v-4.688h-9.375V225c0,10.341,8.409,18.75,18.75,18.75v9.375H150
			v-9.375c10.341,0,18.75-8.409,18.75-18.75s-8.409-18.75-18.75-18.75h-4.688h-4.688c-5.17,0-9.375-4.205-9.375-9.375
			c0-4.298,2.934-8.025,7.134-9.066l-2.245-9.098C127.739,180.783,121.875,188.255,121.875,196.875z"/>
		<path style="fill:#fff;" d="M159.375,196.875v4.688h9.375v-4.688c0-8.62-5.864-16.092-14.259-18.164l-2.245,9.098
			C156.441,188.85,159.375,192.577,159.375,196.875z"/>
		<path style="fill:#f68a4c;" d="M145.313,215.625L84.375,79.688H206.25L145.313,215.625z"/>
		<path style="fill:#f68a4c;" d="M145.313,75c-20.677,0-37.5-16.823-37.5-37.5S124.636,0,145.313,0s37.5,16.823,37.5,37.5
			S165.989,75,145.313,75z"/>
	</g>
</g>
<g>
</g>
<g>
</g>
<g>
</g>
<g>
</g>
<g>
</g>
<g>
</g>
<g>
</g>
<g>
</g>
<g>
</g>
<g>
</g>
<g>
</g>
<g>
</g>
<g>
</g>
<g>
</g>
<g>
</g>
</svg>
