<?xml version="1.0" encoding="iso-8859-1"?>
<!-- Generator: Adobe Illustrator 19.0.0, SVG Export Plug-In . SVG Version: 6.00 Build 0)  -->
<svg xmlns="http://www.w3.org/2000/svg" xmlns:xlink="http://www.w3.org/1999/xlink" version="1.1" id="Capa_1" x="0px" y="0px" viewBox="0 0 496 496" style="enable-background:new 0 0 496 496;" xml:space="preserve">
<g>
	<path style="fill:#f68a4c;" d="M109.418,68.16c5.224,24.504,14.896,47.44,28.672,68.28c22.368,1.888,43.84,10.008,61.912,23.56   l-0.072,0.16c13.392-10.096,30.008-16.16,48.072-16.16s34.68,6.064,48.072,16.16l-0.072-0.16   c18.072-13.552,39.544-21.672,61.912-23.56c13.768-20.848,23.448-43.776,28.664-68.272l1.008-4.712   c1.68-7.84-1.432-15.96-7.92-20.68c-6.496-4.712-15.16-5.168-22.112-1.144l-4.168,2.416c-27.68,16-51.032,38.664-68.176,65.44   c1.872-31.736-3.704-63.8-16.68-93.016l-1.968-4.408C263.306,4.736,256.018,0,248.002,0c-8.016,0-15.304,4.736-18.56,12.064   l-1.96,4.408c-12.976,29.216-18.552,61.28-16.68,93.016c-17.144-26.776-40.504-49.44-68.176-65.44l-4.168-2.416   c-6.952-4.032-15.616-3.568-22.112,1.144c-6.496,4.72-9.6,12.832-7.92,20.68L109.418,68.16z"/>
	<path style="fill:#f68a4c;" d="M147.594,295.728L136.002,288l24-16l-24-24l32-16l-21.968-25.632   c-15.064-17.576-23.984-39.48-25.68-62.432c-20.848-4.56-42.184-5.816-63.384-3.584l-4.808,0.496   c-7.968,0.832-14.72,6.296-17.2,13.928c-2.472,7.624-0.216,16.016,5.736,21.368l3.584,3.232   c23.776,21.368,52.552,36.576,83.312,44.608c-30.76,8.032-59.536,23.24-83.312,44.616l-3.576,3.216   c-5.96,5.36-8.208,13.752-5.744,21.392c2.488,7.616,9.232,13.08,17.208,13.912l4.8,0.496c6.824,0.72,13.672,1.072,20.536,1.072   c23.568,0,47.176-4.168,69.256-12.312L147.594,295.728z"/>
	<path style="fill:#f68a4c;" d="M455.306,271.84l-3.584-3.232C427.946,247.24,399.178,232.032,368.41,224   c30.76-8.032,59.536-23.24,83.312-44.616l3.576-3.216c5.96-5.36,8.208-13.752,5.744-21.392c-2.488-7.616-9.232-13.08-17.208-13.912   l-4.8-0.496c-21.2-2.232-42.52-0.984-63.384,3.576c-1.688,22.952-10.608,44.856-25.68,62.432L328.002,232l32,16l-24,24l24,16   l-24,16l16,24h-8v61.4c0,2.832-0.096,5.656-0.168,8.488c3.152,2.064,6.28,4.168,9.552,6.064l4.168,2.416   c3.16,1.832,6.664,2.728,10.168,2.728c4.208,0,8.4-1.296,11.944-3.864c6.496-4.72,9.6-12.832,7.92-20.68l-1.008-4.712   c-6.224-29.232-19.208-57.168-37.528-80.76l8.472,0.168c19.784,6.32,40.08,9.504,60.6,9.504c6.944,0,13.928-0.368,20.912-1.104   l4.808-0.496c7.968-0.832,14.72-6.296,17.2-13.928C463.506,285.584,461.258,277.192,455.306,271.84z"/>
	<path style="fill:#f68a4c;" d="M160.002,304l-11.016-7.344c-19.408,24.224-33.08,52.792-39.56,83.184l-1.008,4.712   c-1.68,7.848,1.432,15.96,7.92,20.68c3.544,2.568,7.736,3.864,11.944,3.864c3.504,0,7.008-0.896,10.168-2.728l4.168-2.416   c3.264-1.888,6.4-3.992,9.552-6.064c-0.072-2.824-0.168-5.656-0.168-8.488V328h-8L160.002,304z"/>
</g>
<g>
	
		<rect x="251.034" y="196.023" transform="matrix(-0.7071 0.7071 -0.7071 -0.7071 601.7796 158.7802)" style="fill:#fff;" width="33.944" height="16"/>
	
		<rect x="219.985" y="187.029" transform="matrix(-0.7071 0.7071 -0.7071 -0.7071 533.4454 187.0405)" style="fill:#fff;" width="16" height="33.944"/>
	<rect x="280.002" y="216" style="fill:#fff;" width="16" height="16"/>
	<rect x="200.002" y="216" style="fill:#fff;" width="16" height="16"/>
	<path style="fill:#fff;" d="M295.97,150.32c-13.808-9.024-30.272-14.32-47.968-14.32s-34.16,5.296-47.968,14.32   C178.906,135.952,153.578,128,128.002,128h-16v8c0,27.704,9.928,54.544,27.952,75.568l15.304,17.856L122.49,245.8l24.952,24.952   L121.578,288l27.328,18.216L129.058,336h14.944v5.24c-11.84-1.472-21.968,3.64-22.552,3.936l7.376,14.2   c0.088-0.048,7.68-3.688,15.176-1.8V389.4c0,34.424,5.52,68.448,16.416,101.128l1.816,5.472h43.528l1.824-5.472   c8.728-26.192,13.952-53.264,15.704-80.696c5.976,3.448,14.064,6.168,24.712,6.168s18.736-2.72,24.712-6.168   c1.752,27.44,6.968,54.504,15.704,80.696l1.816,5.472h43.528l1.824-5.472c10.896-32.68,16.416-66.696,16.416-101.12V357.52   c7.488-1.864,15.136,1.84,15.224,1.888l3.64-7.128l3.688-7.104c-0.56-0.288-10.688-5.408-22.552-3.928V336h14.944l-19.848-29.784   L374.426,288l-25.864-17.24l24.952-24.952l-32.768-16.376l15.296-17.856c18.032-21.032,27.96-47.872,27.96-75.576v-8h-16   C342.426,128,317.098,135.952,295.97,150.32z M367.682,144c-0.432,5.416-1.328,10.76-2.624,16h-6.432   c-14,0-27.728,4.864-38.696,13.464c-3.216-4.56-6.84-8.8-10.84-12.664C326.618,149.992,347.058,144.064,367.682,144z    M186.914,160.8c-4,3.864-7.624,8.104-10.84,12.664c-10.968-8.6-24.696-13.464-38.696-13.464h-6.432   c-1.296-5.24-2.184-10.584-2.624-16C148.946,144.064,169.386,149.992,186.914,160.8z M136.402,176h0.976   c11.224,0,22.192,4.2,30.632,11.544c-3.432,7.496-5.808,15.544-7.016,23.984l-8.888-10.368   C145.586,193.56,140.346,185.056,136.402,176z M194.178,480h-20.36c-9.168-29.36-13.816-59.808-13.816-90.592v-53.88   c8.568-0.792,16.896-2.856,24.784-6.04c2.432,16.256,10.952,30.536,23.216,40.392v19.528   C208.002,420.192,203.354,450.64,194.178,480z M256.002,256c0,4.416-3.584,8-8,8s-8-3.584-8-8v-8h16V256z M248.002,292.944   c4.664,5.336,10.984,9.144,18.24,10.472c-4.408,5.208-10.904,8.584-18.24,8.584s-13.832-3.376-18.24-8.584   C237.018,302.088,243.338,298.28,248.002,292.944z M248.002,328c14.016,0,26.32-7.272,33.464-18.216   c4.416,4.456,9.232,8.464,14.448,11.864c-0.872,25.704-22,46.352-47.912,46.352s-47.04-20.648-47.92-46.352   c5.216-3.4,10.032-7.408,14.448-11.864C221.682,320.728,233.986,328,248.002,328z M248.002,400c-14.96,0-21.8-7.336-24.008-10.36   c0-0.08,0.008-0.16,0.008-0.232v-10.12c7.416,3.016,15.512,4.712,24,4.712c8.488,0,16.584-1.696,24-4.712v10.12   c0,0.08,0.008,0.16,0.008,0.232C269.802,392.664,262.962,400,248.002,400z M322.178,480h-20.36   c-9.168-29.36-13.816-59.808-13.816-90.592V369.88c12.272-9.856,20.784-24.136,23.216-40.392c7.888,3.184,16.216,5.248,24.784,6.04   v53.88C336.002,420.192,331.354,450.64,322.178,480z M345.578,288l-20.672,13.784l11.896,17.848   c-17.256-1.76-33.448-9.784-45.328-22.424c7.568-5.856,12.528-14.92,12.528-25.208h-16c0,8.824-7.176,16-16,16   c-6.648,0-12.352-4.08-14.768-9.856c8.664-3.632,14.768-12.184,14.768-22.144v-24h-48v24c0,9.96,6.104,18.512,14.768,22.144   c-2.416,5.776-8.12,9.856-14.768,9.856c-8.824,0-16-7.176-16-16h-16c0,10.288,4.96,19.352,12.52,25.208   c-11.88,12.64-28.072,20.664-45.328,22.424l11.896-17.848L150.426,288l22.136-14.76l-23.048-23.048l26.488-13.248V224   c0-39.704,32.296-72,72-72s72,32.296,72,72v12.944l26.496,13.248L323.45,273.24L345.578,288z M343.89,201.168l-8.88,10.36   c-1.208-8.44-3.584-16.488-7.016-23.984C336.434,180.2,347.41,176,358.626,176h0.976C355.658,185.056,350.41,193.56,343.89,201.168   z"/>
	<path style="fill:#fff;" d="M248.002,72c20.704,0,30.744-19.584,31.16-20.424l-14.288-7.2C264.81,44.496,258.738,56,248.002,56   c-10.736,0-16.808-11.504-16.864-11.624l-14.288,7.2C217.258,52.416,227.298,72,248.002,72z"/>
	<path style="fill:#fff;" d="M158.658,101.032c16.752-12.168,13.36-33.912,13.2-34.832l-15.776,2.624   c0.024,0.128,1.872,12.944-6.832,19.264c-8.696,6.32-20.352,0.568-20.48,0.504l-7.328,14.224c0.512,0.264,8.344,4.232,18.224,4.232   C145.634,107.056,152.354,105.608,158.658,101.032z"/>
	<path style="fill:#fff;" d="M82.418,152.488c0.096,0.096,9.136,9.376,5.808,19.6c-3.32,10.208-16.136,12.432-16.264,12.448   l1.24,7.904l1.192,7.912c0.92-0.144,22.648-3.632,29.048-23.32s-9.128-35.288-9.792-35.936L82.418,152.488z"/>
	<path style="fill:#fff;" d="M74.394,247.648l-2.44,15.824c0.136,0.016,12.944,2.232,16.264,12.456   c3.32,10.2-5.752,19.528-5.832,19.624l5.648,5.664l5.616,5.696c0.664-0.648,16.184-16.248,9.792-35.928   C97.042,251.28,75.314,247.792,74.394,247.648z"/>
	<path style="fill:#fff;" d="M424.05,263.472l-1.24-7.904l-1.192-7.912c-0.92,0.144-22.648,3.632-29.048,23.32   s9.128,35.288,9.792,35.936l11.232-11.392c-0.096-0.096-9.136-9.376-5.808-19.6C411.106,265.704,423.914,263.488,424.05,263.472z"/>
	<path style="fill:#fff;" d="M421.61,200.352l2.44-15.824c-0.136-0.016-12.944-2.232-16.264-12.456   c-3.32-10.2,5.752-19.528,5.832-19.624l-5.648-5.664l-5.616-5.696c-0.664,0.648-16.184,16.248-9.792,35.928   C398.962,196.72,420.69,200.208,421.61,200.352z"/>
	<path style="fill:#fff;" d="M337.346,101.024c6.304,4.584,13.024,6.032,18.984,6.032c9.88,0,17.712-3.968,18.224-4.232   l-7.376-14.2c-0.112,0.064-11.752,5.792-20.432-0.536c-8.688-6.304-6.832-19.176-6.824-19.312l-7.896-1.256l-7.888-1.312   C323.986,67.12,320.594,88.864,337.346,101.024z"/>
</g>
<g>
</g>
<g>
</g>
<g>
</g>
<g>
</g>
<g>
</g>
<g>
</g>
<g>
</g>
<g>
</g>
<g>
</g>
<g>
</g>
<g>
</g>
<g>
</g>
<g>
</g>
<g>
</g>
<g>
</g>
</svg>
