<?xml version="1.0" encoding="iso-8859-1"?>
<!-- Generator: Adobe Illustrator 19.0.0, SVG Export Plug-In . SVG Version: 6.00 Build 0)  -->
<svg xmlns="http://www.w3.org/2000/svg" xmlns:xlink="http://www.w3.org/1999/xlink" version="1.1" id="Capa_1" x="0px" y="0px" viewBox="0 0 501.336 501.336" style="enable-background:new 0 0 501.336 501.336;" xml:space="preserve">
<path id="SVGCleanerId_0" style="fill:#f68a4c;" d="M468.988,148.968l-2.2-5.712c-9.712-25.256-33.976-41.92-61.032-41.92  c-17.344,0-33.976,6.888-46.24,19.152l-17.072,17.072l-35.776,51.776h20.224c12.12,0,23.2,6.848,28.624,17.688l39.152,78.312  c4.416,8.84,0.84,19.584-8,24c-8.84,4.416-19.584,0.84-24-8l-32-64l-1.848,3.696l1.848,4.304l-32,56l48,72  c15.368-5.12,28.072-16.136,35.312-30.624l4.688-9.376v4.92c0,28.456,5.432,56.656,16,83.08l1.376-1.376  c14.488-14.488,22.376-34.016,22.376-54.504l-0.144-0.12h0.208c0.704,21.528,2.64,43.024,5.968,64.368l2.216,14.144  c0,5.24,4.248,9.488,9.488,9.488c3.928,0,7.448-2.416,8.856-6.08l26.176-95.848c7.616-27.928,11.48-56.736,11.48-85.68  C490.668,225.808,483.316,186.232,468.988,148.968z"/>
<path style="fill:#f68a4c;" d="M32.348,148.968l2.2-5.712c9.712-25.256,33.976-41.92,61.032-41.92  c17.344,0,33.976,6.888,46.24,19.152l17.072,17.072l35.776,51.776h-20.224c-12.12,0-23.2,6.848-28.624,17.688l-39.152,78.312  c-4.416,8.84-0.84,19.584,8,24c8.84,4.416,19.584,0.84,24-8l32-64l1.848,3.696l-1.848,4.304l32,56l-48,72  c-15.368-5.12-28.072-16.136-35.312-30.624l-4.688-9.376v4.92c0,28.456-5.432,56.656-16,83.08l-1.376-1.376  c-14.488-14.488-22.376-34.016-22.376-54.504l0.144-0.12h-0.208c-0.704,21.528-2.64,43.024-5.968,64.368l-2.216,14.144  c0,5.24-4.248,9.488-9.488,9.488c-3.928,0-7.448-2.416-8.856-6.08l-26.168-95.848c-7.624-27.928-11.488-56.736-11.488-85.68  C10.668,225.808,18.02,186.232,32.348,148.968z"/>
<g>
	<path id="SVGCleanerId_0_1_" style="fill:#f68a4c;" d="M468.988,148.968l-2.2-5.712c-9.712-25.256-33.976-41.92-61.032-41.92   c-17.344,0-33.976,6.888-46.24,19.152l-17.072,17.072l-35.776,51.776h20.224c12.12,0,23.2,6.848,28.624,17.688l39.152,78.312   c4.416,8.84,0.84,19.584-8,24c-8.84,4.416-19.584,0.84-24-8l-32-64l-1.848,3.696l1.848,4.304l-32,56l48,72   c15.368-5.12,28.072-16.136,35.312-30.624l4.688-9.376v4.92c0,28.456,5.432,56.656,16,83.08l1.376-1.376   c14.488-14.488,22.376-34.016,22.376-54.504l-0.144-0.12h0.208c0.704,21.528,2.64,43.024,5.968,64.368l2.216,14.144   c0,5.24,4.248,9.488,9.488,9.488c3.928,0,7.448-2.416,8.856-6.08l26.176-95.848c7.616-27.928,11.48-56.736,11.48-85.68   C490.668,225.808,483.316,186.232,468.988,148.968z"/>
</g>
<g>
	<path style="fill:#fff;" d="M250.668,184.648l27.312-27.312l-27.312-27.312l-27.312,27.312L250.668,184.648z M255.356,157.336   l-4.688,4.688l-4.688-4.688l4.688-4.688L255.356,157.336z"/>
	<path style="fill:#fff;" d="M298.668,133.336c13.232,0,24-10.768,24-24s-10.768-24-24-24s-24,10.768-24,24   S285.436,133.336,298.668,133.336z M298.668,101.336c4.416,0,8,3.584,8,8s-3.584,8-8,8s-8-3.584-8-8   S294.252,101.336,298.668,101.336z"/>
	<path style="fill:#fff;" d="M226.668,109.336c0-13.232-10.768-24-24-24s-24,10.768-24,24s10.768,24,24,24   S226.668,122.568,226.668,109.336z M194.668,109.336c0-4.416,3.584-8,8-8s8,3.584,8,8s-3.584,8-8,8   S194.668,113.752,194.668,109.336z"/>
	<path style="fill:#fff;" d="M424.324,266.712l15.816,2.408c0.736-4.792,1.528-9.568,2.4-14.352l-15.736-2.856   C425.9,256.832,425.076,261.768,424.324,266.712z"/>
	<path style="fill:#fff;" d="M476.46,146.104l-2.192-5.72c-10.832-28.144-38.368-47.048-68.512-47.048   c-19.352,0-37.536,7.464-51.336,20.992c0.072-1.664,0.248-3.304,0.248-4.992c0-27.08-2.688-54.264-8-80.8l-3.112-15.408   l-20.024,20.024L298.668,0l-24.864,33.16l-23.136-23.136L227.532,33.16L202.668,0l-24.864,33.16L157.78,13.136l-3.112,15.4   c-5.312,26.528-8,53.72-8,80.8c0,1.688,0.176,3.328,0.256,4.992C133.116,100.8,114.932,93.336,95.58,93.336   c-30.152,0-57.68,18.904-68.504,47.056l-2.192,5.704C10.148,184.424,2.668,224.672,2.668,265.728   c0,29.632,3.96,59.168,11.768,87.792l26.432,96.608c2.568,6.704,9.128,11.208,16.312,11.208c9.4,0,17.096-7.464,17.472-16.776   l2.136-13.624c1.072-6.896,1.984-13.792,2.792-20.704c3.4,5.512,7.384,10.704,12.064,15.384l9.952,9.952l4.504-11.264   c8.224-20.56,13.424-41.952,15.512-63.832c6.28,7.328,14.08,13.184,22.912,17.328l-9.368,14.72l7.928,3.968   c0.872,0.432,14.536,7.072,42.96,11.88l-6.536,39.208l-56.104,22.44l29.2,9.736l-32.36,21.584h127.368l-12.736-25.464l6.968-62.664   c2.904,0.064,5.776,0.128,8.824,0.128s5.92-0.064,8.824-0.12l6.968,62.664l-12.736,25.456h127.368l-32.376-21.584l29.2-9.736   l-56.104-22.44l-6.536-39.208c28.424-4.808,42.096-11.44,42.96-11.88l7.928-3.968l-9.368-14.72   c8.832-4.144,16.632-10,22.912-17.328c2.096,21.872,7.288,43.264,15.512,63.832l4.504,11.264l9.952-9.952   c4.68-4.68,8.664-9.872,12.064-15.392c0.808,6.912,1.712,13.824,2.784,20.712l2.136,13.624c0.4,9.312,8.096,16.776,17.496,16.776   c7.184,0,13.752-4.504,16.568-11.968l26.176-95.856c7.808-28.624,11.768-58.152,11.768-87.784   C498.668,224.672,491.188,184.424,476.46,146.104z M298.668,26.672l13.44,17.912l-13.44,13.44l-13.44-13.44L298.668,26.672z    M202.668,26.672l13.44,17.912l-13.44,13.44l-13.44-13.44L202.668,26.672z M167.82,45.8l34.848,34.848l48-48l48,48l34.864-34.864   c3.408,20.992,5.136,42.304,5.136,63.552c0,48.52-39.48,88-88,88s-88-39.48-88-88C162.668,88.224,164.372,67.056,167.82,45.8z    M388.052,296.464c-0.832,2.504-2.6,4.536-4.96,5.72c-2.368,1.168-5.048,1.384-7.544,0.536c-2.504-0.832-4.536-2.6-5.72-4.96   l-39.16-78.312l-36.944,73.888h-86.112l-36.944-73.888l-39.16,78.312c-1.176,2.36-3.208,4.128-5.72,4.96   c-2.512,0.848-5.176,0.64-7.544-0.536c-2.36-1.176-4.128-3.208-4.96-5.72s-0.64-5.184,0.536-7.544l39.16-78.312   c4.096-8.184,12.32-13.272,21.464-13.272h20.224v-0.504c0.2,0.128,0.416,0.248,0.616,0.376   c2.912,20.424,16.904,37.944,36.736,44.952l5.328-15.096c-10.128-3.576-18.112-11-22.624-20.264   c11.224,4.152,23.296,6.536,35.944,6.536c12.648,0,24.72-2.384,35.944-6.536c-4.504,9.264-12.488,16.68-22.608,20.256l5.328,15.096   c19.816-7,33.808-24.52,36.72-44.944c0.208-0.128,0.416-0.248,0.616-0.376v0.504h20.224c9.144,0,17.368,5.088,21.464,13.264   l39.16,78.312C388.692,291.272,388.884,293.952,388.052,296.464z M242.668,309.336h16v8c0,4.416-3.584,8-8,8s-8-3.584-8-8V309.336z    M95.796,405.888c-8.36-11.608-12.864-25.624-12.864-40.424h-0.024c1.24-37.96-1.536-75.96-8.376-113.56l-15.736,2.856   c10.456,57.496,11.184,115.936,2.168,173.704l-2.2,14.152l-0.096,1.232c0,0.824-0.664,1.488-1.488,1.488   c-0.64,0-1.168-0.376-1.136-0.184l-26.176-95.856c-7.432-27.24-11.2-55.36-11.2-83.568c0-39.088,7.12-77.4,21.152-113.888   l2.192-5.704c8.472-22.008,29.992-36.8,53.568-36.8c15.328,0,29.744,5.968,40.584,16.816l15.824,15.824   c4.944,14.896,13.16,28.296,23.808,39.368h-1.352c-15.24,0-28.944,8.472-35.776,22.112l-39.16,78.312   c-5.584,11.168-2.312,24.496,7.16,31.936v24.568C106.668,361.384,103.012,384.08,95.796,405.888z M170.428,283.4l-15.512,3.872   c4.888,19.576,4.544,40.176-1,59.584l-4.464,15.616c-9.872-5.128-17.864-13.2-22.936-23.344l-10.376-20.76   c4.808,1.264,9.888,1.144,14.72-0.472c6.552-2.184,11.872-6.8,14.968-12.984l24.84-49.688l22.816,45.632L173.1,332.888   C175.34,316.424,174.484,299.6,170.428,283.4z M221.724,485.336h-48.632l15.624-10.416l-18.8-6.264l23.896-9.56l8.08-48.464   c7.264,0.856,15.2,1.568,23.904,2.04l-7.344,66.128L221.724,485.336z M307.516,459.096l23.896,9.56l-18.8,6.264l15.632,10.416   h-48.632l3.264-6.536l-7.344-66.128c8.704-0.472,16.648-1.184,23.904-2.04L307.516,459.096z M250.668,397.336   c-48.592,0-78.528-7.504-92-11.952l1.2-1.88l0.2,0.064l0.2-0.696l46.792-73.536h19.608v8c0,13.232,10.768,24,24,24s24-10.768,24-24   v-8h19.608l46.792,73.536l0.2,0.696l0.2-0.064l1.2,1.88C329.18,389.832,299.244,397.336,250.668,397.336z M374.828,339.136   c-5.072,10.144-13.064,18.216-22.936,23.344l-4.464-15.616c-5.544-19.408-5.888-40.008-1-59.584l-15.512-3.872   c-4.056,16.208-4.912,33.024-2.68,49.496l-20.384-32.032l22.816-45.648l24.84,49.688c3.096,6.184,8.416,10.8,14.968,12.984   c2.696,0.896,5.464,1.344,8.208,1.344c2.208,0,4.392-0.36,6.544-0.928L374.828,339.136z M471.468,349.296l-25.928,95.096   c-0.52,1.336-2.872,0.888-2.872-0.544l-2.304-15.384c-7.496-48.024-8.24-96.808-2.216-145l-15.872-1.984   c-3.488,27.88-4.688,55.96-3.784,83.976h-0.08c0,14.8-4.504,28.816-12.864,40.432c-7.224-21.808-10.88-44.504-10.88-67.632v-24.568   c9.464-7.44,12.744-20.768,7.16-31.936l-39.16-78.304c-6.832-13.64-20.528-22.112-35.776-22.112h-1.352   c10.648-11.072,18.864-24.464,23.808-39.368l15.824-15.824c10.84-10.84,25.256-16.808,40.584-16.808   c23.576,0,45.104,14.792,53.568,36.792l2.192,5.72c14.032,36.48,21.152,74.792,21.152,113.88   C482.668,293.936,478.9,322.056,471.468,349.296z"/>
</g>
<path style="fill:#f68a4c;" d="M250.668,261.336c-13.232,0-24-10.768-24-24s10.768-24,24-24s24,10.768,24,24  S263.9,261.336,250.668,261.336z"/>
<g>
</g>
<g>
</g>
<g>
</g>
<g>
</g>
<g>
</g>
<g>
</g>
<g>
</g>
<g>
</g>
<g>
</g>
<g>
</g>
<g>
</g>
<g>
</g>
<g>
</g>
<g>
</g>
<g>
</g>
</svg>
