<?xml version="1.0" encoding="iso-8859-1"?>
<!-- Generator: Adobe Illustrator 19.0.0, SVG Export Plug-In . SVG Version: 6.00 Build 0)  -->
<svg xmlns="http://www.w3.org/2000/svg" xmlns:xlink="http://www.w3.org/1999/xlink" version="1.1" id="Capa_1" x="0px" y="0px" viewBox="0 0 496 496" style="enable-background:new 0 0 496 496;" xml:space="preserve">
<g>
	<path style="fill:#f68a4c;" d="M161.944,72c-21.728,0-42.576,8.632-57.944,24c15.368,15.368,36.208,24,57.944,24H168l16-32   L161.944,72z"/>
	<polygon style="fill:#f68a4c;" points="136,152 176,168 168,128  "/>
	<polygon style="fill:#f68a4c;" points="192,200 176,168 152,192  "/>
	<rect x="184" y="352" style="fill:#f68a4c;" width="128" height="104"/>
	<path style="fill:#f68a4c;" d="M334.056,72L312,88l16,32h6.056c21.728,0,42.576-8.632,57.944-24   C376.632,80.632,355.792,72,334.056,72z"/>
	<polygon style="fill:#f68a4c;" points="328,128 320,168 360,152  "/>
	<polygon style="fill:#f68a4c;" points="320,168 304,200 344,192  "/>
</g>
<g>
	<path style="fill:#fff;" d="M344,208c-3.872,0-7.48,1.008-10.72,2.64c-6.496-3.96-13.48-6.816-20.816-8.536   C326.16,181.856,336,156.208,336,136c0-16.84-4.256-32.816-11.768-46.544l11.48-7.656C355.928,68.336,368,45.784,368,21.48   C368,9.632,358.368,0,346.52,0c-9.872,0-18.44,6.688-20.832,16.272c-1.224,4.904-3.256,9.528-5.688,13.936V19.312   C320,8.664,311.336,0,300.688,0c-3.896,0-7.72,1.232-10.928,3.424l0.112-0.448C281.728,1,273.344,0,264.968,0   c-13.072,0-25.368,5.096-34.624,14.344c-2.736,2.736-5.064,5.768-7.056,8.984c-2.88-5.032-6.392-9.744-10.6-13.952l-3.72-3.728   C205.368,2.064,200.392,0,195.312,0C184.664,0,176,8.664,176,19.312v10.896c-2.432-4.408-4.464-9.032-5.688-13.936   C167.92,6.688,159.344,0,149.48,0C137.632,0,128,9.632,128,21.48c0,24.304,12.072,46.856,32.288,60.328L172.88,90.2   C164.648,103.696,160,119.448,160,136c0,20.208,9.84,45.856,23.544,66.112c-7.336,1.72-14.32,4.576-20.816,8.536   C159.48,209.008,155.872,208,152,208c-13.232,0-24,10.768-24,24c0,5.736,1.64,11.056,4.296,15.712   C129.504,255.488,128,263.624,128,272v88c0,17.648,14.352,32,32,32c5.856,0,11.272-1.696,16-4.448V496h144V387.552   c4.728,2.752,10.144,4.448,16,4.448c17.648,0,32-14.352,32-32v-88c0-8.368-1.496-16.512-4.288-24.296   C366.36,243.04,368,237.736,368,232C368,218.768,357.232,208,344,208z M352,272v57.224l-32,5.336V280h-16v64v8h-16v16h16v80h-48   v-56h-16v56h-48v-80h80v-16h-80v-8v-64h-16v54.56l-32-5.336V272c0-4,0.44-7.928,1.264-11.768C149.696,262.56,154.656,264,160,264   c12.608,0,24.36-5.648,32.24-15.496l16.016-20.024c0.808,0.56,1.616,1.088,2.424,1.584C216.408,245.176,230.912,256,248,256   s31.592-10.824,37.312-25.928c0.808-0.504,1.616-1.024,2.424-1.584l16.016,20.024C311.64,258.352,323.392,264,336,264   c5.336,0,10.296-1.44,14.728-3.76C351.544,264.08,352,268.008,352,272z M232,184c4.968,0,8.528,2.264,10.648,4.168l5.352,4.824   l5.352-4.824c2.12-1.904,5.68-4.168,10.648-4.168c8.824,0,16,7.176,16,16s-7.176,16-16,16c-4.968,0-8.528-2.264-10.648-4.168   L248,207.008l-5.352,4.824c-2.12,1.904-5.68,4.168-10.648,4.168c-8.824,0-16-7.176-16-16S223.176,184,232,184z M265.92,231.808   C261.52,236.792,255.152,240,248,240s-13.52-3.208-17.92-8.192c0.648,0.04,1.264,0.192,1.92,0.192c5.64,0,11.144-1.52,16-4.368   c4.856,2.848,10.36,4.368,16,4.368C264.656,232,265.272,231.848,265.92,231.808z M322,222.456c-1.272,2.928-2,6.152-2,9.544h16   c0-4.416,3.592-8,8-8s8,3.584,8,8c0,8.824-7.176,16-16,16c-7.728,0-14.92-3.464-19.752-9.496l-16.44-20.552   c0.48-0.504,0.96-1.032,1.432-1.552C308.544,217.088,315.56,219.064,322,222.456z M341.208,20.152   c0.616-2.44,2.8-4.152,5.312-4.152c3.024,0,5.48,2.456,5.48,5.48c0,18.936-9.408,36.512-25.168,47.016l-11.504,7.672   c-2.592-3.232-5.384-6.272-8.384-9.08l8.512-6.808C328.128,50.152,337.272,35.896,341.208,20.152z M298.336,16.976   c1.928-1.928,5.664-0.368,5.664,2.336v29.64l-10.152,8.12c-4.28-2.648-8.784-4.936-13.536-6.736   c1.256-11.192,6.224-21.56,14.312-29.648L298.336,16.976z M241.656,25.656C247.8,19.52,256.296,16,264.968,16   c4.008,0,8.008,0.336,11.976,0.872C268.584,28.152,264,41.712,264,56v6.032l5.8,1.656c5.68,1.632,11.048,4.128,16.024,7.296   c-6.2,3.528-11.624,8.232-15.96,13.976l-22.88-15.256L235.848,80.84C233.296,70.424,232,59.744,232,48.968   C232,40.16,235.432,31.88,241.656,25.656z M197.656,16.968l3.72,3.72c8.984,8.992,14.064,20.8,14.536,33.424   c-3.808,1.496-7.48,3.216-10.984,5.184L192,48.952v-29.64C192,16.608,195.744,15.056,197.656,16.968z M169.168,68.496   C153.408,57.992,144,40.416,144,21.48c0-3.024,2.456-5.48,5.48-5.48c2.512,0,4.704,1.712,5.312,4.152   c3.936,15.752,13.088,30,25.752,40.136l10.672,8.536c-3.128,2.648-6.04,5.504-8.752,8.544L169.168,68.496z M217.656,70.736   c1.272,8.68,3.24,17.264,6.032,25.64l4.816,14.44l20.512-20.512l25.2,16.8l7.128-10.688c4.264-6.408,10.32-11.232,17.504-13.976   l-0.408-1.072C311.744,95.256,320,115.008,320,136c0,18.52-10.624,43.92-24.2,62.056c-0.848-13.832-10.44-25.216-23.36-28.784   c0.424-5.824,1.2-11.624,2.704-17.272H292c11.024,0,20-8.968,20-20s-8.976-20-20.224-20c-10.312,0-19.584,5.728-24.2,14.952   c-6.528,13.048-10.216,27.456-11.168,42.024c-2.936,0.736-5.776,1.848-8.416,3.392c-2.64-1.544-5.472-2.664-8.416-3.392   c-0.952-14.568-4.64-28.968-11.168-42.024C223.808,117.728,214.536,112,204,112c-11.024,0-20,8.968-20,20s8.976,20,20,20h16.856   c1.496,5.648,2.272,11.448,2.704,17.272c-12.92,3.56-22.512,14.944-23.36,28.776C186.624,179.912,176,154.512,176,136   C176,107.792,192.488,82.432,217.656,70.736z M280.976,136c0.296-0.632,0.608-1.264,0.92-1.888C283.776,130.344,287.56,128,292,128   c2.208,0,4,1.8,4,4s-1.792,4-4,4H280.976z M215.024,136H204c-2.208,0-4-1.8-4-4s1.792-4,4.224-4c4.216,0,8,2.344,9.888,6.112   C214.424,134.736,214.728,135.368,215.024,136z M152,224c4.408,0,8,3.584,8,8h16c0-3.392-0.728-6.616-2-9.544   c6.448-3.392,13.464-5.376,20.76-6.048c0.472,0.52,0.952,1.048,1.432,1.552l-16.44,20.552C174.92,244.536,167.728,248,160,248   c-8.824,0-16-7.176-16-16C144,227.584,147.592,224,152,224z M160,376c-8.824,0-16-7.176-16-16v-14.56l32,5.336V360   C176,368.824,168.824,376,160,376z M192,464h48v16h-48V464z M256,480v-16h48v16H256z M336,376c-8.824,0-16-7.176-16-16v-9.224   l32-5.336V360C352,368.824,344.824,376,336,376z"/>
	<rect x="208" y="272" style="fill:#fff;" width="16" height="16"/>
	<rect x="272" y="272" style="fill:#fff;" width="16" height="16"/>
</g>
<g>
</g>
<g>
</g>
<g>
</g>
<g>
</g>
<g>
</g>
<g>
</g>
<g>
</g>
<g>
</g>
<g>
</g>
<g>
</g>
<g>
</g>
<g>
</g>
<g>
</g>
<g>
</g>
<g>
</g>
</svg>
