<?xml version="1.0" encoding="iso-8859-1"?>
<!-- Generator: Adobe Illustrator 19.0.0, SVG Export Plug-In . SVG Version: 6.00 Build 0)  -->
<svg xmlns="http://www.w3.org/2000/svg" xmlns:xlink="http://www.w3.org/1999/xlink" version="1.1" id="Capa_1" x="0px" y="0px" viewBox="0 0 496 496" style="enable-background:new 0 0 496 496;" xml:space="preserve">
<g>
	<path style="fill:#f68a4c;" d="M148.92,448l3.08,40h80v-16c0-8.84,7.16-16,16-16s16,7.16,16,16v16h80l3.08-40H148.92z"/>
	<path style="fill:#f68a4c;" d="M258.2,15.688C256.896,11.136,252.736,8,248,8s-8.896,3.136-10.2,7.688L224,64h48L258.2,15.688z"/>
	<path style="fill:#f68a4c;" d="M200,136c-13.232,0-24-10.768-24-24s10.768-24,24-24s24,10.768,24,24S213.232,136,200,136z"/>
	<path style="fill:#f68a4c;" d="M296,136c-13.232,0-24-10.768-24-24s10.768-24,24-24s24,10.768,24,24S309.232,136,296,136z"/>
</g>
<g>
	<path style="fill:#fff;" d="M272,280c-15.904,0-31.12,6.8-41.736,18.664l11.92,10.672C249.776,300.856,260.64,296,272,296   c22.056,0,40,17.944,40,40s-17.944,40-40,40c-11.36,0-22.224-4.856-29.816-13.328l-11.92,10.672C240.88,385.2,256.096,392,272,392   c30.872,0,56-25.12,56-56S302.872,280,272,280z"/>
	<polygon style="fill:#fff;" points="261.656,357.656 272,347.312 282.344,357.656 293.656,346.344 283.312,336 293.656,325.656    282.344,314.344 272,324.688 261.656,314.344 250.344,325.656 260.688,336 250.344,346.344  "/>
	<path style="fill:#fff;" d="M385.464,188.12l-1.632-0.408c-7.552-12.144-16.696-23.2-27.192-32.96   c2.112-8.592,3.36-17.52,3.36-26.752c0-54.6-39.584-100.96-92.872-110.16l-1.24-4.344C263.624,5.552,256.264,0,248,0   s-15.624,5.552-17.888,13.496l-1.248,4.344C175.576,27.04,136,73.4,136,128c0,9.232,1.248,18.16,3.368,26.752   c-10.48,9.736-19.632,20.8-27.192,32.952l-1.632,0.408C78.432,196.152,56,224.872,56,257.968V358.64   c0,17.792,13.304,32.424,30.288,33.312c8.952,0.48,17.304-2.64,23.736-8.736c4.664-4.424,7.856-10.168,9.224-16.376   c5.128,7.008,10.808,13.496,16.904,19.496L144.592,496H240v-24c0-4.408,3.584-8,8-8c4.416,0,8,3.592,8,8v24h95.408l8.472-110.064   c6.128-6.032,11.936-12.384,17.032-19.352c3.272,14.016,15.016,24.616,29.384,25.368c8.944,0.48,17.304-2.64,23.736-8.736   C436.368,377.2,440,368.736,440,360V257.968C440,224.872,417.568,196.152,385.464,188.12z M250.496,17.888L256.816,40h-17.64   l6.32-22.12C246.128,15.664,249.872,15.656,250.496,17.888z M223.896,35.24l-7.592,26.56l15.392,4.4l2.912-10.2h26.784l2.912,10.2   l15.392-4.4l-7.592-26.56C313.832,46.032,344,83.872,344,128c0,52.936-43.064,96-96,96s-96-43.064-96-96   C152,83.872,182.168,46.032,223.896,35.24z M424,360c0,4.432-1.776,8.552-4.992,11.608s-7.568,4.576-11.872,4.368   C398.792,375.536,392,367.76,392,358.64V344v-38.432v-23.68c0-14.08-7.832-26.744-20.424-33.04l-7.16,14.312   C371.56,266.728,376,273.904,376,281.888v55.656c-13.392,26.12-34.008,47.296-59.808,61.248l7.608,14.072   c6.656-3.6,12.88-7.776,18.888-12.208L339.056,448H288v16h49.824l-1.232,16H272v-8c0-13.232-10.768-24-24-24s-24,10.768-24,24v8   h-64.592l-1.232-16H208v-16h-51.056l-3.616-46.992C180.2,420.816,213.08,432,248,432c21.192,0,41.792-4.096,61.208-12.168   l-6.144-14.776C285.608,412.32,267.08,416,248,416c-54.32,0-103.176-30.032-128-78.44v-55.672c0-7.984,4.44-15.16,11.576-18.728   l-7.16-14.312c-12.584,6.296-20.416,18.96-20.416,33.04v23.68V344v16c0,4.432-1.776,8.552-4.992,11.608s-7.584,4.576-11.872,4.368   C78.792,375.536,72,367.76,72,358.64V257.968c0-25.744,17.448-48.08,42.416-54.328l8.072-2.016l1.704-2.872   c5.816-9.808,12.808-18.832,20.728-27C161.984,211.832,201.76,240,248,240s86.016-28.168,103.088-68.248   c7.928,8.176,14.912,17.192,20.728,27l1.704,2.872l8.072,2.016c24.96,6.248,42.408,28.584,42.408,54.328V360z"/>
	<polygon style="fill:#fff;" points="216,200 232,200 232,184 264,184 264,200 280,200 280,184 296,184 296,168 200,168 200,184    216,184  "/>
</g>
<g>
</g>
<g>
</g>
<g>
</g>
<g>
</g>
<g>
</g>
<g>
</g>
<g>
</g>
<g>
</g>
<g>
</g>
<g>
</g>
<g>
</g>
<g>
</g>
<g>
</g>
<g>
</g>
<g>
</g>
</svg>
