<?xml version="1.0" encoding="iso-8859-1"?>
<!-- Generator: Adobe Illustrator 19.0.0, SVG Export Plug-In . SVG Version: 6.00 Build 0)  -->
<svg version="1.1" id="Layer_1" xmlns="http://www.w3.org/2000/svg" xmlns:xlink="http://www.w3.org/1999/xlink" x="0px" y="0px"
	 viewBox="0 0 290.625 290.625" style="enable-background:new 0 0 290.625 290.625;" xml:space="preserve">
<g>
	<g>
		<path style="fill:#f68a4c;" d="M196.875,135.938H93.75v82.697c4.941,6.281,11.006,11.611,17.888,15.741h67.35
			c6.886-4.13,12.947-9.459,17.888-15.741L196.875,135.938L196.875,135.938z"/>
		<rect x="93.75" y="150" style="fill:#fff;" width="14.062" height="9.375"/>
		<rect x="182.812" y="150" style="fill:#fff;" width="14.062" height="9.375"/>
		<path style="fill:#fff;" d="M145.312,150c-11.63,0-21.094,9.464-21.094,21.094c0,6.014,2.592,11.714,7.031,15.694v28.838
			h28.125v-28.838c4.439-3.98,7.031-9.68,7.031-15.694C166.406,159.464,156.942,150,145.312,150z M152.001,180.689L150,182.091
			v24.159h-9.375v-24.159l-2.002-1.402c-3.15-2.198-5.03-5.789-5.03-9.595c0-6.459,5.255-11.719,11.719-11.719
			s11.719,5.259,11.719,11.719C157.031,174.9,155.151,178.491,152.001,180.689z"/>
		<path style="fill:#fff;" d="M112.5,117.188v18.75h9.375V122.04c15.052-6.309,31.823-6.309,46.875,0v13.898h9.375v-18.75
			c0-18.094-14.723-32.813-32.812-32.813S112.5,99.094,112.5,117.188z M168.014,111.642c-14.733-5.053-30.675-5.053-45.408,0
			c2.513-10.242,11.705-17.892,22.706-17.892C156.314,93.75,165.506,101.4,168.014,111.642z"/>
		<path style="fill:#fff;" d="M285.937,4.688H157.584C154.289,1.805,150.028,0,145.312,0s-8.972,1.805-12.272,4.688H4.688v9.375
			h122.541c-0.394,1.509-0.666,3.061-0.666,4.688s0.272,3.178,0.666,4.688H4.688v9.375H131.25v34.809
			c-15.23,4.327-27.605,15.459-33.591,29.92c-1.341,0.792-2.686,1.584-3.98,2.437L79.017,85.322l-26.513,26.517l14.658,14.658
			c-6.572,9.952-11.227,21.188-13.608,32.883H32.813v37.5h20.742c2.386,11.695,7.036,22.931,13.608,32.883L52.505,244.42
			l26.512,26.517L93.68,256.28c9.947,6.577,21.183,11.227,32.883,13.612v20.733h37.5v-20.742c11.7-2.386,22.941-7.036,32.883-13.608
			l14.662,14.658l26.513-26.517l-14.658-14.658c6.572-9.952,11.227-21.188,13.608-32.883h20.742v-37.5H237.07
			c-2.386-11.695-7.036-22.931-13.608-32.883l14.658-14.658l-26.513-26.517l-14.662,14.658c-1.294-0.853-2.639-1.641-3.98-2.437
			c-5.981-14.461-18.361-25.589-33.591-29.92V32.813h126.562v-9.375H163.397c0.394-1.509,0.666-3.061,0.666-4.688
			s-0.272-3.178-0.666-4.688h122.54V4.688z M145.312,9.375c5.17,0,9.375,4.205,9.375,9.375s-4.205,9.375-9.375,9.375
			s-9.375-4.205-9.375-9.375S140.142,9.375,145.312,9.375z M197.976,112.2l13.627-13.627l13.256,13.261l-13.622,13.627l2.348,3.234
			c7.711,10.636,12.877,23.119,14.944,36.103l0.628,3.952h19.28v18.75h-19.28l-0.628,3.952
			c-2.063,12.984-7.233,25.467-14.944,36.103l-2.348,3.234l13.622,13.627l-13.256,13.261l-13.627-13.627l-3.234,2.348
			c-10.627,7.711-23.109,12.877-36.103,14.944l-3.951,0.628v19.28h-18.75v-19.28l-3.952-0.628
			c-12.989-2.063-25.477-7.233-36.103-14.944l-3.234-2.348l-13.627,13.627l-13.256-13.261l13.622-13.627l-2.348-3.234
			c-7.711-10.636-12.877-23.119-14.944-36.103l-0.628-3.952h-19.28v-18.75h19.28l0.628-3.952
			c2.063-12.984,7.233-25.467,14.944-36.103l2.348-3.234l-13.622-13.627l13.256-13.261L92.648,112.2l1.495-1.083
			c-0.239,1.992-0.394,4.013-0.394,6.07v13.275C81.68,143.508,75,160.327,75,178.125c0,38.77,31.542,70.313,70.312,70.313
			s70.312-31.542,70.312-70.313c0-17.798-6.68-34.617-18.75-47.662v-13.275c0-2.058-0.155-4.078-0.389-6.07L197.976,112.2z
			 M187.5,117.188v18.75h1.711c10.978,11.419,17.039,26.367,17.039,42.188c0,12.084-3.581,23.33-9.67,32.813h-13.767v9.375h6.37
			c-11.095,11.531-26.644,18.75-43.87,18.75s-32.775-7.219-43.87-18.75h6.37v-9.375H94.045c-6.089-9.483-9.67-20.728-9.67-32.813
			c0-15.82,6.061-30.769,17.039-42.188h1.711v-18.75c0-23.259,18.923-42.188,42.187-42.188S187.5,93.928,187.5,117.188z
			 M145.312,65.625c-1.584,0-3.141,0.098-4.687,0.239v-29.03c1.509,0.394,3.061,0.666,4.687,0.666c1.626,0,3.178-0.272,4.688-0.666
			v29.03C148.453,65.723,146.897,65.625,145.312,65.625z"/>
	</g>
</g>
<g>
</g>
<g>
</g>
<g>
</g>
<g>
</g>
<g>
</g>
<g>
</g>
<g>
</g>
<g>
</g>
<g>
</g>
<g>
</g>
<g>
</g>
<g>
</g>
<g>
</g>
<g>
</g>
<g>
</g>
</svg>
