<?xml version="1.0" encoding="iso-8859-1"?>
<!-- Generator: Adobe Illustrator 19.0.0, SVG Export Plug-In . SVG Version: 6.00 Build 0)  -->
<svg version="1.1" id="Layer_1" xmlns="http://www.w3.org/2000/svg" xmlns:xlink="http://www.w3.org/1999/xlink" x="0px" y="0px"
	 viewBox="0 0 290.625 290.625" style="enable-background:new 0 0 290.625 290.625;" xml:space="preserve">
<g>
	<g>
		<path style="fill:#f68a4c;" d="M135.937,60.936l-28.125-9.375h-9.375c0,10.355-8.395,18.75-18.75,18.75s-18.75-8.395-18.75-18.75
			h-9.375l-28.125,9.375v37.5l23.437-7.814v82.814H112.5V90.622l23.437,7.814V60.936z"/>
		<path style="fill:#fff;" d="M276.562,28.124h-262.5C6.309,28.124,0,34.433,0,42.186v173.438
			c0,7.753,6.309,14.063,14.062,14.063H93.75v23.438H70.312v9.375h150v-9.375h-23.437v-23.438h79.687
			c7.753,0,14.063-6.309,14.063-14.063V42.186C290.625,34.433,284.315,28.124,276.562,28.124z M14.062,37.499h262.5
			c2.587,0,4.688,2.1,4.688,4.688v145.312H9.375V42.186C9.375,39.599,11.475,37.499,14.062,37.499z M187.5,253.124h-84.375v-23.438
			H187.5V253.124z M276.562,220.311h-262.5c-2.587,0-4.687-2.1-4.687-4.688v-18.75H281.25v18.75
			C281.25,218.212,279.15,220.311,276.562,220.311z"/>
		<rect x="46.875" y="98.436" style="fill:#fff;" width="65.625" height="9.375"/>
		<rect x="46.875" y="117.186" style="fill:#fff;" width="65.625" height="9.375"/>
		<rect x="159.375" y="51.561" style="fill:#fff;" width="112.5" height="9.375"/>
		<rect x="159.375" y="74.999" style="fill:#fff;" width="112.5" height="9.375"/>
		<rect x="159.375" y="98.436" style="fill:#fff;" width="93.75" height="9.375"/>
		<rect x="262.5" y="98.436" style="fill:#fff;" width="9.375" height="9.375"/>
		<path style="fill:#fff;" d="M154.687,178.124c7.753,0,14.062-6.309,14.062-14.063v-4.688c0-7.753-6.309-14.063-14.062-14.063
			c-2.587,0-4.688-2.1-4.688-4.688v-4.688c0-2.588,2.1-4.688,4.688-4.688c2.587,0,4.687,2.1,4.687,4.688v4.688h9.375v-4.688
			c0-7.753-6.309-14.063-14.062-14.063c-7.753,0-14.062,6.309-14.062,14.063v4.688c0,7.753,6.309,14.063,14.062,14.063
			c2.587,0,4.687,2.1,4.687,4.688v4.688c0,2.587-2.1,4.688-4.687,4.688c-2.587,0-4.688-2.1-4.688-4.688v-4.688h-9.375v4.688
			C140.625,171.814,146.934,178.124,154.687,178.124z"/>
		<path style="fill:#fff;" d="M192.187,121.874c-7.753,0-14.062,6.309-14.062,14.063v42.188h9.375v-23.438h9.375v23.438h9.375
			v-42.188C206.25,128.184,199.94,121.874,192.187,121.874z M187.5,145.311v-9.375c0-2.588,2.1-4.688,4.687-4.688
			c2.587,0,4.688,2.1,4.688,4.688v9.375H187.5z"/>
		<polygon style="fill:#fff;" points="225,121.874 215.625,121.874 215.625,178.124 239.062,178.124 239.062,168.749 
			225,168.749 		"/>
		<polygon style="fill:#fff;" points="248.437,178.124 271.875,178.124 271.875,168.749 257.812,168.749 257.812,154.686 
			267.187,154.686 267.187,145.311 257.812,145.311 257.812,131.249 271.875,131.249 271.875,121.874 248.437,121.874 		"/>
	</g>
</g>
<g>
</g>
<g>
</g>
<g>
</g>
<g>
</g>
<g>
</g>
<g>
</g>
<g>
</g>
<g>
</g>
<g>
</g>
<g>
</g>
<g>
</g>
<g>
</g>
<g>
</g>
<g>
</g>
<g>
</g>
</svg>
