<?xml version="1.0" encoding="iso-8859-1"?>
<!-- Generator: Adobe Illustrator 19.0.0, SVG Export Plug-In . SVG Version: 6.00 Build 0)  -->
<svg version="1.1" id="Layer_1" xmlns="http://www.w3.org/2000/svg" xmlns:xlink="http://www.w3.org/1999/xlink" x="0px" y="0px"
	 viewBox="0 0 291.47 291.47" style="enable-background:new 0 0 291.47 291.47;" xml:space="preserve">
<g>
	<g>
		<g>
			<g>
				<path style="fill:#f68a4c;" d="M65.625,61.36V14.485c0-7.753,6.309-14.063,14.062-14.063h93.75
					c7.753,0,14.062,6.309,14.062,14.063v56.25c0,7.753-6.309,14.063-14.062,14.063h-70.312V61.36H65.625z"/>
			</g>
		</g>
		<g>
			<path style="fill:#fff;" d="M131.25,117.61c0-7.753-6.309-14.063-14.062-14.063H93.75V89.485h4.687
				c5.17,0,9.375-4.205,9.375-9.375V56.673H23.437V80.11c0,5.17,4.205,9.375,9.375,9.375H37.5v14.063H14.062
				C6.309,103.548,0,109.857,0,117.61v159.375c0,7.753,6.309,14.063,14.062,14.063h103.125c7.753,0,14.062-6.309,14.062-14.063
				v-60.938H150v-9.375h-18.75v-9.375H150v-9.375h-18.75v-9.375H150v-9.375h-18.75v-9.375H150v-9.375h-18.75V117.61z M32.812,80.11
				V66.048h65.625v14.063H93.75H37.5L32.812,80.11L32.812,80.11z M46.875,89.485h37.5v14.063h-37.5V89.485z M14.062,112.923H37.5
				h56.25h23.437c2.583,0,4.687,2.105,4.687,4.688v9.375H9.375v-9.375C9.375,115.027,11.48,112.923,14.062,112.923z M9.375,276.985
				v-14.063h45.844c-2.25,2.494-3.656,5.761-3.656,9.375s1.411,6.881,3.656,9.375H14.062C11.48,281.673,9.375,279.568,9.375,276.985
				z M65.625,276.985c-2.583,0-4.687-2.105-4.687-4.688c0-2.583,2.105-4.688,4.687-4.688c2.583,0,4.687,2.105,4.687,4.688
				S68.208,276.985,65.625,276.985z M117.187,281.673H76.031c2.25-2.494,3.656-5.761,3.656-9.375s-1.411-6.881-3.656-9.375h45.844
				v14.063C121.875,279.568,119.77,281.673,117.187,281.673z M121.875,169.173H51.562v9.375h70.312v9.375H60.937v9.375h60.937v9.375
				H70.312v9.375h51.562v37.5H9.375V136.36h112.5v14.063H60.937v9.375h60.937L121.875,169.173L121.875,169.173z"/>
			<path style="fill:#fff;" d="M98.437,51.985c3.427,0,6.595-0.989,9.361-2.602c2.855,1.673,6.075,2.602,9.389,2.602
				c10.341,0,18.75-8.409,18.75-18.75s-8.409-18.75-18.75-18.75c-3.314,0-6.534,0.928-9.389,2.602
				c-2.766-1.612-5.934-2.602-9.361-2.602c-10.341,0-18.75,8.409-18.75,18.75S88.097,51.985,98.437,51.985z M126.562,33.235
				c0,5.17-4.205,9.375-9.375,9.375c-0.891,0-1.678-0.15-2.414-0.356c1.491-2.686,2.414-5.733,2.414-9.019s-0.923-6.333-2.414-9.019
				c0.736-0.206,1.523-0.356,2.414-0.356C122.358,23.86,126.562,28.065,126.562,33.235z M98.437,23.86
				c5.17,0,9.375,4.205,9.375,9.375s-4.205,9.375-9.375,9.375s-9.375-4.205-9.375-9.375S93.267,23.86,98.437,23.86z"/>
			<rect x="196.875" y="173.86" style="fill:#fff;" width="70.312" height="9.375"/>
			<rect x="201.562" y="192.61" style="fill:#fff;" width="60.937" height="9.375"/>
			<path style="fill:#fff;" d="M271.875,225.423h-91.406c-1.294,0-2.344-1.05-2.344-2.344c0-1.294,1.05-2.344,2.344-2.344h3.141
				h3.891h93.033l10.936-65.625h-99.281v9.375h88.214l-7.814,46.875H191.39l-14.062-75h-17.953v9.375h10.172l12.305,65.625h-1.383
				c-6.459,0-11.719,5.259-11.719,11.719s5.259,11.719,11.719,11.719h3.206c-0.525,1.472-0.863,3.037-0.863,4.688
				c0,7.753,6.309,14.063,14.062,14.063s14.062-6.309,14.062-14.063c0-1.65-0.337-3.216-0.862-4.688h48.605
				c-0.53,1.472-0.867,3.037-0.867,4.688c0,7.753,6.309,14.063,14.062,14.063s14.062-6.309,14.062-14.063
				C285.937,231.732,279.628,225.423,271.875,225.423z M201.562,239.485c0,2.583-2.105,4.688-4.687,4.688
				c-2.583,0-4.688-2.105-4.688-4.688c0-2.583,2.105-4.688,4.688-4.688C199.457,234.798,201.562,236.902,201.562,239.485z
				 M271.875,244.173c-2.583,0-4.688-2.105-4.688-4.688c0-2.583,2.105-4.688,4.688-4.688c2.583,0,4.687,2.105,4.687,4.688
				S274.457,244.173,271.875,244.173z"/>
			<rect x="42.187" y="150.423" style="fill:#fff;" width="9.375" height="9.375"/>
		</g>
	</g>
</g>
<g>
</g>
<g>
</g>
<g>
</g>
<g>
</g>
<g>
</g>
<g>
</g>
<g>
</g>
<g>
</g>
<g>
</g>
<g>
</g>
<g>
</g>
<g>
</g>
<g>
</g>
<g>
</g>
<g>
</g>
</svg>
