<?xml version="1.0" encoding="iso-8859-1"?>
<!-- Generator: Adobe Illustrator 19.0.0, SVG Export Plug-In . SVG Version: 6.00 Build 0)  -->
<svg version="1.1" id="Layer_1" xmlns="http://www.w3.org/2000/svg" xmlns:xlink="http://www.w3.org/1999/xlink" x="0px" y="0px"
	 viewBox="0 0 290.626 290.626" style="enable-background:new 0 0 290.626 290.626;" xml:space="preserve">
<g>
	<g>
		<rect x="173.438" y="32.813" style="fill:#f68a4c;" width="117.187" height="103.125"/>
		<rect x="93.751" y="18.75" style="fill:#fff;" width="9.375" height="9.375"/>
		<rect x="60.939" y="18.75" style="fill:#fff;" width="28.125" height="9.375"/>
		<path style="fill:#fff;" d="M98.439,264.844c0-9.047-7.359-16.406-16.406-16.406s-16.406,7.359-16.406,16.406
			c0,9.047,7.359,16.406,16.406,16.406S98.439,273.891,98.439,264.844z M82.032,271.875c-3.877,0-7.031-3.155-7.031-7.031
			s3.155-7.031,7.031-7.031s7.031,3.155,7.031,7.031S85.909,271.875,82.032,271.875z"/>
		<path style="fill:#fff;" d="M284.738,172.041c-1.542-3.398-4.453-6.023-7.997-7.209c-3.534-1.186-7.439-0.83-10.711,0.952
			l-10.284,5.62l1.416-4.209c1.336-3.966,0.68-8.363-1.762-11.766c-2.443-3.395-6.399-5.429-10.585-5.429
			c-5.363,0-10.111,3.216-12.103,8.194l-6.098,15.244h-14.466l-0.258-0.127l10.139-5.391c6.103-3.234,9.075-10.383,7.069-16.988
			c-1.153-3.811-3.75-6.914-7.308-8.714c-3.548-1.8-7.584-2.072-11.348-0.75l-38.456,13.491l-7.828,5.119l-0.094-146.016
			C164.063,6.309,157.754,0,150.001,0H14.064C6.311,0,0.001,6.309,0.001,14.063v262.5c0,7.753,6.309,14.063,14.062,14.063h135.938
			c7.753,0,14.062-6.309,14.062-14.063v-65.686l42.75,0.061l47.334-9.469l24.291-11.813
			C284.982,186.431,287.748,178.692,284.738,172.041z M241.416,161.677c0.998-2.512,4.791-2.972,6.366-0.778
			c0.694,0.97,0.881,2.17,0.497,3.3l-3.108,9.239h-8.461L241.416,161.677z M9.376,14.063c0-2.588,2.1-4.688,4.687-4.688h135.938
			c2.587,0,4.688,2.1,4.688,4.692l0.014,23.433H9.376V14.063z M150.001,281.25H82.032H14.064c-2.587,0-4.687-2.1-4.687-4.688
			v-28.125h72.656h72.656v28.125C154.688,279.15,152.588,281.25,150.001,281.25z M154.688,239.063H9.376V46.875h145.336
			l0.075,117.188h-28.223v-9.375H60.939v60.938h65.625v-8.344l17.878,3.567l10.247,0.014v28.2H154.688z M117.189,164.063v42.188
			H70.314v-42.188H117.189z M274.29,181.256l-22.584,11.142l-45.816,9.164h-60.014l-19.312-3.844v-24.281h34.331l14.752-9.834
			l37.898-13.298c1.327-0.464,2.752-0.37,4.003,0.267c1.256,0.638,2.17,1.73,2.578,3.075c0.703,2.33-0.342,4.847-2.494,5.991
			l-26.194,13.927l18.492,9.248h44.494l16.102-8.798c1.003-0.553,2.156-0.666,3.244-0.291c1.087,0.361,1.955,1.139,2.428,2.184
			C277.112,177.928,276.273,180.277,274.29,181.256z"/>
		<path style="fill:#fff;" d="M201.563,39.844c0-16.8,13.669-30.469,30.469-30.469s30.469,13.669,30.469,30.469V56.25h9.375
			V39.844C271.876,17.873,254.002,0,232.032,0s-39.844,17.873-39.844,39.844V56.25h9.375L201.563,39.844L201.563,39.844z"/>
	</g>
</g>
<g>
</g>
<g>
</g>
<g>
</g>
<g>
</g>
<g>
</g>
<g>
</g>
<g>
</g>
<g>
</g>
<g>
</g>
<g>
</g>
<g>
</g>
<g>
</g>
<g>
</g>
<g>
</g>
<g>
</g>
</svg>
