<?xml version="1.0" encoding="iso-8859-1"?>
<!-- Generator: Adobe Illustrator 19.0.0, SVG Export Plug-In . SVG Version: 6.00 Build 0)  -->
<svg version="1.1" id="Layer_1" xmlns="http://www.w3.org/2000/svg" xmlns:xlink="http://www.w3.org/1999/xlink" x="0px" y="0px"
	 viewBox="0 0 290.626 290.626" style="enable-background:new 0 0 290.626 290.626;" xml:space="preserve">
<g>
	<g>
		<path style="fill:#f68a4c;" d="M107.814,271.875H42.189v-4.688c0-10.341-8.409-18.75-18.75-18.75h-4.688V121.875h112.5v126.563
			h-4.688c-10.341,0-18.75,8.409-18.75,18.75v4.687H107.814z"/>
		<path style="fill:#fff;" d="M182.813,131.25c7.753,0,14.062-6.309,14.062-14.063V14.063C196.876,6.309,190.566,0,182.813,0
			H14.064C6.311,0,0.001,6.309,0.001,14.063v103.125v173.438h150V131.25H182.813z M187.501,46.875H9.376V32.813h178.125V46.875z
			 M14.064,9.375h168.75c2.587,0,4.687,2.105,4.687,4.688v9.375H9.376v-9.375C9.376,11.48,11.476,9.375,14.064,9.375z M9.376,56.25
			h178.125v60.938c0,2.583-2.1,4.688-4.687,4.688H14.064c-2.587,0-4.687-2.105-4.687-4.688L9.376,56.25L9.376,56.25z
			 M107.814,159.375c0,18.094-14.723,32.813-32.812,32.813S42.19,177.469,42.19,159.375c0-11.555,6.136-22.205,16.031-28.125h33.562
			C101.678,137.17,107.814,147.82,107.814,159.375z M140.626,281.25H9.376V130.387c1.472,0.525,3.037,0.863,4.687,0.863h29.634
			c-6.853,7.631-10.884,17.569-10.884,28.125c0,23.259,18.923,42.188,42.187,42.188s42.187-18.928,42.187-42.188
			c0-10.556-4.031-20.494-10.884-28.125h34.322v150H140.626z"/>
		<path style="fill:#fff;" d="M140.626,112.5c3.314,0,6.534-0.928,9.389-2.602c2.766,1.612,5.934,2.602,9.361,2.602
			c10.341,0,18.75-8.409,18.75-18.75S169.717,75,159.376,75c-3.427,0-6.595,0.989-9.361,2.602c-2.85-1.673-6.075-2.602-9.389-2.602
			c-10.341,0-18.75,8.409-18.75,18.75S130.285,112.5,140.626,112.5z M168.751,93.75c0,5.17-4.205,9.375-9.375,9.375
			s-9.375-4.205-9.375-9.375s4.205-9.375,9.375-9.375S168.751,88.58,168.751,93.75z M140.626,84.375c0.82,0,1.622,0.15,2.409,0.37
			c-1.491,2.681-2.409,5.723-2.409,9.005s0.919,6.323,2.409,9.005c-0.787,0.22-1.589,0.37-2.409,0.37
			c-5.17,0-9.375-4.205-9.375-9.375S135.456,84.375,140.626,84.375z"/>
		<path style="fill:#fff;" d="M225.001,159.375c-36.187,0-65.625,29.438-65.625,65.625s29.437,65.625,65.625,65.625
			s65.625-29.438,65.625-65.625S261.188,159.375,225.001,159.375z M225.001,281.25c-31.017,0-56.25-25.233-56.25-56.25
			s25.233-56.25,56.25-56.25s56.25,25.233,56.25,56.25S256.018,281.25,225.001,281.25z"/>
		<path style="fill:#fff;" d="M232.032,187.5h-2.344v-9.375h-9.375v9.375h-2.344c-11.63,0-21.094,9.464-21.094,21.094
			s9.464,21.094,21.094,21.094h14.062c6.464,0,11.719,5.259,11.719,11.719s-5.255,11.719-11.719,11.719h-14.062
			c-6.464,0-11.719-5.259-11.719-11.719v-2.344h-9.375v2.344c0,11.63,9.464,21.094,21.094,21.094h2.344v9.375h9.375V262.5h2.344
			c11.63,0,21.094-9.464,21.094-21.094s-9.464-21.094-21.094-21.094H217.97c-6.464,0-11.719-5.259-11.719-11.719
			s5.255-11.719,11.719-11.719h14.062c6.464,0,11.719,5.259,11.719,11.719v2.344h9.375v-2.344
			C253.126,196.964,243.661,187.5,232.032,187.5z"/>
		<polygon style="fill:#fff;" points="220.313,23.438 220.313,121.875 229.688,121.875 229.688,23.438 235.313,30.938 
			242.813,25.313 225.001,1.561 207.188,25.313 214.688,30.938 		"/>
		<rect x="220.313" y="131.25" style="fill:#fff;" width="9.375" height="14.063"/>
		<polygon style="fill:#fff;" points="267.188,51.563 267.188,135.938 276.563,135.938 276.563,51.563 282.188,59.063 
			289.688,53.438 271.875,29.686 254.063,53.438 261.563,59.063 		"/>
		<rect x="267.188" y="145.313" style="fill:#fff;" width="9.375" height="14.063"/>
	</g>
</g>
<g>
</g>
<g>
</g>
<g>
</g>
<g>
</g>
<g>
</g>
<g>
</g>
<g>
</g>
<g>
</g>
<g>
</g>
<g>
</g>
<g>
</g>
<g>
</g>
<g>
</g>
<g>
</g>
<g>
</g>
</svg>
