<?xml version="1.0" encoding="iso-8859-1"?>
<!-- Generator: Adobe Illustrator 19.0.0, SVG Export Plug-In . SVG Version: 6.00 Build 0)  -->
<svg xmlns="http://www.w3.org/2000/svg" xmlns:xlink="http://www.w3.org/1999/xlink" version="1.1" id="Capa_1" x="0px" y="0px" viewBox="0 0 496 496" style="enable-background:new 0 0 496 496;" xml:space="preserve">
<path style="fill:#f68a4c;" d="M456,64c0-13.256-10.744-24-24-24c-5.12,0-10.064,1.616-14.192,4.64C399.512,58.072,368,96,320,96  c-2.84,0-5.472,0.2-8,0.496V96c0-17.672-14.328-32-32-32l-0.944,1.888C284.936,54.128,288,41.152,288,28c0-11.048-8.952-20-20-20  s-20,8.952-20,20c0,7.792-2.528,15.368-7.2,21.6l-14.992,19.992c4.672,3.192,9.184,6.608,13.368,10.392l8.8,8.808  C267.88,110.816,280,140.032,280,172c0,14.096-10.448,25.64-24,27.6v32.856c1.32-0.192,2.624-0.456,4-0.456  c15.464,0,28,12.536,28,28c0,4.368-0.656,8.568-1.84,12.552L288,272c0,0,8,24,40,24s32-32,32-32l0,0c6.896,1.704,5.808,0,16,0  c58.4,0,43.536-53.264,40.48-62.592C439.616,194.536,456,178.664,456,160c0-29.296-13.272-45.016-15.536-47.496  C458.936,91.496,456,64,456,64z"/>
<g>
	<path style="fill:#fff;" d="M391.704,127.104C386.792,127.696,381.512,128,376,128v16c6.152,0,12.08-0.336,17.624-1.008   L391.704,127.104z"/>
	<path style="fill:#fff;" d="M325.2,258.4l9.6-12.8c-5.632-4.224-7.2-8.136-7.208-8.136l-15.176,5.064   C312.696,243.384,315.48,251.112,325.2,258.4z"/>
	<path style="fill:#fff;" d="M479.848,416H480v-0.64c1.032-4.808,2.368-9.552,4.096-14.168C492,380.136,496,358.04,496,335.544   c0-16.856-4.584-33.4-13.256-47.856C473.976,273.08,457.944,264,440.896,264c-13.032,0-25.288,5.072-34.504,14.296l-7.224,7.224   c-2.704-3.712-5.632-7.296-8.944-10.608l-3.6-3.6c15.416-1.864,26.856-7.888,33.96-18.136c10.456-15.088,8.24-34.992,5.608-46.56   c5.848-2.344,11.352-5.288,16.32-8.872C456.368,187.768,464,174.36,464,160c0-23.656-8.008-39.344-13.448-47.368   c12.144-16.848,14.72-36.656,13.448-49.088C463.752,46.112,449.496,32,432,32c-6.864,0-13.408,2.144-18.928,6.192   c-3.904,2.864-8.12,6.552-13,10.824C381.248,65.472,355.48,88,320,88c-0.28,0-0.528,0.032-0.808,0.032   c-2.968-14.624-14.008-26.208-28.2-30.304C294.232,48.168,296,38.088,296,28c0-15.44-12.56-28-28-28s-28,12.56-28,28   c0,6.016-1.992,11.984-5.6,16.8l-10.504,14c-20.048-12.048-43.024-18.64-66.736-18.792L152,40c-72.2,0-80,33.568-80,48   c0,0.456,0.056,0.88,0.072,1.328C52.672,78.136,30.44,72,8,72H0v23.032c0,13.08,5.096,25.376,14.344,34.624S35.888,144,48.968,144   h0.712c-1.056,5.216-1.68,10.56-1.68,16v11.352c0,20.184,6.672,40.2,18.784,56.352c4.104,5.48,7.472,11.472,10.008,17.824   c4.072,10.176,10.92,18.552,19.504,24.528c0.016,0.368,0.032,0.728,0.056,1.096l-0.296-0.032L71.064,496h39.92H120h62.168   l25.024-95.08c22.16,8.584,45.28,13.544,69.008,14.776c2.04,5.808,4.68,11.392,8.144,16.512C268.408,434.032,256,447.592,256,464   c0,17.648,14.352,32,32,32h64.504c27.216,0,50.424-17.248,59.432-41.36c0.456,0.856,0.792,1.76,1.272,2.6   C426.872,481.152,452.464,496,480,496h10.608l-9.048-31.68C477.072,448.648,476.544,431.936,479.848,416z M410.6,61.064   c4.608-4.024,8.584-7.504,11.944-9.976C425.296,49.072,428.568,48,432,48c8.824,0,16,7.176,16,16l0.048,0.88   c0.208,1.92,4.672,47.216-43.536,59.824l4.048,15.48c12.888-3.368,22.92-8.856,30.76-15.448c3.92,6.792,8.68,18.432,8.68,35.264   c0,9.072-5.272,17.872-14.84,24.768c-17.968,12.96-45.696,15.96-70.632,7.64l-5.064,15.176c11.168,3.72,22.672,5.544,33.872,5.544   c6.64,0,13.16-0.68,19.448-1.944c1.92,8.952,3.384,23.16-3.352,32.888C401.952,251.984,391.376,256,376,256   c-11.96,0-22.224-1.576-30.512-4.696l-5.632,14.976c3.56,1.336,7.464,2.36,11.528,3.232C349.896,276.84,344.864,288,328,288   c-25.504,0-32.168-17.848-32.44-18.608l-0.48,0.16c0.584-3.096,0.92-6.28,0.92-9.552c0-18.48-14.048-33.576-32-35.592v-18.616   c13.936-4.968,24-18.168,24-33.792c0-15.12-2.688-29.912-7.616-43.896C282.624,122.24,291.84,104,320,104   C361.488,104,391.04,78.16,410.6,61.064z M207.808,176c0.08-1.544,0.192-3.088,0.192-4.64V160c0-5.48-0.56-10.832-1.616-16h0.64   c13.08,0,25.376-5.096,34.624-14.344c5.688-5.688,9.784-12.528,12.112-19.992C265.576,128.184,272,149.72,272,172   c0,11.024-8.976,20-20.008,20C240.968,192,232,183.032,232,172.008c0-6.624,5.384-12.008,12.472-12.008   c1.976,0,3.528,1.608,3.528,4.36c0,1.312-0.664,2.176-1.072,2.576c-0.4,0.4-1.264,1.064-2.576,1.064h-4.344l-0.016,16h4.352h0.008   c5.248,0,10.176-2.04,13.888-5.752c3.712-3.712,5.76-8.648,5.76-14.592c0-10.832-8.76-19.656-20-19.656   c-15.44,0-28,12.576-28,28.016c0,18.472,14.048,33.568,32,35.584v18.616c-13.936,4.968-24,18.168-24,33.792c0,15.44,12.56,28,28,28   h4v-16h-4c-6.616,0-12-5.384-12-12c0-11.024,8.976-20,20-20s20,8.976,20,20c0,19.848-16.152,36-36,36s-36-16.16-36-36.008v-84   H207.808z M199.664,124.672c10.776-6.536,22.728-10.616,35.176-12.04c-1.288,2.032-2.76,3.968-4.504,5.712   c-6.216,6.224-14.504,9.656-23.304,9.656h-5.76C200.776,126.864,200.216,125.776,199.664,124.672z M240,88.296v6.736   c0,0.392-0.096,0.76-0.112,1.152c-17.272,0.824-33.928,5.928-48.704,14.936c-1.336-1.728-2.752-3.384-4.224-4.992   C202.8,95.856,221.184,89.664,240,88.296z M247.2,54.4c5.672-7.568,8.8-16.944,8.8-26.4c0-6.616,5.384-12,12-12s12,5.384,12,12   c0,11.848-2.8,23.712-8.104,34.312l-7.056,14.112l14.312,7.16l5.552-11.104c9.024,1.8,16.16,8.704,18.448,17.544   c-14.552,3.616-24.496,11.648-30.768,19.904c-4.536-8.504-10.008-16.544-16.384-23.96V72h-8c-1.888,0-3.768,0.144-5.656,0.232   c-1.72-1.496-3.472-2.952-5.256-4.344L247.2,54.4z M152,56l5.064,0.008c22.52,0.144,44.256,6.944,62.824,19.224   c-16.16,3.664-31.56,10.44-45.176,19.944C161.552,85.672,145.44,80,128,80v16c11.272,0,21.856,2.952,31.072,8.096   C150.728,107.944,139.288,112,128,112c-12.024,0-40-2.336-40-24C88,67.664,111.328,56,152,56z M16,88.296   c18.808,1.368,37.184,7.552,53.016,17.816c-1.48,1.616-2.952,3.24-4.288,4.96c-14.752-8.968-31.376-14.064-48.616-14.88   c-0.016-0.4-0.112-0.768-0.112-1.16V88.296z M48.968,128c-8.808,0-17.088-3.432-23.312-9.656c-1.744-1.744-3.208-3.68-4.504-5.712   c12.424,1.424,24.352,5.488,35.112,12c-0.544,1.104-1.016,2.24-1.512,3.368H48.968z M79.584,218.112   C69.536,204.704,64,188.104,64,171.352V160c0-17.328,6.944-33.616,19.168-45.616C92.72,123.16,108.072,128,128,128   c18.128,0,35.816-8.008,45.312-13.144C184.856,126.44,192,142.4,192,160v11.36c0,16.752-5.536,33.352-15.584,46.752   c-4.944,6.592-9,13.816-12.064,21.472c-1.216,3.048-2.856,5.808-4.72,8.376c-8.48-0.128-14.312-4.28-18.112-8.656   C152.088,236.792,160,227.328,160,216c0-10.416-6.712-19.216-16-22.528v-1.696c0-8.008,1.056-16.024,3.112-23.776H164   c11.024,0,20-8.976,20-20s-8.976-20-20-20c-10.456,0-19.848,5.808-24.52,15.16c-7.512,15.016-11.48,31.832-11.48,48.616   c0-16.792-3.968-33.6-11.48-48.624C111.848,133.808,102.456,128,92,128c-11.024,0-20,8.976-20,20s8.976,20,20,20h16.888   c2.056,7.752,3.112,15.768,3.112,23.776v1.696c-9.288,3.312-16,12.112-16,22.528c0,11.328,7.912,20.792,18.488,23.296   c-3.8,4.368-9.64,8.528-18.12,8.656c-1.856-2.568-3.496-5.328-4.72-8.376C88.592,231.936,84.528,224.712,79.584,218.112z M120,208   h16c4.408,0,8,3.592,8,8s-3.592,8-8,8h-16c-4.408,0-8-3.592-8-8S115.592,208,120,208z M128,248.056   c3.656,4.688,8.824,9.488,15.824,12.584c-4.928,2.136-10.36,3.36-16.112,3.36c-5.52,0-10.792-1.216-15.616-3.328   C119.144,257.576,124.328,252.76,128,248.056z M152.968,152c0.272-0.568,0.544-1.128,0.824-1.688   C155.736,146.416,159.648,144,164,144c2.208,0,4,1.792,4,4s-1.792,4-4,4H152.968z M103.032,152H92c-2.208,0-4-1.792-4-4   s1.792-4,4-4c4.352,0,8.264,2.416,10.208,6.312C102.496,150.872,102.768,151.432,103.032,152z M88.936,480l18.288-164.632   c5.36,11.744,12.592,22.64,21.544,32.368L112.904,480H88.936z M400,432.504C400,458.696,378.696,480,352.504,480H288   c-8.824,0-16-7.176-16-16s7.176-16,16-16h34.96l-15.912-14C294.944,423.336,288,408.032,288,392c0-30.88,25.12-56,56-56v-16   c-39.696,0-72,32.304-72,72c0,2.48,0.304,4.92,0.552,7.368c-21.056-1.544-41.576-6.24-61.256-14.064l12.44-47.264l-15.48-4.072   L169.832,480h-40.816l22.928-191.048l-15.88-1.904l-4.632,38.608c-9.944-14.208-16.232-30.512-18.44-47.8   c4.872,1.352,9.984,2.144,15.296,2.144c22.56,0,42.544-13.536,50.928-34.48c2.536-6.352,5.904-12.344,10-17.808   c0.984-1.312,1.872-2.688,2.784-4.048V260c0,28.672,23.328,52,52,52c18.64,0,34.976-9.896,44.16-24.672   C295.032,295.28,307.264,304,328,304c24.976,0,35.416-16.296,38.72-29.968l12.2,12.2c13.6,13.6,21.088,31.68,21.088,50.912v95.36   H400z M427.104,449.304C419.84,436.592,416,422.136,416,407.504v-70.368c0-13.168-2.968-25.84-8.416-37.408l10.12-10.12   c6.2-6.2,14.432-9.608,23.192-9.608c11.456,0,22.232,6.104,28.128,15.928c7.184,11.96,10.976,25.664,10.976,39.616   c0,5.344-0.272,10.656-0.768,15.944c-1.432-9.392-4.88-18.376-10.216-26.384c-4.816-7.216-10.912-13.32-18.128-18.128l-14.456-9.64   l-8.872,13.312l14.456,9.64c5.456,3.632,10.056,8.24,13.688,13.688c5.432,8.144,8.296,17.616,8.296,27.392v52.168   c-2.08,10.4-2.656,21.08-1.888,31.656C458.168,434.28,456,422.696,456,410.744c0-13.504-3.192-27.016-9.224-39.088l-7.616-15.232   l-14.312,7.16l7.616,15.232c4.928,9.856,7.536,20.904,7.536,31.928c0,23.848,7.112,46.584,20.264,65.864   C446.464,471.864,434.536,462.312,427.104,449.304z"/>
</g>
<g>
</g>
<g>
</g>
<g>
</g>
<g>
</g>
<g>
</g>
<g>
</g>
<g>
</g>
<g>
</g>
<g>
</g>
<g>
</g>
<g>
</g>
<g>
</g>
<g>
</g>
<g>
</g>
<g>
</g>
</svg>
