<?xml version="1.0" encoding="iso-8859-1"?>
<!-- Generator: Adobe Illustrator 19.0.0, SVG Export Plug-In . SVG Version: 6.00 Build 0)  -->
<svg version="1.1" id="Capa_1" xmlns="http://www.w3.org/2000/svg" xmlns:xlink="http://www.w3.org/1999/xlink" x="0px" y="0px"
	 viewBox="0 0 496 496" style="enable-background:new 0 0 496 496;" xml:space="preserve">
<g>
	<path style="fill:#f68a4c;" d="M312,464c-83.816,0-152-68.184-152-152s68.184-152,152-152s152,68.184,152,152S395.816,464,312,464z
		"/>
	<path style="fill:#f68a4c;" d="M472,48h-44c-11.176,0-22.256-3.696-31.192-10.4C385.112,28.832,370.616,24,356,24H176v96h180
		c14.616,0,29.112-4.832,40.808-13.6C405.744,99.696,416.824,96,428,96h44c13.232,0,24-10.768,24-24S485.232,48,472,48z"/>
</g>
<path style="fill:#fff;" d="M312,128c-101.464,0-184,82.536-184,184s82.536,184,184,184s184-82.536,184-184S413.464,128,312,128z M312,480
	c-92.632,0-168-75.368-168-168s75.368-168,168-168s168,75.368,168,168S404.632,480,312,480z"/>
<path style="fill:#fff;" d="M128,120c0,13.232,10.768,24,24,24s24-10.768,24-24V72h-16v48c0,4.416-3.584,8-8,8s-8-3.584-8-8V24c0-4.416,3.584-8,8-8
	s8,3.584,8,8v32h16V24c0-13.232-10.768-24-24-24s-24,10.768-24,24v8H40C17.944,32,0,49.944,0,72s17.944,40,40,40h88V120z M40,96
	c-13.232,0-24-10.768-24-24s10.768-24,24-24h88v48H40z"/>
<rect style="fill:#fff;" x="208" y="24" width="16" height="48"/>
<rect style="fill:#fff;" x="256" y="24" width="16" height="32"/>
<rect style="fill:#fff;" x="312" y="24" width="16" height="48"/>
<path style="fill:#fff;" d="M248,296c-22.056,0-40,21.528-40,48s17.944,48,40,48s40-21.528,40-48S270.056,296,248,296z M248,376
	c-13.232,0-24-14.352-24-32s10.768-32,24-32s24,14.352,24,32S261.232,376,248,376z"/>
<path style="fill:#fff;" d="M394.832,264.48l10.424-10.424l-11.312-11.312l-8.384,8.384c-4.984-4.984-10.976-8.544-17.568-10.152V224h-16v16.968
	c-6.584,1.608-12.584,5.176-17.568,10.152l-8.384-8.384l-11.312,11.312l10.424,10.424c-2.232,4.736-3.784,9.968-4.568,15.52H304v16
	h16.6c0.784,5.552,2.336,10.784,4.568,15.52l-10.424,10.424l11.312,11.312l8.384-8.384c4.984,4.984,10.976,8.544,17.568,10.152V352
	h16v-16.968c6.584-1.608,12.584-5.176,17.568-10.152l8.384,8.384l11.312-11.312l-10.424-10.424c2.232-4.736,3.784-9.968,4.568-15.52
	H416v-16h-16.6C398.616,274.448,397.064,269.216,394.832,264.48z M360,320c-13.232,0-24-14.352-24-32s10.768-32,24-32
	s24,14.352,24,32S373.232,320,360,320z"/>
<path style="fill:#fff;" d="M280,224h-16c0,13.232-10.768,24-24,24v16C262.056,264,280,246.056,280,224z"/>
<path style="fill:#fff;" d="M328,376h-16c0,22.056,17.944,40,40,40v-16C338.768,400,328,389.232,328,376z"/>
<rect style="fill:#fff;" x="200" y="272" width="16" height="16"/>
<rect style="fill:#fff;" x="240" y="336" width="16" height="16"/>
<rect style="fill:#fff;" x="280" y="408" width="16" height="16"/>
<rect style="fill:#fff;" x="384" y="368" width="16" height="16"/>
<rect style="fill:#fff;" x="312" y="200" width="16" height="16"/>
<rect style="fill:#fff;" x="352" y="280" width="16" height="16"/>
<g>
</g>
<g>
</g>
<g>
</g>
<g>
</g>
<g>
</g>
<g>
</g>
<g>
</g>
<g>
</g>
<g>
</g>
<g>
</g>
<g>
</g>
<g>
</g>
<g>
</g>
<g>
</g>
<g>
</g>
</svg>
