<?xml version="1.0" encoding="UTF-8" standalone="no"?>
<!-- Generator: Adobe Illustrator 19.0.0, SVG Export Plug-In . SVG Version: 6.00 Build 0)  -->

<svg
   xmlns:dc="http://purl.org/dc/elements/1.1/"
   xmlns:cc="http://creativecommons.org/ns#"
   xmlns:rdf="http://www.w3.org/1999/02/22-rdf-syntax-ns#"
   xmlns:svg="http://www.w3.org/2000/svg"
   xmlns="http://www.w3.org/2000/svg"
   xmlns:sodipodi="http://sodipodi.sourceforge.net/DTD/sodipodi-0.dtd"
   xmlns:inkscape="http://www.inkscape.org/namespaces/inkscape"
   version="1.1"
   id="Capa_1"
   x="0px"
   y="0px"
   viewBox="0 0 496.008 496.008"
   style="enable-background:new 0 0 496.008 496.008;"
   xml:space="preserve"
   inkscape:version="0.91 r13725"
   sodipodi:docname="recoil.svg"><metadata
   id="metadata45"><rdf:RDF><cc:Work
       rdf:about=""><dc:format>image/svg+xml</dc:format><dc:type
         rdf:resource="http://purl.org/dc/dcmitype/StillImage" /><dc:title></dc:title></cc:Work></rdf:RDF></metadata><defs
   id="defs43" /><sodipodi:namedview
   pagecolor="#ffffff"
   bordercolor="#666666"
   borderopacity="1"
   objecttolerance="10"
   gridtolerance="10"
   guidetolerance="10"
   inkscape:pageopacity="0"
   inkscape:pageshadow="2"
   inkscape:window-width="701"
   inkscape:window-height="480"
   id="namedview41"
   showgrid="false"
   inkscape:zoom="0.47579878"
   inkscape:cx="248.004"
   inkscape:cy="245.90227"
   inkscape:window-x="73"
   inkscape:window-y="259"
   inkscape:window-maximized="0"
   inkscape:current-layer="Capa_1" />
<g
   id="g3"
   transform="matrix(0.85807573,0.35626587,-0.35626587,0.85807573,162.78657,-76.945369)">
	<path
   style="fill:#f68a4c"
   d="m 248,120.004 -80,0 0,96 80,0 c 26.512,0 48,-21.488 48,-48 0,-26.512 -21.488,-48 -48,-48 z"
   id="path5"
   inkscape:connector-curvature="0" />
	<path
   style="fill:#f68a4c"
   d="m 440,280.004 -32,0 c -8.84,0 -16,7.16 -16,16 l 0,144 64,0 0,-144 c 0,-8.84 -7.16,-16 -16,-16 z"
   id="path7"
   inkscape:connector-curvature="0" />
</g>
<path
   style="fill:#ffffff"
   d="m 476.44685,268.90053 c -4.31213,-4.9854 -7.56054,-10.67196 -9.65757,-16.90256 l -14.49589,-42.95063 c -3.87378,-11.50735 -11.35203,-21.29206 -21.11416,-28.15396 l 57.8572,-42.80034 c 2.79157,-2.05209 4.96588,-4.82726 6.29404,-8.02616 4.03293,-9.71342 -0.58774,-20.89508 -10.30115,-24.928 l -3.19891,-1.32816 c -6.72044,-2.79028 -14.31177,-1.56405 -19.79859,3.19984 -11.32094,9.80205 -25.80478,15.0878 -40.77349,14.8928 l -11.36661,-0.14808 -1.70477,-6.67135 c -1.71461,-6.76395 -6.59532,-12.39586 -13.04804,-15.07499 L 292.16982,57.257041 c -11.35406,-4.714109 -24.4301,0.689379 -29.14421,12.043435 L 210.95072,47.679417 202.92176,28.24995 158.89218,9.9692407 141.79142,51.156873 134.92681,48.306746 c -11.35405,-4.714109 -24.43009,0.689379 -29.1442,12.043435 L 94.382104,87.808605 c -4.714103,11.354061 0.68938,24.430095 12.043436,29.144205 l 116.6983,48.45216 -5.70026,13.7292 c -4.71411,11.35406 0.68939,24.4301 12.04345,29.1442 l 20.59381,8.55039 -11.40051,27.45842 c -12.57191,30.27977 1.83606,65.14596 32.11584,77.71787 l 68.64605,28.50127 -34.20152,82.37526 123.5629,51.30228 59.61771,-143.57019 c 10.02675,-24.14968 5.59964,-51.45956 -11.95403,-71.71296 z m -55.38766,-132.1348 c 18.62053,0.23844 36.62587,-6.33762 50.7151,-18.52335 1.20907,-1.05126 2.87311,-1.31808 4.35586,-0.70245 l 3.19891,1.32816 c 2.14176,0.88924 3.16143,3.35679 2.27219,5.49854 -0.29071,0.70019 -0.76107,1.3097 -1.38541,1.76674 l -58.20564,43.05807 -8.30158,-32.51595 7.35057,0.0902 z m -71.00089,33.05364 c -0.97475,2.34769 -2.16981,4.54757 -3.54345,6.57674 l -67.95274,-28.21341 -5.70025,13.72921 61.60297,25.57704 c -9.71435,5.68056 -21.81835,7.03711 -32.98019,2.40281 l -61.78145,-25.65115 5.70025,-13.72921 13.7292,5.70025 5.70026,-13.72921 -13.72921,-5.70025 5.70025,-13.7292 95.41116,39.61391 c -0.46754,2.40536 -1.18206,4.80476 -2.1568,7.15247 z m -87.5541,-60.49561 5.70025,-13.729207 61.78145,25.651147 c 11.16871,4.63715 18.7524,14.16787 21.5797,25.05561 l -89.0614,-36.97755 z m -95.58306,-79.925056 24.61648,10.22055 8.02895,19.429467 57.75879,23.980967 -5.70025,13.729216 -96.10448,-39.901776 11.40051,-27.458424 z M 112.1258,103.2236 c -3.78926,-1.57328 -5.58775,-5.92548 -4.01449,-9.714736 l 11.40051,-27.458428 c 1.57328,-3.789255 5.92547,-5.587739 9.71474,-4.014478 L 245.92485,110.48813 228.82409,151.67575 112.1258,103.2236 Z m 119.02701,81.61084 2.85012,-6.86461 61.78145,25.65114 c 26.49051,10.99864 57.0045,-1.61084 68.00313,-28.10135 10.99864,-26.49052 -1.61083,-57.00449 -28.10135,-68.00313 l -61.78145,-25.651153 2.85012,-6.864594 c 1.57327,-3.789267 5.92547,-5.587751 9.71474,-4.014479 l 102.96908,42.751906 c 2.14863,0.89208 3.77647,2.7671 4.35448,5.01907 l 17.46444,68.4236 3.43231,1.42505 c 4.17368,1.73289 7.99655,4.11686 11.33922,7.01772 l -35.45617,56.72864 c -1.92578,3.08759 -5.77783,4.32113 -9.14836,2.92171 l -22.69439,-9.42251 -123.5629,-51.30229 c -3.78926,-1.57326 -5.58775,-5.92546 -4.01447,-9.71472 z m 60.09567,49.09508 34.23379,14.21358 c -4.42731,9.36457 -14.0861,15.12454 -24.51465,14.38408 l -1.05855,14.81943 c 16.80931,1.20869 32.41142,-8.22424 39.30241,-23.50326 l 13.81846,5.73731 -17.10077,41.18764 -41.18765,-17.10076 c -11.35404,-4.71411 -16.75753,-17.79015 -12.04342,-29.14421 l 8.55038,-20.59381 z m -14.77206,74.3463 c -22.71498,-9.43106 -33.51795,-35.5734 -24.08688,-58.28839 l 11.40051,-27.45842 13.72922,5.70026 -8.55038,20.59381 c -7.85779,18.92572 1.14667,40.71586 20.07239,48.57367 l 41.18764,17.10075 6.8646,2.85013 c 7.56479,3.14085 11.17264,11.85782 8.02896,19.42947 l -68.64606,-28.50128 z m 102.95349,62.1732 29.14419,-12.04344 12.04345,29.1442 -0.49022,1.18072 -29.14421,12.04342 -12.04344,-29.14419 0.49023,-1.18071 z m 58.2884,-24.08687 -9.04061,21.77453 -6.36696,-15.40757 15.40757,-6.36696 z m -25.65115,61.78146 -9.0406,21.77452 -6.36697,-15.40757 15.40757,-6.36695 z m 4.5671,-69.15114 -9.87561,-23.89822 c 1.17195,-0.10896 2.35671,-0.0356 3.51682,0.4461 l 27.45844,11.40051 c 1.16011,0.48168 2.04846,1.269 2.7986,2.17601 l -23.89825,9.8756 z m -20.10358,-9.73109 6.36696,15.40758 -15.40758,6.36696 9.04062,-21.77454 z m -25.65115,61.78147 6.36696,15.40756 -15.40756,6.36696 9.0406,-21.77452 z m -17.10076,41.18762 29.14418,-12.04344 12.04345,29.1442 -1.67017,4.02267 -41.18764,-17.10077 1.67018,-4.02266 z m 66.97587,32.52393 -13.72921,-5.70025 48.45217,-116.6983 c 4.71411,-11.35407 -0.68938,-24.43009 -12.04344,-29.1442 l -27.45842,-11.40051 c -11.35406,-4.71411 -24.43009,0.68938 -29.1442,12.04345 l -48.45217,116.6983 -13.7292,-5.70026 34.20152,-82.37528 c 5.30124,-12.76816 1.01385,-27.17549 -9.55528,-35.13701 l 17.46273,-42.05943 8.96518,3.72227 c 10.11843,4.20109 21.66488,0.50449 27.45764,-8.77604 l 32.61116,-52.16362 c 0.94513,1.83299 1.75256,3.74562 2.42515,5.73105 l 14.48902,42.94778 c 2.7191,8.06629 6.92159,15.4286 12.89822,22.33642 13.45626,15.52616 16.92512,36.92532 9.07301,55.83732 L 420.7547,464.75443 Z"
   id="path9"
   inkscape:connector-curvature="0" />
<g
   id="g11"
   transform="matrix(0.7591975,0.31521245,-0.31521245,0.7591975,161.01296,-45.912689)">
</g>
<g
   id="g13"
   transform="matrix(0.7591975,0.31521245,-0.31521245,0.7591975,161.01296,-45.912689)">
</g>
<g
   id="g15"
   transform="matrix(0.7591975,0.31521245,-0.31521245,0.7591975,161.01296,-45.912689)">
</g>
<g
   id="g17"
   transform="matrix(0.7591975,0.31521245,-0.31521245,0.7591975,161.01296,-45.912689)">
</g>
<g
   id="g19"
   transform="matrix(0.7591975,0.31521245,-0.31521245,0.7591975,161.01296,-45.912689)">
</g>
<g
   id="g21"
   transform="matrix(0.7591975,0.31521245,-0.31521245,0.7591975,161.01296,-45.912689)">
</g>
<g
   id="g23"
   transform="matrix(0.7591975,0.31521245,-0.31521245,0.7591975,161.01296,-45.912689)">
</g>
<g
   id="g25"
   transform="matrix(0.7591975,0.31521245,-0.31521245,0.7591975,161.01296,-45.912689)">
</g>
<g
   id="g27"
   transform="matrix(0.7591975,0.31521245,-0.31521245,0.7591975,161.01296,-45.912689)">
</g>
<g
   id="g29"
   transform="matrix(0.7591975,0.31521245,-0.31521245,0.7591975,161.01296,-45.912689)">
</g>
<g
   id="g31"
   transform="matrix(0.7591975,0.31521245,-0.31521245,0.7591975,161.01296,-45.912689)">
</g>
<g
   id="g33"
   transform="matrix(0.7591975,0.31521245,-0.31521245,0.7591975,161.01296,-45.912689)">
</g>
<g
   id="g35"
   transform="matrix(0.7591975,0.31521245,-0.31521245,0.7591975,161.01296,-45.912689)">
</g>
<g
   id="g37"
   transform="matrix(0.7591975,0.31521245,-0.31521245,0.7591975,161.01296,-45.912689)">
</g>
<g
   id="g39"
   transform="matrix(0.7591975,0.31521245,-0.31521245,0.7591975,161.01296,-45.912689)">
</g>
<path
   inkscape:connector-curvature="0"
   style="fill:#f68a4c"
   d="m 115.59509,188.24982 -106.7093117,77.40969 48.5036667,0 0,189.21967 116.411285,0 0,-189.22149 48.50366,0 -106.7093,-77.40787 z"
   id="path9-9" /></svg>