<?xml version="1.0" encoding="iso-8859-1"?>
<!-- Generator: Adobe Illustrator 19.0.0, SVG Export Plug-In . SVG Version: 6.00 Build 0)  -->
<svg version="1.1" id="Layer_1" xmlns="http://www.w3.org/2000/svg" xmlns:xlink="http://www.w3.org/1999/xlink" x="0px" y="0px"
	 viewBox="0 0 281.251 281.251" style="enable-background:new 0 0 281.251 281.251;" xml:space="preserve">
<g>
	<g>
		<circle style="fill:#f68a4c;" cx="140.626" cy="140.625" r="65.625"/>
		<path style="fill:#fff;" d="M140.626,37.5c-56.864,0-103.125,46.261-103.125,103.125S83.762,243.75,140.626,243.75
			s103.125-46.261,103.125-103.125S197.49,37.5,140.626,37.5z M140.626,234.375c-51.694,0-93.75-42.056-93.75-93.75
			s42.056-93.75,93.75-93.75s93.75,42.056,93.75,93.75S192.32,234.375,140.626,234.375z"/>
		<rect x="135.939" style="fill:#fff;" width="9.375" height="32.813"/>
		
			<rect x="103.786" y="4.23" transform="matrix(0.9659 -0.2588 0.2588 0.9659 -1.6449 28.7768)" style="fill:#fff;" width="9.375" height="32.811"/>
		
			<rect x="73.829" y="16.65" transform="matrix(0.866 -0.5 0.5 0.866 -6.007 43.6876)" style="fill:#fff;" width="9.375" height="32.806"/>
		
			<rect x="48.103" y="36.384" transform="matrix(0.7071 -0.7071 0.7071 0.7071 -21.8643 52.7897)" style="fill:#fff;" width="9.375" height="32.807"/>
		
			<rect x="28.359" y="62.109" transform="matrix(0.5 -0.866 0.866 0.5 -51.4702 67.8738)" style="fill:#fff;" width="9.375" height="32.806"/>
		
			<rect x="15.953" y="92.074" transform="matrix(0.2588 -0.9659 0.9659 0.2588 -89.484 100.3407)" style="fill:#fff;" width="9.375" height="32.81"/>
		<rect x="0.001" y="135.938" style="fill:#fff;" width="32.812" height="9.375"/>
		
			<rect x="4.239" y="168.087" transform="matrix(0.9659 -0.2588 0.2588 0.9659 -44.012 11.2295)" style="fill:#fff;" width="32.81" height="9.375"/>
		
			<rect x="16.641" y="198.051" transform="matrix(0.866 -0.5 0.5 0.866 -96.9439 43.6857)" style="fill:#fff;" width="32.806" height="9.375"/>
		
			<rect x="36.385" y="223.772" transform="matrix(0.7071 -0.7071 0.7071 0.7071 -146.0838 104.2415)" style="fill:#fff;" width="32.807" height="9.375"/>
		
			<rect x="62.115" y="243.508" transform="matrix(0.5 -0.866 0.866 0.5 -175.6834 192.0933)" style="fill:#fff;" width="32.806" height="9.375"/>
		
			<rect x="92.07" y="255.92" transform="matrix(0.2588 -0.9659 0.9659 0.2588 -171.3268 297.9399)" style="fill:#fff;" width="32.811" height="9.375"/>
		<rect x="135.939" y="248.438" style="fill:#fff;" width="9.375" height="32.813"/>
		
			<rect x="168.096" y="244.199" transform="matrix(0.9659 -0.2588 0.2588 0.9659 -61.5594 53.5967)" style="fill:#fff;" width="9.375" height="32.811"/>
		
			<rect x="198.043" y="231.808" transform="matrix(0.866 -0.5 0.5 0.866 -96.9461 134.623)" style="fill:#fff;" width="9.375" height="32.806"/>
		
			<rect x="223.773" y="212.059" transform="matrix(0.7071 -0.7071 0.7071 0.7071 -94.6327 228.4613)" style="fill:#fff;" width="9.375" height="32.807"/>
		
			<rect x="243.509" y="186.318" transform="matrix(0.5 -0.866 0.866 0.5 -51.465 316.3017)" style="fill:#fff;" width="9.375" height="32.806"/>
		
			<rect x="255.929" y="156.376" transform="matrix(0.2588 -0.9659 0.9659 0.2588 26.2723 379.8012)" style="fill:#fff;" width="9.375" height="32.81"/>
		<rect x="248.438" y="135.938" style="fill:#fff;" width="32.812" height="9.375"/>
		
			<rect x="244.208" y="103.777" transform="matrix(0.9659 -0.2588 0.2588 0.9659 -19.1921 71.144)" style="fill:#fff;" width="32.81" height="9.375"/>
		
			<rect x="231.8" y="73.837" transform="matrix(0.866 -0.5 0.5 0.866 -6.0086 134.6251)" style="fill:#fff;" width="32.806" height="9.375"/>
		
			<rect x="212.06" y="48.102" transform="matrix(0.7071 -0.7071 0.7071 0.7071 29.5875 177.0097)" style="fill:#fff;" width="32.807" height="9.375"/>
		
			<rect x="186.324" y="28.358" transform="matrix(0.5 -0.866 0.866 0.5 72.7436 192.0875)" style="fill:#fff;" width="32.806" height="9.375"/>
		
			<rect x="156.368" y="15.952" transform="matrix(0.2588 -0.9659 0.9659 0.2588 108.1226 182.1847)" style="fill:#fff;" width="32.811" height="9.375"/>
		
			<rect x="120.642" y="15.071" transform="matrix(0.9914 -0.1306 0.1306 0.9914 -2.1188 16.578)" style="fill:#fff;" width="9.375" height="18.744"/>
		
			<rect x="91.094" y="22.987" transform="matrix(0.9239 -0.3826 0.3826 0.9239 -5.0941 39.1089)" style="fill:#fff;" width="9.375" height="18.75"/>
		
			<rect x="64.599" y="38.279" transform="matrix(0.7934 -0.6086 0.6086 0.7934 -14.6929 52.0116)" style="fill:#fff;" width="9.369" height="18.748"/>
		
			<rect x="42.971" y="59.91" transform="matrix(0.6086 -0.7934 0.7934 0.6086 -36.3225 64.9279)" style="fill:#fff;" width="9.369" height="18.748"/>
		
			<rect x="27.671" y="86.406" transform="matrix(0.3826 -0.9239 0.9239 0.3826 -68.5152 89.0314)" style="fill:#fff;" width="9.375" height="18.75"/>
		
			<rect x="19.753" y="115.957" transform="matrix(0.1309 -0.9914 0.9914 0.1309 -103.0099 133.1545)" style="fill:#fff;" width="9.375" height="18.745"/>
		
			<rect x="15.069" y="151.232" transform="matrix(0.9914 -0.1309 0.1309 0.9914 -20.1995 4.541)" style="fill:#fff;" width="18.745" height="9.375"/>
		
			<rect x="22.988" y="180.781" transform="matrix(0.9239 -0.3826 0.3826 0.9239 -68.4988 26.4943)" style="fill:#fff;" width="18.75" height="9.375"/>
		
			<rect x="38.276" y="207.286" transform="matrix(0.7934 -0.6087 0.6087 0.7934 -119.1817 72.7985)" style="fill:#fff;" width="18.75" height="9.37"/>
		
			<rect x="59.915" y="228.906" transform="matrix(0.6087 -0.7934 0.7934 0.6087 -158.2181 146.3792)" style="fill:#fff;" width="18.75" height="9.37"/>
		
			<rect x="86.407" y="244.204" transform="matrix(0.3826 -0.9239 0.9239 0.3826 -170.8191 242.1586)" style="fill:#fff;" width="18.75" height="9.375"/>
		
			<rect x="115.958" y="252.128" transform="matrix(0.1309 -0.9914 0.9914 0.1309 -145.6807 347.45)" style="fill:#fff;" width="18.745" height="9.375"/>
		
			<rect x="151.224" y="247.447" transform="matrix(0.9914 -0.1306 0.1306 0.9914 -32.2063 22.5625)" style="fill:#fff;" width="9.375" height="18.744"/>
		
			<rect x="180.784" y="239.517" transform="matrix(0.9239 -0.3826 0.3826 0.9239 -81.115 89.9001)" style="fill:#fff;" width="9.375" height="18.75"/>
		
			<rect x="207.282" y="224.221" transform="matrix(0.7934 -0.6086 0.6086 0.7934 -98.3927 177.26)" style="fill:#fff;" width="9.369" height="18.748"/>
		
			<rect x="228.913" y="202.589" transform="matrix(0.6086 -0.7934 0.7934 0.6086 -76.7604 268.3018)" style="fill:#fff;" width="9.369" height="18.748"/>
		
			<rect x="244.205" y="176.095" transform="matrix(0.3826 -0.9239 0.9239 0.3826 -17.6925 344.4629)" style="fill:#fff;" width="9.375" height="18.75"/>
		
			<rect x="252.129" y="146.552" transform="matrix(0.1309 -0.9914 0.9914 0.1309 68.6163 390.1207)" style="fill:#fff;" width="9.375" height="18.745"/>
		
			<rect x="247.436" y="120.653" transform="matrix(0.9914 -0.1306 0.1306 0.9914 -14.1704 34.6139)" style="fill:#fff;" width="18.744" height="9.375"/>
		
			<rect x="239.518" y="91.092" transform="matrix(0.9239 -0.3826 0.3826 0.9239 -17.7078 102.5153)" style="fill:#fff;" width="18.75" height="9.375"/>
		
			<rect x="224.224" y="64.604" transform="matrix(0.7934 -0.6087 0.6087 0.7934 6.0852 156.5068)" style="fill:#fff;" width="18.75" height="9.37"/>
		
			<rect x="202.589" y="42.966" transform="matrix(0.6087 -0.7934 0.7934 0.6087 45.1352 186.8184)" style="fill:#fff;" width="18.75" height="9.37"/>
		
			<rect x="176.095" y="27.672" transform="matrix(0.3826 -0.9239 0.9239 0.3826 84.611 191.3362)" style="fill:#fff;" width="18.75" height="9.375"/>
		
			<rect x="146.553" y="19.752" transform="matrix(0.1309 -0.9914 0.9914 0.1309 111.2864 175.8241)" style="fill:#fff;" width="18.745" height="9.375"/>
		<path style="fill:#fff;" d="M82.032,112.5h-4.687c-9.047,0-16.406,7.359-16.406,16.406s7.359,16.406,16.406,16.406h4.687
			c3.877,0,7.031,3.155,7.031,7.031s-3.155,7.031-7.031,7.031h-4.687c-3.877,0-7.031-3.155-7.031-7.031V150h-9.375v2.344
			c0,9.047,7.359,16.406,16.406,16.406h4.687c9.047,0,16.406-7.359,16.406-16.406s-7.359-16.406-16.406-16.406h-4.687
			c-3.877,0-7.031-3.155-7.031-7.031c0-3.877,3.155-7.031,7.031-7.031h4.687c3.877,0,7.031,3.155,7.031,7.031v2.344h9.375v-2.344
			C98.439,119.859,91.079,112.5,82.032,112.5z"/>
		<path style="fill:#fff;" d="M121.876,112.5c-10.341,0-18.75,8.409-18.75,18.75v37.5h9.375V150h18.75v18.75h9.375v-37.5
			C140.626,120.909,132.217,112.5,121.876,112.5z M112.501,140.625v-9.375c0-5.17,4.205-9.375,9.375-9.375s9.375,4.205,9.375,9.375
			v9.375H112.501z"/>
		<polygon style="fill:#fff;" points="159.376,112.5 150.001,112.5 150.001,168.75 178.126,168.75 178.126,159.375 
			159.376,159.375 		"/>
		<polygon style="fill:#fff;" points="220.313,121.875 220.313,112.5 187.501,112.5 187.501,168.75 220.313,168.75 
			220.313,159.375 196.876,159.375 196.876,145.313 220.313,145.313 220.313,135.938 196.876,135.938 196.876,121.875 		"/>
	</g>
</g>
<g>
</g>
<g>
</g>
<g>
</g>
<g>
</g>
<g>
</g>
<g>
</g>
<g>
</g>
<g>
</g>
<g>
</g>
<g>
</g>
<g>
</g>
<g>
</g>
<g>
</g>
<g>
</g>
<g>
</g>
</svg>
