<?xml version="1.0" encoding="iso-8859-1"?>
<!-- Generator: Adobe Illustrator 19.0.0, SVG Export Plug-In . SVG Version: 6.00 Build 0)  -->
<svg version="1.1" id="Capa_1" xmlns="http://www.w3.org/2000/svg" xmlns:xlink="http://www.w3.org/1999/xlink" x="0px" y="0px"
	 viewBox="0 0 496 496" style="enable-background:new 0 0 496 496;" xml:space="preserve">
<g>
	<path style="fill:#f68a4c;" d="M112,488h272c17.672,0,32-14.328,32-32v-24H80v24C80,473.672,94.328,488,112,488z"/>
	<path style="fill:#f68a4c;" d="M200,288h-64c-4.424,0-8-3.576-8-8v-32c0-4.424,3.576-8,8-8h64c4.424,0,8,3.576,8,8v32
		C208,284.424,204.424,288,200,288z"/>
	<path style="fill:#f68a4c;" d="M360,288h-64c-4.424,0-8-3.576-8-8v-32c0-4.424,3.576-8,8-8h64c4.424,0,8,3.576,8,8v32
		C368,284.424,364.424,288,360,288z"/>
</g>
<polygon style="fill:#fff;" points="192,323.312 192,288 176,288 176,316.688 168,324.688 160,316.688 160,288 144,288 144,323.312 168,347.312 "/>
<polygon style="fill:#fff;" points="352,323.312 352,288 336,288 336,316.688 328,324.688 320,316.688 320,288 304,288 304,323.312 328,347.312 "/>
<path style="fill:#fff;" d="M272,400h-48v16H120v16h104v16h48v-16h104v-16H272V400z M256,432h-16v-16h16V432z"/>
<path style="fill:#fff;" d="M456,272h-56v-51.392c14.104-6.192,24-20.248,24-36.608v-48c0-22.056-17.944-40-40-40h-48V48h16V24
	c0-13.232-10.768-24-24-24H168c-13.232,0-24,10.768-24,24v24h16v48h-48c-22.056,0-40,17.944-40,40v48
	c0,16.36,9.896,30.416,24,36.608V272H40c-22.056,0-40,17.944-40,40v96c0,22.056,17.944,40,40,40h32v8c0,22.056,17.944,40,40,40h272
	c22.056,0,40-17.944,40-40v-8h32c22.056,0,40-17.944,40-40v-96C496,289.944,478.056,272,456,272z M456,288c13.232,0,24,10.768,24,24
	v56h-80v-80H456z M408,136v48c0,13.232-10.768,24-24,24h-32v-96h32C397.232,112,408,122.768,408,136z M304,208H192v-96h112V208z
	 M288,48v48h-80V48H288z M320,96h-16V48h16V96z M160,24c0-4.416,3.592-8,8-8h160c4.408,0,8,3.584,8,8v8H160V24z M176,48h16v48h-16
	V48z M88,184v-48c0-13.232,10.768-24,24-24h32v96h-32C98.768,208,88,197.232,88,184z M144,224v16h16V112h16v128h16v-16h112v16h16
	V112h16v128h16v-16h32v144H112V224H144z M40,288h56v80H16v-56C16,298.768,26.768,288,40,288z M40,432c-13.232,0-24-10.768-24-24v-24
	h64.208C75.128,390.704,72,398.96,72,408v24H40z M384,480h-32v-16h-16v16h-32v-16h-16v16h-32v-16h-16v16h-32v-16h-16v16h-32v-16h-16
	v16h-32c-13.232,0-24-10.768-24-24v-24h16v-16H88v-8c0-13.232,10.768-24,24-24h272c13.232,0,24,10.768,24,24v8h-16v16h16v24
	C408,469.232,397.232,480,384,480z M456,432h-32v-24c0-9.04-3.128-17.296-8.208-24H480v24C480,421.232,469.232,432,456,432z"/>
<g>
</g>
<g>
</g>
<g>
</g>
<g>
</g>
<g>
</g>
<g>
</g>
<g>
</g>
<g>
</g>
<g>
</g>
<g>
</g>
<g>
</g>
<g>
</g>
<g>
</g>
<g>
</g>
<g>
</g>
</svg>
