<?xml version="1.0" encoding="iso-8859-1"?>
<!-- Generator: Adobe Illustrator 19.0.0, SVG Export Plug-In . SVG Version: 6.00 Build 0)  -->
<svg version="1.1" id="Capa_1" xmlns="http://www.w3.org/2000/svg" xmlns:xlink="http://www.w3.org/1999/xlink" x="0px" y="0px"
	 viewBox="0 0 496 496" style="enable-background:new 0 0 496 496;" xml:space="preserve">
<g>
	<path style="fill:#f68a4c;" d="M134,320c80-64,192-144,304-160c0,0-8-24-56-24S158,240,142,264S134,320,134,320z"/>
	<path style="fill:#f68a4c;" d="M486.264,469.048L408.56,336.952c3.296-4.112,4.52-9.712,2.744-15.048l-5.248-15.752
		c-3.168-9.504-14.168-13.816-22.92-8.944C345.952,317.912,258.76,368.736,240,400c-24,40-24,88-24,88h259.424
		c6.944,0,12.576-5.632,12.576-12.576C488,473.184,487.4,470.984,486.264,469.048z"/>
</g>
<g>
	<path style="fill:#fff;" d="M493.168,464.992l-75.28-127.976c2.48-5.384,3-11.664,1.016-17.632l-5.256-15.76
		c-0.984-2.96-2.6-5.576-4.56-7.888C418.816,276.032,424,254.12,424,232c0-20.232-4.32-40.312-12.504-58.68
		c9.208-2.168,18.424-4.08,27.64-5.4l9.48-1.36l-3.032-9.096c-0.384-1.168-9.992-27.824-59.328-29.328
		c-11.912-16.4-66.68-84.376-148.328-75.152l16.064-26.776V0h-65.224l8.096,56.656L162.12,8H126v52.944l40.352,20.176
		c-71.44,54.744-40.296,160.824-33.144,182.008c-14.856,26.04-7.32,57.432-6.968,58.808l3.024,12.096l9.736-7.784
		c6.424-5.144,13.216-10.48,20.168-15.88c6.48,10.008,14.088,19.032,22.592,26.984c-2.216,3.752-4.528,7.944-7.08,12.584
		c-14.064,25.648-32.928,59.928-62.68,65.272V368H0v72c0,30.872,25.128,56,56,56c96.304,0,138.392-82.584,163.56-133.2
		c10.616,4.896,21.88,8.504,33.576,10.696c-8.84,7.952-15.896,15.56-20,22.392C208.288,437.304,208,485.952,208,488v8h267.424
		c11.344,0,20.576-9.232,20.576-20.576C496,471.776,495.024,468.168,493.168,464.992z M428.232,386.168l-28.432,36.96
		l-27.576-42.896l21.992-26.392c2.136-0.904,4.256-1.8,6.112-2.584l5.184-2.2c0.232-0.104,0.464-0.2,0.696-0.312L428.232,386.168z
		 M326.888,409.632L315.76,388.96c15.776-7.608,31.648-14.808,45.944-21.104L326.888,409.632z M301.384,396.016l14.464,26.864
		l-27.168,32.6l-20.76-41.528C278.248,407.968,289.608,401.92,301.384,396.016z M324.024,438.072L346.608,480h-57.52
		L324.024,438.072z M361.192,473.328l-26.12-48.512l26.424-31.712l27.952,43.488L361.192,473.328z M398.64,450.896L417.352,480
		h-41.104L398.64,450.896z M408,232c0,19.304-4.432,38.424-12.768,55.672c-3.376-0.632-6.816-0.504-10.136,0.328h-2.592
		c-7.208,0-13.992-2.808-19.096-7.904c-1.84-1.84-2.76-4.296-2.576-6.896c0.184-2.6,1.44-4.888,3.52-6.464
		c6.112-4.576,10.064-11.256,11.144-18.808c1.08-7.552-0.848-15.072-5.432-21.176c-9.072-12.12-26.056-15.04-38.68-6.624
		c-1.864,1.24-4.312,1.168-6.112-0.176l-12.736-9.552c27.088-13.584,55.016-25.088,83.184-33.088
		C403.752,194.312,408,213.072,408,232z M327.048,92.304c18.736,12.792,32.584,27.904,40.52,37.712
		c-11.976,2.752-27.184,8.216-44.152,15.488c-3.256-5.608-6.784-11.056-10.64-16.144l-12.752,9.656
		c3.12,4.12,5.976,8.528,8.672,13.04c-35.368,16.288-75.688,38.48-108.72,58.992c-31.464-61.136-6.464-115.024,2.12-130.344
		c14.032,2.472,55.752,12.4,88.064,46.68L301.8,116.4c-24.2-25.664-52.768-38.904-73.688-45.648
		C262.224,63.512,295.392,70.672,327.048,92.304z M238,16v5.784L216.872,57c-1.2,0.32-2.424,0.728-3.64,1.088L207.224,16H238z
		 M142,51.056V24h11.88l32.064,44.888c-1.36,0.696-2.68,1.424-3.992,2.144L142,51.056z M179.552,91.288
		c-10.72,27.44-20.96,75.56,6.848,128.376c-17.2,11.136-31.544,21.376-40.872,29.408C141.56,235.496,136,211.896,136,186
		C136,143.336,150.64,111.592,179.552,91.288z M148.656,268.44C161.976,248.464,334.816,144,382,144
		c22.288,0,34.608,5.376,41.232,10.336C317.816,174.112,213.56,247.04,140.08,304.96
		C139.584,294.736,140.728,280.328,148.656,268.44z M96,384v16H16v-16H96z M16,440v-24h80v24c0,22.056-17.944,40-40,40
		S16,462.056,16,440z M102.12,471.696C108.336,462.672,112,451.76,112,440v-8.512c38.96-5.016,61.48-46.088,76.712-73.856
		c1.968-3.6,3.8-6.92,5.512-9.92c3.624,2.688,7.36,5.208,11.216,7.544C186.6,393.16,157.584,450.472,102.12,471.696z
		 M171.928,300.552c36.656-27.88,79.296-57.528,124.848-81.976l18.904,14.184c7.208,5.408,17.104,5.68,24.584,0.688
		c5.552-3.688,13.016-2.416,17.008,2.904c4.152,5.544,3.032,13.432-2.504,17.584c-5.776,4.32-9.376,10.928-9.88,18.128
		c-0.512,7.192,2.12,14.24,7.216,19.344c3.296,3.296,7.112,5.816,11.16,7.856c-29.208,16.728-65.672,38.984-93.288,60.296
		C229.584,356.424,193.56,334.672,171.928,300.552z M246.856,404.12c12.344-20.576,64.744-57.928,140.168-99.904
		c0.184-0.104,0.352-0.128,0.528-0.208h6.592c2.016,0.92,3.608,2.568,4.328,4.688l5.248,15.76c1.328,3.992-0.576,8.24-4.448,9.872
		l-5.168,2.184c-34.912,14.76-107.504,45.448-150.688,73.728C244.496,408.176,245.648,406.136,246.856,404.12z M231.872,439.032
		c5.544-5.272,13.28-10.92,22.328-16.736l23.296,46.592L268.248,480h-43.856C225.072,471.152,226.904,455.896,231.872,439.032z
		 M475.424,480h-39.056L409,437.424l27.984-36.384l42.376,72.04c0.424,0.72,0.64,1.52,0.64,2.336
		C480,477.944,477.944,480,475.424,480z"/>
	<path style="fill:#fff;" d="M16,339.312V352h16v-12.688c0-9.432-3.672-18.296-10.344-24.968
		C18.008,310.696,16,305.84,16,300.688V288H0v12.688c0,9.432,3.672,18.296,10.344,24.968C13.992,329.304,16,334.152,16,339.312z"/>
	<path style="fill:#fff;" d="M48,339.312V352h16v-12.688c0-9.432-3.672-18.296-10.344-24.968
		C50.008,310.696,48,305.84,48,300.688V288H32v12.688c0,9.432,3.672,18.296,10.344,24.968C45.992,329.304,48,334.152,48,339.312z"/>
	<path style="fill:#fff;" d="M80,339.312V352h16v-12.688c0-9.432-3.672-18.296-10.344-24.968
		C82.008,310.696,80,305.84,80,300.688V288H64v12.688c0,9.432,3.672,18.296,10.344,24.968C77.992,329.304,80,334.152,80,339.312z"/>
</g>
<g>
</g>
<g>
</g>
<g>
</g>
<g>
</g>
<g>
</g>
<g>
</g>
<g>
</g>
<g>
</g>
<g>
</g>
<g>
</g>
<g>
</g>
<g>
</g>
<g>
</g>
<g>
</g>
<g>
</g>
</svg>
