<?xml version="1.0" encoding="iso-8859-1"?>
<!-- Generator: Adobe Illustrator 19.0.0, SVG Export Plug-In . SVG Version: 6.00 Build 0)  -->
<svg version="1.1" id="Capa_1" xmlns="http://www.w3.org/2000/svg" xmlns:xlink="http://www.w3.org/1999/xlink" x="0px" y="0px"
	 viewBox="0 0 496 496" style="enable-background:new 0 0 496 496;" xml:space="preserve">
<g>
	<path style="fill:#f68a4c;" d="M73.408,128H41.416C40.488,138.16,40,148.824,40,160h32C72,148.256,72.504,137.64,73.408,128z"/>
	<path style="fill:#f68a4c;" d="M73.776,192H41.648c1.048,10.784,2.624,21.52,4.624,32h32.592
		C76.68,213.688,74.944,202.912,73.776,192z"/>
	<path style="fill:#f68a4c;" d="M98.688,280.256l-3.536-6.888c-2.632-5.112-5.032-11.064-7.304-17.368H54.136
		c3.616,11.792,7.784,22.728,12.544,32h32v-7.744H98.688z"/>
	<path style="fill:#f68a4c;" d="M297.408,192h-31.992c-0.928,10.16-1.416,20.824-1.416,32h32
		C296,212.256,296.504,201.64,297.408,192z"/>
	<path style="fill:#f68a4c;" d="M424,224h32c0-11.176-0.488-21.84-1.416-32h-31.992C423.496,201.64,424,212.256,424,224z"/>
	<path style="fill:#f68a4c;" d="M360,104c21.36,0,45.704,11.184,57.24,56h32.48c-12.16-55.112-42.048-88-89.72-88
		s-77.56,32.888-89.72,88h32.48C314.296,115.184,338.64,104,360,104z"/>
	<path style="fill:#f68a4c;" d="M417.136,288h32.592c2-10.48,3.576-21.216,4.624-32h-32.128
		C421.056,266.904,419.32,277.688,417.136,288z"/>
	<path style="fill:#f68a4c;" d="M400.848,337.368l-3.536,6.888V352h32c4.768-9.272,8.928-20.208,12.544-32h-33.704
		C405.88,326.296,403.48,332.256,400.848,337.368z"/>
	<path style="fill:#f68a4c;" d="M297.776,256h-32.128c1.048,10.784,2.624,21.52,4.624,32h32.592
		C300.68,277.688,298.944,266.904,297.776,256z"/>
	<path style="fill:#f68a4c;" d="M322.688,344.256l-3.536-6.888c-2.632-5.112-5.032-11.064-7.304-17.368h-33.704
		c3.616,11.792,7.784,22.728,12.544,32h32V344.256z"/>
	<path style="fill:#f68a4c;" d="M392,408h-64v-24h-32v40c0,35.344,28.656,64,64,64s64-28.656,64-64v-40h-32V408z"/>
	<path style="fill:#f68a4c;" d="M200,160h32c0-11.176-0.488-21.84-1.416-32h-31.992C199.496,137.64,200,148.256,200,160z"/>
	<path style="fill:#f68a4c;" d="M136,40c21.36,0,45.704,11.184,57.24,56h32.48C213.56,40.888,183.672,8,136,8S58.44,40.888,46.28,96
		h32.48C90.296,51.184,114.64,40,136,40z"/>
	<path style="fill:#f68a4c;" d="M193.136,224h32.592c2-10.48,3.576-21.216,4.624-32h-32.128
		C197.056,202.912,195.32,213.688,193.136,224z"/>
	<path style="fill:#f68a4c;" d="M176.848,273.368l-3.536,6.888V288h32c4.768-9.272,8.928-20.208,12.544-32h-33.704
		C181.88,262.296,179.48,268.256,176.848,273.368z"/>
	<path style="fill:#f68a4c;" d="M168,344h-64v-24H72v40c0,35.344,28.656,64,64,64s64-28.656,64-64v-40h-32V344z"/>
</g>
<g>
	<path style="fill:#fff;" d="M80,160c0-11.088,0.464-21.6,1.376-31.24l0.832-8.76H34.12l-0.664,7.272
		C32.488,137.816,32,148.824,32,160v8h48V160z M64.08,152H48.088c0.128-5.408,0.36-10.76,0.72-16h15.944
		C64.416,141.152,64.184,146.504,64.08,152z"/>
	<path style="fill:#fff;" d="M86.696,222.344c-2.176-10.232-3.848-20.728-4.968-31.192L80.96,184H32.832l0.848,8.776
		c1.04,10.728,2.632,21.736,4.728,32.728L39.656,232h49.088L86.696,222.344z M52.952,216c-0.92-5.36-1.712-10.704-2.368-16h16.08
		c0.696,5.352,1.52,10.696,2.488,16H52.952z"/>
	<path style="fill:#fff;" d="M106.688,278.32l-4.424-8.608c-2.184-4.232-4.432-9.6-6.896-16.432L93.464,248H43.32l3.168,10.344
		c3.968,12.952,8.376,24.16,13.08,33.312l2.24,4.344h44.88V278.32z M71.672,280c-2.232-4.792-4.4-10.144-6.48-16h17.096
		c1.976,5.104,3.832,9.32,5.744,13.024L89.56,280H71.672z"/>
	<path style="fill:#fff;" d="M304,224c0-11.088,0.464-21.6,1.376-31.24l0.832-8.76h-48.096l-0.664,7.272
		C256.488,201.816,256,212.824,256,224v8h48V224z M288.08,216h-15.992c0.128-5.408,0.36-10.76,0.72-16h15.944
		C288.416,205.152,288.184,210.504,288.08,216z"/>
	<path style="fill:#fff;" d="M462.544,191.272L461.88,184h-48.096l0.832,8.76C415.536,202.4,416,212.912,416,224v8h48v-8
		C464,212.824,463.504,201.816,462.544,191.272z M431.92,216c-0.112-5.496-0.336-10.848-0.672-16h15.944
		c0.36,5.24,0.592,10.592,0.72,16H431.92z"/>
	<path style="fill:#fff;" d="M310.504,161.992C319.048,128.816,335.704,112,360,112s40.952,16.816,49.488,49.992L411.04,168
		h48.632l-2.144-9.728C444.12,97.48,409.48,64,360,64s-84.12,33.48-97.528,94.272L260.328,168h48.632L310.504,161.992z M280.496,152
		c9.64-34.856,31.232-72,79.504-72s69.856,37.144,79.504,72H423.32c-13.88-46.096-41.848-56-63.312-56s-49.432,9.904-63.312,56
		H280.496z"/>
	<path style="fill:#fff;" d="M414.272,255.152c-1.128,10.472-2.8,20.96-4.968,31.192L407.256,296h49.088l1.24-6.496
		c2.096-10.992,3.688-22,4.728-32.728l0.856-8.776H415.04L414.272,255.152z M429.336,264h16.08c-0.656,5.296-1.448,10.64-2.368,16
		h-16.192C427.816,274.696,428.64,269.352,429.336,264z"/>
	<path style="fill:#fff;" d="M400.632,317.28c-2.472,6.832-4.72,12.192-6.896,16.432l-4.424,8.608V360h44.88l2.232-4.344
		c4.704-9.152,9.112-20.36,13.08-33.312L452.68,312h-50.144L400.632,317.28z M407.968,341.024c1.896-3.704,3.768-7.92,5.744-13.024
		h17.096c-2.08,5.856-4.24,11.208-6.48,16H406.44L407.968,341.024z"/>
	<path style="fill:#fff;" d="M310.696,286.344c-2.176-10.232-3.848-20.728-4.968-31.192L304.96,248h-48.128l0.848,8.776
		c1.04,10.728,2.632,21.736,4.728,32.728l1.248,6.496h49.088L310.696,286.344z M276.952,280c-0.92-5.36-1.712-10.704-2.368-16h16.08
		c0.696,5.352,1.52,10.696,2.488,16H276.952z"/>
	<path style="fill:#fff;" d="M330.688,342.32l-4.424-8.608c-2.184-4.232-4.432-9.6-6.896-16.432l-1.904-5.28H267.32l3.168,10.344
		c3.968,12.952,8.376,24.16,13.08,33.312l2.24,4.344h44.88L330.688,342.32L330.688,342.32z M295.672,344
		c-2.232-4.792-4.4-10.144-6.48-16h17.096c1.976,5.104,3.832,9.32,5.744,13.024L313.56,344H295.672z"/>
	<path style="fill:#fff;" d="M336,424h-16c0,22.056,17.944,40,40,40s40-17.944,40-40h-16c0,13.232-10.768,24-24,24
		S336,437.232,336,424z"/>
	<path style="fill:#fff;" d="M384,408h16v-16h16v32c0,30.872-25.128,56-56,56s-56-25.128-56-56v-32h16v16h16v-32h-48v48
		c0,39.704,32.296,72,72,72s72-32.296,72-72v-48h-48V408z"/>
	<rect x="344" y="344" style="fill:#fff;" width="32" height="16"/>
	<rect x="352" y="376" style="fill:#fff;" width="16" height="16"/>
	<rect x="328" y="168" style="fill:#fff;" width="64" height="16"/>
	<rect x="320" y="232" style="fill:#fff;" width="80" height="16"/>
	<rect x="328" y="296" style="fill:#fff;" width="64" height="16"/>
	<path style="fill:#fff;" d="M237.88,120h-48.096l0.832,8.76C191.536,138.4,192,148.912,192,160v8h48v-8
		c0-11.176-0.496-22.184-1.456-32.728L237.88,120z M207.92,152c-0.112-5.496-0.336-10.848-0.672-16h15.944
		c0.36,5.24,0.592,10.592,0.72,16H207.92z"/>
	<path style="fill:#fff;" d="M86.504,97.992C95.048,64.816,111.704,48,136,48s40.952,16.816,49.488,49.992L187.04,104h48.632
		l-2.144-9.728C220.12,33.48,185.48,0,136,0S51.88,33.48,38.472,94.272L36.328,104H84.96L86.504,97.992z M56.496,88
		C66.144,53.144,87.736,16,136,16s69.856,37.144,79.504,72H199.32C185.432,41.904,157.464,32,136,32s-49.432,9.904-63.312,56H56.496
		z"/>
	<path style="fill:#fff;" d="M190.272,191.152c-1.128,10.472-2.8,20.96-4.968,31.192L183.256,232h49.088l1.24-6.496
		c2.096-10.992,3.688-22,4.728-32.728l0.856-8.776H191.04L190.272,191.152z M205.336,200h16.08c-0.656,5.296-1.448,10.64-2.368,16
		h-16.192C203.816,210.696,204.64,205.352,205.336,200z"/>
	<path style="fill:#fff;" d="M176.632,253.28c-2.472,6.832-4.72,12.192-6.896,16.432l-4.424,8.608V296h44.88l2.232-4.344
		c4.704-9.152,9.112-20.36,13.08-33.312L228.68,248h-50.144L176.632,253.28z M183.968,277.024c1.896-3.704,3.768-7.92,5.744-13.024
		h17.096c-2.08,5.856-4.24,11.208-6.48,16H182.44L183.968,277.024z"/>
	<path style="fill:#fff;" d="M112,360H96c0,22.056,17.944,40,40,40s40-17.944,40-40h-16c0,13.232-10.768,24-24,24
		S112,373.232,112,360z"/>
	<path style="fill:#fff;" d="M160,344h16v-16h16v32c0,30.872-25.128,56-56,56s-56-25.128-56-56v-32h16v16h16v-32H64v48
		c0,39.704,32.296,72,72,72s72-32.296,72-72v-48h-48V344z"/>
	<rect x="120" y="280" style="fill:#fff;" width="32" height="16"/>
	<rect x="128" y="312" style="fill:#fff;" width="16" height="16"/>
	<rect x="104" y="104" style="fill:#fff;" width="64" height="16"/>
	<rect x="96" y="168" style="fill:#fff;" width="80" height="16"/>
	<rect x="104" y="232" style="fill:#fff;" width="64" height="16"/>
</g>
<g>
</g>
<g>
</g>
<g>
</g>
<g>
</g>
<g>
</g>
<g>
</g>
<g>
</g>
<g>
</g>
<g>
</g>
<g>
</g>
<g>
</g>
<g>
</g>
<g>
</g>
<g>
</g>
<g>
</g>
</svg>
