<?xml version="1.0" encoding="iso-8859-1"?>
<!-- Generator: Adobe Illustrator 19.0.0, SVG Export Plug-In . SVG Version: 6.00 Build 0)  -->
<svg version="1.1" id="Layer_1" xmlns="http://www.w3.org/2000/svg" xmlns:xlink="http://www.w3.org/1999/xlink" x="0px" y="0px"
	 viewBox="0 0 496 496" style="enable-background:new 0 0 496 496;" xml:space="preserve">
<path style="fill:#f68a4c;" d="M272,304H32V128h240V304z"/>
<g>
	<path style="fill:#fff;" d="M287.464,97.312L279.36,0H24.64l-8.104,97.312C6.968,100.472,0,109.392,0,120v256
		c0,10.608,6.968,19.528,16.536,22.688L24.64,496h254.72l8.104-97.312C297.032,395.528,304,386.608,304,376V120
		C304,109.392,297.032,100.472,287.464,97.312z M271.312,96H32.688l2.672-32h233.28L271.312,96z M264.64,16l2.664,32H36.688
		l2.672-32H264.64z M32.688,400h238.616l-2.664,32H35.36L32.688,400z M39.36,480l-2.664-32h230.616l-2.664,32H39.36z M288,376
		c0,4.408-3.584,8-8,8H24c-4.416,0-8-3.592-8-8V120c0-4.408,3.584-8,8-8h256c4.416,0,8,3.592,8,8V376z"/>
	<path style="fill:#fff;" d="M56,320c-13.232,0-24,10.768-24,24s10.768,24,24,24s24-10.768,24-24S69.232,320,56,320z M56,352
		c-4.416,0-8-3.592-8-8s3.584-8,8-8s8,3.592,8,8S60.416,352,56,352z"/>
	<path style="fill:#fff;" d="M120,320c-13.232,0-24,10.768-24,24s10.768,24,24,24s24-10.768,24-24S133.232,320,120,320z M120,352
		c-4.416,0-8-3.592-8-8s3.584-8,8-8s8,3.592,8,8S124.416,352,120,352z"/>
	<path style="fill:#fff;" d="M184,320c-13.232,0-24,10.768-24,24s10.768,24,24,24s24-10.768,24-24S197.232,320,184,320z M184,352
		c-4.416,0-8-3.592-8-8s3.584-8,8-8s8,3.592,8,8S188.416,352,184,352z"/>
	<path style="fill:#fff;" d="M248,320c-13.232,0-24,10.768-24,24s10.768,24,24,24s24-10.768,24-24S261.232,320,248,320z M248,352
		c-4.416,0-8-3.592-8-8s3.584-8,8-8c4.416,0,8,3.592,8,8S252.416,352,248,352z"/>
	<rect x="64" y="160" style="fill:#fff;" width="176" height="16"/>
	<rect x="64" y="192" style="fill:#fff;" width="176" height="16"/>
	<rect x="64" y="224" style="fill:#fff;" width="176" height="16"/>
	<rect x="224" y="256" style="fill:#fff;" width="16" height="16"/>
	<rect x="64" y="256" style="fill:#fff;" width="144" height="16"/>
	<path style="fill:#fff;" d="M400,248c0-17.648-14.352-32-32-32s-32,14.352-32,32s14.352,32,32,32S400,265.648,400,248z M352,248
		c0-8.824,7.176-16,16-16s16,7.176,16,16s-7.176,16-16,16S352,256.824,352,248z"/>
	<path style="fill:#fff;" d="M368,120v16c61.76,0,112,50.24,112,112s-50.24,112-112,112v16c70.576,0,128-57.424,128-128
		S438.576,120,368,120z"/>
	<path style="fill:#fff;" d="M448,248c0,44.112-35.888,80-80,80v16c52.936,0,96-43.064,96-96s-43.064-96-96-96v16
		C412.112,168,448,203.888,448,248z"/>
	<path style="fill:#fff;" d="M416,248c0,26.472-21.528,48-48,48v16c35.288,0,64-28.712,64-64s-28.712-64-64-64v16
		C394.472,200,416,221.528,416,248z"/>
</g>
<g>
</g>
<g>
</g>
<g>
</g>
<g>
</g>
<g>
</g>
<g>
</g>
<g>
</g>
<g>
</g>
<g>
</g>
<g>
</g>
<g>
</g>
<g>
</g>
<g>
</g>
<g>
</g>
<g>
</g>
</svg>
