<?xml version="1.0" encoding="iso-8859-1"?>
<!-- Generator: Adobe Illustrator 19.0.0, SVG Export Plug-In . SVG Version: 6.00 Build 0)  -->
<svg version="1.1" id="Capa_1" xmlns="http://www.w3.org/2000/svg" xmlns:xlink="http://www.w3.org/1999/xlink" x="0px" y="0px"
	 viewBox="0 0 496 496" style="enable-background:new 0 0 496 496;" xml:space="preserve">
<g>
	<polygon style="fill:#f68a4c;" points="8,384 8,416 184,416 176,384 	"/>
	<polygon style="fill:#f68a4c;" points="320,384 312,416 488,416 488,384 	"/>
	<path style="fill:#f68a4c;" d="M288,184h-80v-56c0-22.056,17.944-40,40-40s40,17.944,40,40V184z"/>
</g>
<path style="fill:#fff;" d="M496,424v-43.912l-144-112V208c0-10.488-6.8-19.328-16.192-22.584C334.824,128.968,319.472,73.512,291,24.704
	C282.12,9.472,265.64,0,248,0s-34.12,9.472-43,24.704c-28.472,48.808-43.824,104.264-44.808,160.712
	C150.8,188.672,144,197.512,144,208v60.088l-144,112V424h180.456l3.544,9.448V496h48v-40h-16v24h-16v-40h24v-16h-26.456l-18-48H232
	v-16h-56v-64h16v-88c0-10.344-6.616-19.104-15.816-22.472c0.96-53.656,15.56-106.368,42.632-152.768
	C224.848,22.424,236.024,16,248,16c11.976,0,23.152,6.424,29.184,16.768c27.064,46.4,41.664,99.104,42.632,152.768
	C310.616,188.896,304,197.656,304,208v88h16v64h-56v16h52.456l-18,48H272v16h24v40h-16v-24h-16v40h48v-62.552l3.544-9.448H496z
	 M168,200c4.408,0,8,3.584,8,8v8h-16v-8C160,203.584,163.592,200,168,200z M176,232v16h-16v-16H176z M174.456,408H112v-24H96v24H80
	v-24H64v24H16v-20.088l128-99.56V296h16v73.456L174.456,408z M160,280v-16h16v16H160z M320,280v-16h16v16H320z M328,200
	c4.408,0,8,3.584,8,8v8h-16v-8C320,203.584,323.592,200,328,200z M336,232v16h-16v-16H336z M352,296v-7.648l128,99.56V408h-48v-24
	h-16v24h-16v-24h-16v24h-62.456L336,369.456V296H352z"/>
<rect style="fill:#fff;" x="208" y="200" width="80" height="16"/>
<rect style="fill:#fff;" x="432" y="72" width="16" height="16"/>
<rect style="fill:#fff;" x="432" y="104" width="16" height="16"/>
<rect style="fill:#fff;" x="448" y="88" width="16" height="16"/>
<rect style="fill:#fff;" x="416" y="88" width="16" height="16"/>
<rect style="fill:#fff;" x="72" y="216" width="16" height="16"/>
<rect style="fill:#fff;" x="72" y="248" width="16" height="16"/>
<rect style="fill:#fff;" x="88" y="232" width="16" height="16"/>
<rect style="fill:#fff;" x="56" y="232" width="16" height="16"/>
<rect style="fill:#fff;" x="144" width="16" height="16"/>
<rect style="fill:#fff;" x="144" y="32" width="16" height="16"/>
<rect style="fill:#fff;" x="160" y="16" width="16" height="16"/>
<rect style="fill:#fff;" x="128" y="16" width="16" height="16"/>
<rect style="fill:#fff;" x="384" y="168" width="16" height="16"/>
<rect style="fill:#fff;" x="16" y="112" width="16" height="16"/>
<rect style="fill:#fff;" x="112" y="144" width="16" height="16"/>
<path style="fill:#f68a4c;" d="M289.896,464h-83.792l24.4-113.856c1.76-8.2,9.12-14.144,17.496-14.144s15.736,5.944,17.504,14.136
	L289.896,464z"/>
<g>
</g>
<g>
</g>
<g>
</g>
<g>
</g>
<g>
</g>
<g>
</g>
<g>
</g>
<g>
</g>
<g>
</g>
<g>
</g>
<g>
</g>
<g>
</g>
<g>
</g>
<g>
</g>
<g>
</g>
</svg>
