<?xml version="1.0" encoding="iso-8859-1"?>
<!-- Generator: Adobe Illustrator 19.0.0, SVG Export Plug-In . SVG Version: 6.00 Build 0)  -->
<svg version="1.1" id="Layer_1" xmlns="http://www.w3.org/2000/svg" xmlns:xlink="http://www.w3.org/1999/xlink" x="0px" y="0px"
	 viewBox="0 0 290.625 290.625" style="enable-background:new 0 0 290.625 290.625;" xml:space="preserve">
<g>
	<g>
		<circle style="fill:#f68a4c;" cx="61.183" cy="150" r="37.5"/>
		<path style="fill:#fff;" d="M290.378,123.97l-8.386-4.195l-12.769,25.537h-17.644l10.669-21.342l-8.386-4.195l-12.764,25.537
			h-17.644l10.669-21.342l-8.386-4.195l-12.764,25.537h-91.092c-1.125-14.663-7.425-27.881-17.119-37.819l9.3-37.181h-34.13V46.875
			h18.75V14.063h-18.75V0h-37.5v14.063h-18.75v32.813h18.75v23.438H8.303l9.3,37.181C6.883,118.481,0.245,133.472,0.245,150
			c0,20.283,10.003,38.236,25.294,49.322C19.53,228.239,5.795,250.406,5.65,250.631l-0.914,1.458l5.508,38.536h101.878l5.508-38.55
			l-0.923-1.462c-0.141-0.225-13.894-22.275-19.898-51.281c14.109-10.219,23.667-26.292,25.073-44.648h91.087l12.769,25.533
			l8.386-4.195l-10.669-21.333h17.644l12.769,25.533l8.386-4.195l-10.673-21.337h17.644l12.769,25.533l8.386-4.195L277.361,150
			L290.378,123.97z M33.058,37.5V23.438h18.75V9.375h18.75v14.063h18.75V37.5h-18.75v32.813h-18.75V37.5H33.058z M102.053,79.688
			l-5.245,20.981c-10.031-7.27-22.317-11.606-35.625-11.606s-25.594,4.336-35.625,11.606l-5.245-20.981H102.053z M107.865,254.123
			l-3.872,27.127H18.372l-3.352-23.438h64.912v-9.375H17.645c4.58-8.695,11.939-24.586,16.383-43.964
			c8.189,4.097,17.391,6.464,27.155,6.464c9.755,0,18.947-2.363,27.131-6.455C94.033,229.537,104.659,248.709,107.865,254.123z
			 M61.183,201.563C32.753,201.563,9.62,178.43,9.62,150s23.133-51.563,51.563-51.563c26.85,0,48.947,20.634,51.323,46.875H68.767
			l5.981-11.967l-8.386-4.195L55.942,150l10.425,20.845l8.386-4.195l-5.986-11.962h43.739
			C110.129,180.928,88.033,201.563,61.183,201.563z"/>
	</g>
</g>
<g>
</g>
<g>
</g>
<g>
</g>
<g>
</g>
<g>
</g>
<g>
</g>
<g>
</g>
<g>
</g>
<g>
</g>
<g>
</g>
<g>
</g>
<g>
</g>
<g>
</g>
<g>
</g>
<g>
</g>
</svg>
