<?xml version="1.0" encoding="UTF-8" standalone="no"?>
<!-- Generator: Adobe Illustrator 19.0.0, SVG Export Plug-In . SVG Version: 6.00 Build 0)  -->

<svg
   xmlns:dc="http://purl.org/dc/elements/1.1/"
   xmlns:cc="http://creativecommons.org/ns#"
   xmlns:rdf="http://www.w3.org/1999/02/22-rdf-syntax-ns#"
   xmlns:svg="http://www.w3.org/2000/svg"
   xmlns="http://www.w3.org/2000/svg"
   xmlns:sodipodi="http://sodipodi.sourceforge.net/DTD/sodipodi-0.dtd"
   xmlns:inkscape="http://www.inkscape.org/namespaces/inkscape"
   version="1.1"
   id="Capa_1"
   x="0px"
   y="0px"
   viewBox="0 0 496 496"
   style="enable-background:new 0 0 496 496;"
   xml:space="preserve"
   inkscape:version="0.91 r13725"
   sodipodi:docname="warrior.svg"><metadata
   id="metadata79"><rdf:RDF><cc:Work
       rdf:about=""><dc:format>image/svg+xml</dc:format><dc:type
         rdf:resource="http://purl.org/dc/dcmitype/StillImage" /></cc:Work></rdf:RDF></metadata><defs
   id="defs77" /><sodipodi:namedview
   pagecolor="#ffffff"
   bordercolor="#666666"
   borderopacity="1"
   objecttolerance="10"
   gridtolerance="10"
   guidetolerance="10"
   inkscape:pageopacity="0"
   inkscape:pageshadow="2"
   inkscape:window-width="701"
   inkscape:window-height="480"
   id="namedview75"
   showgrid="false"
   inkscape:zoom="0.47580645"
   inkscape:cx="216.47458"
   inkscape:cy="243.79661"
   inkscape:window-x="943"
   inkscape:window-y="549"
   inkscape:window-maximized="0"
   inkscape:current-layer="g5" />
<polygon
   style="fill:#f68a4c;"
   points="384,80 344,232 376,248 464,120 464,16 "
   id="polygon3" />
<g
   id="g5">
	<rect
   x="200"
   y="304"
   style="fill:#fff;"
   width="32"
   height="16"
   id="rect7" />
	<rect
   x="192"
   y="32"
   style="fill:#fff;"
   width="16"
   height="16"
   id="rect9" />
	<rect
   x="192"
   y="64"
   style="fill:#fff;"
   width="16"
   height="16"
   id="rect11" />
	
	
	
	
		<rect
   x="415.374"
   y="50.012"
   transform="matrix(-0.4189 0.908 -0.908 -0.4189 682.6865 -320.8587)"
   style="fill:#fff;"
   width="57.27"
   height="16"
   id="rect19" />
	<path
   style="fill:#fff;"
   d="M397.912,258.008l-30.4-15.2l66.216-143.456L419.2,92.648l-66,143l-32.72-16.36   C329.736,213.68,336,203.6,336,192c0-17.648-14.352-32-32-32v-56c0-12.056-2.168-23.584-5.952-34.36   c19.272-7.28,33.504-24.208,36.944-44.856l0.768-4.616c0.84-5.032-0.576-10.152-3.872-14.048C328.592,2.232,323.776,0,318.672,0   c-5.808,0-11.192,2.88-14.416,7.712C297.456,17.912,286.08,24,273.832,24h-7.464C248.336,9.024,225.208,0,200,0   s-48.336,9.024-66.36,24h-5.784c-12.256,0-23.632-6.088-30.424-16.288C94.2,2.88,88.816,0,83.008,0   c-5.104,0-9.92,2.232-13.216,6.128c-3.296,3.888-4.712,9.008-3.872,14.048l0.768,4.6c3.352,20.128,16.92,36.792,35.448,44.368   C98.232,80.064,96,91.76,96,104v56c-17.648,0-32,14.352-32,32c0,15.2,10.68,27.904,24.912,31.144C83.424,229.992,80,238.56,80,248   v16h16v-16c0-8.816,4.832-16.456,11.928-20.624l12.64,31.592l14.856-5.944L123.816,224h43.352c0.288,0.152,0.584,0.28,0.872,0.424   C168.272,241.872,182.496,256,200,256s31.728-14.128,31.96-31.576c0.288-0.144,0.584-0.272,0.872-0.424h44.064L264,262.704V304h-16   v16h19.296l33.48,60.264C285.4,386.704,248.736,400,208,400c-14.776,0-30.352-1.744-46.312-5.184L158.84,408H144v88h112v-85.184   c33.992-7.064,58.152-18.952,59.576-19.664l7.472-3.736L280,309.928v-33.424l29.904,13.8l-9.856,19.72   c-3.12,6.248-3.12,13.704,0,19.952l0.84,1.688c3.8,7.608,11.448,12.336,19.952,12.336c6.992,0,13.664-3.336,17.848-8.928   l12.432-25.736l16.584,7.656c4.272,1.968,9.016,3.008,13.728,3.008h1.848c18.04,0,32.72-14.68,32.72-32.72   C416,274.808,409.072,263.584,397.912,258.008z M192,480h-32v-32h32V480z M192,432h-32v-21.224c10.864,2.272,21.552,3.76,32,4.544   V432z M240,480h-32v-32h32V480z M240,432h-32v-16c11.096,0,21.848-0.912,32-2.36V432z M317.568,16.592   c0.528-0.8,1.776-0.52,2.12-0.128c0.176,0.216,0.376,0.576,0.296,1.072l-0.768,4.608c-2.544,15.248-13.192,27.68-27.552,32.8   c-2.96-5.504-6.432-10.68-10.296-15.536C296.024,37.296,309.208,29.128,317.568,16.592z M82.472,22.144l-0.768-4.6   c-0.08-0.504,0.12-0.864,0.296-1.08c0.336-0.408,1.592-0.664,2.12,0.12c8.08,12.112,20.664,20.104,34.728,22.544   c-3.84,4.8-7.32,9.904-10.272,15.336C94.936,49.04,84.928,36.888,82.472,22.144z M120,208H96c-8.824,0-16-7.176-16-16   s7.176-16,16-16h16v-72c0-37.224,23.272-69.048,56-81.888V88h-16c-13.232,0-24,10.768-24,24v48c0,18.448,7.032,35.248,18.488,48   H120z M200,240c-6.504,0-12.08-3.912-14.584-9.488C190.128,231.48,195.008,232,200,232s9.872-0.52,14.584-1.488   C212.08,236.088,206.504,240,200,240z M200,216c-30.88,0-56-25.12-56-56v-48c0-4.408,3.592-8,8-8h96c4.408,0,8,3.592,8,8v48   C256,190.88,230.88,216,200,216z M253.512,208C264.968,195.248,272,178.448,272,160v-48c0-13.232-10.768-24-24-24h-16V64h-16v24   h-32V17.528c5.2-0.96,10.528-1.528,16-1.528s10.8,0.568,16,1.528V48h16V22.112c32.728,12.84,56,44.664,56,81.888v72h16   c8.824,0,16,7.176,16,16s-7.176,16-16,16h-19.336H280H253.512z M281.856,259.736L293.432,225c3.16,0.712,6.232,1.776,9.128,3.224   l30.712,15.352l-16.208,32.408L281.856,259.736z M325.496,325.96c-2.792,3.032-8.424,2.288-10.296-1.456l-0.84-1.688   c-0.88-1.768-0.88-3.872,0-5.64l33.224-66.448l11.352,5.672L325.496,325.96z M383.28,304h-1.848c-2.408,0-4.832-0.528-7-1.536   l-16.336-7.544l15.144-31.36l17.52,8.76c5.696,2.848,9.24,8.584,9.24,14.96C400,296.496,392.496,304,383.28,304z"
   id="path21" />
</g>
<path
   style="fill:#f68a4c;"
   d="M120,424c-48.52,0-88-39.48-88-88s39.48-88,88-88s88,39.48,88,88S168.52,424,120,424z"
   id="path23" />
<g
   id="g25">
	<path
   style="fill:#fff;"
   d="M120,376c-22.056,0-40-17.944-40-40s17.944-40,40-40s40,17.944,40,40S142.056,376,120,376z M120,312   c-13.232,0-24,10.768-24,24s10.768,24,24,24s24-10.768,24-24S133.232,312,120,312z"
   id="path27" />
	<rect
   x="112"
   y="272"
   style="fill:#fff;"
   width="16"
   height="16"
   id="rect29" />
	
		<rect
   x="72.415"
   y="288.417"
   transform="matrix(-0.7074 0.7069 -0.7069 -0.7074 346.8226 449.2488)"
   style="fill:#fff;"
   width="16.001"
   height="16.001"
   id="rect31" />
	<rect
   x="56"
   y="328"
   style="fill:#fff;"
   width="16"
   height="16"
   id="rect33" />
	
		<rect
   x="72.419"
   y="367.566"
   transform="matrix(-0.7069 0.7074 -0.7074 -0.7069 402.9243 584.1523)"
   style="fill:#fff;"
   width="16.001"
   height="16.001"
   id="rect35" />
	<rect
   x="112"
   y="384"
   style="fill:#fff;"
   width="16"
   height="16"
   id="rect37" />
	
		<rect
   x="151.576"
   y="367.577"
   transform="matrix(-0.7074 0.7069 -0.7069 -0.7074 537.9336 528.4468)"
   style="fill:#fff;"
   width="16.001"
   height="16.001"
   id="rect39" />
	<rect
   x="168"
   y="328"
   style="fill:#fff;"
   width="16"
   height="16"
   id="rect41" />
	
		<rect
   x="151.588"
   y="288.444"
   transform="matrix(-0.7069 0.7074 -0.7074 -0.7069 482.0865 393.1034)"
   style="fill:#fff;"
   width="16.001"
   height="16.001"
   id="rect43" />
</g>
<g
   id="g45">
</g>
<g
   id="g47">
</g>
<g
   id="g49">
</g>
<g
   id="g51">
</g>
<g
   id="g53">
</g>
<g
   id="g55">
</g>
<g
   id="g57">
</g>
<g
   id="g59">
</g>
<g
   id="g61">
</g>
<g
   id="g63">
</g>
<g
   id="g65">
</g>
<g
   id="g67">
</g>
<g
   id="g69">
</g>
<g
   id="g71">
</g>
<g
   id="g73">
</g>
</svg>