<?xml version="1.0" encoding="UTF-8" standalone="no"?>
<!-- Generator: Adobe Illustrator 19.0.0, SVG Export Plug-In . SVG Version: 6.00 Build 0)  -->

<svg
   xmlns:dc="http://purl.org/dc/elements/1.1/"
   xmlns:cc="http://creativecommons.org/ns#"
   xmlns:rdf="http://www.w3.org/1999/02/22-rdf-syntax-ns#"
   xmlns:svg="http://www.w3.org/2000/svg"
   xmlns="http://www.w3.org/2000/svg"
   xmlns:sodipodi="http://sodipodi.sourceforge.net/DTD/sodipodi-0.dtd"
   xmlns:inkscape="http://www.inkscape.org/namespaces/inkscape"
   version="1.1"
   id="Capa_1"
   x="0px"
   y="0px"
   viewBox="0 0 496 496"
   style="enable-background:new 0 0 496 496;"
   xml:space="preserve"
   inkscape:version="0.91 r13725"
   sodipodi:docname="wizard.svg"><metadata
   id="metadata61"><rdf:RDF><cc:Work
       rdf:about=""><dc:format>image/svg+xml</dc:format><dc:type
         rdf:resource="http://purl.org/dc/dcmitype/StillImage" /></cc:Work></rdf:RDF></metadata><defs
   id="defs59" /><sodipodi:namedview
   pagecolor="#ffffff"
   bordercolor="#666666"
   borderopacity="1"
   objecttolerance="10"
   gridtolerance="10"
   guidetolerance="10"
   inkscape:pageopacity="0"
   inkscape:pageshadow="2"
   inkscape:window-width="701"
   inkscape:window-height="480"
   id="namedview57"
   showgrid="false"
   inkscape:zoom="0.47580645"
   inkscape:cx="248"
   inkscape:cy="245.89831"
   inkscape:window-x="826"
   inkscape:window-y="321"
   inkscape:window-maximized="0"
   inkscape:current-layer="g9" />
<g
   id="g3">
	<path
   style="fill:#f68a4c;"
   d="M216,96h-96c-8.84,0-16,7.16-16,16v40c0,23.696,12.88,44.384,32.016,55.448h0.232   c-0.072-0.712-0.248-1.392-0.248-2.112c0-11.784,9.552-21.336,21.336-21.336h21.336c11.776,0,21.328,9.552,21.328,21.336   c0,0.712-0.176,1.4-0.248,2.104H200c19.128-11.064,32-31.752,32-55.44v-40C232,103.16,224.84,96,216,96z"
   id="path5" />
	<path
   style="fill:#f68a4c;"
   d="M432,288c-17.648,0-32-14.352-32-32s14.352-32,32-32s32,14.352,32,32S449.648,288,432,288z"
   id="path7" />
</g>
<g
   id="g9">
	
	
	<path
   style="fill:#fff;"
   d="M396.848,282.296l-48.08-21.368l14.736-24.56L288,202.8V152h60.72c15.04,0,27.28-12.24,27.28-27.28   c0-4.416-1.056-8.784-3.056-12.656C331.672,32.472,272.296,0,168,0c-0.032,0-0.064,0-0.096,0C101.792,0.008,48,53.84,48,120v84.048   C17.944,225.8,0,260.384,0,297.688V352h16v36c0,15.44,12.56,28,28,28c0.096,0,0.184-0.024,0.272-0.024   c-8.184,20.464-18.128,40.28-29.784,59.224L1.68,496H168h166.32l-12.808-20.808c-30.976-50.336-49.896-106.848-55.624-165.304   l41.16,20.584l9.232-15.384l51.024,25.512c4.448,2.224,9.432,3.4,14.416,3.4h2.032C401.536,344,416,329.536,416,311.752   C416,299.024,408.488,287.456,396.848,282.296z M64,120c0-57.336,46.616-103.992,103.904-104c0.04,0,0.064,0,0.096,0   c98.664,0,152.152,29.008,190.728,103.432c0.832,1.6,1.272,3.424,1.272,5.288c0,6.216-5.056,11.28-11.28,11.28H288V96h-16v108.688   l-104,104l-104-104V120z M44,400c-6.616,0-12-5.384-12-12v-36h31.656c-3.248,15.392-7.472,30.552-12.56,45.44   C49.032,398.992,46.624,400,44,400z M300.952,309.528l-36.416-18.208C264.216,284.896,264,278.456,264,272h-16   c0,73.352,19.944,145.176,57.704,208H168H30.296c23.864-39.696,40.592-83,49.688-128H80v-0.112c5.28-26.176,8-52.928,8-79.888H72   c0,21.544-1.824,42.936-5.352,64H16v-38.312c0-31.256,14.648-60.28,39.272-79.104L168,331.312l113.768-113.768l58.72,26.096   L300.952,309.528z M383.752,328h-2.032c-2.512,0-5.016-0.592-7.264-1.712l-49.928-24.96l15.944-26.576l49.872,22.168   c5.872,2.592,9.656,8.416,9.656,14.832C400,320.712,392.712,328,383.752,328z"
   id="path15" />
	<path
   style="fill:#fff;"
   d="M432,192v16c26.472,0,48,21.528,48,48s-21.528,48-48,48c-2.288,0-4.608-0.168-6.88-0.488   l-2.248,15.84C425.888,319.784,428.96,320,432,320c35.288,0,64-28.712,64-64S467.288,192,432,192z"
   id="path17" />
	<path
   style="fill:#fff;"
   d="M440.12,72.824c0.848,12.88,6.272,24.88,15.496,34.096c5.4,5.416,8.384,12.608,8.384,20.264   c0,11.784-7.072,22.224-18.016,26.608l-16.96,6.784l5.944,14.848l16.96-6.784C468.984,161.824,480,145.544,480,127.184   c0-11.928-4.648-23.144-13.08-31.576C459.88,88.568,456,79.2,456,69.24V24l-24,32c-10.32,13.76-16,30.808-16,48h16   C432,93.12,434.84,82.312,440.12,72.824z"
   id="path19" />
	<path
   style="fill:#fff;"
   d="M360,204v12h16v-12c0-10.016,4.784-19.584,12.8-25.6c12.024-9.016,19.2-23.368,19.2-38.4v-12   l6.4,4.8c6.008,4.504,9.6,11.688,9.6,19.2h16c0-12.52-5.984-24.488-16-32l-32-24v44c0,10.016-4.784,19.584-12.8,25.6   C367.176,174.624,360,188.976,360,204z"
   id="path21" />
	<path
   style="fill:#fff;"
   d="M420.24,176.824C403.344,182.448,392,198.192,392,216h16c0-10.904,6.952-20.552,17.304-24   l1.232-0.408l-5.064-15.176L420.24,176.824z"
   id="path23" />
	<path
   style="fill:#fff;"
   d="M196.264,228.8c5.464-4.096,9.272-10,10.88-16.536C227.44,199.04,240,176.36,240,152v-40   c0-13.232-10.768-24-24-24h-96c-13.232,0-24,10.768-24,24v40c0,24.36,12.56,47.032,32.856,60.256   c1.6,6.536,5.408,12.448,10.88,16.544L168,250L196.264,228.8z M112,152v-40c0-4.408,3.592-8,8-8h96c4.408,0,8,3.592,8,8v40   c0,15.952-6.952,30.96-18.552,41.472C200.88,183.2,190.616,176,178.664,176h-21.336c-11.944,0-22.208,7.2-26.776,17.472   C118.952,182.96,112,167.952,112,152z M144,205.336c0-7.352,5.984-13.336,13.336-13.336h21.336c7.344,0,13.328,5.984,13.328,13.336   c0,4.176-1.992,8.168-5.336,10.664L168,230l-18.664-14C145.992,213.496,144,209.504,144,205.336z"
   id="path25" />
</g>
<g
   id="g27">
</g>
<g
   id="g29">
</g>
<g
   id="g31">
</g>
<g
   id="g33">
</g>
<g
   id="g35">
</g>
<g
   id="g37">
</g>
<g
   id="g39">
</g>
<g
   id="g41">
</g>
<g
   id="g43">
</g>
<g
   id="g45">
</g>
<g
   id="g47">
</g>
<g
   id="g49">
</g>
<g
   id="g51">
</g>
<g
   id="g53">
</g>
<g
   id="g55">
</g>
</svg>