<?xml version="1.0" encoding="iso-8859-1"?>
<!-- Generator: Adobe Illustrator 19.0.0, SVG Export Plug-In . SVG Version: 6.00 Build 0)  -->
<svg xmlns="http://www.w3.org/2000/svg" xmlns:xlink="http://www.w3.org/1999/xlink" version="1.1" id="Capa_1" x="0px" y="0px" viewBox="0 0 496 496" style="enable-background:new 0 0 496 496;" xml:space="preserve">
<path style="fill:#d22780;" d="M311.576,264H264v60c0,11.048-8.952,20-20,20l0,0c-11.048,0-20-8.952-20-20v-20H96v16  c0,13.256-10.744,24-24,24l32,144h112l17.024-76.616C240.056,413.568,250.752,416,264,416c21.712,0,36.744-6.488,39.44-7.736  c1.92,7.312,4.112,14.552,6.776,21.648L320,456v32h48l32-120v-15.576C400,303.584,360.416,264,311.576,264z"/>
<g>
	<rect x="192" y="120" style="fill:#fff;" width="16" height="16"/>
	<rect x="112" y="120" style="fill:#fff;" width="16" height="16"/>
	<path style="fill:#fff;" d="M160,184c-6.44,0-7.904-4.4-8-8.096L144,176h-8c0,9.648,6.392,24,24,24s24-14.352,24-24l-16-0.096   C167.904,179.6,166.44,184,160,184z"/>
	<rect x="120" y="264" style="fill:#fff;" width="16" height="16"/>
	<rect x="184" y="264" style="fill:#fff;" width="16" height="16"/>
	<path style="fill:#fff;" d="M487.384,392H488v-2.736c0.064-0.224,0.088-0.464,0.16-0.688c5.2-18.208,7.84-37.056,7.84-56   c0-25.728-10.016-49.904-28.2-68.088C457.168,253.856,443.032,248,428,248s-29.168,5.856-39.8,16.488l-14.4,14.4   C356.992,264.64,335.288,256,311.576,256h-40.008c-2.136-18.288-16.44-33.032-35.152-35.112L200,216.84v-2.552   c26.2-13.44,44.808-39.584,47.592-70.288H264c12.04,0,23.976-3.976,33.6-11.2C311.624,122.28,320,105.536,320,88V72h-8   c-19.616,0-39.072,4.696-56.632,13.336C250.048,37.408,209.328,0,160,0S69.952,37.408,64.632,85.336C47.072,76.696,27.616,72,8,72   H0v16c0,17.536,8.376,34.28,22.4,44.8C32.024,140.024,43.96,144,56,144h16.408c2.784,30.704,21.4,56.848,47.592,70.288v2.552   l-36.416,4.048C63.296,223.144,48,240.232,48,260.64V324c0,11.568,7.056,21.52,17.088,25.784L97.584,496h124.832l16.624-74.8   c6.84,1.528,15.208,2.8,24.96,2.8c14.64,0,26.408-2.768,34.056-5.208c1.424,4.68,2.944,9.336,4.672,13.936L312,457.456V496h62.144   l22.04-82.648c1.776,5.288,3.96,10.44,6.848,15.256c10.152,16.904,26.176,29.2,45.128,34.616l41.816,11.944l-5.016-30.096   C482.032,427.512,482.968,409.264,487.384,392z M160,208c-14,0-27.032-4.08-38.096-11.016l9.008-24.904   c1.416-2.52,4.056-4.08,6.976-4.08h44.224c2.92,0,5.552,1.552,6.976,4.08l9.008,24.904C187.032,203.92,174,208,160,208z M288,120   c-6.872,5.16-15.4,8-24,8h-16v-19.824c16.488-11.472,35.984-18.424,56-19.888C303.904,100.712,297.944,112.544,288,120z M160,16   c43.56,0,79.032,35.008,79.92,78.36c-0.728,0.496-1.464,0.992-2.184,1.504c-26.496-0.736-50.944-14.096-65.704-36.232L160,41.584   l-12.032,18.04c-14.76,22.144-39.2,35.504-65.704,36.24c-0.72-0.512-1.456-1.008-2.184-1.504C80.968,51.008,116.44,16,160,16z    M32,120c-9.944-7.456-15.904-19.288-16-31.704c20.016,1.456,39.512,8.416,56,19.888V128H56C47.4,128,38.872,125.16,32,120z    M88,136v-24.328c28.888-2.352,55.248-17.384,72-41.304c16.752,23.92,43.112,38.944,72,41.304V136   c0,19.632-7.92,37.432-20.704,50.44l-7.352-20.32l-0.368-0.856C199.488,157.08,191.256,152,182.112,152h-44.224   c-9.144,0-17.368,5.08-21.464,13.264l-7.704,21.184C95.92,173.448,88,155.64,88,136z M209.584,480H168V344h-16v136h-41.584   L81.832,351.368C94.48,348.672,104,337.432,104,324v-4h80v-16h-80v-48H88v68c0,6.616-5.384,12-12,12s-12-5.384-12-12v-63.36   c0-12.248,9.176-22.496,21.344-23.856L136,231.16v-10.568c7.64,2.168,15.672,3.408,24,3.408s16.36-1.24,24-3.408v10.568   l50.656,5.624C246.824,238.144,256,248.392,256,260.64V324c0,6.616-5.384,12-12,12s-12-5.384-12-12v-68h-16v48h-16v16h16v4   c0,13.432,9.52,24.672,22.168,27.368L209.584,480z M361.856,480H328v-25.456l-10.288-27.448   C308.616,402.848,304,377.416,304,351.504V328h-16v23.504c0,17.552,1.984,34.896,5.888,51.848C287.616,405.424,277.2,408,264,408   c-8.424,0-15.624-1.096-21.496-2.408l12.4-55.808C264.944,345.52,272,335.568,272,324v-52h39.576   C355.92,272,392,308.08,392,352.424V360v6.952L361.856,480z M416.752,420.376c-5.728-9.544-8.752-20.48-8.752-31.608V360h-0.112   l0.112-7.576c0-23.712-8.64-45.408-22.888-62.224l14.4-14.4C407.128,268.184,417.24,264,428,264s20.872,4.184,28.488,11.8   c13.536,13.536,21.6,31.064,23.184,49.928c-7.36-13.296-19.016-23.68-33.184-29.352l-19.504-7.808l-5.944,14.856l19.504,7.808   c11.392,4.552,20.696,13.112,26.176,24.088c3.448,6.912,5.28,14.656,5.28,22.384v29.904c-5.064,19.536-6.136,40.216-2.824,60.096   l0.36,2.184l-1.12-1.68C460.296,436.016,456,421.832,456,407.184v-5.248c0-24.024-9.352-46.608-26.344-63.592l-11.312,11.312   C432.312,363.624,440,382.184,440,401.936v5.248c0,13.8,3.168,27.248,9.184,39.512   C435.632,441.976,424.192,432.768,416.752,420.376z M469.136,452.576l0.76-0.504l0.128,0.76L469.136,452.576z"/>
	<rect x="96" y="352" style="fill:#fff;" width="16" height="24"/>
	<rect x="120" y="392" style="fill:#fff;" width="16" height="24"/>
	<rect x="184" y="336" style="fill:#fff;" width="16" height="24"/>
	<rect x="192" y="392" style="fill:#fff;" width="16" height="24"/>
	<rect x="288" y="288" style="fill:#fff;" width="16" height="16"/>
	<rect x="336" y="312" style="fill:#fff;" width="16" height="16"/>
	<rect x="368" y="352" style="fill:#fff;" width="16" height="16"/>
	<rect x="344" y="408" style="fill:#fff;" width="16" height="16"/>
	<rect x="320" y="368" style="fill:#fff;" width="16" height="16"/>
	<rect x="256" y="376" style="fill:#fff;" width="16" height="16"/>
</g>
<g>
</g>
<g>
</g>
<g>
</g>
<g>
</g>
<g>
</g>
<g>
</g>
<g>
</g>
<g>
</g>
<g>
</g>
<g>
</g>
<g>
</g>
<g>
</g>
<g>
</g>
<g>
</g>
<g>
</g>
</svg>
