<?xml version="1.0" encoding="iso-8859-1"?>
<!-- Generator: Adobe Illustrator 19.0.0, SVG Export Plug-In . SVG Version: 6.00 Build 0)  -->
<svg version="1.1" id="Layer_1" xmlns="http://www.w3.org/2000/svg" xmlns:xlink="http://www.w3.org/1999/xlink" x="0px" y="0px"
	 viewBox="0 0 290.625 290.625" style="enable-background:new 0 0 290.625 290.625;" xml:space="preserve">
<g>
	<g>
		<g>
			<rect y="28.125" style="fill:#d22780;" width="290.625" height="32.813"/>
		</g>
		<g>
			<path style="fill:#fff;" d="M276.562,0h-262.5C6.31,0,0,6.309,0,14.063v159.375c0,7.753,6.31,14.062,14.063,14.062v103.125
				h131.25V187.5h131.25c7.753,0,14.062-6.309,14.062-14.063V14.063C290.625,6.309,284.315,0,276.562,0z M135.938,196.875h-9.375
				v9.375h9.375v56.25h-9.375v9.375h9.375v9.375h-112.5v-9.375h9.375V262.5h-9.375v-56.25h9.375v-9.375h-9.375V187.5h4.687h23.437
				h56.25h23.437h4.687v9.375H135.938z M121.875,178.125h-14.062v-18.75c0-15.511-12.614-28.125-28.125-28.125
				s-28.125,12.614-28.125,28.125v18.75H37.5v-18.75c0-23.259,18.923-42.188,42.187-42.188s42.187,18.928,42.187,42.188v18.75
				H121.875z M98.438,178.125h-37.5v-18.75c0-10.341,8.409-18.75,18.75-18.75s18.75,8.409,18.75,18.75V178.125z M281.25,173.438
				c0,2.587-2.1,4.688-4.687,4.688h-131.25H131.25v-18.75c0-28.43-23.133-51.563-51.562-51.563s-51.562,23.133-51.562,51.563v18.75
				H14.063c-2.587,0-4.687-2.1-4.687-4.688V14.063c0-2.583,2.1-4.688,4.687-4.688h262.5c2.587,0,4.687,2.105,4.687,4.688V173.438z"
				/>
			<path style="fill:#fff;" d="M243.75,112.5c-6.127,0-11.789,1.992-16.411,5.334c-4.762-3.445-10.444-5.334-16.402-5.334
				c-15.511,0-28.125,12.614-28.125,28.125s12.614,28.125,28.125,28.125c5.958,0,11.639-1.889,16.397-5.334
				c4.627,3.342,10.289,5.334,16.416,5.334c15.511,0,28.125-12.614,28.125-28.125S259.261,112.5,243.75,112.5z M192.187,140.625
				c0-10.341,8.409-18.75,18.75-18.75c3.469,0,6.787,0.994,9.694,2.77c-3.15,4.542-5.006,10.045-5.006,15.98
				s1.856,11.433,5.006,15.975c-2.906,1.777-6.225,2.775-9.694,2.775C200.597,159.375,192.187,150.966,192.187,140.625z
				 M243.75,159.375c-10.341,0-18.75-8.409-18.75-18.75s8.409-18.75,18.75-18.75s18.75,8.409,18.75,18.75
				S254.09,159.375,243.75,159.375z"/>
			<path style="fill:#fff;" d="M79.688,201.563c-10.341,0-18.75,8.409-18.75,18.75c0,4.528,1.683,8.911,4.687,12.328v34.547
				H93.75v-34.547c3.005-3.417,4.687-7.8,4.687-12.328C98.438,209.972,90.028,201.563,79.688,201.563z M85.922,227.245l-1.547,1.397
				v29.17H75v-29.17l-1.547-1.397c-2.025-1.823-3.141-4.289-3.141-6.933c0-5.17,4.205-9.375,9.375-9.375s9.375,4.205,9.375,9.375
				C89.063,222.956,87.947,225.422,85.922,227.245z"/>
		</g>
	</g>
</g>
<g>
</g>
<g>
</g>
<g>
</g>
<g>
</g>
<g>
</g>
<g>
</g>
<g>
</g>
<g>
</g>
<g>
</g>
<g>
</g>
<g>
</g>
<g>
</g>
<g>
</g>
<g>
</g>
<g>
</g>
</svg>
