<?xml version="1.0" encoding="iso-8859-1"?>
<!-- Generator: Adobe Illustrator 19.0.0, SVG Export Plug-In . SVG Version: 6.00 Build 0)  -->
<svg version="1.1" id="Layer_1" xmlns="http://www.w3.org/2000/svg" xmlns:xlink="http://www.w3.org/1999/xlink" x="0px" y="0px"
	 viewBox="0 0 290.625 290.625" style="enable-background:new 0 0 290.625 290.625;" xml:space="preserve">
<g>
	<g>
		<path style="fill:#d22780;" d="M257.812,243.75h-23.438c-7.753,0-14.062-6.309-14.062-14.063V84.375h51.562v145.313
			C271.875,237.441,265.565,243.75,257.812,243.75z"/>
		<path style="fill:#d22780;" d="M196.875,243.75h-23.437c-7.753,0-14.062-6.309-14.062-14.063V84.375h51.562v145.313
			C210.937,237.441,204.628,243.75,196.875,243.75z"/>
		<path style="fill:#d22780;" d="M135.937,243.75H112.5c-7.753,0-14.062-6.309-14.062-14.063V84.375H150v145.313
			C150,237.441,143.691,243.75,135.937,243.75z"/>
		<path style="fill:#fff;" d="M0,28.125V262.5h290.625V28.125H0z M9.375,37.5h70.312v215.625H9.375V37.5z M281.25,253.125H89.062
			V37.5H281.25V253.125z"/>
		<path style="fill:#fff;" d="M246.094,98.437c-9.047,0-16.406,7.359-16.406,16.406s7.359,16.406,16.406,16.406
			s16.406-7.359,16.406-16.406S255.14,98.437,246.094,98.437z M246.094,121.875c-3.877,0-7.031-3.155-7.031-7.031
			c0-3.877,3.155-7.031,7.031-7.031s7.031,3.155,7.031,7.031S249.97,121.875,246.094,121.875z"/>
		<rect x="220.312" y="192.187" style="fill:#fff;" width="51.562" height="9.375"/>
		<rect x="248.437" y="135.937" style="fill:#fff;" width="9.375" height="46.875"/>
		<rect x="234.375" y="135.937" style="fill:#fff;" width="9.375" height="46.875"/>
		<path style="fill:#fff;" d="M185.156,98.437c-9.047,0-16.406,7.359-16.406,16.406s7.359,16.406,16.406,16.406
			c9.047,0,16.406-7.359,16.406-16.406S194.203,98.437,185.156,98.437z M185.156,121.875c-3.877,0-7.031-3.155-7.031-7.031
			c0-3.877,3.155-7.031,7.031-7.031c3.877,0,7.031,3.155,7.031,7.031C192.187,118.72,189.033,121.875,185.156,121.875z"/>
		<rect x="159.375" y="192.187" style="fill:#fff;" width="51.562" height="9.375"/>
		<rect x="187.5" y="135.937" style="fill:#fff;" width="9.375" height="46.875"/>
		<rect x="173.437" y="135.937" style="fill:#fff;" width="9.375" height="46.875"/>
		<path style="fill:#fff;" d="M124.219,98.437c-9.047,0-16.406,7.359-16.406,16.406s7.359,16.406,16.406,16.406
			s16.406-7.359,16.406-16.406S133.266,98.437,124.219,98.437z M124.219,121.875c-3.877,0-7.031-3.155-7.031-7.031
			c0-3.877,3.155-7.031,7.031-7.031s7.031,3.155,7.031,7.031S128.095,121.875,124.219,121.875z"/>
		<rect x="98.437" y="192.187" style="fill:#fff;" width="51.562" height="9.375"/>
		<rect x="126.562" y="135.937" style="fill:#fff;" width="9.375" height="46.875"/>
		<rect x="112.5" y="135.937" style="fill:#fff;" width="9.375" height="46.875"/>
		<path style="fill:#fff;" d="M18.75,46.875v37.5h51.562v-37.5H18.75z M60.937,75H28.125V56.25h32.812V75z"/>
		<path style="fill:#fff;" d="M18.75,131.25h51.562v-37.5H18.75V131.25z M28.125,103.125h32.812v18.75H28.125V103.125z"/>
		<path style="fill:#fff;" d="M18.75,178.125h51.562v-37.5H18.75V178.125z M28.125,150h32.812v18.75H28.125V150z"/>
		<path style="fill:#fff;" d="M44.531,187.5c-14.217,0-25.781,11.569-25.781,25.781s11.564,25.781,25.781,25.781
			s25.781-11.569,25.781-25.781S58.748,187.5,44.531,187.5z M44.531,229.687c-9.047,0-16.406-7.359-16.406-16.406
			s7.359-16.406,16.406-16.406s16.406,7.359,16.406,16.406S53.578,229.687,44.531,229.687z"/>
		<path style="fill:#fff;" d="M271.875,46.875H98.437V75h173.437V46.875H271.875z M262.5,65.625H107.812V56.25H262.5V65.625z"/>
	</g>
</g>
<g>
</g>
<g>
</g>
<g>
</g>
<g>
</g>
<g>
</g>
<g>
</g>
<g>
</g>
<g>
</g>
<g>
</g>
<g>
</g>
<g>
</g>
<g>
</g>
<g>
</g>
<g>
</g>
<g>
</g>
</svg>
