<?xml version="1.0" encoding="iso-8859-1"?>
<!-- Generator: Adobe Illustrator 19.0.0, SVG Export Plug-In . SVG Version: 6.00 Build 0)  -->
<svg version="1.1" id="Layer_1" xmlns="http://www.w3.org/2000/svg" xmlns:xlink="http://www.w3.org/1999/xlink" x="0px" y="0px"
	 viewBox="0 0 496 496" style="enable-background:new 0 0 496 496;" xml:space="preserve">
<circle style="fill:#d22780;" cx="253.876" cy="184" r="112"/>
<g>
	<path style="fill:#fff;" d="M273.892,120h-40c-15.44,0-28,12.56-28,28v20h16v-20c0-6.616,5.384-12,12-12h40
		c6.616,0,12,5.384,12,12v24c0,6.616-5.384,12-12,12c-15.44,0-28,12.56-28,28v12h16v-12c0-6.616,5.384-12,12-12
		c15.44,0,28-12.56,28-28v-24C301.892,132.56,289.332,120,273.892,120z"/>
	<rect x="245.876" y="240" style="fill:#fff;" width="16" height="16"/>
	<path style="fill:#fff;" d="M413.892,0v16h35.928l-54.144,51.288c-33.32-40.328-83.4-66.408-139.32-67.12
		c-0.784-0.008-1.552-0.016-2.328-0.016c-56.008,0-107.344,25.968-141.56,67.48L57.964,16h35.928V0h-64v64h16V26.592l56.88,53.888
		C89.18,100.216,79.1,122.736,73.876,147.336c-4.488,21.136-5.048,42.928-1.672,64.832l-54.096,96.744l59.792,17.12L78.036,424
		h79.992v72h16v-88H94.02l-0.136-94.032l-51.944-14.88l46.968-84l-0.472-2.784c-3.528-20.848-3.168-41.584,1.096-61.64
		c4.592-21.624,13.288-41.496,24.976-59.064l69.88,66.208l11-11.608L124.06,78.624c31.656-39.016,79.688-63.288,132.08-62.456
		c51.448,0.656,97.496,24.824,127.912,62.128l-71.672,67.896l11,11.608l70.248-66.552c17.832,26.664,28.248,58.616,28.248,92.832
		l0.016,29.192c0.048,64.088-31.504,124.088-84.408,160.504l-3.464,2.384V496h16V384.52
		c55.152-39.616,87.912-103.312,87.864-171.264l-0.008-29.184c0-38.448-12.04-74.28-32.504-103.928l56.52-53.544V64h16V0H413.892z"
		/>
</g>
<g>
</g>
<g>
</g>
<g>
</g>
<g>
</g>
<g>
</g>
<g>
</g>
<g>
</g>
<g>
</g>
<g>
</g>
<g>
</g>
<g>
</g>
<g>
</g>
<g>
</g>
<g>
</g>
<g>
</g>
</svg>
