<?xml version="1.0" encoding="iso-8859-1"?>
<!-- Generator: Adobe Illustrator 19.0.0, SVG Export Plug-In . SVG Version: 6.00 Build 0)  -->
<svg version="1.1" id="Capa_1" xmlns="http://www.w3.org/2000/svg" xmlns:xlink="http://www.w3.org/1999/xlink" x="0px" y="0px"
	 viewBox="0 0 496 496" style="enable-background:new 0 0 496 496;" xml:space="preserve">
<g>
	<rect x="24" y="88" style="fill:#d22780;" width="448" height="40"/>
	<path style="fill:#d22780;" d="M192,408H96c-13.256,0-24,10.744-24,24s10.744,24,24,24h96c13.256,0,24-10.744,24-24
		S205.256,408,192,408z"/>
	<path style="fill:#d22780;" d="M198.568,272H200v-11.176c0-34.352-10.736-67.848-30.704-95.808C163.464,156.848,154.04,152,144,152
		s-19.464,4.848-25.296,13.024C98.736,192.976,88,226.472,88,260.824V272h1.432c-5.384,3.888-9.928,8.984-13.008,15.152
		C73.512,292.968,72,299.384,72,305.888V376h144v-70.112c0-6.504-1.512-12.92-4.424-18.736
		C208.496,280.984,203.952,275.888,198.568,272z"/>
	<path style="fill:#d22780;" d="M304,200h96c13.256,0,24-10.744,24-24s-10.744-24-24-24h-96c-13.256,0-24,10.744-24,24
		S290.744,200,304,200z"/>
	<path style="fill:#d22780;" d="M280,232v70.112c0,6.504,1.512,12.92,4.424,18.736c3.088,6.168,7.624,11.272,13.016,15.16H296
		v11.176c0,34.352,10.736,67.848,30.704,95.808C332.536,451.152,341.96,456,352,456s19.464-4.848,25.296-13.016
		C397.264,415.024,408,381.528,408,347.176V336h-1.432c5.384-3.888,9.928-8.984,13.008-15.16c2.912-5.808,4.424-12.224,4.424-18.728
		V232H280z"/>
</g>
<g>
	<path style="fill:#fff;" d="M496,35.528C496,15.936,480.064,0,460.472,0H35.528C15.936,0,0,15.936,0,35.528
		c0,3.832,0.616,7.616,1.832,11.24L16,89.296V456c0,22.056,17.944,40,40,40h384c22.056,0,40-17.944,40-40V89.296l14.168-42.52
		C495.384,43.144,496,39.36,496,35.528z M440,480H56c-13.232,0-24-10.768-24-24V128h400v-16H32V96h432v16h-16v16h16v328
		C464,469.232,453.232,480,440,480z M479,41.704L466.232,80H29.768L17,41.696c-0.664-1.984-1-4.064-1-6.168
		C16,24.76,24.76,16,35.528,16h424.936C471.24,16,480,24.76,480,35.528C480,37.632,479.664,39.712,479,41.704z"/>
	<path style="fill:#fff;" d="M208,269.384v-8.552c0-36.232-11.136-70.968-32.192-100.456C168.48,150.128,156.592,144,144,144
		s-24.48,6.128-31.808,16.376C91.136,189.856,80,224.592,80,260.824v8.552c-4.296,4-8,8.72-10.736,14.2
		C65.816,290.472,64,298.184,64,305.888V384h16v20.448C70.48,410,64,420.208,64,432c0,17.648,14.352,32,32,32h96
		c17.648,0,32-14.352,32-32c0-11.792-6.48-22-16-27.552V384h16v-78.112c0-7.704-1.816-15.424-5.264-22.312
		C216,278.104,212.296,273.384,208,269.384z M125.208,169.672C129.536,163.616,136.56,160,144,160s14.464,3.616,18.792,9.672
		c18.824,26.36,28.864,57.344,29.152,89.704c-5.592-2.136-11.592-3.376-17.832-3.376h-60.216c-6.248,0-12.24,1.24-17.832,3.376
		C96.352,227.016,106.384,196.032,125.208,169.672z M192,448H96c-8.816,0-16-7.184-16-16c0-8.824,7.184-16,16-16h96
		c8.816,0,16,7.176,16,16C208,440.816,200.816,448,192,448z M192,400H96v-16h96V400z M208,368H80v-62.112
		c0-5.232,1.232-10.48,3.576-15.152C89.352,279.176,100.968,272,113.888,272h60.216c12.92,0,24.536,7.176,30.312,18.736
		c2.352,4.68,3.584,9.92,3.584,15.152V368z"/>
	<path style="fill:#fff;" d="M432,176c0-17.648-14.352-32-32-32h-96c-17.648,0-32,14.352-32,32c0,11.792,6.48,22,16,27.552V224
		h-16v78.112c0,7.704,1.816,15.424,5.264,22.312c2.736,5.472,6.44,10.192,10.736,14.192v8.552
		c0,36.232,11.136,70.968,32.192,100.456C327.52,457.872,339.408,464,352,464s24.48-6.128,31.808-16.376
		C404.864,418.144,416,383.408,416,347.168v-8.552c4.296-4,8-8.72,10.736-14.2c3.448-6.888,5.264-14.6,5.264-22.304V224h-16v-20.448
		C425.52,198,432,187.792,432,176z M304,160h96c8.816,0,16,7.176,16,16c0,8.816-7.184,16-16,16h-96c-8.816,0-16-7.184-16-16
		C288,167.176,295.184,160,304,160z M370.792,438.328C366.464,444.384,359.44,448,352,448s-14.464-3.616-18.792-9.672
		c-18.824-26.36-28.856-57.344-29.152-89.704c5.592,2.136,11.592,3.376,17.832,3.376h60.216c6.248,0,12.24-1.24,17.832-3.376
		C399.648,380.976,389.616,411.968,370.792,438.328z M416,302.112c0,5.232-1.232,10.48-3.576,15.16
		C406.648,328.816,395.032,336,382.112,336h-60.216c-12.92,0-24.536-7.184-30.312-18.736c-2.352-4.68-3.584-9.92-3.584-15.152V240
		h128V302.112z M400,224h-96v-16h96V224z"/>
</g>
<g>
</g>
<g>
</g>
<g>
</g>
<g>
</g>
<g>
</g>
<g>
</g>
<g>
</g>
<g>
</g>
<g>
</g>
<g>
</g>
<g>
</g>
<g>
</g>
<g>
</g>
<g>
</g>
<g>
</g>
</svg>
