<?xml version="1.0" encoding="iso-8859-1"?>
<!-- Generator: Adobe Illustrator 19.0.0, SVG Export Plug-In . SVG Version: 6.00 Build 0)  -->
<svg xmlns="http://www.w3.org/2000/svg" xmlns:xlink="http://www.w3.org/1999/xlink" version="1.1" id="Capa_1" x="0px" y="0px" viewBox="0 0 500.496 500.496" style="enable-background:new 0 0 500.496 500.496;" xml:space="preserve">
<path style="fill:#d22780;" d="M359.36,404c-23.904-26.896-37.112-61.632-37.112-97.616c0-5.424,0.296-10.84,0.896-16.224  l7.104-63.912l-32-8h-8v8c0,22.088-17.912,40-40,40c8.84,0,16,7.16,16,16s-7.16,16-16,16c-8.84,0-16-7.16-16-16s7.16-16,16-16  c-22.088,0-40-17.912-40-40v-8h-8l-32,8l7.104,63.912c0.6,5.384,0.896,10.808,0.896,16.224c0,35.984-13.208,70.72-37.112,97.616  l-26.888,30.248c0,0,48,56,136,56s136-56,136-56L359.36,404z"/>
<g>
	<rect x="274.248" y="138.248" style="fill:#fff;" width="16" height="16"/>
	<rect x="210.248" y="138.248" style="fill:#fff;" width="16" height="16"/>
	<rect x="242.248" y="186.248" style="fill:#fff;" width="16" height="16"/>
	<path style="fill:#fff;" d="M442.944,226.952c15.032-19.336,25.664-41.176,31.6-64.928l25.952-103.776h-24.488   c-42.68,0-83.376,16.144-114.328,44.8c-5.64-56.52-53.456-100.8-111.432-100.8s-105.792,44.28-111.432,100.8   c-30.944-28.656-71.64-44.8-114.328-44.8H0l25.952,103.776c5.936,23.752,16.568,45.6,31.6,64.928   c8.088,10.4,17.672,19.144,28.224,26.288c-31.056,16.336-51.528,48.936-51.528,85.008c0,44.752,30.072,82.288,72.032,92.92   l-2.648,2.984l4.544,5.304c2.056,2.4,51.432,58.792,142.072,58.792s140.016-56.392,142.072-58.792l4.544-5.304l-2.648-2.984   c41.96-10.632,72.032-48.168,72.032-92.92c0-36.072-20.472-68.672-51.536-85C425.272,246.096,434.856,237.352,442.944,226.952z    M154.248,114.248c0-52.936,43.064-96,96-96s96,43.064,96,96v56h16c13.232,0,24,10.768,24,24s-10.768,24-24,24H326.56   c-2.736-1.416-5.608-2.568-8.656-3.336l-6.184-1.544c11.552-13.872,18.528-31.696,18.528-51.12v-32c0-13.232-10.768-24-24-24h-112   c-13.232,0-24,10.768-24,24v32c0,19.424,6.976,37.248,18.528,51.12l-6.184,1.544c-3.04,0.76-5.92,1.92-8.656,3.336h-35.688   c-13.232,0-24-10.768-24-24s10.768-24,24-24h16V114.248z M335.208,254.056l46.096,92.192h16.944c6.616,0,12,5.384,12,12   s-5.384,12-12,12H375l-43.784-80.264L335.208,254.056z M258.248,282.248c0,4.408-3.584,8-8,8s-8-3.592-8-8s3.584-8,8-8   C254.664,274.248,258.248,277.84,258.248,282.248z M250.248,258.248c-14.128,0-26-9.256-30.232-21.976   c9.336,3.832,19.536,5.976,30.232,5.976c10.696,0,20.896-2.144,30.232-5.976C276.248,248.992,264.376,258.248,250.248,258.248z    M250.248,226.248c-35.288,0-64-28.712-64-64v-32c0-4.408,3.584-8,8-8h112c4.416,0,8,3.592,8,8v32   C314.248,197.536,285.536,226.248,250.248,226.248z M165.288,254.056l3.992,35.928l-43.784,80.264h-23.248c-6.616,0-12-5.384-12-12   s5.384-12,12-12h16.944L165.288,254.056z M70.176,217.136c-13.648-17.56-23.312-37.408-28.712-58.992L20.496,74.248h3.992   c43.568,0,84.84,18.608,113.76,51.08v28.92c-22.056,0-40,17.944-40,40s17.944,40,40,40h19.28c-0.312,0.552-0.736,1.016-1.024,1.584   l-10.96,21.92C115.832,255.368,88.704,240.952,70.176,217.136z M50.248,338.248c0-33.752,21.472-63.912,52.848-75.24   c10.952,5.032,22.632,8.44,34.792,10.056l-28.584,57.184h-7.056c-15.44,0-28,12.56-28,28s12.56,28,28,28H135l34.008-62.352   c-3.512,27.648-15.136,53.736-33.848,74.784l-16.568,18.632C79.352,411.648,50.248,378.448,50.248,338.248z M250.248,482.248   c-67.72,0-111.12-35.064-125.056-48.272l12.6-14.176c24.048,18.328,61.952,38.448,112.456,38.448   c29.168,0,57.144-6.72,83.136-19.984l-7.264-14.248c-23.728,12.096-49.256,18.232-75.872,18.232   c-45.496,0-79.824-17.92-101.856-34.504c24.384-28.176,37.856-64.056,37.856-101.36c0-5.72-0.32-11.48-0.944-17.112l-6.16-55.472   c2.24-1.48,4.664-2.696,7.328-3.368l15.792-3.952c0.096,19.088,11.4,35.528,27.648,43.168c-2.288,3.68-3.664,7.968-3.664,12.6   c0,13.232,10.768,24,24,24c13.232,0,24-10.768,24-24c0-4.632-1.376-8.92-3.656-12.584c16.24-7.64,27.544-24.08,27.648-43.168   l15.792,3.952c2.664,0.664,5.088,1.888,7.328,3.368l-6.16,55.464c-0.632,5.632-0.952,11.384-0.952,17.104   c0,37.28,13.456,73.128,37.8,101.296c-4.448,3.352-9,6.568-13.712,9.464l8.392,13.624c5.472-3.368,10.76-7.12,15.896-11.04   L375.312,434C361.448,447.208,318.24,482.248,250.248,482.248z M450.248,338.248c0,40.2-29.104,73.4-68.344,79.072l-16.568-18.632   c-18.712-21.048-30.336-47.136-33.848-74.784l34.008,62.344h32.752c15.44,0,28-12.56,28-28s-12.56-28-28-28h-7.056L362.6,273.064   c12.16-1.616,23.848-5.024,34.792-10.056C428.776,274.336,450.248,304.496,450.248,338.248z M354.952,257.752l-10.96-21.92   c-0.288-0.568-0.712-1.032-1.024-1.584h19.28c22.056,0,40-17.944,40-40s-17.944-40-40-40v-28.92   c28.92-32.472,70.184-51.08,113.76-51.08H480l-20.968,83.896c-5.4,21.584-15.064,41.432-28.712,58.992   C411.792,240.952,384.664,255.368,354.952,257.752z"/>
</g>
<g>
</g>
<g>
</g>
<g>
</g>
<g>
</g>
<g>
</g>
<g>
</g>
<g>
</g>
<g>
</g>
<g>
</g>
<g>
</g>
<g>
</g>
<g>
</g>
<g>
</g>
<g>
</g>
<g>
</g>
</svg>
