<?xml version="1.0" encoding="iso-8859-1"?>
<!-- Generator: Adobe Illustrator 19.0.0, SVG Export Plug-In . SVG Version: 6.00 Build 0)  -->
<svg xmlns="http://www.w3.org/2000/svg" xmlns:xlink="http://www.w3.org/1999/xlink" version="1.1" id="Capa_1" x="0px" y="0px" viewBox="0 0 499.376 499.376" style="enable-background:new 0 0 499.376 499.376;" xml:space="preserve">
<g>
	<path style="fill:#d22780;" d="M489.688,265.688c-25.248-40.392-30.488-90.16-14.208-134.928l6.208-17.072c-80,0-128,48-128,48   l-39.64-15.856c-6.984,13.952-18.416,25.216-32.36,32.192v15.664l39.76,9.936c14.248,3.56,24.24,16.36,24.24,31.048v103.016   c0,2.928-0.848,5.64-2.216,8h2.216l128,56c-19.76-44.456-13.912-96.12,15.272-135.032L489.688,265.688z"/>
	<path style="fill:#d22780;" d="M153.688,337.688V234.672c0-14.688,9.992-27.48,24.24-31.048l39.76-9.936v-15.664   c-13.944-6.976-25.376-18.24-32.36-32.192l-39.64,15.856c0,0-48-48-128-48l6.208,17.072c16.28,44.768,11.04,94.536-14.208,134.928   l0.728,0.968c29.184,38.912,35.032,90.576,15.272,135.032l128-56h2.216C154.536,343.328,153.688,340.616,153.688,337.688z"/>
	<path style="fill:#d22780;" d="M273.688,225.688c-9.048,0-17.296,3.12-24,8.184c-6.704-5.064-14.952-8.184-24-8.184   c-22.088,0-40,17.912-40,40v8c0,17.672,14.328,32,32,32s32-14.328,32-32c0,17.672,14.328,32,32,32s32-14.328,32-32v-8   C313.688,243.6,295.776,225.688,273.688,225.688z"/>
</g>
<g>
	<rect x="201.688" y="105.688" style="fill:#fff;" width="16" height="16"/>
	<rect x="281.688" y="105.688" style="fill:#fff;" width="16" height="16"/>
	<rect x="241.688" y="145.688" style="fill:#fff;" width="16" height="16"/>
	<path style="fill:#fff;" d="M499.376,266.104l-2.904-4.656c-24.112-38.568-29.016-85.2-13.472-127.952l10.112-27.808h-11.424   c-57.76,0-99.144,23.712-119.472,38.608c-0.304-2.184-0.528-4.392-0.528-6.608c0-8.264,13.736-14.792,18.528-16.416l17.936-6.016   l-16.84-8.704c-0.12-0.056-11.624-6.128-11.624-16.864c0-13.84,7.088-28.288,7.16-28.432l10.616-21.408l-57.776,28.896v-3.056   c0-35.288-28.712-64-64-64h-32c-35.288,0-64,28.712-64,64v3.056l-57.776-28.88l10.616,21.392c0.072,0.144,7.16,14.592,7.16,28.432   c0,10.736-11.504,16.808-11.576,16.84l-17.272,8.64l18.32,6.104c3.912,1.304,18.528,7.92,18.528,16.416   c0,2.216-0.224,4.424-0.528,6.608c-20.328-14.896-61.712-38.608-119.472-38.608H6.264l10.112,27.808   c15.544,42.752,10.64,89.384-13.472,127.952L0,266.104l4.016,5.352c27.424,36.56,32.928,85.216,14.36,126.984L10,417.28   l93.616-40.96c11.168,7.376,18.072,19.904,18.072,33.368v8h8c26.56,0,50.432,14.76,62.312,38.504l1.688,3.384v38.112h48h8h56   v-38.112l1.688-3.384c11.88-23.744,35.752-38.504,62.312-38.504h8v-8c0-13.464,6.904-25.992,18.072-33.36l93.616,40.96L481,398.448   c-18.56-41.768-13.056-90.424,14.36-126.984L499.376,266.104z M355.688,73.632c-1.16,4.968-2,10.488-2,16.056   c0,9.784,4.368,17.176,9.072,22.312c-8.088,5.016-17.072,13.36-17.072,25.688c0,5.568,0.84,11.088,2,16.056l-23.312-11.656   c3.384-8.84,5.312-18.392,5.312-28.4V86.632L355.688,73.632z M287.16,339.4l0.744,2.232l-38.216,19.112l-38.216-19.112l0.744-2.232   c2.784-8.36,4.496-16.992,5.152-25.744c0.112,0,0.208,0.032,0.32,0.032c13.128,0,24.704-6.448,32-16.248   c7.296,9.8,18.872,16.248,32,16.248c0.112,0,0.208-0.032,0.32-0.032C282.664,322.408,284.368,331.04,287.16,339.4z    M281.688,297.688c-13.232,0-24-10.768-24-24c0-4.416,3.592-8,8-8s8,3.584,8,8h16c0-13.232-10.768-24-24-24   c-6.168,0-11.744,2.408-16,6.24c-4.256-3.84-9.832-6.24-16-6.24c-13.232,0-24,10.768-24,24h16c0-4.416,3.592-8,8-8s8,3.584,8,8   c0,13.232-10.768,24-24,24s-24-10.768-24-24v-8c0-17.648,14.352-32,32-32c6.856,0,13.496,2.272,19.176,6.56l4.824,3.64l4.824-3.64   c5.68-4.288,12.32-6.56,19.176-6.56c17.648,0,32,14.352,32,32v8C305.688,286.92,294.92,297.688,281.688,297.688z M321.688,265.688   c0-26.472-21.528-48-48-48c-8.464,0-16.664,2.256-24,6.568c-7.336-4.312-15.536-6.568-24-6.568c-26.472,0-48,21.528-48,48v72   c0,4.416-3.592,8-8,8s-8-3.584-8-8V234.672c0-11.032,7.48-20.608,18.176-23.288l45.824-11.448V190   c7.584,2.384,15.64,3.688,24,3.688c8.36,0,16.416-1.304,24-3.688v9.936l45.824,11.448c10.696,2.68,18.176,12.256,18.176,23.288   v103.016c0,4.416-3.592,8-8,8s-8-3.584-8-8V265.688z M249.688,177.688c-35.288,0-64-28.712-64-64v-16h128v16   C313.688,148.976,284.976,177.688,249.688,177.688z M233.688,17.688h32c26.472,0,48,21.528,48,48v16h-16v-24h-16v24h-24v-24h-16v24   h-24v-24h-16v24h-16v-16C185.688,39.216,207.216,17.688,233.688,17.688z M136.616,112c4.704-5.136,9.072-12.528,9.072-22.312   c0-5.568-0.84-11.088-2-16.056l26,13v27.056c0,10.008,1.928,19.56,5.304,28.4l-23.312,11.656   c1.168-4.968,2.008-10.488,2.008-16.056C153.688,125.36,144.704,117.016,136.616,112z M19.288,265.256   c24.288-41.832,28.744-91.536,12.128-137.232l-2.176-5.984c52.104,3.216,88.64,27.376,103.44,39.032   c-1.184,3.048-2.128,4.992-2.152,5.048l-10.616,21.408L182.16,156.4c6.912,10.888,16.352,19.984,27.528,26.464v4.576l-33.704,8.432   c-8.544,2.136-15.8,6.96-21.104,13.376c-17.344-9.968-36.048-16.976-55.752-20.616l-2.904,15.736   c18.104,3.344,35.296,9.792,51.2,19.016c-1.064,3.608-1.736,7.376-1.736,11.288v18.312c-27.512-12.592-57.752-19.296-88-19.296v16   c30.168,0,60.368,7.136,87.36,20.624l0.64,0.32v35.504c-4.256-2.736-8.632-5.272-13.112-7.56l-7.28,14.248   c7.16,3.656,13.952,8.072,20.392,12.952v11.912c0,0.912,0.168,1.768,0.272,2.648L39.608,386.864   C51.584,345.64,44.32,300.768,19.288,265.256z M120.2,369.072l32.672-14.296c4.336,4.264,10.272,6.912,16.816,6.912   c13.232,0,24-10.768,24-24V305.48c2.424,1.84,5.008,3.464,7.816,4.712c-0.408,8.208-1.856,16.32-4.464,24.136l-5.136,15.408   l1.784,0.896v5.288l-4.576,1.528c-20.84,6.936-39.368,18.704-54.48,34.28C131.712,383.152,126.8,375.344,120.2,369.072z    M145.704,403.296c13.288-13.824,29.608-24.28,47.984-30.488v57.576C181.192,416.272,164.368,406.8,145.704,403.296z    M209.688,481.688V358.632l32,16v107.056H209.688z M257.688,481.688V374.632l32-16v123.056H257.688z M305.688,430.384V374.16   c16.512,7.768,31.776,17.608,45.584,29.504C333.552,407.504,317.656,416.864,305.688,430.384z M364.184,393.488   c-17.416-15.448-37.04-27.864-58.496-37.072v-5.784l1.784-0.896l-5.136-15.408c-2.608-7.816-4.064-15.928-4.464-24.136   c2.816-1.248,5.392-2.88,7.816-4.712v32.208c0,13.232,10.768,24,24,24c6.544,0,12.48-2.648,16.816-6.912l32.672,14.296   C372.128,375.768,367.008,384.216,364.184,393.488z M459.768,386.864l-106.352-46.528c0.104-0.88,0.272-1.736,0.272-2.648v-11.992   c19-14.376,41.384-23.656,65.048-26.808l-2.112-15.856c-22.504,2.992-43.96,10.984-62.944,23.176v-35.576l0.648-0.32   c5.872-2.944,11.992-5.624,18.184-7.976l-5.672-14.96c-4.448,1.688-8.832,3.584-13.16,5.576V234.68   c0-3.928-0.672-7.696-1.744-11.312c24.432-14.152,52.16-21.68,80.4-21.68h1.352v-16h-1.352c-30.856,0-61.136,8.176-87.864,23.536   c-5.296-6.408-12.544-11.216-21.08-13.352l-33.704-8.432v-4.576c11.176-6.488,20.616-15.576,27.528-26.464l62.248,31.112   l-10.616-21.392c-0.024-0.048-0.968-1.992-2.152-5.048c14.8-11.664,51.336-35.816,103.44-39.032l-2.176,5.984   c-16.616,45.696-12.16,95.4,12.128,137.232C455.056,300.768,447.792,345.64,459.768,386.864z"/>
	<polygon style="fill:#fff;" points="433.864,297.728 449.688,297.688 449.688,281.688 433.512,281.728  "/>
	<path style="fill:#fff;" d="M441.688,233.688c-19.864,0-39.608,2.8-58.688,8.312l4.448,15.376   c17.632-5.104,35.88-7.688,54.24-7.688V233.688z"/>
	<path style="fill:#fff;" d="M110.888,306.464l5.608-14.984c-17.336-6.496-35.52-9.792-54.032-9.792H49.688v16h12.776   C79.048,297.688,95.344,300.64,110.888,306.464z"/>
	<path style="fill:#fff;" d="M80.984,202.296l1.408-15.936c-5.04-0.448-10.208-0.672-15.352-0.672h-1.352v16h1.352   C71.72,201.688,76.408,201.888,80.984,202.296z"/>
</g>
<g>
</g>
<g>
</g>
<g>
</g>
<g>
</g>
<g>
</g>
<g>
</g>
<g>
</g>
<g>
</g>
<g>
</g>
<g>
</g>
<g>
</g>
<g>
</g>
<g>
</g>
<g>
</g>
<g>
</g>
</svg>
