<?xml version="1.0" encoding="iso-8859-1"?>
<!-- Generator: Adobe Illustrator 19.0.0, SVG Export Plug-In . SVG Version: 6.00 Build 0)  -->
<svg xmlns="http://www.w3.org/2000/svg" xmlns:xlink="http://www.w3.org/1999/xlink" version="1.1" id="Capa_1" x="0px" y="0px" viewBox="0 0 496 496" style="enable-background:new 0 0 496 496;" xml:space="preserve">
<g>
	<path style="fill:#d22780;" d="M432,112L432,112c-8.84,0-16-7.16-16-16l0,0c0-5.216,1.544-10.32,4.44-14.656L432,64l11.56,17.344   C446.456,85.68,448,90.784,448,96l0,0C448,104.84,440.84,112,432,112z"/>
	<path style="fill:#d22780;" d="M48,208L48,208c-8.84,0-16-7.16-16-16l0,0c0-5.216,1.544-10.32,4.44-14.656L48,160l11.56,17.344   C62.456,181.68,64,186.784,64,192l0,0C64,200.84,56.84,208,48,208z"/>
	<path style="fill:#d22780;" d="M216,384L216,384c-8.84,0-16-7.16-16-16l0,0c0-5.216,1.544-10.32,4.44-14.656L216,336l11.56,17.344   c2.896,4.336,4.44,9.44,4.44,14.656l0,0C232,376.84,224.84,384,216,384z"/>
	<path style="fill:#d22780;" d="M352,280L352,280c-8.84,0-16-7.16-16-16l0,0c0-5.216,1.544-10.32,4.44-14.656L352,232l11.56,17.344   c2.896,4.336,4.44,9.44,4.44,14.656l0,0C368,272.84,360.84,280,352,280z"/>
	<path style="fill:#d22780;" d="M152,456L152,456c-8.84,0-16-7.16-16-16l0,0c0-5.216,1.544-10.32,4.44-14.656L152,408l11.56,17.344   c2.896,4.336,4.44,9.44,4.44,14.656l0,0C168,448.84,160.84,456,152,456z"/>
	<path style="fill:#d22780;" d="M320,416L320,416c-8.84,0-16-7.16-16-16l0,0c0-5.216,1.544-10.32,4.44-14.656L320,368l11.56,17.344   c2.896,4.336,4.44,9.44,4.44,14.656l0,0C336,408.84,328.84,416,320,416z"/>
	<path style="fill:#d22780;" d="M152,272L152,272c-8.84,0-16-7.16-16-16l0,0c0-5.216,1.544-10.32,4.44-14.656L152,224l11.56,17.344   c2.896,4.336,4.44,9.44,4.44,14.656l0,0C168,264.84,160.84,272,152,272z"/>
	<path style="fill:#d22780;" d="M440,240c-13.232,0-24-10.768-24-24s10.768-24,24-24s24,10.768,24,24S453.232,240,440,240z"/>
	<path style="fill:#d22780;" d="M48,312c-13.232,0-24-10.768-24-24s10.768-24,24-24s24,10.768,24,24S61.232,312,48,312z"/>
	<path style="fill:#d22780;" d="M88,80c-13.232,0-24-10.768-24-24s10.768-24,24-24s24,10.768,24,24S101.232,80,88,80z"/>
</g>
<g>
	<path style="fill:#fff;" d="M435.136,360.72C401.68,291.016,384,213.312,384,136C384,61.008,322.992,0,248,0S112,61.008,112,136   c0,77.312-17.68,155.016-51.136,224.72L11.288,464h34.336c15.872,0,31.536,4.16,45.32,12.032C113.8,489.096,139.792,496,166.12,496   c23.4,0,46.832-5.528,67.768-16l17.208-8.608c4.064-1.416,7.808-3.392,11.16-5.832l1.944,1.944   C282.568,485.88,306.992,496,332.976,496c19.272,0,37.928-5.648,53.952-16.336C402.296,469.416,420.184,464,438.664,464h46.048   L435.136,360.72z M248,216c-39.696,0-72-32.304-72-72v-40h8c24.224,0,47.504-10.176,64-27.616C264.504,93.824,287.776,104,312,104   h8v40C320,183.696,287.696,216,248,216z M248,232c8.192,0,16.088-1.208,23.608-3.312c-0.8,23.96-3.832,47.768-9.032,70.912   c-0.928-2.808-1.72-5.632-2.728-8.416L238.112,231.4C241.368,231.776,244.656,232,248,232z M378.048,466.352   C364.664,475.28,349.072,480,332.976,480c-21.704,0-42.112-8.456-57.464-23.8l-2.28-2.288c4.32-6.76,6.768-14.76,6.768-23.208   V407.52c0-26.312-3.144-52.472-9.056-78.072l5.176-16.936c7.368-29.472,11.192-59.76,11.68-90.128   C316.36,207.816,336,178.192,336,144V88h-24c-22.544,0-44.08-10.768-57.608-28.8L248,50.664l-6.4,8.536   C228.072,77.232,206.536,88,184,88h-24v56c0,38.56,24.968,71.328,59.552,83.192l25.264,69.464c2.384,6.56,4.544,13.24,6.44,19.856   c8.456,29.6,12.744,60.224,12.744,91.008v23.184c0,11.68-7.448,22.008-18.528,25.704l-18.744,9.28   c-39.768,19.888-89.224,18.52-127.848-3.544C82.68,452.888,64.264,448,45.616,448h-8.904l38.568-80.352   C109.776,295.8,128,215.696,128,136c0-66.168,53.832-120,120-120s120,53.832,120,120c0,79.696,18.224,159.8,52.712,231.648   L459.288,448h-20.624C417.016,448,396.056,454.344,378.048,466.352z"/>
	<rect x="192" y="128" style="fill:#fff;" width="16" height="16"/>
	<rect x="288" y="128" style="fill:#fff;" width="16" height="16"/>
	<rect x="240" y="184" style="fill:#fff;" width="16" height="16"/>
	<rect x="192" y="272" style="fill:#fff;" width="16" height="16"/>
	<rect x="120" y="312" style="fill:#fff;" width="16" height="16"/>
	<rect x="216" y="416" style="fill:#fff;" width="16" height="16"/>
	<rect x="72" y="408" style="fill:#fff;" width="16" height="16"/>
	<rect x="408" y="416" style="fill:#fff;" width="16" height="16"/>
	<rect x="344" y="440" style="fill:#fff;" width="16" height="16"/>
	<rect x="344" y="320" style="fill:#fff;" width="16" height="16"/>
	<rect x="296" y="280" style="fill:#fff;" width="16" height="16"/>
	<rect x="336" y="184" style="fill:#fff;" width="16" height="16"/>
	<rect x="136" y="144" style="fill:#fff;" width="16" height="16"/>
	<rect x="288" y="48" style="fill:#fff;" width="16" height="16"/>
	<rect x="192" y="48" style="fill:#fff;" width="16" height="16"/>
</g>
<g>
</g>
<g>
</g>
<g>
</g>
<g>
</g>
<g>
</g>
<g>
</g>
<g>
</g>
<g>
</g>
<g>
</g>
<g>
</g>
<g>
</g>
<g>
</g>
<g>
</g>
<g>
</g>
<g>
</g>
</svg>
