<?xml version="1.0" encoding="iso-8859-1"?>
<!-- Generator: Adobe Illustrator 19.0.0, SVG Export Plug-In . SVG Version: 6.00 Build 0)  -->
<svg version="1.1" id="Capa_1" xmlns="http://www.w3.org/2000/svg" xmlns:xlink="http://www.w3.org/1999/xlink" x="0px" y="0px"
	 viewBox="0 0 496 496" style="enable-background:new 0 0 496 496;" xml:space="preserve">
<g>
	<path style="fill:#d22780;" d="M185.632,56H22.36C14.432,56,8,62.432,8,70.36c0,1.088,0.12,2.168,0.368,3.232L13.536,96h180.92
		l5.168-22.408C199.88,72.536,200,71.448,200,70.36C200,62.432,193.568,56,185.632,56z"/>
	<path style="fill:#d22780;" d="M376,488h-16c-17.672,0-32-14.328-32-32V296h80v160C408,473.672,393.672,488,376,488z"/>
	<path style="fill:#d22780;" d="M104,320L104,320c-8.84,0-16-7.16-16-16v-64c0-8.84,7.16-16,16-16l0,0c8.84,0,16,7.16,16,16v64
		C120,312.84,112.84,320,104,320z"/>
</g>
<g>
	<path style="fill:#fff;" d="M496,128C496,57.424,438.576,0,368,0S240,57.424,240,128c0,59.512,40.888,109.52,96,123.784V288h-16
		v168c0,22.056,17.944,40,40,40h16c22.056,0,40-17.944,40-40V288h-16v-36.216C455.112,237.52,496,187.512,496,128z M256,128
		c0-61.76,50.24-112,112-112s112,50.24,112,112s-50.24,112-112,112S256,189.76,256,128z M376,480h-16c-13.232,0-24-10.768-24-24V336
		h64v120C400,469.232,389.232,480,376,480z M400,320h-64v-16h16h32h16V320z M384,288h-32v-33.112c5.256,0.664,10.568,1.112,16,1.112
		s10.744-0.448,16-1.112V288z"/>
	<path style="fill:#fff;" d="M464,128c0-52.936-43.064-96-96-96s-96,43.064-96,96s43.064,96,96,96S464,180.936,464,128z M288,128
		c0-44.112,35.888-80,80-80s80,35.888,80,80s-35.888,80-80,80S288,172.112,288,128z"/>
	<path style="fill:#fff;" d="M185.632,48H159.36C155.456,20.912,132.152,0,104,0S52.544,20.912,48.64,48H22.368
		C10.032,48,0,58.032,0,70.368c0,1.672,0.184,3.352,0.568,5.024l15.048,65.2c4.128,17.88,16.432,31.816,32.384,38.68V456
		c0,22.056,17.944,40,40,40h32c22.056,0,40-17.944,40-40V179.272c15.952-6.864,28.256-20.808,32.384-38.68l15.048-65.216
		C207.816,73.72,208,72.04,208,70.368C208,58.032,197.968,48,185.632,48z M104,16c19.312,0,35.472,13.768,39.192,32H64.808
		C68.528,29.768,84.688,16,104,16z M120,480H88c-13.232,0-24-10.768-24-24v-24h16v32h48v-32h16v24C144,469.232,133.232,480,120,480z
		 M96,432h16v16H96V432z M144,416H64V183.472c2.048,0.232,4.08,0.528,6.184,0.528H96v33.472c-9.288,3.312-16,12.112-16,22.528v64
		c0,10.416,6.712,19.216,16,22.528V360h16v-33.472c9.288-3.312,16-12.112,16-22.528v-64c0-10.416-6.712-19.216-16-22.528V184h25.816
		c2.104,0,4.136-0.296,6.184-0.528V416z M104,312c-4.416,0-8-3.584-8-8v-24h16v24C112,308.416,108.416,312,104,312z M96,264v-24
		c0-4.416,3.584-8,8-8s8,3.584,8,8v24H96z M176.792,137c-4.216,18.248-20.24,31-38.976,31H70.184c-18.744,0-34.768-12.752-38.976-31
		l-9.464-41H152V80H18.056l-1.888-8.184C16.056,71.328,16,70.84,16,70.368C16,66.856,18.856,64,22.368,64h163.264
		c3.512,0,6.368,2.856,6.368,6.368c0,0.48-0.056,0.96-0.168,1.432l-1.888,8.2H168v16h18.248L176.792,137z"/>
	<path style="fill:#fff;" d="M368,64c-22.104,0-42.352,11.168-54.168,29.88l13.528,8.544C336.232,88.384,351.424,80,368,80V64z"
		/>
	<path style="fill:#fff;" d="M304,128h16c0-4.664,0.664-9.264,1.976-13.68l-15.344-4.544C304.88,115.664,304,121.8,304,128z"/>
</g>
<g>
</g>
<g>
</g>
<g>
</g>
<g>
</g>
<g>
</g>
<g>
</g>
<g>
</g>
<g>
</g>
<g>
</g>
<g>
</g>
<g>
</g>
<g>
</g>
<g>
</g>
<g>
</g>
<g>
</g>
</svg>
