<?xml version="1.0" encoding="iso-8859-1"?>
<!-- Generator: Adobe Illustrator 19.0.0, SVG Export Plug-In . SVG Version: 6.00 Build 0)  -->
<svg xmlns="http://www.w3.org/2000/svg" xmlns:xlink="http://www.w3.org/1999/xlink" version="1.1" id="Capa_1" x="0px" y="0px" viewBox="0 0 496 496" style="enable-background:new 0 0 496 496;" xml:space="preserve">
<g>
	<circle style="fill:#d22780;" cx="424" cy="88" r="40"/>
	<circle style="fill:#d22780;" cx="72" cy="176" r="40"/>
</g>
<g>
	<path style="fill:#fff;" d="M360,208c0-30.88-25.128-56-56-56h-16.888C297.52,141.824,304,127.664,304,112V75.312l16-16V24   h-26.688C286.848,9.896,269.272,0,248,0s-38.848,9.896-45.312,24H176v35.312l16,16V112c0,15.664,6.48,29.824,16.888,40H192   c-30.872,0-56,25.12-56,56v56h-16v16h16v44c0,15.44,12.56,28,28,28c4.312,0,8.352-1.064,12-2.808V496h144V349.192   c3.648,1.744,7.688,2.808,12,2.808c15.44,0,28-12.56,28-28v-44h16v-16h-16V208z M248,16c10.176,0,19.336,3.2,25.24,8h-50.488   C228.664,19.2,237.824,16,248,16z M192,40h112v12.688L292.688,64h-89.376L192,52.688V40z M208,112V80h80v32   c0,22.056-17.944,40-40,40S208,134.056,208,112z M248,168c4.008,0,7.904-0.44,11.68-1.248L248,190.112l-11.68-23.36   C240.096,167.56,243.992,168,248,168z M152,208c0-22.056,17.944-40,40-40h27.056L240,209.888V248h16v-38.112L276.944,168H304   c22.056,0,40,17.944,40,40v56h-24v-56h-16v104v12v124H192V324v-12V208h-16v56h-24V208z M164,336c-6.616,0-12-5.384-12-12v-44h24v32   v12C176,330.616,170.616,336,164,336z M192,464h48v16h-48V464z M256,480v-16h48v16H256z M344,324c0,6.616-5.384,12-12,12   s-12-5.384-12-12v-12v-32h24V324z"/>
	<rect x="240" y="264" style="fill:#fff;" width="16" height="16"/>
	<path style="fill:#fff;" d="M455.288,63.072C447.648,53.496,436.24,48,424,48v16c7.344,0,14.192,3.304,18.784,9.048   c4.656,5.84,6.272,13.192,4.56,20.704c-1.96,8.56-9.024,15.632-17.584,17.584c-7.504,1.736-14.856,0.096-20.704-4.56   C403.296,102.192,400,95.344,400,88V56c0-13.232,10.768-24,24-24h8V0h-16v16.808C397.768,20.52,384,36.68,384,56v32   c0,12.24,5.496,23.648,15.08,31.288c7.152,5.704,15.912,8.704,24.968,8.704c3.072,0,6.176-0.344,9.272-1.048   c14.648-3.344,26.272-14.976,29.616-29.624C465.72,85.144,462.928,72.664,455.288,63.072z"/>
	<rect x="416" y="80" style="fill:#fff;" width="16" height="16"/>
	<path style="fill:#fff;" d="M72,136v16c7.344,0,14.192,3.304,18.784,9.048c4.656,5.84,6.272,13.192,4.56,20.704   c-1.96,8.56-9.024,15.632-17.584,17.584c-7.512,1.736-14.856,0.096-20.704-4.56C51.296,190.192,48,183.344,48,176v-32   c0-13.232,10.768-24,24-24h8V88H64v16.808C45.768,108.52,32,124.68,32,144v32c0,12.24,5.496,23.648,15.08,31.288   c7.152,5.704,15.912,8.704,24.968,8.704c3.072,0,6.176-0.344,9.272-1.048c14.648-3.344,26.272-14.976,29.616-29.624   c2.784-12.176-0.008-24.664-7.648-34.248C95.648,141.496,84.24,136,72,136z"/>
	<rect x="64" y="168" style="fill:#fff;" width="16" height="16"/>
</g>
<rect x="232" y="64" style="fill:#d22780;" width="32" height="72"/>
<g>
</g>
<g>
</g>
<g>
</g>
<g>
</g>
<g>
</g>
<g>
</g>
<g>
</g>
<g>
</g>
<g>
</g>
<g>
</g>
<g>
</g>
<g>
</g>
<g>
</g>
<g>
</g>
<g>
</g>
</svg>
