<?xml version="1.0" encoding="iso-8859-1"?>
<!-- Generator: Adobe Illustrator 19.0.0, SVG Export Plug-In . SVG Version: 6.00 Build 0)  -->
<svg xmlns="http://www.w3.org/2000/svg" xmlns:xlink="http://www.w3.org/1999/xlink" version="1.1" id="Capa_1" x="0px" y="0px" viewBox="0 0 496.136 496.136" style="enable-background:new 0 0 496.136 496.136;" xml:space="preserve">
<g>
	<rect x="192.068" y="328" style="fill:#d22780;" width="32" height="32"/>
	<rect x="64.068" y="328" style="fill:#d22780;" width="32" height="32"/>
	<path style="fill:#d22780;" d="M160.068,0h-32c-57.344,0-104,46.656-104,104l40,16l80-40l72,40l48-16   C264.068,46.656,217.412,0,160.068,0z"/>
</g>
<g>
	<path style="fill:#fff;" d="M440.068,336c-7.72,0-15.232,1.664-22.208,4.688c-2.12-4.472-4.72-8.672-7.776-12.496   c5.888-9.008,5.984-18.8,5.984-26.96c0-14.832-2.064-29.576-6.136-43.832l-6.128-21.424c-2.48-8.68-3.736-17.664-3.736-26.704   c0-28.928,12.752-56.144,34.976-74.664l6.224-5.192c4.32-3.6,6.8-8.888,6.8-14.512c0-10.424-8.48-18.904-18.896-18.904h-2.208   c-3.28,0-6.52,0.856-9.376,2.496l-5.288,3.024c-32.64,18.648-58.304,48.144-72.272,83.056c-7.936,19.84-11.96,40.728-11.96,62.08   V308c0,1.664-0.16,3.312-0.44,4.928c-9.32,5.512-17.112,13.304-22.624,22.624c-1.624,0.288-3.272,0.448-4.936,0.448   c-15.44,0-28-12.56-28-28v-3.944c0-27.08-19.336-50.248-45.984-55.096l-42.016-7.632v-3.04   c21.504-11.032,37.864-30.624,44.592-54.288h2.44c13.088,0,25.384-5.096,34.624-14.344c9.248-9.256,14.344-21.552,14.344-34.624V96   h-25.376c-13.408,0-26.128,4.248-36.752,11.992l-60.76-30.376c15.6-5.464,26.888-20.176,26.888-37.616c0-22.056-17.944-40-40-40   s-40,17.944-40,40c0,17.44,11.288,32.152,26.888,37.608L65.38,110.4C54.18,101.088,40.204,96,25.444,96H0.068v39.032   c0,13.072,5.096,25.368,14.344,34.624C23.652,178.904,35.948,184,49.036,184h10.44c6.728,23.656,23.08,43.256,44.592,54.288v3.04   l-42.016,7.632c-26.648,4.848-45.984,28.024-45.984,55.096V336c0,22.056,17.944,40,40,40h16.056   c0.648,18.312,6.424,35.848,16.984,50.968l1.96,2.816c29.016,41.592,76.528,66.36,127.216,66.352c0.248,0,0.496,0,0.744,0   l1.984-0.008c30.52-0.152,60.664-9.16,86.368-25.52c-2.112,5.4-3.312,11.256-3.312,17.392v8h112v-8   c0-16.336-8.216-30.768-20.712-39.44c5.52-2.416,10.752-5.368,15.624-8.832c8.768,5.352,18.744,8.272,29.088,8.272   c30.872,0,56-25.12,56-56S470.94,336,440.068,336z M445.964,386.696c1.272,1.424,2.104,3.256,2.104,5.304   c0,3.688-2.568,6.672-5.976,7.592C443.684,395.44,444.996,391.144,445.964,386.696z M360.068,440   c-15.984,0-31.128-5.136-43.776-14.848c-29.608-22.744-65.048-38.592-105.48-47.184c1.416-1.224,3.248-1.968,5.256-1.968h16   h199.528C427.572,412.496,396.844,440,360.068,440z M354.884,190.512c12.624-31.568,35.832-58.24,65.352-75.104l5.288-3.024   c0.432-0.248,0.936-0.384,1.432-0.384h2.208c1.6,0,2.896,1.296,2.896,2.896c0,0.864-0.384,1.672-1.048,2.224l-6.216,5.192   c-25.888,21.568-40.728,53.264-40.728,86.96c0,10.528,1.472,20.992,4.352,31.096l6.128,21.424c3.664,12.832,5.52,26.096,5.52,39.44   c0,5.744-0.048,10.928-1.92,15.456c-5.192-3.864-10.96-6.952-17.184-9.112c1.92-3.448,3.104-7.36,3.104-11.576   c0-13.232-10.768-24-24-24c-6.168,0-11.744,2.408-16,6.24v-31.592C344.068,227.344,347.708,208.456,354.884,190.512z M352.068,296   c0-4.408,3.584-8,8-8s8,3.592,8,8s-3.584,8-8,8S352.068,300.408,352.068,296z M360.068,320c23.736,0,43.448,17.336,47.28,40h-94.56   C316.62,337.336,336.332,320,360.068,320z M298.196,351.904c-0.688,2.64-1.232,5.336-1.576,8.096h-32.76   c4.032-5.328,6.704-11.656,7.656-18.584C278.764,347.616,288.044,351.472,298.196,351.904z M264.068,112v23.032   c0,8.672-3.52,17.168-9.656,23.312c-6.088,6.088-14.152,9.456-22.744,9.6c0.232-2.624,0.4-5.264,0.4-7.944v-42.128   c6.848-3.816,14.576-5.872,22.624-5.872H264.068z M120.068,40c0-13.232,10.768-24,24-24s24,10.768,24,24s-10.768,24-24,24   S120.068,53.232,120.068,40z M49.036,168c-8.816,0-17.088-3.432-23.312-9.656c-6.136-6.144-9.656-14.64-9.656-23.312V112h9.376   c11.392,0,22.128,4.104,30.624,11.528V160c0,2.704,0.168,5.36,0.408,8H49.036z M72.068,160v-35.056l72-36l72,36V160   c0,39.696-32.296,72-72,72S72.068,199.696,72.068,160z M144.068,248c8.328,0,16.36-1.24,24-3.408v1.056   c-2.208,3.024-9.048,10.352-24,10.352c-15.016,0-21.856-7.392-24-10.336v-1.072C127.708,246.76,135.74,248,144.068,248z    M32.068,336v-31.944c0-19.336,13.816-35.896,32.84-39.352l43.584-7.92c5.088,6.056,16,15.216,35.576,15.216   s30.488-9.16,35.568-15.224l43.584,7.92c19.032,3.472,32.848,20.024,32.848,39.36V336c0,13.232-10.768,24-24,24h-16h-24v-32h16v16   h16v-16h16v-16h-72c-9.608,0-18.128,4.336-24,11.056c-5.872-6.72-14.392-11.056-24-11.056h-72v16h16v16h16v-16h16v32h-40   C42.836,360,32.068,349.232,32.068,336z M168.068,360c-8.824,0-16-7.176-16-16s7.176-16,16-16h8v32H168.068z M120.068,328   c8.824,0,16,7.176,16,16s-7.176,16-16,16h-8v-32H120.068z M220.94,480.136l-1.984,0.008c-0.216,0-0.448,0-0.664,0   c-45.464,0-88.08-22.208-114.104-59.504l-1.96-2.816c-8.672-12.424-13.48-26.8-14.112-41.816h31.952   c9.608,0,18.128-4.336,24-11.056c5.872,6.712,14.392,11.048,24,11.048h25.472c-0.896,2.512-1.472,5.184-1.472,8v6.672l6.568,1.192   c41.784,7.6,78.088,23.064,107.904,45.968c3.152,2.416,6.456,4.544,9.84,6.488l-6.832,5.28   C284.292,469.136,252.82,479.976,220.94,480.136z M368.068,456c14.88,0,27.432,10.216,30.984,24h-77.968   c3.552-13.784,16.104-24,30.984-24H368.068z M440.068,432c-5.624,0-11.104-1.216-16.16-3.464c3.856-4.08,7.344-8.52,10.376-13.296   c1.888,0.472,3.824,0.76,5.784,0.76c13.232,0,24-10.768,24-24c0-10.44-6.744-19.256-16.072-22.552L448.54,360h-25.024   c-0.176-1.384-0.368-2.76-0.632-4.112c5.336-2.544,11.184-3.888,17.184-3.888c22.056,0,40,17.944,40,40S462.124,432,440.068,432z"/>
	<rect x="136.068" y="32" style="fill:#fff;" width="16" height="16"/>
	<rect x="176.068" y="136" style="fill:#fff;" width="16" height="16"/>
	<rect x="96.068" y="136" style="fill:#fff;" width="16" height="16"/>
	<path style="fill:#fff;" d="M183.652,178.528l-15.168-5.104c-0.248,0.76-6.624,18.576-24.416,18.576   s-24.168-17.816-24.424-18.576l-15.168,5.104c0.408,1.208,10.16,29.472,39.592,29.472S183.252,179.736,183.652,178.528z"/>
</g>
<g>
</g>
<g>
</g>
<g>
</g>
<g>
</g>
<g>
</g>
<g>
</g>
<g>
</g>
<g>
</g>
<g>
</g>
<g>
</g>
<g>
</g>
<g>
</g>
<g>
</g>
<g>
</g>
<g>
</g>
</svg>
