<?xml version="1.0" encoding="iso-8859-1"?>
<!-- Generator: Adobe Illustrator 19.0.0, SVG Export Plug-In . SVG Version: 6.00 Build 0)  -->
<svg version="1.1" id="Layer_1" xmlns="http://www.w3.org/2000/svg" xmlns:xlink="http://www.w3.org/1999/xlink" x="0px" y="0px"
	 viewBox="0 0 290.626 290.626" style="enable-background:new 0 0 290.626 290.626;" xml:space="preserve">
<g>
	<g>
		<path style="fill:#d22780;" d="M250.008,130.66c-2.653-0.942-4.725-3.014-5.667-5.667l-1.106-3.117h-45.844l-1.106,3.117
			c-0.942,2.653-3.014,4.725-5.667,5.667l-3.117,1.106v130.219l3.117,1.106c2.653,0.942,4.725,3.014,5.667,5.667l1.106,3.117h45.839
			l1.106-3.117c0.942-2.653,3.014-4.725,5.667-5.667l3.122-1.106V131.767L250.008,130.66z M220.313,225.001
			c-15.534,0-28.125-12.591-28.125-28.125s12.591-28.125,28.125-28.125s28.125,12.591,28.125,28.125
			S235.847,225.001,220.313,225.001z"/>
		<rect x="126.563" y="18.751" style="fill:#fff;" width="79.688" height="9.375"/>
		<rect x="145.313" y="37.501" style="fill:#fff;" width="60.938" height="9.375"/>
		<path style="fill:#fff;" d="M131.25,187.501H18.75v42.188h112.5V187.501z M121.875,220.314h-93.75v-23.438h93.75V220.314z"/>
		<path style="fill:#fff;" d="M290.625,84.376H225V0.001H0v290.625h168.75h4.688h98.438v-18.75h18.75v-187.5H290.625z
			 M9.375,281.25V9.376h206.25v75h-9.375v-18.75H18.75v103.125h150v75h-150v9.375h150v9.375h-28.125v9.375h28.125v9.375H9.375z
			 M168.75,103.126v56.25h-14.063V93.751H187.5v9.375H168.75z M145.313,75.001v9.375H131.25v-9.375H145.313z M121.875,84.376h-93.75
			v-9.375h93.75V84.376z M28.125,93.751h93.75v65.625h-93.75V93.751z M131.25,93.751h14.063v65.625H131.25V93.751z M187.5,84.376
			h-32.813v-9.375h42.188v9.375h-4.688H187.5z M262.5,281.25h-84.375v-168.75H262.5V281.25z M281.25,262.5h-9.375V103.126h-75
			v-9.375h84.375V262.5z"/>
		<path style="fill:#fff;" d="M220.313,229.689c18.094,0,32.813-14.719,32.813-32.813s-14.719-32.813-32.813-32.813
			S187.5,178.782,187.5,196.876S202.219,229.689,220.313,229.689z M220.313,173.439c12.923,0,23.438,10.514,23.438,23.438
			s-10.514,23.438-23.438,23.438s-23.438-10.514-23.438-23.438S207.389,173.439,220.313,173.439z"/>
	</g>
</g>
<g>
</g>
<g>
</g>
<g>
</g>
<g>
</g>
<g>
</g>
<g>
</g>
<g>
</g>
<g>
</g>
<g>
</g>
<g>
</g>
<g>
</g>
<g>
</g>
<g>
</g>
<g>
</g>
<g>
</g>
</svg>
