<?xml version="1.0" encoding="iso-8859-1"?>
<!-- Generator: Adobe Illustrator 19.0.0, SVG Export Plug-In . SVG Version: 6.00 Build 0)  -->
<svg version="1.1" id="Capa_1" xmlns="http://www.w3.org/2000/svg" xmlns:xlink="http://www.w3.org/1999/xlink" x="0px" y="0px"
	 viewBox="0 0 496 496" style="enable-background:new 0 0 496 496;" xml:space="preserve">
<path style="fill:#d22780;" d="M395.24,160H100.76l19.696-108.288C122.52,40.288,132.456,32,144.064,32h207.872
	c11.608,0,21.536,8.288,23.616,19.712L395.24,160z"/>
<path style="fill:#fff;" d="M408,276.704C431.992,263.2,459.064,256,486.648,256H496v-40h-40v-16c0-13.232-10.768-24-24-24h-1.328l-1.456-8H448
	c13.232,0,24-10.768,24-24v-24c0-13.232-10.768-24-24-24h-31.872l-9.096-50.016C402.192,19.336,379.024,0,351.936,0H144.064
	c-27.088,0-50.256,19.336-55.096,45.984L79.872,96H48c-13.232,0-24,10.768-24,24v24c0,13.232,10.768,24,24,24h18.784l-1.456,8H64
	c-13.232,0-24,10.768-24,24v16H0v40h9.352c27.584,0,54.656,7.2,78.648,20.704V320h-9.472c-3.312-9.288-12.112-16-22.528-16H24
	c-13.232,0-24,10.768-24,24v144c0,13.232,10.768,24,24,24h32c13.232,0,24-10.768,24-24v-40h336v40c0,13.232,10.768,24,24,24h32
	c13.232,0,24-10.768,24-24V328c0-13.232-10.768-24-24-24h-32c-10.416,0-19.216,6.712-22.528,16H408V276.704z M350.944,360l-8-56
	h-189.88l-8,56H128c-2.176,0-4.248-0.384-6.248-0.928l11.736-64.496c0.688-3.808,4-6.568,7.864-6.568h213.296
	c3.864,0,7.176,2.768,7.872,6.568l11.728,64.496c-2,0.544-4.072,0.928-6.248,0.928H350.944z M388.536,348.232l-10.28-56.52
	c-2.072-11.424-12-19.712-23.608-19.712H304v-32h-16v32h-16v-32h-16v32h-16v-32h-16v32h-16v-32h-16v32h-50.648
	c-11.608,0-21.536,8.288-23.608,19.712l-10.28,56.52C105.312,344.64,104,340.488,104,336v-80c0-17.648,14.352-32,32-32h224
	c17.648,0,32,14.352,32,32v80C392,340.488,390.688,344.64,388.536,348.232z M480,240.128c-25.064,0.944-49.6,7.288-72,18.448V256
	c0-8.744-2.392-16.928-6.496-24H480V240.128z M448,112c4.416,0,8,3.592,8,8v24c0,4.408-3.584,8-8,8h-21.688l-7.272-40H448z M48,152
	c-4.416,0-8-3.592-8-8v-24c0-4.408,3.584-8,8-8h28.968l-7.272,40H48z M56,200c0-4.408,3.584-8,8-8h48v-16H81.584l23.12-127.16
	C108.168,29.816,124.72,16,144.064,16h207.872c19.344,0,35.896,13.816,39.36,32.84L414.416,176H384v16h48c4.416,0,8,3.592,8,8v16
	h-53.52c-7.6-5.048-16.696-8-26.48-8H136c-9.784,0-18.88,2.952-26.48,8H56V200z M16,240.128V232h78.496
	C90.392,239.072,88,247.256,88,256v2.576C65.6,247.408,41.064,241.072,16,240.128z M56,480H24c-4.416,0-8-3.584-8-8h16v-16H16v-16
	h16v-16H16v-16h16v-16H16v-16h16v-16H16v-16h16v-16H16c0-4.416,3.584-8,8-8h32c4.416,0,8,3.584,8,8H48v16h16v16H48v16h16v16H48v16
	h16v16H48v16h16v16H48v16h16C64,476.416,60.416,480,56,480z M80,416v-16h336v16H80z M440,320h32c4.416,0,8,3.584,8,8h-16v16h16v16
	h-16v16h16v16h-16v16h16v16h-16v16h16v16h-16v16h16c0,4.416-3.584,8-8,8h-32c-4.416,0-8-3.584-8-8h16v-16h-16v-16h16v-16h-16v-16h16
	v-16h-16v-16h16v-16h-16v-16h16v-16h-16C432,323.584,435.584,320,440,320z M416,336v48H80v-48h8c0,22.056,17.944,40,40,40h56v-16
	h-22.776l5.712-40h162.128l5.712,40H312v16h56c22.056,0,40-17.944,40-40H416z"/>
<rect style="fill:#fff;" x="128" y="176" width="240" height="16"/>
<rect style="fill:#fff;" x="144" y="112" width="112" height="16"/>
<rect style="fill:#fff;" x="272" y="112" width="16" height="16"/>
<g>
	<rect x="176" y="336" style="fill:#d22780;" width="144" height="48"/>
	<path style="fill:#d22780;" d="M136,288c-22.056,0-40-17.944-40-40s17.944-40,40-40s40,17.944,40,40S158.056,288,136,288z"/>
	<path style="fill:#d22780;" d="M360,288c-22.056,0-40-17.944-40-40s17.944-40,40-40s40,17.944,40,40S382.056,288,360,288z"/>
</g>
<g>
</g>
<g>
</g>
<g>
</g>
<g>
</g>
<g>
</g>
<g>
</g>
<g>
</g>
<g>
</g>
<g>
</g>
<g>
</g>
<g>
</g>
<g>
</g>
<g>
</g>
<g>
</g>
<g>
</g>
</svg>
