<?xml version="1.0" encoding="iso-8859-1"?>
<!-- Generator: Adobe Illustrator 19.0.0, SVG Export Plug-In . SVG Version: 6.00 Build 0)  -->
<svg version="1.1" id="Capa_1" xmlns="http://www.w3.org/2000/svg" xmlns:xlink="http://www.w3.org/1999/xlink" x="0px" y="0px"
	 viewBox="0 0 498.368 498.368" style="enable-background:new 0 0 498.368 498.368;" xml:space="preserve">
<g>
	<path style="fill:#d22780;" d="M249.184,489.184L249.184,489.184c-17.672,0-32-14.328-32-32v-160h64v160
		C281.184,474.856,266.856,489.184,249.184,489.184z"/>
	<path style="fill:#d22780;" d="M249.184,9.184c-70.696,0-128,57.304-128,128s57.304,128,128,128c70.688,0,128-57.304,128-128
		S319.872,9.184,249.184,9.184z M249.184,225.184c-48.6,0-88-39.4-88-88s39.4-88,88-88s88,39.4,88,88
		S297.784,225.184,249.184,225.184z"/>
</g>
<g>
	<path style="fill:#fff;" d="M496.152,133.264c-0.744-1.32-76.264-132.08-246.968-132.08S2.96,131.944,2.216,133.264L0,137.184
		l2.208,3.92c0.688,1.216,64.464,111.44,206.976,129.512v18.568h-16v16h16v152c0,22.056,17.944,40,40,40s40-17.944,40-40v-152h16
		v-16h-16v-18.568c142.512-18.072,206.288-128.296,206.968-129.512l2.216-3.92L496.152,133.264z M18.6,137.184
		c10.88-16.688,58.256-81.848,148.944-108.512c-32.936,24.848-54.36,64.176-54.36,108.512s21.424,83.664,54.352,108.512
		C76.856,219.032,29.48,153.872,18.6,137.184z M249.184,17.184c66.168,0,120,53.824,120,120c0,66.168-53.832,120-120,120
		s-120-53.832-120-120C129.184,71.008,183.016,17.184,249.184,17.184z M273.184,457.184c0,13.232-10.768,24-24,24
		c-13.232,0-24-10.768-24-24v-152h48V457.184z M273.184,289.184h-48v-16.968c7.8,0.576,15.752,0.968,24,0.968
		c8.248,0,16.2-0.392,24-0.968V289.184z M330.832,245.696c32.928-24.848,54.352-64.176,54.352-108.512S363.76,53.52,330.832,28.672
		c90.68,26.664,138.056,91.824,148.936,108.512C468.888,153.872,421.512,219.032,330.832,245.696z"/>
	<path style="fill:#fff;" d="M249.184,81.184v-16c-26.16,0-50.296,14.216-62.992,37.112l13.984,7.768
		C210.056,92.248,228.84,81.184,249.184,81.184z"/>
	<path style="fill:#fff;" d="M177.184,137.184h16c0-4.736,0.592-9.456,1.768-14.024l-15.504-3.968
		C177.952,125.048,177.184,131.104,177.184,137.184z"/>
	<path style="fill:#fff;" d="M249.184,241.184c29.2,0,57.224-12.384,76.896-33.976l-11.832-10.784
		c-16.632,18.28-40.352,28.76-65.064,28.76c-48.52,0-88-39.48-88-88s39.48-88,88-88s88,39.48,88,88
		c0,16.536-4.608,32.648-13.328,46.592l13.56,8.488c10.312-16.496,15.768-35.544,15.768-55.08c0-57.344-46.656-104-104-104
		s-104,46.656-104,104S191.84,241.184,249.184,241.184z"/>
</g>
<g>
</g>
<g>
</g>
<g>
</g>
<g>
</g>
<g>
</g>
<g>
</g>
<g>
</g>
<g>
</g>
<g>
</g>
<g>
</g>
<g>
</g>
<g>
</g>
<g>
</g>
<g>
</g>
<g>
</g>
</svg>
