<?xml version="1.0" encoding="iso-8859-1"?>
<!-- Generator: Adobe Illustrator 19.0.0, SVG Export Plug-In . SVG Version: 6.00 Build 0)  -->
<svg version="1.1" id="Capa_1" xmlns="http://www.w3.org/2000/svg" xmlns:xlink="http://www.w3.org/1999/xlink" x="0px" y="0px"
	 viewBox="0 0 496 496" style="enable-background:new 0 0 496 496;" xml:space="preserve">
<path style="fill:#fff;" d="M432,160v16h48v304H40c-13.232,0-24-10.768-24-24s10.768-24,24-24h120V264h8c22.056,0,40,17.944,40,40v96
	c0,30.872,25.12,56,56,56s56-25.128,56-56v-48c0-22.056,17.944-40,40-40s40,17.944,40,40v16h16v-16c0-30.872-25.12-56-56-56
	s-56,25.128-56,56v48c0,22.056-17.944,40-40,40s-40-17.944-40-40v-96c0-30.872-25.12-56-56-56h-8v-72h48v-16h-48v-48H40
	c-22.056,0-40,17.944-40,40v304c0,22.056,17.944,40,40,40h456V160H432z M16,152c0-13.232,10.768-24,24-24h104v288H40
	c-9,0-17.312,2.984-24,8.016V152z"/>
<path style="fill:#d22780;" d="M320,256c-70.576,0-128-57.424-128-128S249.424,0,320,0s128,57.424,128,128S390.576,256,320,256z"/>
<path style="fill:#fff;" d="M320,224c52.936,0,96-43.064,96-96s-43.064-96-96-96s-96,43.064-96,96S267.064,224,320,224z M312,48.408V64h16V48.408
	c37.736,3.768,67.832,33.856,71.592,71.592H384v16h15.592c-3.768,37.736-33.856,67.832-71.592,71.592V192h-16v15.592
	c-37.736-3.768-67.832-33.856-71.592-71.592H256v-16h-15.592C244.168,82.264,274.264,52.168,312,48.408z"/>
<path style="fill:#fff;" d="M364.648,172.648l-22.328-66.976l-66.976-22.32l22.328,66.976L364.648,172.648z M318.808,140.504l13.696-13.696
	l6.848,20.544L318.808,140.504z M321.192,115.496l-13.696,13.696l-6.848-20.544L321.192,115.496z"/>
<polygon style="fill:#fff;" points="426.344,378.344 408,396.688 389.656,378.344 378.344,389.656 396.688,408 378.344,426.344 389.656,437.656 
	408,419.312 426.344,437.656 437.656,426.344 419.312,408 437.656,389.656 "/>
</svg>
