<?xml version="1.0" encoding="iso-8859-1"?>
<!-- Generator: Adobe Illustrator 19.0.0, SVG Export Plug-In . SVG Version: 6.00 Build 0)  -->
<svg version="1.1" id="Layer_1" xmlns="http://www.w3.org/2000/svg" xmlns:xlink="http://www.w3.org/1999/xlink" x="0px" y="0px"
	 viewBox="0 0 290.625 290.625" style="enable-background:new 0 0 290.625 290.625;" xml:space="preserve">
<g>
	<g>
		<path style="fill:#d22780;" d="M145.313,154.688c-5.18,0-9.375-4.195-9.375-9.375s4.195-9.375,9.375-9.375
			c1.716,0,3.305,0.497,4.688,1.298V4.805c-1.561-0.052-3.117-0.117-4.688-0.117C67.645,4.688,4.688,67.645,4.688,145.313
			s62.958,140.625,140.625,140.625c1.57,0,3.127-0.066,4.688-0.117V153.389C148.617,154.191,147.028,154.688,145.313,154.688z"/>
		<path style="fill:#fff;" d="M280.955,154.383l9.356,0.614c0.206-3.197,0.314-6.459,0.314-9.684h-9.375
			C281.25,148.359,281.152,151.383,280.955,154.383z"/>
		<path style="fill:#fff;" d="M43.261,235.125l-7.031,6.206c4.191,4.744,8.709,9.248,13.439,13.387l6.173-7.059
			C51.417,243.792,47.184,239.569,43.261,235.125z"/>
		<path style="fill:#fff;" d="M64.744,266.264c5.259,3.506,10.791,6.703,16.448,9.487l4.144-8.414
			c-5.292-2.606-10.467-5.587-15.389-8.878L64.744,266.264z"/>
		<path style="fill:#fff;" d="M98.752,283.003c5.972,2.02,12.15,3.666,18.361,4.889l1.809-9.202
			c-5.808-1.139-11.583-2.677-17.17-4.57L98.752,283.003z"/>
		<path style="fill:#fff;" d="M258.295,220.931l7.786,5.217c3.516-5.245,6.722-10.777,9.52-16.434l-8.4-4.158
			C264.581,210.844,261.586,216.019,258.295,220.931z"/>
		<path style="fill:#fff;" d="M12.033,172.209l-9.192,1.842c1.242,6.183,2.906,12.352,4.95,18.328l8.873-3.028
			C14.752,183.755,13.191,177.989,12.033,172.209z"/>
		<path style="fill:#fff;" d="M15.103,209.888c2.803,5.644,6.014,11.166,9.539,16.402l7.777-5.227
			c-3.295-4.903-6.295-10.064-8.92-15.347L15.103,209.888z"/>
		<path style="fill:#fff;" d="M136.538,280.969l-0.6,9.361c3.098,0.197,6.225,0.295,9.375,0.295c3.211,0,6.445-0.103,9.6-0.309
			l-0.614-9.356C148.43,281.344,142.411,281.348,136.538,280.969z"/>
		<path style="fill:#fff;" d="M274.022,189.159l8.878,3.023c2.034-5.967,3.694-12.145,4.927-18.352l-9.197-1.833
			C277.477,177.802,275.925,183.572,274.022,189.159z"/>
		<path style="fill:#fff;" d="M171.909,278.648l1.828,9.192c6.192-1.228,12.361-2.878,18.342-4.908l-3.019-8.883
			C183.473,275.953,177.703,277.495,171.909,278.648z"/>
		<path style="fill:#fff;" d="M234.9,247.561l6.178,7.05c4.734-4.148,9.253-8.663,13.425-13.411l-7.041-6.188
			C243.558,239.452,239.33,243.675,234.9,247.561z"/>
		<path style="fill:#fff;" d="M205.444,267.267l4.153,8.405c5.644-2.789,11.17-5.986,16.425-9.502l-5.212-7.791
			C215.892,261.666,210.722,264.656,205.444,267.267z"/>
		<path style="fill:#fff;" d="M9.375,145.313c0-74.958,60.98-135.938,135.938-135.938c24.117,0,47.48,6.338,68.123,18.323
			l-13.617,5.447l3.483,8.705l26.386-10.552V4.688h-9.375v16.247C197.709,7.27,171.947,0,145.313,0C65.189,0,0,65.189,0,145.313
			c0,3.225,0.108,6.487,0.314,9.68l9.356-0.614C9.473,151.383,9.375,148.359,9.375,145.313z"/>
		<path style="fill:#fff;" d="M248.438,112.5c0-2.7-0.802-5.203-2.128-7.345L271.992,64.8c1.439,0.497,2.962,0.825,4.57,0.825
			c7.753,0,14.063-6.309,14.063-14.063S284.316,37.5,276.563,37.5S262.5,43.809,262.5,51.563c0,2.7,0.802,5.203,2.128,7.345
			l-25.683,40.355c-1.439-0.497-2.963-0.825-4.57-0.825c-3.698,0-7.041,1.463-9.553,3.802l-18.769-11.26
			c0.089-0.633,0.197-1.261,0.197-1.917c0-7.753-6.309-14.063-14.063-14.063s-14.063,6.309-14.063,14.063
			c0,2.433,0.68,4.692,1.772,6.689l-29.25,36.563c-0.206-0.084-0.436-0.127-0.647-0.202V28.125h-4.688
			c-64.617,0-117.188,52.57-117.188,117.188S80.695,262.5,145.313,262.5H150V158.513c5.442-1.941,9.375-7.097,9.375-13.2
			c0-2.433-0.68-4.692-1.772-6.689l29.25-36.563c1.65,0.68,3.445,1.064,5.334,1.064c3.698,0,7.041-1.463,9.553-3.802l18.769,11.259
			c-0.089,0.633-0.197,1.261-0.197,1.917c0,7.753,6.309,14.063,14.063,14.063S248.438,120.253,248.438,112.5z M276.563,46.875
			c2.583,0,4.688,2.105,4.688,4.688s-2.105,4.688-4.688,4.688s-4.688-2.105-4.688-4.688S273.98,46.875,276.563,46.875z
			 M140.625,93.548c-14.119-0.713-26.897-4.472-37.622-9.216c11.873-23.227,28.411-36.895,37.622-43.172V93.548z M94.795,80.339
			c-10.162-5.405-17.789-11.147-22.031-14.672c15.211-13.866,34.383-23.442,55.603-26.808
			C118.27,47.109,104.953,60.638,94.795,80.339z M90.769,88.936c-6.113,14.32-10.387,31.458-10.973,51.689H37.617
			c1.13-26.287,11.728-50.152,28.448-68.297C70.617,76.219,79.158,82.814,90.769,88.936z M79.795,150
			c0.581,20.236,4.861,37.373,10.973,51.689c-11.611,6.122-20.152,12.717-24.703,16.603C49.341,200.152,38.747,176.288,37.617,150
			H79.795z M94.795,210.286c10.158,19.702,23.475,33.23,33.572,41.48c-21.225-3.366-40.397-12.942-55.603-26.808
			C77.006,221.433,84.633,215.686,94.795,210.286z M103.186,206.217c10.688-4.711,23.4-8.428,37.439-9.136v52.289
			C131.494,243.014,115.064,229.242,103.186,206.217z M140.625,187.697c-15.684,0.708-29.738,4.762-41.442,9.923
			c-5.55-13.195-9.441-28.978-10.008-47.616h42.942c1.416,3.97,4.542,7.097,8.513,8.513v29.18L140.625,187.697L140.625,187.697z
			 M132.113,140.625H89.166c0.558-18.713,4.388-34.509,9.863-47.681c11.737,5.189,25.847,9.277,41.597,9.984v29.184
			C136.655,133.528,133.528,136.655,132.113,140.625z M145.313,150c-2.583,0-4.688-2.105-4.688-4.688s2.105-4.688,4.688-4.688
			c2.583,0,4.688,2.105,4.688,4.688C150,147.895,147.895,150,145.313,150z M192.188,93.75c-2.583,0-4.688-2.105-4.688-4.688
			s2.105-4.688,4.688-4.688s4.688,2.105,4.688,4.688S194.77,93.75,192.188,93.75z M234.375,117.188
			c-2.583,0-4.688-2.105-4.688-4.688s2.105-4.688,4.688-4.688s4.688,2.105,4.688,4.688S236.958,117.188,234.375,117.188z"/>
	</g>
</g>
<g>
</g>
<g>
</g>
<g>
</g>
<g>
</g>
<g>
</g>
<g>
</g>
<g>
</g>
<g>
</g>
<g>
</g>
<g>
</g>
<g>
</g>
<g>
</g>
<g>
</g>
<g>
</g>
<g>
</g>
</svg>
