<?xml version="1.0" encoding="iso-8859-1"?>
<!-- Generator: Adobe Illustrator 19.0.0, SVG Export Plug-In . SVG Version: 6.00 Build 0)  -->
<svg version="1.1" id="Layer_1" xmlns="http://www.w3.org/2000/svg" xmlns:xlink="http://www.w3.org/1999/xlink" x="0px" y="0px"
	 viewBox="0 0 290.625 290.625" style="enable-background:new 0 0 290.625 290.625;" xml:space="preserve">
<g>
	<g>
		<rect x="25.78" y="112.5" style="fill:#d22780;" width="70.313" height="37.5"/>
		<circle style="fill:#d22780;" cx="124.218" cy="121.875" r="9.375"/>
		<circle style="fill:#d22780;" cx="161.718" cy="121.875" r="9.375"/>
		<path style="fill:#fff;" d="M278.905,192.188v-11.452c0-29.869-24.3-54.173-54.173-54.173H194.53v-37.5H74.732l14.063-37.5
			H9.641l14.063,37.5H2.343v103.125h14.063v93.75h9.375v-14.063h145.313v14.063h9.375v-93.75h14.063v-18.75h30.773
			c3.712,0,6.727,3.019,6.727,6.731v12.019h-9.375v9.375h9.375h46.875h9.375v-9.375L278.905,192.188L278.905,192.188z
			 M23.169,60.938h52.097L64.719,89.063H33.721L23.169,60.938z M171.093,262.5H25.78v-70.313h145.313L171.093,262.5L171.093,262.5z
			 M185.155,182.813H11.718V98.438h173.438L185.155,182.813L185.155,182.813z M241.405,192.188v-12.019
			c0-8.883-7.223-16.106-16.102-16.106H194.53v-28.125h30.202c24.703,0,44.798,20.095,44.798,44.798v11.452H241.405z"/>
		<path style="fill:#fff;" d="M255.468,234.375c-15.511,0-28.125,12.614-28.125,28.125s12.614,28.125,28.125,28.125
			s28.125-12.614,28.125-28.125S270.979,234.375,255.468,234.375z M255.468,281.25c-10.341,0-18.75-8.409-18.75-18.75
			s8.409-18.75,18.75-18.75s18.75,8.409,18.75,18.75S265.808,281.25,255.468,281.25z"/>
		<rect x="250.78" y="206.25" style="fill:#fff;" width="9.375" height="23.438"/>
		<rect x="232.03" y="215.625" style="fill:#fff;" width="9.375" height="18.75"/>
		<rect x="269.53" y="215.625" style="fill:#fff;" width="9.375" height="18.75"/>
		<path style="fill:#fff;" d="M44.53,37.5h28.223c4.402,5.841,11.325,9.375,18.652,9.375c12.923,0,23.438-10.514,23.438-23.438
			S104.329,0,91.405,0c-7.326,0-14.254,3.534-18.651,9.375H44.53V4.688h-9.375v4.688V37.5v4.688h9.375V37.5z M77.952,18.75
			l1.355-2.33c2.569-4.411,7.092-7.045,12.098-7.045c7.753,0,14.063,6.309,14.063,14.063S99.158,37.5,91.405,37.5
			c-5.006,0-9.53-2.634-12.098-7.045l-1.355-2.33H44.53V18.75H77.952z"/>
	</g>
</g>
<g>
</g>
<g>
</g>
<g>
</g>
<g>
</g>
<g>
</g>
<g>
</g>
<g>
</g>
<g>
</g>
<g>
</g>
<g>
</g>
<g>
</g>
<g>
</g>
<g>
</g>
<g>
</g>
<g>
</g>
</svg>
