<?xml version="1.0" encoding="iso-8859-1"?>
<!-- Generator: Adobe Illustrator 19.0.0, SVG Export Plug-In . SVG Version: 6.00 Build 0)  -->
<svg version="1.1" id="Layer_1" xmlns="http://www.w3.org/2000/svg" xmlns:xlink="http://www.w3.org/1999/xlink" x="0px" y="0px"
	 viewBox="0 0 290.627 290.627" style="enable-background:new 0 0 290.627 290.627;" xml:space="preserve">
<g>
	<g>
		<path style="fill:#d22780;" d="M210.939,117.188c-2.587,0-4.688-2.1-4.688-4.688v-4.688H75.001v4.688
			c0,2.588-2.1,4.688-4.688,4.688h-4.688v46.875h4.688c2.588,0,4.688,2.1,4.688,4.688v4.688h131.25v-4.688
			c0-2.587,2.1-4.688,4.688-4.688h4.688v-46.875H210.939z M140.626,168.75c-15.534,0-28.125-12.591-28.125-28.125
			s12.591-28.125,28.125-28.125s28.125,12.591,28.125,28.125S156.16,168.75,140.626,168.75z"/>
		<path style="fill:#fff;" d="M145.314,108.188v-5.063h-9.375v5.063c-15.872,2.288-28.125,15.942-28.125,32.438
			c0,18.094,14.723,32.813,32.813,32.813s32.813-14.719,32.813-32.813C173.439,124.13,161.185,110.475,145.314,108.188z
			 M140.626,164.063c-12.923,0-23.438-10.514-23.438-23.438s10.514-23.438,23.438-23.438s23.438,10.514,23.438,23.438
			S153.549,164.063,140.626,164.063z"/>
		<rect x="135.939" y="131.25" style="fill:#fff;" width="9.375" height="9.375"/>
		<rect x="135.939" y="70.313" style="fill:#fff;" width="9.375" height="14.063"/>
		<polygon style="fill:#fff;" points="145.314,51.563 150.001,51.563 150.001,42.188 135.939,42.188 135.939,56.25 
			145.314,56.25 		"/>
		<rect x="196.876" y="42.188" style="fill:#fff;" width="18.75" height="9.375"/>
		<rect x="164.064" y="42.188" style="fill:#fff;" width="18.75" height="9.375"/>
		<path style="fill:#fff;" d="M257.813,70.313c12.923,0,23.438-10.514,23.438-23.438s-10.514-23.438-23.438-23.438
			c-11.316,0-20.784,8.067-22.964,18.75h-5.161v9.375h5.161C237.029,62.245,246.497,70.313,257.813,70.313z M257.813,32.813
			c7.753,0,14.063,6.309,14.063,14.063s-6.309,14.063-14.063,14.063c-7.753,0-14.063-6.309-14.063-14.063
			S250.06,32.813,257.813,32.813z"/>
		<polygon style="fill:#fff;" points="135.939,262.5 131.251,262.5 131.251,271.875 145.314,271.875 145.314,257.813 
			135.939,257.813 		"/>
		<rect x="98.439" y="262.5" style="fill:#fff;" width="18.75" height="9.375"/>
		<rect x="65.626" y="262.5" style="fill:#fff;" width="18.75" height="9.375"/>
		<path style="fill:#fff;" d="M23.439,243.75c-12.924,0-23.438,10.514-23.438,23.438s10.514,23.438,23.438,23.438
			c11.316,0,20.784-8.067,22.964-18.75h5.161V262.5h-5.161C44.223,251.817,34.754,243.75,23.439,243.75z M23.439,281.25
			c-7.753,0-14.063-6.309-14.063-14.063s6.309-14.063,14.063-14.063s14.062,6.31,14.062,14.064S31.192,281.25,23.439,281.25z"/>
		<path style="fill:#fff;" d="M267.188,243.75c-11.316,0-20.784,8.067-22.964,18.75h-42.661v-32.813h70.313V126.563h-18.75
			v-18.75h-18.75v-18.75H79.689V18.75H46.403C44.223,8.067,34.754,0,23.439,0C10.515,0,0.001,10.514,0.001,23.438
			s10.514,23.438,23.438,23.438c11.316,0,20.784-8.067,22.964-18.75h23.911v60.938H46.876v103.125h18.75v18.75h18.75v18.75h51.563
			v14.063h9.375v-14.063h46.875v42.188h52.036c2.18,10.683,11.644,18.75,22.964,18.75c12.923,0,23.438-10.514,23.438-23.438
			S280.112,243.75,267.188,243.75z M23.439,37.5c-7.753,0-14.063-6.309-14.063-14.063S15.685,9.375,23.439,9.375
			s14.062,6.309,14.062,14.063S31.192,37.5,23.439,37.5z M56.251,98.438h168.75v84.375H56.251V98.438z M75.001,192.188h159.375v-75
			h9.375v84.375h-98.438h-9.375H75.001V192.188z M93.751,210.938h42.188h9.375h107.813v-75h9.375v84.375H93.751V210.938z
			 M267.188,281.25c-7.753,0-14.063-6.309-14.063-14.063s6.309-14.063,14.063-14.063c7.754,0,14.063,6.309,14.063,14.063
			S274.942,281.25,267.188,281.25z"/>
	</g>
</g>
<g>
</g>
<g>
</g>
<g>
</g>
<g>
</g>
<g>
</g>
<g>
</g>
<g>
</g>
<g>
</g>
<g>
</g>
<g>
</g>
<g>
</g>
<g>
</g>
<g>
</g>
<g>
</g>
<g>
</g>
</svg>
