<?xml version="1.0" encoding="iso-8859-1"?>
<!-- Generator: Adobe Illustrator 19.0.0, SVG Export Plug-In . SVG Version: 6.00 Build 0)  -->
<svg version="1.1" id="Layer_1" xmlns="http://www.w3.org/2000/svg" xmlns:xlink="http://www.w3.org/1999/xlink" x="0px" y="0px"
	 viewBox="0 0 290.627 290.627" style="enable-background:new 0 0 290.627 290.627;" xml:space="preserve">
<g>
	<g>
		<path style="fill:#d22780;" d="M173.438,178.125V150h-16.214c-0.83-2.644-1.913-5.175-3.173-7.598l11.484-11.484l-19.889-19.889
			l-11.484,11.484c-2.419-1.266-4.95-2.344-7.598-3.173v-16.214H98.438v16.214c-2.644,0.83-5.175,1.913-7.598,3.173l-11.484-11.484
			l-19.889,19.889l11.484,11.484c-1.266,2.419-2.344,4.95-3.173,7.598H51.563v4.688v18.75v4.688h16.214
			c0.83,2.644,1.913,5.175,3.173,7.598l-11.484,11.484l19.889,19.889l11.484-11.484c2.419,1.266,4.95,2.344,7.598,3.173V225h28.125
			v-16.214c2.644-0.83,5.175-1.913,7.598-3.173l11.484,11.484l19.889-19.889l-11.484-11.484c1.266-2.419,2.344-4.95,3.173-7.598
			C157.223,178.125,173.438,178.125,173.438,178.125z M135.938,173.438h-1.978c-3.619,8.269-11.855,14.063-21.459,14.063
			s-17.841-5.794-21.459-14.063h-1.978l-28.125-9.375l28.125-9.375h1.978c3.619-8.269,11.855-14.063,21.459-14.063
			s17.841,5.794,21.459,14.063h1.978v9.37l0,0v0.005V173.438z"/>
		<path style="fill:#fff;" d="M271.875,150H262.5h-9.375h-9.375h-9.375h-14.063V42.188c0-7.753-6.309-14.063-14.063-14.063
			h-38.362c-1.941-5.442-7.097-9.375-13.2-9.375h-14.063v-4.688C140.625,6.309,134.316,0,126.563,0H98.438
			c-7.753,0-14.063,6.309-14.063,14.063v4.688H70.313c-6.103,0-11.259,3.933-13.2,9.375H18.75c-7.753,0-14.063,6.309-14.063,14.063
			v234.375c0,7.753,6.309,14.063,14.063,14.063h187.5c7.753,0,14.063-6.309,14.063-14.063v-98.438h14.063h9.375h9.375h9.375h9.375
			c7.753,0,14.063-6.309,14.063-14.063S279.628,150,271.875,150z M210.938,42.188V150h-14.063V51.563h-28.987
			c0.525-1.472,0.862-3.037,0.862-4.688V37.5h37.5C208.837,37.5,210.938,39.6,210.938,42.188z M65.625,32.813
			c0-2.587,2.1-4.688,4.688-4.688H93.75V14.063c0-2.588,2.1-4.688,4.688-4.688h28.125c2.587,0,4.688,2.1,4.688,4.688v14.063h23.438
			c2.587,0,4.688,2.1,4.688,4.688v14.063c0,2.588-2.1,4.688-4.688,4.688H70.313c-2.588,0-4.688-2.1-4.688-4.688V32.813z
			 M210.938,276.563c0,2.587-2.1,4.688-4.688,4.688H18.75c-2.587,0-4.688-2.1-4.688-4.688V42.188c0-2.588,2.1-4.688,4.688-4.688
			h37.5v9.375c0,1.65,0.337,3.216,0.862,4.688H28.125v215.625h168.75v-89.063h14.063V276.563z M234.375,168.75h-60.938v9.375H187.5
			v79.688h-150V60.938h32.813h84.375H187.5V150h-14.063v9.375h60.938V168.75z M253.125,168.75h-9.375v-9.375h9.375V168.75z
			 M271.875,168.75H262.5v-9.375h9.375c2.587,0,4.688,2.1,4.688,4.688S274.462,168.75,271.875,168.75z"/>
		<path style="fill:#fff;" d="M112.5,135.938c-10.106,0-19.298,5.461-24.286,14.091l-42.098,14.034l42.098,14.034
			c4.987,8.63,14.18,14.091,24.286,14.091c15.511,0,28.125-12.614,28.125-28.125S128.011,135.938,112.5,135.938z M131.25,164.063
			c0,1.627-0.272,3.178-0.666,4.688H93.75v-9.375h36.834C130.978,160.884,131.25,162.436,131.25,164.063z M124.772,150h-24.647
			c3.356-2.962,7.73-4.688,12.375-4.688C117.216,145.313,121.477,147.117,124.772,150z M84.375,161.189v5.742l-8.616-2.869
			L84.375,161.189z M100.125,178.125h24.647c-3.295,2.883-7.556,4.688-12.272,4.688
			C107.855,182.813,103.481,181.087,100.125,178.125z"/>
	</g>
</g>
<g>
</g>
<g>
</g>
<g>
</g>
<g>
</g>
<g>
</g>
<g>
</g>
<g>
</g>
<g>
</g>
<g>
</g>
<g>
</g>
<g>
</g>
<g>
</g>
<g>
</g>
<g>
</g>
<g>
</g>
</svg>
