<?xml version="1.0" encoding="iso-8859-1"?>
<!-- Generator: Adobe Illustrator 19.0.0, SVG Export Plug-In . SVG Version: 6.00 Build 0)  -->
<svg xmlns="http://www.w3.org/2000/svg" xmlns:xlink="http://www.w3.org/1999/xlink" version="1.1" id="Capa_1" x="0px" y="0px" viewBox="0 0 499.312 499.312" style="enable-background:new 0 0 499.312 499.312;" xml:space="preserve">
<g>
	<path style="fill:#d22780;" d="M489.656,203.312c-10.248,10.248-24.136,16-38.624,16h-9.376l17.352-31.816   c20.112-36.864,30.648-78.192,30.648-120.184l-52.464,47.216c-17.728,15.952-40.736,24.784-64.584,24.784   c-22.584,0-44.456,7.92-61.808,22.376l-20.88,17.4c-0.056,0.912-0.264,1.792-0.264,2.712c0,8.808,2.608,17.424,7.496,24.76   l0.288,0.432c5.36,8.032,8.216,17.472,8.216,27.136c0,8.216-2.104,16.144-5.888,23.176c9.784,10.448,16.576,23.432,19.408,37.608   c1.648,8.24,2.48,16.632,2.48,25.04c0,17.744-3.728,35.224-10.824,51.36h26.824h28.784c33.192,0,65.44-11.064,91.64-31.44   c19.92-15.496,31.576-39.32,31.576-64.56c-10.52,5.264-22.128,8-33.888,8h-6.112l11.712-11.712   C479.48,253.488,489.656,228.92,489.656,203.312z"/>
	<path style="fill:#d22780;" d="M177.656,319.952c0-8.408,0.832-16.792,2.48-25.04c2.832-14.176,9.624-27.16,19.408-37.608   c-3.784-7.032-5.888-14.96-5.888-23.176c0-9.664,2.856-19.104,8.216-27.144l0.288-0.432c4.888-7.328,7.496-15.944,7.496-24.752   c0-0.92-0.208-1.8-0.272-2.712l-20.88-17.4c-17.344-14.456-39.216-22.376-61.8-22.376c-23.848,0-46.856-8.832-64.584-24.784   L9.656,67.312c0,41.992,10.536,83.32,30.648,120.184l17.352,31.816H48.28c-14.488,0-28.376-5.752-38.624-16   c0,25.608,10.176,50.176,28.288,68.288l11.712,11.712h-6.112c-11.76,0-23.368-2.736-33.888-8c0,25.24,11.656,49.064,31.576,64.56   c26.2,20.376,58.448,31.44,91.64,31.44h28.784h26.824C181.384,355.176,177.656,337.696,177.656,319.952z"/>
	<path style="fill:#d22780;" d="M105.656,27.312v1.576c0,9.4-2.784,18.6-8,26.424l-1.344,2.016   c-4.336,6.512-6.656,14.16-6.656,21.984l0,0c0,15.464,12.536,28,28,28l0,0c15.464,0,28-12.536,28-28l0,0   c0-7.952-1.28-15.848-3.792-23.384l-4.208-12.616l-8,16L105.656,27.312z"/>
	<path style="fill:#d22780;" d="M393.656,27.312v1.576c0,9.4,2.784,18.6,8,26.424L403,57.328c4.336,6.512,6.656,14.16,6.656,21.984   l0,0c0,15.464-12.536,28-28,28l0,0c-15.464,0-28-12.536-28-28l0,0c0-7.952,1.28-15.848,3.792-23.384l4.208-12.616l8,16   L393.656,27.312z"/>
</g>
<g>
	<path style="fill:#fff;" d="M249.656,166.624l27.312-27.312L249.656,112l-27.312,27.312L249.656,166.624z M254.344,139.312   L249.656,144l-4.688-4.688l4.688-4.688L254.344,139.312z"/>
	<rect x="273.656" y="99.312" style="fill:#fff;" width="16" height="16"/>
	<rect x="209.656" y="99.312" style="fill:#fff;" width="16" height="16"/>
	<path style="fill:#fff;" d="M367.808,305.76c-2.592,10.336-11.84,17.552-22.496,17.552v16c18.016,0,33.64-12.2,38.016-29.68   c1.016-4.08,3.12-7.8,6.096-10.776l47.544-47.544h-22.472c-13.2,0-26.144,2.496-38.232,7.328   c5.472-10.248,13.416-19.064,23.256-25.624c16.024-10.68,28.2-26.632,34.296-44.904l14.8-44.392L415.2,166   c-10.424,6.952-24.56,7.024-35.2-0.072c-19.952-13.296-47.016-13.936-67.568-1.608l-13.392,8.032   c1.64-6.144,4.728-11.832,9.344-16.456l3.216-3.216c11.64-11.64,18.056-27.128,18.056-43.584c0-18.832-8.432-36.384-23.136-48.136   L289.824,47.6c-5.384-11.08-13.224-20.656-22.8-30.224L249.656,0L232.28,17.376c-9.576,9.576-17.416,19.152-22.8,30.232   l-16.688,13.36c-14.704,11.744-23.136,29.288-23.136,48.128c0,16.464,6.416,31.944,18.056,43.584l3.216,3.216   c4.616,4.624,7.704,10.304,9.344,16.456l-13.392-8.032c-20.56-12.328-47.512-11.768-67.68,1.68   c-10.424,6.952-24.672,6.952-35.096,0l-33.408-22.28l14.8,44.392c6.096,18.272,18.272,34.224,34.296,44.904   c9.84,6.56,17.792,15.376,23.256,25.624c-12.096-4.832-25.032-7.328-38.232-7.328H62.344l47.544,47.544   c2.976,2.976,5.08,6.696,6.104,10.776c4.368,17.48,19.992,29.68,38.008,29.68v-16c-10.656,0-19.904-7.216-22.488-17.552   c-1.72-6.88-5.288-13.184-10.312-18.208l-18.36-18.36c10.784,2.272,21.072,6.576,30.376,12.784l17.192,11.464l-5.584-22.416   c-5.264-21.056-18.112-39.272-36.168-51.312c-13.08-8.72-23.024-21.736-28-36.656l-0.232-0.72c14.912,7.44,33.568,6.4,47.76-3.088   c14.896-9.944,35.128-10.416,50.464-1.2l21.728,13.032c-1.048,3.96-2.712,7.816-5.152,11.472c-2.632,3.944-4.608,8.2-6.168,12.592   c-6.76-7.68-15.416-13.6-25.16-16.84c-5.928-1.992-12.104-2.992-18.368-2.992h-23.872l26.224,34.968   c3.728,4.968,5.776,11.12,5.776,17.312c0,15.024,7.464,28.976,19.968,37.312l0.696,0.464c-0.792,2.616-1.488,5.272-2.032,7.976   c-1.752,8.744-2.632,17.696-2.632,26.608c0,5.216,0.368,10.408,0.96,15.56l-10.368,18.656   c-18.224,32.808-47.256,59.008-81.744,73.792l-10.864,4.648l8.36,8.36c1.4,1.408,34.744,34.344,69.656,34.344   c20.008,0,36.952-8.296,48-15.584v18.64c-4.92,5.624-8,12.896-8,20.944h16c0-8.824,7.176-16,16-16s16,7.176,16,16h16   c0-8.048-3.08-15.32-8-20.944v-80.632L243,395.72c2.536-3.816,4.76-7.784,6.656-11.888c1.896,4.112,4.12,8.08,6.656,11.888   l1.344,2.016v80.632c-4.92,5.624-8,12.896-8,20.944h16c0-8.824,7.176-16,16-16s16,7.176,16,16h16c0-8.048-3.08-15.32-8-20.944   v-18.64c11.048,7.288,27.992,15.584,48,15.584c34.912,0,68.256-32.936,69.656-34.344l8.36-8.36l-10.864-4.648   c-34.488-14.784-63.512-40.984-81.744-73.792l-10.368-18.656c0.592-5.152,0.96-10.344,0.96-15.56c0-8.912-0.88-17.864-2.632-26.608   c-0.544-2.704-1.24-5.352-2.032-7.976l0.696-0.464c12.504-8.336,19.968-22.288,19.968-37.312c0-6.192,2.048-12.344,5.768-17.312   l26.232-34.968h-23.872c-6.256,0-12.44,1-18.352,2.976c-9.752,3.248-18.424,9.184-25.184,16.872   c-1.608-4.496-3.664-8.888-6.44-13.048c-2.272-3.408-3.864-7.144-4.88-11.032l21.744-13.04c15.336-9.2,35.464-8.8,50.568,1.272   c14,9.344,32.736,10.448,47.648,3.016l-0.232,0.72c-4.976,14.92-14.92,27.936-28,36.656c-18.056,12.04-30.896,30.256-36.168,51.32   l-5.576,22.408l17.192-11.464c9.304-6.2,19.592-10.504,30.376-12.784l-18.36,18.36C373.088,292.568,369.512,298.872,367.808,305.76   z M185.656,109.096c0-13.656,6.016-26.376,16.496-35.064c-0.288,2.984-0.496,6.04-0.496,9.28h16c0-9.912,1.792-18.192,4.936-25.696   l0.064-0.056l-0.024-0.032c4.432-10.544,11.616-19.496,20.968-28.84l6.056-6.064l6.064,6.064   c9.344,9.344,16.528,18.296,20.968,28.84l-0.024,0.032l0.064,0.056c3.136,7.504,4.928,15.784,4.928,25.696h16   c0-3.24-0.208-6.304-0.496-9.288c10.472,8.688,16.496,21.408,16.496,35.072c0,12.184-4.752,23.656-13.368,32.272l-3.216,3.216   c-9.936,9.936-15.416,23.16-15.416,37.216c0,10.424,3.056,20.52,9.128,29.624c4.496,6.744,6.872,14.6,6.872,22.712   c0,3.144-0.384,6.248-1.088,9.256c-11.376-9.112-21.592-19.656-30.352-31.336l-16.56-22.072l-16.552,22.072   c-8.76,11.672-18.976,22.216-30.352,31.336c-0.712-3.016-1.096-6.112-1.096-9.256c0-8.112,2.376-15.96,7.168-23.144   c5.776-8.672,8.832-18.776,8.832-29.192c0-14.056-5.48-27.272-15.416-37.208l-3.216-3.216   C190.408,132.752,185.656,121.28,185.656,109.096z M249.656,257.696c-7.776-5.336-12.976-13.464-14.968-22.6   c3.92-4.328,7.704-8.768,11.208-13.448l3.76-5.008l3.76,5.008c3.504,4.672,7.288,9.112,11.2,13.44   C262.632,244.232,257.424,252.36,249.656,257.696z M221.952,248c1.64,3.848,3.696,7.48,6.184,10.824   c-3.048,2.896-5.496,6.32-7.264,10.096l-2.072-1.48c-3.512-2.512-6.504-5.576-9.024-8.968c0.944-0.848,1.872-1.712,2.864-2.504   C215.832,253.424,218.936,250.76,221.952,248z M239.544,270.056c0.552,0.4,1.072,0.848,1.64,1.224l8.472,5.648l8.472-5.648   c0.568-0.384,1.088-0.824,1.64-1.224c2.52,2.272,4.328,5.2,5.232,8.48l-15.344,10.944l-15.336-10.952   C235.216,275.256,237.024,272.328,239.544,270.056z M280.512,267.448l-2.072,1.48c-1.768-3.776-4.216-7.2-7.264-10.096   c2.488-3.344,4.544-6.984,6.184-10.824c3.016,2.752,6.12,5.416,9.312,7.976c0.992,0.792,1.92,1.656,2.864,2.504   C287.024,261.872,284.032,264.936,280.512,267.448z M169.656,247.592c0-9.632-3.184-19.184-8.968-26.904l-6.328-8.44   c1.504,0.32,3,0.736,4.48,1.224c8.824,2.936,16.52,8.824,21.688,16.56l5.376,8.056c0.44,6.2,1.864,12.216,4.216,17.856   c-3.6,4.376-6.752,9.096-9.408,14.088C173.84,264.592,169.656,256.456,169.656,247.592z M145.656,459.312   c-18.92,0-38.536-13.168-49.52-21.96c32.744-16.76,60.184-43.168,78.104-75.416l1.376-2.48   c3.216,10.552,7.648,20.752,13.376,30.296l4.664,7.776v42.248C187.304,445.224,168.648,459.312,145.656,459.312z M209.656,468.448   v-65.136h16v65.136c-2.576-0.672-5.224-1.136-8-1.136S212.232,467.776,209.656,468.448z M241.656,347.312   c0,14.112-4.144,27.784-11.968,39.528l-0.312,0.472h-23.184l-3.48-5.8c-11.16-18.592-17.056-39.88-17.056-61.56   c0-7.864,0.784-15.768,2.32-23.472c1.864-9.328,5.68-18.08,11.024-25.808c3.056,3.648,6.552,6.96,10.496,9.784l40.16,28.688   l40.16-28.68c3.952-2.824,7.448-6.136,10.496-9.784c5.344,7.72,9.16,16.48,11.024,25.808c1.536,7.704,2.32,15.6,2.32,23.472   c0,21.68-5.896,42.968-17.056,61.56l-3.472,5.792h-23.184l-0.312-0.472c-7.832-11.744-11.976-25.416-11.976-39.528H241.656z    M273.656,468.448v-65.136h16v65.136c-2.576-0.672-5.224-1.136-8-1.136S276.232,467.776,273.656,468.448z M325.08,361.936   c17.912,32.248,45.368,58.664,78.12,75.424c-10.968,8.784-30.552,21.952-49.544,21.952c-22.848,0-41.616-14.112-48-19.552v-42.232   l4.664-7.776c5.728-9.544,10.16-19.744,13.376-30.296L325.08,361.936z M340.488,213.472c1.472-0.488,2.96-0.896,4.472-1.216   l-6.336,8.44c-5.784,7.712-8.968,17.264-8.968,26.896c0,8.856-4.184,17-11.048,22.448c-2.656-5-5.808-9.712-9.408-14.088   c2.352-5.64,3.776-11.656,4.216-17.856l5.376-8.056C323.952,222.296,331.656,216.416,340.488,213.472z"/>
</g>
<g>
</g>
<g>
</g>
<g>
</g>
<g>
</g>
<g>
</g>
<g>
</g>
<g>
</g>
<g>
</g>
<g>
</g>
<g>
</g>
<g>
</g>
<g>
</g>
<g>
</g>
<g>
</g>
<g>
</g>
</svg>
