<?xml version="1.0" encoding="iso-8859-1"?>
<!-- Generator: Adobe Illustrator 19.0.0, SVG Export Plug-In . SVG Version: 6.00 Build 0)  -->
<svg version="1.1" id="Capa_1" xmlns="http://www.w3.org/2000/svg" xmlns:xlink="http://www.w3.org/1999/xlink" x="0px" y="0px"
	 viewBox="0 0 496 496" style="enable-background:new 0 0 496 496;" xml:space="preserve">
<g>
	<path style="fill:#d22780;" d="M349.08,136c6.928,14.568,10.92,30.8,10.92,48c0,20.424-5.56,39.512-15.104,56H488V136H349.08z"/>
	<rect x="40" y="328" style="fill:#d22780;" width="416" height="168"/>
</g>
<g>
	<path style="fill:#fff;" d="M472,16H182.112l-32,16H136v-8c0-13.232-10.768-24-24-24H56C42.768,0,32,10.768,32,24v8h-8
		C10.768,32,0,42.768,0,56v256c0,13.232,10.768,24,24,24h96c0,70.576,57.424,128,128,128s128-57.424,128-128h96
		c13.232,0,24-10.768,24-24V40C496,26.768,485.232,16,472,16z M48,24c0-4.416,3.584-8,8-8h56c4.416,0,8,3.584,8,8v8H48V24z M24,48
		h129.888l32-16H472c4.416,0,8,3.584,8,8v40H307.616C290.024,69.88,269.704,64,248,64s-42.024,5.88-59.616,16H16V56
		C16,51.584,19.584,48,24,48z M480,240v32H329.312c9.928-9.184,18.352-19.952,24.744-32H376v-16h-15c4.448-12.536,7-25.96,7-40
		s-2.552-27.464-7-40h119v80h-88v16H480z M144,184c0-57.344,46.656-104,104-104s104,46.656,104,104s-46.656,104-104,104
		S144,241.344,144,184z M166.688,272H16V96h150.688C142.968,117.936,128,149.216,128,184S142.968,250.064,166.688,272z M354.056,128
		c-6.384-12.048-14.808-22.816-24.744-32H480v32H354.056z M248,448c-61.76,0-112-50.24-112-112h16
		c0,24.584,9.288,47.984,26.168,65.864l11.64-10.984C175.744,375.984,168,356.488,168,336h16c0,35.288,28.712,64,64,64
		c9.608,0,18.832-2.08,27.44-6.168l-6.872-14.456C262.128,382.448,255.208,384,248,384c-26.472,0-48-21.528-48-48h16
		c0,17.648,14.352,32,32,32s32-14.352,32-32h16c0,13.008-5.12,25.176-14.416,34.288l11.2,11.424
		C305.184,369.576,312,353.344,312,336h48C360,397.76,309.76,448,248,448z M264,336c0,8.816-7.184,16-16,16s-16-7.184-16-16H264z
		 M472,320H24c-4.416,0-8-3.584-8-8v-24h172.384c17.584,10.12,37.904,16,59.616,16s42.024-5.88,59.616-16H480v24
		C480,316.416,476.416,320,472,320z"/>
	<path style="fill:#fff;" d="M320,184c0-39.704-32.296-72-72-72s-72,32.296-72,72s32.296,72,72,72S320,223.704,320,184z M192,184
		c0-30.872,25.128-56,56-56s56,25.128,56,56s-25.128,56-56,56S192,214.872,192,184z"/>
	<path style="fill:#fff;" d="M288,184c0-22.056-17.944-40-40-40s-40,17.944-40,40s17.944,40,40,40S288,206.056,288,184z M224,184
		c0-13.232,10.768-24,24-24s24,10.768,24,24s-10.768,24-24,24S224,197.232,224,184z"/>
	<path style="fill:#fff;" d="M440,208c13.232,0,24-10.768,24-24s-10.768-24-24-24s-24,10.768-24,24S426.768,208,440,208z
		 M440,176c4.416,0,8,3.584,8,8s-3.584,8-8,8s-8-3.584-8-8S435.584,176,440,176z"/>
	<path style="fill:#fff;" d="M248,416c-16.576,0-32.48-5.024-45.992-14.52l-9.2,13.08C209.024,425.968,228.112,432,248,432
		c46.344,0,86.056-33.04,94.416-78.552l-15.736-2.888C319.712,388.48,286.624,416,248,416z"/>
</g>
<g>
</g>
<g>
</g>
<g>
</g>
<g>
</g>
<g>
</g>
<g>
</g>
<g>
</g>
<g>
</g>
<g>
</g>
<g>
</g>
<g>
</g>
<g>
</g>
<g>
</g>
<g>
</g>
<g>
</g>
</svg>
