<?xml version="1.0" encoding="iso-8859-1"?>
<!-- Generator: Adobe Illustrator 19.0.0, SVG Export Plug-In . SVG Version: 6.00 Build 0)  -->
<svg version="1.1" id="Layer_1" xmlns="http://www.w3.org/2000/svg" xmlns:xlink="http://www.w3.org/1999/xlink" x="0px" y="0px"
	 viewBox="0 0 290.625 290.625" style="enable-background:new 0 0 290.625 290.625;" xml:space="preserve">
<g>
	<g>
		<rect x="18.75" y="18.75" style="fill:#d22780;" width="46.875" height="46.875"/>
		<rect x="225" y="18.75" style="fill:#d22780;" width="46.875" height="46.875"/>
		<rect x="18.75" y="225" style="fill:#d22780;" width="46.875" height="46.875"/>
		<path style="fill:#fff;" d="M0,0v290.625h290.625V0H0z M281.25,281.25H9.375V9.375H281.25V281.25z"/>
		<rect x="37.5" y="37.5" style="fill:#fff;" width="9.375" height="9.375"/>
		<rect x="243.75" y="37.5" style="fill:#fff;" width="9.375" height="9.375"/>
		<rect x="37.5" y="243.75" style="fill:#fff;" width="9.375" height="9.375"/>
		<polygon style="fill:#fff;" points="37.5,103.125 56.25,103.125 56.25,93.75 37.5,93.75 37.5,84.375 84.375,84.375 
			84.375,103.125 93.75,103.125 93.75,84.375 159.375,84.375 159.375,103.125 168.75,103.125 168.75,84.375 196.875,84.375 
			196.875,75 18.75,75 18.75,84.375 28.125,84.375 28.125,112.5 37.5,112.5 		"/>
		<rect x="18.75" y="112.5" style="fill:#fff;" width="9.375" height="103.125"/>
		<rect x="37.5" y="206.25" style="fill:#fff;" width="9.375" height="9.375"/>
		<polygon style="fill:#fff;" points="56.25,215.625 103.125,215.625 103.125,234.375 112.5,234.375 112.5,215.625 150,215.625 
			150,206.25 121.875,206.25 121.875,187.5 112.5,187.5 112.5,206.25 56.25,206.25 		"/>
		<polygon style="fill:#fff;" points="37.5,196.875 46.875,196.875 46.875,150 65.625,150 65.625,140.625 46.875,140.625 
			46.875,121.875 37.5,121.875 		"/>
		<rect x="46.875" y="112.5" style="fill:#fff;" width="9.375" height="9.375"/>
		<rect x="56.25" y="103.125" style="fill:#fff;" width="9.375" height="9.375"/>
		<rect x="65.625" y="93.75" style="fill:#fff;" width="9.375" height="9.375"/>
		<polygon style="fill:#fff;" points="84.375,37.5 112.5,37.5 112.5,28.125 84.375,28.125 84.375,18.75 75,18.75 75,65.625 
			84.375,65.625 		"/>
		<rect x="93.75" y="46.875" style="fill:#fff;" width="9.375" height="9.375"/>
		<rect x="103.125" y="56.25" style="fill:#fff;" width="9.375" height="9.375"/>
		<rect x="112.5" y="37.5" style="fill:#fff;" width="9.375" height="9.375"/>
		<rect x="121.875" y="28.125" style="fill:#fff;" width="9.375" height="9.375"/>
		<rect x="131.25" y="18.75" style="fill:#fff;" width="9.375" height="9.375"/>
		<rect x="187.5" y="18.75" style="fill:#fff;" width="28.125" height="9.375"/>
		<rect x="206.25" y="37.5" style="fill:#fff;" width="9.375" height="28.125"/>
		<rect x="178.125" y="37.5" style="fill:#fff;" width="18.75" height="9.375"/>
		<rect x="187.5" y="56.25" style="fill:#fff;" width="9.375" height="9.375"/>
		<rect x="168.75" y="56.25" style="fill:#fff;" width="9.375" height="9.375"/>
		<polygon style="fill:#fff;" points="168.75,56.25 168.75,46.875 150,46.875 150,37.5 140.625,37.5 140.625,46.875 
			121.875,46.875 121.875,56.25 		"/>
		<polygon style="fill:#fff;" points="159.375,37.5 168.75,37.5 168.75,28.125 178.125,28.125 178.125,18.75 150,18.75 
			150,28.125 159.375,28.125 		"/>
		<rect x="75" y="112.5" style="fill:#fff;" width="18.75" height="9.375"/>
		<rect x="103.125" y="103.125" style="fill:#fff;" width="18.75" height="9.375"/>
		<rect x="121.875" y="93.75" style="fill:#fff;" width="28.125" height="9.375"/>
		<rect x="178.125" y="93.75" style="fill:#fff;" width="46.875" height="9.375"/>
		<rect x="215.625" y="75" style="fill:#fff;" width="9.375" height="9.375"/>
		<rect x="234.375" y="75" style="fill:#fff;" width="37.5" height="9.375"/>
		<rect x="262.5" y="93.75" style="fill:#fff;" width="9.375" height="28.125"/>
		<rect x="253.125" y="121.875" style="fill:#fff;" width="9.375" height="18.75"/>
		<rect x="262.5" y="140.625" style="fill:#fff;" width="9.375" height="28.125"/>
		<rect x="262.5" y="178.125" style="fill:#fff;" width="9.375" height="18.75"/>
		<polygon style="fill:#fff;" points="234.375,178.125 253.125,178.125 253.125,173.438 253.125,168.75 253.125,159.375 
			243.75,159.375 243.75,168.75 234.375,168.75 		"/>
		<rect x="243.75" y="187.5" style="fill:#fff;" width="9.375" height="18.75"/>
		<polygon style="fill:#fff;" points="253.125,206.25 253.125,215.625 234.375,215.625 234.375,225 253.125,225 262.5,225 
			262.5,206.25 		"/>
		<polygon style="fill:#fff;" points="253.125,271.875 262.5,271.875 262.5,262.5 271.875,262.5 271.875,253.125 262.5,253.125 
			262.5,234.375 253.125,234.375 		"/>
		<rect x="262.5" y="225" style="fill:#fff;" width="9.375" height="9.375"/>
		<rect x="215.625" y="262.5" style="fill:#fff;" width="28.125" height="9.375"/>
		<rect x="215.625" y="243.75" style="fill:#fff;" width="28.125" height="9.375"/>
		<rect x="196.875" y="253.125" style="fill:#fff;" width="18.75" height="9.375"/>
		<rect x="75" y="225" style="fill:#fff;" width="9.375" height="37.5"/>
		<rect x="56.25" y="187.5" style="fill:#fff;" width="18.75" height="9.375"/>
		<rect x="84.375" y="187.5" style="fill:#fff;" width="18.75" height="9.375"/>
		<rect x="56.25" y="159.375" style="fill:#fff;" width="9.375" height="18.75"/>
		<rect x="65.625" y="121.875" style="fill:#fff;" width="9.375" height="18.75"/>
		<rect x="84.375" y="131.25" style="fill:#fff;" width="37.5" height="9.375"/>
		<rect x="75" y="150" style="fill:#fff;" width="18.75" height="9.375"/>
		<rect x="103.125" y="150" style="fill:#fff;" width="28.125" height="9.375"/>
		<rect x="93.75" y="159.375" style="fill:#fff;" width="9.375" height="18.75"/>
		<rect x="112.5" y="168.75" style="fill:#fff;" width="18.75" height="9.375"/>
		<polygon style="fill:#fff;" points="150,112.5 140.625,112.5 140.625,178.125 150,178.125 150,140.625 178.125,140.625 
			178.125,131.25 150,131.25 		"/>
		<rect x="121.875" y="121.875" style="fill:#fff;" width="9.375" height="9.375"/>
		<polygon style="fill:#fff;" points="159.375,112.5 159.375,121.875 253.125,121.875 253.125,112.5 243.75,112.5 243.75,93.75 
			234.375,93.75 234.375,112.5 		"/>
		<rect x="159.375" y="150" style="fill:#fff;" width="9.375" height="37.5"/>
		<rect x="150" y="196.875" style="fill:#fff;" width="28.125" height="9.375"/>
		<polygon style="fill:#fff;" points="178.125,187.5 225,187.5 225,178.125 215.625,178.125 215.625,159.375 234.375,159.375 
			234.375,150 206.25,150 206.25,154.688 206.25,159.375 206.25,178.125 178.125,178.125 		"/>
		<rect x="187.5" y="140.625" style="fill:#fff;" width="9.375" height="28.125"/>
		<rect x="196.875" y="131.25" style="fill:#fff;" width="28.125" height="9.375"/>
		<rect x="187.5" y="201.563" style="fill:#fff;" width="9.375" height="42.188"/>
		<rect x="206.25" y="225" style="fill:#fff;" width="28.125" height="9.375"/>
		<rect x="215.625" y="196.875" style="fill:#fff;" width="9.375" height="18.75"/>
		<polygon style="fill:#fff;" points="178.125,215.625 168.75,215.625 168.75,262.5 159.375,262.5 159.375,243.75 150,243.75 
			150,262.5 84.375,262.5 84.375,271.875 196.875,271.875 196.875,262.5 178.125,262.5 		"/>
		<rect x="93.75" y="243.75" style="fill:#fff;" width="28.125" height="9.375"/>
		<rect x="121.875" y="234.375" style="fill:#fff;" width="18.75" height="9.375"/>
		<rect x="140.625" y="225" style="fill:#fff;" width="9.375" height="9.375"/>
	</g>
</g>
<g>
</g>
<g>
</g>
<g>
</g>
<g>
</g>
<g>
</g>
<g>
</g>
<g>
</g>
<g>
</g>
<g>
</g>
<g>
</g>
<g>
</g>
<g>
</g>
<g>
</g>
<g>
</g>
<g>
</g>
</svg>
