<?xml version="1.0" encoding="UTF-8" standalone="no"?>
<!-- Generator: Adobe Illustrator 18.1.1, SVG Export Plug-In . SVG Version: 6.00 Build 0)  -->

<svg
   xmlns:dc="http://purl.org/dc/elements/1.1/"
   xmlns:cc="http://creativecommons.org/ns#"
   xmlns:rdf="http://www.w3.org/1999/02/22-rdf-syntax-ns#"
   xmlns:svg="http://www.w3.org/2000/svg"
   xmlns="http://www.w3.org/2000/svg"
   xmlns:sodipodi="http://sodipodi.sourceforge.net/DTD/sodipodi-0.dtd"
   xmlns:inkscape="http://www.inkscape.org/namespaces/inkscape"
   version="1.1"
   id="Capa_1"
   x="0px"
   y="0px"
   viewBox="0 0 26.988 26.988"
   style="enable-background:new 0 0 26.988 26.988;"
   xml:space="preserve"
   inkscape:version="0.91 r13725"
   sodipodi:docname="rdie4.svg"><metadata
   id="metadata71"><rdf:RDF><cc:Work
       rdf:about=""><dc:format>image/svg+xml</dc:format><dc:type
         rdf:resource="http://purl.org/dc/dcmitype/StillImage" /></cc:Work></rdf:RDF></metadata><defs
   id="defs69" /><sodipodi:namedview
   pagecolor="#ffffff"
   bordercolor="#666666"
   borderopacity="1"
   objecttolerance="10"
   gridtolerance="10"
   guidetolerance="10"
   inkscape:pageopacity="0"
   inkscape:pageshadow="2"
   inkscape:window-width="701"
   inkscape:window-height="480"
   id="namedview67"
   showgrid="false"
   inkscape:zoom="8.744627"
   inkscape:cx="13.494"
   inkscape:cy="13.379644"
   inkscape:window-x="0"
   inkscape:window-y="0"
   inkscape:window-maximized="0"
   inkscape:current-layer="Capa_1" />
<rect
   style="fill:#ffffff;fill-opacity:1;stroke:#000000;stroke-width:0;stroke-miterlimit:4;stroke-dasharray:none;stroke-opacity:1"
   id="rect4199"
   width="23.557323"
   height="21.841984"
   x="1.829695"
   y="2.6301866" /><g
   id="g3">
	<path
   style="fill:#5e227f"
   d="M24.84,0.616H2.145C0.959,0.616,0,1.579,0,2.762v21.465c0,1.184,0.959,2.145,2.145,2.145H24.84   c1.186,0,2.148-0.961,2.148-2.145V2.762C26.988,1.579,26.025,0.616,24.84,0.616z M6.164,8.78c-1.533,0-2.777-1.244-2.777-2.775   c0-1.535,1.244-2.779,2.777-2.779c1.535,0,2.779,1.244,2.779,2.779C8.943,7.536,7.699,8.78,6.164,8.78z M21.164,23.62   c-1.535,0-2.779-1.244-2.779-2.777s1.244-2.777,2.779-2.777c1.531,0,2.777,1.244,2.777,2.777S22.695,23.62,21.164,23.62z    M21.004,8.829c-1.533,0-2.777-1.244-2.777-2.775c0-1.535,1.244-2.777,2.777-2.777s2.777,1.242,2.777,2.777   C23.781,7.585,22.537,8.829,21.004,8.829z M6.232,23.557c-1.529,0-2.777-1.244-2.777-2.779c0-1.531,1.248-2.775,2.777-2.775   c1.535,0,2.779,1.244,2.779,2.775C9.012,22.313,7.768,23.557,6.232,23.557z"
   id="path5" />
	<g
   id="g7">
	</g>
	<g
   id="g9">
	</g>
	<g
   id="g11">
	</g>
	<g
   id="g13">
	</g>
	<g
   id="g15">
	</g>
	<g
   id="g17">
	</g>
	<g
   id="g19">
	</g>
	<g
   id="g21">
	</g>
	<g
   id="g23">
	</g>
	<g
   id="g25">
	</g>
	<g
   id="g27">
	</g>
	<g
   id="g29">
	</g>
	<g
   id="g31">
	</g>
	<g
   id="g33">
	</g>
	<g
   id="g35">
	</g>
</g>
<g
   id="g37">
</g>
<g
   id="g39">
</g>
<g
   id="g41">
</g>
<g
   id="g43">
</g>
<g
   id="g45">
</g>
<g
   id="g47">
</g>
<g
   id="g49">
</g>
<g
   id="g51">
</g>
<g
   id="g53">
</g>
<g
   id="g55">
</g>
<g
   id="g57">
</g>
<g
   id="g59">
</g>
<g
   id="g61">
</g>
<g
   id="g63">
</g>
<g
   id="g65">
</g>
</svg>