<?xml version="1.0" encoding="iso-8859-1"?>
<!-- Generator: Adobe Illustrator 19.0.0, SVG Export Plug-In . SVG Version: 6.00 Build 0)  -->
<svg version="1.1" id="Layer_1" xmlns="http://www.w3.org/2000/svg" xmlns:xlink="http://www.w3.org/1999/xlink" x="0px" y="0px"
	 viewBox="0 0 290.628 290.628" style="enable-background:new 0 0 290.628 290.628;" xml:space="preserve">
<g>
	<g>
		<path style="fill:#fff;" d="M234.375,253.126v-75H225v75h-51.563v14.063c0,7.753-6.309,14.063-14.063,14.063
			s-14.063-6.309-14.063-14.063V126.564c0-5.297-1.833-10.134-4.809-14.063h70.434c7.753,0,14.063,6.309,14.063,14.063v32.813h9.375
			v-32.813c0-12.923-10.514-23.438-23.438-23.438h-63.741c-5.461-8.719-12.511-16.289-20.775-22.294
			c2.934-2.578,4.828-6.314,4.828-10.519c0-7.045-5.222-12.844-11.991-13.852c7.716-9.169,11.991-20.719,11.991-33.023v-9.375
			c0.002-7.753-6.307-14.062-14.06-14.062s-14.063,6.309-14.063,14.063c0,2.583-2.1,4.688-4.688,4.688s-4.688-2.105-4.688-4.688
			C93.75,6.31,87.441,0.001,79.688,0.001S65.625,6.31,65.625,14.064c0,2.583-2.1,4.688-4.688,4.688s-4.688-2.105-4.688-4.688
			C56.25,6.31,49.941,0.001,42.188,0.001S28.125,6.31,28.125,14.064v9.375c0,12.305,4.275,23.855,11.991,33.023
			c-6.764,1.008-11.991,6.806-11.991,13.852c0,4.205,1.894,7.936,4.823,10.519C12.427,95.715,0,119.626,0,145.314
			c0,36.895,25.416,68.77,60.938,77.339v16.411c0,12.923,10.514,23.438,23.438,23.438h51.563v4.688
			c0,12.923,10.514,23.438,23.438,23.438H267.19c12.923,0,23.438-10.514,23.438-23.438v-14.063L234.375,253.126L234.375,253.126z
			 M37.5,14.064c0-2.583,2.1-4.688,4.688-4.688s4.688,2.105,4.688,4.688c0,7.753,6.309,14.063,14.063,14.063S75,21.817,75,14.064
			c0-2.583,2.1-4.688,4.688-4.688s4.688,2.105,4.688,4.688c0,7.753,6.309,14.063,14.063,14.063s14.061-6.31,14.061-14.063
			c0-2.583,2.1-4.688,4.688-4.688s4.688,2.105,4.688,4.688v9.375c0,12.872-5.723,24.745-15.755,32.813H53.255
			C43.223,48.184,37.5,36.31,37.5,23.439V14.064z M42.188,65.626h7.903h59.198h7.898c2.588,0,4.688,2.105,4.688,4.688
			s-2.1,4.687-4.687,4.687h-0.005H42.192h-0.005c-2.587,0-4.687-2.105-4.687-4.687S39.6,65.626,42.188,65.626z M9.375,145.314
			c0-25.148,13.481-48.384,35.259-60.938h70.102c8.236,4.748,15.384,11.156,21.094,18.75h-13.955
			c-12.923,0-23.438,10.514-23.438,23.438v4.688H46.875v9.375c7.753,0,14.063,6.309,14.063,14.063v58.341
			C30.745,204.714,9.375,177.104,9.375,145.314z M70.313,239.064v-84.375c0-5.297-1.833-10.134-4.809-14.063h32.934v98.438
			c0,7.753-6.309,14.063-14.063,14.063S70.313,246.816,70.313,239.064z M103.003,253.126c2.977-3.928,4.809-8.766,4.809-14.063
			v-112.5c0-7.753,6.309-14.063,14.063-14.063s14.063,6.309,14.063,14.063v126.563H103.003z M281.25,267.188
			c0,7.753-6.309,14.063-14.063,14.063h-89.072c2.948-3.919,4.697-8.789,4.697-14.063V262.5h98.438L281.25,267.188L281.25,267.188z"
			/>
		<rect x="154.688" y="210.939" style="fill:#fff;" width="60.938" height="9.375"/>
		<rect x="164.063" y="229.689" style="fill:#fff;" width="51.563" height="9.375"/>
		<path style="fill:#d22780;" d="M276.563,93.751c-7.753,0-14.063,6.309-14.063,14.063c0,2.7,0.802,5.203,2.128,7.345
			l-25.683,40.355c-1.439-0.497-2.963-0.825-4.57-0.825c-2.766,0-5.33,0.83-7.509,2.217l-12.009-7.205
			c0.459-1.392,0.769-2.845,0.769-4.387c0-7.753-6.309-14.063-14.063-14.063S187.5,137.56,187.5,145.314
			c0,2.386,0.652,4.598,1.702,6.567l-14.981,17.977c-1.683-0.712-3.53-1.106-5.47-1.106c-7.753,0-14.063,6.309-14.063,14.063
			s6.309,14.063,14.063,14.063s14.063-6.309,14.063-14.063c0-2.386-0.652-4.598-1.702-6.567l14.981-17.977
			c1.683,0.712,3.53,1.106,5.47,1.106c2.766,0,5.33-0.83,7.509-2.217l12.009,7.205c-0.459,1.392-0.769,2.845-0.769,4.387
			c0,7.753,6.309,14.063,14.063,14.063s14.063-6.309,14.063-14.063c0-2.7-0.802-5.203-2.128-7.345l25.683-40.355
			c1.439,0.497,2.962,0.825,4.57,0.825c7.753,0,14.063-6.309,14.063-14.063S284.316,93.751,276.563,93.751z M168.75,187.501
			c-2.587,0-4.688-2.1-4.688-4.688s2.1-4.688,4.688-4.688s4.688,2.1,4.688,4.688S171.337,187.501,168.75,187.501z M196.875,145.314
			c0-2.587,2.1-4.688,4.688-4.688s4.688,2.1,4.688,4.688s-2.1,4.688-4.688,4.688S196.875,147.9,196.875,145.314z M234.375,173.439
			c-2.587,0-4.688-2.1-4.688-4.688s2.1-4.688,4.688-4.688s4.688,2.1,4.688,4.688S236.962,173.439,234.375,173.439z M276.563,112.501
			c-2.587,0-4.688-2.1-4.688-4.688s2.1-4.688,4.688-4.688s4.688,2.1,4.688,4.688S279.15,112.501,276.563,112.501z"/>
	</g>
</g>
<g>
</g>
<g>
</g>
<g>
</g>
<g>
</g>
<g>
</g>
<g>
</g>
<g>
</g>
<g>
</g>
<g>
</g>
<g>
</g>
<g>
</g>
<g>
</g>
<g>
</g>
<g>
</g>
<g>
</g>
</svg>
