<?xml version="1.0" encoding="iso-8859-1"?>
<!-- Generator: Adobe Illustrator 19.0.0, SVG Export Plug-In . SVG Version: 6.00 Build 0)  -->
<svg version="1.1" id="Layer_1" xmlns="http://www.w3.org/2000/svg" xmlns:xlink="http://www.w3.org/1999/xlink" x="0px" y="0px"
	 viewBox="0 0 290.625 290.625" style="enable-background:new 0 0 290.625 290.625;" xml:space="preserve">
<g>
	<g>
		<path style="fill:#fff;" d="M271.875,117.187h18.75V89.062h-15.089l-4.688-18.75H19.777l-4.687,18.75H0v28.125h18.75v51.563
			v23.438v65.625H0v28.125h290.625v-28.125h-18.75v-62.245l5.048,1.683l13.702-6.853v-18.459l-19.017-26.625h0.267V117.187z
			 M27.098,79.687h236.428l2.344,9.375H24.755L27.098,79.687z M9.375,107.812v-9.375h3.37h265.134h3.37v9.375h-9.375H262.5H28.125
			H18.75H9.375z M262.5,117.187v18.75H126.562h-7.284H28.125v-18.75H262.5z M257.812,184.125l-9.375,3.127l-9.375-3.127v-6.848
			l-11.986-31.964h13.777l16.959,33.919V184.125z M103.125,257.812v-62.728l4.327,2.166l9.736-3.248v63.811h-14.063V257.812z
			 M103.125,179.47l21.347-34.158h2.091h6.478l-15.853,31.706v7.106l-9.014,3.005l-5.048-2.527v-1.791v-3.341H103.125z
			 M93.75,182.812H42.187H28.125v-4.688H93.75V182.812z M51.562,192.187H93.75v65.625H51.562V192.187z M126.562,179.231
			l16.959-33.919h13.777l-11.986,31.959v6.848l-9.375,3.127l-9.375-3.127L126.562,179.231L126.562,179.231z M217.064,145.312
			l12.623,33.666v5.147l-9.375,3.127l-9.375-3.127v-6l-4.069-32.813H217.064z M197.423,145.312l4.139,33.108v5.705l-9.375,3.127
			l-9.375-3.127v-5.705l4.139-33.108H197.423z M173.475,177.544l-0.023,6.577l-9.389,3.127l-9.375-3.127v-5.147l12.623-33.661
			h10.191L173.475,177.544z M150,192.44l14.062,4.688l14.062-4.688l14.062,4.688l14.062-4.688l14.062,4.688l14.062-4.688
			l4.687,1.561v40.373H150V192.44z M28.125,145.312h85.294L98.77,168.75H28.125V145.312z M28.125,192.187h14.062v65.625H28.125
			V192.187z M281.25,276.562H9.375v-9.375h9.375h9.375h14.062h60.937H281.25V276.562z M262.5,257.812H126.562v-63.811l9.375,3.127
			l4.687-1.561v48.183h107.812v-46.622l14.062-4.688v65.372H262.5z M281.25,184.603l-5.048,2.522l-9.014-3.005v-7.106
			l-15.853-31.702h8.752l21.164,29.625v9.666H281.25z"/>
		<path style="fill:#d22780;" d="M248.437,79.687H42.187V18.75c0-7.753,6.309-14.062,14.062-14.062h178.125
			c7.753,0,14.062,6.309,14.062,14.062v60.937H248.437z"/>
		<path style="fill:#fff;" d="M79.687,56.25H75c-2.583,0-4.687-2.105-4.687-4.688h-9.375c0,7.753,6.309,14.062,14.062,14.062
			h4.687c7.753,0,14.062-6.309,14.062-14.062S87.44,37.5,79.687,37.5H75c-2.583,0-4.687-2.105-4.687-4.688s2.105-4.688,4.687-4.688
			h4.687c2.583,0,4.687,2.105,4.687,4.688h9.375c0-7.753-6.309-14.063-14.062-14.063H75c-7.753,0-14.062,6.309-14.062,14.063
			S67.247,46.875,75,46.875h4.687c2.583,0,4.687,2.105,4.687,4.688C84.375,54.145,82.27,56.25,79.687,56.25z"/>
		<polygon style="fill:#fff;" points="112.5,46.875 131.25,46.875 131.25,65.625 140.625,65.625 140.625,18.75 131.25,18.75 
			131.25,37.5 112.5,37.5 112.5,18.75 103.125,18.75 103.125,65.625 112.5,65.625 		"/>
		<path style="fill:#fff;" d="M168.75,65.625c10.341,0,18.75-8.409,18.75-18.75V37.5c0-10.341-8.409-18.75-18.75-18.75
			S150,27.159,150,37.5v9.375C150,57.215,158.409,65.625,168.75,65.625z M159.375,37.5c0-5.17,4.205-9.375,9.375-9.375
			s9.375,4.205,9.375,9.375v9.375c0,5.17-4.205,9.375-9.375,9.375s-9.375-4.205-9.375-9.375V37.5z"/>
		<path style="fill:#fff;" d="M206.25,46.875h9.375c7.753,0,14.062-6.309,14.062-14.063s-6.309-14.063-14.062-14.063h-18.75
			v46.875h9.375V46.875z M206.25,28.125h9.375c2.583,0,4.687,2.105,4.687,4.688s-2.105,4.688-4.687,4.688h-9.375V28.125z"/>
	</g>
</g>
<g>
</g>
<g>
</g>
<g>
</g>
<g>
</g>
<g>
</g>
<g>
</g>
<g>
</g>
<g>
</g>
<g>
</g>
<g>
</g>
<g>
</g>
<g>
</g>
<g>
</g>
<g>
</g>
<g>
</g>
</svg>
