<?xml version="1.0" encoding="iso-8859-1"?>
<!-- Generator: Adobe Illustrator 19.0.0, SVG Export Plug-In . SVG Version: 6.00 Build 0)  -->
<svg version="1.1" id="Layer_1" xmlns="http://www.w3.org/2000/svg" xmlns:xlink="http://www.w3.org/1999/xlink" x="0px" y="0px"
	 viewBox="0 0 291.375 291.375" style="enable-background:new 0 0 291.375 291.375;" xml:space="preserve">
<g>
	<g>
		<path style="fill:#fff;" d="M271.903,37.875h-45.834c-8.489-21.905-29.733-37.5-54.6-37.5c-8.316,0-16.214,1.767-23.386,4.903
			c-7.242-3.159-15.192-4.903-23.489-4.903c-24.431,0-45.942,14.944-54.623,37.5h-4.345H19.472L0,291h85.097h9.028h197.25
			L271.903,37.875z M171.469,9.75c19.584,0,36.483,11.527,44.4,28.125h-36.652c-4.172-10.847-11.292-19.936-20.306-26.442
			C162.928,10.373,167.123,9.75,171.469,9.75z M169.031,37.875h-41.963c4.495-9.417,11.841-17.222,20.981-22.186
			C157.102,20.588,164.498,28.28,169.031,37.875z M124.594,9.75c4.387,0,8.658,0.6,12.745,1.688
			c-9.164,6.6-16.331,15.755-20.47,26.438H94.125H80.156C88.209,20.831,105.319,9.75,124.594,9.75z M66.347,47.25l17.447,226.786
			l-31.856-31.852V47.25H66.347z M47.25,250.753l30.872,30.872H16.378L47.25,250.753z M28.153,47.25h14.409v194.934L10.71,274.036
			L28.153,47.25z M93.778,281.625L75.75,47.25h18.375h19.931c-0.773,3.787-1.181,7.706-1.181,11.719v3.206
			c-5.442,1.941-9.375,7.097-9.375,13.2c0,7.753,6.309,14.063,14.063,14.063s14.063-6.309,14.063-14.063
			c0-6.103-3.933-11.259-9.375-13.2v-3.206c0-4.045,0.544-7.955,1.467-11.719h95.498c0.928,3.764,1.472,7.673,1.472,11.719v3.206
			c-5.442,1.941-9.375,7.097-9.375,13.2c0,7.753,6.309,14.063,14.063,14.063s14.063-6.309,14.063-14.063
			c0-6.103-3.933-11.259-9.375-13.2v-3.206c0-4.013-0.408-7.931-1.181-11.719h34.341l18.028,234.375H94.125H93.778z M122.25,75.375
			c0,2.583-2.105,4.688-4.688,4.688s-4.688-2.105-4.688-4.688s2.105-4.688,4.688-4.688S122.25,72.792,122.25,75.375z
			 M230.063,75.375c0,2.583-2.105,4.688-4.688,4.688s-4.688-2.105-4.688-4.688s2.105-4.688,4.688-4.688
			S230.063,72.792,230.063,75.375z"/>
		<g>
			<polygon style="fill:#d22780;" points="248.813,183.188 112.875,183.188 108.188,126.938 244.125,126.938 			"/>
		</g>
	</g>
</g>
<g>
</g>
<g>
</g>
<g>
</g>
<g>
</g>
<g>
</g>
<g>
</g>
<g>
</g>
<g>
</g>
<g>
</g>
<g>
</g>
<g>
</g>
<g>
</g>
<g>
</g>
<g>
</g>
<g>
</g>
</svg>
