<?xml version="1.0" encoding="iso-8859-1"?>
<!-- Generator: Adobe Illustrator 19.0.0, SVG Export Plug-In . SVG Version: 6.00 Build 0)  -->
<svg version="1.1" id="Layer_1" xmlns="http://www.w3.org/2000/svg" xmlns:xlink="http://www.w3.org/1999/xlink" x="0px" y="0px"
	 viewBox="0 0 290.624 290.624" style="enable-background:new 0 0 290.624 290.624;" xml:space="preserve">
<g>
	<g>
		<path style="fill:#d22780;" d="M23.438,91.406c0-49.186,39.877-89.063,89.063-89.063c27.666,0,52.383,12.614,68.719,32.4
			l-45.281,56.662L23.438,91.406L23.438,91.406z"/>
		<path style="fill:#fff;" d="M271.875,86.719h-87.291l39.717-51.066c6.577-8.456,5.123-20.775-3.239-27.469
			c-4.148-3.314-9.328-4.8-14.611-4.181c-5.273,0.623-9.975,3.277-13.233,7.467l-38.812,49.903
			c-2.114-17.386-16.931-30.905-34.875-30.905h-2.344V16.406h-9.375v14.063h-2.344c-19.387,0-35.156,15.769-35.156,35.156
			c0,7.772,2.545,15.103,7.069,21.094H18.75C8.409,86.719,0,95.128,0,105.469s8.409,18.75,18.75,18.75h0.384L32.24,277.083
			c0.544,6.384,5.784,11.198,12.192,11.198h201.755c6.408,0,11.648-4.814,12.197-11.198l13.106-152.864h0.384
			c10.341,0,18.75-8.409,18.75-18.75S282.216,86.719,271.875,86.719z M200.611,17.231c1.711-2.198,4.177-3.586,6.933-3.909
			c2.77-0.342,5.484,0.45,7.655,2.189c4.387,3.506,5.147,9.961,1.702,14.395l-50.691,65.17c-3.197-6.394-9.15-11.166-16.359-12.586
			L200.611,17.231z M145.313,91.406c7.753,0,14.063,6.309,14.063,14.063s-6.309,14.063-14.063,14.063s-14.063-6.309-14.063-14.063
			C131.25,97.715,137.559,91.406,145.313,91.406z M79.688,65.625c0-14.217,11.569-25.781,25.781-25.781h14.063
			c14.212,0,25.781,11.564,25.781,25.781v2.344h3.961l-12.15,15.619c-2.128,0.802-4.087,1.898-5.873,3.248v-0.117H90.778
			C83.831,81.881,79.688,74.105,79.688,65.625z M9.375,105.469c0-5.17,4.205-9.375,9.375-9.375h105.112
			c-1.266,2.878-1.987,6.037-1.987,9.375s0.722,6.497,1.987,9.375H18.75C13.58,114.844,9.375,110.639,9.375,105.469z
			 M249.047,276.286c-0.127,1.495-1.355,2.62-2.855,2.62H44.433c-1.5,0-2.728-1.125-2.855-2.625L28.542,124.219H131.25v-0.122
			c3.928,2.977,8.766,4.809,14.063,4.809s10.134-1.833,14.063-4.809v0.122h102.708L249.047,276.286z M271.875,114.844H166.762
			c1.022-2.33,1.589-4.88,1.8-7.528l8.728-11.222h94.584c5.17,0,9.375,4.205,9.375,9.375S277.045,114.844,271.875,114.844z"/>
		<rect x="46.875" y="147.656" style="fill:#fff;" width="196.875" height="9.375"/>
		<rect x="51.563" y="180.469" style="fill:#fff;" width="187.5" height="9.375"/>
		<rect x="56.25" y="213.281" style="fill:#fff;" width="178.125" height="9.375"/>
		<rect x="60.938" y="246.094" style="fill:#fff;" width="168.75" height="9.375"/>
	</g>
</g>
<g>
</g>
<g>
</g>
<g>
</g>
<g>
</g>
<g>
</g>
<g>
</g>
<g>
</g>
<g>
</g>
<g>
</g>
<g>
</g>
<g>
</g>
<g>
</g>
<g>
</g>
<g>
</g>
<g>
</g>
</svg>
