<?xml version="1.0" encoding="iso-8859-1"?>
<!-- Generator: Adobe Illustrator 19.0.0, SVG Export Plug-In . SVG Version: 6.00 Build 0)  -->
<svg version="1.1" id="Layer_1" xmlns="http://www.w3.org/2000/svg" xmlns:xlink="http://www.w3.org/1999/xlink" x="0px" y="0px"
	 viewBox="0 0 290.625 290.625" style="enable-background:new 0 0 290.625 290.625;" xml:space="preserve">
<g>
	<g>
		<path style="fill:#d22780;" d="M112.5,206.25H18.75v-79.688h93.75V206.25z"/>
		<path style="fill:#fff;" d="M243.75,126.563v-9.375c0-12.923-10.514-23.438-23.437-23.438H187.5V75v-4.688v-37.5h-46.875
			v-9.375C140.625,10.514,130.111,0,117.188,0H70.313C57.389,0,46.875,10.514,46.875,23.438v9.375H0v37.5V75v187.5h103.125v28.125
			h187.5V168.75v-4.688v-37.5H243.75V126.563z M272.573,135.938L254.995,150l17.578,14.063h-29.302
			c-2.18-10.683-11.644-18.75-22.964-18.75h-46.87c-11.316,0-20.784,8.067-22.964,18.75h-29.302L138.75,150l-17.578-14.063H150
			h9.375h75h9.375h28.823V135.938z M281.25,141v17.995L270.004,150L281.25,141z M243.75,196.875c0,2.583-2.105,4.688-4.688,4.688
			c-2.583,0-4.687-2.105-4.687-4.688s2.105-4.688,4.687-4.688C241.645,192.188,243.75,194.292,243.75,196.875z M233.512,164.063
			h-73.275c1.941-5.442,7.097-9.375,13.2-9.375h46.875C226.415,154.688,231.572,158.62,233.512,164.063z M159.375,196.875
			c0,2.583-2.105,4.688-4.687,4.688c-2.583,0-4.688-2.105-4.688-4.688s2.105-4.688,4.688-4.688
			C157.27,192.188,159.375,194.292,159.375,196.875z M123.745,150l-11.245,9v-18L123.745,150z M159.375,126.563v-9.375
			c0-7.753,6.309-14.063,14.062-14.063h4.687v23.438H159.375z M220.312,103.125c7.753,0,14.062,6.309,14.062,14.063v9.375H187.5
			v-23.438H220.312z M178.125,65.25l-11.245-9l11.245-9V65.25z M56.25,23.438c0-7.753,6.309-14.063,14.062-14.063h46.875
			c7.753,0,14.062,6.309,14.062,14.063v9.375h-75v-9.375H56.25z M56.25,42.188h75h9.375h28.823L151.87,56.25l17.578,14.063h-29.302
			c-2.18-10.683-11.644-18.75-22.964-18.75h-46.87c-11.316,0-20.784,8.067-22.964,18.75H18.052L35.63,56.25L18.052,42.188h28.823
			H56.25z M140.625,103.125c0,2.583-2.105,4.688-4.688,4.688s-4.687-2.105-4.687-4.688s2.105-4.688,4.687-4.688
			S140.625,100.542,140.625,103.125z M130.388,70.313H57.113c1.941-5.442,7.097-9.375,13.2-9.375h46.875
			C123.291,60.938,128.447,64.87,130.388,70.313z M56.25,103.125c0,2.583-2.105,4.688-4.687,4.688s-4.687-2.105-4.687-4.688
			s2.105-4.688,4.687-4.688S56.25,100.542,56.25,103.125z M20.621,56.25l-11.245,9v-18L20.621,56.25z M9.375,253.125V79.688h37.5
			v10.238c-5.442,1.941-9.375,7.097-9.375,13.2c0,7.753,6.309,14.063,14.062,14.063s14.062-6.309,14.062-14.063
			c0-6.103-3.933-11.259-9.375-13.2V79.688h75v10.238c-5.442,1.941-9.375,7.097-9.375,13.2c0,7.753,6.309,14.063,14.062,14.063
			S150,110.878,150,103.125c0-6.103-3.933-11.259-9.375-13.2V79.688h37.5V93.75h-4.687c-12.923,0-23.437,10.514-23.437,23.438v9.375
			h-46.875v37.5v4.688v84.375H9.375V253.125z M281.25,281.25H112.5V173.438H150v10.237c-5.442,1.941-9.375,7.097-9.375,13.2
			c0,7.753,6.309,14.063,14.062,14.063s14.062-6.309,14.062-14.063c0-6.103-3.933-11.259-9.375-13.2v-10.237h75v10.237
			c-5.442,1.941-9.375,7.097-9.375,13.2c0,7.753,6.309,14.063,14.062,14.063c7.753,0,14.062-6.309,14.062-14.063
			c0-6.103-3.933-11.259-9.375-13.2v-10.237h37.5V281.25H281.25z"/>
	</g>
</g>
<g>
</g>
<g>
</g>
<g>
</g>
<g>
</g>
<g>
</g>
<g>
</g>
<g>
</g>
<g>
</g>
<g>
</g>
<g>
</g>
<g>
</g>
<g>
</g>
<g>
</g>
<g>
</g>
<g>
</g>
</svg>
