<?xml version="1.0" encoding="iso-8859-1"?>
<!-- Generator: Adobe Illustrator 19.0.0, SVG Export Plug-In . SVG Version: 6.00 Build 0)  -->
<svg version="1.1" id="Capa_1" xmlns="http://www.w3.org/2000/svg" xmlns:xlink="http://www.w3.org/1999/xlink" x="0px" y="0px"
	 viewBox="0 0 496 496" style="enable-background:new 0 0 496 496;" xml:space="preserve">
<g>
	<polygon style="fill:#fff;" points="240,216 256,216 256,196.28 300.44,166.656 291.56,153.344 256,177.056 256,156 
		284.8,134.4 275.2,121.6 256,136 256,108.28 276.44,94.656 267.56,81.344 256,89.056 256,64 240,64 240,89.056 228.44,81.344 
		219.56,94.656 240,108.28 240,136 220.8,121.6 211.2,134.4 240,156 240,177.056 204.44,153.344 195.56,166.656 240,196.28 	"/>
	<polygon style="fill:#fff;" points="177.936,233.776 144.512,260.176 154.44,272.736 196.256,239.696 214.928,245.728 
		219.848,230.496 201.312,224.512 186.84,172.992 171.44,177.32 183.04,218.608 163.032,212.144 151.336,177.896 136.192,183.072 
		144.032,206 117.664,197.488 110.952,173.568 95.544,177.896 99.392,191.584 74.464,183.528 69.536,198.752 94.104,206.688 
		83.456,215.104 93.376,227.664 112.424,212.608 138.816,221.136 119.384,234.808 128.584,247.896 157.864,227.288 	"/>
	<polygon style="fill:#fff;" points="195.704,366.248 211,361.536 200.656,328 212.968,310.624 227.608,350.184 242.608,344.632 
		224.168,294.816 235.72,278.512 222.656,269.264 211.4,285.152 157.768,282.992 157.128,298.976 200.376,300.72 188.328,317.712 
		151.456,318.272 151.704,334.272 176.872,333.888 160.928,356.4 134.856,355.344 134.216,371.328 149.896,371.96 133.312,395.376 
		146.376,404.624 161.68,383.016 165.864,394.328 180.864,388.776 172.888,367.2 188.992,344.464 	"/>
	<polygon style="fill:#fff;" points="362.688,395.376 346.104,371.96 361.784,371.328 361.144,355.344 335.072,356.4 
		319.128,333.888 344.296,334.272 344.544,318.272 307.672,317.712 295.624,300.72 338.872,298.976 338.232,282.992 284.6,285.152 
		273.344,269.264 260.28,278.512 271.832,294.816 253.392,344.632 268.392,350.184 283.032,310.624 295.344,328 285,361.536 
		300.296,366.248 307.008,344.464 323.112,367.2 315.136,388.776 330.136,394.328 334.32,383.016 349.624,404.624 	"/>
	<polygon style="fill:#fff;" points="276.152,230.496 281.072,245.728 299.744,239.696 341.56,272.736 351.488,260.176 
		318.064,233.776 338.136,227.288 367.416,247.896 376.616,234.808 357.184,221.136 383.576,212.608 402.624,227.664 
		412.544,215.104 401.896,206.688 426.464,198.752 421.536,183.528 396.608,191.584 400.456,177.896 385.048,173.568 
		378.336,197.488 351.968,206 359.808,183.072 344.664,177.896 332.968,212.144 312.96,218.608 324.56,177.32 309.16,172.992 
		294.688,224.512 	"/>
	<rect x="440" style="fill:#fff;" width="16" height="24"/>
	
		<rect x="414.555" y="10.566" transform="matrix(-0.7072 0.707 -0.707 -0.7072 737.3437 -260.2245)" style="fill:#fff;" width="16" height="24"/>
	<rect x="400" y="40" style="fill:#fff;" width="24" height="16"/>
	
		<rect x="410.551" y="65.469" transform="matrix(-0.7071 0.7071 -0.7071 -0.7071 773.2889 -173.3696)" style="fill:#fff;" width="24" height="16"/>
	<rect x="440" y="72" style="fill:#fff;" width="16" height="24"/>
	
		<rect x="465.448" y="61.476" transform="matrix(-0.7072 0.707 -0.707 -0.7072 860.2209 -209.2928)" style="fill:#fff;" width="16" height="24"/>
	<rect x="472" y="40" style="fill:#fff;" width="24" height="16"/>
	
		<rect x="461.451" y="14.544" transform="matrix(-0.7071 0.7071 -0.7071 -0.7071 824.1729 -296.2953)" style="fill:#fff;" width="24" height="16"/>
	<rect x="40" y="384" style="fill:#fff;" width="16" height="24"/>
	
		<rect x="14.543" y="394.566" transform="matrix(-0.7072 0.707 -0.707 -0.7072 325.93 678.1548)" style="fill:#fff;" width="16" height="24"/>
	<rect y="424" style="fill:#fff;" width="24" height="16"/>
	
		<rect x="10.55" y="449.443" transform="matrix(-0.7071 0.7071 -0.7071 -0.7071 361.9567 764.9585)" style="fill:#fff;" width="24" height="16"/>
	<rect x="40" y="456" style="fill:#fff;" width="16" height="24"/>
	
		<rect x="65.483" y="445.421" transform="matrix(-0.7072 0.707 -0.707 -0.7072 448.8506 728.9594)" style="fill:#fff;" width="16" height="24"/>
	<rect x="72" y="424" style="fill:#fff;" width="24" height="16"/>
	
		<rect x="61.459" y="398.533" transform="matrix(-0.707 0.7072 -0.7072 -0.707 412.8977 642.0038)" style="fill:#fff;" width="24" height="16"/>
	<rect x="424" y="296" style="fill:#fff;" width="16" height="24"/>
	
		<rect x="398.556" y="306.573" transform="matrix(-0.7072 0.707 -0.707 -0.7072 919.3072 256.4319)" style="fill:#fff;" width="16" height="24"/>
	<rect x="384" y="336" style="fill:#fff;" width="24" height="16"/>
	
		<rect x="394.503" y="361.433" transform="matrix(-0.7071 0.7071 -0.7071 -0.7071 955.1725 343.2195)" style="fill:#fff;" width="24" height="16"/>
	<rect x="424" y="368" style="fill:#fff;" width="16" height="24"/>
	
		<rect x="449.437" y="357.479" transform="matrix(-0.7072 0.707 -0.707 -0.7072 1042.1628 307.3659)" style="fill:#fff;" width="16" height="24"/>
	<rect x="456" y="336" style="fill:#fff;" width="24" height="16"/>
	
		<rect x="445.449" y="310.496" transform="matrix(-0.707 0.7072 -0.7072 -0.707 1006.1117 220.1638)" style="fill:#fff;" width="24" height="16"/>
	<rect x="112" y="40" style="fill:#fff;" width="16" height="24"/>
	
		<rect x="86.546" y="50.55" transform="matrix(-0.7072 0.707 -0.707 -0.7072 205.6324 39.9415)" style="fill:#fff;" width="16" height="24"/>
	<rect x="72" y="80" style="fill:#fff;" width="24" height="16"/>
	
		<rect x="82.543" y="105.461" transform="matrix(-0.7071 0.7071 -0.7071 -0.7071 241.6228 126.8379)" style="fill:#fff;" width="24" height="16"/>
	<rect x="112" y="112" style="fill:#fff;" width="16" height="24"/>
	
		<rect x="137.446" y="101.492" transform="matrix(-0.7072 0.707 -0.707 -0.7072 328.546 90.9222)" style="fill:#fff;" width="16" height="24"/>
	<rect x="144" y="80" style="fill:#fff;" width="24" height="16"/>
	
		<rect x="133.454" y="54.573" transform="matrix(-0.7071 0.7071 -0.7071 -0.7071 292.5519 3.9669)" style="fill:#fff;" width="24" height="16"/>
	<rect x="56" y="280" style="fill:#fff;" width="16" height="16"/>
	<rect x="56" y="312" style="fill:#fff;" width="16" height="16"/>
	<rect x="72" y="296" style="fill:#fff;" width="16" height="16"/>
	<rect x="40" y="296" style="fill:#fff;" width="16" height="16"/>
	<rect x="336" y="56" style="fill:#fff;" width="16" height="16"/>
	<rect x="336" y="88" style="fill:#fff;" width="16" height="16"/>
	<rect x="352" y="72" style="fill:#fff;" width="16" height="16"/>
	<rect x="320" y="72" style="fill:#fff;" width="16" height="16"/>
	<rect x="376" y="448" style="fill:#fff;" width="16" height="16"/>
	<rect x="376" y="480" style="fill:#fff;" width="16" height="16"/>
	<rect x="392" y="464" style="fill:#fff;" width="16" height="16"/>
	<rect x="360" y="464" style="fill:#fff;" width="16" height="16"/>
	<rect x="216" y="408" style="fill:#fff;" width="16" height="16"/>
	<rect x="216" y="440" style="fill:#fff;" width="16" height="16"/>
	<rect x="232" y="424" style="fill:#fff;" width="16" height="16"/>
	<rect x="200" y="424" style="fill:#fff;" width="16" height="16"/>
</g>
<g>
	<path style="fill:#d22780;" d="M248,288c-22.056,0-40-17.944-40-40s17.944-40,40-40s40,17.944,40,40S270.056,288,248,288z"/>
	<circle style="fill:#d22780;" cx="448" cy="48" r="16"/>
	<circle style="fill:#d22780;" cx="432" cy="344" r="16"/>
	<circle style="fill:#d22780;" cx="120" cy="88" r="16"/>
	<circle style="fill:#d22780;" cx="48" cy="432" r="16"/>
</g>
<g>
</g>
<g>
</g>
<g>
</g>
<g>
</g>
<g>
</g>
<g>
</g>
<g>
</g>
<g>
</g>
<g>
</g>
<g>
</g>
<g>
</g>
<g>
</g>
<g>
</g>
<g>
</g>
<g>
</g>
</svg>
