<?xml version="1.0" encoding="iso-8859-1"?>
<!-- Generator: Adobe Illustrator 19.0.0, SVG Export Plug-In . SVG Version: 6.00 Build 0)  -->
<svg version="1.1" id="Capa_1" xmlns="http://www.w3.org/2000/svg" xmlns:xlink="http://www.w3.org/1999/xlink" x="0px" y="0px"
	 viewBox="0 0 496 496" style="enable-background:new 0 0 496 496;" xml:space="preserve">
<g>
	<path style="fill:#d22780;" d="M80,448v-64h30.44L56,296.904L1.56,384H32v88c0,13.232,10.768,24,24,24h96v-48H80z"/>
	<path style="fill:#d22780;" d="M464,112V24c0-13.232-10.768-24-24-24h-96v48h72v64h-30.44L440,199.096L494.44,112H464z"/>
</g>
<path style="fill:#fff;" d="M496,336v-64H389.968c1.32-7.904,2.032-15.936,2.032-24c0-79.4-64.6-144-144-144c-13.664,0-27.056,1.952-40,5.688V80h-24V64
	h24V0H0v64h24v16H0v64h24v16H0v64h106.032c-1.32,7.904-2.032,15.936-2.032,24c0,79.4,64.6,144,144,144
	c13.664,0,27.056-1.952,40-5.688V416h24v16h-24v64h208v-64h-24v-16h24v-64h-24v-16H496z M480,320H304v-32h176V320z M16,16h176v32H16
	V16z M40,64h128v16H40V64z M16,96h176v32H16V96z M40,144h128v16H40V144z M16,176h176v32H16V176z M248,376
	c-70.576,0-128-57.424-128-128c0-8.088,0.968-16.104,2.472-24H208v-64h-24v-16h24v-17.496c12.864-4.232,26.272-6.504,40-6.504
	c70.576,0,128,57.424,128,128c0,8.088-0.968,16.104-2.472,24H288v64h24v16h-24v17.496C275.136,373.728,261.728,376,248,376z
	 M480,480H304v-32h176V480z M456,432H328v-16h128V432z M480,400H304v-32h176V400z M456,352H328v-16h128V352z"/>
<path style="fill:#fff;" d="M344,248c0,2.496-0.096,4.944-0.28,7.384l15.952,1.232c0.216-2.84,0.328-5.72,0.328-8.616
	c0-48.776-31.168-91.608-77.536-106.592l-4.92,15.216C317.288,169.472,344,206.192,344,248z"/>
<path style="fill:#fff;" d="M248,152c4.976,0,9.944,0.384,14.768,1.136l2.472-15.816C259.592,136.448,253.8,136,248,136V152z"/>
<path style="fill:#fff;" d="M152,248c0-2.496,0.096-4.944,0.28-7.384l-15.952-1.232c-0.216,2.84-0.328,5.72-0.328,8.616
	c0,48.776,31.168,91.608,77.536,106.592l4.92-15.216C178.712,326.528,152,289.808,152,248z"/>
<path style="fill:#fff;" d="M230.768,358.68C236.408,359.552,242.2,360,248,360v-16c-4.976,0-9.944-0.384-14.768-1.136L230.768,358.68z"/>
<circle style="fill:#d22780;" cx="248" cy="248" r="48"/>
<g>
</g>
<g>
</g>
<g>
</g>
<g>
</g>
<g>
</g>
<g>
</g>
<g>
</g>
<g>
</g>
<g>
</g>
<g>
</g>
<g>
</g>
<g>
</g>
<g>
</g>
<g>
</g>
<g>
</g>
</svg>
