<?xml version="1.0" encoding="iso-8859-1"?>
<!-- Generator: Adobe Illustrator 19.0.0, SVG Export Plug-In . SVG Version: 6.00 Build 0)  -->
<svg version="1.1" id="Capa_1" xmlns="http://www.w3.org/2000/svg" xmlns:xlink="http://www.w3.org/1999/xlink" x="0px" y="0px"
	 viewBox="0 0 496 496" style="enable-background:new 0 0 496 496;" xml:space="preserve">
<g>
	<path style="fill:#d22780;" d="M248,0c-44.112,0-80,35.888-80,80v40h8c0-13.256,10.744-24,24-24v-8
		c15.368,0,30.104-6.104,40.968-16.968L248,64l7.032,7.032C265.896,81.896,280.632,88,296,88v8c13.256,0,24,10.744,24,24h8V80
		C328,35.888,292.112,0,248,0z"/>
	<path style="fill:#d22780;" d="M112,240c-44.112,0-80,35.888-80,80v40h8c0-13.256,10.744-24,24-24v-16h96v16
		c13.256,0,24,10.744,24,24h8v-40C192,275.888,156.112,240,112,240z"/>
	<path style="fill:#d22780;" d="M384,240c-44.112,0-80,35.888-80,80v40h8c0-13.256,10.744-24,24-24c0-8.84,7.16-16,16-16h64
		c8.84,0,16,7.16,16,16c13.256,0,24,10.744,24,24h8v-40C464,275.888,428.112,240,384,240z"/>
</g>
<path style="fill:#fff;" d="M360,234.232c0-19-13.52-35.504-32.16-39.224L280,185.44v-11.552c8.008-5.6,14.448-13.24,18.648-22.16
	C315.04,150.36,328,136.744,328,120c0-14.872-10.232-27.288-24-30.864V80h-8c-13.336,0-25.88-5.192-35.312-14.624L248,52.688
	l-12.688,12.688C225.88,74.808,213.336,80,200,80h-8v9.136c-13.768,3.576-24,15.992-24,30.864c0,16.744,12.96,30.36,29.352,31.736
	c4.192,8.912,10.64,16.552,18.648,22.152v11.552l-47.84,9.568c-18.64,3.728-32.16,20.224-32.16,39.224V256h224V234.232z M184,120
	c0-5.896,3.24-11,8-13.776V128c0,2.008,0.12,3.992,0.328,5.952C187.392,131.224,184,126.024,184,120z M312,120
	c0,6.024-3.392,11.224-8.328,13.952c0.208-1.96,0.328-3.944,0.328-5.952v-21.776C308.76,109,312,114.104,312,120z M208,128V95.52
	c14.584-1.752,28.08-8.288,38.624-18.832L248,75.312l1.376,1.376C259.92,87.232,273.416,93.776,288,95.52V128
	c0,22.056-17.944,40-40,40S208,150.056,208,128z M248,184c5.56,0,10.928-0.84,16-2.36v7.048l-16,16l-16-16v-7.048
	C237.072,183.16,242.44,184,248,184z M344,240H152v-5.768c0-11.408,8.12-21.304,19.296-23.536l50.072-10.008L248,227.312
	l26.632-26.632l50.072,10.008C335.88,212.928,344,222.832,344,234.232V240z"/>
<path style="fill:#fff;" d="M191.84,435.008L144,425.44v-11.552c8.008-5.6,14.448-13.24,18.648-22.16C179.04,390.36,192,376.744,192,360
	c0-14.872-10.232-27.288-24-30.864V312H56v17.136C42.232,332.712,32,345.128,32,360c0,16.744,12.96,30.36,29.352,31.736
	c4.192,8.912,10.64,16.552,18.648,22.152v11.552l-47.84,9.568C13.52,438.736,0,455.232,0,474.232V496h224v-21.768
	C224,455.232,210.48,438.736,191.84,435.008z M176,360c0,6.024-3.392,11.224-8.328,13.952c0.208-1.96,0.328-3.944,0.328-5.952
	v-21.776C172.76,349,176,354.104,176,360z M48,360c0-5.896,3.24-11,8-13.776V368c0,2.008,0.12,3.992,0.328,5.952
	C51.392,371.224,48,366.024,48,360z M72,368v-40h80v40c0,22.056-17.944,40-40,40S72,390.056,72,368z M112,424
	c5.56,0,10.928-0.84,16-2.36v7.048l-16,16l-16-16v-7.048C101.072,423.16,106.44,424,112,424z M208,480H16v-5.768
	c0-11.408,8.12-21.304,19.296-23.536l50.072-10.008L112,467.312l26.632-26.632l50.072,10.008
	C199.88,452.928,208,462.832,208,474.232V480z"/>
<path style="fill:#fff;" d="M463.84,435.008L416,425.44v-11.552c8.008-5.6,14.448-13.24,18.648-22.16C451.04,390.36,464,376.744,464,360
	c0-15.328-10.832-28.136-25.24-31.248C435.664,319.072,426.688,312,416,312h-64c-10.688,0-19.664,7.072-22.76,16.752
	C314.832,331.864,304,344.672,304,360c0,16.744,12.96,30.36,29.352,31.736c4.192,8.912,10.64,16.552,18.648,22.152v11.552
	l-47.84,9.568c-18.64,3.728-32.16,20.224-32.16,39.224V496h224v-21.768C496,455.232,482.48,438.736,463.84,435.008z M448,360
	c0,6.024-3.392,11.224-8.328,13.952c0.208-1.96,0.328-3.944,0.328-5.952v-21.776C444.76,349,448,354.104,448,360z M320,360
	c0-5.896,3.24-11,8-13.776V368c0,2.008,0.12,3.992,0.328,5.952C323.392,371.224,320,366.024,320,360z M344,368v-32
	c0-4.416,3.584-8,8-8h64c4.416,0,8,3.584,8,8v32c0,22.056-17.944,40-40,40S344,390.056,344,368z M384,424
	c5.56,0,10.928-0.84,16-2.36V432c0,8.824-7.176,16-16,16s-16-7.176-16-16v-10.36C373.072,423.16,378.44,424,384,424z M480,480H288
	v-5.768c0-11.408,8.12-21.304,19.296-23.536l46.288-9.256C357.64,454.464,369.656,464,384,464s26.36-9.536,30.416-22.56
	l46.288,9.256C471.88,452.928,480,462.832,480,474.232V480z"/>
<polygon style="fill:#fff;" points="280,376 280,360 256,360 256,336 240,336 240,360 216,360 216,376 240,376 240,400 256,400 256,376 "/>
<rect style="fill:#fff;" x="240" y="304" width="16" height="16"/>
<rect style="fill:#fff;" x="240" y="272" width="16" height="16"/>
<polygon style="fill:#fff;" points="80,144 96,144 96,120 120,120 120,104 96,104 96,80 80,80 80,104 56,104 56,120 80,120 "/>
<rect style="fill:#fff;" x="80" y="160" width="16" height="16"/>
<rect style="fill:#fff;" x="80" y="192" width="16" height="16"/>
<polygon style="fill:#fff;" points="400,144 416,144 416,120 440,120 440,104 416,104 416,80 400,80 400,104 376,104 376,120 400,120 "/>
<rect style="fill:#fff;" x="400" y="160" width="16" height="16"/>
<rect style="fill:#fff;" x="400" y="192" width="16" height="16"/>
<g>
</g>
<g>
</g>
<g>
</g>
<g>
</g>
<g>
</g>
<g>
</g>
<g>
</g>
<g>
</g>
<g>
</g>
<g>
</g>
<g>
</g>
<g>
</g>
<g>
</g>
<g>
</g>
<g>
</g>
</svg>
