<?xml version="1.0" encoding="iso-8859-1"?>
<!-- Generator: Adobe Illustrator 19.0.0, SVG Export Plug-In . SVG Version: 6.00 Build 0)  -->
<svg version="1.1" id="Capa_1" xmlns="http://www.w3.org/2000/svg" xmlns:xlink="http://www.w3.org/1999/xlink" x="0px" y="0px"
	 viewBox="0 0 496 496" style="enable-background:new 0 0 496 496;" xml:space="preserve">
<g style="fill:#d22780;">
	<path d="M216,320v-8h-16v-48c0-8.84,7.16-16,16-16v-32H88v144h88h40h96v-40H216z"/>
	<polygon points="88,48 88,192 216,192 216,160 312,136 312,48 	"/>
</g>
<g style="fill:#ffffff;">
	<path d="M482.048,150.376L360,121.664V0H48C21.528,0,0,21.528,0,48v400c0,26.472,21.528,48,48,48h312v-16c-17.648,0-32-14.352-32-32
		s14.352-32,32-32v-8v-8v-89.752l96-24v-94.496l26.048-6.128C490.264,183.68,496,176.44,496,168S490.264,152.32,482.048,150.376z
		 M40,17.136V400.72c-9.136,1.544-17.384,5.664-24,11.6V48C16,33.128,26.232,20.712,40,17.136z M324.248,480H48
		c-17.648,0-32-14.352-32-32s14.352-32,32-32h276.248C316.64,424.496,312,435.72,312,448S316.64,471.504,324.248,480z M56,400V16h288
		v105.664l-122.048,28.712C213.736,152.32,208,159.56,208,168v40H88v16h120v17.472c-9.288,3.312-16,12.112-16,22.528v56h48v-56
		c0-10.416-6.712-19.216-16-22.528v-55.368l24,5.648v94.496l96,24V400H56z M224,264v40h-16v-40c0-4.416,3.584-8,8-8
		S224,259.584,224,264z M440,241.76l-17.72,4.432l3.872,15.512L440,258.24v15.504l-88,22l-88-22V258.24l88,22.008l58.072-14.52
		l-3.872-15.512L352,263.752l-88-21.992v-46.24l88,20.704l88-20.704V241.76z M478.376,170.048L352,199.784l-126.376-29.736
		C224.672,169.824,224,168.984,224,168s0.672-1.824,1.624-2.048L352,136.216l126.376,29.736c0.952,0.224,1.624,1.064,1.624,2.048
		S479.328,169.824,478.376,170.048z"/>
	<rect x="88" y="248" width="88" height="16"/>
	<rect x="88" y="280" width="88" height="16"/>
	<rect x="88" y="312" width="88" height="16"/>
	<rect x="88.004" y="344.243" transform="matrix(-1 0.0049 -0.0049 -1 297.7346 703.7578)" width="120.001" height="16"/>
	<rect x="223.997" y="344.252" transform="matrix(-1 0.0061 -0.0061 -1 538.1386 702.8635)" width="88.002" height="16"/>
	<rect x="40" y="440" width="224" height="16"/>
	<rect x="280" y="440" width="16" height="16"/>
</g>
<g>
</g>
<g>
</g>
<g>
</g>
<g>
</g>
<g>
</g>
<g>
</g>
<g>
</g>
<g>
</g>
<g>
</g>
<g>
</g>
<g>
</g>
<g>
</g>
<g>
</g>
<g>
</g>
</svg>
