<?xml version="1.0" encoding="iso-8859-1"?>
<!-- Generator: Adobe Illustrator 19.0.0, SVG Export Plug-In . SVG Version: 6.00 Build 0)  -->
<svg version="1.1" id="Capa_1" xmlns="http://www.w3.org/2000/svg" xmlns:xlink="http://www.w3.org/1999/xlink" x="0px" y="0px"
	 viewBox="0 0 496 496" style="enable-background:new 0 0 496 496;" xml:space="preserve">
<path style="fill:#d22780;" d="M248,368c-39.704,0-72-32.296-72-72s32.296-72,72-72s72,32.296,72,72S287.704,368,248,368z"/>
<g>
	<path style="fill:#fff;" d="M344,0H152c-22.056,0-40,17.944-40,40v416c0,22.056,17.944,40,40,40h192c22.056,0,40-17.944,40-40
		V40C384,17.944,366.056,0,344,0z M144,288h-16v-32h16V288z M144,304v32h-16v-32H144z M344,480H152c-13.232,0-24-10.768-24-24V352
		h32V240h-32V40c0-13.232,10.768-24,24-24h192c13.232,0,24,10.768,24,24v200h-32v112h32v104C368,469.232,357.232,480,344,480z
		 M352,304h16v32h-16V304z M352,288v-32h16v32H352z"/>
	<rect x="208" y="32" style="fill:#fff;" width="80" height="16"/>
	<path style="fill:#fff;" d="M336,64H160v144h176V64z M320,192H176V80h144V192z"/>
	<path style="fill:#fff;" d="M224,257.864v76.264L287.544,296L224,257.864z M240,286.136L256.456,296L240,305.864V286.136z"/>
	<rect x="176" y="384" style="fill:#fff;" width="16" height="16"/>
	<rect x="208" y="384" style="fill:#fff;" width="16" height="16"/>
	<rect x="272" y="384" style="fill:#fff;" width="16" height="16"/>
	<rect x="304" y="384" style="fill:#fff;" width="16" height="16"/>
	<rect x="240" y="384" style="fill:#fff;" width="16" height="16"/>
	<rect x="176" y="416" style="fill:#fff;" width="16" height="16"/>
	<rect x="208" y="416" style="fill:#fff;" width="16" height="16"/>
	<rect x="272" y="416" style="fill:#fff;" width="16" height="16"/>
	<rect x="304" y="416" style="fill:#fff;" width="16" height="16"/>
	<rect x="240" y="416" style="fill:#fff;" width="16" height="16"/>
	<rect x="176" y="448" style="fill:#fff;" width="16" height="16"/>
	<rect x="208" y="448" style="fill:#fff;" width="16" height="16"/>
	<rect x="272" y="448" style="fill:#fff;" width="16" height="16"/>
	<rect x="304" y="448" style="fill:#fff;" width="16" height="16"/>
	<rect x="240" y="448" style="fill:#fff;" width="16" height="16"/>
</g>
<g>
</g>
<g>
</g>
<g>
</g>
<g>
</g>
<g>
</g>
<g>
</g>
<g>
</g>
<g>
</g>
<g>
</g>
<g>
</g>
<g>
</g>
<g>
</g>
<g>
</g>
<g>
</g>
<g>
</g>
</svg>
