<?xml version="1.0" encoding="iso-8859-1"?>
<!-- Generator: Adobe Illustrator 19.0.0, SVG Export Plug-In . SVG Version: 6.00 Build 0)  -->
<svg version="1.1" id="Layer_1" xmlns="http://www.w3.org/2000/svg" xmlns:xlink="http://www.w3.org/1999/xlink" x="0px" y="0px"
	 viewBox="0 0 290.625 290.625" style="enable-background:new 0 0 290.625 290.625;" xml:space="preserve">
<g>
	<g>
		<path style="fill:#d22780;" d="M239.062,105.469c0-7.767-6.295-14.063-14.062-14.063s-14.063,6.295-14.063,14.063
			c0,4.148,1.828,7.837,4.688,10.411v102.089h18.75V115.88C237.234,113.306,239.062,109.617,239.062,105.469z"/>
		<path style="fill:#d22780;" d="M79.687,105.469c0-7.767-6.295-14.063-14.062-14.063s-14.062,6.295-14.062,14.063
			c0,4.148,1.828,7.837,4.687,10.411v102.089H75V115.88C77.859,113.306,79.687,109.617,79.687,105.469z"/>
		<path style="fill:#fff;" d="M253.125,288.281H37.5c-20.677,0-37.5-16.823-37.5-37.5s16.823-37.5,37.5-37.5h215.625
			c20.677,0,37.5,16.823,37.5,37.5S273.801,288.281,253.125,288.281z M37.5,222.656c-15.511,0-28.125,12.614-28.125,28.125
			s12.614,28.125,28.125,28.125h215.625c15.511,0,28.125-12.614,28.125-28.125s-12.614-28.125-28.125-28.125H37.5z"/>
		<rect x="243.75" y="260.156" style="fill:#fff;" width="9.375" height="9.375"/>
		<rect x="225" y="260.156" style="fill:#fff;" width="9.375" height="9.375"/>
		<rect x="206.25" y="260.156" style="fill:#fff;" width="9.375" height="9.375"/>
		<path style="fill:#fff;" d="M121.875,264.844H42.187c-7.753,0-14.062-6.309-14.062-14.063c0-7.753,6.309-14.063,14.062-14.063
			h79.687c7.753,0,14.062,6.309,14.062,14.063C135.937,258.534,129.628,264.844,121.875,264.844z M42.187,246.094
			c-2.583,0-4.687,2.1-4.687,4.688s2.105,4.688,4.687,4.688h79.687c2.583,0,4.688-2.1,4.688-4.688s-2.105-4.688-4.688-4.688H42.187z
			"/>
		<path style="fill:#fff;" d="M277.345,84.984C268.833,63.258,248.287,49.219,225,49.219s-43.833,14.039-52.345,35.766
			l-8.728-3.417c9.928-25.345,33.9-41.723,61.073-41.723s51.145,16.378,61.073,41.723L277.345,84.984z"/>
		<path style="fill:#fff;" d="M255.534,93.52C250.57,80.845,238.58,72.656,225,72.656s-25.57,8.189-30.534,20.864l-8.728-3.417
			C192.122,73.809,207.53,63.281,225,63.281s32.878,10.528,39.262,26.827L255.534,93.52z"/>
		<path style="fill:#fff;" d="M117.97,84.984c-8.512-21.727-29.058-35.766-52.345-35.766S21.792,63.258,13.28,84.984
			l-8.728-3.417c9.928-25.345,33.9-41.723,61.073-41.723s51.145,16.378,61.073,41.723L117.97,84.984z"/>
		<path style="fill:#fff;" d="M96.159,93.52c-4.964-12.675-16.955-20.864-30.534-20.864s-25.57,8.189-30.534,20.864l-8.728-3.417
			c6.384-16.294,21.792-26.822,39.262-26.822s32.878,10.528,39.262,26.827L96.159,93.52z"/>
		<polygon style="fill:#fff;" points="126.562,11.719 117.187,11.719 117.187,2.344 107.812,2.344 107.812,11.719 98.437,11.719 
			98.437,21.094 107.812,21.094 107.812,30.469 117.187,30.469 117.187,21.094 126.562,21.094 		"/>
		<polygon style="fill:#fff;" points="164.062,49.219 154.687,49.219 154.687,39.844 145.312,39.844 145.312,49.219 
			135.937,49.219 135.937,58.594 145.312,58.594 145.312,67.969 154.687,67.969 154.687,58.594 164.062,58.594 		"/>
	</g>
</g>
<g>
</g>
<g>
</g>
<g>
</g>
<g>
</g>
<g>
</g>
<g>
</g>
<g>
</g>
<g>
</g>
<g>
</g>
<g>
</g>
<g>
</g>
<g>
</g>
<g>
</g>
<g>
</g>
<g>
</g>
</svg>
