<?xml version="1.0" encoding="iso-8859-1"?>
<!-- Generator: Adobe Illustrator 19.0.0, SVG Export Plug-In . SVG Version: 6.00 Build 0)  -->
<svg version="1.1" id="Layer_1" xmlns="http://www.w3.org/2000/svg" xmlns:xlink="http://www.w3.org/1999/xlink" x="0px" y="0px"
	 viewBox="0 0 290.625 290.625" style="enable-background:new 0 0 290.625 290.625;" xml:space="preserve">
<g>
	<g>
		<path style="fill:#fff;" d="M150,253.125h-9.375v-51.563h18.75c5.17,0,9.375-4.205,9.375-9.375s-4.205-9.375-9.375-9.375
			H131.25c-10.341,0-18.75-8.409-18.75-18.75s8.409-18.75,18.75-18.75h28.125c5.17,0,9.375-4.205,9.375-9.375
			s-4.205-9.375-9.375-9.375h-18.75V93.75H150v23.438h9.375c10.341,0,18.75,8.409,18.75,18.75s-8.409,18.75-18.75,18.75H131.25
			c-5.17,0-9.375,4.205-9.375,9.375s4.205,9.375,9.375,9.375h28.125c10.341,0,18.75,8.409,18.75,18.75s-8.409,18.75-18.75,18.75H150
			V253.125z"/>
		<rect x="112.5" y="248.438" style="fill:#d22780;" width="65.625" height="37.5"/>
		<circle style="fill:#d22780;" cx="145.313" cy="89.063" r="14.063"/>
		<rect x="4.688" y="281.25" style="fill:#fff;" width="281.25" height="9.375"/>
		<path style="fill:#fff;" d="M220.491,136.683l-7.912-5.025C220.702,118.852,225,104.128,225,89.063
			c0-43.941-35.747-79.688-79.687-79.688S65.625,45.122,65.625,89.063c0,15.066,4.298,29.789,12.422,42.595l-7.912,5.025
			C61.05,122.372,56.25,105.91,56.25,89.063C56.25,39.952,96.202,0,145.313,0s89.062,39.952,89.062,89.063
			C234.375,105.909,229.575,122.372,220.491,136.683z"/>
		<path style="fill:#fff;" d="M89.92,124.153c-6.694-10.547-10.233-22.683-10.233-35.091c0-36.187,29.437-65.625,65.625-65.625
			s65.625,29.438,65.625,65.625c0,12.408-3.534,24.544-10.228,35.091l-7.913-5.025c5.733-9.042,8.766-19.434,8.766-30.066
			c0-31.017-25.233-56.25-56.25-56.25s-56.25,25.233-56.25,56.25c0,10.631,3.033,21.023,8.77,30.066L89.92,124.153z"/>
		<path style="fill:#fff;" d="M180.923,111.623l-7.912-5.025c3.347-5.273,5.114-11.339,5.114-17.536
			c0-18.089-14.719-32.813-32.812-32.813S112.5,70.973,112.5,89.063c0,6.197,1.767,12.262,5.114,17.531l-7.912,5.025
			c-4.303-6.773-6.577-14.573-6.577-22.556c0-23.264,18.928-42.188,42.187-42.188S187.5,65.798,187.5,89.063
			C187.5,97.045,185.227,104.845,180.923,111.623z"/>
	</g>
</g>
<g>
</g>
<g>
</g>
<g>
</g>
<g>
</g>
<g>
</g>
<g>
</g>
<g>
</g>
<g>
</g>
<g>
</g>
<g>
</g>
<g>
</g>
<g>
</g>
<g>
</g>
<g>
</g>
<g>
</g>
</svg>
