<?xml version="1.0" encoding="iso-8859-1"?>
<!-- Generator: Adobe Illustrator 19.0.0, SVG Export Plug-In . SVG Version: 6.00 Build 0)  -->
<svg version="1.1" id="Capa_1" xmlns="http://www.w3.org/2000/svg" xmlns:xlink="http://www.w3.org/1999/xlink" x="0px" y="0px"
	 viewBox="0 0 496 496" style="enable-background:new 0 0 496 496;" xml:space="preserve">
<g style="fill:#ebb530;" >
	<path d="M176,176H0V0h176V176z"/>
	<path d="M496,496H320V320h176V496z"/>
</g>
<g style="fill:#ffffff;" >
	<rect x="80" y="80" width="16" height="16"/>
	<path d="M37.416,138.592c3.72,3.72,8.6,5.376,14.232,5.376c10.448,0,23.464-5.72,36.352-14.592
		c12.88,8.872,25.904,14.592,36.352,14.592c5.632,0,10.512-1.664,14.232-5.376c10.624-10.632,4.4-30.768-9.248-50.584
		c13.656-19.824,19.872-39.968,9.248-50.584c-4.968-4.976-14.904-9.072-34.04-0.384c-5.328,2.416-10.92,5.784-16.544,9.672
		c-5.624-3.88-11.216-7.256-16.544-9.68c-19.12-8.688-29.072-4.592-34.04,0.384C26.792,48.04,33.008,68.176,46.664,88
		C33.008,107.824,26.792,127.96,37.416,138.592z M48.728,127.28c-2.12-2.12-0.328-12.152,8.248-25.944
		c2.712,3.136,5.552,6.216,8.512,9.168c2.968,2.968,6.072,5.776,9.216,8.496C60.896,127.6,50.864,129.4,48.728,127.28z M88,66.728
		c3.768,3.112,7.528,6.408,11.192,10.08c3.84,3.84,7.184,7.576,10.16,11.192c-2.984,3.616-6.328,7.352-10.16,11.192
		c-3.84,3.84-7.576,7.184-11.192,10.168c-3.616-2.984-7.352-6.328-11.192-10.168c-3.84-3.84-7.184-7.576-10.16-11.192
		c2.984-3.616,6.328-7.352,10.16-11.192C80.472,73.144,84.232,69.84,88,66.728z M127.272,127.28c-2.128,2.12-12.168,0.32-25.984-8.28
		c3.144-2.72,6.248-5.528,9.216-8.496c2.96-2.96,5.8-6.032,8.512-9.168C127.6,115.128,129.4,125.152,127.272,127.28z M111.168,51.6
		c6.208-2.824,10.376-3.6,12.944-3.6c1.832,0,2.832,0.4,3.168,0.728c2.12,2.12,0.328,12.152-8.256,25.944
		c-2.712-3.136-5.552-6.216-8.512-9.176c-2.992-2.992-6.056-5.816-9.152-8.496C104.704,54.912,108.008,53.04,111.168,51.6z
		 M48.728,48.728C49.064,48.392,50.064,48,51.888,48c2.56,0,6.736,0.776,12.936,3.6c3.168,1.44,6.464,3.312,9.816,5.408
		c-3.088,2.68-6.16,5.496-9.144,8.488c-2.96,2.96-5.8,6.032-8.512,9.176C48.4,60.872,46.6,50.848,48.728,48.728z"/>
	<path d="M440,160V80H312c-27.872,0-52.04,15.944-64,39.168C236.04,95.944,211.872,80,184,80h-8v16h8c30.872,0,56,25.12,56,56v248H72
		V176H56v240h192h8h64v-16h-64V152c0-30.88,25.128-56,56-56h112v224h16V176h16v144h16V160H440z"/>
	<path d="M288,440c0,22.056-17.944,40-40,40s-40-17.944-40-40v-8H40V176H24v272h168.568c3.888,27.104,27.264,48,55.432,48
		s51.536-20.896,55.432-48H320v-16h-32V440z"/>
	<rect x="320" y="128" width="88" height="16"/>
	<rect x="304" y="160" width="104" height="16"/>
	<rect x="304" y="192" width="104" height="16"/>
	<rect x="272" y="160" width="16" height="16"/>
	<rect x="272" y="192" width="16" height="16"/>
	<path d="M160,344c0,17.648,14.352,32,32,32s32-14.352,32-32s-14.352-32-32-32S160,326.352,160,344z M208,344c0,8.824-7.176,16-16,16
		s-16-7.176-16-16s7.176-16,16-16S208,335.176,208,344z"/>
	<rect x="272" y="336" width="48" height="16"/>
	<rect x="272" y="368" width="48" height="16"/>
	<polygon points="394.344,293.656 405.656,282.344 360,236.688 320,276.688 293.656,250.344 282.344,261.656 320,299.312 
		360,259.312 "/>
	<rect x="88" y="192" width="136" height="16"/>
	<rect x="88" y="256" width="136" height="16"/>
	<rect x="168" y="224" width="56" height="16"/>
	<rect x="88" y="224" width="64" height="16"/>
	<rect x="88" y="304" width="56" height="16"/>
	<rect x="88" y="336" width="56" height="16"/>
	<rect x="88" y="368" width="56" height="16"/>
	<path d="M423.32,389.808L408,357.176l-15.32,32.632l-33.28,5.088l24.056,24.656l-5.776,35.432L408,438.208l30.32,16.768
		l-5.776-35.432l24.056-24.656L423.32,389.808z M417.224,425.024L408,419.928l-9.224,5.104l1.776-10.88l-7.944-8.144l10.936-1.672
		l4.456-9.512l4.464,9.504L423.4,406l-7.944,8.144L417.224,425.024z"/>
	<rect x="448" y="352" width="16" height="16"/>
	<rect x="352" y="448" width="16" height="16"/>
</g>
</svg>
