<?xml version="1.0" encoding="iso-8859-1"?>
<!-- Generator: Adobe Illustrator 19.0.0, SVG Export Plug-In . SVG Version: 6.00 Build 0)  -->
<svg version="1.1" id="Capa_1" xmlns="http://www.w3.org/2000/svg" xmlns:xlink="http://www.w3.org/1999/xlink" x="0px" y="0px"
	 viewBox="0 0 496.01 496.01" style="enable-background:new 0 0 496.01 496.01;" xml:space="preserve">
<path style="fill:#fff;" d="M464.01,280.005v16h16v144h-96v8c0,17.648-14.352,32-32,32s-32-14.352-32-32v-8h-96v-144h16v-16h-32v88h-56v-66.736
	l52.032-30.352l-8.064-13.832l-85.712,50c-5.504,3.216-11.792,4.92-18.176,4.92c-19.896,0-36.08-16.184-36.08-36.088
	c0-34.496-13.016-66.992-36.72-91.888c18.336-18.608,31.72-41.728,38.712-66.904c16.536-59.544,71.248-101.12,133.032-101.12h9.208
	c2.624,0,5.184,0.24,7.768,0.392v39.608h16V18.309c59.12,11.176,104,63.136,104,125.464c0,18.384-3.856,36.184-11.328,52.6
	l-2.488,4.88l14.256,7.264l2.64-5.2c8.576-18.824,12.92-38.856,12.92-59.544c0-79.272-64.496-143.768-143.768-143.768h-9.208
	c-68.944,0-129.992,46.4-148.448,112.832c-6.36,22.888-18.6,43.872-35.408,60.68l-4.832,4.832c-3.128,3.128-3.128,8.184,0,11.312
	l3.288,3.288c22.168,22.168,34.376,51.632,34.376,82.968c0,28.72,23.36,52.088,52.08,52.088c9.216,0,18.296-2.456,26.24-7.096
	l17.68-10.304v73.4h72v72h96.664c3.824,22.672,23.592,40,47.336,40s43.512-17.328,47.336-40h96.664v-176H464.01z"/>
<rect x="240.01" y="200.005" style="fill:#ebb530;" width="224" height="224"/>
<path style="fill:#fff;" d="M369.554,392.005h-35.088l-7.408-19.76l-19.208,8.736l-24.816-24.816l8.728-19.208l-19.752-7.416v-35.08l19.76-7.416
	l-8.736-19.208l24.816-24.816l19.208,8.736l7.408-19.752h35.088l7.408,19.76l19.208-8.736l24.816,24.816l-8.736,19.208l19.76,7.416
	v35.08l-19.752,7.416l8.728,19.208l-24.816,24.816l-19.208-8.736L369.554,392.005z M345.554,376.005h12.912l6.648-17.728l3.44-1.272
	c1.216-0.448,2.408-0.92,3.576-1.472l3.336-1.544l17.24,7.832l9.128-9.128l-7.832-17.24l1.536-3.328
	c0.544-1.168,1.032-2.376,1.48-3.584l1.272-3.432l17.72-6.64v-12.92l-17.72-6.648l-1.272-3.432c-0.448-1.2-0.936-2.408-1.48-3.568
	l-1.552-3.336l7.84-17.248l-9.128-9.128l-17.24,7.832l-3.336-1.544c-1.168-0.544-2.36-1.024-3.576-1.472l-3.44-1.272l-6.64-17.728
	h-12.912l-6.648,17.728l-3.44,1.272c-1.216,0.448-2.408,0.92-3.576,1.472l-3.336,1.544l-17.24-7.832l-9.128,9.128l7.84,17.248
	l-1.552,3.336c-0.544,1.168-1.032,2.368-1.48,3.568l-1.272,3.432l-17.712,6.64v12.92l17.72,6.648l1.272,3.432
	c0.448,1.208,0.936,2.416,1.48,3.584l1.536,3.328l-7.832,17.24l9.128,9.128l17.24-7.832l3.336,1.544
	c1.168,0.544,2.36,1.024,3.576,1.472l3.44,1.272L345.554,376.005z"/>
<path style="fill:#fff;" d="M352.01,344.005c-17.648,0-32-14.352-32-32s14.352-32,32-32s32,14.352,32,32S369.658,344.005,352.01,344.005z
	 M352.01,296.005c-8.824,0-16,7.176-16,16s7.176,16,16,16s16-7.176,16-16S360.834,296.005,352.01,296.005z"/>
<rect style="fill:#fff;" x="208.01" y="184.005" width="16" height="40"/>
<path style="fill:#ebb530;" d="M216.01,192.005c-39.704,0-72-32.296-72-72s32.296-72,72-72s72,32.296,72,72
	S255.714,192.005,216.01,192.005z"/>
<path style="fill:#fff;" d="M216.01,160.005c-22.056,0-40-17.944-40-40s17.944-40,40-40s40,17.944,40,40S238.066,160.005,216.01,160.005z
	 M216.01,96.005c-13.232,0-24,10.768-24,24s10.768,24,24,24s24-10.768,24-24S229.242,96.005,216.01,96.005z"/>
<g>
</g>
<g>
</g>
<g>
</g>
<g>
</g>
<g>
</g>
<g>
</g>
<g>
</g>
<g>
</g>
<g>
</g>
<g>
</g>
<g>
</g>
<g>
</g>
<g>
</g>
<g>
</g>
<g>
</g>
</svg>
