<?xml version="1.0" encoding="iso-8859-1"?>
<!-- Generator: Adobe Illustrator 22.1.0, SVG Export Plug-In . SVG Version: 6.00 Build 0)  -->
<svg xmlns="http://www.w3.org/2000/svg" xmlns:xlink="http://www.w3.org/1999/xlink" version="1.1" id="Layer_1_1_" x="0px" y="0px" viewBox="0 0 64 64" style="enable-background:new 0 0 64 64;" xml:space="preserve" width="512" height="512">
<g>
	<g>
		<polygon style="fill:#ebb530;" points="16.388,37 17.948,32.316 11.02,31.804 8.78,43 12.753,43 10.753,52 13.64,52 20.562,37       "/>
	</g>
	<g>
		<polygon style="fill:#ebb530;" points="34.198,42 35.983,32.179 30.034,31.742 25.698,48 30.857,48 28.857,63 31.664,63     40.506,42   "/>
	</g>
	<g>
		<polygon style="fill:#ebb530;" points="51.388,37 52.948,32.316 46.02,31.804 43.78,43 47.753,43 45.753,52 48.64,52 55.562,37       "/>
	</g>
	<path style="fill:#fff;" d="M55,17c-1.168,0-2.275,0.258-3.277,0.71C50.675,13.287,46.665,10,42,10c-1.178,0-2.353,0.212-3.457,0.62   C37.039,4.976,31.951,1,26,1c-7.168,0-13,5.832-13,13c0,0.023,0.003,0.046,0.003,0.069c-3.64,0.456-6.526,3.362-6.946,7.013   C3.196,21.536,1,24.013,1,27c0,3.309,2.691,6,6,6h48c4.411,0,8-3.589,8-8S59.411,17,55,17z M55,31H7c-2.206,0-4-1.794-4-4   s1.794-4,4-4c0.848,0,1.657,0.262,2.343,0.758l1.172-1.621c-0.733-0.53-1.564-0.874-2.44-1.032C8.509,18.22,10.996,16,14,16   c3.309,0,6,2.691,6,6h2c0-4.071-3.059-7.434-6.997-7.93C15.003,14.046,15,14.023,15,14c0-6.065,4.935-11,11-11   c5.398,0,9.957,3.867,10.839,9.194l0.226,1.366l1.227-0.645C39.447,12.309,40.695,12,42,12c3.964,0,7.339,2.965,7.907,6.836   C48.133,20.304,47,22.522,47,25h2c0-3.309,2.691-6,6-6s6,2.691,6,6S58.309,31,55,31z"/>
</g>
</svg>
