<?xml version="1.0" encoding="iso-8859-1"?>
<!-- Generator: Adobe Illustrator 19.0.0, SVG Export Plug-In . SVG Version: 6.00 Build 0)  -->
<svg version="1.1" id="Capa_1" xmlns="http://www.w3.org/2000/svg" xmlns:xlink="http://www.w3.org/1999/xlink" x="0px" y="0px"
	 viewBox="0 0 496 496" style="enable-background:new 0 0 496 496;" xml:space="preserve">
<path style="fill:#fff;" d="M432,144c-5.64,0-11.08,0.808-16.296,2.184C412.648,87.136,363.792,40,304,40
	c-20.488,0-40.032,5.552-56.952,15.536C231.512,22.224,197.608,0,160,0c-52.936,0-96,43.064-96,96c0,3.456,0.248,6.912,0.616,10.352
	C27.624,115.136,0,148.36,0,188c0,46.32,37.68,84,84,84h52v-16H84c-37.496,0-68-30.504-68-68s30.504-68,68-68
	c21.128,0,40.696,9.568,53.688,26.264l12.624-9.832C134.264,115.824,110.104,104,84,104c-1.2,0-2.368,0.128-3.552,0.184
	C80.176,101.464,80,98.736,80,96c0-44.112,35.888-80,80-80c32.28,0,61.24,19.664,73.624,48.816
	c-11.776,9.52-21.712,21.512-29,35.488l14.184,7.392C235.432,75.816,268.072,56,304,56c52.936,0,96,43.064,96,96h1.088
	C381.384,162.92,368,183.92,368,208h16c0-26.472,21.528-48,48-48s48,21.528,48,48s-21.528,48-48,48h-72v16h72
	c35.288,0,64-28.712,64-64S467.288,144,432,144z"/>
<circle style="fill:#00b15a;" cx="248" cy="264" r="120"/>
<g>
	<path style="fill:#fff;" d="M256.48,294.712L285,344.168l6.928-3.984c13.416-7.728,24.576-18.848,32.28-32.184
		c7.696-13.328,11.752-28.56,11.728-44.056l-0.016-7.992l-57.064,0.032c-1.48-5.68-4.384-10.776-8.448-14.776l28.512-49.336
		l-6.912-4.008c-26.8-15.528-61.216-15.528-88.016,0l-6.912,4.008l28.512,49.336c-4.064,4-6.968,9.096-8.448,14.776l-57.064-0.032
		l-0.016,7.992c-0.024,15.496,4.032,30.728,11.728,44.056c7.704,13.336,18.864,24.464,32.28,32.184l6.928,3.984l28.52-49.456
		c2.72,0.76,5.528,1.288,8.48,1.288S253.76,295.464,256.48,294.712z M232,264c0-8.824,7.176-16,16-16s16,7.176,16,16
		s-7.176,16-16,16S232,272.824,232,264z M278.864,271.992l40.64-0.024c-1.08,9.872-4.192,19.44-9.16,28.032
		s-11.688,16.072-19.696,21.944l-20.264-35.136C274.472,282.8,277.392,277.688,278.864,271.992z M219.152,198.088
		c18.184-8,39.512-8,57.704,0l-20.344,35.208c-2.736-0.76-5.544-1.296-8.512-1.296c-2.968,0-5.784,0.536-8.504,1.296
		L219.152,198.088z M205.344,321.944c-8.008-5.872-14.736-13.352-19.696-21.944s-8.08-18.16-9.16-28.032l40.64,0.024
		c1.48,5.696,4.4,10.816,8.48,14.816L205.344,321.944z"/>
	<path style="fill:#fff;" d="M450.504,332.208C447.336,324.792,440.072,320,432,320s-15.336,4.792-18.496,12.2l-18.272,42.616
		c-2.144,5.016-3.232,10.32-3.232,15.752V392c0,22.056,17.944,40,40,40s40-17.944,40-40v-1.432c0-5.44-1.088-10.744-3.232-15.76
		L450.504,332.208z M456,392c0,13.232-10.768,24-24,24s-24-10.768-24-24v-1.432c0-3.264,0.656-6.456,1.936-9.464l18.272-42.616
		c0.648-1.512,2.136-2.488,3.792-2.488s3.144,0.976,3.8,2.496l18.256,42.6c1.288,3.024,1.944,6.208,1.944,9.472V392z"/>
	<path style="fill:#fff;" d="M170.504,396.208C167.336,388.792,160.072,384,152,384s-15.336,4.792-18.496,12.2l-18.272,42.616
		c-2.144,5.016-3.232,10.32-3.232,15.752V456c0,22.056,17.944,40,40,40s40-17.944,40-40v-1.432c0-5.44-1.088-10.744-3.232-15.76
		L170.504,396.208z M176,456c0,13.232-10.768,24-24,24s-24-10.768-24-24v-1.432c0-3.264,0.656-6.456,1.936-9.464l18.272-42.616
		c0.648-1.512,2.136-2.488,3.792-2.488s3.144,0.976,3.8,2.496l18.256,42.6c1.288,3.024,1.944,6.208,1.944,9.472V456z"/>
	<path style="fill:#fff;" d="M82.504,316.208C79.336,308.792,72.072,304,64,304s-15.336,4.792-18.496,12.2l-18.272,42.616
		C25.088,363.832,24,369.136,24,374.568V376c0,22.056,17.944,40,40,40s40-17.944,40-40v-1.432c0-5.44-1.088-10.744-3.232-15.76
		L82.504,316.208z M88,376c0,13.232-10.768,24-24,24s-24-10.768-24-24v-1.432c0-3.264,0.656-6.456,1.936-9.464l18.272-42.616
		C60.856,320.976,62.344,320,64,320s3.144,0.976,3.8,2.496l18.256,42.6c1.288,3.024,1.944,6.208,1.944,9.472V376z"/>
	<path style="fill:#fff;" d="M338.504,396.208C335.336,388.792,328.072,384,320,384s-15.336,4.792-18.496,12.2l-18.272,42.616
		c-2.144,5.016-3.232,10.32-3.232,15.752V456c0,22.056,17.944,40,40,40s40-17.944,40-40v-1.432c0-5.44-1.088-10.744-3.232-15.76
		L338.504,396.208z M344,456c0,13.232-10.768,24-24,24s-24-10.768-24-24v-1.432c0-3.264,0.656-6.456,1.936-9.464l18.272-42.616
		c0.648-1.512,2.136-2.488,3.792-2.488s3.144,0.976,3.8,2.496l18.256,42.6c1.288,3.024,1.944,6.208,1.944,9.472V456z"/>
</g>
<g>
</g>
<g>
</g>
<g>
</g>
<g>
</g>
<g>
</g>
<g>
</g>
<g>
</g>
<g>
</g>
<g>
</g>
<g>
</g>
<g>
</g>
<g>
</g>
<g>
</g>
<g>
</g>
<g>
</g>
</svg>
