<svg height="496pt" viewBox="0 0 496 496" width="496pt" xmlns="http://www.w3.org/2000/svg">
<g fill="#00b15a">
	<path d="m496 376c0 66.273438-53.726562 120-120 120s-120-53.726562-120-120 53.726562-120 120-120 120 53.726562 120 120zm0 0"/>
	<path d="m216 0h48v40h-48zm0 0"/><path d="m296 0h48v40h-48zm0 0"/>
</g>
<path fill="#ffffff" d="m360 80v-48h-160v16c0 80.289062-96.777344 224-192 224h-8v128h32v16h8c144.054688 0 298.0625-194.449219 303.726562-336zm-144-32h128v16h-129.144531c.753906-5.617188 1.144531-10.976562 1.144531-16zm-200 336v-96.273438c5.375-.367187 10.710938-1.140624 16-2.214843v98.488281zm32 15.753906v-80.242187c56.863281-4.992188 114.34375-61.695313 150.167969-115.046875l-13.28125-8.921875c-41.589844 61.945312-94.34375 103.257812-136.886719 107.984375v-22.320313c80.777344-26.949219 147.078125-129.0625 163.878906-201.207031h19.679688c-2.132813 28.265625-15.167969 64.046875-36.71875 99.871094l13.710937 8.25c23.425781-38.945313 37-76.90625 39.035157-108.128906h80.15625c-5.398438 152.503906-163.382813 312.601562-279.742188 319.761718zm0 0"/>
<path fill="#ffffff" d="m70.191406 364.40625 3.617188 15.578125c51.503906-11.945313 107.695312-51.550781 154.175781-108.648437 45.03125-55.328126 75.03125-118.847657 82.320313-174.296876l-15.863282-2.078124c-14.867187 113.167968-125.9375 246.625-224.25 269.445312zm0 0"/>
<path fill="#ffffff" d="m69.824219 331.625 4.351562 15.390625c97.28125-27.503906 189.425781-156.863281 203.792969-249.800781l-15.816406-2.4375c-13.351563 86.414062-102.128906 211.335937-192.328125 236.847656zm0 0"/>
<path fill="#ffffff" d="m408 401.9375v-48c0-24.027344-9.351562-46.609375-26.34375-63.59375l-5.65625-5.65625-5.65625 5.65625c-16.992188 16.984375-26.34375 39.566406-26.34375 63.59375v48h-16v48h96v-48zm-32-93.945312c6.609375 8.296874 11.273438 17.824218 13.800781 28.007812h-27.59375c2.519531-10.183594 7.183594-19.710938 13.792969-28.007812zm-16 45.945312c0-.648438.0625-1.289062.078125-1.9375h31.84375c.015625.648438.078125 1.289062.078125 1.9375v48h-32zm48 80h-64v-16h64zm0 0"/>
</svg>