<?xml version="1.0" encoding="iso-8859-1"?>
<!-- Generator: Adobe Illustrator 19.0.0, SVG Export Plug-In . SVG Version: 6.00 Build 0)  -->
<svg version="1.1" id="Capa_1" xmlns="http://www.w3.org/2000/svg" xmlns:xlink="http://www.w3.org/1999/xlink" x="0px" y="0px"
	 viewBox="0 0 496.488 496.488" style="enable-background:new 0 0 496.488 496.488;" xml:space="preserve">
<g>
	<path style="fill:#00b15a;" d="M89.638,272.312C88.71,272.104,87.766,272,86.814,272h-4.408c-5.976,0-11.184,4.064-12.632,9.864
		l-3.744,14.984c-1.112,4.44,0.192,9.128,3.424,12.368c1.816,1.816,4.136,3.056,6.656,3.56L152.246,328l8-40L89.638,272.312z"/>
	<rect x="168.246" y="224" style="fill:#00b15a;" width="160" height="32"/>
	<path style="fill:#00b15a;" d="M430.454,296.848l-3.744-14.984c-1.448-5.8-6.656-9.864-12.632-9.864h-4.408
		c-0.952,0-1.896,0.104-2.824,0.312L336.246,288l8,40l76.136-15.224c2.52-0.504,4.832-1.744,6.656-3.56
		C430.27,305.976,431.566,301.288,430.454,296.848z"/>
	<polygon style="fill:#00b15a;" points="264.246,256 248.246,256 264.246,400 296.246,392 	"/>
	<polygon style="fill:#00b15a;" points="200.246,344 232.246,352 248.246,256 232.246,256 	"/>
	<path style="fill:#00b15a;" d="M324.902,20.656C316.798,12.552,305.806,8,294.35,8h-92.208c-11.456,0-22.448,4.552-30.544,12.656
		c-7.272,7.264-11.352,17.12-11.352,27.392c0,5.248,1.064,10.44,3.136,15.264L232.246,224h16l-48-168c0,0,24-8,48-8s48,8,48,8
		l-48,168h16L333.11,63.312c2.072-4.824,3.136-10.016,3.136-15.264C336.246,37.776,332.166,27.92,324.902,20.656z"/>
</g>
<path style="fill:#fff;" d="M438.222,294.904l-3.744-14.984c-2.272-9.072-10.208-15.44-19.48-15.848L401.766,98.616
	c-1.184-14.84-10.432-27.712-24.12-33.576l-33.528-14.368c0.048-0.88,0.128-1.744,0.128-2.624c0-12.488-4.864-24.224-13.688-33.048
	C320.886,5.328,308.03,0,294.35,0h-92.208c-13.672,0-26.536,5.328-36.2,15c-8.832,8.824-13.696,20.56-13.696,33.048
	c0,0.88,0.08,1.752,0.128,2.624L118.846,65.04c-13.688,5.864-22.928,18.736-24.112,33.576L81.494,264.08
	c-9.264,0.4-17.208,6.768-19.48,15.848l-3.744,14.984c-1.784,7.128,0.336,14.776,5.528,19.96c2.944,2.952,6.664,4.936,10.744,5.752
	l66,13.2l-38.4,153.6l154.104,9.064v-16.944l138.28-8.128l-37.12-137.888l64.544-12.912c4.08-0.816,7.8-2.8,10.744-5.752
	C437.886,309.68,439.998,302.032,438.222,294.904z M385.814,99.888l13.28,165.952l-56.528,12.56l-6.32-23.456V225.04l37.808-143.664
	C380.686,85.32,385.182,92.056,385.814,99.888z M340.446,66.504l18.848,8.08L322.078,216h-45.704L340.446,66.504z M176.246,232h48
	v16h-48V232z M256.246,248h-16v-16h16l0.008,16H256.246z M248.246,196.528L207.374,62.224C215.19,60.04,231.846,56,248.246,56
	s33.056,4.04,40.872,6.224L248.246,196.528z M238.806,264l-13.024,78.136l-14.984-3.744L237.846,264H238.806z M257.91,264
	l28.744,122.152l-15.464,3.864L257.182,264H257.91z M272.246,232h48v16h-48V232z M177.246,26.312
	C183.902,19.664,192.742,16,202.142,16h92.208c9.4,0,18.24,3.664,24.888,10.312c5.808,5.808,9.008,13.52,9.008,21.736
	c0,4.184-0.832,8.264-2.488,12.112l-66.552,155.28l52.688-173.112l-15.304-4.656l-2.808,9.232C285.214,44.48,266.886,40,248.246,40
	s-36.968,4.48-45.536,6.904l-2.808-9.232l-15.304,4.656l52.688,173.112L170.734,60.16c-1.656-3.848-2.488-7.928-2.488-12.112
	C168.246,39.832,171.446,32.12,177.246,26.312z M220.118,216h-45.96l-36.96-141.416l18.856-8.08L220.118,216z M110.686,99.888
	c0.624-7.832,5.128-14.568,11.752-18.52l37.808,143.664v29.984l-5.872,23.488L97.406,265.84L110.686,99.888z M77.678,304.928
	c-0.976-0.192-1.856-0.672-2.568-1.376c-1.24-1.24-1.744-3.064-1.32-4.768l3.744-14.984c0.56-2.24,2.56-3.808,4.864-3.808h4.408
	c0.36,0,0.736,0.04,1.088,0.12l62.584,13.912l-6.064,24.256L77.678,304.928z M122.35,472.584L174.494,264h46.328l-31.128,85.608
	l49.016,12.256l1.536-9.208V479.52L122.35,472.584z M256.246,463.52v-63.064l1.056,9.528l48.536-12.136L274.35,264h48.04
	l51.576,192.592L256.246,463.52z M421.382,303.552c-0.704,0.704-1.592,1.176-2.568,1.376l-65.576,13.112l-6.512-24.176l61.84-13.744
	c0.368-0.08,0.744-0.12,1.112-0.12h4.408c2.304,0,4.312,1.56,4.864,3.808l3.744,14.984
	C423.118,300.488,422.614,302.32,421.382,303.552z"/>
<g>
</g>
<g>
</g>
<g>
</g>
<g>
</g>
<g>
</g>
<g>
</g>
<g>
</g>
<g>
</g>
<g>
</g>
<g>
</g>
<g>
</g>
<g>
</g>
<g>
</g>
<g>
</g>
<g>
</g>
</svg>
