<?xml version="1.0" encoding="iso-8859-1"?>
<!-- Generator: Adobe Illustrator 19.0.0, SVG Export Plug-In . SVG Version: 6.00 Build 0)  -->
<svg xmlns="http://www.w3.org/2000/svg" xmlns:xlink="http://www.w3.org/1999/xlink" version="1.1" id="Capa_1" x="0px" y="0px" viewBox="0 0 496 496" style="enable-background:new 0 0 496 496;" xml:space="preserve">
<g>
	<path style="fill:#00b15a;" d="M321.568,131.984l-0.12,0.2c9.816,0.464,19.16,4.432,26.144,11.416L352,148l4.4-4.4   c6.984-6.984,16.328-10.952,26.144-11.416l-0.12-0.2C390.736,117.648,406.24,108,424,108c0,0-32-24-72-24s-72,24-72,24   C297.76,108,313.264,117.648,321.568,131.984z"/>
	<path style="fill:#00b15a;" d="M481.504,215.008l-16.816-33.632C456.208,194.944,441.176,204,424,204v26.696   c0,20.616-13.784,37.984-32.624,43.472C388.392,293.312,371.976,308,352,308s-36.392-14.688-39.376-33.832   C293.784,268.68,280,251.312,280,230.696V204c-17.176,0-32.208-9.056-40.688-22.624l-16.816,33.632   c-4.272,8.544-6.496,17.96-6.496,27.512c0,16.312,6.48,31.96,18.016,43.496L240,292v-8c0,16.312,6.48,31.96,18.016,43.496   L264,333.48v-9.376c0-1.376,0.104-2.744,0.2-4.104c0.992,14.808,7.248,28.824,17.816,39.392l5.984,5.984V356   c0-14.488,5.752-29.752,16-40c0,0,8,24,48,48c40-24,48-48,48-48c10.248,10.248,16,25.512,16,40v9.376l5.984-5.984   c10.56-10.56,16.824-24.576,17.816-39.392c0.096,1.36,0.2,2.728,0.2,4.104v9.376l5.984-5.984C457.52,315.96,464,300.312,464,284v8   l5.984-5.984C481.52,274.48,488,258.832,488,242.52C488,232.968,485.776,223.552,481.504,215.008z"/>
</g>
<path style="fill:#fff;" d="M496,242.52c0-10.728-2.536-21.48-7.336-31.088l-14.92-29.84C477.72,173.92,480,165.224,480,156  c0-29.952-23.664-54.424-53.264-55.864C418.744,94.664,388.784,76,352,76s-66.744,18.664-74.736,24.136  C247.664,101.576,224,126.048,224,156c0,9.224,2.28,17.92,6.256,25.6l-14.92,29.84c-0.976,1.96-1.8,4-2.584,6.04  c-3.072-9.128-4.752-18.728-4.752-28.352c0-13.408-6.656-25.84-17.816-33.28L96,93.056v16.296c0,29.072-7.904,57.608-22.856,82.528  l-3.712,6.184l13.112,9.832c12.864,9.648,22.736,23,28.288,38.048c-7.04,3.432-13.584,7.64-19.528,12.576l-27.912-41.864  C53.32,201.568,48,183.936,48,164.984c0-15,3.848-29.856,11.144-42.976l24.512-44.104c10.68,2.872,22.304,1.064,31.968-5.376  c5.376-3.584,11.656-5.536,18.104-5.296l67.888,1.232l-61.712-44.08C128.56,16.28,115.192,12,101.248,12h-2.64  c-24.4,0-46.328,13.552-57.24,35.376L15.504,99.104C5.36,119.376,0,142.136,0,164.92v0.888c0,26.504,7.344,52.448,21.24,75.016  l39.256,63.76c-2.928,9.392-4.496,19.2-4.496,29.152V484h56h13.416h48l30.464-76.152c17.112,2.12,38.84,3.712,65.864,4.048  L298.584,484H344h8h53.416L440,397.536v-49.232c1.12-2.12,2.112-4.296,3-6.512l8.64-8.64c10.136-10.136,16.712-22.864,19.2-36.68  l4.8-4.8C488.776,278.544,496,261.088,496,242.52z M464,156c0,19.312-13.768,35.472-32,39.192v-8.328  c13.768-3.576,24-15.992,24-30.864c0-17.648-14.352-32-32-32c-6.336,0-12.424,1.944-17.64,5.408c-2.72-1.424-5.6-2.584-8.6-3.464  C404.96,119.68,414.224,116,424,116C446.056,116,464,133.944,464,156z M325.448,196c1.072,2.608,1.936,5.28,2.64,8H316  c-2.2,0-4-1.8-4-4s1.8-4,4-4H325.448z M347.312,236h9.376c1.824,0,3.312,1.488,3.312,3.312c0,0.872-0.352,1.728-0.968,2.344  L352,248.688l-7.032-7.032c-0.616-0.616-0.968-1.472-0.968-2.344C344,237.488,345.488,236,347.312,236z M378.552,196H388  c2.2,0,4,1.8,4,4s-1.8,4-4,4h-12.088C376.608,201.28,377.48,198.608,378.552,196z M352,276.944l2.864,1.432  c7.368,3.68,15.6,5.624,23.832,5.624c0.296,0,0.584-0.04,0.88-0.048C374.032,293.496,363.808,300,352,300  s-22.032-6.504-27.576-16.048c0.296,0.008,0.584,0.048,0.88,0.048c8.224,0,16.464-1.944,23.832-5.624L352,276.944z M378.696,268  c-5.76,0-11.52-1.36-16.68-3.936l-1.84-0.92l10.168-10.168c3.592-3.6,5.656-8.576,5.656-13.664c0-1.784-0.32-3.48-0.776-5.12  l0.536-0.136c-1.168-4.656-1.744-9.376-1.816-14.064H388c11.032,0,20-8.968,20-20S399.032,180,388,180l0,0l2.4-3.192l-12.8-9.608  l-4.208,5.616c-10.376,13.84-15.664,30.44-15.44,47.312c-0.424-0.032-0.832-0.128-1.264-0.128h-9.376  c-0.432,0-0.84,0.096-1.264,0.128c0.232-16.88-5.056-33.48-15.44-47.32l-4.208-5.616l-12.8,9.608l2.4,3.2l0,0  c-11.032,0-20,8.968-20,20s8.968,20,20,20h14.056c-0.064,4.688-0.648,9.4-1.816,14.064l0.536,0.136  c-0.456,1.632-0.776,3.328-0.776,5.112c0,5.088,2.064,10.064,5.656,13.656l10.176,10.176l-1.84,0.92  c-5.16,2.576-10.928,3.936-16.688,3.936C304.736,268,288,251.264,288,230.696V171.6c0-17.424,14.176-31.6,31.6-31.6  c8.44,0,16.376,3.288,22.344,9.256L352,159.312l10.056-10.056C368.024,143.288,375.96,140,384.4,140c17.424,0,31.6,14.176,31.6,31.6  v59.096C416,251.264,399.264,268,378.696,268z M272.088,169.824C267.28,167.056,264,161.928,264,156c0-8.824,7.176-16,16-16  c1.248,0,2.472,0.192,3.664,0.48C276.784,148.408,272.504,158.624,272.088,169.824z M431.912,169.824  c-0.416-11.2-4.696-21.408-11.576-29.344c1.192-0.288,2.416-0.48,3.664-0.48c8.824,0,16,7.176,16,16  C440,161.928,436.72,167.056,431.912,169.824z M402.144,104.496c-9.792,4.168-18.264,11.144-24.376,20.12  c-9.616,1.344-18.568,5.416-25.76,12.112c-7.192-6.696-16.152-10.776-25.76-12.112c-6.12-8.984-14.6-15.968-24.408-20.136  C314.136,98.488,332.032,92,352,92C371.88,92,389.8,98.496,402.144,104.496z M280,116c9.776,0,19.04,3.68,26.24,9.944  c-3,0.88-5.872,2.04-8.6,3.464C292.432,125.944,286.336,124,280,124c-17.648,0-32,14.352-32,32c0,14.872,10.232,27.288,24,30.864  v8.328c-18.232-3.72-32-19.872-32-39.192C240,133.944,257.944,116,280,116z M192.496,197.52c1.088,13.36,4.592,26.544,10.576,38.52  l5.112,10.216c0.904,17.152,7.936,33.176,20.176,45.416l0.328,0.328h-41.456c-11.136,0-22.064-3.032-31.608-8.76  c-11.568-6.944-20.392-17.36-25.352-29.72L192.496,197.52z M174.48,164.6c-26.568,1.64-52.544,7-77.592,16.04  c8.112-18.36,13.096-37.968,14.608-58.024L174.48,164.6z M95.864,198.152c29.48-11.504,60.376-17.568,92.072-18.048l-63.408,57.072  C118.328,222.072,108.44,208.592,95.864,198.152z M68.952,71.424l-6.136,11.04l-16.88-8.44l5.648-11.288L68.952,71.424z M98.608,28  h2.64c10.584,0,20.744,3.248,29.36,9.408l19.776,14.128l-16.36-0.296c-9.736-0.176-19.176,2.584-27.632,8.224  c-6.768,4.496-15.504,5.04-22.808,1.392l-0.008-0.008l0,0l-2.272-1.136l-4.568-2.288v0.008L59.168,48.64  C68.048,35.76,82.624,28,98.608,28z M34.864,232.44C22.52,212.392,16,189.352,16,165.816v-0.888c0-20.312,4.776-40.6,13.816-58.664  l8.96-17.928l16.256,8.128l-9.88,17.776C36.544,129.72,32,147.272,32,165.688c0,21.424,6.248,42.12,18.08,59.848l29.608,44.416  c-3.216,3.744-6.176,7.736-8.824,11.984c-0.944,1.512-1.808,3.064-2.664,4.616L34.864,232.44z M112,468H72V333.736  c0-15.336,4.296-30.312,12.424-43.312c7.84-12.544,18.84-22.344,31.84-29.056c6.392,14.76,17.144,27.208,31.128,35.592  c12.032,7.216,25.808,11.04,39.84,11.04h49.088c3.432,9.328,8.8,17.912,16.04,25.152l8.64,8.64c0.888,2.216,1.88,4.4,3,6.512v47.536  c-62.48-1.256-93.376-9.648-104-13.304v-37.84l-26.344-26.344l-11.312,11.312L144,351.312v43.152L114.584,468H112z M162.584,468  h-30.768l27.544-68.856c6.28,1.904,15.472,4.208,28.224,6.352L162.584,468z M394.584,468H360v-64h-16v64h-34.584L280,394.464  v-25.776l16,16V356c0-8.84,2.512-17.888,6.864-25.408c6.44,9.592,18.824,23.68,41.136,37.792V388h16v-19.616  c22.304-14.112,34.696-28.208,41.136-37.792C405.488,338.112,408,347.16,408,356v28.688l16-16v25.776L394.584,468z M447.112,313.504  c-2.152-12.688-8.168-24.384-17.456-33.68l-11.312,11.312c7.664,7.672,12.328,17.544,13.408,28.184  c-0.592,9.4-3.472,18.36-8.616,26.104c-2.168-13.36-8.368-25.976-17.48-35.08l-8.976-8.88l-4.24,11.936  c-0.08,0.2-7.504,20.224-40.44,41.192c-32.936-20.968-40.36-40.984-40.416-41.128l-4.088-12.28l-9.16,9.16  c-9.112,9.104-15.304,21.72-17.48,35.08c-5.144-7.744-8.024-16.704-8.616-26.104c1.08-10.64,5.744-20.512,13.408-28.184  l-11.312-11.312c-9.288,9.296-15.304,20.992-17.456,33.68C251.168,304.808,248,294.488,248,284v-1.376  c0-12.272,4.976-24.288,13.656-32.968l-11.312-11.312c-9.152,9.152-15.232,21.056-17.432,33.72  c-5.744-8.704-8.912-19.04-8.912-29.544c0-8.256,1.952-16.528,5.648-23.928l11.28-22.56c8.288,8.096,19.072,13.6,31.072,15.328  v19.336c0,22.44,13.96,41.648,33.632,49.496C311.04,300.76,329.752,316,352,316s40.96-15.24,46.368-35.808  C418.04,272.336,432,253.136,432,230.696V211.36c12-1.728,22.784-7.232,31.072-15.32l11.28,22.56  c3.696,7.392,5.648,15.664,5.648,23.92c0,10.496-3.168,20.832-8.912,29.536c-2.192-12.664-8.28-24.568-17.432-33.72l-11.312,11.312  c8.68,8.688,13.656,20.704,13.656,32.976V284C456,294.488,452.832,304.808,447.112,313.504z"/>
<g>
</g>
<g>
</g>
<g>
</g>
<g>
</g>
<g>
</g>
<g>
</g>
<g>
</g>
<g>
</g>
<g>
</g>
<g>
</g>
<g>
</g>
<g>
</g>
<g>
</g>
<g>
</g>
<g>
</g>
</svg>
