<?xml version="1.0" encoding="UTF-8" standalone="no"?>
<!-- Generator: Adobe Illustrator 19.0.0, SVG Export Plug-In . SVG Version: 6.00 Build 0)  -->

<svg
   xmlns:dc="http://purl.org/dc/elements/1.1/"
   xmlns:cc="http://creativecommons.org/ns#"
   xmlns:rdf="http://www.w3.org/1999/02/22-rdf-syntax-ns#"
   xmlns:svg="http://www.w3.org/2000/svg"
   xmlns="http://www.w3.org/2000/svg"
   xmlns:sodipodi="http://sodipodi.sourceforge.net/DTD/sodipodi-0.dtd"
   xmlns:inkscape="http://www.inkscape.org/namespaces/inkscape"
   version="1.1"
   id="Layer_1"
   x="0px"
   y="0px"
   viewBox="0 0 290.626 290.626"
   style="enable-background:new 0 0 290.626 290.626;"
   xml:space="preserve"
   inkscape:version="0.91 r13725"
   sodipodi:docname="console.svg"><metadata
   id="metadata59"><rdf:RDF><cc:Work
       rdf:about=""><dc:format>image/svg+xml</dc:format><dc:type
         rdf:resource="http://purl.org/dc/dcmitype/StillImage" /><dc:title></dc:title></cc:Work></rdf:RDF></metadata><defs
   id="defs57" /><sodipodi:namedview
   pagecolor="#ffffff"
   bordercolor="#666666"
   borderopacity="1"
   objecttolerance="10"
   gridtolerance="10"
   guidetolerance="10"
   inkscape:pageopacity="0"
   inkscape:pageshadow="2"
   inkscape:window-width="1539"
   inkscape:window-height="778"
   id="namedview55"
   showgrid="false"
   inkscape:zoom="0.8120402"
   inkscape:cx="-13.546127"
   inkscape:cy="220.03425"
   inkscape:window-x="0"
   inkscape:window-y="0"
   inkscape:window-maximized="0"
   inkscape:current-layer="g5" />
<g
   id="g3">
	<g
   id="g5">
		<rect
   x="141.41888"
   y="98.438004"
   style="fill:#fff"
   width="76.628906"
   height="9.375"
   id="rect7" />
		<polygon
   style="fill:#fff;"
   points="210.937,126.563 239.062,126.563 239.062,229.688 51.563,229.688 51.563,126.563     154.688,126.563 154.688,117.188 42.188,117.188 42.188,239.063 248.437,239.063 248.437,117.188 210.937,117.188   "
   id="polygon9" />
		<rect
   x="142.65034"
   y="117.188"
   style="fill:#fff"
   width="85.249168"
   height="9.375"
   id="rect11" />
		<path
   style="fill:#fff;"
   d="M290.625,117.188c0-25.223-17.911-46.345-42.291-50.723C246.328,29.475,215.606,0,178.125,0    c-25.322,0-48.83,13.917-61.209,35.841c-4.294-1.987-8.981-3.028-13.791-3.028c-11.489,0-22.083,6.061-27.994,15.731    c-4.631-1.106-9.394-1.669-14.194-1.669C27.338,46.875,0,74.213,0,107.813c0,18.656,8.761,36.314,23.437,47.841v83.409    c0,10.341,8.409,18.75,18.75,18.75h60.937v23.438h-18.75v9.375h18.75H187.5h18.75v-9.375H187.5v-23.438h60.937    c10.341,0,18.75-8.409,18.75-18.75v-78.834C281.667,150.741,290.625,134.555,290.625,117.188z M178.125,281.25H112.5v-23.438    h65.625V281.25z M267.188,148.453v-31.266c0-10.341-8.409-18.75-18.75-18.75h-37.5v9.375h37.5c5.17,0,9.375,4.205,9.375,9.375    v121.875c0,5.17-4.205,9.375-9.375,9.375H187.5h-84.375H42.188c-5.17,0-9.375-4.205-9.375-9.375V117.188    c0-5.17,4.205-9.375,9.375-9.375h112.5v-9.375h-112.5c-10.341,0-18.75,8.409-18.75,18.75v25.805    c-8.892-9.483-14.062-22.031-14.062-35.18c0-28.43,23.133-51.563,51.562-51.563c5.17,0,10.28,0.769,15.192,2.283l3.947,1.219    l1.706-3.769c3.792-8.381,12.169-13.795,21.342-13.795c4.692,0,9.225,1.383,13.097,4.003l4.523,3.052l2.334-4.936    c10.05-21.22,31.655-34.931,55.045-34.931c33.6,0,60.937,27.337,60.942,60.703l-0.019,4.72l4.223,0.417    c21.656,2.142,37.978,20.189,37.978,41.972C281.25,129.211,275.977,140.531,267.188,148.453z"
   id="path13" />
		
		
		<path
   style="fill:#00b15a"
   d="m 234.77244,226.02346 -178.979602,0 0,-95.46848 178.979602,0 0,95.46848 z"
   id="path19"
   inkscape:connector-curvature="0" />
		
		<rect
   x="63.46994"
   y="158.46169"
   style="fill:#fff"
   width="65.783577"
   height="9.375"
   id="rect23" />
	<rect
   x="63.162582"
   y="143.08844"
   style="fill:#fff"
   width="78.098236"
   height="9.375"
   id="rect23-0" /><rect
   x="63.470432"
   y="173.87508"
   style="fill:#fff"
   width="92.260101"
   height="9.375"
   id="rect23-5" /><rect
   x="63.470428"
   y="190.19202"
   style="fill:#fff"
   width="59.626247"
   height="9.375"
   id="rect23-5-4" /></g>
</g>
<g
   id="g25">
</g>
<g
   id="g27">
</g>
<g
   id="g29">
</g>
<g
   id="g31">
</g>
<g
   id="g33">
</g>
<g
   id="g35">
</g>
<g
   id="g37">
</g>
<g
   id="g39">
</g>
<g
   id="g41">
</g>
<g
   id="g43">
</g>
<g
   id="g45">
</g>
<g
   id="g47">
</g>
<g
   id="g49">
</g>
<g
   id="g51">
</g>
<g
   id="g53">
</g>
</svg>