<?xml version="1.0" encoding="iso-8859-1"?>
<!-- Generator: Adobe Illustrator 19.0.0, SVG Export Plug-In . SVG Version: 6.00 Build 0)  -->
<svg version="1.1" id="Capa_1" xmlns="http://www.w3.org/2000/svg" xmlns:xlink="http://www.w3.org/1999/xlink" x="0px" y="0px"
	 viewBox="0 0 496 496" style="enable-background:new 0 0 496 496;" xml:space="preserve">
<g>
	<path style="fill:#fff;" d="M96,464c-35.288,0-64-28.712-64-64s28.712-64,64-64s64,28.712,64,64S131.288,464,96,464z M96,352
		c-26.472,0-48,21.528-48,48s21.528,48,48,48s48-21.528,48-48S122.472,352,96,352z"/>
	<rect x="288" y="392" style="fill:#fff;" width="208" height="16"/>
</g>
<polygon style="fill:#00b15a;" points="184,376 182.48,424 296,424 296,376 "/>
<g>
	<polygon style="fill:#fff;" points="198.928,237.728 185.072,229.728 238.728,136.792 256.064,132.144 244.344,88.432 
		270.728,81.368 289.072,49.584 302.928,57.584 281.272,95.104 263.936,99.744 275.656,143.456 249.272,150.52 	"/>
	<path style="fill:#fff;" d="M266.272,310.928l-8-13.856l145.496-84c19.112-11.016,43.624-4.448,54.648,14.64l-13.864,8
		c-6.616-11.456-21.312-15.408-32.792-8.784L266.272,310.928z"/>
</g>
<g>
	<polygon style="fill:#00b15a;" points="257.2,279.208 180,323.792 188,374.6 281.2,320.792 	"/>
	<polygon style="fill:#00b15a;" points="175.208,214.8 145.072,267.008 152,304 172.816,314.944 216.792,238.8 	"/>
</g>
<g>
	<path style="fill:#fff;" d="M96,496H0V40C0,17.944,17.944,0,40,0h152v80h-32v219.056l32,16V400C192,452.936,148.936,496,96,496z
		 M16,480h80c44.112,0,80-35.888,80-80v-75.056l-32-16V64h32V16H40c-13.232,0-24,10.768-24,24V480z"/>
	<rect x="32" y="64" style="fill:#fff;" width="16" height="208"/>
	<rect x="32" y="288" style="fill:#fff;" width="16" height="16"/>
</g>
<g>
</g>
<g>
</g>
<g>
</g>
<g>
</g>
<g>
</g>
<g>
</g>
<g>
</g>
<g>
</g>
<g>
</g>
<g>
</g>
<g>
</g>
<g>
</g>
<g>
</g>
<g>
</g>
<g>
</g>
</svg>
