<?xml version="1.0" encoding="iso-8859-1"?>
<!-- Generator: Adobe Illustrator 19.0.0, SVG Export Plug-In . SVG Version: 6.00 Build 0)  -->
<svg version="1.1" id="Capa_1" xmlns="http://www.w3.org/2000/svg" xmlns:xlink="http://www.w3.org/1999/xlink" x="0px" y="0px"
	 viewBox="0 0 496 496" style="enable-background:new 0 0 496 496;" xml:space="preserve">
<g>
	<circle style="fill:#00b15a;" cx="176" cy="176" r="144"/>
	
		<rect x="292.738" y="318.2" transform="matrix(-0.7071 0.7071 -0.7071 -0.7071 815.9926 338.0049)" style="fill:#00b15a;" width="90.511" height="39.6"/>
</g>
<path style="fill:#fff;" d="M255.848,227.008L208,217.44v-11.552c8.008-5.6,14.456-13.24,18.648-22.16C243.04,182.36,256,168.736,256,152v-40
	c0-44.112-35.888-80-80-80s-80,35.888-80,80v40c0,16.736,12.96,30.36,29.352,31.728c4.2,8.92,10.64,16.56,18.648,22.16v11.552
	l-47.848,9.568C77.52,230.736,64,247.232,64,266.232V288h224v-21.768C288,247.232,274.48,230.736,255.848,227.008z M231.672,165.952
	c0.208-1.96,0.328-3.944,0.328-5.952v-21.776c4.76,2.776,8,7.88,8,13.776C240,158.032,236.608,163.224,231.672,165.952z M112,152
	c0-5.896,3.24-11,8-13.776V160c0,2.008,0.12,3.992,0.328,5.952C115.392,163.224,112,158.032,112,152z M120,112v9.136
	c-2.848,0.744-5.52,1.864-8,3.312V112c0-35.288,28.712-64,64-64s64,28.712,64,64v12.448c-2.48-1.448-5.152-2.576-8-3.312V112h-8
	c-14.12,0-27.784-4.144-39.528-11.968L176,94.384l-8.472,5.648C155.784,107.856,142.12,112,128,112H120z M136,160v-32.36
	c14.264-1.304,27.952-6.088,40-14.024c12.048,7.936,25.736,12.72,40,14.024V160c0,22.056-17.944,40-40,40S136,182.056,136,160z
	 M176,216c5.56,0,10.928-0.84,16-2.36v7.048l-16,16l-16-16v-7.048C165.072,215.16,170.44,216,176,216z M272,272H80v-5.768
	c0-11.4,8.112-21.296,19.296-23.536l50.08-10.016L176,259.312l26.632-26.632l50.08,10.016c11.176,2.24,19.288,12.136,19.288,23.536
	V272z"/>
<path style="fill:#fff;" d="M480.4,405.088L367.312,292l22.344-22.344l-11.312-11.312L356,280.688l-23.776-23.776C344.832,232.664,352,205.16,352,176
	C352,78.952,273.048,0,176,0S0,78.952,0,176s78.952,176,176,176c29.16,0,56.664-7.168,80.912-19.776L280.688,356l-22.344,22.344
	l11.312,11.312L292,367.312L405.088,480.4c10.056,10.064,23.432,15.6,37.664,15.6c29.36,0,53.248-23.888,53.248-53.256
	C496,428.52,490.464,415.16,480.4,405.088z M16,176C16,87.776,87.776,16,176,16s160,71.776,160,160s-71.776,160-160,160
	S16,264.224,16,176z M271.216,323.904c21.08-13.616,39.072-31.608,52.688-52.688L344.688,292L292,344.688L271.216,323.904z
	 M442.744,480c-9.96,0-19.312-3.872-26.344-10.912L303.312,356L356,303.312L469.088,416.4c7.04,7.04,10.912,16.4,10.912,26.344
	C480,463.288,463.288,480,442.744,480z"/>
<rect style="fill:#fff;" x="352" width="16" height="16"/>
<rect style="fill:#fff;" x="352" y="32" width="16" height="16"/>
<rect style="fill:#fff;" x="368" y="16" width="16" height="16"/>
<rect style="fill:#fff;" x="336" y="16" width="16" height="16"/>
<rect style="fill:#fff;" x="424" y="160" width="16" height="16"/>
<rect style="fill:#fff;" x="424" y="192" width="16" height="16"/>
<rect style="fill:#fff;" x="440" y="176" width="16" height="16"/>
<rect style="fill:#fff;" x="408" y="176" width="16" height="16"/>
<rect style="fill:#fff;" x="16" y="320" width="16" height="16"/>
<rect style="fill:#fff;" x="16" y="352" width="16" height="16"/>
<rect style="fill:#fff;" x="32" y="336" width="16" height="16"/>
<rect style="fill:#fff;" y="336" width="16" height="16"/>
<rect style="fill:#fff;" x="96" y="400" width="16" height="16"/>
<rect style="fill:#fff;" x="96" y="432" width="16" height="16"/>
<rect style="fill:#fff;" x="112" y="416" width="16" height="16"/>
<rect style="fill:#fff;" x="80" y="416" width="16" height="16"/>
<rect style="fill:#fff;" x="192" y="368" width="16" height="16"/>
<rect style="fill:#fff;" x="192" y="400" width="16" height="16"/>
<rect style="fill:#fff;" x="208" y="384" width="16" height="16"/>
<rect style="fill:#fff;" x="176" y="384" width="16" height="16"/>
</svg>
