<?xml version="1.0" encoding="iso-8859-1"?>
<!-- Generator: Adobe Illustrator 19.0.0, SVG Export Plug-In . SVG Version: 6.00 Build 0)  -->
<svg xmlns="http://www.w3.org/2000/svg" xmlns:xlink="http://www.w3.org/1999/xlink" version="1.1" id="Capa_1" x="0px" y="0px" viewBox="0 0 496 496" style="enable-background:new 0 0 496 496;" xml:space="preserve">
<path style="fill:#00b15a;" d="M267.944,74.664h-39.888C225.4,78.624,224,83.24,224,88c0,13.232,10.768,24,24,24s24-10.768,24-24  C272,83.24,270.6,78.624,267.944,74.664z"/>
<g>
	<path style="fill:#fff;" d="M248,136c26.472,0,48-21.528,48-48s-21.528-48-48-48s-48,21.528-48,48S221.528,136,248,136z    M248,120c-17.648,0-32-14.352-32-32c0-1.512,0.24-2.968,0.448-4.424C224.08,85.792,234.928,88,248,88   c13.072,0,23.92-2.208,31.552-4.424C279.76,85.032,280,86.488,280,88C280,105.648,265.648,120,248,120z M248,56   c10.368,0,19.504,5.032,25.352,12.696C267.056,70.392,258.408,72,248,72c-10.328,0-19-1.624-25.336-3.328   C228.52,61.024,237.648,56,248,56z"/>
	<path style="fill:#fff;" d="M248,160c-12.152,0-18.184-5.512-18.432-5.744l-11.224,11.4C219.4,166.712,229.224,176,248,176   s28.6-9.288,29.656-10.344l-11.224-11.4C266.184,154.488,260.152,160,248,160z"/>
	<path style="fill:#fff;" d="M346.984,184.44l-36.016-7.208c10.168-5.848,17.72-14.84,21.728-25.472   C356.968,149.392,376,128.888,376,104c0-25.816-20.504-46.88-46.08-47.904C317.112,23.32,285.264,0,248,0   s-69.112,23.32-81.92,56.096C140.504,57.12,120,78.184,120,104c0,24.888,19.032,45.392,43.312,47.76   c4.008,10.624,11.56,19.624,21.728,25.472l-36.024,7.208C122.936,189.656,104,212.752,104,239.352V352c0,17.648,14.352,32,32,32   c6.768,0,13.032-2.144,18.208-5.744c3.368,1.688,8.008,3.84,13.792,6.168V496h72v-96.208c2.64,0.104,5.28,0.208,8,0.208   s5.36-0.104,8-0.208V496h72V384.416c5.776-2.32,10.424-4.472,13.792-6.168C346.968,381.856,353.232,384,360,384   c17.648,0,32-14.352,32-32V239.352C392,212.752,373.064,189.656,346.984,184.44z M360,104c0,14.888-10.264,27.32-24.056,30.88   c0-0.256,0.056-0.504,0.056-0.768V88c0-5.232-0.544-10.328-1.424-15.304C349.072,75.736,360,88.608,360,104z M136,104   c0-15.392,10.928-28.264,25.424-31.304C160.544,77.672,160,82.768,160,88v46.112c0,0.256,0.048,0.512,0.056,0.768   C146.264,131.32,136,118.888,136,104z M176,134.112V88c0-39.696,32.304-72,72-72s72,32.304,72,72v46.112   c0,12.92-7.176,24.528-18.728,30.312c-6.888,3.44-12.976,8.52-17.6,14.688L280,184c-7.512,10.016-19.472,16-32,16   s-24.488-5.984-32-16l-3.664-4.888c-4.624-6.168-10.712-11.248-17.6-14.688C183.176,158.648,176,147.032,176,134.112z M184,480v-24   h40v24H184z M224,440h-40v-49.872c11.256,3.512,24.808,6.68,40,8.44V440z M164.864,365.584C166.816,361.44,168,356.872,168,352v-16   h160v16c0,4.88,1.184,9.456,3.144,13.6C316.912,372.248,286.36,384,248,384C209.784,384,179.144,372.232,164.864,365.584z M272,480   v-24h40v24H272z M312,440h-40v-41.44c15.192-1.752,28.744-4.928,40-8.44V440z M376,352c0,8.824-7.176,16-16,16s-16-7.176-16-16V224   h-16v64h-16v16h16v16H168v-16h128v-16H168v-64h-16v128c0,8.824-7.176,16-16,16s-16-7.176-16-16V239.352   c0-19,13.52-35.504,32.16-39.224l43.792-8.752l3.136-3.136c0.136,0.176,0.32,0.304,0.456,0.48l3.656,4.88   c10.52,14.024,27.264,22.4,44.8,22.4s34.28-8.376,44.8-22.4l3.664-4.888c0.128-0.176,0.32-0.304,0.456-0.48l3.136,3.136   l43.792,8.752C362.48,203.848,376,220.352,376,239.352V352z"/>
	<rect x="296" y="232" style="fill:#fff;" width="16" height="16"/>
	<rect x="184" y="232" style="fill:#fff;" width="16" height="16"/>
</g>
<path style="fill:#00b15a;" d="M256,336h-16c-13.256,0-24-10.744-24-24l0,0c0-13.256,10.744-24,24-24h16c13.256,0,24,10.744,24,24  l0,0C280,325.256,269.256,336,256,336z"/>
<g>
</g>
<g>
</g>
<g>
</g>
<g>
</g>
<g>
</g>
<g>
</g>
<g>
</g>
<g>
</g>
<g>
</g>
<g>
</g>
<g>
</g>
<g>
</g>
<g>
</g>
<g>
</g>
<g>
</g>
</svg>
