<?xml version="1.0" encoding="iso-8859-1"?>
<!-- Generator: Adobe Illustrator 19.0.0, SVG Export Plug-In . SVG Version: 6.00 Build 0)  -->
<svg version="1.1" id="Capa_1" xmlns="http://www.w3.org/2000/svg" xmlns:xlink="http://www.w3.org/1999/xlink" x="0px" y="0px"
	 viewBox="0 0 496 496" style="enable-background:new 0 0 496 496;" xml:space="preserve">
<path style="fill:#00b15a;" d="M248,496C111.248,496,0,384.752,0,248S111.248,0,248,0s248,111.248,248,248S384.752,496,248,496z"/>
<g>
	<rect x="200" y="160" style="fill:#fff;" width="96" height="16"/>
	<path style="fill:#fff;" d="M464,240h-16.2C443.68,136.072,359.928,52.32,256,48.2V32h-16v16.2
		C136.072,52.32,52.32,136.072,48.2,240H32v16h16.2c4.12,103.92,87.872,187.68,191.8,191.8V464h16v-16.2
		c103.928-4.12,187.68-87.88,191.8-191.8H464V240z M240,416v15.8c-19.608-0.84-38.432-4.76-56-11.296V320h-16v93.672
		c-11.376-5.512-22.072-12.192-32-19.832V328c0-22.04,12.928-41.608,32.384-50.656l-2.472,4.944L240,339.912V400h16v-60.088
		l74.088-57.624l-2.472-4.944C347.072,286.392,360,305.96,360,328v65.84c-9.928,7.64-20.624,14.32-32,19.832V320h-16v100.504
		c-17.568,6.536-36.392,10.456-56,11.296V416H240z M192,176v-30.112c0-9.864,8.024-17.888,17.888-17.888c2.76,0,5.528,0.656,8,1.888
		c7.992,4,16.944,6.112,25.888,6.112h8.44c8.936,0,17.88-2.112,25.888-6.112c2.472-1.232,5.24-1.888,8-1.888
		c9.872,0,17.896,8.024,17.896,17.888V176h16v-7.472c10.784,3.296,14.6,6.36,15.696,7.544C331,182.112,299.52,192,248,192
		c-51.528,0-83-9.888-87.696-15.928c1.096-1.176,4.912-4.248,15.696-7.544V176H192z M301.856,261.608l8.056,16.104l-52.08,40.504
		l28.768-57.544c10.712-6.84,19.488-16.408,25.352-27.752l16.888,8.44L301.856,261.608z M232.024,270.152
		C237.168,271.328,242.504,272,248,272s10.832-0.672,15.976-1.848L248,302.112L232.024,270.152z M248,208
		c16.176,0,37.024-1.208,55.816-4.44C301.968,232.776,277.672,256,248,256s-53.968-23.224-55.816-52.44
		C210.976,206.792,231.824,208,248,208z M209.392,260.672l28.768,57.544l-52.08-40.504l8.056-16.104l-26.984-20.24l16.888-8.44
		C189.904,244.264,198.68,253.832,209.392,260.672z M376,380v-52c0-30.12-18.744-56.688-46.416-67.192l29.576-22.176l-41.496-20.752
		c1.464-5.712,2.328-11.664,2.336-17.824c18.4-4.936,32-12.568,32-24.064c0-10.504-10.576-18.392-32-24.072v-6.032
		C320,127.2,304.8,112,286.112,112c-5.232,0-10.48,1.232-15.16,3.576c-5.784,2.896-12.264,4.424-18.736,4.424h-8.44
		c-6.472,0-12.952-1.528-18.736-4.424c-4.672-2.344-9.912-3.576-15.152-3.576C191.2,112,176,127.2,176,145.888v6.032
		c-21.424,5.688-32,13.568-32,24.072c0,11.496,13.6,19.128,32,24.064c0.008,6.16,0.872,12.112,2.336,17.824l-41.496,20.752
		l29.576,22.176C138.744,271.312,120,297.88,120,328v52c-32.712-31.728-53.712-75.44-55.8-124H80v-16H64.2
		C68.296,144.896,144.896,68.296,240,64.2V80h16V64.2c95.104,4.096,171.704,80.696,175.8,175.8H416v16h15.8
		C429.712,304.56,408.712,348.272,376,380z"/>
</g>
<g>
</g>
<g>
</g>
<g>
</g>
<g>
</g>
<g>
</g>
<g>
</g>
<g>
</g>
<g>
</g>
<g>
</g>
<g>
</g>
<g>
</g>
<g>
</g>
<g>
</g>
<g>
</g>
<g>
</g>
</svg>
