<?xml version="1.0" encoding="iso-8859-1"?>
<!-- Generator: Adobe Illustrator 19.0.0, SVG Export Plug-In . SVG Version: 6.00 Build 0)  -->
<svg version="1.1" id="Capa_1" xmlns="http://www.w3.org/2000/svg" xmlns:xlink="http://www.w3.org/1999/xlink" x="0px" y="0px"
	 viewBox="0 0 496 496" style="enable-background:new 0 0 496 496;" xml:space="preserve">
<g>
	<path style="fill:#00b15a;" d="M352,488L352,488c-22.088,0-40-17.912-40-40v-80h80v80C392,470.088,374.088,488,352,488z"/>
	<path style="fill:#00b15a;" d="M352,64c-75.112,0-136,60.888-136,136s60.888,136,136,136s136-60.888,136-136S427.112,64,352,64z
		 M352,304c-57.44,0-104-46.56-104-104S294.56,96,352,96s104,46.56,104,104S409.44,304,352,304z"/>
</g>
<g>
	<path style="fill:#fff;" d="M464,200c0-61.76-50.24-112-112-112s-112,50.24-112,112s50.24,112,112,112S464,261.76,464,200z
		 M256,200c0-52.936,43.064-96,96-96s96,43.064,96,96s-43.064,96-96,96S256,252.936,256,200z"/>
	<path style="fill:#fff;" d="M272,200h16c0-4.8,0.528-9.584,1.584-14.232l-15.608-3.528C272.664,188.04,272,194.016,272,200z"/>
	<path style="fill:#fff;" d="M352,120c-30.584,0-58.056,17.032-71.68,44.44l14.328,7.128C305.544,149.624,327.52,136,352,136V120
		z"/>
	<path style="fill:#fff;" d="M404.944,376H416v-16h-16v-24.4c55.832-19.832,96-73.048,96-135.6
		c0-60.216-37.192-111.848-89.784-133.32l-2.504-23.8C401.152,18.44,380.664,0,356.08,0c-9.496,0-18.688,2.784-26.568,8.048
		C306,23.72,278.64,32,250.392,32h-4.784C217.36,32,190,23.72,166.488,8.048C158.608,2.784,149.416,0,139.92,0
		c-24.584,0-45.072,18.44-47.632,42.88L80.464,155.192L0,203.472v18.944l56.552,12.568c53.312,11.848,107.984,18.704,162.592,20.496
		c13.248,31.6,37.504,57.408,67.888,72.856c-5.888,2.848-11.48,6.288-16.536,10.496l-22.504,18.752l-22.496-18.752
		C210.92,326.688,192.448,320,173.472,320c-27.52,0-53.16,14.104-68.584,37.72c-21.136,32.344-52.16,54.968-60.472,59.128
		L32.84,422.64l10.352,7.76c1.392,1.048,34.8,25.6,92.8,25.6c24.552,0,62.632-9.176,104.632-52.88c3.88-4.024,10.88-4.024,14.736,0
		c15.936,16.568,31.896,28.968,48.64,37.872V448c0,26.472,21.528,48,48,48c25.168,0,45.832-19.472,47.808-44.144
		c33.392-7.08,52.136-20.824,52.968-21.448l10.408-7.76l-11.608-5.816C445.648,413.88,424.224,398.672,404.944,376z M384,360h-64
		v-19.712c10.312,2.352,20.992,3.712,32,3.712s21.688-1.36,32-3.712V360z M108.192,44.552C109.904,28.272,123.544,16,139.92,16
		c6.32,0,12.44,1.848,17.696,5.36C183.768,38.792,214.184,48,245.608,48h4.784c31.424,0,61.848-9.208,87.992-26.64
		C343.64,17.848,349.76,16,356.08,16c16.376,0,30.016,12.272,31.728,28.552l1.752,16.584C377.56,57.888,365.008,56,352,56
		c-50.064,0-94.192,25.712-120.008,64.592V120H100.256L108.192,44.552z M60.024,219.36l-40.44-8.984L90.216,168H112v-16H96.888
		l1.688-16H223.2c-2.576,5.168-4.84,10.504-6.792,16H128v16h83.712C209.36,178.312,208,188.992,208,200
		c0,13.624,2.024,26.752,5.576,39.248C161.992,237.2,110.392,230.552,60.024,219.36z M224,200c0-70.576,57.424-128,128-128
		s128,57.424,128,128s-57.424,128-128,128c-14.4,0-28.192-2.496-41.12-6.904l-0.024-0.192c-0.104,0.016-0.208,0.048-0.312,0.064
		C260.272,303.696,224,256.056,224,200z M266.888,392.032c-9.92-10.344-27.816-10.368-37.8,0C190.992,431.68,157.44,440,135.992,440
		c-34.56,0-59.624-9.672-72.752-16.304c14.704-10.632,37.8-30.848,55.032-57.224c12.472-19.08,33.104-30.472,55.2-30.472
		c15.232,0,30.08,5.376,41.784,15.136L248,378.416l32.744-27.28c6.824-5.68,14.744-9.864,23.264-12.376V360h-16v16h16v46.56
		C291.432,414.864,279.192,404.824,266.888,392.032z M352,480c-17.648,0-32-14.352-32-32v-72h64v72C384,465.648,369.648,480,352,480
		z M400,435.392v-40.848c11.848,12.672,23.776,22.688,32.72,29.152C425.384,427.4,414.288,432.016,400,435.392z"/>
</g>
<g>
</g>
<g>
</g>
<g>
</g>
<g>
</g>
<g>
</g>
<g>
</g>
<g>
</g>
<g>
</g>
<g>
</g>
<g>
</g>
<g>
</g>
<g>
</g>
<g>
</g>
<g>
</g>
<g>
</g>
</svg>
