<?xml version="1.0" encoding="iso-8859-1"?>
<!-- Generator: Adobe Illustrator 19.0.0, SVG Export Plug-In . SVG Version: 6.00 Build 0)  -->
<svg version="1.1" id="Layer_1" xmlns="http://www.w3.org/2000/svg" xmlns:xlink="http://www.w3.org/1999/xlink" x="0px" y="0px"
	 viewBox="0 0 293.142 293.142" style="enable-background:new 0 0 293.142 293.142;" xml:space="preserve">
<g>
	<g>
		<polygon style="fill:#00b15a;" points="132.508,79.688 141.883,220.313 113.758,220.313 170.008,285.938 226.258,220.313 
			198.133,220.313 207.508,79.688 		"/>
		<path style="fill:#fff;" d="M245.008,42.188V0H1.258v215.625c0,15.511,12.614,28.125,28.125,28.125h98.292l42.333,49.392
			l42.333-49.392h51.417c15.511,0,28.125-12.614,28.125-28.125V42.188H245.008z M10.633,215.625V9.375h225v32.813H130.717
			l-9.375-18.75H48.133v192.188c0,10.341-8.409,18.75-18.75,18.75S10.633,225.966,10.633,215.625z M282.509,215.625
			c0,10.341-8.409,18.75-18.75,18.75H220.38l16.073-18.75h-33.305l9.042-135.628l-9.352-0.623L193.122,225h22.945l-46.059,53.733
			L123.948,225h22.945l-9.708-145.622l-9.352,0.623l9.037,135.623h-33.305l16.073,18.75H50.289
			c4.472-4.983,7.219-11.541,7.219-18.75V32.813h58.041l9.375,18.75h157.584V215.625z"/>
	</g>
</g>
<g>
</g>
<g>
</g>
<g>
</g>
<g>
</g>
<g>
</g>
<g>
</g>
<g>
</g>
<g>
</g>
<g>
</g>
<g>
</g>
<g>
</g>
<g>
</g>
<g>
</g>
<g>
</g>
<g>
</g>
</svg>
