<?xml version="1.0" encoding="iso-8859-1"?>
<!-- Generator: Adobe Illustrator 19.0.0, SVG Export Plug-In . SVG Version: 6.00 Build 0)  -->
<svg version="1.1" id="Capa_1" xmlns="http://www.w3.org/2000/svg" xmlns:xlink="http://www.w3.org/1999/xlink" x="0px" y="0px"
	 viewBox="0 0 496 496" style="enable-background:new 0 0 496 496;" xml:space="preserve">
<path style="fill:#fff;" d="M448,400c0-16.032-6.888-31.184-18.712-41.752C431.072,353.672,432,348.84,432,344
	c0-19.312-13.768-35.472-32-39.192V272h32v-36.856l-25.944-13.488l-7.376,14.184l17.32,9.016V256H32v-11.144l192-99.84l36.312,18.88
	l7.376-14.2L224,126.984L16,235.144V272h32v32.808c-18.232,3.72-32,19.88-32,39.192c0,4.84,0.928,9.672,2.712,14.248
	C6.888,368.816,0,383.968,0,400c0,22.28,13.112,41.504,32,50.52V496h120h8h128h8h120v-45.48C434.888,441.504,448,422.28,448,400z
	 M16,400c0-13.112,6.464-25.408,17.28-32.896l6.192-4.288l-3.912-6.448C33.192,352.48,32,348.312,32,344c0-13.232,10.768-24,24-24
	s24,10.768,24,24c0,4.312-1.192,8.48-3.56,12.368l-3.912,6.448l6.192,4.288C89.536,374.592,96,386.888,96,400
	c0,22.056-17.944,40-40,40S16,422.056,16,400z M48,455.36c2.624,0.376,5.28,0.64,8,0.64s5.376-0.264,8-0.64V480H48V455.36z M280,480
	H168V336h112V480z M152,320v160H80v-29.48c18.888-9.008,32-28.24,32-50.52c0-16.032-6.888-31.184-18.712-41.752
	C95.072,353.672,96,348.84,96,344c0-19.312-13.768-35.472-32-39.192V272h320v32.808c-18.232,3.72-32,19.872-32,39.192
	c0,4.84,0.928,9.672,2.712,14.248C342.888,368.816,336,383.968,336,400c0,22.28,13.112,41.504,32,50.52V480h-72V320H152z M400,480
	h-16v-24.64c2.624,0.376,5.28,0.64,8,0.64s5.376-0.264,8-0.64V480z M392,440c-22.056,0-40-17.944-40-40
	c0-13.112,6.464-25.408,17.28-32.896l6.192-4.288l-3.912-6.448C369.192,352.48,368,348.312,368,344c0-13.232,10.768-24,24-24
	s24,10.768,24,24c0,4.312-1.192,8.48-3.56,12.368l-3.912,6.448l6.192,4.288C425.536,374.592,432,386.888,432,400
	C432,422.056,414.056,440,392,440z"/>
<path style="fill:#00b15a;" d="M376,240H256V120C256,53.832,309.824,0,376,0c66.168,0,120,53.824,120,120S442.168,240,376,240z"/>
<g>
	<path style="fill:#fff;" d="M376,208c-48.52,0-88-39.48-88-88s39.48-88,88-88s88,39.48,88,88S424.52,208,376,208z M376,48
		c-39.704,0-72,32.296-72,72s32.296,72,72,72s72-32.296,72-72S415.704,48,376,48z"/>
	<path style="fill:#fff;" d="M376,32c-48.52,0-88,39.48-88,88s39.48,88,88,88s88-39.48,88-88S424.52,32,376,32z M414.728,180.6
		c2.584-6.016,4.976-12,7.104-17.896l-15.048-5.424c-3.848,10.672-8.632,21.648-14.04,32.664C387.36,191.24,381.768,192,376,192
		c-0.728,0-1.432-0.088-2.152-0.112c20.968-39.832,25.624-66.736,25.824-67.944c1.056-6.32-0.424-12.672-4.152-17.888
		s-9.232-8.664-15.488-9.72c-13.368-2.216-25.576,6.784-27.672,19.528c-0.016,0.096-1.816,9.568-7.952,25.216l14.904,5.832
		c6.704-17.136,8.696-27.688,8.808-28.288c0.712-4.304,4.656-7.32,9.256-6.504c2.064,0.344,3.888,1.496,5.136,3.232
		c1.256,1.768,1.744,3.832,1.384,5.976c-0.192,1.16-4.824,27.808-26.864,68.056c-5.288-1.448-10.36-3.424-15.096-5.976
		c3.704-6.704,7.224-13.408,10.312-20.024l-14.496-6.768c-2.704,5.808-5.776,11.688-8.992,17.576
		c-4.264-3.72-8.08-7.928-11.376-12.544c15.36-29.416,19.224-48.528,19.304-48.952c3.104-18.944,19.608-32.704,39.264-32.704
		c2.272,0,4.536,0.192,6.776,0.576c10.44,1.744,19.608,7.496,25.832,16.184c6.208,8.696,8.664,19.288,6.904,29.824
		c-0.24,1.44-1.208,6.8-3.632,15.208l15.376,4.424c2.584-8.976,3.688-14.88,4.04-17.008c2.464-14.752-0.976-29.576-9.672-41.76
		c-8.704-12.168-21.552-20.208-36.168-22.648c-3.096-0.528-6.272-0.808-9.456-0.808c-27.528,0-50.688,19.4-55,45.824
		c-0.04,0.152-2.96,13.424-12.728,34.232C305.536,136.512,304,128.44,304,120c0-39.704,32.296-72,72-72s72,32.296,72,72
		C448,145.44,434.704,167.792,414.728,180.6z"/>
</g>
<g>
</g>
<g>
</g>
<g>
</g>
<g>
</g>
<g>
</g>
<g>
</g>
<g>
</g>
<g>
</g>
<g>
</g>
<g>
</g>
<g>
</g>
<g>
</g>
<g>
</g>
<g>
</g>
<g>
</g>
</svg>
