<?xml version="1.0" encoding="iso-8859-1"?>
<!-- Generator: Adobe Illustrator 19.0.0, SVG Export Plug-In . SVG Version: 6.00 Build 0)  -->
<svg version="1.1" id="Capa_1" xmlns="http://www.w3.org/2000/svg" xmlns:xlink="http://www.w3.org/1999/xlink" x="0px" y="0px"
	 viewBox="0 0 496 496" style="enable-background:new 0 0 496 496;" xml:space="preserve">
<circle style="fill:#00b15a;" cx="196" cy="192" r="152"/>
<g>
	<path style="fill:#fff;" d="M444,392c-13.232,0-24,10.768-24,24v80h16v-80c0-4.416,3.584-8,8-8s8,3.584,8,8v80h16v-80
		C468,402.768,457.232,392,444,392z"/>
	<path style="fill:#fff;" d="M468,374.496V24c0-13.232-10.768-24-24-24s-24,10.768-24,24v350.496
		c-14.32,8.312-24,23.784-24,41.504v80h16v-80c0-17.648,14.352-32,32-32s32,14.352,32,32v80h16v-80
		C492,398.28,482.32,382.808,468,374.496z M444,16c4.416,0,8,3.584,8,8v312h-16V24C436,19.584,439.584,16,444,16z M436,368.72V352
		h16v16.72c-2.608-0.44-5.272-0.72-8-0.72S438.608,368.28,436,368.72z"/>
	<path style="fill:#fff;" d="M4,0v496h384V84.688L303.312,0H4z M274.144,136.224c-14.896-20.872-37.056-34.704-62.392-38.928
		c-17.08-2.832-34.688-0.992-50.64,5.184l5.784,14.92c13.288-5.152,28.04-6.696,42.224-4.328c21.12,3.52,39.584,15.048,52,32.448
		c12.408,17.376,17.304,38.552,13.784,59.656c-0.368,2.256-9.272,55.288-36.304,124.384c-6.128,1.904-12.48,3.248-18.92,4.32
		c29.288-71.608,39.032-128.816,39.456-131.352c2.816-16.864-1.112-33.816-11.04-47.72c-9.928-13.912-24.696-23.136-41.584-25.944
		c-3.472-0.576-6.992-0.864-10.496-0.864c-31.416,0-57.96,22.416-63.112,53.224c-0.096,0.544-9.544,52.792-36.24,114.768
		c-4.232-4.04-8.28-8.264-11.992-12.792c23.432-56.336,32.104-102.704,32.496-104.816c3.664-21.952,16.488-41.48,35.184-53.56
		l-8.688-13.44c-22.464,14.52-37.864,37.984-42.248,64.24c-0.328,1.808-7.784,41.64-27.688,92.032C60.04,245.648,52,219.776,52,192
		c0-79.4,64.6-144,144-144c35.552,0,69.456,13.184,96,37.024V96h10.976C326.816,122.536,340,156.448,340,192
		c0,56.856-33.208,105.976-81.176,129.368c23.504-63.744,31.512-111.432,31.864-113.584
		C294.904,182.488,289.032,157.08,274.144,136.224z M222.04,173.408c-4.968-6.96-12.36-11.568-20.824-12.976
		c-17.72-2.92-33.912,9.12-36.784,26.288c-0.032,0.192-3.592,20.544-12.656,51l15.344,4.56c9.44-31.752,13.064-52.752,13.096-52.92
		c1.424-8.576,9.392-14.712,18.368-13.144c4.24,0.712,7.952,3.016,10.44,6.496c2.48,3.48,3.464,7.712,2.76,11.928
		c-0.44,2.648-10.984,64.224-43.984,138.56c-10.728-2.144-20.992-5.544-30.72-9.936c9.304-20.728,17.744-42.448,25.008-64.776
		l-15.216-4.952c-6.984,21.48-15.072,42.36-24,62.304c-4.672-2.768-9.16-5.792-13.472-9.056
		c28.984-65.776,39.168-122.2,39.28-122.84C152.544,160.792,172.456,144,196.016,144c2.624,0,5.264,0.216,7.856,0.648
		c12.664,2.112,23.744,9.024,31.184,19.464c7.448,10.432,10.392,23.144,8.28,35.792c-0.432,2.56-10.624,62.232-41.784,135.816
		c-1.856,0.072-3.68,0.28-5.552,0.28c-3.944,0-7.824-0.28-11.696-0.592c32.344-74.272,42.816-135.472,43.256-138.144
		C228.968,188.832,227.008,180.36,222.04,173.408z M308,80V27.312L360.688,80H308z M20,480V16h272v48.28
		C264.344,43.408,230.88,32,196,32c-88.224,0-160,71.776-160,160s71.776,160,160,160s160-71.776,160-160
		c0-34.88-11.408-68.344-32.28-96H372v384H20z"/>
	<path style="fill:#fff;" d="M76.536,145.952C70.872,160.616,68,176.112,68,192c0,8.592,0.856,17.2,2.552,25.584l15.688-3.168
		C84.752,207.072,84,199.528,84,192c0-13.904,2.504-27.464,7.464-40.28L76.536,145.952z"/>
	<path style="fill:#fff;" d="M324,192c0-70.576-57.424-128-128-128c-47.584,0-90.976,26.152-113.224,68.264l14.144,7.472
		C116.392,102.888,154.36,80,196,80c61.76,0,112,50.24,112,112H324z"/>
	<path style="fill:#fff;" d="M298.4,268.816c13.128-17.472,21.584-38.136,24.48-59.768l-15.856-2.112
		c-2.52,18.904-9.928,36.984-21.416,52.264L298.4,268.816z"/>
	<rect x="52" y="368" style="fill:#fff;" width="288" height="16"/>
	<rect x="52" y="400" style="fill:#fff;" width="40" height="16"/>
	<rect x="108" y="400" style="fill:#fff;" width="232" height="16"/>
	<rect x="324" y="432" style="fill:#fff;" width="16" height="16"/>
	<rect x="220" y="432" style="fill:#fff;" width="88" height="16"/>
</g>
<g>
</g>
<g>
</g>
<g>
</g>
<g>
</g>
<g>
</g>
<g>
</g>
<g>
</g>
<g>
</g>
<g>
</g>
<g>
</g>
<g>
</g>
<g>
</g>
<g>
</g>
<g>
</g>
<g>
</g>
</svg>
