<?xml version="1.0" encoding="iso-8859-1"?>
<!-- Generator: Adobe Illustrator 19.0.0, SVG Export Plug-In . SVG Version: 6.00 Build 0)  -->
<svg version="1.1" id="Layer_1" xmlns="http://www.w3.org/2000/svg" xmlns:xlink="http://www.w3.org/1999/xlink" x="0px" y="0px"
	 viewBox="0 0 289.068 289.068" style="enable-background:new 0 0 289.068 289.068;" xml:space="preserve">
<g>
	<g>
		<polygon style="fill:#00b15a;" points="120.315,187.125 120.315,55.082 260.94,55.082 260.94,187.125 190.627,229.312 		"/>
		<path style="fill:#fff;" d="M92.19,26.957v56.695L52.346,45.707H73.44v-9.375h-37.5v37.5h9.375V51.961L92.19,96.6v73.903
			L65.626,194.32v-0.005l-5.236,4.692l6.258,6.984l5.236-4.692l-3.131-3.492l3.127,3.488l20.311-18.206v19.959l98.438,59.063
			l98.438-59.062V26.957H92.19z M101.565,105.529l30.595,29.137l-30.595,27.427C101.565,162.093,101.565,105.529,101.565,105.529z
			 M279.69,197.742l-89.063,53.438l-89.063-53.438v-23.053l44.405-39.811l-44.405-42.295v-56.25h178.125v161.409H279.69z"/>
		<path style="fill:#fff;" d="M181.252,186.332h4.688v14.063h9.375v-14.063h4.688c15.511,0,28.125-12.614,28.125-28.125
			s-12.614-28.125-28.125-28.125h-18.75c-10.341,0-18.75-8.409-18.75-18.75s8.409-18.75,18.75-18.75h18.75
			c10.341,0,18.75,8.409,18.75,18.75v4.688h9.375v-4.688c0-15.511-12.614-28.125-28.125-28.125h-4.688V69.145h-9.375v14.063h-4.688
			c-15.511,0-28.125,12.614-28.125,28.125s12.614,28.125,28.125,28.125h18.75c10.341,0,18.75,8.409,18.75,18.75
			s-8.409,18.75-18.75,18.75h-4.688v-4.688h-9.375v4.688h-4.688c-10.341,0-18.75-8.409-18.75-18.75v-4.688h-9.375v4.688
			C153.127,173.718,165.741,186.332,181.252,186.332z"/>
		
			<rect x="2.232" y="249.607" transform="matrix(0.7448 -0.6672 0.6672 0.7448 -168.2099 68.72)" style="fill:#fff;" width="7.031" height="9.378"/>
		
			<rect x="17.507" y="232.429" transform="matrix(0.7448 -0.6672 0.6672 0.7448 -151.8579 77.1246)" style="fill:#fff;" width="14.811" height="9.378"/>
		
			<rect x="39.566" y="212.649" transform="matrix(0.7448 -0.6672 0.6672 0.7448 -133.0314 86.7962)" style="fill:#fff;" width="14.811" height="9.378"/>
	</g>
</g>
<g>
</g>
<g>
</g>
<g>
</g>
<g>
</g>
<g>
</g>
<g>
</g>
<g>
</g>
<g>
</g>
<g>
</g>
<g>
</g>
<g>
</g>
<g>
</g>
<g>
</g>
<g>
</g>
<g>
</g>
</svg>
