<?xml version="1.0" encoding="iso-8859-1"?>
<!-- Generator: Adobe Illustrator 19.0.0, SVG Export Plug-In . SVG Version: 6.00 Build 0)  -->
<svg version="1.1" id="Capa_1" xmlns="http://www.w3.org/2000/svg" xmlns:xlink="http://www.w3.org/1999/xlink" x="0px" y="0px"
	 viewBox="0 0 496 496" style="enable-background:new 0 0 496 496;" xml:space="preserve">
<g>
	<path style="fill:#00b15a;" d="M352,256c-61.76,0-112-50.24-112-112S290.24,32,352,32s112,50.24,112,112S413.76,256,352,256z"/>
	<rect x="48" y="144" style="fill:#00b15a;" width="88" height="16"/>
	<rect x="48" y="176" style="fill:#00b15a;" width="88" height="16"/>
	<rect x="48" y="304" style="fill:#00b15a;" width="88" height="16"/>
	<rect x="48" y="336" style="fill:#00b15a;" width="88" height="16"/>
</g>
<path style="fill:#fff;" d="M496,144C496,64.6,431.4,0,352,0S208,64.6,208,144c0,65.512,44.016,120.84,104,138.232V304h-16v16h16v16h-16v16h16v104
	c0,22.056,17.944,40,40,40s40-17.944,40-40V352h16v-16h-16v-16h16v-16h-16v-21.768C451.984,264.84,496,209.512,496,144z M224,144
	c0-70.576,57.424-128,128-128s128,57.424,128,128s-57.424,128-128,128S224,214.576,224,144z M376,456c0,13.232-10.768,24-24,24
	s-24-10.768-24-24V352h48V456z M376,336h-48v-16h48V336z M376,304h-48v-18.168c7.824,1.32,15.808,2.168,24,2.168
	s16.176-0.848,24-2.168V304z"/>
<path style="fill:#fff;" d="M416,144h16c0-44.112-35.888-80-80-80v16C387.288,80,416,108.712,416,144z"/>
<rect style="fill:#fff;" x="280" y="104" width="16" height="32"/>
<rect style="fill:#fff;" x="344" y="104" width="16" height="32"/>
<rect style="fill:#fff;" x="280" y="160" width="16" height="32"/>
<rect style="fill:#fff;" x="344" y="160" width="16" height="32"/>
<path style="fill:#fff;" d="M135.688,8c0,20.824-14.248,33.8-43.728,51.928C62.376,41.728,48.312,28.984,48.312,8V0H0v8
	c0,37.688,21.808,61.728,47.08,79.968C23.44,104.976,0,129.28,0,167.984c0,37.688,21.792,61.728,47.056,79.968
	C23.432,264.952,0,289.256,0,327.992c0,37.688,21.792,61.736,47.056,79.968C23.432,424.96,0,449.256,0,488v8h48.312v-8
	c0-21.232,14.72-34.184,43.688-51.96c29.616,18.208,43.696,30.952,43.696,51.96v8H184v-8c0-37.688-21.792-61.728-47.056-79.968
	c23.624-17,47.056-41.304,47.056-80.04c0-38.488-22.256-62.248-47.008-79.992C160.6,231,184,206.696,184,167.984
	c0-37.688-21.808-61.728-47.08-79.968C160.56,71.008,184,46.704,184,8V0h-48.312V8z M32.856,480H16.424
	c3.168-29.416,23.672-48.12,44.872-62.472c5.152,3.248,10.288,6.328,15.304,9.296C54.84,440.728,36.24,456.024,32.856,480z
	 M167.592,480h-16.424c-3.816-27.96-28.008-44.296-63.36-65.144C52.496,394.048,16,372.528,16,327.992
	c0-34.104,22.232-54.856,45.296-70.472c5.144,3.248,10.28,6.32,15.288,9.28c-24.088,15.392-44.28,32.512-44.28,61.184
	c0,33.008,25.296,50.4,63.888,73.152C129.32,420.664,163.496,440.816,167.592,480z M92.008,379.96
	c-29.624-18.208-43.696-30.952-43.696-51.968c0-21.232,14.72-34.176,43.688-51.96c29.624,18.208,43.696,30.952,43.696,51.96
	C135.688,349.232,120.976,362.176,92.008,379.96z M168,327.992c0,34.104-22.232,54.856-45.296,70.48
	c-5.144-3.248-10.28-6.32-15.288-9.28c24.088-15.392,44.28-32.512,44.28-61.192c0-33-25.296-50.392-63.888-73.144
	C52.496,234.04,16,212.52,16,167.984c0-34.064,21.256-54.208,45.312-70.448c5.136,3.24,10.256,6.312,15.256,9.264
	c-25.76,16.44-44.264,33.032-44.264,61.184c0,32.08,25.168,49.856,55.568,68.184l0.024-0.04c0.296,0.2,0.608,0.392,0.944,0.568
	l28.856,17.536C143.832,271.12,168,291.744,168,327.992z M92.008,219.904c-29.464-18.12-43.704-31.096-43.704-51.92
	s14.248-33.8,43.728-51.928c29.592,18.192,43.656,30.936,43.656,51.928C135.688,188.808,121.456,201.784,92.008,219.904z
	 M168,167.984c0,34.136-22.28,54.904-45.368,70.528l-15.264-9.28c25.792-16.456,44.32-33.056,44.32-61.248
	c0-33-25.296-50.376-63.888-73.136C54.68,75.328,20.504,55.184,16.408,16h16.424c3.824,27.952,28.008,44.296,63.36,65.136
	C131.504,101.944,168,123.464,168,167.984z M167.592,16c-3.048,29.304-22.84,47.488-44.952,62.424
	c-5.128-3.232-10.232-6.296-15.224-9.248c23.216-14.824,40.56-29.76,43.752-53.176C151.168,16,167.592,16,167.592,16z"/>
<rect style="fill:#fff;" x="312" y="112" width="16" height="16"/>
<rect style="fill:#fff;" x="312" y="168" width="16" height="16"/>
<rect style="fill:#fff;" x="376" y="168" width="16" height="16"/>
<rect style="fill:#fff;" x="376" y="112" width="16" height="16"/>
<g>
</g>
<g>
</g>
<g>
</g>
<g>
</g>
<g>
</g>
<g>
</g>
<g>
</g>
<g>
</g>
<g>
</g>
<g>
</g>
<g>
</g>
<g>
</g>
<g>
</g>
<g>
</g>
<g>
</g>
</svg>
