<?xml version="1.0" encoding="iso-8859-1"?>
<!-- Generator: Adobe Illustrator 19.0.0, SVG Export Plug-In . SVG Version: 6.00 Build 0)  -->
<svg version="1.1" id="Layer_1" xmlns="http://www.w3.org/2000/svg" xmlns:xlink="http://www.w3.org/1999/xlink" x="0px" y="0px"
	 viewBox="0 0 290.63 290.63" style="enable-background:new 0 0 290.63 290.63;" xml:space="preserve">
<g>
	<g>
		<path style="fill:#fff;" d="M274.222,65.625H166.794l35.428-5.906c14.559-2.423,25.125-14.897,25.125-29.653
			C227.347,13.486,213.861,0,197.281,0h-0.895c-8.452,0-16.561,3.586-22.247,9.839L138.285,49.28L102.43,9.839
			C96.744,3.586,88.639,0,80.183,0h-0.895c-16.58,0-30.066,13.486-30.066,30.066c0,14.756,10.566,27.23,25.12,29.658l35.428,5.906
			H2.347v51.563h14.062V290.63h103.125h37.5h103.125v-32.813h-9.375v23.438h-93.75V117.192h6.478l26.334,52.664
			c3.994,7.992,12.028,12.956,20.962,12.956h2.475c12.923,0,23.437-10.514,23.437-23.438s-10.514-23.438-23.437-23.438h-9.375v9.375
			h9.375c7.753,0,14.062,6.309,14.062,14.063s-6.309,14.063-14.062,14.063h-2.475c-5.362,0-10.181-2.977-12.577-7.772
			l-24.239-48.478h76.79v79.688h9.375v-79.688h14.062V65.625H274.222z M128.91,85.481L134.15,75h8.269l5.241,10.481v22.331h-18.75
			V85.481z M119.535,107.813h-1.791l1.791-3.581V107.813z M181.077,16.148c3.914-4.308,9.492-6.773,15.309-6.773h0.895
			c11.409,0,20.691,9.281,20.691,20.691c0,10.158-7.27,18.741-17.287,20.409l-55.425,9.239l-1.341-2.686L181.077,16.148z
			 M58.597,30.066c0-11.409,9.281-20.691,20.691-20.691h0.895c5.817,0,11.395,2.466,15.309,6.773l37.162,40.88l-1.341,2.686
			l-55.425-9.239C65.868,48.806,58.597,40.219,58.597,30.066z M11.722,107.813V75h107.812v8.269l-12.272,24.544H16.41
			C16.41,107.813,11.722,107.813,11.722,107.813z M25.785,281.25V117.188h76.79l-24.239,48.478
			c-2.395,4.795-7.214,7.772-12.577,7.772h-2.475c-7.753,0-14.062-6.309-14.062-14.063s6.309-14.063,14.062-14.063h9.375v-9.375
			h-9.375c-12.923,0-23.437,10.514-23.437,23.438s10.514,23.438,23.437,23.438h2.475c8.934,0,16.969-4.964,20.962-12.956
			l26.334-52.669h6.478V281.25H25.785z M147.66,281.25h-18.75V117.188h18.75V281.25z M157.035,107.813v-3.581l1.791,3.581H157.035z
			 M264.847,107.813h-4.687h-90.853l-12.272-24.544V75h107.812V107.813z"/>
		<path style="fill:#00b15a;" d="M262.958,182.813c-7.692,0-14.972,3.497-19.777,9.506l-11.147,13.931l-11.147-13.931
			c-4.805-6.009-12.084-9.506-19.777-9.506c-13.987,0-25.327,11.339-25.327,25.327l0,0c0,25.177,12.581,48.684,33.53,62.653
			l22.72,15.145l22.72-15.145c20.948-13.964,33.53-37.477,33.53-62.653l0,0C288.284,194.152,276.945,182.813,262.958,182.813z"/>
	</g>
</g>
<g>
</g>
<g>
</g>
<g>
</g>
<g>
</g>
<g>
</g>
<g>
</g>
<g>
</g>
<g>
</g>
<g>
</g>
<g>
</g>
<g>
</g>
<g>
</g>
<g>
</g>
<g>
</g>
<g>
</g>
</svg>
