<?xml version="1.0" encoding="UTF-8" standalone="no"?>
<!-- Generator: Adobe Illustrator 19.0.0, SVG Export Plug-In . SVG Version: 6.00 Build 0)  -->

<svg
   xmlns:dc="http://purl.org/dc/elements/1.1/"
   xmlns:cc="http://creativecommons.org/ns#"
   xmlns:rdf="http://www.w3.org/1999/02/22-rdf-syntax-ns#"
   xmlns:svg="http://www.w3.org/2000/svg"
   xmlns="http://www.w3.org/2000/svg"
   xmlns:sodipodi="http://sodipodi.sourceforge.net/DTD/sodipodi-0.dtd"
   xmlns:inkscape="http://www.inkscape.org/namespaces/inkscape"
   version="1.1"
   id="Capa_1"
   x="0px"
   y="0px"
   viewBox="0 0 496 496"
   style="enable-background:new 0 0 496 496;"
   xml:space="preserve"
   inkscape:version="0.91 r13725"
   sodipodi:docname="gpl3.svg"><metadata
   id="metadata55"><rdf:RDF><cc:Work
       rdf:about=""><dc:format>image/svg+xml</dc:format><dc:type
         rdf:resource="http://purl.org/dc/dcmitype/StillImage" /><dc:title></dc:title></cc:Work></rdf:RDF></metadata><defs
   id="defs53" /><sodipodi:namedview
   pagecolor="#ffffff"
   bordercolor="#666666"
   borderopacity="1"
   objecttolerance="10"
   gridtolerance="10"
   guidetolerance="10"
   inkscape:pageopacity="0"
   inkscape:pageshadow="2"
   inkscape:window-width="1001"
   inkscape:window-height="651"
   id="namedview51"
   showgrid="false"
   inkscape:zoom="0.47580645"
   inkscape:cx="259.79661"
   inkscape:cy="245.89831"
   inkscape:window-x="465"
   inkscape:window-y="180"
   inkscape:window-maximized="0"
   inkscape:current-layer="Capa_1" />

<g
   id="g4045"
   transform="matrix(6.9215247,0,0,6.9215247,-2829.1467,-2043.5148)"><path
     style="fill:#00b15a"
     id="path187"
     d="m 456.545,295.604 19.455,0 -29.969,50.5 c -1.711,2.814 -3.381,4.98 -5.008,6.498 -1.629,1.519 -3.133,2.622 -4.512,3.312 -1.381,0.69 -2.566,1.091 -3.561,1.2 -0.992,0.111 -1.684,0.166 -2.069,0.166 l -17.881,0 0,-43.628 16.723,0 0.083,29.968 26.739,-48.016 z"
     inkscape:connector-curvature="0" /><path
     style="fill:#00b15a"
     id="path191"
     d="m 419.267,362.856 c 0.027,-0.189 -0.005,-0.32 -0.1,-0.392 l 0.005,0 c -0.086,-0.065 -0.211,-0.098 -0.376,-0.098 l -3.109,0 c -0.186,0 -0.358,0.041 -0.516,0.128 -0.14,0.071 -0.228,0.158 -0.264,0.257 l -0.33,0.907 2.294,0 -0.231,0.636 -2.295,0 -0.706,1.938 -0.639,0 1.267,-3.481 c 0.104,-0.283 0.321,-0.528 0.648,-0.731 0.319,-0.195 0.654,-0.294 1.004,-0.294 l 3.109,0 c 0.33,0 0.575,0.093 0.736,0.272 0.177,0.183 0.227,0.47 0.148,0.857 l -0.645,0 0,10e-4 z"
     inkscape:connector-curvature="0" /><path
     style="fill:#00b15a"
     id="path193"
     d="m 423.857,364.073 c 0.013,-0.18 -0.041,-0.302 -0.161,-0.366 -0.045,-0.027 -0.095,-0.048 -0.151,-0.059 -0.058,-0.009 -0.117,-0.015 -0.178,-0.015 l -1.501,0 c -0.151,0 -0.301,0.03 -0.45,0.089 -0.171,0.064 -0.274,0.147 -0.311,0.246 l -0.824,2.265 -0.64,0 1.177,-3.234 0.64,0 -0.049,0.135 c 0.126,-0.048 0.245,-0.082 0.354,-0.103 0.108,-0.021 0.218,-0.032 0.328,-0.032 l 1.506,0 c 0.285,0 0.518,0.073 0.699,0.217 0.219,0.177 0.283,0.461 0.194,0.857 l -0.633,0 z"
     inkscape:connector-curvature="0" /><path
     style="fill:#00b15a"
     id="path195"
     d="m 429.549,363.959 c -0.108,0.3 -0.346,0.545 -0.711,0.737 -0.302,0.159 -0.608,0.236 -0.917,0.236 l -1.501,0 c -0.1,0 -0.191,-0.009 -0.279,-0.025 -0.086,-0.017 -0.191,-0.049 -0.314,-0.098 l -0.158,0.433 -0.004,0.01 c -0.022,0.091 0.031,0.171 0.16,0.243 0.055,0.039 0.112,0.064 0.172,0.081 0.06,0.016 0.121,0.022 0.182,0.022 l 1.501,0 c 0.062,0 0.125,-0.006 0.188,-0.015 0.064,-0.011 0.129,-0.03 0.193,-0.057 0.168,-0.066 0.311,-0.188 0.428,-0.367 l 0.633,0 c -0.197,0.393 -0.468,0.676 -0.814,0.852 -0.283,0.147 -0.57,0.222 -0.859,0.222 l -1.5,0 c -0.289,0 -0.531,-0.076 -0.727,-0.227 -0.244,-0.19 -0.311,-0.439 -0.198,-0.748 l 0.472,-1.294 c 0.111,-0.307 0.344,-0.551 0.695,-0.733 0.295,-0.154 0.607,-0.232 0.935,-0.232 l 1.501,0 c 0.316,0 0.567,0.074 0.755,0.223 0.223,0.182 0.28,0.426 0.167,0.737 z m -0.644,0.01 c 0.03,-0.082 0,-0.153 -0.091,-0.216 -0.098,-0.079 -0.24,-0.119 -0.426,-0.119 l -1.496,0 c -0.131,0 -0.278,0.03 -0.443,0.089 -0.174,0.061 -0.279,0.142 -0.315,0.242 -0.035,0.097 0.009,0.177 0.133,0.241 0.112,0.063 0.241,0.094 0.384,0.094 l 1.502,0 c 0.178,0 0.346,-0.038 0.504,-0.114 0.136,-0.062 0.218,-0.134 0.248,-0.217 z"
     inkscape:connector-curvature="0" /><path
     style="fill:#00b15a"
     id="path197"
     d="m 434.582,363.959 c -0.109,0.3 -0.346,0.545 -0.712,0.737 -0.302,0.159 -0.606,0.236 -0.916,0.236 l -1.501,0 c -0.1,0 -0.192,-0.009 -0.279,-0.025 -0.086,-0.017 -0.191,-0.049 -0.314,-0.098 l -0.158,0.433 -0.004,0.01 c -0.021,0.091 0.031,0.171 0.16,0.243 0.055,0.039 0.112,0.064 0.172,0.081 0.06,0.016 0.121,0.022 0.182,0.022 l 1.502,0 c 0.061,0 0.123,-0.006 0.188,-0.015 0.064,-0.011 0.129,-0.03 0.193,-0.057 0.168,-0.066 0.311,-0.188 0.428,-0.367 l 0.633,0 c -0.197,0.393 -0.468,0.676 -0.814,0.852 -0.283,0.147 -0.569,0.222 -0.858,0.222 l -1.501,0 c -0.289,0 -0.531,-0.076 -0.727,-0.227 -0.244,-0.19 -0.311,-0.439 -0.197,-0.748 l 0.471,-1.294 c 0.111,-0.307 0.344,-0.551 0.695,-0.733 0.296,-0.154 0.607,-0.232 0.934,-0.232 l 1.502,0 c 0.315,0 0.567,0.074 0.754,0.223 0.224,0.182 0.28,0.426 0.167,0.737 z m -0.643,0.01 c 0.029,-0.082 -0.002,-0.153 -0.092,-0.216 -0.098,-0.079 -0.24,-0.119 -0.426,-0.119 l -1.496,0 c -0.131,0 -0.279,0.03 -0.443,0.089 -0.174,0.061 -0.279,0.142 -0.315,0.242 -0.034,0.097 0.009,0.177 0.134,0.241 0.111,0.063 0.239,0.094 0.383,0.094 l 1.502,0 c 0.178,0 0.346,-0.038 0.504,-0.114 0.136,-0.062 0.218,-0.134 0.249,-0.217 z"
     inkscape:connector-curvature="0" /><path
     style="fill:#00b15a"
     id="path199"
     d="m 444.248,365.943 c -0.305,0.193 -0.637,0.29 -0.99,0.29 l -3.12,0 c -0.327,0 -0.571,-0.088 -0.733,-0.263 -0.176,-0.189 -0.226,-0.479 -0.149,-0.867 l 0.634,0 c -0.021,0.183 0.014,0.313 0.105,0.392 l -0.006,0 c 0.092,0.068 0.219,0.104 0.381,0.104 l 3.119,0 c 0.182,0 0.354,-0.043 0.51,-0.128 0.146,-0.075 0.236,-0.164 0.272,-0.264 l 0.188,-0.516 c 0.036,-0.101 0.009,-0.188 -0.079,-0.263 -0.096,-0.086 -0.236,-0.129 -0.423,-0.129 l -3.114,0 c -0.351,0 -0.613,-0.097 -0.787,-0.29 -0.185,-0.199 -0.225,-0.446 -0.117,-0.741 l 0.188,-0.517 c 0.104,-0.283 0.321,-0.528 0.648,-0.731 0.318,-0.195 0.653,-0.294 1.003,-0.294 l 3.121,0 c 0.326,0 0.569,0.093 0.73,0.272 0.178,0.183 0.227,0.47 0.147,0.857 l -0.634,0 c 0.021,-0.183 -0.014,-0.314 -0.106,-0.392 l 0.005,0 c -0.085,-0.065 -0.211,-0.098 -0.375,-0.098 l -3.121,0 c -0.186,0 -0.359,0.041 -0.521,0.128 -0.14,0.071 -0.228,0.158 -0.264,0.257 l -0.188,0.517 c -0.037,0.104 -0.014,0.192 0.072,0.268 0.096,0.086 0.24,0.129 0.428,0.129 l 3.121,0 c 0.354,0 0.614,0.097 0.78,0.289 0.185,0.204 0.224,0.448 0.118,0.737 l -0.188,0.516 c -0.104,0.292 -0.323,0.54 -0.655,0.737 z"
     inkscape:connector-curvature="0" /><path
     style="fill:#00b15a"
     id="path201"
     d="m 449.206,365.997 c -0.298,0.157 -0.603,0.236 -0.916,0.236 l -1.501,0 c -0.307,0 -0.555,-0.078 -0.745,-0.231 -0.231,-0.19 -0.29,-0.438 -0.179,-0.743 l 0.471,-1.294 c 0.109,-0.3 0.346,-0.545 0.713,-0.738 0.301,-0.158 0.608,-0.237 0.92,-0.237 l 1.502,0 c 0.295,0 0.538,0.074 0.729,0.223 0.239,0.192 0.304,0.44 0.191,0.747 l -0.473,1.3 c -0.108,0.298 -0.346,0.544 -0.712,0.737 z m 0.546,-2.038 c 0.034,-0.097 -0.01,-0.177 -0.133,-0.242 -0.106,-0.059 -0.233,-0.087 -0.381,-0.087 l -1.502,0 c -0.15,0 -0.299,0.026 -0.441,0.082 -0.177,0.068 -0.282,0.15 -0.317,0.247 l -0.475,1.305 c -0.035,0.097 0.009,0.177 0.134,0.242 0.111,0.062 0.237,0.093 0.379,0.093 l 1.506,0 c 0.068,0 0.139,-0.007 0.213,-0.021 0.074,-0.015 0.149,-0.035 0.225,-0.066 0.178,-0.069 0.283,-0.153 0.319,-0.253 l 0.473,-1.3 z"
     inkscape:connector-curvature="0" /><path
     style="fill:#00b15a"
     id="path203"
     d="m 452.129,363.634 -0.946,2.6 -0.64,0 1.287,-3.537 c 0.11,-0.302 0.318,-0.546 0.621,-0.728 0.268,-0.158 0.602,-0.237 1.004,-0.237 l -0.227,0.625 c -0.252,0.038 -0.434,0.085 -0.549,0.143 -0.114,0.06 -0.184,0.125 -0.21,0.197 l -0.11,0.303 0.639,0 -0.23,0.635 -0.639,0 0,-10e-4 z"
     inkscape:connector-curvature="0" /><path
     style="fill:#00b15a"
     id="path205"
     d="m 455.026,363.634 -0.946,2.6 -0.645,0 0.946,-2.6 -0.634,0 0.23,-0.635 0.635,0 0.463,-1.272 0.645,0 -0.464,1.272 0.64,0 -0.23,0.635 -0.64,0 z"
     inkscape:connector-curvature="0" /><path
     style="fill:#00b15a"
     id="path207"
     d="m 459.909,365.985 c -0.271,0.161 -0.578,0.243 -0.918,0.243 -0.185,0 -0.358,-0.026 -0.519,-0.078 -0.161,-0.052 -0.295,-0.133 -0.407,-0.242 -0.192,0.106 -0.392,0.188 -0.596,0.242 -0.204,0.056 -0.398,0.083 -0.584,0.083 -0.327,0 -0.571,-0.079 -0.733,-0.236 -0.18,-0.181 -0.213,-0.426 -0.099,-0.738 l 0.822,-2.26 0.64,0 -0.824,2.265 c -0.034,0.097 -0.006,0.175 0.09,0.237 0.104,0.065 0.248,0.098 0.434,0.098 0.188,0 0.355,-0.032 0.499,-0.098 0.142,-0.059 0.23,-0.14 0.269,-0.242 l 0.507,-1.393 0.64,0 -0.509,1.397 c -0.036,0.1 -0.006,0.177 0.091,0.231 0.104,0.065 0.244,0.098 0.424,0.098 0.191,0 0.36,-0.032 0.504,-0.098 0.143,-0.058 0.23,-0.135 0.266,-0.231 l 0.823,-2.265 0.646,0 -0.822,2.26 c -0.112,0.303 -0.326,0.546 -0.644,0.727 z"
     inkscape:connector-curvature="0" /><path
     style="fill:#00b15a"
     id="path209"
     d="m 464.726,366.002 c -0.301,0.153 -0.61,0.231 -0.93,0.231 l -1.501,0 c -0.323,0 -0.578,-0.076 -0.763,-0.227 -0.224,-0.181 -0.28,-0.425 -0.165,-0.738 0.109,-0.303 0.346,-0.547 0.71,-0.732 0.302,-0.158 0.608,-0.236 0.921,-0.236 l 1.502,0 c 0.096,0 0.187,0.009 0.273,0.025 0.087,0.018 0.191,0.051 0.314,0.099 l 0.16,-0.439 c 0.02,-0.093 -0.031,-0.175 -0.152,-0.246 -0.109,-0.069 -0.227,-0.104 -0.354,-0.104 l -1.502,0 c -0.064,0 -0.129,0.006 -0.193,0.015 -0.063,0.011 -0.129,0.031 -0.193,0.059 -0.168,0.064 -0.311,0.187 -0.426,0.366 l -0.635,0 c 0.2,-0.393 0.471,-0.676 0.81,-0.852 0.284,-0.148 0.571,-0.223 0.864,-0.223 l 1.506,0 c 0.295,0 0.539,0.074 0.729,0.223 0.242,0.186 0.307,0.435 0.191,0.747 l -0.471,1.295 c -0.11,0.305 -0.343,0.55 -0.695,0.737 z m 0.054,-0.733 c 0.034,-0.096 -0.009,-0.177 -0.134,-0.242 -0.111,-0.062 -0.237,-0.094 -0.377,-0.094 l -1.502,0 c -0.175,0 -0.345,0.039 -0.51,0.114 -0.137,0.062 -0.219,0.135 -0.25,0.217 -0.031,0.085 -0.002,0.159 0.084,0.222 0.104,0.075 0.246,0.113 0.43,0.113 l 1.505,0 c 0.147,0 0.294,-0.027 0.437,-0.082 0.178,-0.069 0.282,-0.152 0.317,-0.248 z"
     inkscape:connector-curvature="0" /><path
     style="fill:#00b15a"
     id="path211"
     d="m 470.264,364.073 c 0.014,-0.18 -0.041,-0.302 -0.16,-0.366 -0.045,-0.027 -0.096,-0.048 -0.152,-0.059 -0.057,-0.009 -0.116,-0.015 -0.178,-0.015 l -1.5,0 c -0.151,0 -0.303,0.03 -0.45,0.089 -0.171,0.064 -0.274,0.147 -0.312,0.246 l -0.823,2.265 -0.64,0 1.176,-3.234 0.64,0 -0.048,0.135 c 0.127,-0.048 0.245,-0.082 0.354,-0.103 0.109,-0.021 0.219,-0.032 0.33,-0.032 l 1.504,0 c 0.286,0 0.52,0.073 0.701,0.217 0.218,0.177 0.281,0.461 0.193,0.857 l -0.635,0 z"
     inkscape:connector-curvature="0" /><path
     style="fill:#00b15a"
     id="path213"
     d="m 475.956,363.959 c -0.109,0.3 -0.346,0.545 -0.712,0.737 -0.301,0.159 -0.607,0.236 -0.916,0.236 l -1.501,0 c -0.101,0 -0.192,-0.009 -0.279,-0.025 -0.087,-0.016 -0.192,-0.049 -0.315,-0.098 l -0.156,0.433 -0.005,0.01 c -0.022,0.091 0.031,0.171 0.159,0.243 0.055,0.039 0.113,0.064 0.172,0.081 0.061,0.016 0.121,0.022 0.183,0.022 l 1.501,0 c 0.062,0 0.124,-0.006 0.188,-0.015 0.064,-0.011 0.129,-0.03 0.194,-0.057 0.168,-0.066 0.311,-0.188 0.427,-0.367 l 0.634,0 c -0.198,0.393 -0.468,0.676 -0.813,0.852 -0.285,0.147 -0.57,0.222 -0.859,0.222 l -1.502,0 c -0.288,0 -0.53,-0.076 -0.727,-0.227 -0.244,-0.19 -0.31,-0.439 -0.197,-0.748 l 0.471,-1.294 c 0.111,-0.307 0.344,-0.551 0.695,-0.733 0.297,-0.154 0.608,-0.232 0.936,-0.232 l 1.501,0 c 0.315,0 0.567,0.074 0.754,0.223 0.223,0.182 0.279,0.426 0.167,0.737 z m -0.643,0.01 c 0.03,-0.082 0,-0.153 -0.092,-0.216 -0.098,-0.079 -0.24,-0.119 -0.426,-0.119 l -1.495,0 c -0.13,0 -0.278,0.03 -0.444,0.089 -0.174,0.061 -0.278,0.142 -0.314,0.242 -0.035,0.097 0.01,0.177 0.133,0.241 0.111,0.063 0.24,0.094 0.385,0.094 l 1.5,0 c 0.178,0 0.347,-0.038 0.505,-0.114 0.135,-0.062 0.218,-0.134 0.248,-0.217 z"
     inkscape:connector-curvature="0" /><path
     style="fill:#ffffff"
     id="path217"
     d="m 424.838,343.364 c 0.363,0.465 0.546,1.025 0.546,1.685 l 0,5.85 c 0,0.664 -0.179,1.22 -0.537,1.665 -0.37,0.478 -0.828,0.717 -1.372,0.717 l -4.566,0 c -0.53,0 -0.984,-0.239 -1.362,-0.717 -0.364,-0.465 -0.546,-1.026 -0.546,-1.685 l 0,-5.859 c 0,-0.613 0.169,-1.133 0.509,-1.559 0.338,-0.446 0.873,-0.732 1.602,-0.862 l 0,1.191 c -0.352,0.084 -0.598,0.242 -0.739,0.475 -0.121,0.2 -0.182,0.455 -0.182,0.765 l 0,5.85 c 0,0.349 0.081,0.646 0.24,0.891 0.134,0.213 0.294,0.319 0.479,0.319 l 4.566,0 c 0.192,0 0.359,-0.106 0.499,-0.319 l -0.01,0.01 c 0.16,-0.239 0.24,-0.533 0.24,-0.881 l 0,-5.85 c 0,-0.304 -0.063,-0.574 -0.192,-0.813 -0.134,-0.284 -0.316,-0.426 -0.547,-0.426 l -1.678,0 0,4.735 -1.18,0 0,-5.917 2.868,0 c 0.53,-0.001 0.983,0.244 1.362,0.735 z"
     inkscape:connector-curvature="0" /><path
     style="fill:#ffffff"
     id="path219"
     d="m 421.24,330.861 c 0.358,0.446 0.538,1.005 0.538,1.676 l 0,7.06 3.606,0 0,1.191 -6.475,0 c -0.53,0 -0.984,-0.239 -1.362,-0.717 -0.364,-0.465 -0.546,-1.026 -0.546,-1.686 l 0,-5.849 c 0,-0.651 0.182,-1.207 0.546,-1.666 0.378,-0.483 0.832,-0.726 1.362,-0.726 l 0.959,0 c 0.544,0.002 1.001,0.241 1.372,0.717 z m -2.331,0.466 c -0.179,0 -0.338,0.109 -0.479,0.329 -0.159,0.245 -0.24,0.539 -0.24,0.881 l 0,5.858 c 0,0.298 0.061,0.565 0.182,0.804 0.122,0.266 0.301,0.397 0.537,0.397 l 1.688,0 0,-7.06 c 0,-0.342 -0.077,-0.636 -0.23,-0.881 -0.14,-0.22 -0.307,-0.329 -0.499,-0.329 l -0.959,0 0,10e-4 z"
     inkscape:connector-curvature="0" /><path
     style="fill:#ffffff"
     id="path221"
     d="m 423.514,317.663 c 0.568,0.097 1.025,0.368 1.371,0.813 0.332,0.433 0.499,0.955 0.499,1.568 l 0,5.858 c 0,0.659 -0.179,1.217 -0.537,1.676 -0.37,0.484 -0.828,0.726 -1.372,0.726 l -6.465,0 0,-1.21 6.465,0 c 0.192,0 0.359,-0.106 0.499,-0.319 l -0.01,0.009 c 0.16,-0.237 0.24,-0.531 0.24,-0.881 l 0,-5.858 c 0,-0.297 -0.063,-0.556 -0.192,-0.775 l 0,0.011 c -0.141,-0.233 -0.381,-0.391 -0.719,-0.475 l 0,-0.949 0.221,-0.194 z"
     inkscape:connector-curvature="0" /><path
     style="fill:#ffffff"
	 id="path225"
     d="m 476,354.047 c 0,0.921 -0.406,1.695 -1.219,2.323 -0.747,0.606 -1.68,0.91 -2.795,0.91 l -9.831,0 c -1.029,0 -1.901,-0.276 -2.616,-0.829 -0.77,-0.596 -1.257,-1.505 -1.463,-2.729 l 1.999,0 c 0.141,0.574 0.401,0.985 0.78,1.235 l -0.017,0 c 0.368,0.217 0.808,0.324 1.316,0.324 l 9.831,0 c 0.563,0 1.051,-0.13 1.463,-0.39 0.367,-0.238 0.553,-0.52 0.553,-0.845 l 0,-1.625 c 0,-0.304 -0.186,-0.574 -0.553,-0.813 -0.434,-0.281 -0.927,-0.422 -1.479,-0.422 l -5.232,0 0,-1.999 5.248,0 c 0.574,0 1.062,-0.135 1.463,-0.406 0.367,-0.237 0.553,-0.515 0.553,-0.828 l 0,-1.625 c 0,-0.304 -0.186,-0.575 -0.553,-0.813 -0.434,-0.282 -0.927,-0.423 -1.479,-0.423 l -9.815,0 c -0.499,0 -0.933,0.108 -1.3,0.325 l 0.016,0 c -0.39,0.228 -0.655,0.639 -0.796,1.235 l -1.999,0 c 0.195,-1.235 0.672,-2.135 1.43,-2.698 0.715,-0.574 1.598,-0.86 2.649,-0.86 l 9.831,0 c 1.094,0 2.025,0.303 2.795,0.909 0.813,0.64 1.219,1.414 1.219,2.324 0,0.791 -0.032,1.511 -0.098,2.16 -0.021,0.325 -0.13,0.624 -0.324,0.895 -0.088,0.119 -0.188,0.243 -0.301,0.374 -0.114,0.13 -0.252,0.271 -0.414,0.422 0.313,0.293 0.552,0.563 0.715,0.813 0.184,0.304 0.292,0.596 0.324,0.878 0.067,0.64 0.099,1.365 0.099,2.178 z"
     inkscape:connector-curvature="0" /></g></svg>