<?xml version="1.0" encoding="iso-8859-1"?>
<!-- Generator: Adobe Illustrator 19.0.0, SVG Export Plug-In . SVG Version: 6.00 Build 0)  -->
<svg version="1.1" id="Layer_1" xmlns="http://www.w3.org/2000/svg" xmlns:xlink="http://www.w3.org/1999/xlink" x="0px" y="0px"
	 viewBox="0 0 293.752 293.752" style="enable-background:new 0 0 293.752 293.752;" xml:space="preserve">
<g>
	<g>
		<path style="fill:#00b15a;" d="M146.876,293.752c-28.43,0-51.563-23.133-51.563-51.563s23.133-51.563,51.563-51.563
			s51.563,23.133,51.563,51.563S175.305,293.752,146.876,293.752z"/>
		<path style="fill:#fff;" d="M170.445,155.217l-18.881,12.591v-66.619c15.872-2.288,28.125-15.942,28.125-32.438v-18.75
			c0-8.456,4.505-26.817,4.552-27l2.348-9.511l-8.883,4.139c-0.098,0.047-5.705,2.648-13.341,5.695L146.876,0l-17.072,22.767
			c-8.039-3.014-14.095-5.278-14.095-5.278l-8.32-3.117l2.128,8.63c0.042,0.183,4.547,18.544,4.547,27v18.75
			c0,16.495,12.253,30.15,28.125,32.438v43.177l-18.881-12.586c-1.355-22.05-19.669-39.591-42.056-39.591h-4.688v4.688
			c0,22.744,18.103,41.292,40.65,42.108l24.975,16.65v63.117c-7.753,0-14.063,6.309-14.063,14.063
			c0,7.753,6.309,14.063,14.063,14.063h9.375c2.587,0,4.688,2.105,4.688,4.688c0,2.583-2.1,4.688-4.688,4.688h-9.375
			c-2.587,0-4.688-2.105-4.688-4.688h-9.375c0,7.753,6.309,14.063,14.063,14.063v4.688h9.375v-4.688
			c7.753,0,14.063-6.309,14.063-14.063s-6.309-14.063-14.063-14.063h-9.375c-2.587,0-4.688-2.105-4.688-4.688
			c0-2.583,2.1-4.688,4.688-4.688h9.375c2.587,0,4.688,2.105,4.688,4.688h9.375c0-7.753-6.309-14.063-14.063-14.063v-39.68
			l24.975-16.65c22.547-0.816,40.65-19.364,40.65-42.108v-4.688h-4.688C190.113,115.627,171.799,133.167,170.445,155.217z
			 M86.332,101.958c14.034,2.189,25.148,13.303,27.338,27.338C99.635,127.106,88.521,115.992,86.332,101.958z M170.848,42.947
			c-2.794-3.103-6.23-5.803-10.42-8.077c4.72-1.725,9.117-3.492,12.666-4.983C172.273,33.886,171.391,38.634,170.848,42.947z
			 M146.876,15.628l8.363,11.147c-2.573,0.914-5.203,1.8-7.814,2.602c-2.803-1.05-5.663-2.123-8.475-3.183L146.876,15.628z
			 M123.438,68.752v-18.75c0-5.559-1.552-14.231-2.897-20.695c7.734,2.902,19.617,7.35,29.377,11.02
			c14.292,5.377,20.395,13.875,20.395,28.425c0,12.923-10.514,23.438-23.438,23.438C133.952,92.189,123.438,81.675,123.438,68.752z
			 M180.082,152.733c2.189-14.034,13.303-25.148,27.338-27.338C205.23,139.43,194.116,150.544,180.082,152.733z"/>
		<polygon style="fill:#fff;" points="287.501,40.627 268.751,40.627 268.751,21.877 259.376,21.877 259.376,40.627 
			240.626,40.627 240.626,50.002 259.376,50.002 259.376,68.752 268.751,68.752 268.751,50.002 287.501,50.002 		"/>
		<polygon style="fill:#fff;" points="53.126,167.189 53.126,157.814 34.376,157.814 34.376,139.064 25.001,139.064 
			25.001,157.814 6.251,157.814 6.251,167.189 25.001,167.189 25.001,185.939 34.376,185.939 34.376,167.189 		"/>
		<polygon style="fill:#fff;" points="62.501,176.564 53.126,176.564 53.126,185.939 43.751,185.939 43.751,195.314 
			53.126,195.314 53.126,204.689 62.501,204.689 62.501,195.314 71.876,195.314 71.876,185.939 62.501,185.939 		"/>
		<polygon style="fill:#fff;" points="235.938,68.752 226.563,68.752 226.563,78.127 217.188,78.127 217.188,87.502 
			226.563,87.502 226.563,96.877 235.938,96.877 235.938,87.502 245.313,87.502 245.313,78.127 235.938,78.127 		"/>
	</g>
</g>
<g>
</g>
<g>
</g>
<g>
</g>
<g>
</g>
<g>
</g>
<g>
</g>
<g>
</g>
<g>
</g>
<g>
</g>
<g>
</g>
<g>
</g>
<g>
</g>
<g>
</g>
<g>
</g>
<g>
</g>
</svg>
