<?xml version="1.0" encoding="iso-8859-1"?>
<!-- Generator: Adobe Illustrator 19.0.0, SVG Export Plug-In . SVG Version: 6.00 Build 0)  -->
<svg version="1.1" id="Layer_1" xmlns="http://www.w3.org/2000/svg" xmlns:xlink="http://www.w3.org/1999/xlink" x="0px" y="0px"
	 viewBox="0 0 289.111 289.111" style="enable-background:new 0 0 289.111 289.111;" xml:space="preserve">
<g>
	<g>
		<path style="fill:#00b15a;" d="M120.502,85.961c-10.341,0-18.75-8.409-18.75-18.75s8.409-18.75,18.75-18.75
			s18.75,8.409,18.75,18.75S130.842,85.961,120.502,85.961z"/>
		<path style="fill:#00b15a;" d="M172.064,67.211c-10.341,0-18.75-8.409-18.75-18.75s8.409-18.75,18.75-18.75
			s18.75,8.409,18.75,18.75S182.405,67.211,172.064,67.211z"/>
		<rect x="106.439" y="20.336" style="fill:#fff;" width="9.375" height="23.438"/>
		<rect x="125.189" y="15.648" style="fill:#fff;" width="9.375" height="28.125"/>
		<rect x="158.002" y="6.273" style="fill:#fff;" width="9.375" height="18.75"/>
		<rect x="176.752" y="1.586" style="fill:#fff;" width="9.375" height="23.438"/>
		<path style="fill:#fff;" d="M289.111,89.509l-5.573-22.298h-22.411v9.375h9.544l-29.198,40.148l-22.88-18.305l-23.269,23.269
			c-0.877-6.914-6.731-12.3-13.884-12.3h-1.298l18.75-32.813H93.413l17.686,29.077l-15.731,13.111H3.314v9.375h95.447l27.525-22.936
			l28.992,8.283l9.863,12.323c1.303,1.631,1.88,3.675,1.617,5.747c-0.267,2.072-1.331,3.905-3.005,5.161
			c-3.023,2.273-7.327,1.959-10.003-0.712l-9.459-9.459l-26.714,21.37l2.747,3.431c-0.886,11.864-6.244,23.405-15.408,32.827
			c-0.066,0.07-0.122,0.145-0.188,0.211h-1.866l-9.375-4.688H3.314v9.375H91.27l6.895,3.445c-5.63,8.283-9.089,17.77-10.111,27.792
			l-19.116-19.111L0,270.148l6.628,6.628l62.311-62.311l19.172,19.172c3.487,29.03,28.359,52.641,57.998,53.836
			c0.853,0.033,1.702,0.052,2.545,0.052c15.82,0,30.717-5.977,42.178-16.988c12.08-11.597,18.731-27.206,18.731-43.95
			c0-15.155-5.559-29.409-15.609-40.598c0.956-1.898,1.547-4.008,1.547-6.277c0-3.614-1.411-6.881-3.656-9.375
			c2.25-2.494,3.656-5.761,3.656-9.375s-1.411-6.881-3.656-9.375c2.25-2.494,3.656-5.761,3.656-9.375
			c0-2.166-0.53-4.191-1.411-6.023l25.195-25.195l23.995,19.195l34.481-47.414l2.255,9.014L289.111,89.509z M186.127,123.461
			c0,2.583-2.105,4.687-4.688,4.687h-5.498c-0.427-2.958-1.561-5.78-3.483-8.184l-0.956-1.191h9.937
			C184.022,118.773,186.127,120.878,186.127,123.461z M124.092,94.834l-5.709,4.758l-8.292-13.631h72.647L169.346,109.4h-5.339
			l-3.277-4.097L124.092,94.834z M169.373,144.227c2.358-1.767,4.102-4.092,5.264-6.703h6.802c2.583,0,4.688,2.105,4.688,4.688
			c0,2.583-2.105,4.688-4.688,4.688h-17.414C165.914,146.34,167.728,145.46,169.373,144.227z M186.127,160.962
			c0,2.583-2.105,4.688-4.688,4.688h-18.75c-2.583,0-4.688-2.105-4.688-4.688c0-2.583,2.105-4.688,4.688-4.688h18.75
			C184.022,156.273,186.127,158.378,186.127,160.962z M186.127,179.712c0,2.583-2.105,4.688-4.688,4.688h-18.75
			c-2.583,0-4.688-2.105-4.688-4.688c0-2.583,2.105-4.688,4.688-4.688h18.75C184.022,175.023,186.127,177.128,186.127,179.712z
			 M184.341,263.777c-10.214,9.811-23.588,14.869-37.852,14.33c-26.761-1.078-48.933-23.766-49.416-50.573
			c-0.248-13.823,4.922-26.897,14.559-36.811c11.184-11.498,17.517-25.819,18.127-40.538l13.833-11.067l3.525,3.525
			c0.53,0.53,1.116,0.966,1.692,1.406c0.384,2.883,1.617,5.475,3.473,7.533c-2.25,2.494-3.656,5.761-3.656,9.375
			s1.411,6.881,3.656,9.375c-2.25,2.494-3.656,5.761-3.656,9.375s1.411,6.881,3.656,9.375h-8.344v9.375h-2.344
			c-9.047,0-16.406,7.359-16.406,16.406s7.359,16.406,16.406,16.406h14.063c3.877,0,7.031,3.155,7.031,7.031
			s-3.155,7.036-7.031,7.036h-14.063c-3.877,0-7.031-3.155-7.031-7.031v-2.344h-9.375v2.344c0,9.047,7.359,16.406,16.406,16.406
			h2.344v9.375h9.375v-9.375h2.344c9.047,0,16.406-7.359,16.406-16.406s-7.359-16.406-16.406-16.406h-14.063
			c-3.877,0-7.031-3.155-7.031-7.031c0-3.877,3.155-7.031,7.031-7.031h14.063c3.877,0,7.031,3.155,7.031,7.031v2.344h9.375v-2.344
			c0-9.047-7.359-16.406-16.406-16.406h-2.344v-8.344c2.494,2.25,5.761,3.656,9.375,3.656h18.75c2.063,0,4.012-0.473,5.78-1.275
			c8.358,9.422,12.97,21.384,12.97,34.087C200.189,240.751,194.559,253.962,184.341,263.777z"/>
	</g>
</g>
<g>
</g>
<g>
</g>
<g>
</g>
<g>
</g>
<g>
</g>
<g>
</g>
<g>
</g>
<g>
</g>
<g>
</g>
<g>
</g>
<g>
</g>
<g>
</g>
<g>
</g>
<g>
</g>
<g>
</g>
</svg>
