<?xml version="1.0" encoding="iso-8859-1"?>
<!-- Generator: Adobe Illustrator 19.0.0, SVG Export Plug-In . SVG Version: 6.00 Build 0)  -->
<svg xmlns="http://www.w3.org/2000/svg" xmlns:xlink="http://www.w3.org/1999/xlink" version="1.1" id="Capa_1" x="0px" y="0px" viewBox="0 0 496 496" style="enable-background:new 0 0 496 496;" xml:space="preserve">
<path style="fill:#fff;" d="M387.616,359.28l-11.08-11.544L387,337.688c9.536-9.536,17.52-20.624,23.616-32.824  c8.76-17.488,13.384-37.088,13.384-56.672v-28.36c-22.688,10.824-40.392,30.624-48.416,54.696L368,297.304l-7.584-22.776  c-8.024-24.072-25.728-43.872-48.416-54.696v28.36c0,19.576,4.624,39.176,13.384,56.672c6.096,12.192,14.08,23.28,23.736,32.936  l9.728,10.176l-11.576,11.048l-9.592-10.048c-10.752-10.752-19.744-23.224-26.6-36.96C301.208,292.32,296,270.248,296,248.192  v-51.296l10.528,3.512c26.36,8.784,48.36,27.488,61.472,51.6c13.112-24.12,35.112-42.824,61.472-51.6L440,196.896v51.296  c0,22.056-5.208,44.128-15.072,63.832c-6.856,13.736-15.848,26.208-26.736,37.096L387.616,359.28z"/>
<path style="fill:#00b15a;" d="M388.24,353.432l-3.304-26.416c-1.064-8.56-8.376-15.016-17.008-15.016  c-8.472,0-15.768,6.328-16.976,14.72l-4.024,28.168c-1.592,11.176-6.864,21.736-14.848,29.72  c-9.928,9.92-23.128,15.392-37.16,15.392c-23.952,0-44.736-16.224-50.544-39.464L240.24,344H95.952  c-5.096,32.536,2.088,65.488,20.392,92.944l0.472,0.696c24.352,36.536,65.12,58.36,109.04,58.36h36.52  c52.112,0,99.68-32.672,118.384-81.304C388.232,395.288,390.824,374.104,388.24,353.432z"/>
<g>
	<path style="fill:#fff;" d="M168,0C106.24,0,56,50.24,56,112v144v54.712c0,8.584,4.632,16.576,12.096,20.84l44.512,25.44   c3.448,1.968,7.36,3.008,11.328,3.008h5.224c10.2,0,18.752-6.76,21.672-16h34.32c2.928,9.24,11.48,16,21.672,16h5.224   c3.968,0,7.88-1.04,11.328-3.008l44.52-25.44c7.472-4.264,12.104-12.256,12.104-20.84V256V112C280,50.24,229.76,0,168,0z M168,16   c52.936,0,96,43.064,96,96v112.208c-6.704-5.08-14.96-8.208-24-8.208h-32v-2.824c23.872-13.856,40-39.64,40-69.176V98.808   l-6.64-2.952l10.112-17.264l-20.592-8.92L216,51.28l-14.872,18.384l-9.456,4.096L168,63.24L88,98.8V144   c0,29.528,16.128,55.312,40,69.176V216H96c-9.04,0-17.296,3.128-24,8.208V112C72,59.064,115.064,16,168,16z M104,144v-34.808   l64-28.44l18.656,8.288l5.496,9.392l1.72,23.672L216,116.488l16,4.064V144c0,35.288-28.712,64-64,64S104,179.288,104,144z    M224.16,93.56l-0.608,8.328L216,99.968l-7.544,1.92l-0.608-8.328l-4.376-7.48l7.624-3.296L216,76.72l4.904,6.072l7.624,3.296   L224.16,93.56z M186.136,328h-36.272c-2.104-4.76-5.624-8.824-10.488-11.256L104,299.056V272c0-4.416,3.584-8,8-8   c14.472,0,28.96,3.424,41.888,9.888L168,280.944l14.112-7.056C195.04,267.424,209.528,264,224,264c4.416,0,8,3.584,8,8v27.056   l-35.376,17.688C191.76,319.176,188.24,323.24,186.136,328z M264,310.712c0,2.864-1.544,5.528-4.032,6.952l-44.512,25.44   c-1.032,0.584-2.208,0.896-3.392,0.896h-5.224c-3.768,0-6.84-3.072-6.84-6.832c0-2.6,1.448-4.944,3.784-6.112L248,308.944V272   c0-13.232-10.768-24-24-24c-16.944,0-33.904,4.008-49.048,11.576l-6.952,3.48l-6.952-3.48C145.904,252.008,128.944,248,112,248   c-13.232,0-24,10.768-24,24v36.944l44.216,22.112c2.336,1.16,3.784,3.504,3.784,6.112c0,3.76-3.072,6.832-6.832,6.832h-5.224   c-1.184,0-2.36-0.312-3.392-0.896l-44.512-25.44c-2.496-1.424-4.04-4.088-4.04-6.952V256c0-13.232,10.768-24,24-24h48v-11.688   c7.584,2.384,15.64,3.688,24,3.688s16.416-1.304,24-3.688V232h48c13.232,0,24,10.768,24,24V310.712z"/>
	<rect x="120" y="128" style="fill:#fff;" width="16" height="16"/>
	<rect x="200" y="128" style="fill:#fff;" width="16" height="16"/>
	<rect x="160" y="176" style="fill:#fff;" width="16" height="16"/>
</g>
<g>
</g>
<g>
</g>
<g>
</g>
<g>
</g>
<g>
</g>
<g>
</g>
<g>
</g>
<g>
</g>
<g>
</g>
<g>
</g>
<g>
</g>
<g>
</g>
<g>
</g>
<g>
</g>
<g>
</g>
</svg>
