<?xml version="1.0" encoding="iso-8859-1"?>
<!-- Generator: Adobe Illustrator 19.0.0, SVG Export Plug-In . SVG Version: 6.00 Build 0)  -->
<svg version="1.1" id="Layer_1" xmlns="http://www.w3.org/2000/svg" xmlns:xlink="http://www.w3.org/1999/xlink" x="0px" y="0px"
	 viewBox="0 0 498.808 498.808" style="enable-background:new 0 0 498.808 498.808;" xml:space="preserve">
<g>
	<path style="fill:#fff;" d="M131.818,456.456c-48.552,0-88.056-39.504-88.056-88.064h16c0,39.736,32.328,72.064,72.056,72.064
		V456.456z"/>
	<path style="fill:#fff;" d="M131.818,498.808c-71.912,0-130.408-58.504-130.408-130.416h16
		c0,63.088,51.328,114.416,114.408,114.416c44.336,0,85.072-25.992,103.792-66.208l4.4-9.456l7.992,6.696
		c15.032,12.608,34.136,19.544,53.792,19.544c33.712,0,54.848-10.912,83.76-43.24l0.008,0.008
		c24.216-27,65.608-30.976,79.592-31.536c10.76-18.712,16.08-41,16.256-67.968c0.752-114.8-100.52-257.256-121.968-263.136
		c-7.28-1.984-21.912,0.04-38.864,2.408c-18.528,2.576-41.392,5.896-66.648,5.664c-6.376,9.768-23.864,38.664-24.376,62.24
		c12.68,7.328,57.816,30.552,102.016,19.024c1.912-1.664,5.928-13.768,7.576-24.624l0.568-3.712l3.216-1.936
		c10.936-6.6,24.312-4.464,34.032,5.464c24.032,24.504,42.904,102.464,19.824,139.056c-17.088,27.104-21.168,34.192-22.24,52.48
		l-1,17.032l-12.456-11.656c-14.416-13.504-33.368-19.792-59.64-19.792c-28.128,0-51.648,10.488-66.224,29.52l-6.336,8.256
		l-6.352-8.248c-21.856-28.408-54.928-44.696-90.712-44.696c-22.928,0-45.04,6.752-63.968,19.536l-9.632-12.792l0.568-0.4
		c21.68-14.648,46.896-22.344,73.024-22.344c37.528,0,72.432,15.712,97.176,43.432c17.696-18.304,43.04-28.272,72.456-28.272
		c23.872,0,43.312,4.936,58.968,15.04c3.064-14.28,9.832-25.016,22.84-45.64c17.648-27.984,4.112-97.064-17.712-119.32
		c-3.568-3.632-7.536-5.088-11.32-4.208c-2.376,12.792-7.608,30.432-18.616,33.304c-58.88,15.336-115.952-21.672-118.352-23.256
		l-3.312-2.184l-0.272-3.952c-2.36-34.888,28.208-78.216,29.504-80.048l2.448-3.432l4.216,0.08
		c25.704,0.504,49.472-2.816,68.512-5.464c20.232-2.816,34.84-4.856,45.304-1.992c29.424,8.064,134.528,156.984,133.736,278.672
		c-0.2,31.368-7.24,58.296-20.912,80.032l-2.392,3.808l-4.504-0.064c-0.48-0.008-48.272-0.376-72.184,26.376l-0.008-0.008
		c-31.632,35.352-57.552,48.496-95.616,48.496c-20.08,0-39.68-6.088-56.16-17.296C222.722,472.92,179.058,498.808,131.818,498.808z"
		/>
</g>
<g>
	<rect x="41.378" y="66.704" style="fill:#00b15a;" width="16" height="88"/>
	<rect x="41.378" y="170.704" style="fill:#00b15a;" width="16" height="16"/>
	<rect x="41.378" y="202.704" style="fill:#00b15a;" width="16" height="16"/>
	<rect x="81.378" y="42.704" style="fill:#00b15a;" width="16" height="80"/>
	<rect x="81.378" y="138.704" style="fill:#00b15a;" width="16" height="16"/>
	<rect x="81.378" y="170.704" style="fill:#00b15a;" width="16" height="16"/>
	<rect x="121.378" y="66.704" style="fill:#00b15a;" width="16" height="104"/>
	<rect x="121.378" y="186.704" style="fill:#00b15a;" width="16" height="16"/>
	<polygon style="fill:#00b15a;" points="156.098,80.68 89.41,21.408 22.722,80.68 12.098,68.728 89.41,0 166.722,68.728 	"/>
</g>
<g>
</g>
<g>
</g>
<g>
</g>
<g>
</g>
<g>
</g>
<g>
</g>
<g>
</g>
<g>
</g>
<g>
</g>
<g>
</g>
<g>
</g>
<g>
</g>
<g>
</g>
<g>
</g>
<g>
</g>
</svg>
