<?xml version="1.0" encoding="iso-8859-1"?>
<!-- Generator: Adobe Illustrator 19.0.0, SVG Export Plug-In . SVG Version: 6.00 Build 0)  -->
<svg version="1.1" id="Layer_1" xmlns="http://www.w3.org/2000/svg" xmlns:xlink="http://www.w3.org/1999/xlink" x="0px" y="0px"
	 viewBox="0 0 290.626 290.626" style="enable-background:new 0 0 290.626 290.626;" xml:space="preserve">
<g>
	<g>
		<path style="fill:#00b15a;" d="M239.062,140.625h-37.5c-7.753,0-14.063-6.309-14.063-14.063V18.75h65.625v107.813
			C253.125,134.316,246.816,140.625,239.062,140.625z"/>
		<path style="fill:#00b15a;" d="M164.062,140.625h-37.5c-7.753,0-14.062-6.309-14.062-14.063V18.75h65.625v107.813
			C178.125,134.316,171.816,140.625,164.062,140.625z"/>
		<path style="fill:#00b15a;" d="M89.063,140.625h-37.5c-7.753,0-14.062-6.309-14.062-14.063V18.75h65.625v107.813
			C103.125,134.316,96.816,140.625,89.063,140.625z"/>
		<polygon style="fill:#fff;" points="93.75,201.563 93.75,192.188 14.063,192.188 14.063,257.813 117.188,257.813 
			117.188,192.188 103.125,192.188 103.125,201.563 107.813,201.563 107.813,248.438 23.438,248.438 23.438,201.563 		"/>
		<path style="fill:#fff;" d="M276.562,178.125h-46.875v-18.75h28.125c7.753,0,14.062-6.309,14.062-14.063V14.063
			C271.875,6.309,265.566,0,257.812,0h-225C25.059,0,18.75,6.309,18.75,14.063v131.25c0,7.753,6.309,14.063,14.062,14.063h28.125
			v18.75H14.063C6.309,178.125,0,184.434,0,192.188v65.625c0,7.753,6.309,14.063,14.062,14.063h28.125v9.375h-9.375v9.375h65.625
			v-9.375h-9.375v-9.375h28.125c7.753,0,14.063-6.309,14.063-14.063v-65.625c0-7.753-6.309-14.063-14.063-14.063H70.313v-18.75h150
			v18.75h-46.875c-7.753,0-14.063,6.309-14.063,14.063v65.625c0,7.753,6.309,14.063,14.063,14.063h28.125v9.375h-9.375v9.375h65.625
			v-9.375h-9.375v-9.375h28.125c7.753,0,14.063-6.309,14.063-14.063v-65.625C290.625,184.434,284.316,178.125,276.562,178.125z
			 M79.688,281.25H51.563v-9.375h28.125V281.25z M121.875,192.188v65.625c0,2.587-2.1,4.688-4.688,4.688H14.063
			c-2.587,0-4.687-2.1-4.687-4.688v-65.625c0-2.587,2.1-4.688,4.687-4.688h103.125C119.775,187.5,121.875,189.6,121.875,192.188z
			 M32.813,150c-2.587,0-4.687-2.1-4.687-4.688V14.063c0-2.588,2.1-4.688,4.687-4.688h225c2.587,0,4.688,2.1,4.688,4.688v131.25
			c0,2.587-2.1,4.688-4.688,4.688h-225V150z M239.062,281.25h-28.125v-9.375h28.125V281.25z M281.25,257.813
			c0,2.587-2.1,4.688-4.688,4.688H173.437c-2.587,0-4.688-2.1-4.688-4.688v-65.625c0-2.587,2.1-4.688,4.688-4.688h103.125
			c2.587,0,4.688,2.1,4.688,4.688V257.813z"/>
		<polygon style="fill:#fff;" points="262.5,201.563 267.187,201.563 267.187,248.438 182.812,248.438 182.812,201.563 
			253.125,201.563 253.125,192.188 173.437,192.188 173.437,257.813 276.562,257.813 276.562,192.188 262.5,192.188 		"/>
		<path style="fill:#fff;" d="M220.312,89.063c-10.341,0-18.75,8.409-18.75,18.75s8.409,18.75,18.75,18.75
			s18.75-8.409,18.75-18.75S230.653,89.063,220.312,89.063z M220.312,117.188c-5.17,0-9.375-4.205-9.375-9.375
			s4.205-9.375,9.375-9.375s9.375,4.205,9.375,9.375S225.483,117.188,220.312,117.188z"/>
		<rect x="225" y="37.5" style="fill:#fff;" width="9.375" height="42.188"/>
		<rect x="206.25" y="37.5" style="fill:#fff;" width="9.375" height="42.188"/>
		<path style="fill:#fff;" d="M145.313,89.063c-10.341,0-18.75,8.409-18.75,18.75s8.409,18.75,18.75,18.75
			s18.75-8.409,18.75-18.75S155.653,89.063,145.313,89.063z M145.313,117.188c-5.17,0-9.375-4.205-9.375-9.375
			s4.205-9.375,9.375-9.375s9.375,4.205,9.375,9.375S150.483,117.188,145.313,117.188z"/>
		<rect x="150" y="37.5" style="fill:#fff;" width="9.375" height="42.188"/>
		<rect x="131.25" y="37.5" style="fill:#fff;" width="9.375" height="42.188"/>
		<path style="fill:#fff;" d="M70.313,89.063c-10.341,0-18.75,8.409-18.75,18.75s8.409,18.75,18.75,18.75
			s18.75-8.409,18.75-18.75S80.653,89.063,70.313,89.063z M70.313,117.188c-5.17,0-9.375-4.205-9.375-9.375s4.205-9.375,9.375-9.375
			s9.375,4.205,9.375,9.375S75.483,117.188,70.313,117.188z"/>
		<rect x="75" y="37.5" style="fill:#fff;" width="9.375" height="42.188"/>
		<rect x="56.25" y="37.5" style="fill:#fff;" width="9.375" height="42.188"/>
	</g>
</g>
<g>
</g>
<g>
</g>
<g>
</g>
<g>
</g>
<g>
</g>
<g>
</g>
<g>
</g>
<g>
</g>
<g>
</g>
<g>
</g>
<g>
</g>
<g>
</g>
<g>
</g>
<g>
</g>
<g>
</g>
</svg>
