<?xml version="1.0" encoding="iso-8859-1"?>
<!-- Generator: Adobe Illustrator 19.0.0, SVG Export Plug-In . SVG Version: 6.00 Build 0)  -->
<svg version="1.1" id="Layer_1" xmlns="http://www.w3.org/2000/svg" xmlns:xlink="http://www.w3.org/1999/xlink" x="0px" y="0px"
	 viewBox="0 0 292.622 292.622" style="enable-background:new 0 0 292.622 292.622;" xml:space="preserve">
<g>
	<g>
		<circle style="fill:#00b15a;" cx="146.311" cy="125.744" r="103.125"/>
		<path style="fill:#fff;" d="M150.998,262.544v-47.977c46.927-2.461,84.375-41.297,84.375-88.823
			c0-49.111-39.952-89.063-89.062-89.063s-89.062,39.952-89.062,89.063c0,47.527,37.448,86.363,84.375,88.823v47.977
			c-3.97,1.416-7.097,4.542-8.512,8.513H5.686v9.375h127.425c1.941,5.442,7.097,9.375,13.2,9.375s11.259-3.933,13.2-9.375h127.425
			v-9.375H159.511C158.095,267.087,154.969,263.96,150.998,262.544z M118.186,92.932c0-15.736,4.645-30.825,13.369-43.927
			c6.225,3.53,11.995,7.725,17.236,12.539c-1.556,2.264-2.48,4.997-2.48,7.95c0,0.816,0.108,1.608,0.244,2.386
			c-11.639,8.217-21.075,18.928-27.614,31.448C118.481,99.879,118.186,96.41,118.186,92.932z M169.748,172.619
			c0-2.583,2.105-4.688,4.688-4.688c2.583,0,4.687,2.105,4.687,4.688s-2.105,4.688-4.687,4.688
			C171.853,177.307,169.748,175.202,169.748,172.619z M174.436,158.557c-4.716,0-8.873,2.353-11.423,5.925
			c-14.845-7.238-27.047-18.891-34.983-33.403c0.928-0.914,1.688-1.978,2.334-3.117c6.745,1.608,13.664,2.47,20.634,2.47
			s13.884-0.863,20.634-2.475c1.631,2.864,4.2,5.091,7.327,6.248c-0.337,8.283-1.781,16.444-4.308,24.375
			C174.576,158.576,174.511,158.557,174.436,158.557z M118.186,116.369c2.583,0,4.687,2.105,4.687,4.688s-2.105,4.688-4.687,4.688
			c-2.583,0-4.688-2.105-4.688-4.688C113.498,118.474,115.603,116.369,118.186,116.369z M183.811,125.744
			c-2.583,0-4.688-2.105-4.688-4.688s2.105-4.688,4.688-4.688s4.688,2.105,4.688,4.688
			C188.498,123.64,186.394,125.744,183.811,125.744z M169.987,118.709c-12.422,3.052-25.556,3.047-37.973,0.005
			c-0.633-3.75-2.738-6.989-5.714-9.108c5.737-11.747,14.245-21.834,24.905-29.541c2.466,2.147,5.648,3.492,9.169,3.492
			c1.913,0,3.736-0.389,5.4-1.088c4.959,8.292,8.564,17.208,10.753,26.616C173.123,111.166,170.676,114.626,169.987,118.709z
			 M160.373,74.182c-2.583,0-4.688-2.105-4.688-4.688s2.105-4.688,4.688-4.688s4.688,2.105,4.688,4.688
			C165.061,72.077,162.956,74.182,160.373,74.182z M118.819,135.054c0.23-0.009,0.45-0.047,0.675-0.07
			c9.131,17.002,23.484,30.544,40.983,38.658c0.22,3.014,1.383,5.747,3.216,7.936c-5.358,8.198-11.902,15.431-19.528,21.6
			c-16.5-15.098-25.978-36.225-25.978-58.683C118.186,141.344,118.444,138.19,118.819,135.054z M156.642,204.682
			c5.719-5.484,10.753-11.597,15.084-18.277c0.877,0.173,1.781,0.277,2.709,0.277c4.575,0,8.611-2.231,11.18-5.625
			c4.073,0.567,8.175,0.938,12.258,0.938c1.673,0,3.366-0.155,5.053-0.253C190.767,194.037,174.633,202.338,156.642,204.682z
			 M211.556,171.354c-7.758,1.35-15.497,1.533-23.123,0.614c-0.188-4.05-2.091-7.627-5.011-10.073
			c2.906-8.962,4.552-18.206,4.908-27.586c5.531-1.894,9.544-7.088,9.544-13.252c0-1.28-0.23-2.498-0.548-3.68
			c8.841-5.409,16.706-12.366,23.194-20.47c3.488,8.958,5.48,18.661,5.48,28.838C225.998,142.708,220.626,158.421,211.556,171.354z
			 M216,87.194c-6.398,9.052-14.634,16.692-24.108,22.392c-1.8-1.27-3.909-2.086-6.187-2.4
			c-2.555-11.086-6.877-21.563-12.909-31.233c1.013-1.945,1.641-4.12,1.641-6.459c0-0.342-0.075-0.666-0.103-1.003
			c7.552-2.367,15.342-3.642,23.236-3.67C204.994,71.074,211.256,78.649,216,87.194z M185.428,56.398
			c-5.03,0.722-9.994,1.88-14.864,3.464c-2.564-2.714-6.169-4.43-10.191-4.43c-1.317,0-2.564,0.239-3.773,0.581
			c-3.755-3.586-7.762-6.886-12.019-9.867c0.581-0.014,1.144-0.089,1.73-0.089C160.528,46.057,173.859,49.844,185.428,56.398z
			 M119.541,50.782c-7.017,12.933-10.73,27.281-10.73,42.15c0,5.508,0.544,11.02,1.566,16.439c-0.117,0.08-0.22,0.178-0.333,0.263
			c-12.056-7.252-21.895-17.475-28.72-29.845C90.708,66.56,104.011,56.346,119.541,50.782z M66.623,125.744
			c0-13.327,3.328-25.87,9.136-36.919c7.327,11.639,17.175,21.347,28.927,28.523c-0.333,1.186-0.562,2.414-0.562,3.708
			c0,4.575,2.227,8.606,5.62,11.175c-0.567,4.064-0.933,8.166-0.933,12.262c0,22.195,8.227,43.275,22.875,59.531
			C94.716,197.13,66.623,164.684,66.623,125.744z M146.311,280.432c-2.583,0-4.688-2.105-4.688-4.688s2.105-4.688,4.688-4.688
			s4.687,2.105,4.687,4.688S148.894,280.432,146.311,280.432z"/>
		<polygon style="fill:#fff;" points="265.373,89.182 270.998,96.682 292.622,80.463 281.915,53.688 273.206,57.176 
			279.089,71.871 240.951,61.469 254.006,4.924 244.865,2.815 229.795,68.144 276.455,80.871 		"/>
		<polygon style="fill:#fff;" points="19.416,189.626 13.533,174.93 51.67,185.332 38.616,241.877 47.756,243.987 
			62.827,178.657 16.167,165.93 27.248,157.619 21.623,150.119 0,166.338 10.706,193.113 		"/>
	</g>
</g>
<g>
</g>
<g>
</g>
<g>
</g>
<g>
</g>
<g>
</g>
<g>
</g>
<g>
</g>
<g>
</g>
<g>
</g>
<g>
</g>
<g>
</g>
<g>
</g>
<g>
</g>
<g>
</g>
<g>
</g>
</svg>
