<?xml version="1.0" encoding="iso-8859-1"?>
<!-- Generator: Adobe Illustrator 19.0.0, SVG Export Plug-In . SVG Version: 6.00 Build 0)  -->
<svg version="1.1" id="Capa_1" xmlns="http://www.w3.org/2000/svg" xmlns:xlink="http://www.w3.org/1999/xlink" x="0px" y="0px"
	 viewBox="0 0 496 496" style="enable-background:new 0 0 496 496;" xml:space="preserve">
<g>
	<rect x="408" y="120" style="fill:#00b15a;" width="64" height="296"/>
	<path style="fill:#00b15a;" d="M336,176H112V48h224V176z"/>
</g>
<g>
	<path style="fill:#fff;" d="M480,80V24c0-13.232-10.768-24-24-24h-32c-13.232,0-24,10.768-24,24v56c-8.824,0-16,7.176-16,16v16
		c0,8.816,7.176,16,16,16v289.296l21.88,65.656C424.488,490.76,431.776,496,440,496s15.504-5.24,18.12-13.056L480,417.296V128
		c8.816,0,16-7.184,16-16V96C496,87.176,488.816,80,480,80z M416,24c0-4.416,3.584-8,8-8h32c4.416,0,8,3.584,8,8v56h-48V24z
		 M442.944,477.872c-0.856,2.544-5.032,2.536-5.888,0.008L419.096,424h41.8L442.944,477.872z M464,408h-16V160h-16v248h-16V128h16
		v16h16v-16h16V408z M400,112V96h80l0.016,16H400z"/>
	<path style="fill:#fff;" d="M344,0H56C36.256,0,19.904,14.416,16.68,33.264C7.04,36.376,0,45.336,0,56
		c0,10.416,6.712,19.216,16,22.528V97.48C6.712,100.784,0,109.584,0,120s6.712,19.216,16,22.528v18.952
		C6.712,164.784,0,173.584,0,184s6.712,19.216,16,22.528v18.952C6.712,228.784,0,237.584,0,248c0,10.416,6.712,19.216,16,22.528
		v18.952C6.712,292.784,0,301.584,0,312s6.712,19.216,16,22.528v18.952C6.712,356.784,0,365.584,0,376s6.712,19.216,16,22.528V456
		c0,22.056,17.944,40,40,40h288h16h8v-16h-8h-16c-13.232,0-24-10.768-24-24s10.768-24,24-24h16h8v-16V24C368,10.768,357.232,0,344,0
		z M24,48h48c4.416,0,8,3.584,8,8s-3.584,8-8,8H24c-4.416,0-8-3.584-8-8S19.584,48,24,48z M24,112h48c4.416,0,8,3.584,8,8
		s-3.584,8-8,8H24c-4.416,0-8-3.584-8-8S19.584,112,24,112z M24,176h48c4.416,0,8,3.584,8,8s-3.584,8-8,8H24c-4.416,0-8-3.584-8-8
		S19.584,176,24,176z M24,240h48c4.416,0,8,3.584,8,8c0,4.416-3.584,8-8,8H24c-4.416,0-8-3.584-8-8C16,243.584,19.584,240,24,240z
		 M24,304h48c4.416,0,8,3.584,8,8s-3.584,8-8,8H24c-4.416,0-8-3.584-8-8S19.584,304,24,304z M24,368h48c4.416,0,8,3.584,8,8
		s-3.584,8-8,8H24c-4.416,0-8-3.584-8-8S19.584,368,24,368z M312.208,480H56c-13.232,0-24-10.768-24-24s10.768-24,24-24h256.208
		c-5.08,6.704-8.208,14.96-8.208,24S307.128,473.296,312.208,480z M344,416H56c-9.04,0-17.296,3.128-24,8.208V400h40
		c13.232,0,24-10.768,24-24s-10.768-24-24-24H32v-16h40c13.232,0,24-10.768,24-24s-10.768-24-24-24H32v-16h40
		c13.232,0,24-10.768,24-24s-10.768-24-24-24H32v-16h40c13.232,0,24-10.768,24-24s-10.768-24-24-24H32v-16h40
		c13.232,0,24-10.768,24-24S85.232,96,72,96H32V80h40c13.232,0,24-10.768,24-24S85.232,32,72,32H33.472
		C36.784,22.712,45.584,16,56,16h288c4.416,0,8,3.584,8,8v392H344z"/>
	<rect x="64" y="448" style="fill:#fff;" width="16" height="16"/>
	<rect x="96" y="448" style="fill:#fff;" width="192" height="16"/>
	<rect x="112" y="208" style="fill:#fff;" width="16" height="16"/>
	<rect x="144" y="208" style="fill:#fff;" width="192" height="16"/>
	<rect x="112" y="240" style="fill:#fff;" width="224" height="16"/>
	<rect x="112" y="272" style="fill:#fff;" width="224" height="16"/>
	<rect x="320" y="304" style="fill:#fff;" width="16" height="16"/>
	<rect x="112" y="304" style="fill:#fff;" width="192" height="16"/>
</g>
<g>
</g>
<g>
</g>
<g>
</g>
<g>
</g>
<g>
</g>
<g>
</g>
<g>
</g>
<g>
</g>
<g>
</g>
<g>
</g>
<g>
</g>
<g>
</g>
<g>
</g>
<g>
</g>
<g>
</g>
</svg>
