<?xml version="1.0" encoding="iso-8859-1"?>
<!-- Generator: Adobe Illustrator 19.0.0, SVG Export Plug-In . SVG Version: 6.00 Build 0)  -->
<svg xmlns="http://www.w3.org/2000/svg" xmlns:xlink="http://www.w3.org/1999/xlink" version="1.1" id="Capa_1" x="0px" y="0px" viewBox="0 0 497.856 497.856" style="enable-background:new 0 0 497.856 497.856;" xml:space="preserve">
<path style="fill:#fff;" d="M480.928,104c-28.784,0-44.168,28.576-59.048,56.208C408.648,184.784,396.144,208,376.928,208  c-21.072,0-29.184-12.072-31.552-16.728c15.128-20.448,23.552-45.296,23.552-71.272c0-66.168-53.832-120-120-120  s-120,53.832-120,120c0,26.136,8.472,50.864,23.608,71.272c-2.368,4.656-10.56,16.728-31.608,16.728  c-19.216,0-31.72-23.216-44.952-47.792C61.096,132.576,45.712,104,16.928,104H1.984l8.288,12.44  c0.152,0.216,14.656,22.408,14.656,59.56c0,34.84,0,103.368,57.256,117.44C59.616,310.176,24.928,342.632,24.928,384  c0,57.648,16.472,75.784,18.344,77.656l13.656,13.656V456c0-0.504,0.4-50.744,34.968-64.568c8.304-3.32,18.072-6.664,28.416-10.2  c19.648-6.72,40.472-13.88,57.032-22.816c-4.232,22.472-3.552,53.264,16.808,85.824c28.712,45.944,100.736,53.616,145.656,53.616  c21.096,0,36.216-1.696,38.064-1.912l35.56-4.184l-33.968-11.344C354.28,472,288.928,442.592,288.928,408  c0-29.784,9.952-49.656,16.368-59.392c17.376,13.832,45.904,23.616,72.248,32.624c10.344,3.536,20.112,6.88,28.416,10.2  c34.416,13.76,34.968,64.072,34.968,64.576l0.064,19.24l13.592-13.6c1.872-1.864,18.344-20,18.344-77.648  c0-41.368-34.688-73.824-57.256-90.56c57.256-14.072,57.256-82.6,57.256-117.44c0-36.816,14.52-59.36,14.656-59.56l8.288-12.44  H480.928z M456.928,176c0,52.624-4.944,104-64,104h-30.776l26.88,14.992c0.688,0.376,67.896,38.432,67.896,89.008  c0,18.936-1.896,32.976-4.28,43.128c-5.104-18.488-16.272-40.768-40.752-50.56c-8.672-3.472-18.632-6.872-29.168-10.48  c-32.84-11.224-77.8-26.6-77.8-46.088h-16c0,6.104,1.888,11.616,5.152,16.664C286.4,347.2,272.928,370.928,272.928,408  c0,33.576,38.832,59.136,68.496,73.752c-0.456,0-0.904,0-1.36,0c-41.656,0-107.744-6.624-132.352-45.992  c-22.752-36.4-18.056-69.864-9.776-91.976c6.824-6.864,10.992-14.672,10.992-23.784h-16c0,19.488-44.96,34.864-77.8,46.088  c-10.536,3.608-20.496,7.008-29.168,10.48c-24.48,9.792-35.648,32.064-40.752,50.552c-2.384-10.16-4.28-24.2-4.28-43.12  c0-50.576,67.208-88.632,67.888-89.008L135.712,280h-30.784c-59.056,0-64-51.376-64-104c0-21.664-4.44-38.936-8.832-50.704  c11.336,8.248,20.376,25.032,29.784,42.496C76.76,195.424,92.144,224,120.928,224c23.656,0,36.256-11.336,42.432-19.952  c3.552,3.608,7.296,7.056,11.336,10.248l9.904-12.56c-25.208-19.888-39.672-49.672-39.672-81.736c0-57.344,46.656-104,104-104  s104,46.656,104,104c0,30.792-13.536,59.832-37.152,79.664l10.296,12.248c2.96-2.488,5.728-5.16,8.408-7.888  c6.176,8.624,18.776,19.976,42.448,19.976c28.784,0,44.168-28.576,59.048-56.208c9.408-17.472,18.448-34.256,29.784-42.496  C461.368,137.064,456.928,154.336,456.928,176z"/>
<path style="fill:#00b15a;" d="M208.928,280c-26.472,0-48-21.528-48-48s21.528-48,48-48s48,21.528,48,48S235.4,280,208.928,280z"/>
<path style="fill:#fff;" d="M208.928,256c-13.232,0-24-10.768-24-24s10.768-24,24-24s24,10.768,24,24S222.16,256,208.928,256z   M208.928,224c-4.416,0-8,3.592-8,8s3.584,8,8,8s8-3.592,8-8S213.344,224,208.928,224z"/>
<path style="fill:#00b15a;" d="M288.928,280c-26.472,0-48-21.528-48-48s21.528-48,48-48s48,21.528,48,48S315.4,280,288.928,280z"/>
<g>
	<path style="fill:#fff;" d="M288.928,256c-13.232,0-24-10.768-24-24s10.768-24,24-24s24,10.768,24,24S302.16,256,288.928,256z    M288.928,224c-4.416,0-8,3.592-8,8s3.584,8,8,8c4.416,0,8-3.592,8-8S293.344,224,288.928,224z"/>
	<rect x="200.928" y="48" style="fill:#fff;" width="16" height="16"/>
	<rect x="288.928" y="64" style="fill:#fff;" width="16" height="16"/>
	<rect x="312.928" y="128" style="fill:#fff;" width="16" height="16"/>
	<rect x="240.928" y="104" style="fill:#fff;" width="16" height="16"/>
	<rect x="160.928" y="112" style="fill:#fff;" width="16" height="16"/>
	<rect x="200.928" y="152" style="fill:#fff;" width="16" height="16"/>
	<rect x="280.928" y="160" style="fill:#fff;" width="16" height="16"/>
</g>
<g>
</g>
<g>
</g>
<g>
</g>
<g>
</g>
<g>
</g>
<g>
</g>
<g>
</g>
<g>
</g>
<g>
</g>
<g>
</g>
<g>
</g>
<g>
</g>
<g>
</g>
<g>
</g>
<g>
</g>
</svg>
