<?xml version="1.0" encoding="iso-8859-1"?>
<!-- Generator: Adobe Illustrator 19.0.0, SVG Export Plug-In . SVG Version: 6.00 Build 0)  -->
<svg version="1.1" id="Layer_1" xmlns="http://www.w3.org/2000/svg" xmlns:xlink="http://www.w3.org/1999/xlink" x="0px" y="0px"
	 viewBox="0 0 290.626 290.626" style="enable-background:new 0 0 290.626 290.626;" xml:space="preserve">
<g>
	<g>
		<path style="fill:#fff;" d="M264.843,0h-131.25c-12.923,0-23.438,10.514-23.438,23.438v46.875h9.375V46.875h159.375v182.813
			H119.53v-14.063h4.688h46.875h9.375v-9.375h-9.375v-14.063h-9.375v-46.875h9.375v-23.438h-46.875v23.438h9.375v46.875h-9.375
			v14.063h-9.375v-14.063h-9.375v-46.875h9.375v-23.438H67.968v23.438h9.375v46.875h-9.375v14.063h-9.375v-14.063h-9.375v-46.875
			h9.375v-23.438H11.718v23.438h9.375v46.875h-9.375v14.063H2.343v9.375h9.375h46.875h9.375h42.188v51.563
			c0,12.923,10.514,23.438,23.438,23.438h131.25c12.923,0,23.438-10.514,23.438-23.438V23.438C288.28,10.514,277.766,0,264.843,0z
			 M133.593,131.25h28.125v4.688h-28.125V131.25z M142.968,145.313h9.375v46.875h-9.375V145.313z M133.593,201.563h28.125v4.688
			h-28.125V201.563z M21.093,131.25h28.125v4.688H21.093V131.25z M30.468,145.313h9.375v46.875h-9.375
			C30.468,192.188,30.468,145.313,30.468,145.313z M21.093,206.25v-4.688h28.125v4.688H21.093z M119.53,37.5V23.438
			c0-7.753,6.309-14.063,14.063-14.063h131.25c7.753,0,14.063,6.309,14.063,14.063V37.5H119.53z M77.343,131.25h28.125v4.688H77.343
			V131.25z M86.718,145.313h9.375v46.875h-9.375V145.313z M77.343,206.25v-4.688h28.125v4.688H77.343z M264.843,281.25h-131.25
			c-7.753,0-14.063-6.309-14.063-14.063v-28.125h159.375v28.125C278.905,274.941,272.596,281.25,264.843,281.25z"/>
		<path style="fill:#00b15a;" d="M91.405,51.563l-75,42.188h150L91.405,51.563z M91.405,89.063c-7.767,0-14.063-6.295-14.063-14.063
			s6.295-14.063,14.063-14.063S105.468,67.233,105.468,75S99.172,89.063,91.405,89.063z"/>
		<path style="fill:#fff;" d="M171.093,93.75H91.405H11.718v23.438h159.375V93.75z M161.718,107.813H21.093v-4.688h140.625
			V107.813z"/>
		<rect x="194.531" y="18.75" style="fill:#fff;" width="37.5" height="9.375"/>
		<rect x="166.406" y="18.75" style="fill:#fff;" width="9.375" height="9.375"/>
		<path style="fill:#fff;" d="M199.218,243.75c-9.047,0-16.406,7.359-16.406,16.406c0,9.047,7.359,16.406,16.406,16.406
			s16.406-7.359,16.406-16.406S208.266,243.75,199.218,243.75z M199.218,267.188c-3.877,0-7.031-3.155-7.031-7.031
			s3.155-7.031,7.031-7.031s7.031,3.155,7.031,7.031S203.094,267.188,199.218,267.188z"/>
		<path style="fill:#fff;" d="M110.155,75c0-10.341-8.409-18.75-18.75-18.75S72.655,64.659,72.655,75s8.409,18.75,18.75,18.75
			S110.155,85.341,110.155,75z M91.405,84.375c-5.17,0-9.375-4.205-9.375-9.375s4.205-9.375,9.375-9.375S100.78,69.83,100.78,75
			S96.576,84.375,91.405,84.375z"/>
	</g>
</g>
<g>
</g>
<g>
</g>
<g>
</g>
<g>
</g>
<g>
</g>
<g>
</g>
<g>
</g>
<g>
</g>
<g>
</g>
<g>
</g>
<g>
</g>
<g>
</g>
<g>
</g>
<g>
</g>
<g>
</g>
</svg>
