<?xml version="1.0" encoding="iso-8859-1"?>
<!-- Generator: Adobe Illustrator 19.0.0, SVG Export Plug-In . SVG Version: 6.00 Build 0)  -->
<svg version="1.1" id="Layer_1" xmlns="http://www.w3.org/2000/svg" xmlns:xlink="http://www.w3.org/1999/xlink" x="0px" y="0px"
	 viewBox="0 0 290.606 290.606" style="enable-background:new 0 0 290.606 290.606;" xml:space="preserve">
<g>
	<g>
		<circle style="fill:#00b15a;" cx="150" cy="196.875" r="65.625"/>
		<path style="fill:#fff;" d="M287.165,127.078c-2.461-2.836-5.878-4.547-9.628-4.814l-8.648-0.614L163.833,16.589
			C162.745,7.28,154.898,0,145.303,0c-9.534,0-17.339,7.177-18.511,16.397L25.05,103.688l0.009-0.563h-0.005
			c-7.758,0-14.475,5.873-15.028,13.603l-9.988,140.56c-0.267,3.745,0.942,7.519,3.403,10.355s5.878,4.622,9.623,4.884
			l252.487,18.023c0.342,0.023,0.684,0.056,1.022,0.056c3.38,0,6.609-1.191,9.188-3.427c2.836-2.461,4.547-5.873,4.814-9.619
			l9.994-140.269C290.836,133.542,289.626,129.919,287.165,127.078z M145.303,9.375c5.17,0,9.375,4.205,9.375,9.375
			s-4.205,9.375-9.375,9.375s-9.375-4.205-9.375-9.375S140.133,9.375,145.303,9.375z M128.648,27.183
			c3.098,6.094,9.361,10.317,16.655,10.317c7.083,0,13.191-3.994,16.378-9.806l92.939,92.939L38.292,105.225L128.648,27.183z
			 M271.223,276.895c-0.089,1.247-0.656,2.386-1.603,3.206c-0.942,0.82-2.161,1.219-3.403,1.134L13.73,263.25
			c-1.247-0.089-2.386-0.656-3.206-1.603s-1.223-2.152-1.134-3.403l9.989-140.269c0.178-2.466,2.241-4.355,4.673-4.355
			c0.113,0,0.22,0,0.333,0.009l252.482,17.986c1.252,0.089,2.391,0.661,3.211,1.603c0.82,0.947,1.223,2.156,1.134,3.403
			L271.223,276.895z"/>
		
			<rect x="135.598" y="23.486" transform="matrix(0.0711 -0.9975 0.9975 0.0711 -5.337 266.2547)" style="fill:#fff;" width="9.375" height="225.014"/>
		
			<rect x="261.848" y="140.297" transform="matrix(0.0711 -0.9975 0.9975 0.0711 102.9672 400.5374)" style="fill:#fff;" width="9.375" height="9.375"/>
		
			<rect x="126.935" y="145.058" transform="matrix(0.0711 -0.9975 0.9975 0.0711 -134.6485 370.5419)" style="fill:#fff;" width="9.375" height="225.014"/>
		
			<rect x="253.165" y="261.844" transform="matrix(0.071 -0.9975 0.9975 0.071 -26.3137 504.8105)" style="fill:#fff;" width="9.375" height="9.375"/>
		<path style="fill:#fff;" d="M66.67,234.075c10.95,0,20.236-8.498,21.028-19.598l2.995-42.08
			c0.398-5.62-1.411-11.063-5.1-15.319c-3.689-4.256-8.817-6.82-14.437-7.223c-5.611-0.398-11.062,1.411-15.319,5.1
			c-4.256,3.694-6.82,8.817-7.223,14.438l-3,42.084c-0.398,5.62,1.411,11.058,5.105,15.319s8.817,6.82,14.442,7.223
			C65.663,234.056,66.169,234.075,66.67,234.075z M54.966,212.147l3-42.084c0.22-3.122,1.645-5.967,4.012-8.02
			c2.147-1.861,4.837-2.864,7.655-2.864c0.286,0,0.567,0.009,0.853,0.028c3.122,0.22,5.967,1.645,8.02,4.012
			c2.053,2.363,3.056,5.386,2.831,8.508l-2.995,42.08c-0.464,6.445-6.08,11.334-12.52,10.856c-3.122-0.22-5.972-1.645-8.02-4.012
			C55.753,218.292,54.745,215.269,54.966,212.147z"/>
		<path style="fill:#fff;" d="M110.227,162.038l9.356,0.67c7.73,0.548,13.575,7.289,13.027,15.023s-7.331,13.613-15.028,13.027
			l-9.352-0.666l-0.67,9.352l9.352,0.666c12.853,0.844,24.127-8.822,25.045-21.713c0.914-12.891-8.822-24.122-21.712-25.041
			l-18.703-1.331l-5.995,84.159l9.352,0.67l2.662-37.406L110.227,162.038z"/>
		<polygon style="fill:#fff;" points="189.712,167.705 190.383,158.353 152.977,155.686 146.981,239.845 184.383,242.512 
			185.053,233.161 156.998,231.164 158.995,203.109 187.05,205.106 187.716,195.755 159.661,193.758 161.658,165.703 		"/>
		<polygon style="fill:#fff;" points="231.811,236.494 231.014,236.433 222.314,160.627 204.408,159.352 198.412,243.511 
			207.764,244.181 213.089,169.369 213.886,169.425 222.586,245.231 240.492,246.506 246.487,162.347 237.136,161.681 		"/>
	</g>
</g>
<g>
</g>
<g>
</g>
<g>
</g>
<g>
</g>
<g>
</g>
<g>
</g>
<g>
</g>
<g>
</g>
<g>
</g>
<g>
</g>
<g>
</g>
<g>
</g>
<g>
</g>
<g>
</g>
<g>
</g>
</svg>
