<?xml version="1.0" encoding="iso-8859-1"?>
<!-- Generator: Adobe Illustrator 19.0.0, SVG Export Plug-In . SVG Version: 6.00 Build 0)  -->
<svg version="1.1" id="Capa_1" xmlns="http://www.w3.org/2000/svg" xmlns:xlink="http://www.w3.org/1999/xlink" x="0px" y="0px"
	 viewBox="0 0 496 496" style="enable-background:new 0 0 496 496;" xml:space="preserve">
<g>
	<path style="fill:#00b15a;" d="M224,392H32v-80h192V392z"/>
	<path style="fill:#00b15a;" d="M368,88c-39.704,0-72,32.296-72,72v104h0.968c3.216-2.536,6.896-4.536,10.992-5.704L344,248v-16
		h0.216C334.432,224.712,328,213.144,328,200v-24h80v24c0,13.144-6.432,24.712-16.216,32H392v16l36.048,10.296
		c4.088,1.168,7.776,3.16,10.992,5.704H440V160C440,120.296,407.704,88,368,88z"/>
</g>
<path style="fill:#fff;" d="M272,56c-9.6,0-18.128,4.336-24,11.056C242.128,60.336,233.6,56,224,56H0v384h224c9.6,0,18.128-4.336,24-11.056
	c5.872,6.72,14.4,11.056,24,11.056h224V56H272z M224,424H16V72h208c8.824,0,16,7.176,16,16v320C240,416.824,232.824,424,224,424z
	 M480,424H272c-8.824,0-16-7.176-16-16V88c0-8.824,7.176-16,16-16h208V424z"/>
<path style="fill:#fff;" d="M128,88c-52.936,0-96,43.064-96,96s43.064,96,96,96s96-43.064,96-96S180.936,88,128,88z M150.792,134.216
	C143.648,135.296,136,136,128,136c-7.984,0-15.624-0.704-22.752-1.776c8.16-12.344,17.232-21.984,22.76-27.352
	C133.544,112.232,142.624,121.864,150.792,134.216z M127.992,261.128c-5.536-5.36-14.616-14.992-22.784-27.344
	C112.352,232.704,120,232,128,232c7.984,0,15.624,0.704,22.752,1.776C142.592,246.12,133.52,255.76,127.992,261.128z M128,216
	c-11.2,0-21.736,1.2-31.224,2.936c-4.024-8.376-7.136-17.44-8.28-26.936h79.008c-1.144,9.488-4.272,18.552-8.304,26.936
	C149.712,217.2,139.192,216,128,216z M88.496,176c1.144-9.488,4.272-18.552,8.304-26.936C106.288,150.8,116.808,152,128,152
	c11.2,0,21.736-1.2,31.224-2.936c4.024,8.376,7.136,17.44,8.28,26.936H88.496z M88.392,130.84c-5.96-1.504-11.2-3.136-15.536-4.656
	c9.136-8.712,20.296-15.288,32.72-18.928C100.008,113.688,93.888,121.688,88.392,130.84z M80.808,145.448
	c-4.192,9.456-7.288,19.72-8.344,30.552H48.408c1.352-13.544,6.088-26.104,13.36-36.816
	C66.576,141.064,73.048,143.336,80.808,145.448z M72.464,192c1.056,10.832,4.152,21.096,8.344,30.552
	c-7.76,2.112-14.232,4.384-19.04,6.264C54.496,218.104,49.76,205.544,48.408,192H72.464z M88.392,237.16
	c5.496,9.152,11.616,17.152,17.192,23.584c-12.432-3.64-23.592-10.216-32.72-18.928C77.192,240.296,82.432,238.664,88.392,237.16z
	 M167.608,237.16c5.96,1.504,11.2,3.136,15.536,4.656c-9.136,8.712-20.296,15.288-32.72,18.928
	C155.992,254.312,162.112,246.312,167.608,237.16z M175.192,222.552c4.192-9.456,7.288-19.72,8.344-30.552h24.056
	c-1.352,13.544-6.088,26.104-13.36,36.816C189.424,226.936,182.952,224.664,175.192,222.552z M183.536,176
	c-1.056-10.832-4.152-21.096-8.344-30.552c7.76-2.112,14.232-4.384,19.04-6.264c7.272,10.712,12.008,23.272,13.36,36.816H183.536z
	 M167.608,130.84c-5.496-9.152-11.616-17.152-17.192-23.584c12.432,3.64,23.592,10.216,32.72,18.928
	C178.808,127.704,173.568,129.336,167.608,130.84z"/>
<rect style="fill:#fff;" x="120" y="344" width="16" height="16"/>
<rect style="fill:#fff;" x="80" y="344" width="16" height="16"/>
<rect style="fill:#fff;" x="160" y="344" width="16" height="16"/>
<path style="fill:#fff;" d="M465.224,328l-6.368-44.592c-2.224-15.592-13.456-28.472-28.608-32.808L400,241.968v-6.288c9.792-8.792,16-21.504,16-35.68
	v-40h-16v8h-64v-8h-16v40c0,14.168,6.208,26.88,16,35.68v6.296l-30.248,8.632c-15.152,4.336-26.376,17.208-28.608,32.808
	L270.776,328H465.224z M400,184v16c0,17.648-14.352,32-32,32s-32-14.352-32-32v-16H400z M292.984,285.672
	c1.336-9.36,8.08-17.088,17.168-19.68L352,254.032V245.2c5.016,1.784,10.384,2.8,16,2.8s10.984-1.024,16-2.8v8.832l41.848,11.96
	c9.088,2.592,15.832,10.32,17.168,19.68l3.76,26.328H289.224L292.984,285.672z"/>
<rect style="fill:#fff;" x="280" y="344" width="176" height="16"/>
<rect style="fill:#fff;" x="376" y="376" width="80" height="16"/>
<rect style="fill:#fff;" x="280" y="376" width="80" height="16"/>
<g>
</g>
<g>
</g>
<g>
</g>
<g>
</g>
<g>
</g>
<g>
</g>
<g>
</g>
<g>
</g>
<g>
</g>
<g>
</g>
<g>
</g>
<g>
</g>
<g>
</g>
<g>
</g>
<g>
</g>
</svg>
