<?xml version="1.0" encoding="iso-8859-1"?>
<!-- Generator: Adobe Illustrator 19.0.0, SVG Export Plug-In . SVG Version: 6.00 Build 0)  -->
<svg version="1.1" id="Layer_1" xmlns="http://www.w3.org/2000/svg" xmlns:xlink="http://www.w3.org/1999/xlink" x="0px" y="0px"
	 viewBox="0 0 290.625 290.625" style="enable-background:new 0 0 290.625 290.625;" xml:space="preserve">
<g>
	<g>
		<rect x="42.188" y="37.5" style="fill:#fff;" width="131.25" height="9.375"/>
		<rect x="42.188" y="60.938" style="fill:#fff;" width="131.25" height="9.375"/>
		<rect x="42.188" y="84.375" style="fill:#fff;" width="65.625" height="9.375"/>
		<path style="fill:#fff;" d="M201.563,210.938v-70.313h-4.688c-9.619,0-19.205,1.917-28.125,5.527V128.47
			c27.783-8.236,46.875-33.563,46.875-62.845C215.625,29.438,186.188,0,150,0H65.625C29.438,0,0,29.438,0,65.625
			s29.438,65.625,65.625,65.625h57.445l25.242,27.347c-16.636,14.189-26.438,35.133-26.438,57.028c0,41.353,33.647,75,75,75
			s75-33.647,75-75v-4.688h-70.311V210.938z M65.625,121.875c-31.017,0-56.25-25.233-56.25-56.25s25.233-56.25,56.25-56.25H150
			c31.017,0,56.25,25.233,56.25,56.25c0,26.166-17.794,48.652-43.266,54.684l-3.609,0.853v35.602l-32.203-34.889
			C127.172,121.875,65.625,121.875,65.625,121.875z M196.875,281.25c-36.188,0-65.625-29.438-65.625-65.625
			c0-19.575,8.564-37.552,23.489-50.063l14.011,15.178v-24.295c7.43-3.548,15.272-5.705,23.438-6.277v70.144h70.148
			C259.922,254.32,231.483,281.25,196.875,281.25z"/>
		<path style="fill:#00b15a;" d="M290.625,201.563h-79.688v-79.688h4.688c41.353,0,75,33.647,75,75V201.563z"/>
	</g>
</g>
<g>
</g>
<g>
</g>
<g>
</g>
<g>
</g>
<g>
</g>
<g>
</g>
<g>
</g>
<g>
</g>
<g>
</g>
<g>
</g>
<g>
</g>
<g>
</g>
<g>
</g>
<g>
</g>
<g>
</g>
</svg>
