<?xml version="1.0" encoding="iso-8859-1"?>
<!-- Generator: Adobe Illustrator 19.0.0, SVG Export Plug-In . SVG Version: 6.00 Build 0)  -->
<svg version="1.1" id="Capa_1" xmlns="http://www.w3.org/2000/svg" xmlns:xlink="http://www.w3.org/1999/xlink" x="0px" y="0px"
	 viewBox="0 0 503.088 503.088" style="enable-background:new 0 0 503.088 503.088;" xml:space="preserve">
<g>
	<path style="fill:#00b15a;" d="M291.544,136.536v-28.992c-32,0-48,8-80,8v20.992c-73.432,17.968-128,84.032-128,163.008
		c0,10.952,1.128,21.632,3.128,32h329.744c2-10.368,3.128-21.048,3.128-32C419.544,220.568,364.976,154.504,291.544,136.536z
		 M299.544,261.776v21.768c0,8.84-7.16,16-16,16h-64c-8.84,0-16-7.16-16-16v-21.768c-11.672-13.248-18.008-31.304-15.432-50.872
		c3.776-28.672,27.392-51.776,56.136-54.96c38.616-4.264,71.296,25.848,71.296,63.6
		C315.544,235.752,309.472,250.504,299.544,261.776z"/>
	<path style="fill:#00b15a;" d="M96.24,363.544c25.176,61.024,85.192,104,155.304,104s130.128-42.976,155.304-104H96.24z"/>
</g>
<path style="fill:#fff;" d="M503.088,499.544l-48-128h20.456c13.232,0,24-10.768,24-24s-10.768-24-24-24h-49.896c1.128-8.056,1.896-16.104,1.896-24
	c0-79.128-52.32-147.808-128-169.168V67.544c17.648,0,32-14.352,32-32s-14.352-32-32-32h-96c-17.648,0-32,14.352-32,32
	s14.352,32,32,32v62.832c-75.68,21.36-128,90.04-128,169.168c0,7.896,0.768,15.944,1.896,24H27.544c-13.232,0-24,10.768-24,24
	s10.768,24,24,24H48l-48,128h49.096l45.296-120.8c29.776,59.216,90.088,96.8,157.152,96.8s127.376-37.584,157.152-96.8L454,499.544
	H503.088z M480,483.544h-14.904l-42-112h14.912L480,483.544z M187.544,35.544c0-8.824,7.176-16,16-16h96c8.824,0,16,7.176,16,16
	s-7.176,16-16,16h-96C194.72,51.544,187.544,44.368,187.544,35.544z M91.544,299.544c0-73.84,50.128-137.672,121.896-155.24
	l6.104-1.488V67.544h64v75.272l6.104,1.496c71.768,17.56,121.896,81.392,121.896,155.232c0,7.88-0.808,15.936-2.04,24H93.584
	C92.352,315.48,91.544,307.424,91.544,299.544z M19.544,347.544c0-4.408,3.584-8,8-8h448c4.416,0,8,3.592,8,8s-3.584,8-8,8h-448
	C23.128,355.544,19.544,351.952,19.544,347.544z M38,483.544H23.088l42-112H80L38,483.544z M251.544,459.544
	c-60.96,0-115.784-34.16-142.856-88H394.4C367.328,425.384,312.504,459.544,251.544,459.544z"/>
<rect style="fill:#fff;" x="387.544" y="19.544" width="16" height="16"/>
<rect style="fill:#fff;" x="387.544" y="51.544" width="16" height="16"/>
<rect style="fill:#fff;" x="403.544" y="35.544" width="16" height="16"/>
<rect style="fill:#fff;" x="371.544" y="35.544" width="16" height="16"/>
<rect style="fill:#fff;" x="83.544" y="115.544" width="16" height="16"/>
<rect style="fill:#fff;" x="83.544" y="147.544" width="16" height="16"/>
<rect style="fill:#fff;" x="99.544" y="131.544" width="16" height="16"/>
<rect style="fill:#fff;" x="67.544" y="131.544" width="16" height="16"/>
<path style="fill:#fff;" d="M131.544,59.544c13.232,0,24-10.768,24-24s-10.768-24-24-24s-24,10.768-24,24S118.312,59.544,131.544,59.544z
	 M131.544,27.544c4.416,0,8,3.592,8,8s-3.584,8-8,8c-4.416,0-8-3.592-8-8S127.128,27.544,131.544,27.544z"/>
<path style="fill:#fff;" d="M299.56,165.888c-15.224-13.64-35.68-20.144-56.184-17.896c-32.36,3.584-58.936,29.6-63.184,61.864
	c-2.592,19.696,2.984,39.512,15.36,54.84v18.848c0,13.232,10.768,24,24,24h64c13.232,0,24-10.768,24-24v-18.84
	c10.344-12.8,16-28.712,16-45.16C323.544,199.096,314.8,179.544,299.56,165.888z M293.544,256.488l-2,2.272v24.784
	c0,4.408-3.584,8-8,8h-8v-16h-16v16h-16v-16h-16v16h-8c-4.416,0-8-3.592-8-8V258.76l-2-2.272
	c-10.856-12.336-15.656-28.152-13.504-44.536c3.304-25.064,23.952-45.272,49.088-48.048c2.184-0.248,4.336-0.36,6.488-0.36
	c13.824,0,26.864,4.952,37.272,14.272c11.856,10.616,18.656,25.824,18.656,41.728C307.544,233.12,302.568,246.24,293.544,256.488z"
	/>
<rect style="fill:#fff;" x="339.544" y="91.544" width="16" height="16"/>
<rect style="fill:#fff;" x="219.544" y="211.544" width="16" height="16"/>
<rect style="fill:#fff;" x="267.544" y="211.544" width="16" height="16"/>

</svg>
