<?xml version="1.0" encoding="iso-8859-1"?>
<!-- Generator: Adobe Illustrator 19.0.0, SVG Export Plug-In . SVG Version: 6.00 Build 0)  -->
<svg version="1.1" id="Capa_1" xmlns="http://www.w3.org/2000/svg" xmlns:xlink="http://www.w3.org/1999/xlink" x="0px" y="0px"
	 viewBox="0 0 496 496" style="enable-background:new 0 0 496 496;" xml:space="preserve">
<g>
	<path style="fill:#00b15a;" d="M408,165.104c-29.688,24.04-94.064,74.928-136,98.896c-37.688,21.536-111.6,53.936-155.912,72.832
		L88,336v-31.72c44.16-19.096,103.528-45.72,136-64.28c56-32,152-104,152-104h32V165.104z"/>
	<path style="fill:#00b15a;" d="M32,80c0,0,128,16,216,16s216-16,216-16v48c0,0-128,16-216,16S32,128,32,128V80z"/>
	<path style="fill:#00b15a;" d="M32,328c0,0,128,16,216,16s216-16,216-16v48c0,0-128,16-216,16S32,376,32,376V328z"/>
</g>
<path style="fill:#fff;" d="M472,432h-8v-47.936c0.544-0.064,0.936-0.112,0.992-0.12l7.008-0.88v-64.128l-8,1V136.064
	c0.544-0.064,0.936-0.112,0.992-0.12l7.008-0.88V70.936l-8,1V24c0-13.232-10.768-24-24-24h-16c-13.232,0-24,10.768-24,24v54.896
	C355.504,83.224,295.592,88,248,88s-107.504-4.776-152-9.104V24C96,10.768,85.232,0,72,0H56C42.768,0,32,10.768,32,24v47.936l-8-1
	v64.128l7.008,0.872c0.056,0.008,0.448,0.056,0.992,0.128v183.88l-8-1v64.128l7.008,0.872c0.056,0,0.448,0.048,0.992,0.12V432h-8
	c-13.232,0-24,10.768-24,24v40h128v-40c0-13.232-10.768-24-24-24h-8v-41.032c44.72,4.32,104.376,9.032,152,9.032
	s107.28-4.712,152-9.032V432h-8c-13.232,0-24,10.768-24,24v40h128v-40C496,442.768,485.232,432,472,432z M119.152,364.416
	l-14.312,7.16l2.184,4.368c-11.704-1.088-22.624-2.176-32.232-3.184l-19.424-34c9.528,1.056,21.456,2.32,34.896,3.648l6.576,13.152
	l14.312-7.16l-2.104-4.208c10.2,0.936,20.912,1.872,32,2.744l19.08,33.384c-11.728-0.832-23.28-1.744-34.36-2.704L119.152,364.416z
	 M40,368.904V344.12l15.152,26.512C48.92,369.944,43.728,369.344,40,368.904z M40,120.904V96.12l15.152,26.512
	C48.92,121.944,43.728,121.344,40,120.904z M74.792,124.76l-19.424-34c9.528,1.056,21.456,2.32,34.896,3.648l16.768,33.536
	C95.32,126.848,84.4,125.76,74.792,124.76z M456,89.016v29.096l-13.76-27.528C447.688,89.976,452.384,89.44,456,89.016z
	 M425.264,92.416l15.136,30.272c-7.936,0.88-17.608,1.928-28.592,3.04l-15.216-30.424C407.064,94.304,416.64,93.328,425.264,92.416z
	 M400,161.272c-2.616,2.112-5.432,4.376-8.6,6.912l-28.776-12.336c6.424-4.712,11.448-8.432,14.592-10.776
	c7.92-0.696,15.544-1.408,22.792-2.104v18.304H400z M357.248,194.928l-12.44-5.112l-6.096,14.8l3.752,1.544
	c-6.584,4.944-13.288,9.904-20.016,14.768l-32.152-13.776c6.888-4.696,13.72-9.416,20.376-14.072l14.256,5.864l6.096-14.8
	l-4.84-1.992c7.656-5.44,14.864-10.616,21.392-15.336l29.568,12.672C370.968,184.336,364.264,189.552,357.248,194.928z
	 M153.464,311.928l-31.824-13.64c8.472-3.76,17.112-7.632,25.744-11.56l31.952,13.696
	C170.536,304.376,161.848,308.24,153.464,311.928z M199,291.448l-32.072-13.744c9.048-4.232,17.848-8.432,26.168-12.528
	l32.304,13.84C216.904,283.112,208.024,287.288,199,291.448z M244.28,269.704l-32.552-13.952c5.896-3.072,11.392-6.04,16.24-8.808
	c2.544-1.448,5.184-3.008,7.864-4.608l33.096,14.184c-0.288,0.168-0.608,0.368-0.896,0.528
	C261.216,260.952,253.136,265.224,244.28,269.704z M285.632,246.28l-33.136-14.2c7.152-4.52,14.544-9.328,22.016-14.304
	l32.648,13.992C299.792,236.92,292.544,241.832,285.632,246.28z M394.752,127.4c-9.112,0.872-18.776,1.744-28.816,2.592
	L350.584,99.28c9.92-0.768,19.6-1.576,28.904-2.408L394.752,127.4z M348.744,131.376c-8.464,0.656-17.048,1.272-25.696,1.832
	l-17.68-30.936c9.32-0.496,18.672-1.08,27.968-1.728L348.744,131.376z M305.216,134.248c-9.744,0.52-19.416,0.96-28.856,1.256
	l-18.056-31.6c9.4-0.12,19.152-0.4,29.104-0.8L305.216,134.248z M258.16,135.904C254.744,135.952,251.312,136,248,136
	c-6.288,0-12.848-0.112-19.512-0.264l-18.616-32.584c10.296,0.408,20.344,0.672,30.016,0.776L258.16,135.904z M209.72,135.136
	c-10.032-0.4-20.224-0.928-30.456-1.552l-18.976-33.208c10.168,0.712,20.44,1.36,30.664,1.904L209.72,135.136z M160.12,132.328
	c-11.728-0.832-23.28-1.744-34.36-2.704l-16.72-33.432c10.2,0.936,20.912,1.872,32,2.744L160.12,132.328z M248,152
	c30.368,0,65.632-1.92,98.8-4.424c-32.144,23.416-89,63.896-126.768,85.48C190.568,249.896,138.376,273.592,96,292.08V142.968
	C140.72,147.288,200.376,152,248,152z M96,309.536c1.848-0.8,3.704-1.608,5.6-2.44l31.744,13.608
	c-6.64,2.872-12.864,5.544-18.512,7.96c-6.52-0.592-12.808-1.184-18.832-1.768C96,326.896,96,309.536,96,309.536z M160.288,348.376
	c10.168,0.712,20.44,1.36,30.664,1.904l18.768,32.856c-10.032-0.4-20.224-0.928-30.456-1.552L160.288,348.376z M148.672,331.488
	c42.16-18.376,96.64-43.032,127.296-60.544C312.608,250,365.2,209.592,400,181.808v145.096C355.504,331.224,295.592,336,248,336
	C217.52,336,181.984,334.04,148.672,331.488z M287.416,351.104l17.8,31.144c-9.744,0.52-19.416,0.96-28.856,1.256l-18.056-31.6
	C267.712,351.784,277.456,351.504,287.416,351.104z M305.36,350.264c9.32-0.496,18.672-1.08,27.968-1.728l15.416,30.832
	c-8.464,0.656-17.048,1.272-25.696,1.832L305.36,350.264z M350.592,347.28c9.92-0.768,19.6-1.576,28.904-2.408L394.76,375.4
	c-9.112,0.872-18.776,1.744-28.816,2.592L350.592,347.28z M411.808,373.728l-15.216-30.424c10.464-1,20.048-1.976,28.672-2.88
	l15.136,30.272C432.464,371.568,422.792,372.616,411.808,373.728z M456,337.016v29.096l-13.76-27.528
	C447.688,337.976,452.384,337.44,456,337.016z M448,321.832c-8.088,0.928-19.04,2.136-32,3.464v-183.92
	c12.752-1.304,23.72-2.504,32-3.448V321.832z M416,24c0-4.416,3.584-8,8-8h16c4.416,0,8,3.584,8,8v49.832
	c-8.088,0.928-19.04,2.136-32,3.464V24z M56,16h16c4.416,0,8,3.584,8,8v53.296c-12.96-1.336-23.912-2.544-32-3.464V24
	C48,19.584,51.584,16,56,16z M80,141.384v183.92c-12.96-1.336-23.912-2.544-32-3.464V137.936C56.28,138.88,67.248,140.08,80,141.384
	z M112,456v24H16v-24c0-4.416,3.584-8,8-8h80C108.416,448,112,451.584,112,456z M80,432H48v-46.064
	c8.28,0.944,19.248,2.144,32,3.448V432z M228.488,383.736l-18.616-32.584c10.296,0.408,20.344,0.672,30.016,0.776l18.272,31.976
	C254.744,383.952,251.312,384,248,384C241.712,384,235.152,383.888,228.488,383.736z M416,389.384
	c12.752-1.304,23.72-2.504,32-3.448V432h-32V389.384z M480,480h-96v-24c0-4.416,3.584-8,8-8h80c4.416,0,8,3.584,8,8V480z"/>
<g>
</g>
<g>
</g>
<g>
</g>
<g>
</g>
<g>
</g>
<g>
</g>
<g>
</g>
<g>
</g>
<g>
</g>
<g>
</g>
<g>
</g>
<g>
</g>
<g>
</g>
<g>
</g>
<g>
</g>
</svg>
