<?xml version="1.0" encoding="iso-8859-1"?>
<!-- Generator: Adobe Illustrator 19.0.0, SVG Export Plug-In . SVG Version: 6.00 Build 0)  -->
<svg version="1.1" id="Capa_1" xmlns="http://www.w3.org/2000/svg" xmlns:xlink="http://www.w3.org/1999/xlink" x="0px" y="0px"
	 viewBox="0 0 496 496" style="enable-background:new 0 0 496 496;" xml:space="preserve">
<g>
	<path style="fill:#00b15a;" d="M248,0c-39.768,0-72,32.232-72,72h56c0-8.84,7.16-16,16-16s16,7.16,16,16h56
		C320,32.232,287.768,0,248,0z"/>
	<path style="fill:#00b15a;" d="M416,384c-22.056,0-40-17.944-40-40s17.944-40,40-40s40,17.944,40,40S438.056,384,416,384z"/>
	<path style="fill:#00b15a;" d="M80,384c-22.056,0-40-17.944-40-40s17.944-40,40-40s40,17.944,40,40S102.056,384,80,384z"/>
</g>
<g>
	<path style="fill:#fff;" d="M465.712,272h-3.648l-34.888-123.656C419.024,126.6,397.952,112,374.736,112H352V88
		c0-13.232-10.768-24-24-24h-57.472c-3.312-9.288-12.112-16-22.528-16s-19.216,6.712-22.528,16H168c-13.232,0-24,10.768-24,24v24
		h-22.736c-23.216,0-44.288,14.6-52.648,36.976L33.936,272h-3.648C13.584,272,0,285.592,0,302.296c0,1.536,0.12,3.072,0.352,4.608
		L11.92,382.08c2.408,15.704,13.568,27.824,28.08,32.12V472c0,13.232,10.768,24,24,24h48c13.232,0,24-10.768,24-24v-56h224v56
		c0,13.232,10.768,24,24,24h48c13.232,0,24-10.768,24-24v-57.8c14.512-4.296,25.672-16.416,28.08-32.12l11.568-75.184
		c0.232-1.528,0.352-3.064,0.352-4.6C496,285.592,482.416,272,465.712,272z M336,88v24h-64V80h56C332.416,80,336,83.584,336,88z
		 M248,64c4.416,0,8,3.584,8,8v40h-16V72C240,67.584,243.584,64,248,64z M160,88c0-4.416,3.584-8,8-8h56v32h-64V88z M83.816,153.952
		C89.632,138.432,104.68,128,121.264,128h253.472c16.584,0,31.632,10.432,37.24,25.32L445.432,272h-23.136L395.24,160.408
		C391.96,150.592,382.816,144,372.472,144H123.528c-10.344,0-19.496,6.592-22.952,17.056L73.704,272H50.568L83.816,153.952z
		 M405.832,272H90.168l25.776-106.528c1.088-3.28,4.144-5.472,7.584-5.472h248.936c3.448,0,6.496,2.192,7.408,4.816L405.832,272z
		 M120,448H96v16h24v8c0,4.416-3.584,8-8,8H64c-4.416,0-8-3.584-8-8v-24h24v-16H56v-16h64V448z M336,400h-16v-64H176v64h-16v-72
		c0-4.416,3.584-8,8-8h160c4.416,0,8,3.584,8,8V400z M304,368H192v-16h112V368z M192,384h112v16H192V384z M432,480h-48
		c-4.416,0-8-3.584-8-8v-8h24v-16h-24v-32h64v16h-24v16h24v24C440,476.416,436.416,480,432,480z M479.832,304.472l-11.568,75.176
		c-1.808,11.8-11.784,20.352-23.72,20.352H352v-72c0-13.232-10.768-24-24-24H168c-13.232,0-24,10.768-24,24v72H51.456
		c-11.928,0-21.904-8.552-23.72-20.352L16.168,304.48c-0.112-0.72-0.168-1.456-0.168-2.184C16,294.416,22.408,288,30.288,288h39.536
		H88h328h10.168h39.536c7.888,0,14.296,6.416,14.296,14.296C480,303.024,479.944,303.76,479.832,304.472z"/>
	<rect x="240" style="fill:#fff;" width="16" height="32"/>
	
		<rect x="200.399" y="16.407" transform="matrix(-0.7071 0.7071 -0.7071 -0.7071 378.6746 -92.0393)" style="fill:#fff;" width="16" height="32"/>
	
		<rect x="271.596" y="24.41" transform="matrix(-0.7071 0.7071 -0.7071 -0.7071 513.8741 -148.0341)" style="fill:#fff;" width="32" height="16"/>
	
		<rect x="143.43" y="208.007" transform="matrix(-0.7071 0.7071 -0.7071 -0.7071 494.1437 227.3335)" style="fill:#fff;" width="113.119" height="16"/>
	
		<rect x="217.267" y="197.288" transform="matrix(-0.7071 0.7071 -0.7071 -0.7071 586.793 167.5191)" style="fill:#fff;" width="82.871" height="16"/>
	
		<rect x="205.751" y="242.545" transform="matrix(-0.7071 0.7071 -0.7071 -0.7071 541.6201 276.7435)" style="fill:#fff;" width="15.488" height="16"/>
</g>
<g>
</g>
<g>
</g>
<g>
</g>
<g>
</g>
<g>
</g>
<g>
</g>
<g>
</g>
<g>
</g>
<g>
</g>
<g>
</g>
<g>
</g>
<g>
</g>
<g>
</g>
<g>
</g>
<g>
</g>
</svg>
