<?xml version="1.0" encoding="iso-8859-1"?>
<!-- Generator: Adobe Illustrator 19.0.0, SVG Export Plug-In . SVG Version: 6.00 Build 0)  -->
<svg version="1.1" id="Layer_1" xmlns="http://www.w3.org/2000/svg" xmlns:xlink="http://www.w3.org/1999/xlink" x="0px" y="0px"
	 viewBox="0 0 290.626 290.626" style="enable-background:new 0 0 290.626 290.626;" xml:space="preserve">
<g>
	<g>
		<path style="fill:#fff;" d="M145.314,0C80.696,0,28.126,52.57,28.126,117.188h9.375c0-18.089,14.719-32.813,32.812-32.813
			s32.812,14.723,32.812,32.813h9.375c0-16.495,12.248-30.15,28.125-32.438v60.563H56.251v145.313h178.125V145.313h-84.375V84.75
			c15.877,2.288,28.125,15.942,28.125,32.438h9.375c0-18.089,14.719-32.813,32.812-32.813s32.812,14.723,32.812,32.813h9.375
			C262.501,52.57,209.931,0,145.314,0z M225.001,281.25H65.626V154.688h159.375V281.25z M70.314,75
			c-10.809,0-20.681,4.083-28.153,10.795c12.422-40.739,48.384-71.25,91.955-75.773c-17.231,20.705-27.572,46.387-29.377,73.472
			l-0.577,8.639C96.47,81.764,84.184,75,70.314,75z M145.314,75c-12.572,0-23.836,5.559-31.57,14.311l0.347-5.198
			C115.9,57.033,127,31.529,145.314,11.63c18.314,19.898,29.414,45.398,31.223,72.483l0.347,5.198
			C169.149,80.559,157.885,75,145.314,75z M220.313,75c-13.87,0-26.156,6.764-33.848,17.133l-0.577-8.639
			c-1.805-27.084-12.145-52.767-29.376-73.472c43.57,4.523,79.528,35.034,91.955,75.773C240.995,79.083,231.123,75,220.313,75z"/>
		<g>
			<rect x="126.564" y="145.313" style="fill:#00b15a;" width="37.5" height="70.313"/>
		</g>
	</g>
</g>
<g>
</g>
<g>
</g>
<g>
</g>
<g>
</g>
<g>
</g>
<g>
</g>
<g>
</g>
<g>
</g>
<g>
</g>
<g>
</g>
<g>
</g>
<g>
</g>
<g>
</g>
<g>
</g>
<g>
</g>
</svg>
