<?xml version="1.0" encoding="iso-8859-1"?>
<!-- Generator: Adobe Illustrator 19.0.0, SVG Export Plug-In . SVG Version: 6.00 Build 0)  -->
<svg version="1.1" id="Layer_1" xmlns="http://www.w3.org/2000/svg" xmlns:xlink="http://www.w3.org/1999/xlink" x="0px" y="0px"
	 viewBox="0 0 290.626 290.626" style="enable-background:new 0 0 290.626 290.626;" xml:space="preserve">
<g>
	<g>
		<circle style="fill:#00b15a;" cx="133.595" cy="77.344" r="44.531"/>
		<path style="fill:#fff;" d="M276.563,0h-262.5C6.311,0,0.001,6.309,0.001,14.063V150c0,7.753,6.309,14.063,14.062,14.063
			h50.184c-0.609,0.488-1.252,0.933-1.814,1.491c-3.989,3.984-6.183,9.281-6.183,14.916s2.194,10.931,6.178,14.916l50.072,50.067
			v45.173h9.375V241.57l-52.819-52.814c-2.212-2.217-3.431-5.156-3.431-8.288s1.219-6.07,3.431-8.288c4.43-4.43,12.141-4.43,16.57,0
			l36.248,36.244V82.031c0-6.464,5.255-11.719,11.719-11.719s11.719,5.255,11.719,11.719v56.25V150h9.375v-11.719
			c0-6.464,5.255-11.719,11.719-11.719c6.464,0,11.719,5.255,11.719,11.719v4.688V150h9.375v-7.031
			c0-6.464,5.255-11.719,11.719-11.719s11.719,5.255,11.719,11.719v9.375v2.344h9.375v-2.344c0-6.464,5.255-11.719,11.719-11.719
			c6.464,0,11.719,5.255,11.719,11.719v7.031v93.75c0,7.753-6.309,14.063-14.062,14.063h-4.688v23.438h9.375V276.09
			c10.683-2.18,18.75-11.644,18.75-22.964v-89.063h23.437c7.753,0,14.062-6.309,14.062-14.063V14.063
			C290.626,6.309,284.316,0,276.563,0z M9.376,150V82.031V14.063c0-2.588,2.1-4.688,4.687-4.688h28.125v72.656v72.656H14.064
			C11.476,154.688,9.376,152.587,9.376,150z M92.26,165.553c-0.563-0.563-1.205-1.003-1.814-1.491h22.055v21.731L92.26,165.553z
			 M232.032,131.25c-4.941,0-9.431,1.777-13.031,4.636c-2.925-8.142-10.645-14.011-19.781-14.011
			c-5.677,0-10.814,2.278-14.611,5.939c-3.647-6.319-10.397-10.627-18.202-10.627c-4.336,0-8.362,1.322-11.719,3.572V82.031
			c0-11.63-9.464-21.094-21.094-21.094s-21.093,9.465-21.093,21.094v72.656H51.564V9.375h192.187v125.447
			C240.395,132.572,236.368,131.25,232.032,131.25z M281.251,150c0,2.587-2.1,4.688-4.687,4.688h-23.437v-2.344V9.375h23.437
			c2.587,0,4.687,2.1,4.687,4.688V150z"/>
		<rect x="262.501" y="93.75" style="fill:#fff;" width="9.375" height="9.375"/>
		<rect x="262.501" y="60.938" style="fill:#fff;" width="9.375" height="28.125"/>
		<path style="fill:#fff;" d="M25.782,98.438c9.047,0,16.406-7.359,16.406-16.406s-7.359-16.406-16.406-16.406
			S9.376,72.984,9.376,82.031S16.736,98.438,25.782,98.438z M25.782,75c3.877,0,7.031,3.155,7.031,7.031s-3.155,7.031-7.031,7.031
			s-7.031-3.155-7.031-7.031S21.906,75,25.782,75z"/>
	</g>
</g>
<g>
</g>
<g>
</g>
<g>
</g>
<g>
</g>
<g>
</g>
<g>
</g>
<g>
</g>
<g>
</g>
<g>
</g>
<g>
</g>
<g>
</g>
<g>
</g>
<g>
</g>
<g>
</g>
<g>
</g>
</svg>
