<?xml version="1.0" encoding="iso-8859-1"?>
<!-- Generator: Adobe Illustrator 19.0.0, SVG Export Plug-In . SVG Version: 6.00 Build 0)  -->
<svg version="1.1" id="Layer_1" xmlns="http://www.w3.org/2000/svg" xmlns:xlink="http://www.w3.org/1999/xlink" x="0px" y="0px"
	 viewBox="0 0 290.625 290.625" style="enable-background:new 0 0 290.625 290.625;" xml:space="preserve">
<g>
	<g>
		<circle style="fill:#00b15a;" cx="23.438" cy="23.438" r="4.688"/>
		<circle style="fill:#00b15a;" cx="42.188" cy="23.438" r="4.688"/>
		<circle style="fill:#00b15a;" cx="60.938" cy="23.438" r="4.688"/>
		<rect x="23.438" y="60.938" style="fill:#00b15a;" width="150" height="84.375"/>
		<path style="fill:#fff;" d="M271.875,66.098V0H0v215.625h192.187v25.781c0,27.141,22.078,49.219,49.219,49.219
			s49.219-22.078,49.219-49.219V89.063C290.625,77.747,282.558,68.278,271.875,66.098z M262.5,37.5h-28.125V9.375H262.5V37.5z
			 M225,9.375V37.5H9.375V9.375H225z M192.187,89.063V206.25H9.375V46.875H262.5v18.75h-46.875
			C202.702,65.625,192.187,76.139,192.187,89.063z M281.25,241.406c0,21.97-17.873,39.844-39.844,39.844
			s-39.844-17.873-39.844-39.844V89.063c0-7.753,6.309-14.063,14.062-14.063h51.562c7.753,0,14.062,6.309,14.062,14.063v152.343
			H281.25z"/>
		<circle style="fill:#fff;" cx="215.625" cy="89.063" r="4.688"/>
		<rect x="210.937" y="103.125" style="fill:#fff;" width="14.062" height="9.375"/>
		<rect x="234.375" y="103.125" style="fill:#fff;" width="14.062" height="9.375"/>
		<rect x="257.812" y="103.125" style="fill:#fff;" width="14.062" height="9.375"/>
		<rect x="210.937" y="121.875" style="fill:#fff;" width="14.062" height="9.375"/>
		<rect x="234.375" y="121.875" style="fill:#fff;" width="14.062" height="9.375"/>
		<rect x="257.812" y="121.875" style="fill:#fff;" width="14.062" height="9.375"/>
		<rect x="210.937" y="140.625" style="fill:#fff;" width="14.062" height="9.375"/>
		<rect x="234.375" y="140.625" style="fill:#fff;" width="14.062" height="9.375"/>
		<rect x="257.812" y="140.625" style="fill:#fff;" width="14.062" height="9.375"/>
		<rect x="210.937" y="159.375" style="fill:#fff;" width="14.062" height="9.375"/>
		<rect x="234.375" y="159.375" style="fill:#fff;" width="14.062" height="9.375"/>
		<rect x="257.812" y="159.375" style="fill:#fff;" width="14.062" height="9.375"/>
		<rect x="42.188" y="79.688" style="fill:#fff;" width="112.5" height="9.375"/>
	</g>
</g>
<g>
</g>
<g>
</g>
<g>
</g>
<g>
</g>
<g>
</g>
<g>
</g>
<g>
</g>
<g>
</g>
<g>
</g>
<g>
</g>
<g>
</g>
<g>
</g>
<g>
</g>
<g>
</g>
<g>
</g>
</svg>
