<?xml version="1.0" encoding="iso-8859-1"?>
<!-- Generator: Adobe Illustrator 19.0.0, SVG Export Plug-In . SVG Version: 6.00 Build 0)  -->
<svg version="1.1" id="Capa_1" xmlns="http://www.w3.org/2000/svg" xmlns:xlink="http://www.w3.org/1999/xlink" x="0px" y="0px"
	 viewBox="0 0 496.008 496.008" style="enable-background:new 0 0 496.008 496.008;" xml:space="preserve">
<g>
	<path style="fill:#00b15a;" d="M248,120.004h-80v96h80c26.512,0,48-21.488,48-48S274.512,120.004,248,120.004z"/>
	<path style="fill:#00b15a;" d="M440,280.004h-32c-8.84,0-16,7.16-16,16v144h64v-144C456,287.164,448.84,280.004,440,280.004z"/>
</g>
<path style="fill:#fff;" d="M454.528,214.332c-6.344-3.176-11.92-7.488-16.576-12.816l-32.136-36.712
	c-8.6-9.84-20.072-16.48-32.608-19.272l39.848-66.424C414.984,75.916,416,72.26,416,68.532c0-11.32-9.208-20.528-20.528-20.528
	h-3.728c-7.832,0-14.872,4.352-18.36,11.352C366.176,73.772,353.96,85.004,339,90.988l-11.36,4.544l-4.448-5.928
	c-4.496-6.016-11.672-9.6-19.192-9.6H184c-13.232,0-24,10.768-24,24H99.312l-16-16H32v48h-8c-13.232,0-24,10.768-24,24v32
	c0,13.232,10.768,24,24,24h136v16c0,13.232,10.768,24,24,24h24v32c0,35.288,28.712,64,64,64h80v96h144l0.008-167.32
	C496.008,252.54,480.336,227.22,454.528,214.332z M344.936,105.844c18.608-7.448,33.792-21.416,42.768-39.344
	c0.768-1.544,2.312-2.496,4.04-2.496h3.728c2.496,0,4.528,2.032,4.528,4.528c0,0.816-0.216,1.616-0.648,2.328l-40.088,66.824
	l-21.672-28.896L344.936,105.844z M288,168.004c0,2.736-0.28,5.416-0.808,8H208v16h71.792c-7.312,9.656-18.784,16-31.792,16h-72v-16
	h16v-16h-16v-16h111.192C287.72,162.588,288,165.268,288,168.004z M176,144.004v-16h72c13.016,0,24.488,6.344,31.792,16H176z
	 M48,104.004h28.688l16,16H160v16H48V104.004z M24,200.004c-4.416,0-8-3.584-8-8v-32c0-4.416,3.584-8,8-8h136v48H24z M176,232.004
	v-8h72c30.872,0,56-25.128,56-56s-25.128-56-56-56h-72v-8c0-4.416,3.584-8,8-8h120c2.504,0,4.896,1.192,6.4,3.192l45.6,60.808h4
	c4.864,0,9.648,0.792,14.168,2.296l-11.832,71.024c-0.64,3.864-3.96,6.68-7.888,6.68H328H184
	C179.584,240.004,176,236.42,176,232.004z M256,256.004h39.896c-0.536,11.136-7.76,20.848-18.432,24.416l5.064,15.168
	c17.208-5.736,28.824-21.552,29.368-39.584H328v48h-48c-13.232,0-24-10.768-24-24V256.004z M272,336.004c-26.472,0-48-21.528-48-48
	v-32h16v24c0,22.056,17.944,40,40,40h48h8c8.816,0,16,7.176,16,16H272z M400,355.316l24-24l24,24v1.376l-24,24l-24-24V355.316z
	 M448,307.316v25.376l-12.688-12.688L448,307.316z M448,379.316v25.376l-12.688-12.688L448,379.316z M424,308.692l-19.68-19.68
	c1.12-0.592,2.328-1.008,3.68-1.008h32c1.352,0,2.56,0.416,3.68,1.008L424,308.692z M400,307.316l12.688,12.688L400,332.692V307.316
	z M400,379.316l12.688,12.688L400,404.692V379.316z M400,427.316l24-24l24,24v4.688h-48V427.316z M480,432.004h-16v-136
	c0-13.232-10.768-24-24-24h-32c-13.232,0-24,10.768-24,24v136h-16v-96c0-14.88-10.208-27.432-24-30.984v-49.016h10.448
	c11.792,0,21.744-8.44,23.672-20.056l10.888-65.312c1.696,1.432,3.288,3,4.776,4.696l32.128,36.712
	c6.032,6.896,13.248,12.48,22.04,16.88c19.784,9.88,32.064,29.72,32.064,51.76L480,432.004z"/>
<g>
</g>
<g>
</g>
<g>
</g>
<g>
</g>
<g>
</g>
<g>
</g>
<g>
</g>
<g>
</g>
<g>
</g>
<g>
</g>
<g>
</g>
<g>
</g>
<g>
</g>
<g>
</g>
<g>
</g>
</svg>
