<?xml version="1.0" encoding="iso-8859-1"?>
<!-- Generator: Adobe Illustrator 19.0.0, SVG Export Plug-In . SVG Version: 6.00 Build 0)  -->
<svg version="1.1" id="Layer_1" xmlns="http://www.w3.org/2000/svg" xmlns:xlink="http://www.w3.org/1999/xlink" x="0px" y="0px"
	 viewBox="0 0 290.625 290.625" style="enable-background:new 0 0 290.625 290.625;" xml:space="preserve">
<g>
	<g>
		<path style="fill:#00b15a;" d="M206.25,2.344H0v75h206.25c0,0,18.75-12.933,18.75-37.5S206.25,2.344,206.25,2.344z
			 M196.875,49.219c-5.18,0-9.375-4.195-9.375-9.375s4.195-9.375,9.375-9.375s9.375,4.195,9.375,9.375
			S202.054,49.219,196.875,49.219z"/>
		<path style="fill:#fff;" d="M196.875,53.906c7.753,0,14.062-6.309,14.062-14.063s-6.309-14.063-14.062-14.063
			s-14.062,6.309-14.062,14.063S189.122,53.906,196.875,53.906z M196.875,35.156c2.583,0,4.687,2.105,4.687,4.688
			s-2.105,4.688-4.687,4.688c-2.583,0-4.688-2.105-4.688-4.688C192.187,37.261,194.292,35.156,196.875,35.156z"/>
		<path style="fill:#fff;" d="M257.812,180.469H224.7l-1.875-28.125h9.206c32.311,0,58.594-26.283,58.594-58.594
			s-26.283-58.594-58.594-58.594H225v9.375h7.031c27.141,0,49.219,22.078,49.219,49.219s-22.078,49.219-49.219,49.219h-9.834
			l-2.189-32.813H89.362l-4.687,70.313H32.812C14.719,180.469,0,195.187,0,213.281v51.563h35.573
			c5.578,13.725,19.036,23.438,34.739,23.438s29.161-9.712,34.739-23.438h80.522c5.578,13.725,19.036,23.438,34.739,23.438
			s29.161-9.712,34.739-23.438h35.573v-51.563C290.625,195.187,275.906,180.469,257.812,180.469z M70.312,278.906
			c-15.511,0-28.125-12.614-28.125-28.125s12.614-28.125,28.125-28.125s28.125,12.614,28.125,28.125S85.823,278.906,70.312,278.906z
			 M220.312,278.906c-15.511,0-28.125-12.614-28.125-28.125s12.614-28.125,28.125-28.125s28.125,12.614,28.125,28.125
			S235.823,278.906,220.312,278.906z M281.25,255.469h-23.761c0.192-1.538,0.323-3.098,0.323-4.688c0-20.677-16.823-37.5-37.5-37.5
			s-37.5,16.823-37.5,37.5c0,1.589,0.131,3.15,0.323,4.688h-75.647c0.192-1.538,0.323-3.098,0.323-4.688
			c0-20.677-16.823-37.5-37.5-37.5s-37.5,16.823-37.5,37.5c0,1.589,0.131,3.15,0.323,4.688H9.375v-42.188
			c0-12.923,10.514-23.438,23.437-23.438H93.45l4.687-70.313h113.104l4.687,70.313h41.883c12.923,0,23.437,10.514,23.437,23.438
			v42.188H281.25z"/>
		<path style="fill:#fff;" d="M103.125,189.844H206.25v-65.625H103.125V189.844z M112.5,133.594h84.375v46.875H112.5V133.594z"/>
		<path style="fill:#fff;" d="M35.156,67.968h4.687c9.047,0,16.406-7.359,16.406-16.406S48.89,35.156,39.843,35.156h-4.687
			c-3.877,0-7.031-3.155-7.031-7.031s3.155-7.031,7.031-7.031h4.687c3.877,0,7.031,3.155,7.031,7.031v2.344h9.375v-2.344
			c0-9.047-7.359-16.406-16.406-16.406h-4.687c-9.047,0-16.406,7.359-16.406,16.406s7.359,16.406,16.406,16.406h4.687
			c3.877,0,7.031,3.155,7.031,7.031s-3.155,7.031-7.031,7.031h-4.687c-3.877,0-7.031-3.155-7.031-7.031v-2.344H18.75v2.344
			C18.75,60.609,26.109,67.968,35.156,67.968z"/>
		<path style="fill:#fff;" d="M70.312,49.219h18.75v18.75h9.375v-37.5c0-10.341-8.409-18.75-18.75-18.75
			s-18.75,8.409-18.75,18.75v37.5h9.375V49.219z M79.687,21.094c5.17,0,9.375,4.205,9.375,9.375v9.375h-18.75v-9.375
			C70.312,25.298,74.517,21.094,79.687,21.094z"/>
		<polygon style="fill:#fff;" points="135.937,58.594 117.187,58.594 117.187,11.719 107.812,11.719 107.812,67.968 
			135.937,67.968 		"/>
		<polygon style="fill:#fff;" points="173.437,58.594 154.687,58.594 154.687,44.531 173.437,44.531 173.437,35.156 
			154.687,35.156 154.687,21.094 173.437,21.094 173.437,11.719 145.312,11.719 145.312,67.968 173.437,67.968 		"/>
	</g>
</g>
<g>
</g>
<g>
</g>
<g>
</g>
<g>
</g>
<g>
</g>
<g>
</g>
<g>
</g>
<g>
</g>
<g>
</g>
<g>
</g>
<g>
</g>
<g>
</g>
<g>
</g>
<g>
</g>
<g>
</g>
</svg>
