<?xml version="1.0" encoding="iso-8859-1"?>
<!-- Generator: Adobe Illustrator 19.0.0, SVG Export Plug-In . SVG Version: 6.00 Build 0)  -->
<svg version="1.1" id="Layer_1" xmlns="http://www.w3.org/2000/svg" xmlns:xlink="http://www.w3.org/1999/xlink" x="0px" y="0px"
	 viewBox="0 0 290.625 290.625" style="enable-background:new 0 0 290.625 290.625;" xml:space="preserve">
<g>
	<g>
		<polygon style="fill:#00b15a;" points="28.125,89.063 28.125,0 290.625,0 290.625,168.75 65.625,168.75 		"/>
		<path style="fill:#fff;" d="M271.875,140.625H59.41l-6.042-14.063h45.07V79.688h-37.5V51.563h28.125v18.75h9.375V42.188H51.563
			v46.875h37.5v28.125H60.938v-18.75h-9.375v23.916L35.981,86.077c-4.073-9.492-15.112-13.908-24.633-9.834
			C1.861,80.325-2.55,91.373,1.524,100.87L37.8,185.33c0.005,0.68,0.131,1.331,0.202,1.992l-21.248,49.477
			C6.9,241.177,0,251.039,0,262.5c0,15.511,12.614,28.125,28.125,28.125S56.25,278.011,56.25,262.5c0-5.077-1.373-9.83-3.736-13.945
			l6.22-14.48l6.22,14.48c-2.362,4.116-3.736,8.869-3.736,13.945c0,15.511,12.614,28.125,28.125,28.125s28.125-12.614,28.125-28.125
			c0-11.461-6.9-21.323-16.753-25.702L79.696,187.86c0.117-0.895,0.272-1.781,0.272-2.705c0-0.145-0.042-0.281-0.042-0.431
			l6.862-15.975H76.584l-1.383,3.216c-1.162-1.439-2.48-2.737-3.975-3.83L63.441,150h208.434V140.625z M10.139,97.167
			c-2.039-4.748,0.164-10.27,4.912-12.314c4.758-2.048,10.27,0.169,12.314,4.917l31.927,74.334
			c-0.141-0.005-0.272-0.042-0.413-0.042c-6.722,0-12.647,3.22-16.514,8.128L10.139,97.167z M28.125,281.25
			c-10.341,0-18.75-8.409-18.75-18.75s8.409-18.75,18.75-18.75s18.75,8.409,18.75,18.75S38.466,281.25,28.125,281.25z M45.727,240.6
			c-4.823-3.886-10.941-6.225-17.602-6.225c-0.042,0-0.084,0.005-0.131,0.005l15.159-35.302c0.352,0.398,0.68,0.816,1.059,1.186
			l9.417,21.923L45.727,240.6z M108.099,262.5c0,10.341-8.409,18.75-18.75,18.75s-18.75-8.409-18.75-18.75s8.409-18.75,18.75-18.75
			S108.099,252.159,108.099,262.5z M74.41,199.308l15.066,35.072c-0.042,0-0.084-0.005-0.131-0.005
			c-6.661,0-12.783,2.339-17.602,6.225l-14.841-34.547c0.661,0.061,1.298,0.197,1.978,0.197
			C65.044,206.25,70.552,203.541,74.41,199.308z M70.599,185.156c0,6.464-5.255,11.719-11.719,11.719s-11.719-5.255-11.719-11.719
			s5.255-11.719,11.719-11.719S70.599,178.692,70.599,185.156z"/>
		<rect x="46.875" y="18.75" style="fill:#fff;" width="206.25" height="9.375"/>
		<rect x="262.5" y="18.75" style="fill:#fff;" width="9.375" height="9.375"/>
		<path style="fill:#fff;" d="M154.687,126.563V42.188h-46.875v84.375h9.375v-37.5h28.125v37.5H154.687z M117.188,79.688V51.563
			h28.125v28.125H117.188z"/>
		<polygon style="fill:#fff;" points="164.062,42.188 164.062,126.563 210.937,126.563 210.937,117.188 173.437,117.188 
			173.437,42.188 		"/>
		<polygon style="fill:#fff;" points="267.187,51.563 267.187,42.188 220.312,42.188 220.312,126.563 267.187,126.563 
			267.187,117.188 229.687,117.188 229.687,89.063 267.187,89.063 267.187,79.688 229.687,79.688 229.687,51.563 		"/>
	</g>
</g>
<g>
</g>
<g>
</g>
<g>
</g>
<g>
</g>
<g>
</g>
<g>
</g>
<g>
</g>
<g>
</g>
<g>
</g>
<g>
</g>
<g>
</g>
<g>
</g>
<g>
</g>
<g>
</g>
<g>
</g>
</svg>
