<?xml version="1.0" encoding="iso-8859-1"?>
<!-- Generator: Adobe Illustrator 19.0.0, SVG Export Plug-In . SVG Version: 6.00 Build 0)  -->
<svg xmlns="http://www.w3.org/2000/svg" xmlns:xlink="http://www.w3.org/1999/xlink" version="1.1" id="Capa_1" x="0px" y="0px" viewBox="0 0 496 496" style="enable-background:new 0 0 496 496;" xml:space="preserve">
<g>
	<polygon style="fill:#00b15a;" points="328,488 264,488 248,424 232,488 168,488 168,320 328,320  "/>
	<path style="fill:#00b15a;" d="M144,80c0,0-20.432-27.24-23.592-62.872C119.976,12.24,123.832,8,128.736,8l0,0   c3.952,0,7.104,2.84,8.144,6.656C142.008,33.504,168,40,168,40v48L144,80z"/>
	<path style="fill:#00b15a;" d="M352,80c0,0,20.432-27.24,23.592-62.872C376.024,12.24,372.168,8,367.264,8l0,0   c-3.952,0-7.104,2.84-8.144,6.656C353.992,33.504,328,40,328,40v48L352,80z"/>
</g>
<g>
	<path style="fill:#fff;" d="M396.848,101.408L411.824,64h-16.048C375.36,64,354.944,68.056,336,75.696V64   c0-35.288-28.712-64-64-64h-48c-35.288,0-64,28.712-64,64v11.696C141.056,68.056,120.64,64,100.224,64H84.176l14.968,37.408   c4.16,10.384,11.264,19.16,20.568,25.352c5.216,3.48,10.952,5.896,16.936,7.416c-5.44,6.888-8.648,15.536-8.648,24.816   c0,8.688,2.904,17.104,8.152,24c-5.24,6.896-8.152,15.304-8.152,24c0,5.96,1.4,11.568,3.752,16.656   C119.288,235.248,112,251.488,112,268.84V336c0,17.648,14.352,32,32,32c5.856,0,11.272-1.696,16-4.448V496h78.416L248,452.872   L257.584,496H336V363.552c4.728,2.752,10.144,4.448,16,4.448c17.648,0,32-14.352,32-32v-67.16c0-17.352-7.288-33.592-19.752-45.2   c2.352-5.08,3.752-10.688,3.752-16.648c0-8.696-2.904-17.104-8.152-24c5.24-6.896,8.152-15.312,8.152-24   c0-9.272-3.208-17.928-8.656-24.816c5.984-1.528,11.72-3.936,16.936-7.416C385.584,120.56,392.696,111.792,396.848,101.408z    M343.696,189.008c5.36,4.68,8.304,11.064,8.304,17.984c0,13.232-10.768,24-24,24c-11.72,0-21.464-8.448-23.552-19.568   C323.712,195.264,336,171.048,336,144v-7.56c9.496,3.36,16,12.304,16,22.552c0,6.912-2.952,13.296-8.304,17.976l-6.888,6.024   L343.696,189.008z M144,206.992c0-6.912,2.944-13.296,8.304-17.976l6.888-6.016l-6.888-6.024   c-5.352-4.688-8.304-11.08-8.304-17.984c0-10.24,6.504-19.192,16-22.552V144c0,27.048,12.288,51.264,31.552,67.424   c-2.088,11.12-11.832,19.568-23.552,19.568C154.768,230.992,144,220.224,144,206.992z M248,98.48   c8.608,12.96,23.312,21.52,40,21.52c12.304,0,23.496-4.688,32-12.32V144c0,20.296-8.472,38.624-22.032,51.728l-14.44-24.08   C279.2,164.464,271.312,160,262.936,160h-29.872c-8.376,0-16.264,4.464-20.584,11.656l-14.44,24.072   C184.472,182.624,176,164.296,176,144v-36.32c8.504,7.632,19.696,12.32,32,12.32C224.688,120,239.392,111.432,248,98.48z    M226.192,179.888c1.44-2.4,4.072-3.888,6.864-3.888h29.872c2.8,0,5.432,1.496,6.864,3.888l15.384,25.648   C274.32,212.128,261.616,216,248,216s-26.32-3.872-37.192-10.464L226.192,179.888z M176,64c0-26.472,21.528-48,48-48h48   c26.472,0,48,21.528,48,48v8c0,17.648-14.352,32-32,32s-32-14.352-32-32h-16c0,17.648-14.352,32-32,32s-32-14.352-32-32V64z    M114.008,95.464l-6.112-15.256c17.976,0.976,35.728,5.52,52.104,13.016V120h-9.76c-7.736,0-15.216-2.264-21.648-6.552   C121.992,109.048,116.952,102.832,114.008,95.464z M368,336c0,8.824-7.176,16-16,16s-16-7.176-16-16v-8v-64h-16v56h-16v16h16v144   h-49.584L248,379.128L225.584,480H176V336h112v-16H176v-56h-16v64v8c0,8.824-7.176,16-16,16s-16-7.176-16-16v-67.16   c0-12.248,4.912-23.744,13.344-32.248c7.088,6.392,16.376,10.392,26.656,10.392c17.136,0,31.672-10.888,37.36-26.072   C218,227.96,232.528,232,248,232s30-4.04,42.64-11.08c5.68,15.176,20.216,26.072,37.36,26.072c10.272,0,19.56-4,26.656-10.392   c8.44,8.504,13.344,20,13.344,32.248V336z M367.408,113.448c-6.432,4.288-13.912,6.552-21.648,6.552H336V93.224   c16.368-7.496,34.12-12.04,52.104-13.016l-6.112,15.264C379.048,102.832,374.008,109.048,367.408,113.448z"/>
	<rect x="280" y="128" style="fill:#fff;" width="16" height="16"/>
	<rect x="200" y="128" style="fill:#fff;" width="16" height="16"/>
	<rect x="240" y="192" style="fill:#fff;" width="16" height="16"/>
	<rect x="288" y="272" style="fill:#fff;" width="16" height="16"/>
	<rect x="192" y="272" style="fill:#fff;" width="16" height="16"/>
	<rect x="192" y="352" style="fill:#fff;" width="16" height="24"/>
	<rect x="208" y="392" style="fill:#fff;" width="16" height="24"/>
	<rect x="192" y="432" style="fill:#fff;" width="16" height="24"/>
	<rect x="288" y="352" style="fill:#fff;" width="16" height="24"/>
	<rect x="272" y="392" style="fill:#fff;" width="16" height="24"/>
	<rect x="288" y="432" style="fill:#fff;" width="16" height="24"/>
	<rect x="240" y="352" style="fill:#fff;" width="16" height="16"/>
</g>
<g>
</g>
<g>
</g>
<g>
</g>
<g>
</g>
<g>
</g>
<g>
</g>
<g>
</g>
<g>
</g>
<g>
</g>
<g>
</g>
<g>
</g>
<g>
</g>
<g>
</g>
<g>
</g>
<g>
</g>
</svg>
