<?xml version="1.0" encoding="iso-8859-1"?>
<!-- Generator: Adobe Illustrator 19.0.0, SVG Export Plug-In . SVG Version: 6.00 Build 0)  -->
<svg version="1.1" id="Layer_1" xmlns="http://www.w3.org/2000/svg" xmlns:xlink="http://www.w3.org/1999/xlink" x="0px" y="0px"
	 viewBox="0 0 292.633 292.633" style="enable-background:new 0 0 292.633 292.633;" xml:space="preserve">
<g>
	<g>
		<circle style="fill:#00b15a;" cx="114.506" cy="136.942" r="60.938"/>
		<path style="fill:#fff;" d="M231.694,169.755c-9.778,0-18.994,2.372-27.187,6.483c5.414-12.314,8.25-25.594,8.25-39.295
			c0-21.225-6.82-40.852-18.291-56.944l6.122-6.122l8.288,8.287l19.884-19.884l-39.773-39.773L169.098,42.39l8.288,8.287l-7.2,6.122
			c-11.845-8.447-22.866-14.292-41.616-16.814V29.129h14.063V1.004h-56.25v28.125h9.375v10.856
			c-14.063,2.513-27.53,8.325-39.356,16.73l-5.503-6.042l8.559-8.287l-19.75-19.885L0,62.274l19.922,19.884l8.302-8.287l6.023,6.014
			c-11.522,16.12-18.37,35.784-18.37,57.056c0,45.412,31.416,84.938,75.192,95.559v2.878h9.375v18.75h4.688v9.375h-9.375v28.125
			h121.875v-1.702c4.523,1.073,9.216,1.702,14.063,1.702c33.6,0,60.938-27.337,60.938-60.937S265.294,169.755,231.694,169.755z
			 M152.006,263.504v-9.375h9.375v9.375H152.006z M147.319,216.63v9.375h-9.375v-9.375H147.319z M156.694,226.005v-9.375h9.375
			v9.375H156.694z M156.694,235.38v9.375h-9.375v-9.375H156.694z M166.069,244.755v-9.375h4.927
			c0.244,3.202,0.741,6.328,1.467,9.375H166.069z M161.381,207.255v-9.375h9.375v9.375H161.381z M152.006,207.255h-9.375v-9.375
			h9.375V207.255z M133.256,207.255h-9.375v-9.375h9.375V207.255z M114.506,207.255h-9.375v-9.375h9.375V207.255z M128.569,216.63
			v9.375h-9.375v-9.375H128.569z M137.944,235.38v9.375h-9.375v-9.375H137.944z M142.631,254.13v9.375h-9.375v-9.375L142.631,254.13
			L142.631,254.13z M133.256,272.879v9.375h-9.375v-9.375H133.256z M142.631,272.879h9.375v9.375h-9.375V272.879z M161.381,272.879
			h9.375v9.375h-9.375V272.879z M170.756,263.504v-9.375h4.702c1.373,3.286,3.066,6.408,4.969,9.375H170.756z M180.131,197.88h0.295
			c-0.103,0.159-0.197,0.323-0.295,0.488V197.88z M188.986,35.757l26.517,26.517l-6.628,6.628l-26.517-26.517L188.986,35.757z
			 M184.017,57.301l9.942,9.942l-5.334,5.334c-3.075-3.548-6.398-6.867-9.942-9.947L184.017,57.301z M95.756,19.754v-9.375h37.5
			v9.375h-2.531H97.912H95.756z M105.131,38.504v-9.375h14.063v9.375H105.131z M13.322,62.274l26.517-26.517l6.628,6.628
			L19.95,68.903L13.322,62.274z M34.866,67.248l9.942-9.942l5.241,5.241c-3.553,3.07-6.872,6.394-9.952,9.933L34.866,67.248z
			 M25.256,136.942c0-49.111,39.952-89.063,89.062-89.063s89.063,39.952,89.063,89.063c0,18.605-5.78,36.37-16.641,51.563H95.756
			v18.75h-4.688v15.6C52.622,212.477,25.256,177.268,25.256,136.942z M100.444,216.63h9.375v9.375h-9.375V216.63z M119.194,235.38
			v9.375h-9.375v-9.375H119.194z M114.506,254.13h9.375v9.375h-9.375V254.13z M105.131,272.879h9.375v9.375h-9.375V272.879z
			 M180.131,282.254v-9.375h7.692c3.441,3.581,7.322,6.717,11.545,9.375H180.131z M231.694,282.254
			c-28.43,0-51.563-23.133-51.563-51.562s23.133-51.563,51.563-51.563s51.563,23.133,51.563,51.563S260.123,282.254,231.694,282.254
			z"/>
		<path style="fill:#fff;" d="M243.412,193.192h-7.031v-9.375h-9.375v9.375h-7.031c-11.63,0-21.094,9.464-21.094,21.094
			s9.464,21.094,21.094,21.094h23.438c6.459,0,11.719,5.255,11.719,11.719c0,6.464-5.259,11.719-11.719,11.719h-23.438
			c-6.459,0-11.719-5.255-11.719-11.719v-2.344h-9.375v2.344c0,11.63,9.464,21.094,21.094,21.094h7.031v9.375h9.375v-9.375h7.031
			c11.63,0,21.094-9.464,21.094-21.094s-9.464-21.094-21.094-21.094h-23.438c-6.459,0-11.719-5.255-11.719-11.719
			c0-6.464,5.259-11.719,11.719-11.719h23.438c6.459,0,11.719,5.255,11.719,11.719v2.344h9.375v-2.344
			C264.506,202.656,255.042,193.192,243.412,193.192z"/>
		<path style="fill:#fff;" d="M100.256,136.942c0,7.753,6.309,14.063,14.063,14.063s14.063-6.309,14.063-14.063
			c0-7.753-6.309-14.063-14.063-14.063c-2.02,0-3.933,0.445-5.667,1.214L75.637,86.954l-7.008,6.225l33.23,37.383
			C100.87,132.488,100.256,134.635,100.256,136.942z M119.006,136.942c0,2.587-2.105,4.688-4.688,4.688s-4.688-2.1-4.688-4.688
			s2.105-4.688,4.688-4.688C116.902,132.255,119.006,134.354,119.006,136.942z"/>
	</g>
</g>
<g>
</g>
<g>
</g>
<g>
</g>
<g>
</g>
<g>
</g>
<g>
</g>
<g>
</g>
<g>
</g>
<g>
</g>
<g>
</g>
<g>
</g>
<g>
</g>
<g>
</g>
<g>
</g>
<g>
</g>
</svg>
