<?xml version="1.0" encoding="iso-8859-1"?>
<!-- Generator: Adobe Illustrator 19.0.0, SVG Export Plug-In . SVG Version: 6.00 Build 0)  -->
<svg version="1.1" id="Capa_1" xmlns="http://www.w3.org/2000/svg" xmlns:xlink="http://www.w3.org/1999/xlink" x="0px" y="0px"
	 viewBox="0 0 496 496" style="enable-background:new 0 0 496 496;" xml:space="preserve">
<g>
	<path style="fill:#00b15a;" d="M72,192l-51.208,38.4C12.736,236.448,8,245.928,8,255.992V256h480
		c0-10.072-4.744-19.552-12.808-25.592L424,192.04l-0.016-0.04H72L72,192z"/>
	<rect x="272" y="344" style="fill:#00b15a;" width="144" height="40"/>
</g>
<g>
	<path style="fill:#fff;" d="M479.992,224.008l-49.016-36.736l-2.872-10.368C410.12,112.16,358.768,63.168,295.92,46.368
		C295.048,20.656,273.92,0,248,0s-47.048,20.656-47.92,46.368C137.224,63.16,85.872,112.152,67.888,176.896l-2.864,10.344
		L16,224.008C5.984,231.52,0,243.48,0,256v8h496v-8C496,243.48,490.016,231.504,479.992,224.008z M412.68,181.184l0.792,2.832
		l-77.752-0.008c-0.264-5.776-0.704-11.536-1.52-17.168l-15.832,2.296c0.712,4.88,1.104,9.864,1.352,14.864l-143.304-0.008
		c3.72-72.976,56.424-115.624,71.6-126.376c12.976,9.12,53.608,41.376,67.352,96.304l15.52-3.888
		c-11.064-44.2-37.448-74.68-56.664-91.936C339.568,68.328,394.592,116.04,412.68,181.184z M248,16
		c15.84,0,28.928,11.584,31.464,26.712C269.184,40.944,258.672,40,247.992,40c-10.672,0-21.184,0.944-31.456,2.704
		C219.072,27.584,232.16,16,248,16z M221.696,58.112c-23.88,21.4-58.728,63.12-61.496,125.888H82.528l0.784-2.832
		C101.4,116.056,156.384,68.36,221.696,58.112z M17.384,247.992c1.568-4.408,4.408-8.328,8.208-11.184L74.664,200l346.656,0.024
		l49.08,36.792c3.816,2.848,6.648,6.784,8.216,11.184L17.384,247.992z"/>
	<path style="fill:#fff;" d="M264,407.688c-44.032-3.088-72.408-31.416-102.344-61.344C129.04,313.728,95.312,280,40,280h-8v48h8
		c36.392,0,57.624,26.84,84.504,60.824C162.28,436.576,209.296,496,320,496h48c30.872,0,56-25.128,56-56V336H264V407.688z
		 M137.056,378.896C111.536,346.624,87.328,316.04,48,312.368v-16.096c44.04,3.088,72.416,31.456,102.344,61.384
		c31.008,31.008,63.056,62.952,113.656,66.04V440c0,13.912,5.128,26.624,13.552,36.424
		C204.504,463.84,168.904,419.152,137.056,378.896z M408,352v16h-16v16h16v56c0,22.056-17.944,40-40,40h-48
		c-22.056,0-40-17.944-40-40v-56h96v-16h-96v-16H408z"/>
</g>
<g>
</g>
<g>
</g>
<g>
</g>
<g>
</g>
<g>
</g>
<g>
</g>
<g>
</g>
<g>
</g>
<g>
</g>
<g>
</g>
<g>
</g>
<g>
</g>
<g>
</g>
<g>
</g>
<g>
</g>
</svg>
