<?xml version="1.0" encoding="iso-8859-1"?>
<!-- Generator: Adobe Illustrator 19.0.0, SVG Export Plug-In . SVG Version: 6.00 Build 0)  -->
<svg version="1.1" id="Layer_1" xmlns="http://www.w3.org/2000/svg" xmlns:xlink="http://www.w3.org/1999/xlink" x="0px" y="0px"
	 viewBox="0 0 290.626 290.626" style="enable-background:new 0 0 290.626 290.626;" xml:space="preserve">
<g>
	<g>
		<path style="fill:#fff;" d="M171.095,234.375H11.72v-187.5h159.375v18.75h9.375V14.063C180.47,6.309,174.16,0,166.407,0h-150
			C8.654,0,2.345,6.309,2.345,14.063v262.5c0,7.753,6.309,14.063,14.062,14.063h150c7.753,0,14.062-6.309,14.062-14.063V168.75
			h-9.375L171.095,234.375L171.095,234.375z M16.407,9.375h150c2.587,0,4.687,2.1,4.687,4.688V37.5H11.72V14.063
			C11.72,11.475,13.82,9.375,16.407,9.375z M166.407,281.25h-75h-75c-2.587,0-4.687-2.1-4.687-4.688V243.75h79.687h79.687v32.813
			C171.095,279.15,168.995,281.25,166.407,281.25z"/>
		<rect x="105.47" y="18.75" style="fill:#fff;" width="9.375" height="9.375"/>
		<rect x="67.97" y="18.75" style="fill:#fff;" width="28.125" height="9.375"/>
		<path style="fill:#fff;" d="M110.157,262.5c0-10.341-8.409-18.75-18.75-18.75s-18.75,8.409-18.75,18.75
			s8.409,18.75,18.75,18.75S110.157,272.841,110.157,262.5z M91.407,271.875c-5.17,0-9.375-4.205-9.375-9.375
			s4.205-9.375,9.375-9.375s9.375,4.205,9.375,9.375S96.578,271.875,91.407,271.875z"/>
		<path style="fill:#fff;" d="M86.72,154.688v-9.375H46.876c-9.047,0-16.406,7.359-16.406,16.406s7.359,16.406,16.406,16.406
			H86.72v-9.375H63.282v-14.063L86.72,154.688L86.72,154.688z M53.907,168.75h-7.031c-3.877,0-7.031-3.155-7.031-7.031
			s3.155-7.031,7.031-7.031h7.031V168.75z"/>
		<polygon style="fill:#fff;" points="86.72,103.125 77.345,103.125 77.345,126.563 30.47,126.563 30.47,135.938 86.72,135.938 
					"/>
		<polygon style="fill:#fff;" points="86.72,60.938 77.345,60.938 77.345,84.375 30.47,84.375 30.47,93.75 86.72,93.75 		"/>
		<path style="fill:#fff;" d="M46.876,196.875h2.344V187.5h-2.344c-9.047,0-16.406,7.359-16.406,16.406
			s7.359,16.406,16.406,16.406h23.437c9.047,0,16.406-7.359,16.406-16.406S79.36,187.5,70.314,187.5H67.97v9.375h2.344
			c3.877,0,7.031,3.155,7.031,7.031s-3.155,7.031-7.031,7.031H46.876c-3.877,0-7.031-3.155-7.031-7.031S43,196.875,46.876,196.875z"
			/>
		<path style="fill:#00b15a;" d="M232.032,60.938h-56.25c-31.064,0-56.25,25.186-56.25,56.25c0,22.692,13.462,42.192,32.812,51.084
			v28.603l35.156-23.438h44.531c31.064,0,56.25-25.186,56.25-56.25S263.096,60.938,232.032,60.938z"/>
		<path style="fill:#fff;" d="M180.47,79.688c-12.923,0-23.437,10.514-23.437,23.438h9.375c0-7.753,6.309-14.063,14.062-14.063
			s14.062,6.309,14.062,14.063v2.559l-37.5,32.813v16.191h46.875v-9.375h-37.5v-2.559l37.5-32.813v-6.816
			C203.907,90.202,193.393,79.688,180.47,79.688z"/>
		<polygon style="fill:#fff;" points="260.157,121.875 246.095,121.875 246.095,84.375 236.72,84.375 236.72,121.875 
			220.206,121.875 236.387,81.427 227.677,77.948 206.359,131.25 236.72,131.25 236.72,154.688 246.095,154.688 246.095,131.25 
			260.157,131.25 		"/>
	</g>
</g>
<g>
</g>
<g>
</g>
<g>
</g>
<g>
</g>
<g>
</g>
<g>
</g>
<g>
</g>
<g>
</g>
<g>
</g>
<g>
</g>
<g>
</g>
<g>
</g>
<g>
</g>
<g>
</g>
<g>
</g>
</svg>
