<?xml version="1.0" encoding="iso-8859-1"?>
<!-- Generator: Adobe Illustrator 19.0.0, SVG Export Plug-In . SVG Version: 6.00 Build 0)  -->
<svg version="1.1" id="Layer_1" xmlns="http://www.w3.org/2000/svg" xmlns:xlink="http://www.w3.org/1999/xlink" x="0px" y="0px"
	 viewBox="0 0 290.625 290.625" style="enable-background:new 0 0 290.625 290.625;" xml:space="preserve">
<g>
	<g>
		<path style="fill:#fff;" d="M271.875,63.281H243.75v9.375h28.125c5.17,0,9.375,4.205,9.375,9.375v140.625H9.375V82.031
			c0-5.17,4.205-9.375,9.375-9.375h28.125v-9.375H18.75C8.409,63.281,0,71.691,0,82.031v159.375c0,10.341,8.409,18.75,18.75,18.75
			h65.625v18.75H56.25v9.375h28.125H206.25h28.125v-9.375H206.25v-18.75h65.625c10.341,0,18.75-8.409,18.75-18.75V82.031
			C290.625,71.691,282.215,63.281,271.875,63.281z M196.875,278.906H93.75v-18.75h103.125V278.906z M271.875,250.781H206.25H84.375
			H18.75c-5.17,0-9.375-4.205-9.375-9.375v-9.375H281.25v9.375C281.25,246.576,277.045,250.781,271.875,250.781z"/>
		<path style="fill:#00b15a;" d="M145.312,2.344c-62.133,0-112.5,50.367-112.5,112.5c0,33.614,14.761,63.759,38.128,84.375h148.744
			c23.367-20.616,38.128-50.761,38.128-84.375C257.812,52.711,207.445,2.344,145.312,2.344z"/>
		<rect x="140.625" y="16.406" style="fill:#fff;" width="9.375" height="14.063"/>
		
			<rect x="105.647" y="23.368" transform="matrix(0.9239 -0.3825 0.3825 0.9239 -3.2368 44.5171)" style="fill:#fff;" width="9.375" height="14.061"/>
		
			<rect x="75.99" y="43.17" transform="matrix(0.7069 -0.7073 0.7073 0.7069 -11.8617 71.7776)" style="fill:#fff;" width="9.375" height="14.062"/>
		
			<rect x="56.177" y="72.837" transform="matrix(0.3827 -0.9239 0.9239 0.3827 -36.2168 105.5351)" style="fill:#fff;" width="9.375" height="14.063"/>
		<rect x="46.875" y="110.156" style="fill:#fff;" width="14.062" height="9.375"/>
		
			<rect x="53.831" y="145.135" transform="matrix(0.9238 -0.3828 0.3828 0.9238 -52.7176 34.7109)" style="fill:#fff;" width="14.062" height="9.375"/>
		
			<rect x="73.648" y="174.792" transform="matrix(0.7071 -0.7071 0.7071 0.7071 -103.2812 109.617)" style="fill:#fff;" width="14.062" height="9.375"/>
		
			<rect x="205.257" y="172.429" transform="matrix(0.7069 -0.7073 0.7073 0.7069 -65.3995 201.0937)" style="fill:#fff;" width="9.375" height="14.062"/>
		
			<rect x="225.076" y="142.793" transform="matrix(0.3827 -0.9239 0.9239 0.3827 3.4159 304.7613)" style="fill:#fff;" width="9.375" height="14.063"/>
		<rect x="229.687" y="110.156" style="fill:#fff;" width="14.062" height="9.375"/>
		
			<rect x="222.732" y="75.177" transform="matrix(0.9238 -0.3828 0.3828 0.9238 -13.0713 94.0393)" style="fill:#fff;" width="14.062" height="9.375"/>
		
			<rect x="202.916" y="45.526" transform="matrix(0.7071 -0.7071 0.7071 0.7071 25.9857 163.1621)" style="fill:#fff;" width="14.062" height="9.375"/>
		
			<rect x="173.265" y="25.707" transform="matrix(0.3824 -0.924 0.924 0.3824 83.2668 185.3658)" style="fill:#fff;" width="14.063" height="9.375"/>
		<path style="fill:#fff;" d="M126.562,114.844c0,10.341,8.409,18.75,18.75,18.75s18.75-8.409,18.75-18.75
			s-8.409-18.75-18.75-18.75c-3.469,0-6.675,1.008-9.464,2.658L97.064,59.967l-6.628,6.628l38.784,38.784
			C127.57,108.169,126.562,111.375,126.562,114.844z M154.687,114.844c0,5.17-4.205,9.375-9.375,9.375s-9.375-4.205-9.375-9.375
			s4.205-9.375,9.375-9.375C150.483,105.469,154.687,109.673,154.687,114.844z"/>
	</g>
</g>
<g>
</g>
<g>
</g>
<g>
</g>
<g>
</g>
<g>
</g>
<g>
</g>
<g>
</g>
<g>
</g>
<g>
</g>
<g>
</g>
<g>
</g>
<g>
</g>
<g>
</g>
<g>
</g>
<g>
</g>
</svg>
