<?xml version="1.0" encoding="iso-8859-1"?>
<!-- Generator: Adobe Illustrator 19.0.0, SVG Export Plug-In . SVG Version: 6.00 Build 0)  -->
<svg version="1.1" id="Capa_1" xmlns="http://www.w3.org/2000/svg" xmlns:xlink="http://www.w3.org/1999/xlink" x="0px" y="0px"
	 viewBox="0 0 496 496" style="enable-background:new 0 0 496 496;" xml:space="preserve">
<g>
	<rect x="340" y="232" style="fill:#00b15a;" width="64" height="112"/>
	<rect x="60" y="272" style="fill:#00b15a;" width="208" height="176"/>
</g>
<path style="fill:#fff;" d="M253.888,232l-21.472-10.736c-2.72-1.36-4.416-4.096-4.416-7.152V192h8c8.824,0,16-7.176,16-16v-32c0-8.824-7.176-16-16-16
	H92c-8.824,0-16,7.176-16,16v32c0,8.824,7.176,16,16,16h8v22.112c0,3.056-1.696,5.8-4.424,7.16L74.112,232
	C60.472,238.832,52,252.528,52,267.776V472c0,13.232,10.768,24,24,24h176c13.232,0,24-10.768,24-24V267.776
	C276,252.528,267.528,238.832,253.888,232z M92,144h24v16h16v-16h24v16h16v-16h24v16h16v-16h24l0.016,32H92V144z M260,472
	c0,4.416-3.584,8-8,8H76c-4.416,0-8-3.584-8-8V267.776c0-9.144,5.088-17.368,13.264-21.464l21.472-10.736
	c8.176-4.088,13.264-12.32,13.264-21.464V192h96v22.112c0,9.152,5.088,17.376,13.264,21.472l21.472,10.736
	c8.176,4.088,13.264,12.312,13.264,21.456V472z"/>
<path style="fill:#fff;" d="M188,304h-48v32h-32v48h32v32h48v-32h32v-48h-32V304z M204,352v16h-32v32h-16v-32h-32v-16h32v-32h16v32H204z"/>
<path style="fill:#fff;" d="M444,16V0H300v16h48v62.704l-8,24V120h-40v16h32v216h16v32h16v104h16V384h16v-32h16V136h32v-16h-40v-17.296l-8-24V16H444z
	 M380,368h-16v-16h16V368z M396,152h-32v16h32v24h-16v16h16v24h-32v16h32v24h-16v16h16v48h-48V136h48V152z M388,105.296V120h-32
	v-14.704l8-24V16h16v65.296L388,105.296z"/>
<g>
</g>
<g>
</g>
<g>
</g>
<g>
</g>
<g>
</g>
<g>
</g>
<g>
</g>
<g>
</g>
<g>
</g>
<g>
</g>
<g>
</g>
<g>
</g>
<g>
</g>
<g>
</g>
<g>
</g>
</svg>
