<?xml version="1.0" encoding="iso-8859-1"?>
<!-- Generator: Adobe Illustrator 19.0.0, SVG Export Plug-In . SVG Version: 6.00 Build 0)  -->
<svg version="1.1" id="Layer_1" xmlns="http://www.w3.org/2000/svg" xmlns:xlink="http://www.w3.org/1999/xlink" x="0px" y="0px"
	 viewBox="0 0 496 496" style="enable-background:new 0 0 496 496;" xml:space="preserve">
<path style="fill:#00b15a;" d="M234.072,208.64l-76.576,135.48c-6.032,10.672,1.672,23.88,13.928,23.88h153.152
	c12.248,0,19.96-13.208,13.928-23.872L261.928,208.64C255.808,197.808,240.192,197.808,234.072,208.64z"/>
<g>
	<path style="fill:#fff;" d="M80,462.336C80,480.896,95.104,496,113.664,496h268.672c18.56,0,33.664-15.104,33.664-33.664V96H80
		V462.336z M96,112h304v350.336c0,9.744-7.92,17.664-17.664,17.664H113.664C103.92,480,96,472.08,96,462.336V112z"/>
	<path style="fill:#fff;" d="M424,32h-88v-8c0-13.232-10.768-24-24-24H184c-13.232,0-24,10.768-24,24v8H72
		c-13.232,0-24,10.768-24,24v32c0,13.232,10.768,24,24,24V96c-4.416,0-8-3.584-8-8V56c0-4.416,3.584-8,8-8h352c4.416,0,8,3.584,8,8
		v32c0,4.416-3.584,8-8,8v16c13.232,0,24-10.768,24-24V56C448,42.768,437.232,32,424,32z M176,24c0-4.416,3.584-8,8-8h128
		c4.416,0,8,3.584,8,8v8H176V24z"/>
	<rect x="176" y="400" style="fill:#fff;" width="16" height="64"/>
	<path style="fill:#fff;" d="M128,176c0-13.232,10.768-24,24-24s24,10.768,24,24v48h16v-48c0-22.056-17.944-40-40-40
		s-40,17.944-40,40v288h16V176z"/>
	<path style="fill:#fff;" d="M224,176c0-13.232,10.768-24,24-24s24,10.768,24,24v14.896h16V176c0-22.056-17.944-40-40-40
		s-40,17.944-40,40v14.896h16V176z"/>
	<rect x="272" y="400" style="fill:#fff;" width="16" height="64"/>
	<rect x="208" y="408" style="fill:#fff;" width="16" height="56"/>
	<path style="fill:#fff;" d="M320,176c0-13.232,10.768-24,24-24s24,10.768,24,24v288h16V176c0-22.056-17.944-40-40-40
		s-40,17.944-40,40v66.584h16V176z"/>
	<rect x="304" y="400" style="fill:#fff;" width="16" height="64"/>
	<path style="fill:#fff;" d="M320.488,296H336v-16h-36.28l-18.376,27.56l13.312,8.872L304.944,301l26.984,47.744
		c1.92,3.4,0.608,6.384-0.048,7.504c-0.664,1.136-2.608,3.752-6.512,3.752h-63.864v16h63.864c8.464,0,16.064-4.368,20.328-11.672
		c4.272-7.312,4.328-16.08,0.168-23.456L320.488,296z"/>
	<path style="fill:#fff;" d="M248,192.04c-8.6,0-16.256,4.472-20.496,11.952l-26.56,47l-10.288-15.432l-13.312,8.872L195.72,272
		H232v-16h-15.512l24.944-44.136c1.96-3.456,5.248-3.832,6.568-3.832c1.32,0,4.608,0.376,6.568,3.832l31.688,56.072l13.92-7.872
		l-31.688-56.072C264.256,196.504,256.6,192.04,248,192.04z"/>
	<path style="fill:#fff;" d="M209.344,348.44l7.704,11.56h-46.416c-3.904,0-5.848-2.616-6.512-3.744
		c-0.656-1.128-1.968-4.112-0.056-7.504l32.256-57.064l-13.92-7.872l-32.264,57.064c-4.16,7.376-4.104,16.144,0.168,23.456
		c4.264,7.296,11.864,11.664,20.328,11.664h46.416l-7.704,11.56l13.312,8.872L241.616,368l-18.96-28.44L209.344,348.44z"/>
</g>
<g>
</g>
<g>
</g>
<g>
</g>
<g>
</g>
<g>
</g>
<g>
</g>
<g>
</g>
<g>
</g>
<g>
</g>
<g>
</g>
<g>
</g>
<g>
</g>
<g>
</g>
<g>
</g>
<g>
</g>
</svg>
