<?xml version="1.0" encoding="UTF-8" standalone="no"?>
<!-- Generator: Adobe Illustrator 19.0.0, SVG Export Plug-In . SVG Version: 6.00 Build 0)  -->

<svg
   xmlns:dc="http://purl.org/dc/elements/1.1/"
   xmlns:cc="http://creativecommons.org/ns#"
   xmlns:rdf="http://www.w3.org/1999/02/22-rdf-syntax-ns#"
   xmlns:svg="http://www.w3.org/2000/svg"
   xmlns="http://www.w3.org/2000/svg"
   xmlns:sodipodi="http://sodipodi.sourceforge.net/DTD/sodipodi-0.dtd"
   xmlns:inkscape="http://www.inkscape.org/namespaces/inkscape"
   version="1.1"
   id="Capa_1"
   x="0px"
   y="0px"
   viewBox="0 0 496.008 496.008"
   style="enable-background:new 0 0 496.008 496.008;"
   xml:space="preserve"
   inkscape:version="0.91 r13725"
   sodipodi:docname="weaponMod.svg"><metadata
   id="metadata45"><rdf:RDF><cc:Work
       rdf:about=""><dc:format>image/svg+xml</dc:format><dc:type
         rdf:resource="http://purl.org/dc/dcmitype/StillImage" /><dc:title></dc:title></cc:Work></rdf:RDF></metadata><defs
   id="defs43" /><sodipodi:namedview
   pagecolor="#ffffff"
   bordercolor="#666666"
   borderopacity="1"
   objecttolerance="10"
   gridtolerance="10"
   guidetolerance="10"
   inkscape:pageopacity="0"
   inkscape:pageshadow="2"
   inkscape:window-width="1161"
   inkscape:window-height="699"
   id="namedview41"
   showgrid="false"
   inkscape:zoom="0.47579878"
   inkscape:cx="-23.22905"
   inkscape:cy="245.90227"
   inkscape:window-x="0"
   inkscape:window-y="301"
   inkscape:window-maximized="0"
   inkscape:current-layer="Capa_1" />
<g
   id="g3"
   transform="matrix(0.45403025,-0.72578482,0.72578482,0.45403025,-77.702043,277.76889)">
	<path
   style="fill:#00b15a"
   d="m 248,120.004 -80,0 0,96 80,0 c 26.512,0 48,-21.488 48,-48 0,-26.512 -21.488,-48 -48,-48 z"
   id="path5"
   inkscape:connector-curvature="0" />
	<path
   style="fill:#00b15a"
   d="m 440,280.004 -32,0 c -8.84,0 -16,7.16 -16,16 l 0,144 64,0 0,-144 c 0,-8.84 -7.16,-16 -16,-16 z"
   id="path7"
   inkscape:connector-curvature="0" />
</g>
<path
   style="fill:#fff"
   d="m 284.22633,45.192568 c -5.18546,3.16238 -10.84671,5.251586 -16.82765,6.21176 l -41.23573,6.655462 c -11.04639,1.774097 -21.07424,7.085534 -28.79236,14.916321 L 167.25326,13.896536 c -1.44133,-2.84858 -3.6335,-5.245914 -6.33924,-6.93854 -8.21587,-5.139623 -19.07961,-2.637306 -24.21923,5.578578 l -1.69263,2.705727 c -3.55596,5.684346 -3.59372,12.769812 -0.0969,18.479563 7.19027,11.776751 9.79586,25.742609 7.34666,39.317272 l -1.85983,10.308023 -6.32197,0.536802 c -6.40765,0.53169 -12.26697,4.11267 -15.68128,9.570575 L 63.905208,180.54872 c -6.007729,9.60358 -3.081481,22.30783 6.522102,28.31556 l -27.554188,44.04643 -18.877033,4.34808 -23.29720236,37.24146 34.83766836,21.79346 -3.632242,5.80627 c -6.007727,9.6036 -3.081471,22.30785 6.522113,28.31557 l 23.22511,14.52897 c 9.603584,6.00773 22.307834,3.08147 28.315564,-6.52211 l 61.74811,-98.70673 11.61256,7.26447 c 9.60359,6.00773 22.30783,3.08148 28.31556,-6.52212 l 10.89672,-17.41881 23.22513,14.52897 c 25.61149,16.02182 59.48635,8.21919 75.50816,-17.39231 L 337.59577,182.11309 407.2711,225.7 472.65147,121.18699 351.21667,45.213006 C 330.7902,32.434779 305.29774,32.313236 284.22623,45.192748 Z M 155.72931,75.475944 c 3.04295,-16.887012 -0.20082,-34.249233 -9.13732,-48.903732 -0.77191,-1.25842 -0.76183,-2.811273 0.0227,-4.065426 l 1.69263,-2.705729 c 1.13325,-1.811553 3.53063,-2.363764 5.3422,-1.230503 0.59224,0.370486 1.0748,0.890484 1.39541,1.527294 l 30.29868,59.435375 -30.81201,2.609551 1.19768,-6.66683 z m 19.26412,69.545826 c 1.98574,1.24222 3.80372,2.66223 5.43942,4.21867 l -35.95558,57.47635 11.61257,7.26449 32.59574,-52.10556 c 3.68831,9.69106 3.08408,20.89763 -2.82197,30.33864 l -32.69018,52.25651 -11.61255,-7.26449 7.26448,-11.61255 -11.61255,-7.26449 -7.2645,11.61256 -11.61255,-7.26448 50.48453,-80.70146 c 2.11515,0.79 4.18738,1.80358 6.17314,3.04581 z m -68.27023,70.39116 -11.61256,-7.26448 32.69018,-52.2565 c 5.90966,-9.44682 15.72268,-14.89266 26.04709,-15.80967 l -47.12471,75.33065 z m -87.147266,74.73926 13.025219,-20.82132 18.877043,-4.34808 30.561684,-48.85403 11.61256,7.26449 -50.851389,81.28791 -23.225117,-14.52897 z m 58.778616,61.00573 c -2.004996,3.20507 -6.233452,4.17904 -9.438521,2.17404 L 45.69092,338.80299 c -3.205068,-2.00499 -4.179036,-6.23346 -2.174038,-9.43851 l 61.748108,-98.70674 34.83768,21.79344 -61.74812,98.70674 z m 92.23772,-95.79033 -5.80628,-3.63223 32.69018,-52.2565 c 14.01682,-22.40644 7.18816,-52.05283 -15.21825,-66.06965 -22.40644,-14.01683 -52.05283,-7.18818 -66.06965,15.21825 l -32.69018,52.25651 -5.806286,-3.63225 c -3.205054,-2.00499 -4.179031,-6.23345 -2.174034,-9.43853 l 54.48362,-87.09417 c 1.1369,-1.817364 3.08808,-3.012254 5.22251,-3.195764 l 64.83731,-5.48711 1.81612,-2.903144 c 2.2084,-3.530217 4.95529,-6.642774 8.09909,-9.240463 l 46.17605,40.834541 c 2.51387,2.21887 3.0503,5.90703 1.2669,8.75791 l -12.0082,19.19556 -65.38035,104.513 c -2.005,3.20507 -6.23346,4.17904 -9.43852,2.17404 z m 53.74125,-47.16606 18.11399,-28.9559 c 7.83899,5.4451 11.6079,15.09771 9.35209,24.46326 l 13.3079,3.21136 c 3.64986,-15.09362 -2.55514,-30.70528 -15.3955,-39.28719 l 7.3117,-11.68803 34.83767,21.79345 -21.79345,34.83769 c -6.00773,9.60357 -18.71198,12.52982 -28.31556,6.5221 l -17.41884,-10.89674 z m 65.32727,24.70986 c -12.0191,19.21299 -37.41814,25.06332 -56.63113,13.04423 l -23.22511,-14.52897 7.26449,-11.61256 17.41883,10.89674 c 16.00791,10.01408 37.17852,5.13772 47.19261,-10.87019 l 21.79346,-34.83767 3.63224,-5.80629 c 4.00272,-6.3985 12.47271,-8.35443 18.87703,-4.34807 l -36.32242,58.06278 z m 72.13223,-84.13221 -6.52211,-28.31557 28.31556,-6.52211 0.99869,0.62476 6.5221,28.31555 -28.31557,6.52211 -0.99867,-0.62474 z m -13.04422,-56.631124 18.41751,11.521464 -14.96948,3.44803 -3.44803,-14.969494 z m 52.25651,32.690184 18.4175,11.52146 -14.96948,3.44802 -3.44802,-14.96948 z m -62.15455,-14.64661 -23.21877,5.34814 c 0.0788,-1.08167 0.3254,-2.14729 0.93925,-3.12856 L 331.1002,89.1861 c 0.61385,-0.981258 1.46425,-1.669132 2.40243,-2.213231 l 5.34813,23.218761 z m -11.89541,16.79409 14.9695,-3.44801 3.44802,14.96948 -18.41752,-11.52147 z m 52.2565,32.69018 14.9695,-3.44801 3.44802,14.96948 -18.41752,-11.52147 z m 34.83768,21.79345 -6.5221,-28.31556 28.31555,-6.52211 3.40247,2.1285 -21.79344,34.83767 -3.40248,-2.1285 z m 39.72489,-55.93428 -7.26448,11.61255 -98.70673,-61.748113 c -9.60359,-6.007731 -22.30784,-3.081491 -28.31557,6.52211 l -14.52897,23.225103 c -6.00773,9.6036 -3.08147,22.30784 6.52212,28.31557 l 98.70672,61.74812 -7.26447,11.61256 -69.67535,-43.58691 c -10.79968,-6.75597 -24.54447,-5.04615 -33.38444,3.35116 l -35.57507,-22.25475 4.74371,-7.583 c 5.35392,-8.55845 3.74681,-19.61348 -3.80859,-26.28679 L 222.76434,72.906699 c 1.80935,-0.580764 3.6702,-1.024293 5.57673,-1.334227 l 41.2321,-6.649659 c 7.74371,-1.246944 15.07278,-3.948903 22.25807,-8.332258 16.1533,-9.873112 36.12836,-9.777787 52.12465,0.229037 l 109.8185,68.715448 z"
   id="path9"
   inkscape:connector-curvature="0" />
<path
   inkscape:connector-curvature="0"
   style="fill:#00b15a"
   d="m 496.00399,394.28313 0,-45.83795 -23.98048,-7.27021 c -2.08219,-6.61933 -4.8371,-12.99919 -8.22626,-19.05975 l 11.58981,-21.38081 -33.81484,-32.40893 -22.30832,11.10795 c -6.32347,-3.24826 -12.98009,-5.88863 -19.88656,-7.88425 l -7.59841,-22.98959 -47.82642,0 -7.58559,22.98345 c -6.90648,1.99562 -13.56311,4.63599 -19.88657,7.88425 l -22.30831,-11.10795 -33.81485,32.40893 11.58981,21.38081 c -4.85632,8.63952 -10.55192,21.01239 -12.78147,29.29577 l 0.0577,1.54123 34.28894,0 c 8.54662,-31.76419 38.54944,-55.26344 74.36319,-55.26344 42.45756,0 76.88104,32.99228 76.88104,73.68459 0,40.69231 -34.42348,73.68458 -76.88104,73.68458 -35.81375,0 -65.81657,-23.49924 -74.36319,-55.26343 l -32.82821,0 0.064,1.66404 1.77467,6.01143 c 2.17189,8.08075 5.33682,15.85447 9.42433,23.15538 l -11.58982,21.38081 33.81486,32.40894 22.3083,-11.10795 c 6.32347,3.24826 12.98009,5.88863 19.88658,7.88425 l 7.59199,22.98959 47.82641,0 7.5856,-22.98345 c 6.90649,-1.99562 13.5631,-4.63599 19.88657,-7.88425 l 22.30831,11.10795 33.81485,-32.40894 -11.58982,-21.38081 c 3.38917,-6.06055 6.14408,-12.44041 8.22628,-19.05974 l 23.98688,-7.2825 z"
   id="path7-7" />
   <path inkscape:connector-curvature="0"
   style="fill:#fff"
   d="m 367.86892,291.54226 c -36.3391,0 -68.18068,22.5045 -79.20669,55.26344 l -164.24997,0 c -14.13329,0 -25.627005,11.01585 -25.627005,24.56153 0,13.54568 11.493715,24.56153 25.627005,24.56153 l 164.24997,0 c 11.02601,32.75894 42.86759,55.26344 79.20669,55.26344 45.9236,0 83.2878,-35.81071 83.2878,-79.82497 0,-44.01426 -37.3642,-79.82497 -83.2878,-79.82497 z m -256.27017,79.82497 c 0,-6.77284 5.74686,-12.28077 12.81351,-12.28077 l 200.28155,0 1.62091,-3.83773 c 6.90007,-16.32114 23.21166,-26.86418 41.5542,-26.86418 16.11298,0 26.19081,8.01934 32.03376,15.35096 l 0,3.07019 -35.46138,0 -17.0868,24.56153 17.0868,24.56153 35.46138,0 0,3.07019 c -5.84295,7.33161 -15.92078,15.35095 -32.03376,15.35095 -18.34254,0 -34.65413,-10.54303 -41.5542,-26.86417 l -1.62091,-3.83774 -200.28155,0 c -7.06665,0 -12.81351,-5.50792 -12.81351,-12.28076 z m 256.27017,67.5442 c -29.33011,0 -55.19418,-17.3343 -65.61797,-42.98267 l 13.97953,0 c 9.69983,18.78343 29.51592,30.70191 51.63844,30.70191 17.74671,0 33.25746,-7.84741 43.68765,-22.09924 l 1.15963,-1.58422 0,-19.29922 -41.41967,0 -8.54019,-12.28076 8.54019,-12.28077 41.41967,0 0,-19.29922 -1.15963,-1.58421 c -10.43019,-14.25183 -25.94094,-22.09924 -43.68765,-22.09924 -22.12252,0 -41.93861,11.91848 -51.63844,30.70191 l -13.97953,0 c 10.42379,-25.64838 36.28786,-42.98267 65.61797,-42.98267 38.85696,0 70.47429,30.30278 70.47429,67.5442 0,37.24142 -31.61733,67.5442 -70.47429,67.5442 z"
   id="path9-3" /></svg>