<?xml version="1.0" encoding="UTF-8" standalone="no"?>
<svg
   xmlns:dc="http://purl.org/dc/elements/1.1/"
   xmlns:cc="http://creativecommons.org/ns#"
   xmlns:rdf="http://www.w3.org/1999/02/22-rdf-syntax-ns#"
   xmlns:svg="http://www.w3.org/2000/svg"
   xmlns="http://www.w3.org/2000/svg"
   xmlns:sodipodi="http://sodipodi.sourceforge.net/DTD/sodipodi-0.dtd"
   xmlns:inkscape="http://www.inkscape.org/namespaces/inkscape"
   height="496pt"
   viewBox="-12 0 496 496"
   width="496pt"
   id="svg2"
   version="1.1"
   inkscape:version="0.91 r13725"
   sodipodi:docname="blast.svg">
  <metadata
     id="metadata24">
    <rdf:RDF>
      <cc:Work
         rdf:about="">
        <dc:format>image/svg+xml</dc:format>
        <dc:type
           rdf:resource="http://purl.org/dc/dcmitype/StillImage" />
        <dc:title></dc:title>
      </cc:Work>
    </rdf:RDF>
  </metadata>
  <defs
     id="defs22" />
  <sodipodi:namedview
     pagecolor="#000000"
     bordercolor="#666666"
     borderopacity="1"
     objecttolerance="10"
     gridtolerance="10"
     guidetolerance="10"
     inkscape:pageopacity="0"
     inkscape:pageshadow="2"
     inkscape:window-width="1087"
     inkscape:window-height="687"
     id="namedview20"
     showgrid="false"
     inkscape:zoom="0.38064516"
     inkscape:cx="310"
     inkscape:cy="307.37288"
     inkscape:window-x="0"
     inkscape:window-y="0"
     inkscape:window-maximized="0"
     inkscape:current-layer="svg2" />
  <path
     d="m363.558594 207.984375-3.558594-1.769531v9.785156h-128v-9.785156l-3.558594 1.769531c-52.089844 25.917969-84.441406 78.039063-84.441406 136.015625 0 83.816406 68.183594 152 152 152s152-68.183594 152-152c0-57.976562-32.351562-110.097656-84.441406-136.015625zm0 0"
     fill="#660015"
     id="path4" />
  <path
     d="m8 264h112v136h-112zm0 0"
     fill="#660015"
     id="path6" />
  <path
     fill="#000"
     d="m472 32h-20.6875l14.625-14.632812-11.3125-11.3125-14.625 14.632812v-20.6875h-16v20.6875l-14.625-14.632812-11.3125 11.3125 14.625 14.632812h-68.6875c-30.871094 0-56 25.121094-56 56v72h-48c-8.824219 0-16 7.175781-16 16v48h144v-48c0-8.824219-7.175781-16-16-16h-48v-72c0-22.054688 17.945312-40 40-40h68.6875l-14.625 14.632812 11.3125 11.3125 14.625-14.632812v20.6875h16v-20.6875l14.625 14.632812 11.3125-11.3125-14.625-14.632812h20.6875zm-120 176h-112v-32h112zm96-174.625v13.25l-9.375 9.375h-13.25l-9.375-9.375v-13.25l9.375-9.375h13.25zm0 0"
     id="path8" />
  <path
     fill="#000"
     d="m176 80h16v-20.6875l14.625 14.632812 11.3125-11.3125-14.625-14.632812h20.6875v-16h-20.6875l14.625-14.632812-11.3125-11.3125-14.625 14.632812v-20.6875h-16v20.6875l-14.625-14.632812-11.3125 11.3125 14.625 14.632812h-52.6875c-30.871094 0-56 25.121094-56 56v32h-56v376h128v-376h-56v-32c0-22.054688 17.945312-40 40-40h52.6875l-14.625 14.632812 11.3125 11.3125 14.625-14.632812zm-64 88h-16v16h16v296h-96v-296h64v-16h-64v-32h96zm65.375-112-9.375-9.375v-13.25l9.375-9.375h13.25l9.375 9.375v13.25l-9.375 9.375zm0 0"
     id="path10" />
  <path
     fill="#000"
     d="m221.71875 271.214844c3.105469-3.167969 6.449219-6.167969 9.945312-8.933594l-9.902343-12.5625c-4.042969 3.183594-7.898438 6.648438-11.480469 10.304688zm0 0"
     id="path12" />
  <path
     fill="#000"
     d="m192 344c0-21.398438 6.449219-41.945312 18.640625-59.425781l-13.128906-9.160157c-14.070313 20.1875-21.511719 43.898438-21.511719 68.585938 0 66.167969 53.832031 120 120 120v-16c-57.34375 0-104-46.65625-104-104zm0 0"
     id="path14" />
  <path
     fill="#000"
     d="m32 200h16v16h-16zm0 0"
     id="path16" />
  <path
     fill="#000"
     d="m32 232h16v136h-16zm0 0"
     id="path18" />
</svg>
