<?xml version="1.0" encoding="iso-8859-1"?>
<!-- Generator: Adobe Illustrator 19.0.0, SVG Export Plug-In . SVG Version: 6.00 Build 0)  -->
<svg version="1.1" id="Layer_1" xmlns="http://www.w3.org/2000/svg" xmlns:xlink="http://www.w3.org/1999/xlink" x="0px" y="0px"
	 viewBox="0 0 495.848 495.848" style="enable-background:new 0 0 495.848 495.848;" xml:space="preserve">
<g>
	<path style="fill:#000;" d="M457.792,183.92c0-100.128-81.432-182.624-181.52-183.904C275.488,0.008,274.72,0,273.944,0
		C187.52,0,111.984,61.56,93.8,147.184c-4.496,21.128-5.056,42.92-1.68,64.832L38.032,308.76l59.8,17.12l0.12,97.968h79.992v72h16
		v-88h-80.008l-0.128-94.032l-51.952-14.88l46.968-84l-0.472-2.784c-3.528-20.856-3.168-41.592,1.104-61.64
		C126.216,71.56,196.2,15.352,276.072,16.016C367.456,17.184,441.8,92.512,441.8,183.928l0.024,29.192
		c0.04,64.096-31.512,124.096-84.416,160.504l-3.464,2.392v119.832h16v-111.48c55.152-39.608,87.912-103.304,87.872-171.264
		L457.792,183.92z"/>
	<path style="fill:#000;" d="M409.944,199.848c0-5.84-1.12-11.6-3.328-17.176c7.344-8.648,11.328-19.392,11.328-30.824
		c0-23.744-17.328-43.512-40.008-47.336c0.008-0.216,0.008-0.448,0.008-0.664c0-30.872-25.128-56-56-56
		c-8.04,0-15.968,1.752-23.272,5.112c-8.88-8.4-20.488-13.112-32.728-13.112c-15.312,0-29.432,7.296-38.4,19.464
		c-5.648-2.288-11.616-3.464-17.6-3.464c-26.472,0-48,21.528-48,48c0,0.928,0.032,1.848,0.088,2.792
		c-18.976,6.632-32.088,24.568-32.088,45.208c0,10.24,3.352,20.192,9.52,28.48c-1.024,3.904-1.52,7.704-1.52,11.52
		c0,26.472,21.528,48,48,48c5.848,0,11.608-1.12,17.184-3.336c3.184,2.688,6.712,4.944,10.528,6.76l6.84-14.472
		c-3.784-1.792-7.128-4.232-9.936-7.264l-4.2-4.528l-5.44,2.912c-4.856,2.608-9.904,3.928-14.976,3.928c-17.648,0-32-14.352-32-32
		c0-3.392,0.648-6.856,1.968-10.6l1.592-4.496l-3.192-3.536c-5.4-5.968-8.368-13.552-8.368-21.368
		c0-15.288,10.84-28.312,25.824-31.264l0,0c2.008-0.432,4.048-0.736,6.176-0.736c10.152,0,19.48,4.656,25.592,12.784l12.784-9.624
		c-9.176-12.176-23.16-19.16-38.376-19.16c0-17.648,14.352-32,32-32c1.872,0,3.68,0.24,5.472,0.552
		c0.696,0.128,1.384,0.264,2.064,0.44c0.888,0.216,1.736,0.52,2.6,0.808c2.136,0.752,4.24,1.664,6.28,2.896l1.952,1.176
		c8.216,5.792,13.632,15.32,13.632,26.128h16c0-14.44-6.464-27.328-16.592-36.128c6-7.416,14.92-11.872,24.592-11.872
		c9.592,0,18.632,4.4,24.808,12.072l4.408,5.48l6-3.664c6.288-3.856,13.488-5.888,20.784-5.888c22.056,0,40,17.944,40,40
		c0,0.232-0.064,0.504-0.064,0.736c-22.632,3.848-39.936,23.552-39.936,47.264h16c0-17.432,14.016-31.584,31.36-31.936l1.064-0.064
		c17.448,0.224,31.576,14.496,31.576,32c0,8.904-3.664,17.2-10.312,23.376l-4.528,4.2l2.912,5.44
		c2.608,4.864,3.928,9.912,3.928,14.984c0,17.648-14.352,32-32,32c-7.744,0-15.28-2.928-21.224-8.256l-8.792-7.864l-4.056,11.072
		c-3.768,10.256-12.72,18.024-23.376,20.272l3.296,15.656c12.848-2.712,23.744-10.392,30.568-21.2
		c7.184,4.12,15.296,6.32,23.584,6.32C388.416,247.848,409.944,226.32,409.944,199.848z"/>
</g>
<path style="fill:#660015;" d="M241.944,399.848l8-120l-48-32l80-136l-8,112l56,40L241.944,399.848z"/>
<g>
</g>
<g>
</g>
<g>
</g>
<g>
</g>
<g>
</g>
<g>
</g>
<g>
</g>
<g>
</g>
<g>
</g>
<g>
</g>
<g>
</g>
<g>
</g>
<g>
</g>
<g>
</g>
<g>
</g>
</svg>
