<?xml version="1.0" encoding="iso-8859-1"?>
<!-- Generator: Adobe Illustrator 19.0.0, SVG Export Plug-In . SVG Version: 6.00 Build 0)  -->
<svg version="1.1" id="Layer_1" xmlns="http://www.w3.org/2000/svg" xmlns:xlink="http://www.w3.org/1999/xlink" x="0px" y="0px"
	 viewBox="0 0 290.883 290.883" style="enable-background:new 0 0 290.883 290.883;" xml:space="preserve">
<g>
	<g>
		<path style="fill:#660015;" d="M145.444,248.566c-56.864,0-103.125-46.261-103.125-103.125S88.58,42.316,145.444,42.316
			s103.125,46.261,103.125,103.125S202.308,248.566,145.444,248.566z M145.444,61.066c-46.523,0-84.375,37.852-84.375,84.375
			s37.852,84.375,84.375,84.375s84.375-37.852,84.375-84.375S191.967,61.066,145.444,61.066z"/>
		<path style="fill:#000;" d="M267.319,145.441c0-4.898-0.295-9.816-0.877-14.672l24.441-7.941l-14.48-44.583l-24.469,7.945
			c-4.786-8.597-10.566-16.547-17.236-23.728L249.82,41.66l-37.922-27.558L196.776,34.91c-8.911-4.148-18.262-7.191-27.895-9.075
			V0.129h-46.875v25.706c-9.633,1.88-18.984,4.927-27.895,9.075L78.994,14.107L41.067,41.66l15.122,20.803
			c-6.67,7.177-12.45,15.131-17.236,23.728l-24.464-7.945L0.005,122.829l24.445,7.941c-0.586,4.856-0.881,9.773-0.881,14.672
			s0.295,9.816,0.877,14.672L0,168.054l14.484,44.583l24.464-7.945c4.786,8.597,10.566,16.547,17.236,23.728l-15.117,20.803
			l37.922,27.558l15.117-20.803c8.911,4.148,18.262,7.191,27.895,9.075v25.702h46.875v-25.706c9.633-1.88,18.984-4.927,27.895-9.075
			l15.117,20.803l37.922-27.558l-15.122-20.803c6.67-7.177,12.45-15.131,17.236-23.728l24.469,7.945l14.48-44.583l-24.441-7.941
			C267.023,155.257,267.319,150.34,267.319,145.441z M279.075,174.068l-8.691,26.756l-23.067-7.5l-1.828,3.544
			c-5.302,10.294-12.103,19.655-20.212,27.83l-2.812,2.831l14.259,19.627l-22.753,16.533l-14.259-19.631l-3.562,1.805
			c-10.313,5.222-21.314,8.798-32.7,10.636l-3.942,0.628v24.253h-28.125v-24.253l-3.942-0.638
			c-11.386-1.837-22.387-5.409-32.7-10.636l-3.563-1.805l-14.259,19.631l-22.753-16.533l14.259-19.627l-2.813-2.831
			c-8.109-8.17-14.911-17.531-20.212-27.83l-1.828-3.544l-23.067,7.5l-8.691-26.756l23.044-7.486l-0.605-3.938
			c-0.867-5.648-1.308-11.433-1.308-17.194s0.441-11.545,1.308-17.208l0.605-3.938l-23.044-7.486l8.691-26.756l23.067,7.5
			l1.828-3.544c5.3-10.292,12.102-19.653,20.211-27.828l2.813-2.831l-14.26-19.626L76.917,27.19l14.259,19.631l3.563-1.805
			c10.313-5.222,21.314-8.798,32.7-10.636l3.942-0.623V9.504h28.125v24.253l3.942,0.637c11.386,1.838,22.387,5.409,32.7,10.636
			l3.562,1.805l14.259-19.631l22.753,16.533l-14.259,19.627l2.812,2.831c8.109,8.17,14.911,17.531,20.212,27.83l1.828,3.544
			l23.067-7.5l8.691,26.756l-23.048,7.486l0.605,3.938c0.872,5.648,1.313,11.433,1.313,17.194s-0.441,11.545-1.308,17.208
			l-0.605,3.938L279.075,174.068z"/>
		<path style="fill:#000;" d="M179.616,89.519l-13.547,8.916l5.156,7.828l21.816-14.358l-3.164-26.569l-9.309,1.106l1.641,13.781
			c-28.837-16.252-65.831-11.78-89.794,12.183c-26.437,26.438-29.25,68.77-6.544,98.475l7.448-5.695
			c-19.866-25.987-17.4-63.023,5.728-86.152C120.562,77.519,154.12,73.915,179.616,89.519z"/>
		<path style="fill:#000;" d="M197.573,105.696c19.866,25.987,17.4,63.023-5.728,86.152c-21.525,21.52-55.083,25.125-80.578,9.52
			l13.552-8.92l-5.156-7.828l-21.816,14.358l3.164,26.569l9.309-1.106l-1.641-13.758c11.414,6.431,24.089,9.661,36.75,9.661
			c19.327,0,38.569-7.392,53.039-21.867c26.437-26.438,29.25-68.77,6.544-98.475L197.573,105.696z"/>
	</g>
</g>
<g>
</g>
<g>
</g>
<g>
</g>
<g>
</g>
<g>
</g>
<g>
</g>
<g>
</g>
<g>
</g>
<g>
</g>
<g>
</g>
<g>
</g>
<g>
</g>
<g>
</g>
<g>
</g>
<g>
</g>
</svg>
