<?xml version="1.0" encoding="iso-8859-1"?>
<!-- Generator: Adobe Illustrator 19.0.0, SVG Export Plug-In . SVG Version: 6.00 Build 0)  -->
<svg version="1.1" id="Layer_1" xmlns="http://www.w3.org/2000/svg" xmlns:xlink="http://www.w3.org/1999/xlink" x="0px" y="0px"
	 viewBox="0 0 290.625 290.625" style="enable-background:new 0 0 290.625 290.625;" xml:space="preserve">
<g>
	<g>
		<rect x="215.625" y="70.311" style="fill:#660015;" width="28.125" height="154.688"/>
		<path style="fill:#000;" d="M243.75,51.561V9.374H0v210.938c0,15.511,12.614,28.125,28.125,28.125h187.5v32.813h28.125v-32.813
			h18.75c15.511,0,28.125-12.614,28.125-28.125V51.561H243.75z M9.375,220.311V18.749h225v32.813H129.459l-9.375-18.75H46.875v187.5
			c0,10.341-8.409,18.75-18.75,18.75S9.375,230.652,9.375,220.311z M234.375,271.875H225v-32.813c0-2.583,2.105-4.688,4.688-4.688
			c2.583,0,4.687,2.105,4.687,4.688V271.875z M281.25,220.311c0,10.341-8.409,18.75-18.75,18.75h-18.75
			c0-7.753-6.309-14.063-14.062-14.063c-7.753,0-14.063,6.309-14.063,14.063H49.031c4.472-4.983,7.219-11.541,7.219-18.75V42.186
			h58.041l9.375,18.75H281.25V220.311z"/>
		<polygon style="fill:#000;" points="243.75,79.686 243.75,70.311 229.687,70.311 229.687,74.999 215.625,74.999 
			215.625,84.374 229.687,84.374 229.687,79.686 		"/>
		<polygon style="fill:#000;" points="243.75,93.749 243.75,84.374 229.687,84.374 229.687,89.061 215.625,89.061 
			215.625,98.436 229.687,98.436 229.687,93.749 		"/>
		<polygon style="fill:#000;" points="243.75,107.811 243.75,98.436 229.687,98.436 229.687,103.124 215.625,103.124 
			215.625,112.499 229.687,112.499 229.687,107.811 		"/>
		<polygon style="fill:#000;" points="243.75,121.874 243.75,112.499 229.687,112.499 229.687,117.186 215.625,117.186 
			215.625,126.561 229.687,126.561 229.687,121.874 		"/>
		<polygon style="fill:#000;" points="243.75,135.936 243.75,126.561 229.687,126.561 229.687,131.249 215.625,131.249 
			215.625,140.624 229.687,140.624 229.687,135.936 		"/>
		<polygon style="fill:#000;" points="243.75,149.999 243.75,140.624 229.687,140.624 229.687,145.311 215.625,145.311 
			215.625,154.686 229.687,154.686 229.687,149.999 		"/>
		<polygon style="fill:#000;" points="243.75,164.061 243.75,154.686 229.687,154.686 229.687,159.374 215.625,159.374 
			215.625,168.749 229.687,168.749 229.687,164.061 		"/>
		<polygon style="fill:#000;" points="243.75,178.124 243.75,168.749 229.687,168.749 229.687,173.436 215.625,173.436 
			215.625,182.811 229.687,182.811 229.687,178.124 		"/>
		<polygon style="fill:#000;" points="243.75,192.186 243.75,182.811 229.687,182.811 229.687,187.499 215.625,187.499 
			215.625,196.874 229.687,196.874 229.687,192.186 		"/>
		<polygon style="fill:#000;" points="243.75,206.249 243.75,196.874 229.687,196.874 229.687,201.561 215.625,201.561 
			215.625,210.936 229.687,210.936 229.687,206.249 		"/>
		<polygon style="fill:#000;" points="243.75,220.311 243.75,210.936 229.687,210.936 229.687,215.624 215.625,215.624 
			215.625,224.999 229.687,224.999 229.687,220.311 		"/>
		<path style="fill:#000;" d="M65.625,117.186h131.25V70.311H65.625V117.186z M75,79.686h112.5v28.125H75V79.686z"/>
		<path style="fill:#000;" d="M65.625,173.436h131.25v-46.875H65.625V173.436z M75,135.936h112.5v28.125H75V135.936z"/>
		<path style="fill:#000;" d="M65.625,229.686h131.25v-46.875H65.625V229.686z M75,192.186h112.5v28.125H75V192.186z"/>
	</g>
</g>
<g>
</g>
<g>
</g>
<g>
</g>
<g>
</g>
<g>
</g>
<g>
</g>
<g>
</g>
<g>
</g>
<g>
</g>
<g>
</g>
<g>
</g>
<g>
</g>
<g>
</g>
<g>
</g>
<g>
</g>
</svg>
