<?xml version="1.0" encoding="iso-8859-1"?>
<!-- Generator: Adobe Illustrator 19.0.0, SVG Export Plug-In . SVG Version: 6.00 Build 0)  -->
<svg version="1.1" id="Layer_1" xmlns="http://www.w3.org/2000/svg" xmlns:xlink="http://www.w3.org/1999/xlink" x="0px" y="0px"
	 viewBox="0 0 290.625 290.625" style="enable-background:new 0 0 290.625 290.625;" xml:space="preserve">
<g>
	<g>
		<path style="fill:#660015;" d="M194.887,100.78c-2.297,8.058-6.483,15.319-12.075,21.253v20.934c0,5.18-4.195,9.375-9.375,9.375
			h-56.25c-5.18,0-9.375-4.195-9.375-9.375v-20.934c-5.592-5.934-9.783-13.195-12.075-21.253H93.75H42.187v107.813h206.25V100.78
			H194.887z"/>
		<path style="fill:#000;" d="M271.875,222.655V86.718c0-5.17-4.205-9.375-9.375-9.375h-61.786
			c-4.481-26.559-27.586-46.875-55.402-46.875S94.392,50.784,89.91,77.343H28.125c-5.17,0-9.375,4.205-9.375,9.375v135.938H0v23.438
			c0,7.753,6.309,14.063,14.062,14.063h262.5c7.753,0,14.063-6.309,14.063-14.063v-23.438h-18.75V222.655z M145.312,39.843
			c25.847,0,46.875,21.028,46.875,46.875c0,11.948-4.542,23.348-12.787,32.105l-1.275,1.35v22.795c0,2.583-2.105,4.688-4.688,4.688
			h-4.688v-28.125h-9.375v28.125H150v-28.125h-9.375v28.125h-9.375v-28.125h-9.375v28.125h-4.688c-2.583,0-4.687-2.105-4.687-4.688
			v-22.795l-1.275-1.355c-8.245-8.752-12.787-20.152-12.787-32.1C98.437,60.871,119.466,39.843,145.312,39.843z M28.125,86.718
			h60.937c0,13.716,4.983,26.831,14.062,37.13v19.12c0,7.753,6.309,14.063,14.062,14.063h56.25c7.753,0,14.062-6.309,14.062-14.063
			v-19.12c9.084-10.303,14.063-23.414,14.063-37.13H262.5v135.938h-84.375H112.5H28.125V86.718z M168.75,236.718h-46.875v-4.688
			h46.875V236.718z M281.25,246.093c0,2.587-2.105,4.688-4.688,4.688h-262.5c-2.583,0-4.687-2.1-4.687-4.688V232.03h9.375h93.75
			v4.688c0,5.17,4.205,9.375,9.375,9.375h46.875c5.17,0,9.375-4.205,9.375-9.375v-4.688h93.75h9.375V246.093z"/>
		<path style="fill:#000;" d="M121.875,100.78c7.884,0,14.062-8.236,14.062-18.75c0-10.514-6.178-18.75-14.062-18.75
			s-14.062,8.236-14.062,18.75C107.813,92.544,113.991,100.78,121.875,100.78z M121.875,72.655c1.913,0,4.688,3.652,4.688,9.375
			c0,5.723-2.775,9.375-4.688,9.375s-4.688-3.652-4.688-9.375C117.187,76.307,119.962,72.655,121.875,72.655z"/>
		<path style="fill:#000;" d="M168.75,100.78c7.884,0,14.063-8.236,14.063-18.75c0-10.514-6.178-18.75-14.063-18.75
			s-14.062,8.236-14.062,18.75C154.688,92.544,160.866,100.78,168.75,100.78z M168.75,72.655c1.913,0,4.688,3.652,4.688,9.375
			c0,5.723-2.775,9.375-4.688,9.375s-4.688-3.652-4.688-9.375C164.062,76.307,166.837,72.655,168.75,72.655z"/>
	</g>
</g>
<g>
</g>
<g>
</g>
<g>
</g>
<g>
</g>
<g>
</g>
<g>
</g>
<g>
</g>
<g>
</g>
<g>
</g>
<g>
</g>
<g>
</g>
<g>
</g>
<g>
</g>
<g>
</g>
<g>
</g>
</svg>
