<?xml version="1.0" encoding="UTF-8" standalone="no"?>
<!-- Generator: Adobe Illustrator 19.0.0, SVG Export Plug-In . SVG Version: 6.00 Build 0)  -->

<svg
   xmlns:dc="http://purl.org/dc/elements/1.1/"
   xmlns:cc="http://creativecommons.org/ns#"
   xmlns:rdf="http://www.w3.org/1999/02/22-rdf-syntax-ns#"
   xmlns:svg="http://www.w3.org/2000/svg"
   xmlns="http://www.w3.org/2000/svg"
   xmlns:sodipodi="http://sodipodi.sourceforge.net/DTD/sodipodi-0.dtd"
   xmlns:inkscape="http://www.inkscape.org/namespaces/inkscape"
   version="1.1"
   id="Capa_1"
   x="0px"
   y="0px"
   viewBox="0 0 496 496"
   style="enable-background:new 0 0 496 496;"
   xml:space="preserve"
   inkscape:version="0.91 r13725"
   sodipodi:docname="leadership.svg"><metadata
   id="metadata57"><rdf:RDF><cc:Work
       rdf:about=""><dc:format>image/svg+xml</dc:format><dc:type
         rdf:resource="http://purl.org/dc/dcmitype/StillImage" /><dc:title></dc:title></cc:Work></rdf:RDF></metadata><defs
   id="defs55" /><sodipodi:namedview
   pagecolor="#001400"
   bordercolor="#666666"
   borderopacity="1"
   objecttolerance="10"
   gridtolerance="10"
   guidetolerance="10"
   inkscape:pageopacity="0"
   inkscape:pageshadow="2"
   inkscape:window-width="701"
   inkscape:window-height="480"
   id="namedview53"
   showgrid="true"
   inkscape:zoom="0.47580645"
   inkscape:cx="248"
   inkscape:cy="245.89831"
   inkscape:window-x="1044"
   inkscape:window-y="427"
   inkscape:window-maximized="0"
   inkscape:current-layer="Capa_1"><inkscape:grid
     type="xygrid"
     id="grid4185" /></sodipodi:namedview>
<g
   id="g3">
	<path
   style="fill:#660015;"
   d="M112,0C67.888,0,32,35.888,32,80v40h8c0-13.256,10.744-24,24-24V80h96v16c13.256,0,24,10.744,24,24   h8V80C192,35.888,156.112,0,112,0z"
   id="path5" />
	<path
   style="fill:#660015;"
   d="M384,0c-44.112,0-80,35.888-80,80v120l56-8v-22.592c-9.752-5.688-17.384-14.608-21.208-25.408H336   c-13.256,0-24-10.744-24-24s10.744-24,24-24v-8c15.368,0,30.104-6.104,40.968-16.968L384,64l7.032,7.032   C401.896,81.896,416.632,88,432,88v8c13.256,0,24,10.744,24,24s-10.744,24-24,24h-2.792c-3.824,10.8-11.456,19.728-21.208,25.408   V192l56,8V80C464,35.888,428.112,0,384,0z"
   id="path7" />
</g>
<path
   style="fill:#000;"
   d="M144,240H16v-5.768c0-11.4,8.12-21.296,19.296-23.536l50.072-10.016L112,227.312l26.632-26.632l19.8,3.96l3.144-15.688  L144,185.44v-11.552c8.008-5.6,14.456-13.24,18.648-22.16C179.04,150.36,192,136.736,192,120c0-14.864-10.232-27.288-24-30.864V72  H56v17.136c-13.768,3.576-24,16-24,30.864c0,16.736,12.96,30.36,29.352,31.736c4.192,8.92,10.64,16.56,18.648,22.16v11.552  l-47.84,9.568C13.52,198.736,0,215.232,0,234.232V256h144V240z M176,120c0,6.032-3.392,11.224-8.328,13.952  c0.208-1.96,0.328-3.944,0.328-5.952v-21.776C172.76,109,176,114.104,176,120z M48,120c0-5.896,3.24-11,8-13.776V128  c0,2.008,0.12,3.992,0.328,5.952C51.392,131.224,48,126.032,48,120z M72,128V88h80v40c0,22.056-17.944,40-40,40S72,150.056,72,128z   M112,184c5.56,0,10.928-0.84,16-2.36v7.048l-16,16l-16-16v-7.048C101.072,183.16,106.44,184,112,184z"
   id="path9" />
<path
   style="fill:#000;"
   d="M463.84,195.008L416,185.44v-11.552c8.008-5.6,14.456-13.24,18.648-22.16C451.04,150.36,464,136.736,464,120  c0-14.864-10.232-27.288-24-30.864V80h-8c-13.336,0-25.872-5.192-35.312-14.624L384,52.688l-12.688,12.688  C361.872,74.808,349.336,80,336,80h-8v9.136c-13.768,3.576-24,16-24,30.864c0,16.736,12.96,30.36,29.352,31.736  c4.192,8.92,10.64,16.56,18.648,22.16v11.552l-17.568,3.512l3.144,15.688l19.8-3.96L384,227.312l26.632-26.632l50.072,10.016  C471.88,212.936,480,222.832,480,234.232V240H352v16h144v-21.768C496,215.232,482.48,198.736,463.84,195.008z M320,120  c0-5.896,3.24-11,8-13.776V128c0,2.008,0.12,3.992,0.328,5.952C323.392,131.224,320,126.032,320,120z M448,120  c0,6.032-3.392,11.224-8.328,13.952c0.208-1.96,0.328-3.944,0.328-5.952v-21.776C444.76,109,448,114.104,448,120z M344,128V95.52  c14.576-1.752,28.072-8.288,38.624-18.832L384,75.312l1.376,1.376C395.928,87.24,409.424,93.768,424,95.52V128  c0,22.056-17.944,40-40,40S344,150.056,344,128z M384,204.688l-16-16v-7.048c5.072,1.52,10.44,2.36,16,2.36s10.928-0.84,16-2.36  v7.048L384,204.688z"
   id="path11" />
<path
   style="fill:#660015;"
   d="M248,144c-61.76,0-112,50.24-112,112v56h8c0-13.256,10.744-24,24-24h8v-8c0-8.84,7.16-16,16-16h60.12  c12.728,0,24.936-5.056,33.944-14.056L296,240l14.624,14.624c6,6,9.376,14.144,9.376,22.624V288h8c13.256,0,24,10.744,24,24h8v-56  C360,194.24,309.76,144,248,144z"
   id="path13" />


<path
   style="fill:#000;"
   d="M347.432,420.128L288,409.32v-4.152c21.688-12.592,36.984-35.016,39.592-61.176H328c17.648,0,32-14.352,32-32  s-14.352-32-32-32v-2.744c0-10.68-4.168-20.728-11.72-28.28L296,228.68l-15.592,15.6C272.84,251.84,262.8,256,252.12,256H192  c-13.232,0-24,10.768-24,24c-17.648,0-32,14.352-32,32s14.352,32,32,32h0.408c2.608,26.16,17.904,48.584,39.592,61.176v4.152  l-59.432,10.808c-16.312,2.968-30.384,12.92-38.608,27.312L82.216,496h331.56l-27.744-48.56  C377.816,433.048,363.744,423.096,347.432,420.128z M328,296c8.824,0,16,7.176,16,16s-7.176,16-16,16V296z M168,328  c-8.824,0-16-7.176-16-16s7.176-16,16-16V328z M184,336v-56c0-4.408,3.584-8,8-8h60.12c14.952,0,29.016-5.824,39.6-16.4l4.28-4.28  l8.968,8.968c4.472,4.464,7.032,10.648,7.032,16.968V336c0,35.288-28.712,64-64,64S184,371.288,184,336z M217.224,480h-107.44  l14.072-24.624c5.872-10.28,15.928-17.392,27.576-19.504L185,429.768l9.656,48.248l26.176-19.64L217.224,480z M205.352,449.984  l-4.616-23.08l11.52-2.096l8.888,13.328L205.352,449.984z M233.44,480l5.336-32h18.448l5.336,32H233.44z M272,413.576L259.72,432  h-23.44L224,413.576v-1.272c7.584,2.392,15.64,3.696,24,3.696c8.36,0,16.416-1.304,24-3.688V413.576z M283.744,424.808l11.52,2.096  l-4.616,23.08l-15.792-11.84L283.744,424.808z M278.776,480l-3.608-21.624l26.176,19.64L311,429.768l33.568,6.104  c11.648,2.12,21.704,9.232,27.576,19.504L386.216,480H278.776z"
   id="path19" />

<g
   id="g23">
</g>
<g
   id="g25">
</g>
<g
   id="g27">
</g>
<g
   id="g29">
</g>
<g
   id="g31">
</g>
<g
   id="g33">
</g>
<g
   id="g35">
</g>
<g
   id="g37">
</g>
<g
   id="g39">
</g>
<g
   id="g41">
</g>
<g
   id="g43">
</g>
<g
   id="g45">
</g>
<g
   id="g47">
</g>
<g
   id="g49">
</g>
<g
   id="g51">
</g>
</svg>