<?xml version="1.0" encoding="iso-8859-1"?>
<!-- Generator: Adobe Illustrator 19.0.0, SVG Export Plug-In . SVG Version: 6.00 Build 0)  -->
<svg version="1.1" id="Capa_1" xmlns="http://www.w3.org/2000/svg" xmlns:xlink="http://www.w3.org/1999/xlink" x="0px" y="0px"
	 viewBox="0 0 496 496" style="enable-background:new 0 0 496 496;" xml:space="preserve">
<g>
	<polygon style="fill:#660015;" points="363.224,352 132.776,352 112.52,405.152 383.48,405.152 	"/>
	<path style="fill:#660015;" d="M168,120c-22.056,0-40-17.944-40-40s17.944-40,40-40s40,17.944,40,40S190.056,120,168,120z"/>
</g>
<path style="fill:#000;" d="M448,320h-32c-2.816,0-5.488,0.576-8,1.472V312c0-13.232-10.768-24-24-24h-9.76l-7.992-32H352v-80h30.248l7.992-32H400v-16
	h-64V96h-16v32h-64v16h9.76l7.992,32H304v80h-14.248l-4.264,17.08L276.944,256H168v-80h32c8.824,0,16-7.176,16-16v-16
	c13.232,0,24-10.768,24-24V40c0-13.232-10.768-24-24-24H72c-13.232,0-24,10.768-24,24v80c0,13.232,10.768,24,24,24v16
	c0,8.824,7.176,16,16,16h32v112h-8c-13.232,0-24,10.768-24,24v9.472c-2.512-0.896-5.184-1.472-8-1.472H48c-13.232,0-24,10.768-24,24
	v128c0,13.232,10.768,24,24,24h32c13.232,0,24-10.768,24-24v-24h288v24c0,13.232,10.768,24,24,24h32c13.232,0,24-10.768,24-24V344
	C472,330.768,461.232,320,448,320z M282.248,144h91.512l-4.008,16h-83.504L282.248,144z M320,176h16v80h-16V176z M353.752,272
	l4.008,16h-59.512l4.008-16H353.752z M267.056,272l8,16H168v-16H267.056z M72,32h32v32H64V40C64,35.584,67.584,32,72,32z M64,120V80
	h40c8.824,0,16-7.176,16-16V32h96c4.416,0,8,3.584,8,8v80c0,4.416-3.584,8-8,8h-88v-16h-16v16H96v-16H80v16h-8
	C67.584,128,64,124.416,64,120z M88,144h112v16H88V144z M152,176v136c0,4.416-3.584,8-8,8s-8-3.584-8-8V176H152z M104,312
	c0-4.416,3.584-8,8-8h8v8c0,13.232,10.768,24,24,24s24-10.768,24-24v-8h216c4.416,0,8,3.584,8,8v32v56h-56v-48h-16v48h-16v-48h-16
	v48h-16v-48h-16v48h-40v-48h-16v48h-16v-48h-16v48h-64v-56V312z M80,480H48c-4.416,0-8-3.584-8-8v-8h16v-16H40v-16h16v-16H40v-16h16
	v-16H40v-16h16v-16H40v-8c0-4.416,3.584-8,8-8h32c4.416,0,8,3.584,8,8v8H72v16h16v16H72v16h16v8v8H72v16h16v16H72v16h16v8
	C88,476.416,84.416,480,80,480z M104,432v-16h288v16H104z M448,480h-32c-4.416,0-8-3.584-8-8v-8h16v-16h-16v-16h16v-16h-16v-8v-8h16
	v-16h-16v-16h16v-16h-16v-8c0-4.416,3.584-8,8-8h32c4.416,0,8,3.584,8,8v8h-16v16h16v16h-16v16h16v16h-16v16h16v16h-16v16h16v8
	C456,476.416,452.416,480,448,480z"/>
<rect style="fill:#000;" x="280" y="320" width="16" height="16"/>
<rect style="fill:#000;" x="312" y="320" width="16" height="16"/>
<rect style="fill:#000;" x="344" y="320" width="16" height="16"/>
<rect style="fill:#000;" x="160" y="72" width="16" height="16"/>
<rect style="fill:#000;" x="320" y="64" width="16" height="16"/>
<path style="fill:#000;" d="M361.936,46.064C352.88,36.992,340.832,32,328,32s-24.88,4.992-33.936,14.064l11.312,11.312
	c12.08-12.096,33.168-12.096,45.248,0L361.936,46.064z"/>
<path style="fill:#000;" d="M328,16c17.096,0,33.168,6.656,45.256,18.744l11.312-11.312C369.456,8.32,349.36,0,328,0s-41.456,8.32-56.568,23.432
	l11.312,11.312C294.832,22.656,310.904,16,328,16z"/>
<g>
</g>
<g>
</g>
<g>
</g>
<g>
</g>
<g>
</g>
<g>
</g>
<g>
</g>
<g>
</g>
<g>
</g>
<g>
</g>
<g>
</g>
<g>
</g>
<g>
</g>
<g>
</g>
<g>
</g>
</svg>
