<?xml version="1.0" encoding="iso-8859-1"?>
<!-- Generator: Adobe Illustrator 19.0.0, SVG Export Plug-In . SVG Version: 6.00 Build 0)  -->
<svg version="1.1" id="Layer_1" xmlns="http://www.w3.org/2000/svg" xmlns:xlink="http://www.w3.org/1999/xlink" x="0px" y="0px"
	 viewBox="0 0 290.626 290.626" style="enable-background:new 0 0 290.626 290.626;" xml:space="preserve">
<g>
	<g>
		<path style="fill:#000;" d="M248.438,60.989v-0.028l-6.291-0.652C240.098,35.723,234.731,0,220.195,0
			c-1.5,0-2.845,0.427-4.172,1.158l-35.255,11.761c-11.606,3.872-23.672,5.831-35.911,5.831h-46.42c-41.353,0-75,33.647-75,75
			c0,33.67,22.308,62.222,52.922,71.672L49.866,187.5H4.688v9.375H53.26l27.52-22.936l28.992,8.283l9.862,12.328
			c1.308,1.631,1.88,3.67,1.622,5.747c-0.267,2.072-1.327,3.905-3,5.156c-3.028,2.269-7.331,1.959-10.008-0.708l-9.464-9.459
			l-26.714,21.37l5.859,7.322l11.133-8.906v38.053H57.356l-9.375-4.688H4.688v9.375h41.081l9.375,4.688h33.919v4.688
			c0,12.923,10.514,23.438,23.438,23.438s23.438-10.514,23.438-23.438V262.5c7.753,0,14.063-6.309,14.063-14.063
			c0-3.614-1.411-6.881-3.656-9.375c2.25-2.494,3.656-5.761,3.656-9.375s-1.411-6.881-3.656-9.375
			c2.25-2.494,3.656-5.761,3.656-9.375s-1.411-6.881-3.656-9.375c2.25-2.494,3.656-5.761,3.656-9.375
			c0-7.753-6.309-14.063-14.063-14.063v-9.375h8.916c12.239,0,24.333,1.959,35.944,5.831l35.283,11.761
			c1.327,0.731,2.733,1.158,4.233,1.158c14.536,0,19.786-35.723,21.834-60.309l6.291-0.652v-0.028
			c9.375-0.53,13.598-16.702,13.598-32.761S257.813,61.519,248.438,60.989z M207.178,121.289
			c-0.581-8.358-0.928-17.541-0.928-27.539s0.347-19.181,0.928-27.539l31.364,3.136c-2.831,6.309-4.167,15.37-4.167,24.403
			s1.336,18.094,4.167,24.403L207.178,121.289z M232.889,59.358l-24.919-2.494c2.667-27.117,7.861-43.505,11.339-46.903l1.2-0.398
			C223.491,11.466,229.894,25.688,232.889,59.358z M123.881,212.953c2.358-1.767,4.097-4.092,5.255-6.703h6.802
			c2.587,0,4.688,2.105,4.688,4.688s-2.1,4.688-4.688,4.688h-17.414C120.412,215.067,122.231,214.186,123.881,212.953z
			 M140.625,229.688c0,2.583-2.1,4.688-4.688,4.688h-18.75c-2.588,0-4.688-2.105-4.688-4.688s2.1-4.688,4.688-4.688h18.75
			C138.525,225,140.625,227.105,140.625,229.688z M126.563,267.188c0,7.753-6.309,14.063-14.063,14.063s-14.063-6.309-14.063-14.063
			v-58.997l3.183,3.178c0.525,0.53,1.111,0.961,1.692,1.406c0.384,2.883,1.612,5.48,3.473,7.538
			c-2.25,2.494-3.656,5.761-3.656,9.375s1.411,6.881,3.656,9.375c-2.25,2.494-3.656,5.761-3.656,9.375
			c0,7.753,6.309,14.063,14.063,14.063h9.375v4.687H126.563z M135.938,253.125h-18.75c-2.588,0-4.688-2.105-4.688-4.688
			s2.1-4.688,4.688-4.688h18.75c2.587,0,4.688,2.105,4.688,4.688S138.525,253.125,135.938,253.125z M140.625,192.188
			c0,2.583-2.1,4.688-4.688,4.688h-5.498c-0.427-2.958-1.561-5.78-3.483-8.184l-0.952-1.191h9.933
			C138.525,187.5,140.625,189.605,140.625,192.188z M126.563,178.125h-8.058l-3.277-4.097l-18.834-5.381
			c0.684,0.019,1.355,0.103,2.044,0.103h28.125V178.125z M144.853,159.375H98.438c-36.187,0-65.625-29.438-65.625-65.625
			S62.25,28.125,98.438,28.125h46.42c13.247,0,26.334-2.123,38.906-6.314l23.175-7.725c-7.673,19.612-10.064,55.458-10.064,79.664
			s2.391,60.052,10.064,79.664l-23.175-7.725C171.192,161.498,158.105,159.375,144.853,159.375z M220.688,177.998l-0.881-0.295
			c-3.666-2.859-9.089-19.322-11.831-47.072l24.914-2.494C229.861,162.192,223.364,176.353,220.688,177.998z M248.438,116.761
			c-1.734-2.203-4.688-10.059-4.688-23.011s2.953-20.808,4.688-23.011c1.734,2.203,4.688,10.059,4.688,23.011
			S250.172,114.558,248.438,116.761z"/>
		<rect x="271.875" y="89.063" style="fill:#000;" width="14.063" height="9.375"/>
		
			<rect x="266.806" y="35.147" transform="matrix(0.9486 -0.3164 0.3164 0.9486 1.4845 88.8108)" style="fill:#000;" width="14.822" height="9.375"/>
		
			<rect x="269.524" y="140.238" transform="matrix(0.3162 -0.9487 0.9487 0.3162 47.4326 361.1051)" style="fill:#000;" width="9.375" height="14.822"/>
		<rect x="126.563" y="18.75" style="fill:#660015;" width="18.75" height="150"/>
	</g>
</g>
<g>
</g>
<g>
</g>
<g>
</g>
<g>
</g>
<g>
</g>
<g>
</g>
<g>
</g>
<g>
</g>
<g>
</g>
<g>
</g>
<g>
</g>
<g>
</g>
<g>
</g>
<g>
</g>
<g>
</g>
</svg>
