<?xml version="1.0" encoding="iso-8859-1"?>
<!-- Generator: Adobe Illustrator 19.0.0, SVG Export Plug-In . SVG Version: 6.00 Build 0)  -->
<svg version="1.1" id="Layer_1" xmlns="http://www.w3.org/2000/svg" xmlns:xlink="http://www.w3.org/1999/xlink" x="0px" y="0px"
	 viewBox="0 0 290.626 290.626" style="enable-background:new 0 0 290.626 290.626;" xml:space="preserve">
<g>
	<g>
		<path style="fill:#000;" d="M117.188,178.125H70.313v-18.75h-9.375v18.75H14.063C6.309,178.125,0,184.434,0,192.188v65.625
			c0,7.753,6.309,14.063,14.062,14.063h28.125v9.375h-9.375v9.375h65.625v-9.375h-9.375v-9.375h28.125
			c7.753,0,14.063-6.309,14.063-14.063v-65.625C131.25,184.434,124.941,178.125,117.188,178.125z M79.688,281.25H51.563v-9.375
			h28.125V281.25z M121.875,257.813c0,2.587-2.1,4.688-4.688,4.688H14.063c-2.587,0-4.687-2.1-4.687-4.688v-65.625
			c0-2.587,2.1-4.688,4.687-4.688h103.125c2.588,0,4.688,2.1,4.688,4.688v65.625H121.875z"/>
		<polygon style="fill:#000;" points="103.125,201.563 107.813,201.563 107.813,248.438 23.438,248.438 23.438,201.563 
			93.75,201.563 93.75,192.188 14.063,192.188 14.063,257.813 117.188,257.813 117.188,192.188 103.125,192.188 		"/>
		<path style="fill:#000;" d="M276.563,178.125h-46.875v-18.75h-9.375v18.75h-46.875c-7.753,0-14.063,6.309-14.063,14.063v65.625
			c0,7.753,6.309,14.063,14.063,14.063h28.125v9.375h-9.375v9.375h65.625v-9.375h-9.375v-9.375h28.125
			c7.753,0,14.063-6.309,14.063-14.063v-65.625C290.625,184.434,284.316,178.125,276.563,178.125z M239.062,281.25h-28.125v-9.375
			h28.125V281.25z M281.25,257.813c0,2.587-2.1,4.688-4.688,4.688H173.437c-2.587,0-4.688-2.1-4.688-4.688v-65.625
			c0-2.587,2.1-4.688,4.688-4.688h103.125c2.587,0,4.688,2.1,4.688,4.688V257.813z"/>
		<polygon style="fill:#000;" points="262.5,201.563 267.188,201.563 267.188,248.438 182.812,248.438 182.812,201.563 
			253.125,201.563 253.125,192.188 173.437,192.188 173.437,257.813 276.563,257.813 276.563,192.188 262.5,192.188 		"/>
		<path style="fill:#000;" d="M173.437,112.5v-9.375h-9.375V93.75h28.125c7.753,0,14.063-6.309,14.063-14.063V14.063
			C206.25,6.309,199.941,0,192.187,0H89.063C81.309,0,75,6.309,75,14.063v65.625c0,7.753,6.309,14.063,14.062,14.063h28.125v9.375
			h-9.375v9.375h28.125v18.75h9.375V112.5H173.437z M84.375,79.688V14.063c0-2.588,2.1-4.688,4.688-4.688h103.125
			c2.587,0,4.688,2.1,4.688,4.688v65.625c0,2.588-2.1,4.688-4.688,4.688H89.063C86.475,84.375,84.375,82.275,84.375,79.688z
			 M126.563,93.75h28.125v9.375h-28.125V93.75z"/>
		<polygon style="fill:#000;" points="192.187,14.063 178.125,14.063 178.125,23.438 182.812,23.438 182.812,70.313 
			98.438,70.313 98.438,23.438 168.75,23.438 168.75,14.063 89.063,14.063 89.063,79.688 192.187,79.688 		"/>
		<rect x="154.688" y="140.625" style="fill:#000;" width="56.25" height="9.375"/>
		<rect x="79.688" y="140.625" style="fill:#000;" width="46.875" height="9.375"/>
		<rect x="0" y="140.625" style="fill:#000;" width="51.562" height="9.375"/>
		<rect x="239.062" y="140.625" style="fill:#000;" width="51.562" height="9.375"/>
		<path style="fill:#660015;" d="M65.625,164.063c-10.341,0-18.75-8.409-18.75-18.75s8.409-18.75,18.75-18.75
			s18.75,8.409,18.75,18.75C84.375,155.653,75.966,164.063,65.625,164.063z"/>
		<path style="fill:#660015;" d="M140.625,164.063c-10.341,0-18.75-8.409-18.75-18.75s8.409-18.75,18.75-18.75
			s18.75,8.409,18.75,18.75C159.375,155.653,150.966,164.063,140.625,164.063z"/>
		<path style="fill:#660015;" d="M225,164.063c-10.341,0-18.75-8.409-18.75-18.75s8.409-18.75,18.75-18.75s18.75,8.409,18.75,18.75
			C243.75,155.653,235.341,164.063,225,164.063z"/>
	</g>
</g>
<g>
</g>
<g>
</g>
<g>
</g>
<g>
</g>
<g>
</g>
<g>
</g>
<g>
</g>
<g>
</g>
<g>
</g>
<g>
</g>
<g>
</g>
<g>
</g>
<g>
</g>
<g>
</g>
<g>
</g>
</svg>
