<?xml version="1.0" encoding="iso-8859-1"?>
<!-- Generator: Adobe Illustrator 19.0.0, SVG Export Plug-In . SVG Version: 6.00 Build 0)  -->
<svg version="1.1" id="Layer_1" xmlns="http://www.w3.org/2000/svg" xmlns:xlink="http://www.w3.org/1999/xlink" x="0px" y="0px"
	 viewBox="0 0 290.626 290.626" style="enable-background:new 0 0 290.626 290.626;" xml:space="preserve">
<g>
	<g>
		<path style="fill:#000;" d="M248.335,188.334c-0.394-7.163-1.941-14.152-4.505-20.902c27.839-15.075,46.795-44.55,46.795-78.37
			C290.626,39.952,250.674,0,201.563,0s-89.062,39.952-89.062,89.063c0,19.58,6.427,37.641,17.175,52.359
			c-5.006,4.795-9.361,10.298-12.755,16.298c-4.294-1.992-8.986-3.033-13.795-3.033c-11.489,0-22.083,6.061-27.994,15.731
			c-4.641-1.106-9.398-1.669-14.194-1.669c-33.599,0.001-60.937,27.339-60.937,60.939s27.337,60.938,60.937,60.938h178.125
			c28.43,0,51.562-23.133,51.562-51.563C290.626,213.839,272.72,192.717,248.335,188.334z M164.063,89.063
			c0-14.306,2.822-26.606,6.923-37.041c7.589,2.119,16.294,3.684,25.889,4.083v28.27h-4.688v9.375h4.688v28.27
			c-9.609,0.403-18.328,1.969-25.927,4.092C166.871,115.683,164.063,103.387,164.063,89.063z M241.206,129.052
			c3.858-10.092,6.497-21.867,7.022-35.302h32.784c-1.022,17.461-7.603,33.45-18.117,46.12
			C259.281,137.461,251.785,132.97,241.206,129.052z M206.251,163.673V131.4c8.053,0.375,15.422,1.669,21.961,3.417
			C221.218,148.528,212.382,158.123,206.251,163.673z M206.251,122.02V93.75h32.602c-0.539,12.305-3.07,23.095-6.708,32.353
			C224.556,123.984,215.846,122.423,206.251,122.02z M206.251,14.419c6.145,5.531,15.009,15.127,22.012,28.898
			c-6.544,1.744-13.927,3.037-22.012,3.412V14.419z M206.251,56.105c9.609-0.403,18.328-1.969,25.927-4.092
			c3.623,9.253,6.136,20.048,6.675,32.363h-32.602V56.105z M248.232,84.375c-0.525-13.439-3.164-25.214-7.022-35.302
			c10.575-3.919,18.075-8.409,21.689-10.819c10.514,12.67,17.095,28.659,18.117,46.12L248.232,84.375L248.232,84.375z
			 M237.446,40.43c-6.478-13.28-14.63-23.109-21.3-29.658c15.413,2.864,29.245,10.172,40.181,20.55
			C252.704,33.6,246.212,37.228,237.446,40.43z M196.876,14.452v32.273c-8.053-0.375-15.422-1.669-21.961-3.417
			C181.909,29.597,190.745,20.002,196.876,14.452z M165.695,40.406c-8.752-3.202-15.253-6.82-18.886-9.094
			c10.931-10.373,24.764-17.677,40.172-20.541C180.32,17.316,172.173,27.141,165.695,40.406z M196.876,131.395v32.311
			c-6.145-5.531-15.009-15.127-22.012-28.898C181.407,133.064,188.79,131.77,196.876,131.395z M186.981,167.353
			c-15.413-2.864-29.245-10.172-40.181-20.55c3.619-2.278,10.116-5.902,18.881-9.108
			C172.163,150.975,180.315,160.805,186.981,167.353z M237.432,137.719c8.752,3.202,15.253,6.82,18.886,9.094
			c-10.931,10.373-24.764,17.677-40.172,20.541C222.807,160.809,230.954,150.984,237.432,137.719z M140.232,38.255
			c3.614,2.409,11.114,6.9,21.689,10.819c-4.308,11.269-7.233,24.539-7.233,39.989s2.925,28.72,7.233,39.989
			c-10.575,3.919-18.075,8.409-21.689,10.819c-11.456-13.8-18.356-31.509-18.356-50.808S128.776,52.055,140.232,38.255z
			 M239.063,281.25H60.939c-28.43,0-51.562-23.133-51.562-51.563s23.133-51.563,51.562-51.563c5.166,0,10.275,0.769,15.192,2.283
			l3.947,1.214l1.702-3.764c3.797-8.381,12.173-13.795,21.347-13.795c4.697,0,9.225,1.383,13.097,3.998l4.523,3.056l2.339-4.936
			c3.061-6.464,7.387-12.389,12.548-17.456c16.308,18.005,39.783,29.4,65.93,29.4c11.944,0,23.33-2.4,33.75-6.684
			c2.447,6.68,3.75,13.594,3.759,20.512l-0.019,4.716l4.223,0.417c21.647,2.147,37.973,20.194,37.973,41.977
			C281.251,262.322,262.323,281.25,239.063,281.25z"/>
		<path style="fill:#660015;" d="M220.313,79.688V64.8c-4.144-2.414-8.916-3.862-14.062-3.862c-10.406,0-19.467,5.662-24.333,14.063
			h-55.355h-11.367c-1.102-3.891-2.625-7.598-4.561-11.058l8.025-8.025l-19.889-19.89l-8.025,8.025
			c-3.459-1.936-7.167-3.459-11.058-4.561V28.125H51.564v11.367c-3.891,1.102-7.598,2.625-11.058,4.561l-8.025-8.025L12.592,55.917
			l8.025,8.025c-1.936,3.46-3.46,7.167-4.561,11.058H4.689v28.125h11.367c1.102,3.891,2.625,7.598,4.561,11.058l-8.025,8.025
			l19.889,19.889l8.025-8.025c3.459,1.936,7.167,3.459,11.058,4.561V150h28.125v-11.367c3.891-1.102,7.598-2.625,11.058-4.561
			l8.025,8.025l19.889-19.889l-8.025-8.025c1.936-3.459,3.459-7.167,4.561-11.058h11.367h55.355
			c4.866,8.4,13.927,14.063,24.333,14.063c5.147,0,9.919-1.448,14.062-3.862V98.438h-18.023l-5.414-9.375l5.414-9.375H220.313z
			 M82.032,117.478H49.22L32.814,89.063L49.22,60.647h32.812l16.406,28.416L82.032,117.478z"/>
		<path style="fill:#000;" d="M84.737,121.875l19.116-32.813L84.737,56.25H46.515L27.4,89.063l19.116,32.813h38.221V121.875z
			 M51.924,65.625h27.403l13.697,23.438L79.328,112.5H51.924L38.228,89.063L51.924,65.625z"/>
	</g>
</g>
<g>
</g>
<g>
</g>
<g>
</g>
<g>
</g>
<g>
</g>
<g>
</g>
<g>
</g>
<g>
</g>
<g>
</g>
<g>
</g>
<g>
</g>
<g>
</g>
<g>
</g>
<g>
</g>
<g>
</g>
</svg>
