<?xml version="1.0" encoding="iso-8859-1"?>
<!-- Generator: Adobe Illustrator 19.0.0, SVG Export Plug-In . SVG Version: 6.00 Build 0)  -->
<svg version="1.1" id="Layer_1" xmlns="http://www.w3.org/2000/svg" xmlns:xlink="http://www.w3.org/1999/xlink" x="0px" y="0px"
	 viewBox="0 0 290.626 290.626" style="enable-background:new 0 0 290.626 290.626;" xml:space="preserve">
<g>
	<g>
		<path style="fill:#660015;" d="M234.375,150h-15l-3.75,9.375h-4.688l-3.75-9.375H191.25l-3.75,9.375h-4.688l-3.75-9.375h-15.938
			l-3.75,9.375h-4.687l-3.75-9.375H126.81c-6.909-13.88-21.197-23.438-37.748-23.438c-23.302,0-42.187,18.886-42.187,42.188
			s18.886,42.188,42.187,42.188c16.556,0,30.844-9.558,37.748-23.438h107.564l14.063-18.75L234.375,150z"/>
		<path style="fill:#000;" d="M290.625,56.25c0-31.017-25.233-56.25-56.25-56.25H56.25C25.233,0,0,25.233,0,56.25
			c0,18.816,9.319,35.461,23.55,45.68c-0.038,0.398-0.112,0.797-0.112,1.195V243.75c0,7.753,6.309,14.063,14.062,14.063h46.875
			v23.438H60.938v9.375h23.437H206.25h23.437v-9.375H206.25v-23.438h46.875c7.753,0,14.063-6.309,14.063-14.063V103.125
			c0-0.398-0.075-0.797-0.113-1.195C281.306,91.711,290.625,75.066,290.625,56.25z M196.875,281.25H93.75v-23.438h103.125V281.25z
			 M253.125,248.438H206.25H84.375H37.5c-2.588,0-4.688-2.105-4.688-4.688v-9.375h225v9.375
			C257.813,246.333,255.712,248.438,253.125,248.438z M257.813,225h-225V107.32c7.144,3.291,15.066,5.18,23.437,5.18h178.125
			c8.372,0,16.294-1.889,23.438-5.18V225z M234.375,103.125H56.25c-25.847,0-46.875-21.028-46.875-46.875S30.403,9.375,56.25,9.375
			h178.125c25.847,0,46.875,21.028,46.875,46.875S260.222,103.125,234.375,103.125z"/>
		<path style="fill:#000;" d="M103.125,42.188c0-15.511-12.614-28.125-28.125-28.125S46.875,26.677,46.875,42.188v4.688h-4.687
			v51.563h65.625V46.875h-4.688V42.188z M56.25,42.188c0-10.341,8.409-18.75,18.75-18.75s18.75,8.409,18.75,18.75v4.688h-37.5
			V42.188z M98.438,89.063H51.563V56.25h46.875V89.063z"/>
		<path style="fill:#000;" d="M70.313,78.384v5.991h9.375v-5.991c2.789-1.627,4.688-4.617,4.688-8.072
			c0-5.17-4.205-9.375-9.375-9.375s-9.375,4.205-9.375,9.375C65.625,73.767,67.523,76.758,70.313,78.384z"/>
		<polygon style="fill:#000;" points="157.012,44.892 145.313,48.694 145.313,37.5 135.938,37.5 135.938,48.694 124.238,44.892 
			121.345,53.808 133.041,57.609 125.813,67.556 133.392,73.069 140.625,63.117 147.858,73.069 155.438,67.556 148.209,57.609 
			159.905,53.808 		"/>
		<polygon style="fill:#000;" points="203.887,44.892 192.187,48.694 192.187,37.5 182.812,37.5 182.812,48.694 171.112,44.892 
			168.22,53.808 179.916,57.609 172.687,67.556 180.267,73.069 187.5,63.117 194.733,73.069 202.312,67.556 195.084,57.609 
			206.78,53.808 		"/>
		<polygon style="fill:#000;" points="250.762,44.892 239.062,48.694 239.062,37.5 229.687,37.5 229.687,48.694 217.987,44.892 
			215.095,53.808 226.791,57.609 219.562,67.556 227.142,73.069 234.375,63.117 241.608,73.069 249.187,67.556 241.959,57.609 
			253.655,53.808 		"/>
		<path style="fill:#000;" d="M70.313,154.688c-7.753,0-14.062,6.309-14.062,14.063s6.309,14.063,14.062,14.063
			s14.062-6.309,14.062-14.063S78.066,154.688,70.313,154.688z M70.313,173.438c-2.588,0-4.688-2.105-4.688-4.688
			s2.1-4.688,4.688-4.688S75,166.167,75,168.75S72.9,173.438,70.313,173.438z"/>
	</g>
</g>
<g>
</g>
<g>
</g>
<g>
</g>
<g>
</g>
<g>
</g>
<g>
</g>
<g>
</g>
<g>
</g>
<g>
</g>
<g>
</g>
<g>
</g>
<g>
</g>
<g>
</g>
<g>
</g>
<g>
</g>
</svg>
