<?xml version="1.0" encoding="iso-8859-1"?>
<!-- Generator: Adobe Illustrator 19.0.0, SVG Export Plug-In . SVG Version: 6.00 Build 0)  -->
<svg version="1.1" id="Layer_1" xmlns="http://www.w3.org/2000/svg" xmlns:xlink="http://www.w3.org/1999/xlink" x="0px" y="0px"
	 viewBox="0 0 290.625 290.625" style="enable-background:new 0 0 290.625 290.625;" xml:space="preserve">
<g>
	<g>
		<path style="fill:#000;" d="M239.062,171.093H168.75v-9.375h70.312c23.264,0,42.187-18.923,42.187-42.188
			c0-21.783-16.322-39.83-37.978-41.972l-4.223-0.417l0.023-4.777c-0.009-33.309-27.347-60.647-60.947-60.647
			c-23.386,0-44.995,13.711-55.045,34.931l-2.334,4.936l-4.523-3.052c-3.872-2.62-8.4-4.003-13.097-4.003
			c-9.173,0-17.55,5.414-21.342,13.795l-1.702,3.764l-3.952-1.214c-4.912-1.514-10.017-2.283-15.192-2.283
			c-28.43,0-51.562,23.133-51.562,51.563s23.133,51.563,51.562,51.563h60.937v9.375H60.937C27.337,171.093,0,143.755,0,110.155
			s27.337-60.938,60.937-60.938c4.8,0,9.558,0.563,14.194,1.669c5.911-9.67,16.505-15.731,27.994-15.731
			c4.809,0,9.492,1.041,13.791,3.028c12.384-21.923,35.892-35.84,61.209-35.84c37.477,0,68.203,29.475,70.209,66.464
			c24.384,4.378,42.291,25.5,42.291,50.723C290.625,147.96,267.492,171.093,239.062,171.093z"/>
		<path style="fill:#660015;" d="M168.75,180.947v-66.103h-46.875v9.375l18.75,14.063l-18.75,14.063v28.603
			c-19.35,8.892-32.812,28.397-32.812,51.084c0,31.064,25.186,56.25,56.25,56.25s56.25-25.186,56.25-56.25
			C201.562,209.339,188.1,189.839,168.75,180.947z M145.312,269.53c-10.355,0-18.75-8.395-18.75-18.75s8.395-18.75,18.75-18.75
			s18.75,8.395,18.75,18.75C164.062,261.135,155.667,269.53,145.312,269.53z"/>
		<path style="fill:#000;" d="M145.312,274.218c-12.923,0-23.437-10.514-23.437-23.438c0-12.924,10.514-23.438,23.437-23.438
			s23.437,10.514,23.437,23.438C168.749,263.704,158.236,274.218,145.312,274.218z M145.312,236.718
			c-7.753,0-14.062,6.309-14.062,14.063s6.309,14.063,14.062,14.063s14.063-6.309,14.063-14.063
			C159.375,243.027,153.066,236.718,145.312,236.718z"/>
		<rect x="103.125" y="110.155" style="fill:#000;" width="84.375" height="9.375"/>
	</g>
</g>
<g>
</g>
<g>
</g>
<g>
</g>
<g>
</g>
<g>
</g>
<g>
</g>
<g>
</g>
<g>
</g>
<g>
</g>
<g>
</g>
<g>
</g>
<g>
</g>
<g>
</g>
<g>
</g>
<g>
</g>
</svg>
