<?xml version="1.0" encoding="iso-8859-1"?>
<!-- Generator: Adobe Illustrator 19.0.0, SVG Export Plug-In . SVG Version: 6.00 Build 0)  -->
<svg version="1.1" id="Capa_1" xmlns="http://www.w3.org/2000/svg" xmlns:xlink="http://www.w3.org/1999/xlink" x="0px" y="0px"
	 viewBox="0 0 496 496" style="enable-background:new 0 0 496 496;" xml:space="preserve">
<g>
	<path style="fill:#660015;" d="M270.128,98.112L248,92.488l-22.128,5.624l-1.72-23.672l-11.624-19.848l20.592-8.92L248,27.28
		l14.872,18.384l20.592,8.92L271.84,74.432L270.128,98.112z"/>
	<path style="fill:#660015;" d="M350.128,98.112L328,92.488l-22.128,5.624l-1.72-23.672l-11.624-19.848l20.592-8.92L328,27.28
		l14.872,18.384l20.592,8.92L351.84,74.432L350.128,98.112z"/>
	<path style="fill:#660015;" d="M310.128,162.112L288,156.488l-22.128,5.624l-1.72-23.672l-11.624-19.848l20.592-8.92L288,91.28
		l14.872,18.384l20.592,8.92l-11.624,19.848L310.128,162.112z"/>
	<path style="fill:#660015;" d="M390.128,162.112L368,156.488l-22.128,5.624l-1.72-23.672l-11.624-19.848l20.592-8.92L368,91.28
		l14.872,18.384l20.592,8.92l-11.624,19.848L390.128,162.112z"/>
	<path style="fill:#660015;" d="M430.128,98.112L408,92.488l-22.128,5.624l-1.72-23.672l-11.624-19.848l20.592-8.92L408,27.28
		l14.872,18.384l20.592,8.92L431.84,74.432L430.128,98.112z"/>
</g>
<path style="fill:#000;" d="M160,0v232h-8h-18.584c-2.984,0-5.416-2.432-5.416-5.416c0-0.456,0.056-0.904,0.168-1.352
	C138.528,209.96,144,192.16,144,173.68V144c0-13.232-10.768-24-24-24s-24,10.768-24,24c0,23.664-9.208,45.904-25.936,62.632
	L51.72,224.976C47.184,229.504,41.16,232,34.744,232H16v-8v-8H0v8v136v8h16v-8v-8h21.336c5.16,0,10.272,1.704,14.4,4.8L66.664,368
	c6.872,5.16,15.4,8,24,8H152h8v120h251.312L496,411.312V0H160z M208,248c4.416,0,8,3.592,8,8c0,4.416-3.584,8-8,8h-56
	c-4.416,0-8-3.584-8-8c0-4.408,3.584-8,8-8H208z M216,288c0,4.416-3.584,8-8,8h-56c-4.416,0-8-3.584-8-8s3.584-8,8-8h56
	C212.416,280,216,283.584,216,288z M144,320c0-4.416,3.584-8,8-8h56c4.416,0,8,3.584,8,8s-3.584,8-8,8h-56
	C147.584,328,144,324.416,144,320z M76.264,355.2L61.336,344c-6.872-5.16-15.4-8-24-8H16v-88h18.744
	c10.688,0,20.736-4.16,28.288-11.712l18.344-18.344C101.128,198.192,112,171.936,112,144c0-4.408,3.584-8,8-8s8,3.592,8,8v29.68
	c0,15.576-4.704,30.568-13.6,43.352l-0.864,1.608c-1.024,2.544-1.536,5.216-1.536,7.944c0,10.504,7.608,19.216,17.592,21.032
	C128.608,250.232,128,253.04,128,256c0,6.168,2.408,11.744,6.24,16c-3.84,4.256-6.24,9.832-6.24,16s2.408,11.744,6.24,16
	c-3.84,4.256-6.24,9.832-6.24,16s2.408,11.744,6.24,16c-3.84,4.256-6.24,9.832-6.24,16c0,2.816,0.576,5.488,1.472,8H90.664
	C85.504,360,80.392,358.296,76.264,355.2z M152,360c-4.416,0-8-3.584-8-8s3.584-8,8-8h56c4.416,0,8,3.584,8,8s-3.584,8-8,8h-16H152z
	 M176,376h16h16c13.232,0,24-10.768,24-24c0-6.168-2.408-11.744-6.24-16c3.84-4.256,6.24-9.832,6.24-16s-2.408-11.744-6.24-16
	c3.84-4.256,6.24-9.832,6.24-16s-2.408-11.744-6.24-16c3.84-4.256,6.24-9.832,6.24-16c0-13.232-10.768-24-24-24h-32V16h304v384h-80
	v80H176V376z M468.688,416L416,468.688V416H468.688z"/>
<path style="fill:#000;" d="M346.344,178.344L324.688,200H248v80h80v-60.688l29.656-29.656L346.344,178.344z M312,264h-48v-48h44.688L288,236.688
	l-10.344-10.344l-11.312,11.312L288,259.312l24-24V264z"/>
<path style="fill:#000;" d="M248,384h80v-80h-80V384z M264,320h48v48h-48V320z"/>
<rect style="fill:#000;" x="368" y="200" width="96" height="16"/>
<rect style="fill:#000;" x="368" y="264" width="96" height="16"/>
<rect style="fill:#000;" x="368" y="232" width="40" height="16"/>
<rect style="fill:#000;" x="424" y="232" width="40" height="16"/>
<rect style="fill:#000;" x="368" y="304" width="96" height="16"/>
<rect style="fill:#000;" x="368" y="368" width="96" height="16"/>
<rect style="fill:#000;" x="368" y="336" width="40" height="16"/>
<rect style="fill:#000;" x="424" y="336" width="40" height="16"/>
<g>
</g>
<g>
</g>
<g>
</g>
<g>
</g>
<g>
</g>
<g>
</g>
<g>
</g>
<g>
</g>
<g>
</g>
<g>
</g>
<g>
</g>
<g>
</g>
<g>
</g>
<g>
</g>
<g>
</g>
</svg>
