<?xml version="1.0" encoding="UTF-8" standalone="no"?>
<!-- Generator: Adobe Illustrator 18.1.1, SVG Export Plug-In . SVG Version: 6.00 Build 0)  -->

<svg
   xmlns:dc="http://purl.org/dc/elements/1.1/"
   xmlns:cc="http://creativecommons.org/ns#"
   xmlns:rdf="http://www.w3.org/1999/02/22-rdf-syntax-ns#"
   xmlns:svg="http://www.w3.org/2000/svg"
   xmlns="http://www.w3.org/2000/svg"
   xmlns:sodipodi="http://sodipodi.sourceforge.net/DTD/sodipodi-0.dtd"
   xmlns:inkscape="http://www.inkscape.org/namespaces/inkscape"
   version="1.1"
   id="Capa_1"
   x="0px"
   y="0px"
   viewBox="0 0 26.988 26.988"
   style="enable-background:new 0 0 26.988 26.988;"
   xml:space="preserve"
   inkscape:version="0.91 r13725"
   sodipodi:docname="rdie5.svg"><metadata
   id="metadata11"><rdf:RDF><cc:Work
       rdf:about=""><dc:format>image/svg+xml</dc:format><dc:type
         rdf:resource="http://purl.org/dc/dcmitype/StillImage" /></cc:Work></rdf:RDF></metadata><defs
   id="defs9" /><sodipodi:namedview
   pagecolor="#fff"
   bordercolor="#666666"
   borderopacity="1"
   objecttolerance="10"
   gridtolerance="10"
   guidetolerance="10"
   inkscape:pageopacity="0"
   inkscape:pageshadow="2"
   inkscape:window-width="701"
   inkscape:window-height="480"
   id="namedview7"
   showgrid="false"
   inkscape:zoom="8.744627"
   inkscape:cx="13.494"
   inkscape:cy="13.379644"
   inkscape:window-x="0"
   inkscape:window-y="0"
   inkscape:window-maximized="0"
   inkscape:current-layer="Capa_1" />
<rect
   style="fill:#fff;fill-opacity:1;stroke:#fff;stroke-width:0;stroke-miterlimit:4;stroke-dasharray:none;stroke-opacity:1"
   id="rect4139"
   width="23.557323"
   height="22.070696"
   x="1.829695"
   y="2.6301866" /><g
   id="g3">
	<path
   style="fill:#660015"
   d="M24.842,0.615H2.147C0.958,0.615,0,1.576,0,2.76v21.467c0,1.184,0.958,2.145,2.147,2.145h22.695   c1.183,0,2.146-0.961,2.146-2.145V2.76C26.989,1.576,26.025,0.615,24.842,0.615z M6.167,8.779C4.633,8.779,3.389,7.535,3.389,6   c0-1.531,1.244-2.777,2.778-2.777S8.945,4.469,8.945,6C8.944,7.536,7.7,8.779,6.167,8.779z M13.495,16.271   c-1.534,0-2.778-1.242-2.778-2.777c0-1.533,1.244-2.777,2.778-2.777c1.532,0,2.778,1.244,2.778,2.777   C16.273,15.029,15.027,16.271,13.495,16.271z M21.164,23.619c-1.533,0-2.777-1.244-2.777-2.777s1.244-2.777,2.777-2.777   s2.777,1.244,2.777,2.777S22.697,23.619,21.164,23.619z M21.005,8.826c-1.535,0-2.779-1.244-2.779-2.775   c0-1.533,1.244-2.777,2.779-2.777c1.533,0,2.777,1.244,2.777,2.777C23.783,7.582,22.539,8.826,21.005,8.826z M6.235,23.556   c-1.533,0-2.776-1.244-2.776-2.777c0-1.535,1.244-2.777,2.776-2.777s2.776,1.242,2.776,2.777   C9.011,22.312,7.768,23.556,6.235,23.556z"
   id="path5" />
	
</g>
</svg>