<?xml version="1.0" encoding="UTF-8" standalone="no"?>
<!-- Generator: Adobe Illustrator 18.1.1, SVG Export Plug-In . SVG Version: 6.00 Build 0)  -->

<svg
   xmlns:dc="http://purl.org/dc/elements/1.1/"
   xmlns:cc="http://creativecommons.org/ns#"
   xmlns:rdf="http://www.w3.org/1999/02/22-rdf-syntax-ns#"
   xmlns:svg="http://www.w3.org/2000/svg"
   xmlns="http://www.w3.org/2000/svg"
   xmlns:sodipodi="http://sodipodi.sourceforge.net/DTD/sodipodi-0.dtd"
   xmlns:inkscape="http://www.inkscape.org/namespaces/inkscape"
   version="1.1"
   id="Capa_1"
   x="0px"
   y="0px"
   viewBox="0 0 26.989 26.989"
   style="enable-background:new 0 0 26.989 26.989;"
   xml:space="preserve"
   inkscape:version="0.91 r13725"
   sodipodi:docname="rdie3.svg"><metadata
   id="metadata71"><rdf:RDF><cc:Work
       rdf:about=""><dc:format>image/svg+xml</dc:format><dc:type
         rdf:resource="http://purl.org/dc/dcmitype/StillImage" /></cc:Work></rdf:RDF></metadata><defs
   id="defs69" /><sodipodi:namedview
   pagecolor="#fff"
   bordercolor="#666666"
   borderopacity="1"
   objecttolerance="10"
   gridtolerance="10"
   guidetolerance="10"
   inkscape:pageopacity="0"
   inkscape:pageshadow="2"
   inkscape:window-width="701"
   inkscape:window-height="480"
   id="namedview67"
   showgrid="false"
   inkscape:zoom="8.7443031"
   inkscape:cx="13.4945"
   inkscape:cy="13.38014"
   inkscape:window-x="0"
   inkscape:window-y="0"
   inkscape:window-maximized="0"
   inkscape:current-layer="Capa_1" />
<rect
   style="fill:#fff;fill-opacity:1;stroke:#fff;stroke-width:0;stroke-miterlimit:4;stroke-dasharray:none;stroke-opacity:1"
   id="rect4199"
   width="23.443834"
   height="23.786915"
   x="1.6010424"
   y="1.3723221" /><g
   id="g3">
	<path
   style="fill:#660015"
   d="M0.616,2.148v22.695c0,1.186,0.959,2.146,2.145,2.146h21.467c1.184,0,2.146-0.961,2.146-2.146V2.148   C26.374,0.967,25.41,0,24.227,0H2.761C1.575,0,0.616,0.967,0.616,2.148z M8.778,20.824c0,1.531-1.242,2.779-2.777,2.779   c-1.533,0-2.777-1.248-2.777-2.779c0-1.533,1.244-2.779,2.777-2.779C7.536,18.045,8.778,19.291,8.778,20.824z M23.695,5.598   c0,1.535-1.242,2.777-2.777,2.777c-1.533,0-2.779-1.242-2.779-2.777c0-1.533,1.246-2.777,2.779-2.777   C22.453,2.82,23.695,4.064,23.695,5.598z M16.27,13.496c0,1.535-1.242,2.779-2.777,2.779c-1.531,0-2.777-1.244-2.777-2.779   c0-1.533,1.246-2.777,2.777-2.777C15.028,10.719,16.27,11.963,16.27,13.496z"
   id="path5" />
	<g
   id="g7">
	</g>
	<g
   id="g9">
	</g>
	<g
   id="g11">
	</g>
	<g
   id="g13">
	</g>
	<g
   id="g15">
	</g>
	<g
   id="g17">
	</g>
	<g
   id="g19">
	</g>
	<g
   id="g21">
	</g>
	<g
   id="g23">
	</g>
	<g
   id="g25">
	</g>
	<g
   id="g27">
	</g>
	<g
   id="g29">
	</g>
	<g
   id="g31">
	</g>
	<g
   id="g33">
	</g>
	<g
   id="g35">
	</g>
</g>
<g
   id="g37">
</g>
<g
   id="g39">
</g>
<g
   id="g41">
</g>
<g
   id="g43">
</g>
<g
   id="g45">
</g>
<g
   id="g47">
</g>
<g
   id="g49">
</g>
<g
   id="g51">
</g>
<g
   id="g53">
</g>
<g
   id="g55">
</g>
<g
   id="g57">
</g>
<g
   id="g59">
</g>
<g
   id="g61">
</g>
<g
   id="g63">
</g>
<g
   id="g65">
</g>
</svg>