<?xml version="1.0" encoding="iso-8859-1"?>
<!-- Generator: Adobe Illustrator 19.0.0, SVG Export Plug-In . SVG Version: 6.00 Build 0)  -->
<svg version="1.1" id="Capa_1" xmlns="http://www.w3.org/2000/svg" xmlns:xlink="http://www.w3.org/1999/xlink" x="0px" y="0px"
	 viewBox="0 0 496 496" style="enable-background:new 0 0 496 496;" xml:space="preserve">
<g>
	<circle style="fill:#660015;" cx="96" cy="144" r="56"/>
	<path style="fill:#660015;" d="M488,252.904c0-7.792-4.744-14.808-11.984-17.696l-20.96-8.384l-30.888,92.664l20.912,7.464
		c1.928,0.688,3.968,1.04,6.016,1.04c7.704,0,14.544-4.928,16.976-12.24l18.944-56.824C487.672,256.992,488,254.952,488,252.904z"/>
	<polygon style="fill:#660015;" points="266.072,23.488 248,8 232,8 104,368 120,376 141.648,376 265.88,24 	"/>
</g>
<path style="fill:#000;" d="M464,332.488c5.36-3.088,9.608-8.024,11.664-14.192l18.944-56.832c0.92-2.76,1.392-5.632,1.392-8.56
	c0-11.136-6.68-20.992-17.016-25.136l-115.888-46.352l-5.608,16.824l-39.528-16.792l19.232-55.568l-36.424-36.424L313.36,53.48
	L250.96,0h-24.608L180.84,128h-67.08c-4.392-4.872-10.696-8-17.76-8c-13.232,0-24,10.768-24,24s10.768,24,24,24
	c1.456,0,2.872-0.184,4.256-0.432l49.072,49.072L94.096,371.992L118.112,384h79.568l14-40h50.016l28.896-83.48l41.016,15.376
	l-5.664,17L384,313.64V368h-60.64L288,429.872V496h208v-66.128l-32-56V332.488z M352.416,213.464l-5.264,15.792l-39.872-16.944
	l5.44-15.712L352.416,213.464z M88,144c0-4.416,3.584-8,8-8s8,3.584,8,8s-3.584,8-8,8S88,148.416,88,144z M114.464,159.152
	C117.872,155,120,149.776,120,144h55.152l-19.896,55.952L114.464,159.152z M186.32,368h-64.432l-7.984-3.992L237.648,16h7.392
	l49.6,42.512L200.32,328H200v0.912L186.32,368z M250.304,328H217.28l77.624-221.784l23.904,23.904L250.304,328z M295.832,245.392
	l6.208-17.936l40.04,17.016l-5.408,16.232L295.832,245.392z M372.904,202.576l100.144,40.056c4.216,1.688,6.952,5.72,6.952,10.272
	c0,1.192-0.184,2.376-0.56,3.504l-18.944,56.832c-1.712,5.136-7.64,7.984-12.728,6.192l-101.704-36.328L372.904,202.576z
	 M400,319.352l42.408,15.144c1.816,0.64,3.696,1.008,5.592,1.232V368h-48V319.352z M304,440h16v-16h-10.216l22.856-40h118.72
	l22.856,40H336v16h80v40H304V440z M448,440v40h-16v-40H448z M464,480v-40h16v40H464z"/>
<path style="fill:#000;" d="M96,224c-44.112,0-80-35.888-80-80s35.888-80,80-80V48C43.064,48,0,91.064,0,144s43.064,96,96,96V224z"/>
<path style="fill:#000;" d="M96,104V88c-30.872,0-56,25.128-56,56s25.128,56,56,56v-16c-22.056,0-40-17.944-40-40S73.944,104,96,104z"/>
<g>
</g>
<g>
</g>
<g>
</g>
<g>
</g>
<g>
</g>
<g>
</g>
<g>
</g>
<g>
</g>
<g>
</g>
<g>
</g>
<g>
</g>
<g>
</g>
<g>
</g>
<g>
</g>
<g>
</g>
</svg>
