<?xml version="1.0" encoding="iso-8859-1"?>
<!-- Generator: Adobe Illustrator 19.0.0, SVG Export Plug-In . SVG Version: 6.00 Build 0)  -->
<svg version="1.1" id="Capa_1" xmlns="http://www.w3.org/2000/svg" xmlns:xlink="http://www.w3.org/1999/xlink" x="0px" y="0px"
	 viewBox="0 0 496.004 496.004" style="enable-background:new 0 0 496.004 496.004;" xml:space="preserve">
<path style="fill:#660015;" d="M373.01,496.004H122.994c-7.096,0-13.792-3.112-18.36-8.536c-4.568-5.432-6.488-12.544-5.288-19.536
	l28.24-163.816c-36.312-34.136-56.504-81.824-55.552-131.568C73.81,80.684,146.986,4.996,238.642,0.244
	c48.84-2.52,95.184,14.544,130.52,48.104c35.36,33.576,54.84,78.912,54.84,127.656c0,48.4-20.2,94.832-55.584,128.112l28.24,163.816
	c1.2,6.992-0.72,14.112-5.288,19.536C386.802,492.892,380.106,496.004,373.01,496.004z"/>
<g>
	<path style="fill:#000;" d="M343.794,283.268c30.64-27.384,48.208-66.48,48.208-107.264c0-79.4-64.592-144-143.992-144
		c-2.56,0-5.144,0.064-7.712,0.2C166.586,36.02,105.45,99.252,104.026,173.156c-0.808,41.896,16.76,82.032,48.176,110.112
		l9.92,8.864l-29.624,171.872h179.504v-16H151.498l27.896-161.88l-16.52-14.784c-26.528-23.712-41.768-57.088-42.648-92.264
		c16.464,14.48,65.984,52.928,127.776,52.928c61.872,0,111.44-38.544,127.84-52.984c-0.848,35.136-16.224,68.648-42.712,92.328
		l-16.512,14.776l27.888,161.88h-16.504v16h35.504L333.874,292.14L343.794,283.268z M241.154,48.18
		c66.312-3.44,122.792,44.328,133.032,107.36c-17.944-15.416-66.328-51.536-126.184-51.536c-59.816,0-108.168,36.064-126.144,51.504
		C131.618,97.844,181.698,51.26,241.154,48.18z M296.002,168.004c0,26.472-21.528,48-48,48s-48-21.528-48-48s21.528-48,48-48
		C274.474,120.004,296.002,141.532,296.002,168.004z M196.962,129.556c-8.096,10.72-12.96,24.008-12.96,38.448
		c0,14.416,4.848,27.696,12.928,38.408c-30.576-11.176-54.28-29.272-65-38.416C142.634,158.836,166.33,140.716,196.962,129.556z
		 M299.042,206.452c8.096-10.72,12.96-24.008,12.96-38.448c0-14.416-4.848-27.696-12.928-38.408
		c30.576,11.176,54.28,29.264,65,38.416C353.37,177.172,329.674,195.292,299.042,206.452z"/>
	<path style="fill:#000;" d="M248.002,248.004c-13.232,0-24,10.768-24,24s10.768,24,24,24c13.232,0,24-10.768,24-24
		S261.234,248.004,248.002,248.004z M248.002,280.004c-4.416,0-8-3.584-8-8s3.584-8,8-8c4.416,0,8,3.584,8,8
		S252.418,280.004,248.002,280.004z"/>
	<path style="fill:#000;" d="M248.002,312.004c-13.232,0-24,10.768-24,24s10.768,24,24,24c13.232,0,24-10.768,24-24
		S261.234,312.004,248.002,312.004z M248.002,344.004c-4.416,0-8-3.584-8-8s3.584-8,8-8c4.416,0,8,3.584,8,8
		S252.418,344.004,248.002,344.004z"/>
	<path style="fill:#000;" d="M248.002,376.004c-13.232,0-24,10.768-24,24s10.768,24,24,24c13.232,0,24-10.768,24-24
		S261.234,376.004,248.002,376.004z M248.002,408.004c-4.416,0-8-3.584-8-8s3.584-8,8-8c4.416,0,8,3.584,8,8
		S252.418,408.004,248.002,408.004z"/>
</g>
<g>
</g>
<g>
</g>
<g>
</g>
<g>
</g>
<g>
</g>
<g>
</g>
<g>
</g>
<g>
</g>
<g>
</g>
<g>
</g>
<g>
</g>
<g>
</g>
<g>
</g>
<g>
</g>
<g>
</g>
</svg>
