<?xml version="1.0" encoding="iso-8859-1"?>
<!-- Generator: Adobe Illustrator 19.0.0, SVG Export Plug-In . SVG Version: 6.00 Build 0)  -->
<svg version="1.1" id="Layer_1" xmlns="http://www.w3.org/2000/svg" xmlns:xlink="http://www.w3.org/1999/xlink" x="0px" y="0px"
	 viewBox="0 0 290.629 290.629" style="enable-background:new 0 0 290.629 290.629;" xml:space="preserve">
<g>
	<g>
		<polygon style="fill:#660015;" points="131.25,63.284 159.375,63.284 159.375,39.846 164.062,25.784 154.687,2.346 135.937,2.346 
			126.562,25.784 131.25,39.846 		"/>
		<path style="fill:#660015;" d="M145.312,110.159c-5.044,0-9.802,1.163-14.062,3.197v71.803h28.125v-71.803
			C155.114,111.321,150.356,110.159,145.312,110.159z"/>
		<path style="fill:#000;" d="M290.625,133.595v-13.575l-1.547-1.397c-6.061-5.461-13.833-8.47-21.891-8.47
			c-10.73,0-20.798,5.325-26.897,14.063h-12.352l-11.072-34.073L192.96,97.91c-5.583-5.916-12.248-10.772-19.523-14.236V58.596
			h-56.25v25.087c-7.275,3.464-13.941,8.32-19.523,14.236l-23.906-7.767l-11.067,34.069H50.339
			c-6.103-8.737-16.167-14.063-26.897-14.063c-8.058,0-15.83,3.009-21.891,8.47l-1.547,1.397v13.57h20.058l3.127,9.375l-3.127,9.375
			H0v13.575l1.547,1.397c6.061,5.461,13.833,8.47,21.891,8.47c10.73,0,20.798-5.325,26.897-14.063h32.18
			c1.303,4.359,3.014,8.587,5.231,12.637L72.97,194.706l39.534,28.72v50.794c0,7.753,6.309,14.063,14.062,14.063h37.5
			c7.753,0,14.063-6.309,14.063-14.063v-50.798l39.534-28.72l-14.775-20.344c2.217-4.05,3.928-8.278,5.231-12.637h32.175
			c6.103,8.738,16.167,14.063,26.897,14.063c8.058,0,15.83-3.009,21.891-8.47l1.547-1.397v-13.57h-20.058l-3.127-9.375l3.127-9.375
			h20.054V133.595z M80.433,152.345H45.066l-1.355,2.339c-4.186,7.233-11.953,11.723-20.273,11.723c-5.02,0-9.9-1.655-13.95-4.688
			h17.325l6.248-18.75l-6.248-18.75H9.488c4.045-3.033,8.925-4.688,13.95-4.688c8.32,0,16.092,4.491,20.273,11.723l1.355,2.339
			h14.573l-3.262,10.05l23.902,7.772c0.028,0.211,0.08,0.412,0.108,0.623C80.405,152.139,80.419,152.242,80.433,152.345z
			 M112.5,199.22c-2.588,0-4.688-2.1-4.688-4.688s2.1-4.688,4.688-4.688h65.625c2.588,0,4.688,2.1,4.688,4.688
			s-2.1,4.688-4.688,4.688H112.5z M112.5,208.595v3.244l-7.519-5.461C107.161,207.766,109.73,208.595,112.5,208.595z
			 M164.062,278.909h-37.5c-2.588,0-4.688-2.1-4.688-4.688v-65.625h9.375v60.938h9.375v-60.938H150v60.938h9.375v-60.938h9.375
			v65.625C168.75,276.809,166.65,278.909,164.062,278.909z M178.125,208.595c2.77,0,5.339-0.83,7.519-2.222l-7.519,5.466V208.595z
			 M204.567,192.626l-17.953,13.045c3.366-2.573,5.573-6.586,5.573-11.138c0-7.753-6.309-14.063-14.062-14.063h-32.812H112.5
			c-7.753,0-14.062,6.309-14.062,14.063c0,4.552,2.208,8.564,5.573,11.138l-17.953-13.045l12.9-17.752l-1.631-2.667
			c-3.028-4.964-5.147-10.261-6.506-15.783l-0.113-0.473c-0.314-1.312-0.544-2.498-0.755-3.666c-0.262-1.575-0.53-3.145-0.661-4.758
			l-0.253-3.117l-20.855-6.773l11.587-35.667l20.855,6.778l2.034-2.372c5.737-6.68,12.998-11.981,21.014-15.323l2.883-1.205V67.971
			h37.5v21.872l2.883,1.205c8.016,3.342,15.281,8.644,21.014,15.323l2.034,2.372l20.855-6.778l11.587,35.667l-20.855,6.773
			l-0.253,3.117c-0.127,1.608-0.398,3.173-0.656,4.744c-0.211,1.172-0.441,2.362-0.755,3.68l-0.131,0.548
			c-1.359,5.498-3.473,10.777-6.488,15.708l-1.631,2.667L204.567,192.626z M263.808,161.72h17.325
			c-4.045,3.033-8.925,4.688-13.95,4.688c-8.32,0-16.092-4.491-20.273-11.723l-1.35-2.339h-35.367
			c0.014-0.103,0.028-0.202,0.047-0.305c0.028-0.211,0.084-0.417,0.108-0.628l23.902-7.772l-3.267-10.045h14.573l1.355-2.339
			c4.186-7.233,11.953-11.723,20.273-11.723c5.02,0,9.9,1.655,13.95,4.688h-17.325l-6.248,18.75L263.808,161.72z"/>
		<path style="fill:#000;" d="M182.812,142.97c0-20.677-16.823-37.5-37.5-37.5s-37.5,16.823-37.5,37.5s16.823,37.5,37.5,37.5
			S182.812,163.647,182.812,142.97z M145.312,171.095c-8.302,0-15.75-3.637-20.906-9.375h6.844v-9.375h-12.422
			c-1.045-2.939-1.641-6.084-1.641-9.375s0.6-6.436,1.641-9.375h12.422v-9.375h-6.844c5.152-5.737,12.6-9.375,20.906-9.375
			s15.75,3.638,20.906,9.375h-6.844v9.375h12.422c1.045,2.939,1.641,6.084,1.641,9.375s-0.6,6.436-1.641,9.375h-12.422v9.375h6.844
			C161.062,167.458,153.614,171.095,145.312,171.095z"/>
	</g>
</g>
<g>
</g>
<g>
</g>
<g>
</g>
<g>
</g>
<g>
</g>
<g>
</g>
<g>
</g>
<g>
</g>
<g>
</g>
<g>
</g>
<g>
</g>
<g>
</g>
<g>
</g>
<g>
</g>
<g>
</g>
</svg>
