<?xml version="1.0" encoding="iso-8859-1"?>
<!-- Generator: Adobe Illustrator 19.0.0, SVG Export Plug-In . SVG Version: 6.00 Build 0)  -->
<svg version="1.1" id="Capa_1" xmlns="http://www.w3.org/2000/svg" xmlns:xlink="http://www.w3.org/1999/xlink" x="0px" y="0px"
	 viewBox="0 0 496 496" style="enable-background:new 0 0 496 496;" xml:space="preserve">
<path style="fill:#68bde1;" d="M248,112c-44.112,0-80,35.888-80,80v48h8c0-13.256,10.744-24,24-24c0-8.84,7.16-16,16-16h64
	c8.84,0,16,7.16,16,16c13.256,0,24,10.744,24,24h8v-48C328,147.888,292.112,112,248,112z"/>
<path style="fill:#fff;" d="M436.448,211.536l15.72-3.024C436.264,125.888,370.104,59.696,287.52,43.8l-3.032,15.712
	C360.712,74.176,421.784,135.272,436.448,211.536z"/>
<path style="fill:#fff;" d="M211.504,59.504L208.48,43.8C125.896,59.696,59.736,125.888,43.832,208.512l15.72,3.024
	C74.216,135.272,135.288,74.176,211.504,59.504z"/>
<path style="fill:#fff;" d="M72.656,234.208l15.952,1.24c6.144-78.936,67.904-140.68,146.856-146.808l-1.232-15.952
	C147.368,79.432,79.416,147.36,72.656,234.208z"/>
<path style="fill:#fff;" d="M72.656,261.8c0.76,9.624,2.296,19.192,4.576,28.44l15.528-3.832c-2.072-8.4-3.472-17.096-4.16-25.848L72.656,261.8z"/>
<path style="fill:#fff;" d="M59.552,284.464l-15.72,3.024c15.896,82.624,82.064,148.816,164.64,164.712l3.032-15.712
	C135.288,421.824,74.216,360.728,59.552,284.464z"/>
<path style="fill:#fff;" d="M436.488,284.496c-14.664,76.208-75.76,137.272-152.016,151.952l3.016,15.712c82.632-15.896,148.824-82.064,164.72-164.64
	L436.488,284.496z"/>
<path style="fill:#fff;" d="M423.312,261.76l-15.952-1.232c-3.032,39.072-19.72,73.904-45.336,99.896L349.6,331.44
	c-4.888-11.424-15.008-20.04-27.064-23.056L280,297.752v-3.864c8.008-5.6,14.456-13.24,18.648-22.16
	C315.04,270.36,328,256.736,328,240c0-15.32-10.832-28.136-25.24-31.248C299.664,199.072,290.688,192,280,192h-64
	c-10.688,0-19.664,7.072-22.76,16.752C178.832,211.864,168,224.68,168,240c0,16.736,12.96,30.36,29.352,31.736
	c4.192,8.92,10.64,16.56,18.648,22.16v3.864l-42.536,10.632c-12.056,3.016-22.168,11.632-27.064,23.048l-12.32,28.736
	c-16.296-16.536-29.128-36.712-37.08-59.52l-15.112,5.264c22.984,65.904,82.784,111.984,152.344,117.384l1.232-15.952
	c-33.296-2.584-64.064-15.504-88.848-35.824l14.48-33.792c2.936-6.848,9.008-12.016,16.232-13.832l44.208-11.048L248,339.312
	l26.456-26.456l44.208,11.048c7.224,1.808,13.296,6.976,16.232,13.832l14.6,34.064c-24.488,20.04-55.112,32.952-88.944,35.584
	l1.232,15.952C348.64,416.584,416.568,348.632,423.312,261.76z M312,240c0,6.032-3.392,11.224-8.328,13.952
	c0.208-1.96,0.328-3.944,0.328-5.952v-21.776C308.76,229,312,234.104,312,240z M184,240c0-5.896,3.24-11,8-13.776V248
	c0,2.008,0.12,3.992,0.328,5.952C187.392,251.224,184,246.032,184,240z M208,248v-32c0-4.408,3.584-8,8-8h64c4.416,0,8,3.592,8,8v32
	c0,22.056-17.944,40-40,40S208,270.056,208,248z M233.288,301.976c4.696,1.28,9.616,2.024,14.712,2.024
	c5.096,0,10.016-0.744,14.712-2.024L248,316.688L233.288,301.976z"/>
<path style="fill:#fff;" d="M408.024,235.448l15.952-1.232c-0.744-9.576-2.28-19.152-4.576-28.448l-15.536,3.832
	C405.952,218.048,407.352,226.744,408.024,235.448z"/>
<path style="fill:#fff;" d="M399.632,195.336l15.112-5.264C391.76,124.168,331.96,78.088,262.4,72.688l-1.232,15.952
	C324.392,93.552,378.744,135.432,399.632,195.336z"/>
<g>
	<polygon style="fill:#68bde1;" points="248,387.712 182.608,464 224,464 224,496 272,496 272,464 313.392,464 	"/>
	<polygon style="fill:#68bde1;" points="464,224 464,182.608 387.712,248 464,313.392 464,272 496,272 496,224 	"/>
	<polygon style="fill:#68bde1;" points="272,32 272,0 224,0 224,32 182.608,32 248,108.288 313.392,32 	"/>
	<polygon style="fill:#68bde1;" points="108.288,248 32,182.608 32,224 0,224 0,272 32,272 32,313.392 	"/>
</g>
<g>
</g>
<g>
</g>
<g>
</g>
<g>
</g>
<g>
</g>
<g>
</g>
<g>
</g>
<g>
</g>
<g>
</g>
<g>
</g>
<g>
</g>
<g>
</g>
<g>
</g>
<g>
</g>
<g>
</g>
</svg>
