<?xml version="1.0" encoding="iso-8859-1"?>
<!-- Generator: Adobe Illustrator 19.0.0, SVG Export Plug-In . SVG Version: 6.00 Build 0)  -->
<svg version="1.1" id="Layer_1" xmlns="http://www.w3.org/2000/svg" xmlns:xlink="http://www.w3.org/1999/xlink" x="0px" y="0px"
	 viewBox="0 0 290.626 290.626" style="enable-background:new 0 0 290.626 290.626;" xml:space="preserve">
<g>
	<g>
		<rect x="173.437" y="98.438" style="fill:#fff;" width="18.75" height="9.375"/>
		<polygon style="fill:#fff;" points="210.937,126.563 239.062,126.563 239.062,229.688 51.563,229.688 51.563,126.563 
			154.688,126.563 154.688,117.188 42.188,117.188 42.188,239.063 248.437,239.063 248.437,117.188 210.937,117.188 		"/>
		<rect x="173.437" y="117.188" style="fill:#fff;" width="18.75" height="9.375"/>
		<path style="fill:#fff;" d="M290.625,117.188c0-25.223-17.911-46.345-42.291-50.723C246.328,29.475,215.606,0,178.125,0
			c-25.322,0-48.83,13.917-61.209,35.841c-4.294-1.987-8.981-3.028-13.791-3.028c-11.489,0-22.083,6.061-27.994,15.731
			c-4.631-1.106-9.394-1.669-14.194-1.669C27.338,46.875,0,74.213,0,107.813c0,18.656,8.761,36.314,23.437,47.841v83.409
			c0,10.341,8.409,18.75,18.75,18.75h60.937v23.438h-18.75v9.375h18.75H187.5h18.75v-9.375H187.5v-23.438h60.937
			c10.341,0,18.75-8.409,18.75-18.75v-78.834C281.667,150.741,290.625,134.555,290.625,117.188z M178.125,281.25H112.5v-23.438
			h65.625V281.25z M267.188,148.453v-31.266c0-10.341-8.409-18.75-18.75-18.75h-37.5v9.375h37.5c5.17,0,9.375,4.205,9.375,9.375
			v121.875c0,5.17-4.205,9.375-9.375,9.375H187.5h-84.375H42.188c-5.17,0-9.375-4.205-9.375-9.375V117.188
			c0-5.17,4.205-9.375,9.375-9.375h112.5v-9.375h-112.5c-10.341,0-18.75,8.409-18.75,18.75v25.805
			c-8.892-9.483-14.062-22.031-14.062-35.18c0-28.43,23.133-51.563,51.562-51.563c5.17,0,10.28,0.769,15.192,2.283l3.947,1.219
			l1.706-3.769c3.792-8.381,12.169-13.795,21.342-13.795c4.692,0,9.225,1.383,13.097,4.003l4.523,3.052l2.334-4.936
			c10.05-21.22,31.655-34.931,55.045-34.931c33.6,0,60.937,27.337,60.942,60.703l-0.019,4.72l4.223,0.417
			c21.656,2.142,37.978,20.189,37.978,41.972C281.25,129.211,275.977,140.531,267.188,148.453z"/>
		<path style="fill:#68bde1;" d="M103.125,210.938H75v-75h28.125V210.938z"/>
		<path style="fill:#68bde1;" d="M140.625,210.938H112.5v-56.25h28.125V210.938z"/>
		<path style="fill:#68bde1;" d="M178.125,210.938H150V84.375h28.125V210.938z"/>
		<path style="fill:#68bde1;" d="M215.625,210.938H187.5v-150h28.125V210.938z"/>
		<rect x="65.625" y="201.563" style="fill:#fff;" width="159.375" height="9.375"/>
	</g>
</g>
<g>
</g>
<g>
</g>
<g>
</g>
<g>
</g>
<g>
</g>
<g>
</g>
<g>
</g>
<g>
</g>
<g>
</g>
<g>
</g>
<g>
</g>
<g>
</g>
<g>
</g>
<g>
</g>
<g>
</g>
</svg>
