<?xml version="1.0" encoding="iso-8859-1"?>
<!-- Generator: Adobe Illustrator 19.0.0, SVG Export Plug-In . SVG Version: 6.00 Build 0)  -->
<svg version="1.1" id="Capa_1" xmlns="http://www.w3.org/2000/svg" xmlns:xlink="http://www.w3.org/1999/xlink" x="0px" y="0px"
	 viewBox="0 0 496 496" style="enable-background:new 0 0 496 496;" xml:space="preserve">
<path style="fill:#68bde1;" d="M280,160v104l-21.192,56.512C257.12,325.016,252.816,328,248,328s-9.12-2.984-10.808-7.488L216,264
	V160H80v240h336V160H280z"/>
<path style="fill:#fff;" d="M480,416V136c0-22.056-17.944-40-40-40H288V40c0-22.056-17.944-40-40-40s-40,17.944-40,40v56H56c-22.056,0-40,17.944-40,40
	v280H0v40c0,22.056,17.944,40,40,40h416c22.056,0,40-17.944,40-40v-40H480z M268.456,272l-17.136,45.704
	c-1.032,2.752-5.6,2.76-6.632-0.008L227.544,272H268.456z M272,256h-16V128h-16v128h-16V96h16v16h16V96h16V256z M272,80h-48V64h48
	V80z M248,16c13.232,0,24,10.768,24,24v8h-48v-8C224,26.768,234.768,16,248,16z M32,136c0-13.232,10.768-24,24-24h152v16H64
	c-8.824,0-16,7.176-16,16v256h16V144h144v121.456l21.696,57.856C232.536,330.896,239.896,336,248,336s15.464-5.104,18.304-12.68
	L288,265.456V144h144v256h16V144c0-8.824-7.176-16-16-16H288v-16h152c13.232,0,24,10.768,24,24v280H32V136z M176,432h144v8
	c0,4.416-3.592,8-8,8H184c-4.408,0-8-3.584-8-8V432z M480,456c0,13.232-10.768,24-24,24H40c-13.232,0-24-10.768-24-24v-24h144v8
	c0,13.232,10.768,24,24,24h128c13.232,0,24-10.768,24-24v-8h144V456z"/>
<path style="fill:#fff;" d="M192,192h-80v80h80V192z M176,256h-48v-48h48V256z"/>
<rect style="fill:#fff;" x="304" y="192" width="80" height="16"/>
<rect style="fill:#fff;" x="304" y="224" width="80" height="16"/>
<rect style="fill:#fff;" x="304" y="256" width="80" height="16"/>
<rect style="fill:#fff;" x="112" y="288" width="80" height="16"/>
<rect style="fill:#fff;" x="304" y="288" width="80" height="16"/>
<rect style="fill:#fff;" x="288" y="320" width="96" height="16"/>
<rect style="fill:#fff;" x="112" y="320" width="96" height="16"/>
<rect style="fill:#fff;" x="368" y="352" width="16" height="16"/>
<rect style="fill:#fff;" x="112" y="352" width="240" height="16"/>
<rect style="fill:#fff;" x="32" y="448" width="16" height="16"/>
<rect style="fill:#fff;" x="64" y="448" width="16" height="16"/>
<rect style="fill:#fff;" x="96" y="448" width="16" height="16"/>
<g>
</g>
<g>
</g>
<g>
</g>
<g>
</g>
<g>
</g>
<g>
</g>
<g>
</g>
<g>
</g>
<g>
</g>
<g>
</g>
<g>
</g>
<g>
</g>
<g>
</g>
<g>
</g>
<g>
</g>
</svg>
