<?xml version="1.0" encoding="iso-8859-1"?>
<!-- Generator: Adobe Illustrator 19.0.0, SVG Export Plug-In . SVG Version: 6.00 Build 0)  -->
<svg version="1.1" id="Capa_1" xmlns="http://www.w3.org/2000/svg" xmlns:xlink="http://www.w3.org/1999/xlink" x="0px" y="0px"
	 viewBox="0 0 496 496" style="enable-background:new 0 0 496 496;" xml:space="preserve">
<g>
	<rect x="384" y="376" style="fill:#68bde1;" width="32" height="48"/>
	<circle style="fill:#68bde1;" cx="136" cy="152" r="40"/>
	<path style="fill:#68bde1;" d="M432,208h-64v-48h64V208z"/>
</g>
<path style="fill:#fff;" d="M352,240h72c39.696,0,72-32.304,72-72v-48c0-39.696-32.304-72-72-72h-98.232l-16-48H202.232l-16,48H88
	C39.48,48,0,87.48,0,136v8h48.408c-0.24,2.64-0.408,5.296-0.408,8c0,48.52,39.48,88,88,88h120c0,14.168,6.208,26.88,16,35.68V392
	c0,22.056,17.944,40,40,40h120v24c0,22.056,17.944,40,40,40h24V304h-24c-22.056,0-40,17.944-40,40v24h-96v-92.32
	C345.792,266.88,352,254.168,352,240z M448,344c0-13.232,10.768-24,24-24h8v160h-8c-13.232,0-24-10.768-24-24V344z M304,272
	c-17.648,0-32-14.352-32-32s14.352-32,32-32s32,14.352,32,32S321.648,272,304,272z M213.768,16h84.472l10.664,32h-105.8L213.768,16z
	 M424,64c30.88,0,56,25.12,56,56v8H175.64c-2.392-26.464-16.608-49.512-37.248-64H424z M16.44,128C20.432,92.048,51,64,88,64
	c7.952,0,15.576,1.344,22.736,3.736C82.088,76.344,59.6,99.176,51.408,128H16.44z M64,152c0-38.8,30.872-70.448,69.336-71.864
	C149.584,93.352,160,113.472,160,136v8h47.528c0.288,2.648,0.472,5.32,0.472,8c0,39.696-32.304,72-72,72S64,191.696,64,152z
	 M258.8,224h-72.36c22.672-15.936,37.56-42.24,37.56-72c0-2.672-0.16-5.344-0.4-8H480v24c0,30.88-25.12,56-56,56h-74.8
	c-6.608-18.616-24.344-32-45.2-32S265.408,205.384,258.8,224z M336,384h96v32H312c-13.232,0-24-10.768-24-24V285.2
	c5.016,1.784,10.384,2.8,16,2.8s10.984-1.024,16-2.8V368C320,376.824,327.176,384,336,384z"/>
<rect style="fill:#fff;" x="184" y="80" width="128" height="16"/>
<rect style="fill:#fff;" x="368" y="96" width="16" height="16"/>
<rect style="fill:#fff;" x="400" y="96" width="16" height="16"/>
<rect style="fill:#fff;" x="432" y="96" width="16" height="16"/>
<g>
</g>
<g>
</g>
<g>
</g>
<g>
</g>
<g>
</g>
<g>
</g>
<g>
</g>
<g>
</g>
<g>
</g>
<g>
</g>
<g>
</g>
<g>
</g>
<g>
</g>
<g>
</g>
<g>
</g>
</svg>
