<?xml version="1.0" encoding="iso-8859-1"?>
<!-- Generator: Adobe Illustrator 19.0.0, SVG Export Plug-In . SVG Version: 6.00 Build 0)  -->
<svg version="1.1" id="Capa_1" xmlns="http://www.w3.org/2000/svg" xmlns:xlink="http://www.w3.org/1999/xlink" x="0px" y="0px"
	 viewBox="0 0 496 496" style="enable-background:new 0 0 496 496;" xml:space="preserve">
<g>
	<circle style="fill:#68bde1;" cx="40" cy="360" r="40"/>
	<circle style="fill:#68bde1;" cx="456" cy="360" r="40"/>
	<circle style="fill:#68bde1;" cx="456" cy="136" r="40"/>
	<circle style="fill:#68bde1;" cx="248" cy="40" r="40"/>
	<circle style="fill:#68bde1;" cx="40" cy="136" r="40"/>
	<circle style="fill:#68bde1;" cx="248" cy="456" r="40"/>
</g>
<path style="fill:#fff;" d="M469,339.216c-9.392-5.416-20.88-3.664-28.392,3.408l-42.512-22.888C404.328,310.704,408,299.776,408,288
	c0-28.04-20.712-51.336-48-55.36c0-0.216,0-0.424,0-0.64c0-11.256-2.36-21.96-6.576-31.68l87.12-46.912
	c4.496,4.24,10.416,6.584,16.488,6.584c4.064,0,8.184-1.032,11.96-3.208c11.464-6.616,15.4-21.328,8.784-32.784
	c-6.624-11.472-21.328-15.4-32.784-8.784c-8.656,5-13.008,14.616-11.768,23.96l-87.616,47.176C331.144,165.624,307.144,152,280,152
	c-8.28,0-16.336,1.368-24,3.784V62.528c9.288-3.312,16-12.112,16-22.528c0-13.232-10.768-24-24-24s-24,10.768-24,24
	c0,10.416,6.712,19.216,16,22.528V162.84c-8.536,4.952-16.224,11.4-22.52,19.312C209.616,178.112,200.944,176,192,176
	c-13.776,0-26.384,5.024-36.144,13.296l-93.08-50.12c1.232-9.344-3.112-18.96-11.768-23.96C39.552,108.6,24.84,112.536,18.224,124
	s-2.672,26.168,8.784,32.784c3.768,2.176,7.888,3.208,11.96,3.208c6.064,0,11.992-2.344,16.488-6.584l89.568,48.232
	C139.336,210.392,136,220.808,136,232c0,0.192,0,0.376,0,0.568c-27.104,3.888-48,27.264-48,55.432
	c0,11.776,3.672,22.704,9.912,31.736L55.4,342.624c-7.512-7.072-19.008-8.824-28.392-3.408c-11.464,6.616-15.4,21.328-8.784,32.784
	c4.44,7.688,12.52,12,20.816,12c4.072,0,8.192-1.032,11.96-3.208c8.656-5,13.008-14.616,11.768-23.96l46.448-25.008
	C118.784,339.416,130.856,344,144,344h96v89.472c-9.288,3.312-16,12.112-16,22.528c0,13.232,10.768,24,24,24s24-10.768,24-24
	c0-10.416-6.712-19.216-16-22.528V344h96c13.144,0,25.216-4.584,34.776-12.184l46.448,25.008c-1.232,9.344,3.112,18.96,11.768,23.96
	c3.776,2.176,7.896,3.216,11.968,3.216c8.304,0,16.384-4.304,20.824-12C484.392,360.536,480.456,345.832,469,339.216z M453,129.072
	c1.256-0.728,2.624-1.072,3.984-1.072c2.768,0,5.464,1.432,6.936,4c2.208,3.824,0.896,8.72-2.928,10.928
	c-3.832,2.192-8.72,0.896-10.928-2.928C447.856,136.176,449.176,131.28,453,129.072z M248,32c4.408,0,8,3.592,8,8s-3.592,8-8,8
	s-8-3.592-8-8S243.592,32,248,32z M45.936,140c-2.216,3.824-7.128,5.128-10.936,2.928c-3.816-2.208-5.128-7.104-2.92-10.928
	c1.472-2.56,4.168-4,6.936-4c1.36,0,2.728,0.344,3.992,1.072C46.824,131.28,48.144,136.176,45.936,140z M43,366.928
	c-3.824,2.2-8.72,0.888-10.92-2.928c-2.208-3.824-0.896-8.72,2.928-10.928c1.256-0.728,2.624-1.072,3.984-1.072
	c2.768,0,5.464,1.432,6.944,4C48.144,359.824,46.824,364.72,43,366.928z M248,464c-4.408,0-8-3.592-8-8s3.592-8,8-8
	c4.408,0,8,3.592,8,8S252.408,464,248,464z M144,328c-22.056,0-40-17.944-40-40s17.944-40,39.768-40.008l10.464,0.192l-1.616-9.496
	C152.2,236.272,152,234.08,152,232c0-22.056,17.944-40,40-40c8.28,0,16.24,2.536,23.032,7.336l6.792,4.8l4.536-6.968
	C238.24,178.904,258.296,168,280,168c35.288,0,64,28.712,64,64c0,2.416-0.168,4.792-0.424,7.144L343.064,248H352
	c22.056,0,40,17.944,40,40s-17.944,40-40,40H144z M463.92,364c-2.208,3.816-7.12,5.128-10.928,2.928
	c-3.824-2.2-5.136-7.104-2.936-10.92c1.488-2.568,4.176-4,6.944-4c1.36,0,2.728,0.344,3.992,1.072
	C464.816,355.28,466.128,360.176,463.92,364z"/>
<path style="fill:#fff;" d="M280,184v16c17.648,0,32,14.352,32,32h16C328,205.528,306.472,184,280,184z"/>
<path style="fill:#fff;" d="M352,264v16c4.408,0,8,3.592,8,8s-3.592,8-8,8v16c13.232,0,24-10.768,24-24S365.232,264,352,264z"/>
<rect style="fill:#fff;" x="320" y="296" width="16" height="16"/>
<rect style="fill:#fff;" x="184" y="296" width="72" height="16"/>
<rect style="fill:#fff;" x="152" y="296" width="16" height="16"/>
<g>
</g>
<g>
</g>
<g>
</g>
<g>
</g>
<g>
</g>
<g>
</g>
<g>
</g>
<g>
</g>
<g>
</g>
<g>
</g>
<g>
</g>
<g>
</g>
<g>
</g>
<g>
</g>
<g>
</g>
</svg>
