<?xml version="1.0" encoding="iso-8859-1"?>
<!-- Generator: Adobe Illustrator 19.0.0, SVG Export Plug-In . SVG Version: 6.00 Build 0)  -->
<svg version="1.1" id="Capa_1" xmlns="http://www.w3.org/2000/svg" xmlns:xlink="http://www.w3.org/1999/xlink" x="0px" y="0px"
	 viewBox="0 0 497.76 497.76" style="enable-background:new 0 0 497.76 497.76;" xml:space="preserve">
<g>
	<circle style="fill:#68bde1;" cx="224" cy="80.88" r="48"/>
	<circle style="fill:#68bde1;" cx="112" cy="256.88" r="48"/>
	<path style="fill:#68bde1;" d="M344,128.88c-57.344,0-104,46.656-104,104v24h32l14.536-9.688c6.168-4.12,13.424-6.312,20.84-6.312
		c3.072,0,6.128,0.376,9.112,1.12L344,248.88l27.512-6.88c2.976-0.744,6.04-1.12,9.112-1.12c7.416,0,14.664,2.192,20.84,6.312
		L416,256.88h32v-24C448,175.536,401.344,128.88,344,128.88z"/>
</g>
<path style="fill:#fff;" d="M256,312.88h11.472c2.856,7.824,7.36,15.024,13.376,20.904l28.896,28.248c4.512,4.416,10.472,6.848,16.776,6.848h34.952
	c6.312,0,12.272-2.432,16.784-6.84l25.728-25.16H416c13.232,0,24-10.768,24-24v-1.472c9.288-3.312,16-12.112,16-22.528v-16
	c0-13.232-10.768-24-24-24h-13.576l-12.512-8.344c-10.624-7.08-24.056-9.376-36.336-6.288L344,240.64l-25.56-6.392
	c-12.312-3.088-25.728-0.792-36.344,6.288l-12.52,8.344H256c-5.984,0-11.392,2.28-15.6,5.912
	c-18.304-8.296-39.912-12.912-64.4-13.728V176.88h80.504c3.688-5.744,7.912-11.104,12.624-16h-13.504
	c-0.832-18.664-4.488-37.336-11.048-55.696C251.504,99.304,256,90.656,256,80.88c0-2.064-0.232-4.072-0.608-6.032
	c8.488-5.48,14.384-10.92,18.104-15.032c20.184,19.512,35.152,44.584,42.08,73.112c5.08-1.448,10.312-2.52,15.68-3.184
	C313.336,54.768,245.664,0.88,168,0.88c-92.64,0-168,75.368-168,168s75.36,168,168,168c30.664,0,60.568-8.376,86.68-24.136
	C255.128,312.768,255.552,312.88,256,312.88z M143.848,258.408c5.224-0.624,10.608-1.032,16.152-1.24v53.36
	c-7.184-7.288-16.504-17.712-25.76-30.72C139.888,274.328,143.44,266.784,143.848,258.408z M112,272.88c-8.824,0-16-7.176-16-16
	s7.176-16,16-16s16,7.176,16,16S120.824,272.88,112,272.88z M112,288.88c2.856,0,5.576-0.496,8.208-1.2
	c9.128,13.008,18.28,23.592,25.784,31.432c-26.704-3.904-51.2-14.64-71.496-30.584c2.672-2.928,6.92-6.928,13.144-11.136
	C93.52,284.352,102.2,288.88,112,288.88z M237.536,304.024c-14.936,7.696-31.032,12.856-47.664,15.264
	c11.128-11.592,25.928-29.248,38.76-51.896c1.264,0.504,2.544,0.976,3.768,1.512c-0.216,1.296-0.4,2.616-0.4,3.976v16
	C232,294.648,234.128,299.88,237.536,304.024z M417.072,320.664c1.368-2.496,2.488-5.112,3.464-7.784H424
	C424,316.912,420.952,320.12,417.072,320.664z M440,272.88v16c0,4.416-3.592,8-8,8h-8.16c0.056-1.04,0.16-2.08,0.16-3.136V264.88h8
	C436.408,264.88,440,268.464,440,272.88z M290.976,253.848c6.88-4.592,15.56-6.104,23.568-4.088L344,257.12l29.464-7.36
	c7.952-2.016,16.672-0.504,23.56,4.088L408,261.16v32.584c0,10.056-3.992,19.776-10.808,27.136H344v16h37.104l-14.032,13.72
	c-1.504,1.464-3.496,2.28-5.592,2.28h-34.952c-2.104,0-4.088-0.816-5.592-2.28l-28.896-28.248
	c-7.656-7.488-12.04-17.912-12.04-28.608V261.16L290.976,253.848z M248,272.88c0-4.416,3.592-8,8-8h8v28.864
	c0,1.048,0.104,2.088,0.16,3.136H256c-4.408,0-8-3.584-8-8V272.88z M213.072,262.344c-12.552,21.376-26.928,37.864-37.072,48.16
	v-53.272C189.4,257.728,201.776,259.432,213.072,262.344z M160,241.168c-6.688,0.224-13.184,0.728-19.464,1.52
	C135.28,232.176,124.528,224.88,112,224.88c-2.08,0-4.104,0.232-6.08,0.616c-5.568-16.072-8.752-32.36-9.544-48.616H160V241.168z
	 M224,96.88c-8.824,0-16-7.176-16-16s7.176-16,16-16s16,7.176,16,16S232.824,96.88,224,96.88z M192.152,79.352
	c-5.224,0.624-10.608,1.032-16.152,1.24v-53.36c7.184,7.288,16.504,17.712,25.76,30.72C196.112,63.432,192.56,70.976,192.152,79.352
	z M160,27.304V80.64c-14.336-0.52-26.648-2.312-37.024-4.944C135.56,54.232,149.88,37.624,160,27.304z M107.08,70.584
	C89.288,63.536,79.216,54.6,74.432,49.28c20.28-15.944,44.752-26.688,71.44-30.608C134.664,30.32,119.84,47.976,107.08,70.584z
	 M160,96.624v64.256H96.408c1.312-26.472,8.8-50.336,18.784-70.728C127.608,93.656,142.528,96.032,160,96.624z M239.624,160.88H176
	V96.592c6.688-0.224,13.184-0.728,19.464-1.52c5.256,10.512,16.008,17.808,28.536,17.808c2.08,0,4.104-0.232,6.08-0.616
	C235.648,128.336,238.832,144.624,239.624,160.88z M248.36,60.368C242.48,53.408,233.8,48.88,224,48.88
	c-2.856,0-5.576,0.496-8.208,1.2c-9.144-13.04-18.32-23.64-25.84-31.48c26.504,3.896,51.072,14.648,71.528,30.664
	C258.808,52.184,254.568,56.176,248.36,60.368z M62.448,59.8c6.024,6.672,17.704,16.896,37.264,24.96
	c-10.416,21.856-18.256,47.464-19.512,76.12H16.408C18.48,121.304,35.752,85.712,62.448,59.8z M16.408,176.88h63.968
	c0.832,18.664,4.488,37.336,11.048,55.696C84.496,238.456,80,247.104,80,256.88c0,2.064,0.232,4.072,0.608,6.032
	c-8.512,5.496-14.416,10.952-18.136,15.072C35.768,252.064,18.48,216.464,16.408,176.88z"/>
<path style="fill:#fff;" d="M487.384,445.016c-5.232-26.168-24.36-47.176-49.912-54.84L400,378.928V368.88h-16v14.456l-10.92,27.312l-17.768-17.768
	h-22.624l-17.768,17.768L304,383.336V368.88h-16v10.048l-37.472,11.24c-25.552,7.664-44.68,28.68-49.912,54.84L190.24,496.88h307.52
	L487.384,445.016z M339.312,408.88h9.376l10.16,10.16l-7.064,21.192l6.776,40.648h-29.12l6.776-40.648l-7.064-21.192L339.312,408.88
	z M216.304,448.152c4.072-20.352,18.944-36.696,38.824-42.656l36.16-10.848l17.792,44.464l7.424-7.424l3.28,9.84l-6.56,39.352
	H265.76l6.088-30.432l-15.688-3.144l-6.72,33.576h-39.68L216.304,448.152z M438.56,480.88l-6.712-33.568l-15.688,3.144l6.08,30.424
	h-47.464l-6.56-39.352l3.28-9.84l7.424,7.424l17.792-44.464l36.168,10.848c19.872,5.96,34.752,22.304,38.824,42.656l6.536,32.728
	H438.56z"/>
<rect style="fill:#fff;" x="48" y="352.88" width="112" height="16"/>
<rect style="fill:#fff;" x="48" y="384.88" width="112" height="16"/>
<rect style="fill:#fff;" x="96" y="416.88" width="16" height="16"/>
<rect style="fill:#fff;" x="128" y="416.88" width="16" height="16"/>
<rect style="fill:#fff;" x="64" y="416.88" width="16" height="16"/>
<rect style="fill:#fff;" x="352" y="32.88" width="112" height="16"/>
<rect style="fill:#fff;" x="352" y="64.88" width="112" height="16"/>
<rect style="fill:#fff;" x="400" y="96.88" width="16" height="16"/>
<rect style="fill:#fff;" x="432" y="96.88" width="16" height="16"/>
<rect style="fill:#fff;" x="368" y="96.88" width="16" height="16"/>

</svg>
