<?xml version="1.0" encoding="iso-8859-1"?>
<!-- Generator: Adobe Illustrator 19.0.0, SVG Export Plug-In . SVG Version: 6.00 Build 0)  -->
<svg version="1.1" id="Layer_1" xmlns="http://www.w3.org/2000/svg" xmlns:xlink="http://www.w3.org/1999/xlink" x="0px" y="0px"
	 viewBox="0 0 283.959 283.959" style="enable-background:new 0 0 283.959 283.959;" xml:space="preserve">
<g>
	<g>
		<g>
			<polygon style="fill:#68bde1;" points="56.25,216.98 253.125,216.98 281.25,66.98 84.375,66.98 			"/>
		</g>
		<g>
			<polygon style="fill:#fff;" points="283.959,70.805 278.541,63.155 169.139,140.648 110.995,86.972 104.63,93.863 
				137.728,124.411 52.852,213.75 59.648,220.209 144.614,130.767 168.361,152.686 195.038,133.791 249.159,219.483 
				257.091,214.477 202.702,128.362 			"/>
			
				<rect x="86.72" y="64.068" transform="matrix(0.7071 -0.7071 0.7071 0.7071 -25.562 86.3128)" style="fill:#fff;" width="9.375" height="19.889"/>
			<rect x="18.75" y="90.417" style="fill:#fff;" width="60.938" height="9.375"/>
			<rect x="9.375" y="137.292" style="fill:#fff;" width="60.938" height="9.375"/>
			<rect y="184.167" style="fill:#fff;" width="60.938" height="9.375"/>
			<rect x="89.063" y="38.855" style="fill:#fff;" width="159.375" height="9.375"/>
			<rect x="56.25" y="38.855" style="fill:#fff;" width="23.438" height="9.375"/>
			<rect x="70.313" y="15.417" style="fill:#fff;" width="159.375" height="9.375"/>
			<rect x="37.5" y="15.417" style="fill:#fff;" width="23.438" height="9.375"/>
			<rect x="46.875" y="235.73" style="fill:#fff;" width="112.5" height="9.375"/>
			<rect x="14.063" y="235.73" style="fill:#fff;" width="23.438" height="9.375"/>
			<rect x="32.813" y="259.167" style="fill:#fff;" width="107.813" height="9.375"/>
			<rect y="259.167" style="fill:#fff;" width="23.438" height="9.375"/>
		</g>
	</g>
</g>
<g>
</g>
<g>
</g>
<g>
</g>
<g>
</g>
<g>
</g>
<g>
</g>
<g>
</g>
<g>
</g>
<g>
</g>
<g>
</g>
<g>
</g>
<g>
</g>
<g>
</g>
<g>
</g>
<g>
</g>
</svg>
