<?xml version="1.0" encoding="iso-8859-1"?>
<!-- Generator: Adobe Illustrator 19.0.0, SVG Export Plug-In . SVG Version: 6.00 Build 0)  -->
<svg version="1.1" id="Capa_1" xmlns="http://www.w3.org/2000/svg" xmlns:xlink="http://www.w3.org/1999/xlink" x="0px" y="0px"
	 viewBox="0 0 496 496" style="enable-background:new 0 0 496 496;" xml:space="preserve">
<circle style="fill:#68bde1;" cx="304" cy="192" r="160"/>
<g>
	<path style="fill:#fff;" d="M176,192c0,8.592,0.856,17.2,2.552,25.584l15.688-3.168C192.752,207.072,192,199.528,192,192
		c0-13.904,2.504-27.464,7.464-40.28l-14.92-5.768C178.872,160.616,176,176.112,176,192z"/>
	<path style="fill:#fff;" d="M304,64c-47.584,0-90.976,26.152-113.224,68.264l14.144,7.472C224.392,102.888,262.36,80,304,80
		c61.76,0,112,50.24,112,112h16C432,121.424,374.576,64,304,64z"/>
	<path style="fill:#fff;" d="M393.6,259.208l12.8,9.608c13.128-17.472,21.584-38.136,24.48-59.768l-15.856-2.112
		C412.496,225.848,405.088,243.928,393.6,259.208z"/>
	<path style="fill:#fff;" d="M304,32c-88.224,0-160,71.776-160,160c0,25.144,5.672,49.216,16.848,71.552l14.312-7.168
		C165.104,236.296,160,214.632,160,192c0-79.4,64.6-144,144-144s144,64.6,144,144c0,50.192-25.504,95.976-68.216,122.472
		l8.44,13.592C435.672,298.632,464,247.768,464,192C464,103.776,392.224,32,304,32z"/>
	<path style="fill:#fff;" d="M227.336,323.744l14.512,6.752c10.624-22.856,20.128-47.096,28.232-72.016l-15.216-4.952
		C246.96,277.84,237.704,301.472,227.336,323.744z"/>
	<path style="fill:#fff;" d="M330.04,173.408c-4.968-6.96-12.36-11.568-20.824-12.976c-17.72-2.912-33.912,9.12-36.784,26.288
		c-0.032,0.192-3.592,20.544-12.656,51l15.344,4.56c9.44-31.752,13.064-52.752,13.096-52.92c1.432-8.568,9.416-14.68,18.368-13.144
		c4.24,0.712,7.952,3.016,10.44,6.496c2.48,3.48,3.464,7.712,2.76,11.928c-0.456,2.712-11.448,67.28-46.416,144.08l14.56,6.624
		c35.832-78.696,47.168-145.28,47.632-148.072C336.968,188.832,335.008,180.36,330.04,173.408z"/>
	<path style="fill:#fff;" d="M356.088,154.816c-9.928-13.912-24.696-23.136-41.584-25.944c-3.464-0.584-6.984-0.872-10.488-0.872
		c-31.416,0-57.96,22.416-63.112,53.224c-0.104,0.568-10.552,58.576-40.696,124.888l14.56,6.624
		c31.048-68.304,41.792-128.152,41.904-128.816c3.872-23.128,23.784-39.92,47.344-39.92c2.624,0,5.264,0.216,7.856,0.648
		c12.664,2.112,23.744,9.024,31.184,19.464c7.448,10.432,10.392,23.144,8.28,35.792c-0.44,2.608-10.992,64.704-43.696,140.376
		l14.688,6.344c33.472-77.448,44.344-141.408,44.792-144.088C369.936,185.664,366.016,168.72,356.088,154.816z"/>
	<path style="fill:#fff;" d="M260.344,124.824l-8.688-13.44c-22.464,14.52-37.864,37.984-42.248,64.24
		c-0.36,1.968-9.12,48.968-33.248,105.648l14.72,6.264c24.824-58.296,33.888-106.992,34.288-109.16
		C228.832,156.44,241.648,136.912,260.344,124.824z"/>
	<path style="fill:#fff;" d="M382.144,136.224c-14.896-20.872-37.056-34.704-62.392-38.928c-17.072-2.84-34.68-1-50.64,5.184
		l5.784,14.92c13.296-5.152,28.048-6.696,42.224-4.328c21.12,3.52,39.584,15.048,52,32.448
		c12.408,17.376,17.304,38.552,13.784,59.656c-0.376,2.296-9.52,56.992-37.6,127.744l14.872,5.904
		c28.712-72.344,38.136-128.696,38.512-131.04C402.904,182.488,397.032,157.08,382.144,136.224z"/>
	<path style="fill:#fff;" d="M304,0C198.136,0,112,86.136,112,192c0,33.616,8.712,65.224,23.952,92.736L120,300.688
		l-18.344-18.344l-11.312,11.312L108.688,312L15.6,405.088C5.536,415.152,0,428.52,0,442.744C0,472.112,23.888,496,53.256,496
		c14.224,0,27.592-5.536,37.656-15.6L184,387.312l18.344,18.344l11.312-11.312L195.312,376l15.952-15.952
		C238.776,375.288,270.384,384,304,384c105.864,0,192-86.136,192-192S409.864,0,304,0z M79.6,469.088
		C72.56,476.128,63.208,480,53.256,480C32.712,480,16,463.288,16,442.744c0-9.952,3.872-19.304,10.912-26.344L120,323.312
		L172.688,376L79.6,469.088z M184,364.688L131.312,312l13.208-13.216c13.968,20.792,31.896,38.72,52.688,52.688L184,364.688z
		 M304,368c-97.048,0-176-78.952-176-176S206.952,16,304,16s176,78.952,176,176S401.048,368,304,368z"/>
</g>
<g>
</g>
<g>
</g>
<g>
</g>
<g>
</g>
<g>
</g>
<g>
</g>
<g>
</g>
<g>
</g>
<g>
</g>
<g>
</g>
<g>
</g>
<g>
</g>
<g>
</g>
<g>
</g>
<g>
</g>
</svg>
