<?xml version="1.0" encoding="iso-8859-1"?>
<!-- Generator: Adobe Illustrator 19.0.0, SVG Export Plug-In . SVG Version: 6.00 Build 0)  -->
<svg version="1.1" id="Layer_1" xmlns="http://www.w3.org/2000/svg" xmlns:xlink="http://www.w3.org/1999/xlink" x="0px" y="0px"
	 viewBox="0 0 285.939 285.939" style="enable-background:new 0 0 285.939 285.939;" xml:space="preserve">
<g>
	<g>
		<path style="fill:#68bde1;" d="M142.967,285.939L142.967,285.939c-10.355,0-18.75-8.395-18.75-18.75l0,0
			c0-10.355,8.395-18.75,18.75-18.75l0,0c10.355,0,18.75,8.395,18.75,18.75l0,0C161.717,277.544,153.322,285.939,142.967,285.939z"
			/>
		<path style="fill:#68bde1;" d="M72.655,117.189v4.688h37.5l0,0c0-10.355,8.395-18.75,18.75-18.75h28.125
			c10.355,0,18.75,8.395,18.75,18.75v14.063c0,10.355-8.395,18.75-18.75,18.75h-14.063c-10.355,0-18.75,8.395-18.75,18.75v37.5
			c0,10.355,8.395,18.75,18.75,18.75l0,0c10.355,0,18.75-8.395,18.75-18.75v-18.75l0,0c28.477,0,51.563-23.086,51.563-51.563
			v-23.438c0-28.477-23.086-51.563-51.563-51.563h-37.5C95.741,65.627,72.655,88.713,72.655,117.189z"/>
		<path style="fill:#fff;" d="M167.267,260.224l-1.72-9.22c2.939-0.548,5.902-1.219,8.798-1.987l2.419,9.061
			C173.633,258.902,170.436,259.629,167.267,260.224z"/>
		<path style="fill:#fff;" d="M195.055,251.721l-3.717-8.606c5.47-2.367,10.833-5.175,15.923-8.339l4.955,7.955
			C206.731,246.147,200.956,249.171,195.055,251.721z M90.51,251.561c-5.892-2.573-11.653-5.611-17.133-9.047l4.983-7.945
			c5.086,3.192,10.439,6.014,15.9,8.395L90.51,251.561z M227.867,231.321l-6.07-7.148c4.57-3.872,8.883-8.119,12.825-12.614
			l7.05,6.178C237.425,222.574,232.78,227.149,227.867,231.321z M57.767,231.063c-4.898-4.181-9.53-8.766-13.772-13.622l7.069-6.159
			c3.938,4.514,8.241,8.77,12.792,12.652L57.767,231.063z M253.339,202.282l-7.875-5.081c3.248-5.039,6.145-10.35,8.606-15.792
			l8.541,3.863C259.963,191.135,256.841,196.858,253.339,202.282z M32.38,201.949c-3.483-5.433-6.581-11.17-9.22-17.044l8.55-3.834
			c2.447,5.452,5.33,10.777,8.559,15.816L32.38,201.949z M269.263,167.093l-9.019-2.555c1.627-5.752,2.836-11.672,3.6-17.611
			l9.3,1.191C272.328,154.511,271.016,160.896,269.263,167.093z M16.56,166.689c-1.734-6.202-3.019-12.591-3.816-18.984l9.3-1.162
			c0.741,5.939,1.936,11.864,3.544,17.63L16.56,166.689z M264.819,128.955c-0.112-6-0.67-12.023-1.65-17.911l9.248-1.537
			c1.059,6.333,1.655,12.816,1.777,19.275L264.819,128.955z M21.121,128.575l-9.375-0.202c0.141-6.464,0.759-12.947,1.833-19.275
			l9.248,1.575C21.819,116.547,21.247,122.571,21.121,128.575z M258.913,93.583c-1.847-5.681-4.134-11.278-6.806-16.645l8.386-4.186
			c2.883,5.775,5.353,11.813,7.336,17.934L258.913,93.583z M27.144,93.227l-8.906-2.93c2.016-6.131,4.5-12.15,7.388-17.897
			l8.377,4.2C31.325,81.939,29.014,87.532,27.144,93.227z M242.905,61.474c-3.427-4.898-7.256-9.591-11.367-13.95l6.811-6.436
			c4.425,4.688,8.541,9.736,12.234,15.009L242.905,61.474z M43.241,61.183l-7.673-5.391c3.698-5.259,7.833-10.294,12.277-14.972
			l6.792,6.464C50.506,51.621,46.672,56.299,43.241,61.183z M218.263,35.407c-4.692-3.689-9.708-7.073-14.916-10.059l4.659-8.128
			c5.597,3.206,11.002,6.848,16.05,10.819L218.263,35.407z M67.949,35.191l-5.766-7.388c5.091-3.98,10.505-7.603,16.097-10.777
			l4.622,8.156C77.713,28.122,72.683,31.493,67.949,35.191z M187.133,17.622c-5.573-2.166-11.358-3.933-17.194-5.25l2.067-9.145
			c6.286,1.425,12.516,3.328,18.52,5.662L187.133,17.622z M99.158,17.482l-3.37-8.742c6.009-2.32,12.253-4.205,18.553-5.606
			l2.044,9.145C110.535,13.582,104.741,15.335,99.158,17.482z M152.164,9.714c-5.944-0.441-12.038-0.45-17.991-0.028l-0.67-9.347
			c6.398-0.464,12.947-0.45,19.355,0.028L152.164,9.714z"/>
		<path style="fill:#fff;" d="M118.667,260.224c-3.173-0.595-6.366-1.317-9.492-2.147l2.419-9.061
			c2.897,0.769,5.859,1.439,8.798,1.987L118.667,260.224z"/>
	</g>
</g>
<g>
</g>
<g>
</g>
<g>
</g>
<g>
</g>
<g>
</g>
<g>
</g>
<g>
</g>
<g>
</g>
<g>
</g>
<g>
</g>
<g>
</g>
<g>
</g>
<g>
</g>
<g>
</g>
<g>
</g>
</svg>
