<?xml version="1.0" encoding="iso-8859-1"?>
<!-- Generator: Adobe Illustrator 19.0.0, SVG Export Plug-In . SVG Version: 6.00 Build 0)  -->
<svg version="1.1" id="Capa_1" xmlns="http://www.w3.org/2000/svg" xmlns:xlink="http://www.w3.org/1999/xlink" x="0px" y="0px"
	 viewBox="0 0 496 496" style="enable-background:new 0 0 496 496;" xml:space="preserve">
<g>
	<polygon style="fill:#68bde1;" points="416,457.144 488,488 416,320 416,456 	"/>
	<polygon style="fill:#68bde1;" points="192,304 192,360 248,384 248,248 	"/>
	<polygon style="fill:#68bde1;" points="56,24 65.888,45.064 88,48.448 72,64.848 75.776,88 56,77.064 36.224,88 40,64.848 
		24,48.448 46.112,45.064 	"/>
</g>
<path style="fill:#fff;" d="M353.488,153.824l20.168-20.168l-11.312-11.312l-240,240l11.312,11.312l20.168-20.168l331.024,141.864
	c1.016,0.44,2.088,0.648,3.152,0.648c2.08,0,4.128-0.816,5.656-2.344c2.312-2.312,2.984-5.8,1.696-8.808L353.488,153.824z M352,384
	h-40v-16h40V384z M352,352h-40v-16h40V352z M352,320h-40v-16h40V320z M352,288h-40v-16h40V288z M352,256h-40v-16h40V256z M312,224
	v-16h40v16H312z M312,400h40v21.008l-40-17.144V400z M352.44,192H352h-36.688l25.992-25.992L352.44,192z M296,211.312v185.696
	l-129.992-55.712L296,211.312z M368,427.872V228.304l104.768,244.464L368,427.872z"/>
<path style="fill:#fff;" d="M129.344,316.44l13.312-8.872l-5.208-7.816c-18.336-27.496-45.92-47.632-77.688-56.712
	c-7.056-2.016-14.352-3.04-21.704-3.04C17.072,240,0,257.072,0,278.056c0,8.544,3.328,16.584,9.376,22.632
	c12.48,12.48,32.776,12.48,45.248,0l7.032-7.032l-11.312-11.312l-7.032,7.032c-6.24,6.232-16.384,6.232-22.624,0
	c-3.024-3.024-4.688-7.04-4.688-11.32C16,265.896,25.896,256,38.056,256c5.856,0,11.68,0.816,17.304,2.424
	c28.128,8.032,52.552,25.864,68.776,50.2L129.344,316.44z"/>
<path style="fill:#fff;" d="M299.752,137.448l7.816,5.208l8.872-13.312l-7.816-5.208c-24.336-16.224-42.168-40.656-50.2-68.776
	C256.816,49.736,256,43.92,256,38.056C256,25.896,265.896,16,278.056,16c4.272,0,8.296,1.664,11.32,4.688
	c6.24,6.24,6.24,16.384,0,22.624l-7.032,7.032l11.312,11.312l7.032-7.032c12.48-12.48,12.48-32.776,0-45.248
	C294.648,3.328,286.608,0,278.056,0C257.072,0,240,17.072,240,38.056c0,7.344,1.024,14.648,3.04,21.696
	C252.12,91.528,272.256,119.12,299.752,137.448z"/>
<path style="fill:#fff;" d="M187.192,153.272c1.12,0.84,11.144,8.328,17.752,11.632l7.16-14.312c-4.496-2.248-12.568-8.064-15.376-10.168
	c-17.464-12.768-32.376-28.32-44.32-46.232C141.672,78.088,136,59.352,136,40c0-13.232,10.768-24,24-24c8.824,0,16,7.176,16,16
	s-7.176,16-16,16v16c17.648,0,32-14.352,32-32S177.648,0,160,0c-22.056,0-40,17.944-40,40c0,22.52,6.6,44.328,19.096,63.064
	C152.08,122.544,168.296,139.456,187.192,153.272z"/>
<polygon style="fill:#fff;" points="267.312,176.72 228.432,159.016 227.416,158.512 221.08,173.232 260.688,191.28 "/>
<path style="fill:#fff;" d="M159.288,220.952l17.432,38.352l14.56-6.616l-17.432-38.352c-11.48-25.256-27.8-47.456-48.512-65.984l-10.664,11.928
	C133.712,177.32,148.728,197.736,159.288,220.952z"/>
<path style="fill:#fff;" d="M32,184c17.648,0,32-14.352,32-32H48c0,8.824-7.176,16-16,16s-16-7.176-16-16c0-13.232,10.768-24,24-24
	c15.256,0,30.6,3.712,44.072,10.576c0.104,0.056,10.04,5.672,19.168,12.184l9.288-13.024c-9.816-7-20.168-12.856-20.896-13.256
	C75.632,116.32,57.776,112,40,112c-22.056,0-40,17.944-40,40C0,169.648,14.352,184,32,184z"/>
<rect style="fill:#fff;" x="40" y="400" width="16" height="24"/>
<rect style="fill:#fff;" x="14.551" y="410.555" transform="matrix(-0.7071 0.7071 -0.7071 -0.7071 337.288 705.4013)" width="16" height="24"/>
<rect style="fill:#fff;" y="440" width="24" height="16"/>
<rect style="fill:#fff;" x="10.504" y="465.445" transform="matrix(-0.7071 0.7071 -0.7071 -0.7071 373.1924 792.3077)" width="24" height="16"/>
<rect style="fill:#fff;" x="40" y="472" width="16" height="24"/>
<rect style="fill:#fff;" x="65.451" y="461.448" transform="matrix(-0.7071 0.7071 -0.7071 -0.7071 460.1671 756.2885)" width="16" height="24"/>
<rect style="fill:#fff;" x="72" y="440" width="24" height="16"/>
<rect style="fill:#fff;" x="61.475" y="414.544" transform="matrix(-0.7071 0.7071 -0.7071 -0.7071 424.2138 669.3731)" width="24" height="16"/>
<rect style="fill:#fff;" x="440" width="16" height="24"/>
<rect style="fill:#fff;" x="414.515" y="10.52" transform="matrix(-0.7071 0.7071 -0.7071 -0.7071 737.2028 -260.3194)" width="16" height="24"/>
<rect style="fill:#fff;" x="400" y="40" width="24" height="16"/>
<rect style="fill:#fff;" x="410.551" y="65.469" transform="matrix(-0.7071 0.7071 -0.7071 -0.7071 773.2889 -173.3696)" width="24" height="16"/>
<rect style="fill:#fff;" x="440" y="72" width="16" height="24"/>
<rect style="fill:#fff;" x="465.44" y="61.467" transform="matrix(-0.7071 0.7071 -0.7071 -0.7071 860.1614 -209.3559)" width="16" height="24"/>
<rect style="fill:#fff;" x="472" y="40" width="24" height="16"/>
<rect style="fill:#fff;" x="461.451" y="14.544" transform="matrix(-0.7071 0.7071 -0.7071 -0.7071 824.1729 -296.2953)" width="24" height="16"/>
</svg>
