<?xml version="1.0" encoding="iso-8859-1"?>
<!-- Generator: Adobe Illustrator 19.0.0, SVG Export Plug-In . SVG Version: 6.00 Build 0)  -->
<svg version="1.1" id="Capa_1" xmlns="http://www.w3.org/2000/svg" xmlns:xlink="http://www.w3.org/1999/xlink" x="0px" y="0px"
	 viewBox="0 0 497.528 497.528" style="enable-background:new 0 0 497.528 497.528;" xml:space="preserve">
<path style="fill:#fff;" d="M451.232,386.544l0.2-0.56l-35.392-12.536l43.84-15.544c14.088-5.112,25.328-15.392,31.648-28.944
	c6.304-13.512,6.952-28.664,1.84-42.664c-10.568-28.936-42.76-43.904-71.816-33.384l-67.6,24.728l5.504,15.032l67.576-24.72
	c20.752-7.568,43.76,3.168,51.304,23.832c3.648,9.984,3.176,20.784-1.312,30.416c-4.512,9.68-12.536,17.016-22.544,20.648
	L107.024,466.056c3.64-7.424,5.736-15.728,5.736-24.528c0-22.44-13.296-41.784-32.4-50.712l118.2-41.888l-5.344-15.08
	l-87.792,31.112l-62.32-22.104c-10.064-3.648-18.088-10.984-22.6-20.664c-4.496-9.632-4.96-20.432-1.312-30.416
	c7.544-20.664,30.568-31.328,51.344-23.824l99.168,35.384l5.376-15.064l-99.128-35.376c-29.016-10.504-61.224,4.456-71.792,33.392
	c-5.112,14-4.464,29.152,1.848,42.664c6.32,13.552,17.56,23.832,31.704,28.96l43.784,15.528l-35.392,12.544l0.2,0.56
	C20.4,391.472,0.76,414.232,0.76,441.528c0,30.872,25.128,56,56,56c3.584,0,7.08-0.368,10.472-1.016l0.2,0.56l5.416-1.92
	c1.664-0.496,3.28-1.08,4.872-1.728l171.04-60.656l171.048,60.656c1.592,0.648,3.208,1.224,4.864,1.728l5.416,1.92l0.2-0.56
	c3.392,0.648,6.888,1.016,10.472,1.016c30.872,0,56-25.128,56-56C496.76,414.232,477.12,391.472,451.232,386.544z M16.76,441.528
	c0-22.056,17.944-40,40-40s40,17.944,40,40c0,16.504-10.056,30.696-24.352,36.8l-0.496,0.176c-4.68,1.928-9.784,3.024-15.152,3.024
	C34.704,481.528,16.76,463.584,16.76,441.528z M390.496,466.056L272.688,424.28l119.416-42.344l25.056,8.88
	c-19.104,8.928-32.4,28.272-32.4,50.712C384.76,450.328,386.856,458.632,390.496,466.056z M440.76,481.528
	c-5.368,0-10.48-1.096-15.16-3.024l-0.488-0.176c-14.296-6.104-24.352-20.296-24.352-36.8c0-22.056,17.944-40,40-40s40,17.944,40,40
	C480.76,463.584,462.816,481.528,440.76,481.528z"/>
<path style="fill:#68bde1;" d="M184.76,49.528L198.784,32c11.36-14.208,28.56-22.472,46.752-22.472l0,0
	c21.744,0,41.776,11.784,52.336,30.792l5.624,10.12c11.32,20.392,17.264,43.328,17.264,66.648l0,0c0,23.88-6.232,47.344-18.08,68.08
	l-2.016,3.52c-7.8,13.656-11.904,29.112-11.904,44.84l0,0c0,13.256,10.744,24,24,24l0,0c13.256,0,24-10.744,24-24v-32l0,0
	c24.16,9.664,40,33.064,40,59.08v0.92c0,64.064-51.936,116-116,116l0,0c-64.064,0-116-51.936-116-116l0,0
	c0-43.328,18.184-84.672,50.128-113.952l26.28-24.088c12.48-11.448,19.592-27.6,19.592-44.536l0,0c0-13.128-7.416-25.128-19.16-31
	l0,0c-8.224-4.112-17.736-4.784-26.464-1.88L184.76,49.528z"/>
<g>
	<path style="fill:#fff;" d="M56.512,129.528h-7.92c-26.376,0-47.832-21.456-47.832-47.832c0-6.512,1.296-12.848,3.864-18.832
		L31.568,0l26.776,44.632L83.68,19.296l17.632,44.072c2.288,5.712,3.448,11.744,3.448,17.912
		C104.76,107.88,83.112,129.528,56.512,129.528z M33.944,35.056L19.328,69.16c-1.704,3.984-2.568,8.2-2.568,12.536
		c0,17.552,14.28,31.832,31.824,31.832h7.92c17.784,0,32.256-14.472,32.256-32.248c0-4.128-0.776-8.152-2.304-11.976L77.84,47.768
		L55.176,70.424L33.944,35.056z"/>
	<path style="fill:#fff;" d="M448.512,161.528h-7.92c-26.376,0-47.832-21.456-47.832-47.832c0-6.512,1.296-12.848,3.864-18.832
		L423.568,32l26.776,44.632l25.336-25.336l17.632,44.072c2.288,5.712,3.448,11.744,3.448,17.912
		C496.76,139.88,475.112,161.528,448.512,161.528z M425.944,67.056l-14.616,34.104c-1.704,3.984-2.568,8.2-2.568,12.536
		c0,17.552,14.28,31.832,31.824,31.832h7.92c17.784,0,32.256-14.472,32.256-32.248c0-4.128-0.776-8.152-2.304-11.976l-8.616-21.536
		l-22.664,22.664L425.944,67.056z"/>
	<path style="fill:#fff;" d="M334.496,299.512l-15.504-3.968c1.176-4.568,1.768-9.28,1.768-14.016h16
		C336.76,287.6,335.992,293.656,334.496,299.512z"/>
	<path style="fill:#fff;" d="M264.76,353.528c-39.296,0-72.848-24.776-84.176-61.64l15.296-4.704
		c9.256,30.112,36.656,50.344,68.176,50.344c20.632,0,39.216-10.728,49.216-28l13.84,8.016
		C314.272,339.736,290.376,353.528,264.76,353.528z"/>
	<path style="fill:#fff;" d="M177.12,274.256c-0.24-2.648-0.36-5.32-0.36-8.024c0-6.368,0.704-12.744,2.08-18.944l1.592-7.176
		c8.52-38.336,31.208-71.448,63.888-93.232l8.872,13.312c-29.224,19.496-49.52,49.104-57.144,83.392l-1.592,7.184
		c-1.128,5.064-1.696,10.264-1.696,15.464c0,2.216,0.104,4.408,0.296,6.568L177.12,274.256z"/>
	<path style="fill:#fff;" d="M280.76,289.528c-27.408,0-50.016-17.32-54.984-42.12c-0.672-3.384-1.016-6.84-1.016-10.28v-3.6h16
		v3.6c0,2.392,0.232,4.8,0.704,7.152c3.448,17.216,19.608,29.248,39.296,29.248V289.528z"/>
</g>
<g>
</g>
<g>
</g>
<g>
</g>
<g>
</g>
<g>
</g>
<g>
</g>
<g>
</g>
<g>
</g>
<g>
</g>
<g>
</g>
<g>
</g>
<g>
</g>
<g>
</g>
<g>
</g>
<g>
</g>
</svg>
