<?xml version="1.0" encoding="iso-8859-1"?>
<!-- Generator: Adobe Illustrator 19.0.0, SVG Export Plug-In . SVG Version: 6.00 Build 0)  -->
<svg version="1.1" id="Capa_1" xmlns="http://www.w3.org/2000/svg" xmlns:xlink="http://www.w3.org/1999/xlink" x="0px" y="0px"
	 viewBox="0 0 496 496" style="enable-background:new 0 0 496 496;" xml:space="preserve">
<g>
	<path style="fill:#68bde1;" d="M207.368,50.944L176,0h-16l-31.368,50.928C117.76,68.592,112,88.92,112,109.664V280h112V109.672
		C224,88.936,218.24,68.6,207.368,50.944z"/>
	<path style="fill:#68bde1;" d="M376,0l-2.192,0.304C371.28,1.032,312,18.944,312,104v216h80V0H376z"/>
</g>
<g>
	<path style="fill:#fff;" d="M176,255.992h-16V272H88v48h24v120c0,10.416,6.712,19.216,16,22.528V472c0,13.232,10.768,24,24,24
		h32c13.232,0,24-10.768,24-24v-9.472c9.288-3.312,16-12.112,16-22.528V320h24v-48h-72V255.992z M184,480h-32c-4.416,0-8-3.584-8-8
		v-8h48v8C192,476.416,188.416,480,184,480z M208,440c0,4.416-3.584,8-8,8h-64c-4.416,0-8-3.584-8-8V320h80V440z M232,304H104v-16
		h128V304z"/>
	<rect x="160" style="fill:#fff;" width="16" height="240"/>
	<rect x="144" y="336" style="fill:#fff;" width="16" height="64"/>
	<rect x="144" y="416" style="fill:#fff;" width="16" height="16"/>
	<path style="fill:#fff;" d="M392,312h-80c-8.824,0-16,7.176-16,16v128c0,22.056,17.944,40,40,40h32c22.056,0,40-17.944,40-40
		V328C408,319.176,400.816,312,392,312z M392,456c0,13.232-10.768,24-24,24h-32c-13.232,0-24-10.768-24-24V328h80V456z"/>
	<path style="fill:#fff;" d="M352,392c13.232,0,24-10.768,24-24s-10.768-24-24-24s-24,10.768-24,24S338.768,392,352,392z
		 M352,360c4.416,0,8,3.584,8,8s-3.584,8-8,8s-8-3.584-8-8S347.584,360,352,360z"/>
	<rect x="344" y="256" style="fill:#fff;" width="16" height="16"/>
	<rect x="344" y="104" style="fill:#fff;" width="16" height="136"/>
</g>
<g>
</g>
<g>
</g>
<g>
</g>
<g>
</g>
<g>
</g>
<g>
</g>
<g>
</g>
<g>
</g>
<g>
</g>
<g>
</g>
<g>
</g>
<g>
</g>
<g>
</g>
<g>
</g>
<g>
</g>
</svg>
