<?xml version="1.0" encoding="iso-8859-1"?>
<!-- Generator: Adobe Illustrator 19.0.0, SVG Export Plug-In . SVG Version: 6.00 Build 0)  -->
<svg version="1.1" id="Layer_1" xmlns="http://www.w3.org/2000/svg" xmlns:xlink="http://www.w3.org/1999/xlink" x="0px" y="0px"
	 viewBox="0 0 290.626 290.626" style="enable-background:new 0 0 290.626 290.626;" xml:space="preserve">
<g>
	<g>
		<circle style="fill:#68bde1;" cx="65.626" cy="79.688" r="23.438"/>
		<polygon style="fill:#fff;" points="87.381,69.225 81.371,62.025 56.542,82.72 50.19,76.373 43.562,83.002 55.961,95.405 		"/>
		<rect x="103.126" y="65.625" style="fill:#fff;" width="70.312" height="9.375"/>
		<rect x="103.126" y="84.375" style="fill:#fff;" width="79.687" height="9.375"/>
		<polygon style="fill:#fff;" points="87.381,116.1 81.371,108.9 56.542,129.595 50.19,123.248 43.562,129.877 55.961,142.28 		
			"/>
		<rect x="103.126" y="112.5" style="fill:#fff;" width="98.437" height="9.375"/>
		<rect x="103.126" y="131.25" style="fill:#fff;" width="18.75" height="9.375"/>
		<rect x="131.251" y="131.25" style="fill:#fff;" width="70.312" height="9.375"/>
		<polygon style="fill:#fff;" points="87.381,162.975 81.371,155.775 56.542,176.47 50.19,170.123 43.562,176.752 
			55.961,189.155 		"/>
		<rect x="103.126" y="159.375" style="fill:#fff;" width="98.437" height="9.375"/>
		<rect x="103.126" y="178.125" style="fill:#fff;" width="70.312" height="9.375"/>
		<rect x="182.813" y="178.125" style="fill:#fff;" width="18.75" height="9.375"/>
		<rect x="182.813" y="65.625" style="fill:#fff;" width="18.75" height="9.375"/>
		<path style="fill:#fff;" d="M276.563,215.625h-9.375h-9.375h-9.375h-9.375V23.438C239.063,10.514,228.549,0,215.626,0H23.439
			C10.515,0,0.001,10.514,0.001,23.438s10.514,23.438,23.437,23.438v243.75h196.875V262.5h18.75v-18.75h9.375h9.375h9.375h9.375
			c7.753,0,14.062-6.309,14.062-14.063S284.316,215.625,276.563,215.625z M229.688,23.438v192.188h-9.375V37.5h-4.688
			c-7.753,0-14.062-6.309-14.062-14.063s6.309-14.063,14.062-14.063S229.688,15.684,229.688,23.438z M9.376,23.438
			c0-7.753,6.309-14.063,14.062-14.063h173.559c-2.977,3.928-4.809,8.766-4.809,14.063s1.833,10.134,4.809,14.063H23.439
			C15.686,37.5,9.376,31.191,9.376,23.438z M32.814,281.25V46.875h178.125v168.75H78.929l-42.187,14.063l42.187,14.063h132.009v37.5
			H32.814V281.25z M66.386,229.688l8.615-2.874v5.742L66.386,229.688z M229.688,253.125h-9.375v-9.375h9.375V253.125z
			 M239.063,234.375H84.376V225h154.687V234.375z M257.813,234.375h-9.375V225h9.375V234.375z M276.563,234.375h-9.375V225h9.375
			c2.587,0,4.687,2.105,4.687,4.688S279.151,234.375,276.563,234.375z"/>
	</g>
</g>
<g>
</g>
<g>
</g>
<g>
</g>
<g>
</g>
<g>
</g>
<g>
</g>
<g>
</g>
<g>
</g>
<g>
</g>
<g>
</g>
<g>
</g>
<g>
</g>
<g>
</g>
<g>
</g>
<g>
</g>
</svg>
