<?xml version="1.0" encoding="iso-8859-1"?>
<!-- Generator: Adobe Illustrator 19.0.0, SVG Export Plug-In . SVG Version: 6.00 Build 0)  -->
<svg version="1.1" id="Layer_1" xmlns="http://www.w3.org/2000/svg" xmlns:xlink="http://www.w3.org/1999/xlink" x="0px" y="0px"
	 viewBox="0 0 290.626 290.626" style="enable-background:new 0 0 290.626 290.626;" xml:space="preserve">
<g>
	<g>
		<rect x="18.751" y="173.438" style="fill:#68bde1;" width="121.875" height="75"/>
		<path style="fill:#fff;" d="M159.376,0c-72.37,0-131.25,58.88-131.25,131.25c0,7.805,0.745,15.661,2.156,23.438H14.064
			c-7.754,0-14.063,6.309-14.063,14.062v84.375c0,7.753,6.309,14.063,14.062,14.063h32.812v14.063h-9.374v9.375h9.375h65.625h9.375
			v-9.375h-9.375v-14.063h32.812c4.181,0,7.903-1.87,10.481-4.777c1.191,0.033,2.381,0.089,3.581,0.089
			c72.37,0,131.25-58.88,131.25-131.25S231.746,0,159.376,0z M145.314,154.688h-37.959c-2.433-9.394-3.802-19.055-4.092-28.833
			c7.519-2.016,13.13-8.559,13.772-16.542c6.277-0.923,12.605-1.5,18.905-1.5c24.094,0,47.475,6.666,68.006,19.162
			c-1.467,2.677-2.381,5.7-2.381,8.963c0,7.387,4.331,13.73,10.556,16.781c-10.008,24.975-28.898,46.012-52.744,58.753V168.75
			C159.376,160.997,153.067,154.688,145.314,154.688z M163.782,11.288c15.412,9.113,28.495,21.722,38.227,36.839
			c-2.147,2.278-3.703,5.091-4.495,8.217c-33.141,0.947-64.589,13.439-89.362,35.508c-0.436-0.267-0.886-0.502-1.345-0.731
			C114.704,58.289,135.207,29.569,163.782,11.288z M220.313,110.156c0,2.344-0.094,4.702-0.239,7.055
			c-3.506,0.047-6.755,1.083-9.544,2.808c-22.411-14.081-48.103-21.581-74.592-21.581c-6.834,0-13.711,0.544-20.512,1.556
			c-0.225-0.483-0.497-0.933-0.759-1.392c23.025-20.391,52.181-31.955,82.903-32.883c2.133,8.016,9.38,13.969,18.056,13.969
			c0.15,0,0.291-0.042,0.441-0.047C218.832,89.644,220.313,99.881,220.313,110.156z M215.626,70.313
			c-5.17,0-9.375-4.205-9.375-9.375s4.205-9.375,9.375-9.375s9.375,4.205,9.375,9.375S220.796,70.313,215.626,70.313z
			 M98.439,98.438c5.17,0,9.375,4.205,9.375,9.375s-4.205,9.375-9.375,9.375s-9.375-4.205-9.375-9.375S93.268,98.438,98.439,98.438z
			 M91.712,125.264c0.708,0.272,1.434,0.492,2.18,0.68c0.281,9.731,1.556,19.355,3.816,28.748h-20.34
			C80.893,144.323,85.689,134.47,91.712,125.264z M220.313,145.313c-5.17,0-9.375-4.205-9.375-9.375s4.205-9.375,9.375-9.375
			s9.375,4.205,9.375,9.375S225.484,145.313,220.313,145.313z M229.29,119.578c0.239-3.141,0.398-6.295,0.398-9.422
			c0-11.156-1.613-22.266-4.622-33.112c3.094-1.819,5.592-4.481,7.223-7.692c14.475,3.469,28.069,9.272,40.477,17.302
			c5.452,13.823,8.484,28.861,8.484,44.597c0,20.597-5.156,40.003-14.212,57.033c-6.591-16.941-16.542-32.602-29.18-45.919
			c0.741-2.016,1.205-4.162,1.205-6.427C239.063,128.869,235.084,122.775,229.29,119.578z M265.688,71.761
			c-9.919-5.081-20.414-8.948-31.387-11.564c-0.398-9.989-8.588-18.009-18.675-18.009c-1.988,0-3.872,0.394-5.672,0.97
			c-7.917-12.328-17.892-23.119-29.461-31.917C217.084,17.667,248.096,40.448,265.688,71.761z M149.513,9.806
			c-25.856,19.617-44.311,47.7-51.867,79.336c-9.966,0.427-17.958,8.602-17.958,18.67c0,0.802,0.141,1.561,0.234,2.334
			c-15.591,6.787-29.958,16.448-42.178,28.364c-0.145-2.423-0.244-4.847-0.244-7.261C37.501,67.373,86.912,14.85,149.513,9.806z
			 M39.09,150.595c12.366-13.523,27.567-24.403,44.283-31.73c0.23,0.309,0.488,0.595,0.736,0.895
			c-7.153,10.861-12.731,22.57-16.617,34.927H39.789C39.521,153.328,39.31,151.959,39.09,150.595z M103.126,281.25H56.251v-14.063
			h46.875V281.25z M112.501,257.813H46.876H14.064c-2.583,0-4.687-2.105-4.687-4.688V168.75c0-2.583,2.105-4.688,4.687-4.688h18.183
			h113.067c2.583,0,4.688,2.105,4.688,4.688v84.375c0,0.52-0.141,0.998-0.295,1.467c-0.08,0.216-0.159,0.431-0.267,0.647
			c-0.783,1.509-2.316,2.573-4.125,2.573L112.501,257.813L112.501,257.813z M159.376,240.652c6.553,4.148,13.387,7.725,20.475,10.72
			c-6.661,1.13-13.495,1.753-20.475,1.753V240.652z M196.243,247.411c-13.106-3.98-25.514-9.961-36.867-17.883v-7.514
			c28.392-13.716,50.827-38.18,62.062-67.439c4.158-0.253,7.917-1.852,10.912-4.383c12.895,13.988,22.664,30.623,28.453,48.534
			C245.584,221.531,222.887,238.936,196.243,247.411z"/>
	</g>
</g>
<g>
</g>
<g>
</g>
<g>
</g>
<g>
</g>
<g>
</g>
<g>
</g>
<g>
</g>
<g>
</g>
<g>
</g>
<g>
</g>
<g>
</g>
<g>
</g>
<g>
</g>
<g>
</g>
<g>
</g>
</svg>
