<?xml version="1.0" encoding="iso-8859-1"?>
<!-- Generator: Adobe Illustrator 19.0.0, SVG Export Plug-In . SVG Version: 6.00 Build 0)  -->
<svg version="1.1" id="Layer_1" xmlns="http://www.w3.org/2000/svg" xmlns:xlink="http://www.w3.org/1999/xlink" x="0px" y="0px"
	 viewBox="0 0 290.626 290.626" style="enable-background:new 0 0 290.626 290.626;" xml:space="preserve">
<g>
	<g>
		<path style="fill:#68bde1;" d="M262.5,220.313H28.126c-15.511,0-28.125-12.615-28.125-28.125V0h54.281l18.75,32.813h217.594
			v159.375C290.625,207.698,278.011,220.313,262.5,220.313z"/>
		<path style="fill:#fff;" d="M290.625,271.875H158.512c-1.416-3.97-4.542-7.097-8.512-8.513v-10.477
			c46.927-2.461,84.375-41.297,84.375-88.823c0-49.111-39.952-89.063-89.062-89.063s-89.063,39.953-89.063,89.064
			c0,47.527,37.448,86.363,84.375,88.823v10.477c-3.97,1.416-7.097,4.542-8.512,8.513H0.001v9.375h132.112
			c1.941,5.442,7.097,9.375,13.2,9.375s11.259-3.933,13.2-9.375h132.112L290.625,271.875L290.625,271.875z M117.189,131.25
			c0-15.736,4.645-30.825,13.373-43.927c6.225,3.53,11.995,7.725,17.236,12.539c-1.561,2.264-2.484,4.997-2.484,7.95
			c0,0.816,0.108,1.608,0.239,2.386c-11.644,8.213-21.075,18.928-27.614,31.444C117.484,138.197,117.189,134.728,117.189,131.25z
			 M168.751,210.938c0-2.587,2.1-4.688,4.688-4.688s4.688,2.1,4.688,4.688s-2.1,4.688-4.688,4.688S168.751,213.525,168.751,210.938z
			 M173.438,196.875c-4.716,0-8.873,2.353-11.423,5.925c-14.845-7.242-27.047-18.895-34.983-33.403
			c0.928-0.914,1.688-1.978,2.334-3.117c6.741,1.608,13.655,2.47,20.634,2.47c6.97,0,13.884-0.862,20.634-2.475
			c1.631,2.859,4.2,5.086,7.322,6.244c-0.337,8.278-1.781,16.444-4.313,24.375C173.579,196.894,173.508,196.875,173.438,196.875z
			 M117.189,154.688c2.588,0,4.688,2.1,4.688,4.688s-2.1,4.688-4.688,4.688c-2.587,0-4.687-2.1-4.687-4.688
			S114.601,154.688,117.189,154.688z M182.813,164.063c-2.587,0-4.687-2.1-4.687-4.688s2.1-4.688,4.687-4.688
			c2.587,0,4.688,2.1,4.688,4.688S185.4,164.063,182.813,164.063z M168.99,157.027c-12.431,3.047-25.575,3.037-37.973,0.005
			c-0.633-3.75-2.737-6.989-5.714-9.103c5.737-11.747,14.245-21.834,24.905-29.541c2.466,2.142,5.648,3.488,9.169,3.488
			c1.913,0,3.736-0.389,5.4-1.088c4.959,8.287,8.564,17.198,10.753,26.616C172.126,149.484,169.678,152.944,168.99,157.027z
			 M159.376,112.5c-2.587,0-4.687-2.105-4.687-4.688s2.1-4.688,4.687-4.688c2.587,0,4.688,2.105,4.688,4.688
			S161.963,112.5,159.376,112.5z M117.821,173.372c0.23-0.009,0.45-0.047,0.675-0.07c9.131,16.997,23.489,30.539,40.987,38.658
			c0.22,3.014,1.383,5.747,3.211,7.936c-5.353,8.194-11.897,15.431-19.533,21.595c-16.495-15.098-25.973-36.22-25.973-58.678
			C117.189,179.662,117.446,176.508,117.821,173.372z M155.645,243c5.719-5.484,10.753-11.597,15.089-18.277
			c0.877,0.173,1.777,0.277,2.705,0.277c4.58,0,8.611-2.231,11.18-5.63c4.073,0.572,8.17,0.942,12.258,0.942
			c1.673,0,3.366-0.155,5.053-0.248C189.765,232.355,173.631,240.656,155.645,243z M210.559,209.672
			c-7.744,1.345-15.488,1.528-23.123,0.614c-0.192-4.05-2.095-7.627-5.011-10.073c2.906-8.967,4.552-18.206,4.908-27.586
			c5.531-1.894,9.544-7.088,9.544-13.252c0-1.28-0.23-2.498-0.548-3.68c8.841-5.405,16.706-12.361,23.194-20.47
			c3.492,8.958,5.48,18.661,5.48,28.838C225.001,181.027,219.629,196.739,210.559,209.672z M215.003,125.508
			c-6.398,9.056-14.634,16.697-24.108,22.397c-1.8-1.27-3.914-2.091-6.197-2.4c-2.55-11.095-6.872-21.572-12.909-31.233
			c1.022-1.945,1.65-4.12,1.65-6.459c0-0.342-0.075-0.666-0.103-1.003c7.552-2.367,15.337-3.642,23.236-3.675
			C203.995,109.392,210.258,116.967,215.003,125.508z M184.43,94.716c-5.03,0.722-9.989,1.88-14.864,3.464
			c-2.564-2.714-6.169-4.43-10.191-4.43c-1.317,0-2.564,0.239-3.773,0.581c-3.755-3.586-7.762-6.886-12.014-9.867
			c0.577-0.014,1.139-0.089,1.725-0.089C159.531,84.375,172.861,88.163,184.43,94.716z M118.543,89.1
			c-7.017,12.933-10.73,27.281-10.73,42.15c0,5.512,0.544,11.025,1.566,16.439c-0.117,0.08-0.22,0.183-0.338,0.263
			c-12.056-7.252-21.895-17.475-28.72-29.845C89.71,104.873,103.014,94.664,118.543,89.1z M65.626,164.063
			c0-13.327,3.328-25.87,9.136-36.919c7.327,11.639,17.175,21.347,28.927,28.528c-0.333,1.186-0.563,2.414-0.563,3.703
			c0,4.575,2.227,8.606,5.62,11.175c-0.562,4.064-0.933,8.166-0.933,12.263c0,22.195,8.227,43.275,22.875,59.531
			C93.718,235.448,65.626,203.002,65.626,164.063z M145.314,281.25c-2.587,0-4.688-2.1-4.688-4.688s2.1-4.688,4.688-4.688
			s4.688,2.1,4.688,4.688S147.9,281.25,145.314,281.25z"/>
	</g>
</g>
<g>
</g>
<g>
</g>
<g>
</g>
<g>
</g>
<g>
</g>
<g>
</g>
<g>
</g>
<g>
</g>
<g>
</g>
<g>
</g>
<g>
</g>
<g>
</g>
<g>
</g>
<g>
</g>
<g>
</g>
</svg>
