<?xml version="1.0" encoding="iso-8859-1"?>
<!-- Generator: Adobe Illustrator 19.0.0, SVG Export Plug-In . SVG Version: 6.00 Build 0)  -->
<svg version="1.1" id="Layer_1" xmlns="http://www.w3.org/2000/svg" xmlns:xlink="http://www.w3.org/1999/xlink" x="0px" y="0px"
	 viewBox="0 0 290.625 290.625" style="enable-background:new 0 0 290.625 290.625;" xml:space="preserve">
<g>
	<g>
		<path style="fill:#fff;" d="M239.062,194.531h-10.641v-9.375h10.641c23.259,0,42.187-18.923,42.187-42.188
			c0-21.783-16.327-39.83-37.973-41.977l-4.223-0.417l0.019-4.716c-0.009-33.366-27.347-60.703-60.947-60.703
			c-23.391,0-44.995,13.711-55.041,34.931l-2.339,4.936l-4.523-3.056c-3.872-2.616-8.4-3.998-13.097-3.998
			c-9.173,0-17.55,5.414-21.342,13.795l-1.702,3.764l-3.947-1.214c-4.922-1.514-10.031-2.283-15.197-2.283
			c-28.43,0-51.562,23.133-51.562,51.563s23.133,51.563,51.562,51.563h1.266v9.375h-1.266C27.337,194.531,0,167.194,0,133.594
			s27.337-60.938,60.937-60.938c4.795,0,9.553,0.563,14.194,1.669c5.911-9.67,16.505-15.731,27.994-15.731
			c4.809,0,9.497,1.036,13.791,3.028c12.384-21.923,35.892-35.841,61.209-35.841c37.481,0,68.203,29.47,70.209,66.459
			c24.384,4.383,42.291,25.505,42.291,50.728C290.625,171.398,267.492,194.531,239.062,194.531z"/>
		<circle style="fill:#68bde1;" cx="145.312" cy="175.781" r="89.063"/>
		<rect x="140.625" y="114.844" style="fill:#fff;" width="9.375" height="89.063"/>
		<path style="fill:#fff;" d="M145.312,227.344c-28.43,0-51.562-23.133-51.562-51.563c0-22.641,14.508-42.413,36.094-49.195
			l2.813,8.944c-17.662,5.55-29.531,21.727-29.531,40.252c0,23.264,18.928,42.188,42.187,42.188s42.187-18.923,42.187-42.188
			c0-18.525-11.869-34.702-29.531-40.247l2.812-8.944c21.586,6.778,36.094,26.55,36.094,49.191
			C196.875,204.211,173.742,227.344,145.312,227.344z"/>
	</g>
</g>
<g>
</g>
<g>
</g>
<g>
</g>
<g>
</g>
<g>
</g>
<g>
</g>
<g>
</g>
<g>
</g>
<g>
</g>
<g>
</g>
<g>
</g>
<g>
</g>
<g>
</g>
<g>
</g>
<g>
</g>
</svg>
