<?xml version="1.0" encoding="UTF-8" standalone="no"?>
<!-- Generator: Adobe Illustrator 19.0.0, SVG Export Plug-In . SVG Version: 6.00 Build 0)  -->

<svg
   xmlns:dc="http://purl.org/dc/elements/1.1/"
   xmlns:cc="http://creativecommons.org/ns#"
   xmlns:rdf="http://www.w3.org/1999/02/22-rdf-syntax-ns#"
   xmlns:svg="http://www.w3.org/2000/svg"
   xmlns="http://www.w3.org/2000/svg"
   xmlns:sodipodi="http://sodipodi.sourceforge.net/DTD/sodipodi-0.dtd"
   xmlns:inkscape="http://www.inkscape.org/namespaces/inkscape"
   version="1.1"
   id="Capa_1"
   x="0px"
   y="0px"
   viewBox="0 0 496 496"
   style="enable-background:new 0 0 496 496;"
   xml:space="preserve"
   inkscape:version="0.91 r13725"
   sodipodi:docname="prone.svg"><metadata
   id="metadata49"><rdf:RDF><cc:Work
       rdf:about=""><dc:format>image/svg+xml</dc:format><dc:type
         rdf:resource="http://purl.org/dc/dcmitype/StillImage" /><dc:title></dc:title></cc:Work></rdf:RDF></metadata><defs
   id="defs47" /><sodipodi:namedview
   pagecolor="#ffffff"
   bordercolor="#666666"
   borderopacity="1"
   objecttolerance="10"
   gridtolerance="10"
   guidetolerance="10"
   inkscape:pageopacity="0"
   inkscape:pageshadow="2"
   inkscape:window-width="701"
   inkscape:window-height="480"
   id="namedview45"
   showgrid="false"
   inkscape:zoom="0.47580645"
   inkscape:cx="248"
   inkscape:cy="245.89831"
   inkscape:window-x="939"
   inkscape:window-y="155"
   inkscape:window-maximized="0"
   inkscape:current-layer="g3" />
<g
   id="g3">
	<path
   style="fill:#68bde1;"
   d="M215.016,360c-30.576,0-60.384,9.552-85.264,27.328l-1.752,1.24V488h144V371.752   C253.96,364.136,234.632,360,215.016,360z"
   id="path5" />
	
<path
   inkscape:connector-curvature="0"
   style="fill:#68bde1"
   d="m 132.91002,301.74073 -106.709306,-87.34121 48.503666,0 0,-213.49619781 116.41128,0 0,213.49826781 48.50366,0 -106.7093,87.33914 z"
   id="path9-9" /></g>
<path
   style="fill:#fff;"
   d="M487.192,425.6l-16.264-21.696L419.16,289.288c-8.464-18.744-14.192-38.536-17.048-58.84  c-1.4-9.96-2.112-20.112-2.112-30.16v-54.992c0-9.536-7.76-17.296-17.296-17.296c-7.456,0-14.056,4.76-16.408,11.832l-11.736,35.2  c-4.648,13.936-10.92,27.184-18.6,39.616l-22.08-44.768c-3.048-6.088-9.176-9.88-15.992-9.88c-9.864,0-17.888,8.024-17.888,17.888  v38.84c0,13.632-4,26.832-11.56,38.184c-2.912,4.36-4.44,9.432-4.44,14.664C264,284.152,275.848,296,290.424,296  c15.28,0,29.2,8.384,36.344,21.88l49.632,93.736c-3.08-1.24-6.128-2.552-9.12-3.976l-86.032-40.752  C260.68,357.152,237.784,352,215.016,352c-32.44,0-63.528,9.968-89.92,28.824l-2.76,1.968c-18.192,12.984-44.488,11.712-61.32-3.032  L0,326.368V496h452c24.256,0,44-19.744,44-44C496,442.536,492.872,433.168,487.192,425.6z M369.736,180.096l11.736-35.2  c0.176-0.536,0.672-0.896,1.232-0.896c0.72,0,1.296,0.576,1.296,1.296v54.992c0,10.8,0.768,21.696,2.272,32.384  c3.064,21.816,9.224,43.08,18.312,63.192l22.216,49.2L390.6,296.8c-11.488-15.312-26.936-27.16-44.696-34.256  c-6.016-2.4-9.904-8.144-9.904-14.632c0-3.384,1.12-6.744,3.152-9.456C352.44,220.752,362.728,201.112,369.736,180.096z M16,361.632  L50.488,391.8C62.424,402.248,77.736,408,93.584,408c9.224,0,18.128-2.064,26.416-5.736V480H16V361.632z M452,480H272v-32h-16v32  H136v-87.224C159.32,376.6,186.584,368,215.016,368c13.848,0,27.712,2.288,40.984,6.392V432h16v-51.624  c0.784,0.352,1.616,0.608,2.392,0.976l86.04,40.752C385.152,433.816,412.664,440,440,440v-16c-14.032,0-28.104-1.848-41.76-5.304  L340.904,310.4c-9.912-18.752-29.256-30.4-50.488-30.4c-5.744,0-10.416-4.672-10.416-10.424c0-2.064,0.6-4.064,1.752-5.784  c9.32-13.976,14.248-30.256,14.248-47.056v-38.84c0-1.76,2.8-2.416,3.576-0.84l25.104,50.176l1.112,2.528  c-3.704,5.296-5.792,11.68-5.792,18.152c0,13.064,7.832,24.632,19.96,29.496c15.032,6.008,28.12,16.04,37.84,28.992l96.6,128.8  c3.608,4.816,5.6,10.776,5.6,16.8C480,467.44,467.44,480,452,480z"
   id="path9" />



</svg>