<?xml version="1.0" encoding="UTF-8" standalone="no"?>
<!-- Generator: Adobe Illustrator 18.1.1, SVG Export Plug-In . SVG Version: 6.00 Build 0)  -->

<svg
   xmlns:dc="http://purl.org/dc/elements/1.1/"
   xmlns:cc="http://creativecommons.org/ns#"
   xmlns:rdf="http://www.w3.org/1999/02/22-rdf-syntax-ns#"
   xmlns:svg="http://www.w3.org/2000/svg"
   xmlns="http://www.w3.org/2000/svg"
   xmlns:sodipodi="http://sodipodi.sourceforge.net/DTD/sodipodi-0.dtd"
   xmlns:inkscape="http://www.inkscape.org/namespaces/inkscape"
   version="1.1"
   id="Capa_1"
   x="0px"
   y="0px"
   viewBox="0 0 26.99 26.99"
   style="enable-background:new 0 0 26.99 26.99;"
   xml:space="preserve"
   inkscape:version="0.91 r13725"
   sodipodi:docname="rdie6.svg"><metadata
   id="metadata71"><rdf:RDF><cc:Work
       rdf:about=""><dc:format>image/svg+xml</dc:format><dc:type
         rdf:resource="http://purl.org/dc/dcmitype/StillImage" /></cc:Work></rdf:RDF></metadata><defs
   id="defs69" /><sodipodi:namedview
   pagecolor="#ffffff"
   bordercolor="#666666"
   borderopacity="1"
   objecttolerance="10"
   gridtolerance="10"
   guidetolerance="10"
   inkscape:pageopacity="0"
   inkscape:pageshadow="2"
   inkscape:window-width="1260"
   inkscape:window-height="727"
   id="namedview67"
   showgrid="false"
   inkscape:zoom="8.7439793"
   inkscape:cx="13.495"
   inkscape:cy="13.380635"
   inkscape:window-x="0"
   inkscape:window-y="0"
   inkscape:window-maximized="0"
   inkscape:current-layer="Capa_1" />
<rect
   style="fill:#ffffff;fill-opacity:1;stroke:#000000;stroke-width:0;stroke-miterlimit:4;stroke-dasharray:none;stroke-opacity:1"
   id="rect4199"
   width="23.559067"
   height="22.644152"
   x="2.0585594"
   y="2.0585594" /><g
   id="g3">
	<path
   style="fill:#db5f29"
   d="M24.844,0.616H2.146C0.96,0.616,0,1.577,0,2.761v21.467c0,1.184,0.96,2.145,2.146,2.145h22.698   c1.182,0,2.146-0.961,2.146-2.145V2.761C26.99,1.577,26.025,0.616,24.844,0.616z M6.168,8.78c-1.533,0-2.779-1.244-2.779-2.779   c0-1.531,1.246-2.777,2.779-2.777c1.534,0,2.777,1.246,2.777,2.777C8.945,7.536,7.702,8.78,6.168,8.78z M20.949,16.272   c-1.535,0-2.778-1.242-2.778-2.777c0-1.533,1.243-2.777,2.778-2.777c1.533,0,2.779,1.244,2.779,2.777   C23.729,15.03,22.482,16.272,20.949,16.272z M6.208,16.272c-1.534,0-2.777-1.242-2.777-2.777c0-1.533,1.243-2.777,2.777-2.777   s2.777,1.244,2.777,2.777C8.985,15.03,7.742,16.272,6.208,16.272z M21.165,23.62c-1.532,0-2.778-1.244-2.778-2.777   s1.246-2.777,2.778-2.777c1.534,0,2.778,1.244,2.778,2.777S22.699,23.62,21.165,23.62z M21.006,8.828   c-1.533,0-2.777-1.244-2.777-2.775c0-1.533,1.244-2.777,2.777-2.777s2.777,1.244,2.777,2.777   C23.783,7.583,22.539,8.828,21.006,8.828z M6.235,23.557c-1.533,0-2.777-1.244-2.777-2.777c0-1.535,1.244-2.777,2.777-2.777   c1.534,0,2.779,1.242,2.779,2.777C9.015,22.313,7.77,23.557,6.235,23.557z"
   id="path5" />
	<g
   id="g7">
	</g>
	<g
   id="g9">
	</g>
	<g
   id="g11">
	</g>
	<g
   id="g13">
	</g>
	<g
   id="g15">
	</g>
	<g
   id="g17">
	</g>
	<g
   id="g19">
	</g>
	<g
   id="g21">
	</g>
	<g
   id="g23">
	</g>
	<g
   id="g25">
	</g>
	<g
   id="g27">
	</g>
	<g
   id="g29">
	</g>
	<g
   id="g31">
	</g>
	<g
   id="g33">
	</g>
	<g
   id="g35">
	</g>
</g>
<g
   id="g37">
</g>
<g
   id="g39">
</g>
<g
   id="g41">
</g>
<g
   id="g43">
</g>
<g
   id="g45">
</g>
<g
   id="g47">
</g>
<g
   id="g49">
</g>
<g
   id="g51">
</g>
<g
   id="g53">
</g>
<g
   id="g55">
</g>
<g
   id="g57">
</g>
<g
   id="g59">
</g>
<g
   id="g61">
</g>
<g
   id="g63">
</g>
<g
   id="g65">
</g>
</svg>