<?xml version="1.0" encoding="iso-8859-1"?>
<!-- Generator: Adobe Illustrator 19.0.0, SVG Export Plug-In . SVG Version: 6.00 Build 0)  -->
<svg version="1.1" id="Capa_1" xmlns="http://www.w3.org/2000/svg" xmlns:xlink="http://www.w3.org/1999/xlink" x="0px" y="0px"
	 viewBox="0 0 496 496" style="enable-background:new 0 0 496 496;" xml:space="preserve">
<path style="fill:#68bde1;" d="M496,464H32V160h464V464z"/>
<polygon style="fill:#fff;" points="368,480 16,480 16,16 368,16 368,144 384,144 384,0 0,0 0,496 384,496 384,464 368,464 "/>
<rect style="fill:#fff;" x="64" y="32" width="288" height="16"/>
<rect style="fill:#fff;" x="32" y="64" width="320" height="16"/>
<rect style="fill:#fff;" x="32" y="96" width="320" height="16"/>
<path style="fill:#fff;" d="M115.056,288L136,329.888L156.944,288h42l-21.328-32l21.328-32h-42L136,182.112L115.056,224h-42l21.328,32l-21.328,32
	H115.056z M102.944,240h22L136,217.888L147.056,240h22l-10.672,16l10.672,16h-22L136,294.112L124.944,272h-22l10.672-16L102.944,240
	z"/>
<path style="fill:#fff;" d="M284.944,224L264,182.112L243.056,224h-42l21.328,32l-21.328,32h42L264,329.888L284.944,288h42l-21.328-32l21.328-32
	H284.944z M297.056,272h-22L264,294.112L252.944,272h-22l10.672-16l-10.672-16h22L264,217.888L275.056,240h22l-10.672,16
	L297.056,272z"/>
<path style="fill:#fff;" d="M454.944,224h-42L392,182.112L371.056,224h-42l21.328,32l-21.328,32h42L392,329.888L412.944,288h42l-21.328-32L454.944,224z
	 M425.056,272h-22L392,294.112L380.944,272h-22l10.672-16l-10.672-16h22L392,217.888L403.056,240h22l-10.672,16L425.056,272z"/>
<path style="fill:#fff;" d="M220.944,336L200,294.112L179.056,336h-42l21.328,32l-21.328,32h42L200,441.888L220.944,400h42l-21.328-32l21.328-32
	H220.944z M233.056,384h-22L200,406.112L188.944,384h-22l10.672-16l-10.672-16h22L200,329.888L211.056,352h22l-10.672,16
	L233.056,384z"/>
<path style="fill:#fff;" d="M348.944,336L328,294.112L307.056,336h-42l21.328,32l-21.328,32h42L328,441.888L348.944,400h42l-21.328-32l21.328-32
	H348.944z M361.056,384h-22L328,406.112L316.944,384h-22l10.672-16l-10.672-16h22L328,329.888L339.056,352h22l-10.672,16
	L361.056,384z"/>
<rect style="fill:#fff;" x="32" y="128" width="288" height="16"/>
<rect style="fill:#fff;" x="336" y="128" width="16" height="16"/>
<rect style="fill:#fff;" x="32" y="32" width="16" height="16"/>

</svg>
