<?xml version="1.0" encoding="UTF-8" standalone="no"?>
<svg
   xmlns:dc="http://purl.org/dc/elements/1.1/"
   xmlns:cc="http://creativecommons.org/ns#"
   xmlns:rdf="http://www.w3.org/1999/02/22-rdf-syntax-ns#"
   xmlns:svg="http://www.w3.org/2000/svg"
   xmlns="http://www.w3.org/2000/svg"
   xmlns:sodipodi="http://sodipodi.sourceforge.net/DTD/sodipodi-0.dtd"
   xmlns:inkscape="http://www.inkscape.org/namespaces/inkscape"
   height="496pt"
   viewBox="0 0 496 496"
   width="496pt"
   id="svg2"
   version="1.1"
   inkscape:version="0.91 r13725"
   sodipodi:docname="right.svg">
  <metadata
     id="metadata26">
    <rdf:RDF>
      <cc:Work
         rdf:about="">
        <dc:format>image/svg+xml</dc:format>
        <dc:type
           rdf:resource="http://purl.org/dc/dcmitype/StillImage" />
        <dc:title></dc:title>
      </cc:Work>
    </rdf:RDF>
  </metadata>
  <defs
     id="defs24" />
  <sodipodi:namedview
     pagecolor="#ffffff"
     bordercolor="#666666"
     borderopacity="1"
     objecttolerance="10"
     gridtolerance="10"
     guidetolerance="10"
     inkscape:pageopacity="0"
     inkscape:pageshadow="2"
     inkscape:window-width="1021"
     inkscape:window-height="647"
     id="namedview22"
     showgrid="false"
     inkscape:zoom="0.53831355"
     inkscape:cx="93.080894"
     inkscape:cy="269.94317"
     inkscape:window-x="605"
     inkscape:window-y="197"
     inkscape:window-maximized="0"
     inkscape:current-layer="svg2" />
  <path
     d="M 248,0 C 111.25286,0 0,111.25286 0,248 0,384.74714 111.25286,496 248,496 384.74714,496 496,384.74714 496,248 496,111.25286 384.74714,0 248,0 Z m 78.20917,272.89386 -43.65552,33.99571 -29.35222,10.77309 -59.81775,42.72733 C 182.98082,141.5545 190.30663,208.83941 182.98082,141.5545 308.12518,258.44163 216.5091,127.51532 325.09327,247.25694 Z"
     id="path18"
     inkscape:connector-curvature="0"
     style="fill:#68bde1"
     sodipodi:nodetypes="sssssccccccc" />
  <path
     d="M 353.33682,229.91704 177.12196,97.765362 l 0,302.061008 176.21486,-132.1517 c 0,0 29.23726,-16.49416 0,-37.75763 z m -138.45723,94.39407 0,-151.03052 100.68072,75.51526 z"
     id="path3"
     inkscape:connector-curvature="0"
     sodipodi:nodetypes="ccccccccc"
     style="fill:#ffffff" />
</svg>
