<?xml version="1.0" encoding="iso-8859-1"?>
<!-- Generator: Adobe Illustrator 19.0.0, SVG Export Plug-In . SVG Version: 6.00 Build 0)  -->
<svg version="1.1" id="Capa_1" xmlns="http://www.w3.org/2000/svg" xmlns:xlink="http://www.w3.org/1999/xlink" x="0px" y="0px"
	 viewBox="0 0 491.64 491.64" style="enable-background:new 0 0 491.64 491.64;" xml:space="preserve">
<g>
	<path style="fill:#68bde1;" d="M480,335.036c0-3.44-0.68-6.848-2.008-10.024l-25.688-61.648
		c-7.096-17.032-10.992-35.152-11.912-53.536H440h-6.112c-10.96,0-20.984-6.192-25.888-16h-48l56,176l1.392,4.872l44.784-14.928
		C472.824,356.212,480,346.252,480,335.036z"/>
	<path style="fill:#68bde1;" d="M72,393.82H24c-4.424,0-8-3.576-8-8v-67.16c0-20.744,10.304-40,27.56-51.504
		c2.688-1.8,6.184-1.8,8.872,0C69.696,278.66,80,297.924,80,318.66v67.16C80,390.244,76.424,393.82,72,393.82z"/>
	<path style="fill:#68bde1;" d="M200,393.82h-48c-4.424,0-8-3.576-8-8v-67.16c0-20.744,10.304-40,27.56-51.504
		c2.688-1.8,6.184-1.8,8.872,0C197.696,278.66,208,297.924,208,318.66v67.16C208,390.244,204.424,393.82,200,393.82z"/>
</g>
<path style="fill:#fff;" d="M459.688,260.284c-6.824-16.368-10.68-33.552-11.512-51.176c18.76-3.328,34.112-17.904,37.944-37.088l5.52-27.568
	L461.4,164.62c-4.496,3-9.64,4.752-15,5.136l-3.68-16.552c1.704,0.376,3.464,0.616,5.28,0.616c13.232,0,24-10.768,24-24
	s-10.768-24-24-24c-5.544,0-10.6,1.968-14.664,5.144l-2.92-13.144H304v8h-40v-8H72c-8.824,0-16,7.176-16,16v72
	c0,8.824,7.176,16,16,16h176v8c0,22.056,17.944,40,40,40h50.096l25.672,83.448c1.952,6.36,0.248,13.224-4.456,17.928
	c-4.648,4.648-7.312,11.08-7.312,17.656c0,13.768,11.2,24.968,24.968,24.968h4.272c2.672,0,5.32-0.432,7.896-1.28l75.568-25.192
	C478.64,362.7,488,349.716,488,335.028c0-4.52-0.88-8.936-2.624-13.104L459.688,260.284z M448,121.82c4.416,0,8,3.584,8,8
	s-3.584,8-8,8s-8-3.584-8-8S443.584,121.82,448,121.82z M426.472,153.82h-13.2l-17.144-40h21.456L426.472,153.82z M381.272,153.82
	l-17.144-40h14.6l17.144,40H381.272z M363.872,153.82h-14.6l-17.144-40h14.6L363.872,153.82z M304,121.82v16h-40v-16H304z
	 M459.648,352.172l-36.952,12.32l-51.76-162.672H408v-16h-58.936l58.456,183.728l-23.416,7.808
	c-0.936,0.304-1.896,0.464-2.864,0.464h-4.272c-4.944,0-8.968-4.024-8.968-8.968c0-2.36,0.952-4.672,2.624-6.344
	c8.904-8.904,12.136-21.912,8.44-33.944l-29.16-94.744h-0.144l-6.88-20.648c-5.448-16.36-20.704-27.352-37.944-27.352H280v16h16v16
	h16v-14.912c7.272,2.24,13.208,7.824,15.712,15.328l5.192,15.584H288c-13.232,0-24-10.768-24-24v-24h-64v-16h32v-16h-32v-16h-96v16
	h80v32H72v-32h16v-16H72v-24h176v40h16v16h16v-16h40v-27.696l18.728,43.696h91.304l3.552,16h10.592
	c7.352,0,14.512-1.704,21.024-4.952c-5.696,7.904-14.984,12.952-25.2,12.952h-8v8c0,22.296,4.344,44.04,12.92,64.616l25.688,61.656
	c0.92,2.208,1.392,4.544,1.392,6.936C472,342.82,467.04,349.7,459.648,352.172z"/>
<rect style="fill:#fff;" y="377.82" width="96" height="16"/>
<rect style="fill:#fff;" x="16" y="345.82" width="64" height="16"/>
<rect style="fill:#fff;" x="128" y="377.82" width="96" height="16"/>
<rect style="fill:#fff;" x="144" y="345.82" width="64" height="16"/>
<rect style="fill:#fff;" x="432" y="313.82" width="16" height="16"/>

</svg>
