<?xml version="1.0" encoding="iso-8859-1"?>
<!-- Generator: Adobe Illustrator 19.0.0, SVG Export Plug-In . SVG Version: 6.00 Build 0)  -->
<svg version="1.1" id="Capa_1" xmlns="http://www.w3.org/2000/svg" xmlns:xlink="http://www.w3.org/1999/xlink" x="0px" y="0px"
	 viewBox="0 0 496 496" style="enable-background:new 0 0 496 496;" xml:space="preserve">
<path style="fill:#68bde1;" d="M452,110.504l-1.448-1.984C433.872,85.576,407.216,72,378.848,72
	c-17.504,0-34.616,5.184-49.184,14.888l-19.472,12.984c-4.04,2.696-8.784,4.128-13.632,4.128C283,104,272,93,272,79.44V24
	c0,8.84-19.704,16-44,16s-44-7.16-44-16v70.704c0,16.76,2.704,33.4,8,49.296s8,32.544,8,49.296v2.016
	c0,38.08-18.392,73.824-49.384,95.96c-4.304,3.072-9.456,4.728-14.744,4.728h-13.36c-6.728,0-13.184-2.672-17.944-7.432
	c-10.608-10.608-25-16.568-40-16.568C33.328,272,8,297.328,8,328.568V472c0-8.84,14.328-16,32-16s32,7.16,32,16v-52.776
	c0-7.184,2.856-14.08,7.936-19.168l0.12-0.12C85.144,394.856,92.04,392,99.224,392c3.16,0,6.296,0.552,9.264,1.632l17.696,6.432
	C169.728,415.896,215.704,424,262.04,424c27.76,0,55.312-4.856,81.4-14.336l3.984-1.448c29.432-10.704,56.464-27.104,79.552-48.264
	l0,0C465.856,324.296,488,273.96,488,221.208l0,0C488,181.424,475.4,142.672,452,110.504z"/>
<g>
	<path style="fill:#fff;" d="M458.472,105.792l-1.448-1.976C438.904,78.88,409.68,64,378.848,64
		c-19.152,0-37.688,5.616-53.616,16.232l-19.48,12.984C303.024,95.04,299.848,96,296.56,96C287.432,96,280,88.568,280,79.44V24
		c0-16.496-26.952-24-52-24s-52,7.504-52,24v70.704c0,17.64,2.832,35.08,8.416,51.832c5.032,15.112,7.584,30.848,7.584,46.76v2.016
		c0,35.432-17.208,68.864-46.04,89.456c-2.952,2.112-6.44,3.232-10.096,3.232h-13.36c-4.64,0-9-1.808-12.28-5.088
		C98.032,270.72,81.816,264,64.568,264C28.968,264,0,292.968,0,328.568V472c0,13.68,17.192,24,40,24s40-10.32,40-24v-52.776
		c0-5.032,2.04-9.952,5.72-13.632c5.184-5.184,13.12-6.936,20.032-4.448l17.696,6.432C168,423.784,214.632,432,262.04,432
		c28.784,0,57.096-4.984,84.128-14.824l3.992-1.456c30.576-11.12,58.24-27.904,82.216-49.88C472.816,328.784,496,276.064,496,221.2
		C496,179.464,483.024,139.552,458.472,105.792z M228,16c20.56,0,32.656,5.168,35.568,8c-2.912,2.824-15.008,8-35.568,8
		s-32.656-5.176-35.568-8C195.344,21.168,207.44,16,228,16z M40,480c-15.48,0-24-6.008-24-8s8.52-8,24-8s24,6.008,24,8
		S55.48,480,40,480z M421.56,354.048c-22.424,20.552-48.28,36.248-76.864,46.64l-3.992,1.456
		C315.416,411.336,288.952,416,262.04,416c-45.536,0-90.328-7.888-133.128-23.456l-17.696-6.44
		c-12.728-4.608-27.232-1.416-36.936,8.296C67.752,400.936,64,409.984,64,419.224v33.408C57.392,449.736,49.192,448,40,448
		s-17.392,1.736-24,4.632V328.568C16,301.792,37.792,280,64.568,280c12.968,0,25.168,5.056,34.344,14.224
		c6.304,6.304,14.68,9.776,23.592,9.776h13.36c7.008,0,13.712-2.152,19.4-6.216C188.288,274.2,208,235.896,208,195.312v-2.016
		c0-17.64-2.832-35.08-8.416-51.832c-5.032-15.112-7.584-30.848-7.584-46.76V41.912c9.944,4.12,23.208,6.088,36,6.088
		s26.056-1.968,36-6.088v37.52c0,17.952,14.608,32.56,32.56,32.56c6.456,0,12.696-1.888,18.064-5.472l19.48-12.984
		C347.392,84.688,362.864,80,378.848,80c25.728,0,50.12,12.424,65.24,33.224l1.448,1.976C468.08,146.208,480,182.864,480,221.2
		C480,271.584,458.704,320.008,421.56,354.048z"/>
	<path style="fill:#fff;" d="M445.792,246.624c-5.616,32.104-21.896,61.88-45.848,83.832
		c-19.288,17.688-41.552,31.192-66.152,40.152l-4.016,1.464c-11.408,4.144-23.208,7.248-35.088,9.232l2.64,15.784
		c12.832-2.144,25.584-5.504,37.904-9.976l4.016-1.464c26.6-9.68,50.656-24.28,71.512-43.392
		c26.536-24.328,44.576-57.312,50.8-92.88L445.792,246.624z"/>
	<path style="fill:#fff;" d="M263.92,383.992l0.16,16c5.536-0.056,11.128-0.328,16.616-0.808l-1.392-15.936
		C274.224,383.688,269.048,383.936,263.92,383.992z"/>
</g>
<g>
</g>
<g>
</g>
<g>
</g>
<g>
</g>
<g>
</g>
<g>
</g>
<g>
</g>
<g>
</g>
<g>
</g>
<g>
</g>
<g>
</g>
<g>
</g>
<g>
</g>
<g>
</g>
<g>
</g>
</svg>
