<?xml version="1.0" encoding="iso-8859-1"?>
<!-- Generator: Adobe Illustrator 19.0.0, SVG Export Plug-In . SVG Version: 6.00 Build 0)  -->
<svg version="1.1" id="Layer_1" xmlns="http://www.w3.org/2000/svg" xmlns:xlink="http://www.w3.org/1999/xlink" x="0px" y="0px"
	 viewBox="0 0 290.625 290.625" style="enable-background:new 0 0 290.625 290.625;" xml:space="preserve">
<g>
	<g>
		<polygon style="fill:#68bde1;" points="206.25,288.124 196.875,147.499 225,147.499 168.75,81.874 112.5,147.499 140.625,147.499 
			131.25,288.124 		"/>
		<path style="fill:#fff;" d="M243.75,44.374V2.187H0v215.625c0,15.511,12.614,28.125,28.125,28.125h101.236l-2.794,41.878
			l9.356,0.623l9.712-145.627h-22.95l46.064-53.733l46.059,53.733h-22.95l9.708,145.622l9.356-0.623l-2.784-41.873H262.5
			c15.511,0,28.125-12.614,28.125-28.125V44.374H243.75z M9.375,217.812V11.562h225v32.813H129.459l-9.375-18.75H46.875v192.188
			c0,10.341-8.409,18.75-18.75,18.75S9.375,228.152,9.375,217.812z M281.25,217.812c0,10.341-8.409,18.75-18.75,18.75h-54.989
			l-5.625-84.375h33.3L168.75,74.669l-66.441,77.517h33.3l-5.625,84.375H49.031c4.472-4.983,7.219-11.541,7.219-18.75V34.999h58.041
			l9.375,18.75H281.25V217.812z"/>
	</g>
</g>
<g>
</g>
<g>
</g>
<g>
</g>
<g>
</g>
<g>
</g>
<g>
</g>
<g>
</g>
<g>
</g>
<g>
</g>
<g>
</g>
<g>
</g>
<g>
</g>
<g>
</g>
<g>
</g>
<g>
</g>
</svg>
