<?xml version="1.0" encoding="iso-8859-1"?>
<!-- Generator: Adobe Illustrator 19.0.0, SVG Export Plug-In . SVG Version: 6.00 Build 0)  -->
<svg version="1.1" id="Layer_1" xmlns="http://www.w3.org/2000/svg" xmlns:xlink="http://www.w3.org/1999/xlink" x="0px" y="0px"
	 viewBox="0 0 293.598 293.598" style="enable-background:new 0 0 293.598 293.598;" xml:space="preserve">
<g>
	<g>
		<path style="fill:#68bde1;" d="M156.173,100.866v19.444c7.978,2.827,14.292,9.136,17.114,17.114h19.444
			C189.005,119.058,174.539,104.592,156.173,100.866z"/>
		<path style="fill:#68bde1;" d="M173.278,156.173c-3.858,10.917-14.236,18.75-26.48,18.75c-15.534,0-28.125-12.591-28.125-28.125
			c0-12.239,7.833-22.617,18.75-26.48V100.88c-21.394,4.345-37.5,23.241-37.5,45.919c0,25.889,20.986,46.875,46.875,46.875
			c22.673,0,41.573-16.106,45.919-37.5h-19.439V156.173z"/>
		<path style="fill:#fff;" d="M290.981,143.753c-2.353-2.747-58.636-67.266-144.183-67.266S4.969,141.005,2.616,143.753
			L0,146.798l2.616,3.047c2.353,2.747,58.636,67.266,144.183,67.266s141.83-64.519,144.183-67.266l2.616-3.047L290.981,143.753z
			 M207.736,146.798c0,33.6-27.337,60.938-60.938,60.938s-60.937-27.338-60.937-60.938s27.338-60.938,60.937-60.938
			S207.736,113.198,207.736,146.798z M12.562,146.794c9.544-9.914,42.595-41.287,90.192-54.722
			c-15.998,12.9-26.269,32.625-26.269,54.727c0,22.087,10.256,41.803,26.231,54.703C55.195,188.048,22.111,156.698,12.562,146.794z
			 M190.842,201.525c15.998-12.9,26.269-32.625,26.269-54.727c0-22.088-10.256-41.803-26.231-54.703
			c47.527,13.453,80.606,44.803,90.155,54.708C271.491,156.717,238.439,188.091,190.842,201.525z"/>
		<path style="fill:#fff;" d="M146.798,57.736c39.548,0,78.103,12.291,114.595,36.534l5.184-7.809
			c-37.519-24.923-78.942-38.1-119.78-38.1c-32.592,0-64.852,8.095-95.897,24.056l4.289,8.339
			C84.891,65.48,115.716,57.736,146.798,57.736z"/>
		<path style="fill:#fff;" d="M46.003,85.777l-4.655-8.137c-5.025,2.873-9.848,5.845-14.33,8.822l5.184,7.809
			C36.516,91.411,41.156,88.552,46.003,85.777z"/>
		<path style="fill:#fff;" d="M146.798,235.861c-39.548,0-78.103-12.291-114.595-36.534l-5.184,7.809
			c37.519,24.923,78.942,38.1,119.78,38.1c32.597,0,64.856-8.1,95.897-24.061l-4.289-8.339
			C208.711,228.117,177.886,235.861,146.798,235.861z"/>
		<path style="fill:#fff;" d="M247.594,207.82l4.655,8.137c5.025-2.873,9.848-5.845,14.33-8.822l-5.184-7.809
			C257.081,202.186,252.441,205.046,247.594,207.82z"/>
	</g>
</g>
<g>
</g>
<g>
</g>
<g>
</g>
<g>
</g>
<g>
</g>
<g>
</g>
<g>
</g>
<g>
</g>
<g>
</g>
<g>
</g>
<g>
</g>
<g>
</g>
<g>
</g>
<g>
</g>
<g>
</g>
</svg>
