<?xml version="1.0" encoding="iso-8859-1"?>
<!-- Generator: Adobe Illustrator 19.0.0, SVG Export Plug-In . SVG Version: 6.00 Build 0)  -->
<svg version="1.1" id="Layer_1" xmlns="http://www.w3.org/2000/svg" xmlns:xlink="http://www.w3.org/1999/xlink" x="0px" y="0px"
	 viewBox="0 0 290.625 290.625" style="enable-background:new 0 0 290.625 290.625;" xml:space="preserve">
<g>
	<g>
		<path style="fill:#ebb530;" d="M229.687,234.375H60.938V150h168.75v84.375H229.687z"/>
		<circle style="fill:#fff;" cx="65.625" cy="117.188" r="4.688"/>
		<circle style="fill:#fff;" cx="84.375" cy="117.188" r="4.688"/>
		<circle style="fill:#fff;" cx="103.125" cy="117.188" r="4.688"/>
		<path style="fill:#fff;" d="M290.625,117.188c0-25.223-17.906-46.345-42.291-50.723C246.328,29.475,215.602,0,178.125,0
			c-25.317,0-48.825,13.917-61.209,35.841c-4.298-1.987-8.981-3.028-13.791-3.028c-11.489,0-22.083,6.061-27.994,15.731
			c-4.636-1.106-9.394-1.669-14.194-1.669C27.338,46.875,0,74.213,0,107.813c0,26.536,17.184,49.805,42.187,57.881v124.931h206.25
			V167.869C272.761,163.434,290.625,142.369,290.625,117.188z M239.062,131.25H206.25v-28.125h32.812V131.25z M196.875,131.25
			H51.563v-28.125h145.312V131.25z M51.563,281.25V140.625h187.5V281.25H51.563z M248.437,158.292V93.75H42.188v61.992
			c-19.58-7.627-32.812-26.522-32.812-47.93c0-28.43,23.133-51.563,51.562-51.563c5.175,0,10.28,0.769,15.192,2.283l3.952,1.214
			l1.702-3.764c3.792-8.381,12.169-13.795,21.342-13.795c4.697,0,9.225,1.383,13.097,4.003l4.523,3.052l2.334-4.936
			c10.05-21.22,31.659-34.931,55.045-34.931c33.6,0,60.937,27.337,60.947,60.647l-0.023,4.777l4.223,0.417
			c21.656,2.142,37.978,20.189,37.978,41.972C281.25,137.198,267.459,154.017,248.437,158.292z"/>
		<path style="fill:#fff;" d="M145.313,168.75H79.688v46.875h65.625V168.75z M135.938,206.25H89.063v-28.125h46.875V206.25z"/>
		<rect x="154.688" y="168.75" style="fill:#fff;" width="56.25" height="9.375"/>
		<rect x="154.688" y="187.5" style="fill:#fff;" width="56.25" height="9.375"/>
		<rect x="154.688" y="206.25" style="fill:#fff;" width="56.25" height="9.375"/>
		<path style="fill:#fff;" d="M60.938,276.563h46.875V243.75H60.938V276.563z M70.313,253.125h28.125v14.063H70.313V253.125z"/>
		<path style="fill:#fff;" d="M117.188,276.563h56.25V243.75h-56.25V276.563z M126.563,253.125h37.5v14.063h-37.5V253.125z"/>
		<path style="fill:#fff;" d="M182.812,276.563h46.875V243.75h-46.875V276.563z M192.187,253.125h28.125v14.063h-28.125V253.125z
			"/>
	</g>
</g>
<g>
</g>
<g>
</g>
<g>
</g>
<g>
</g>
<g>
</g>
<g>
</g>
<g>
</g>
<g>
</g>
<g>
</g>
<g>
</g>
<g>
</g>
<g>
</g>
<g>
</g>
<g>
</g>
<g>
</g>
</svg>
