<?xml version="1.0" encoding="iso-8859-1"?>
<!-- Generator: Adobe Illustrator 19.0.0, SVG Export Plug-In . SVG Version: 6.00 Build 0)  -->
<svg version="1.1" id="Capa_1" xmlns="http://www.w3.org/2000/svg" xmlns:xlink="http://www.w3.org/1999/xlink" x="0px" y="0px"
	 viewBox="0 0 496 496" style="enable-background:new 0 0 496 496;" xml:space="preserve">
<circle style="fill:#ebb530;" cx="328" cy="128" r="96"/>
<path style="fill:#ebb530;" d="M227.72,304l13.624,20.44l13.312-8.872L236.28,288H200v-32c0-18.312-10.312-34.248-25.432-42.336
	l17.432-8.72V176h-16v19.056l-24,12l-24-12V176h-16v28.944l17.432,8.712C114.312,221.752,104,237.688,104,256v32H67.72
	l-18.376,27.56l13.312,8.872L76.28,304H104v16H83.72l-18.376,27.56l13.312,8.872L92.28,336h14.52c6.608,18.616,24.344,32,45.2,32
	s38.592-13.384,45.2-32h14.52l13.624,20.44l13.312-8.872L220.28,320H200v-16H227.72z M152,224c17.648,0,32,14.352,32,32h-64
	C120,238.352,134.352,224,152,224z M160,350.864V304h-16v46.864c-13.76-3.576-24-15.992-24-30.864v-48h64v48
	C184,334.872,173.76,347.288,160,350.864z"/>
<g>
	<path style="fill:#fff;" d="M16,184c0-13.232,10.768-24,24-24h152v-16H40c-22.056,0-40,17.944-40,40v184h16V184z"/>
	<path style="fill:#fff;" d="M0,408c0,22.056,17.944,40,40,40h64v32H72v16h256v-16h-32v-32h64c22.056,0,40-17.944,40-40v-24H0
		V408z M280,480H120v-32h160V480z M16,400h368v8c0,13.232-10.768,24-24,24H40c-13.232,0-24-10.768-24-24V400z"/>
	<path style="fill:#fff;" d="M491.608,357.68l-53.896-102.416l14.328-8.36l-8.064-13.824l-13.72,8.008l-11.864-22.544
		C441.608,195.36,456,163.328,456,128C456,57.424,398.576,0,328,0S200,57.424,200,128s57.424,128,128,128
		c6.28,0,12.408-0.608,18.456-1.488l14.76,26.848l-13.248,7.728l8.064,13.832l12.904-7.528L424.4,396.24
		c6.704,12.184,19.52,19.76,33.432,19.76C478.88,416,496,398.88,496,377.832v-2.384C496,369.28,494.48,363.136,491.608,357.68z
		 M216,128c0-61.76,50.24-112,112-112s112,50.24,112,112s-50.24,112-112,112S216,189.76,216,128z M362.816,251.064
		c15.848-4.496,30.424-11.96,43.144-21.768l10.456,19.872l-41.376,24.136L362.816,251.064z M480,377.832
		c0,12.224-9.944,22.168-22.168,22.168c-8.08,0-15.52-4.4-19.424-11.48l-55.656-101.2l41.12-23.984l53.576,101.8
		c1.672,3.168,2.552,6.728,2.552,10.32V377.832z"/>
	<path style="fill:#fff;" d="M360,84.648C360,68.848,347.152,56,331.352,56h-6.704C308.848,56,296,68.848,296,84.648
		c0,3.08,0.496,6.12,1.472,9.064L314.232,144h27.528l16.768-50.304C359.504,90.768,360,87.728,360,84.648z M343.352,88.648
		L330.232,128h-4.472l-13.112-39.336C312.216,87.36,312,86.008,312,84.648C312,77.672,317.672,72,324.648,72h6.704
		C338.328,72,344,77.672,344,84.648C344,86.008,343.784,87.36,343.352,88.648z"/>
	<path style="fill:#fff;" d="M304,176c0,13.232,10.768,24,24,24s24-10.768,24-24s-10.768-24-24-24S304,162.768,304,176z M336,176
		c0,4.408-3.592,8-8,8s-8-3.592-8-8s3.592-8,8-8S336,171.592,336,176z"/>
	<path style="fill:#fff;" d="M328,48c17.744,0,34.608,5.768,48.76,16.688l9.776-12.672C369.552,38.92,349.32,32,328,32
		c-52.936,0-96,43.064-96,96c0,21.32,6.92,41.552,20.016,58.536l12.672-9.776C253.768,162.608,248,145.744,248,128
		C248,83.888,283.888,48,328,48z"/>
	<path style="fill:#fff;" d="M403.984,69.464l-12.672,9.776C402.232,93.392,408,110.256,408,128c0,44.112-35.888,80-80,80
		c-17.744,0-34.608-5.768-48.76-16.688l-9.776,12.672C286.448,217.08,306.68,224,328,224c52.936,0,96-43.064,96-96
		C424,106.68,417.08,86.448,403.984,69.464z"/>
</g>
<g>
</g>
<g>
</g>
<g>
</g>
<g>
</g>
<g>
</g>
<g>
</g>
<g>
</g>
<g>
</g>
<g>
</g>
<g>
</g>
<g>
</g>
<g>
</g>
<g>
</g>
<g>
</g>
<g>
</g>
</svg>
