<svg height="489pt" viewBox="0 -20 489.952 489" width="489pt" xmlns="http://www.w3.org/2000/svg">
<g  fill="#eeb530">
	<path d="m244.976562 32.476562c-106.039062 0-192 85.960938-192 192 0 106.039063 85.960938 192 192 192 106.039063 0 192-85.960937 192-192 0-106.039062-85.960937-192-192-192zm0 344c-83.945312 0-152-68.054687-152-152 0-83.945312 68.054688-152 152-152 83.945313 0 152 68.054688 152 152 0 83.945313-68.054687 152-152 152zm0 0"/>
</g>
<g fill="#ffffff">
	<path d="m244.976562 16.476562c106.167969 0 195.03125 79.480469 206.6875 184.878907l1.832032 16.550781 36.457031-36.453125-11.3125-11.3125-13.433594 13.421875c-19.359375-105.445312-111.34375-183.085938-220.230469-183.085938-5.535156 0-11.121093.199219-16.585937.597657l1.167969 15.960937c5.082031-.375 10.265625-.558594 15.417968-.558594zm0 0"/>
	<path d="m244.976562 432.476562c-106.167968 0-195.03125-79.488281-206.6875-184.878906l-1.832031-16.554687-36.457031 36.457031 11.3125 11.3125 13.429688-13.425781c19.363281 105.449219 111.347656 183.089843 220.234374 183.089843 5.550782 0 11.144532-.199218 16.589844-.609374l-1.183594-15.953126c-5.054687.378907-10.238281.5625-15.40625.5625zm0 0"/>
	<path d="m244.976562 64.476562c-88.222656 0-160 71.777344-160 160 0 88.222657 71.777344 160 160 160 88.222657 0 160-71.777343 160-160 0-88.222656-71.777343-160-160-160zm8 303.589844v-39.589844h-16v39.589844c-73.007812-4.039062-131.550781-62.582031-135.59375-135.589844h39.59375v-16h-39.59375c4.042969-73.007812 62.585938-131.550781 135.59375-135.59375v39.59375h16v-39.59375c73.007813 4.042969 131.550782 62.585938 135.589844 135.59375h-39.589844v16h39.589844c-4.039062 73.007813-62.582031 131.550782-135.589844 135.589844zm0 0"/>
	<path d="m252.976562 201.949219v-65.472657h-16v65.472657c-9.289062 3.3125-16 12.109375-16 22.527343 0 13.230469 10.765626 24 24 24 10.414063 0 19.214844-6.710937 22.527344-16h33.472656v-16h-33.472656c-2.414062-6.777343-7.75-12.113281-14.527344-14.527343zm-8 30.527343c-4.417968 0-8-3.59375-8-8 0-4.410156 3.582032-8 8-8 4.414063 0 8 3.589844 8 8 0 4.40625-3.585937 8-8 8zm0 0"/>
	<path d="m193.421875 6.347656 15.683594-3.125 3.125 15.691406-15.683594 3.121094zm0 0"/>
	<path d="m151.867188 20.582031 14.785156-6.121093 6.117187 14.785156-14.78125 6.117187zm0 0"/>
	<path d="m113.878906 42.664062 13.304688-8.882812 8.886718 13.304688-13.308593 8.886718zm0 0"/>
	<path d="m80.925781 71.742188 11.3125-11.3125 11.3125 11.3125-11.3125 11.3125zm0 0"/>
	<path d="m54.269531 106.679688 8.890625-13.300782 13.300782 8.890625-8.886719 13.300781zm0 0"/>
	<path d="m34.960938 146.140625 6.125-14.78125 14.78125 6.125-6.125 14.78125zm0 0"/>
	<path d="m23.722656 188.617188 3.121094-15.691407 15.691406 3.117188-3.117187 15.695312zm0 0"/>
	<path d="m277.710938 430.007812 15.683593-3.121093 3.125 15.691406-15.683593 3.121094zm0 0"/>
	<path d="m317.191406 419.699219 14.785156-6.117188 6.117188 14.785157-14.78125 6.117187zm0 0"/>
	<path d="m353.90625 401.863281 13.316406-8.890625 8.882813 13.308594-13.3125 8.890625zm0 0"/>
	<path d="m386.394531 377.210938 11.3125-11.3125 11.3125 11.3125-11.3125 11.3125zm0 0"/>
	<path d="m413.503906 346.699219 8.890625-13.3125 13.304688 8.886719-8.886719 13.3125zm0 0"/>
	<path d="m434.085938 311.472656 6.117187-14.78125 14.785156 6.117188-6.121093 14.785156zm0 0"/>
	<path d="m447.410156 272.929688 3.125-15.683594 15.691406 3.125-3.125 15.683594zm0 0"/>
</g>
</svg>