<?xml version="1.0" encoding="iso-8859-1"?>
<!-- Generator: Adobe Illustrator 19.0.0, SVG Export Plug-In . SVG Version: 6.00 Build 0)  -->
<svg version="1.1" id="Layer_1" xmlns="http://www.w3.org/2000/svg" xmlns:xlink="http://www.w3.org/1999/xlink" x="0px" y="0px"
	 viewBox="0 0 290.626 290.626" style="enable-background:new 0 0 290.626 290.626;" xml:space="preserve">
<g>
	<g>
		<rect x="65.625" y="140.625" style="fill:#ebb530;" width="9.375" height="131.25"/>
		<rect x="103.125" y="140.625" style="fill:#ebb530;" width="9.375" height="131.25"/>
		<rect x="140.625" y="140.625" style="fill:#ebb530;" width="9.375" height="131.25"/>
		<rect x="178.125" y="140.625" style="fill:#ebb530;" width="9.375" height="131.25"/>
		<rect x="215.625" y="140.625" style="fill:#ebb530;" width="9.375" height="131.25"/>
		<path style="fill:#fff;" d="M290.625,117.188c0-25.223-17.906-46.345-42.291-50.728C246.328,29.47,215.606,0,178.125,0
			c-25.317,0-48.825,13.917-61.209,35.841c-4.294-1.992-8.981-3.028-13.791-3.028c-11.489,0-22.083,6.061-27.994,15.731
			c-4.641-1.106-9.398-1.669-14.194-1.669C27.338,46.875,0,74.213,0,107.813c0,24.605,14.948,46.739,37.5,56.156v112.594
			c0,7.753,6.309,14.063,14.062,14.063h187.5c7.753,0,14.063-6.309,14.063-14.063V166.777
			C275.067,160.566,290.625,140.311,290.625,117.188z M243.75,276.563c0,2.583-2.105,4.688-4.688,4.688h-187.5
			c-2.583,0-4.687-2.105-4.687-4.688V135.938c0-2.583,2.105-4.688,4.687-4.688h187.5c2.583,0,4.688,2.105,4.688,4.688V276.563z
			 M253.125,156.928v-20.991c0-7.753-6.309-14.063-14.063-14.063h-187.5c-7.753,0-14.062,6.309-14.062,14.063v17.709
			c-17.053-8.723-28.125-26.367-28.125-45.834c0-28.43,23.133-51.563,51.562-51.563c5.166,0,10.275,0.769,15.192,2.283l3.947,1.214
			l1.702-3.764c3.797-8.381,12.173-13.795,21.347-13.795c4.697,0,9.225,1.383,13.097,3.998l4.523,3.056l2.339-4.936
			c10.045-21.22,31.65-34.931,55.041-34.931c33.6,0,60.937,27.337,60.942,60.703l-0.019,4.716l4.223,0.417
			c21.652,2.147,37.978,20.194,37.978,41.977C281.25,135.192,269.71,151.055,253.125,156.928z"/>
		<rect x="56.25" y="178.125" style="fill:#fff;" width="28.125" height="9.375"/>
		<rect x="93.75" y="196.875" style="fill:#fff;" width="28.125" height="9.375"/>
		<rect x="131.25" y="215.625" style="fill:#fff;" width="28.125" height="9.375"/>
		<rect x="168.75" y="192.188" style="fill:#fff;" width="28.125" height="9.375"/>
		<rect x="206.25" y="178.125" style="fill:#fff;" width="28.125" height="9.375"/>
	</g>
</g>
<g>
</g>
<g>
</g>
<g>
</g>
<g>
</g>
<g>
</g>
<g>
</g>
<g>
</g>
<g>
</g>
<g>
</g>
<g>
</g>
<g>
</g>
<g>
</g>
<g>
</g>
<g>
</g>
<g>
</g>
</svg>
