<?xml version="1.0" encoding="iso-8859-1"?>
<!-- Generator: Adobe Illustrator 19.0.0, SVG Export Plug-In . SVG Version: 6.00 Build 0)  -->
<svg version="1.1" id="Layer_1" xmlns="http://www.w3.org/2000/svg" xmlns:xlink="http://www.w3.org/1999/xlink" x="0px" y="0px"
	 viewBox="0 0 290.624 290.624" style="enable-background:new 0 0 290.624 290.624;" xml:space="preserve">
<g>
	<g>
		<circle style="fill:#ebb530;" cx="173.437" cy="124.217" r="37.5"/>
		<path style="fill:#fff;" d="M145.312,208.593c-10.341,0-18.75,8.409-18.75,18.75s8.409,18.75,18.75,18.75
			s18.75-8.409,18.75-18.75C164.062,217.002,155.653,208.593,145.312,208.593z M145.312,236.718c-5.17,0-9.375-4.205-9.375-9.375
			s4.205-9.375,9.375-9.375s9.375,4.205,9.375,9.375C154.687,232.513,150.483,236.718,145.312,236.718z"/>
		<path style="fill:#fff;" d="M283.903,164.657c-4.205-2.916-9.586-3.577-14.386-1.791l-0.539,0.202L218.273,38.605L90.389,84.28
			L64.064,21.093H14.062C6.309,21.093,0,27.402,0,35.155s6.309,14.063,14.062,14.063h29.719l66.281,155.006
			c-4.373,6.647-6.937,14.583-6.937,23.119c0,23.264,18.928,42.188,42.187,42.188s42.187-18.923,42.187-42.188
			c0-0.464-0.056-0.919-0.07-1.378l92.911-33.783c6.15-2.241,10.284-8.138,10.284-14.686
			C290.625,172.372,288.112,167.577,283.903,164.657z M157.373,70.311l14.494,32.611l-14.728,5.892l-14.737-33.155L157.373,70.311z
			 M133.547,78.819l18.689,42.052l32.147-12.858l-18.159-40.861l46.753-16.697l47.222,115.908l-84.567,31.716
			c-7.678-7.955-18.422-12.923-30.319-12.923c-4.223,0-8.292,0.642-12.141,1.8L93.998,92.942L133.547,78.819z M14.062,39.843
			c-2.583,0-4.687-2.1-4.687-4.688s2.105-4.688,4.687-4.688H57.81l66.745,160.191c-2.784,1.58-5.353,3.478-7.697,5.625
			L49.969,39.843H14.062z M145.312,260.155c-18.094,0-32.812-14.723-32.812-32.813s14.719-32.813,32.812-32.813
			s32.812,14.723,32.812,32.813S163.406,260.155,145.312,260.155z M277.139,183.369l-91.101,33.127
			c-1.008-3.778-2.522-7.345-4.477-10.631l91.247-34.219c1.95-0.736,4.041-0.473,5.756,0.713c1.706,1.186,2.686,3.061,2.686,5.137
			C281.25,180.116,279.595,182.474,277.139,183.369z"/>
	</g>
</g>
<g>
</g>
<g>
</g>
<g>
</g>
<g>
</g>
<g>
</g>
<g>
</g>
<g>
</g>
<g>
</g>
<g>
</g>
<g>
</g>
<g>
</g>
<g>
</g>
<g>
</g>
<g>
</g>
<g>
</g>
</svg>
