<?xml version="1.0" encoding="iso-8859-1"?>
<!-- Generator: Adobe Illustrator 19.0.0, SVG Export Plug-In . SVG Version: 6.00 Build 0)  -->
<svg version="1.1" id="Layer_1" xmlns="http://www.w3.org/2000/svg" xmlns:xlink="http://www.w3.org/1999/xlink" x="0px" y="0px"
	 viewBox="0 0 285.938 285.938" style="enable-background:new 0 0 285.938 285.938;" xml:space="preserve">
<g>
	<g>
		<circle style="fill:#ebb530;" cx="158.081" cy="75" r="37.5"/>
		<path style="fill:#fff;" d="M162.769,98.438h-9.375c-7.753,0-14.063-6.309-14.063-14.063h9.375c0,2.583,2.1,4.688,4.688,4.688
			h9.375c2.587,0,4.688-2.105,4.688-4.688s-2.1-4.688-4.688-4.688h-9.375c-7.753,0-14.063-6.309-14.063-14.063
			s6.309-14.063,14.063-14.063h9.375c7.753,0,14.063,6.309,14.063,14.063h-9.375c0-2.583-2.1-4.688-4.688-4.688h-9.375
			c-2.587,0-4.688,2.105-4.688,4.688s2.1,4.688,4.688,4.688h9.375c7.753,0,14.063,6.309,14.063,14.063
			S170.522,98.438,162.769,98.438z"/>
		<rect x="153.394" y="46.875" style="fill:#fff;" width="9.375" height="9.375"/>
		<rect x="153.394" y="93.75" style="fill:#fff;" width="9.375" height="9.375"/>
		<rect x="115.894" y="9.375" style="fill:#fff;" width="9.375" height="28.125"/>
		<rect x="153.394" style="fill:#fff;" width="9.375" height="23.438"/>
		<rect x="190.894" y="23.438" style="fill:#fff;" width="9.375" height="18.75"/>
		<rect x="120.581" y="107.813" style="fill:#fff;" width="75" height="9.375"/>
		<path style="fill:#fff;" d="M200.269,285.938h-89.063v-32.813h-37.5v-43.702l-25.538-10.214l25.88-44.367
			c-0.23-2.564-0.342-4.927-0.342-7.186c0-30.998,17.222-59.011,44.939-73.102l4.247,8.358
			c-24.553,12.483-39.811,37.294-39.811,64.744c0,2.377,0.145,4.913,0.441,7.748l0.159,1.523l-21.938,37.608l21.338,8.541v40.673
			h37.5v32.813h70.313V229.71l2.133-1.383c22.805-14.817,35.367-43.467,35.367-80.672c0-25.495-13.697-49.444-35.747-62.498
			l4.781-8.067c24.881,14.733,40.341,41.77,40.341,70.566c0,39.347-13.294,70.148-37.5,87.094L200.269,285.938L200.269,285.938z"/>
	</g>
</g>
<g>
</g>
<g>
</g>
<g>
</g>
<g>
</g>
<g>
</g>
<g>
</g>
<g>
</g>
<g>
</g>
<g>
</g>
<g>
</g>
<g>
</g>
<g>
</g>
<g>
</g>
<g>
</g>
<g>
</g>
</svg>
