<?xml version="1.0" encoding="iso-8859-1"?>
<!-- Generator: Adobe Illustrator 19.0.0, SVG Export Plug-In . SVG Version: 6.00 Build 0)  -->
<svg version="1.1" id="Capa_1" xmlns="http://www.w3.org/2000/svg" xmlns:xlink="http://www.w3.org/1999/xlink" x="0px" y="0px"
	 viewBox="0 0 496 496" style="enable-background:new 0 0 496 496;" xml:space="preserve">
<circle style="fill:#ebb530;" cx="160" cy="336" r="152"/>
<g>
	<path style="fill:#fff;" d="M40.536,289.952C34.872,304.616,32,320.112,32,336c0,8.592,0.856,17.2,2.552,25.584l15.688-3.168
		C48.752,351.072,48,343.528,48,336c0-13.904,2.504-27.464,7.464-40.28L40.536,289.952z"/>
	<path style="fill:#fff;" d="M160,208c-47.584,0-90.976,26.152-113.224,68.264l14.144,7.472C80.392,246.888,118.36,224,160,224
		c61.76,0,112,50.24,112,112h16C288,265.424,230.576,208,160,208z"/>
	<path style="fill:#fff;" d="M249.6,403.208l12.8,9.608c13.128-17.472,21.584-38.136,24.48-59.768l-15.856-2.112
		C268.488,369.848,261.088,387.928,249.6,403.208z"/>
	<path style="fill:#fff;" d="M496,0H372.688L336,36.688V80h-43.312L272,100.688V144h-43.312l-35.48,35.48
		C182.424,177.224,171.32,176,160,176C71.776,176,0,247.776,0,336s71.776,160,160,160s160-71.776,160-160
		c0-11.296-1.184-22.384-3.464-33.216L496,123.312V0z M148.304,479.408c32.344-74.272,42.816-135.472,43.256-138.144
		c1.408-8.432-0.552-16.904-5.52-23.856c-4.968-6.96-12.36-11.568-20.824-12.976c-17.72-2.896-33.912,9.112-36.784,26.288
		c-0.032,0.192-3.592,20.544-12.656,51l15.344,4.56c9.44-31.752,13.064-52.752,13.096-52.92c1.424-8.576,9.392-14.688,18.368-13.144
		c4.24,0.712,7.952,3.016,10.44,6.496c2.48,3.48,3.464,7.712,2.76,11.928c-0.44,2.648-10.984,64.224-43.984,138.56
		c-10.728-2.144-20.992-5.544-30.72-9.936c9.304-20.728,17.744-42.448,25.008-64.776l-15.216-4.952
		c-6.984,21.48-15.072,42.36-24,62.304c-4.672-2.768-9.16-5.792-13.472-9.056c28.976-65.768,39.192-122.304,39.28-122.84
		C116.544,304.792,136.456,288,160.016,288c2.624,0,5.264,0.216,7.856,0.648c12.664,2.112,23.744,9.024,31.184,19.464
		c7.448,10.432,10.392,23.144,8.28,35.792c-0.432,2.56-10.624,62.256-41.784,135.816c-1.856,0.072-3.68,0.28-5.552,0.28
		C156.056,480,152.176,479.72,148.304,479.408z M480,116.688L311.704,284.984c-1.864-5.544-4.04-11-6.528-16.36l-14.52,6.752
		C299.504,294.424,304,314.816,304,336c0,56.856-33.208,105.976-81.176,129.368c23.504-63.744,31.512-111.432,31.864-113.584
		c4.216-25.296-1.656-50.712-16.544-71.56c-14.896-20.872-37.056-34.704-62.392-38.928c-17.072-2.832-34.68-0.992-50.64,5.184
		l5.784,14.92c13.288-5.152,28.032-6.704,42.224-4.328c21.12,3.52,39.584,15.048,52,32.448
		c12.408,17.376,17.304,38.552,13.784,59.656c-0.368,2.256-9.272,55.288-36.304,124.384c-6.128,1.904-12.48,3.248-18.92,4.32
		c29.28-71.584,39.032-128.816,39.448-131.352c2.816-16.864-1.112-33.816-11.04-47.72c-9.928-13.912-24.696-23.136-41.584-25.944
		c-3.464-0.576-6.984-0.864-10.488-0.864c-31.416,0-57.96,22.416-63.12,53.264c-0.088,0.544-9.272,52.2-36.232,114.728
		c-4.232-4.04-8.28-8.264-11.992-12.792c23.432-56.336,32.104-102.704,32.496-104.816c3.664-21.952,16.488-41.48,35.184-53.56
		l-8.688-13.44c-22.464,14.52-37.864,37.984-42.248,64.24c-0.328,1.808-7.784,41.64-27.688,92.032C24.04,389.648,16,363.776,16,336
		c0-79.4,64.6-144,144-144c50.184,0,95.976,25.504,122.472,68.208l13.592-8.44c-5.16-8.32-11.016-16.016-17.408-23.112l159-159
		l-11.312-11.312L267.352,217.336c-16.328-14.84-35.456-26.096-56.312-33.064L235.312,160H288v-52.688L299.312,96H352V43.312
		L379.312,16H480V116.688z"/>
</g>
<g>
</g>
<g>
</g>
<g>
</g>
<g>
</g>
<g>
</g>
<g>
</g>
<g>
</g>
<g>
</g>
<g>
</g>
<g>
</g>
<g>
</g>
<g>
</g>
<g>
</g>
<g>
</g>
<g>
</g>
</svg>
