<?xml version="1.0" encoding="iso-8859-1"?>
<!-- Generator: Adobe Illustrator 19.0.0, SVG Export Plug-In . SVG Version: 6.00 Build 0)  -->
<svg version="1.1" id="Capa_1" xmlns="http://www.w3.org/2000/svg" xmlns:xlink="http://www.w3.org/1999/xlink" x="0px" y="0px"
	 viewBox="0 0 498.752 498.752" style="enable-background:new 0 0 498.752 498.752;" xml:space="preserve">
<g>
	<path style="fill:#ebb530;" d="M208,130.728V80.024l-21.72-5.784c-0.632-1.68-1.336-3.352-2.096-5.016l11.272-19.472l-35.84-35.84
		l-19.472,11.272c-1.664-0.76-3.336-1.464-5.016-2.096l-5.776-21.712H78.648l-5.784,21.72c-1.68,0.632-3.352,1.336-5.016,2.096
		l-19.464-11.28l-35.84,35.84l11.272,19.472c-0.76,1.664-1.464,3.336-2.096,5.016L0,80.024v50.704l21.72,5.784
		c0.632,1.68,1.336,3.352,2.096,5.016L12.544,161l35.84,35.84l19.472-11.272c1.664,0.76,3.336,1.464,5.016,2.096l5.776,21.712
		h50.704l5.784-21.72c1.68-0.632,3.352-1.336,5.016-2.096l19.472,11.272l35.84-35.84l-11.272-19.472
		c0.76-1.664,1.464-3.336,2.096-5.016L208,130.728z M104,153.376c-26.512,0-48-21.488-48-48s21.488-48,48-48s48,21.488,48,48
		S130.512,153.376,104,153.376z"/>
	<rect y="249.376" style="fill:#ebb530;" width="208" height="64"/>
	<path style="fill:#ebb530;" d="M412.168,170.224l-4-4c-18.608-18.6-43.344-28.848-69.664-28.848
		c-54.32,0-98.504,44.184-98.504,98.504v61.496h8c0-13.256,10.744-24,24-24v-8c20.488,0,40.136-8.136,54.624-22.624l9.376-9.376
		l0.824,1.096c14.592,19.456,37.488,30.904,61.8,30.904H416v8c13.256,0,24,10.744,24,24h8V218.36
		C448,196.032,433.376,176.56,412.168,170.224z"/>
</g>
<path style="fill:#fff;" d="M480.12,435.248c-6.088-20.272-22.8-35.216-43.624-39L384,386.696v-4.144c19.632-11.4,34.008-30.848,38.488-53.84
	C437.032,325.704,448,312.8,448,297.376c0-14.872-10.24-27.288-24-30.864v-9.136h-25.368c-21.68,0-42.4-10.352-55.4-27.688
	l-6.36-8.496l-15.896,15.904c-13.088,13.08-30.48,20.28-48.976,20.28h-8v9.136c-13.76,3.576-24,15.992-24,30.864
	c0,15.424,10.968,28.328,25.512,31.336C270,351.704,284.368,371.16,304,382.552v4.144l-52.496,9.544
	c-20.824,3.792-37.536,18.736-43.624,39.008l-18.632,62.128h309.504L480.12,435.248z M256,297.376c0-5.896,3.24-11,8-13.776v27.552
	C259.24,308.376,256,303.272,256,297.376z M310,401.872l21.824,16.368l-16.328,16.32l-10.592-31.768L310,401.872z M344,407.376
	l-23.32-17.488c7.384,2.256,15.208,3.488,23.32,3.488s15.936-1.232,23.32-3.488L344,407.376z M378,401.872l5.088,0.928
	l-10.592,31.768l-16.328-16.32L378,401.872z M432,297.376c0,5.896-3.24,11-8,13.776V283.6C428.76,286.376,432,291.48,432,297.376z
	 M280,313.376v-40.368c19.752-1.832,38.08-10.4,52.288-24.6l3.112-3.112c16.04,17.704,39.144,28.08,63.232,28.08H408v40
	c0,35.288-28.712,64-64,64S280,348.664,280,313.376z M210.752,481.376l12.464-41.528c4.344-14.48,16.28-25.16,31.16-27.856
	l34.64-6.296l19.496,58.496L344,428.688l35.496,35.496l19.496-58.496l34.64,6.296c14.872,2.704,26.816,13.384,31.16,27.856
	l12.456,41.536H210.752z"/>
<path style="fill:#fff;" d="M104,161.376c12.48,0,24.28-4.008,34.136-11.6l-9.76-12.672c-7.04,5.416-15.464,8.272-24.376,8.272
	c-22.056,0-40-17.944-40-40s17.944-40,40-40s40,17.944,40,40c0,8.68-2.728,16.928-7.888,23.856l12.832,9.56
	C156.176,129.08,160,117.528,160,105.376c0-30.872-25.12-56-56-56s-56,25.128-56,56S73.12,161.376,104,161.376z"/>
<path style="fill:#fff;" d="M456,81.376v28.688L445.656,99.72l-11.312,11.312L464,140.688l29.656-29.656L482.344,99.72L472,110.064V81.376
	c0-44.112-35.888-80-80-80h-48v16h48C427.288,17.376,456,46.088,456,81.376z"/>
<path style="fill:#fff;" d="M40,417.376v-28.688l10.344,10.344l11.312-11.312L32,358.064L2.344,387.72l11.312,11.312L24,388.688v28.688
	c0,44.112,35.888,80,80,80v-16C68.712,481.376,40,452.664,40,417.376z"/>
<rect style="fill:#fff;" y="241.376" width="208" height="16"/>
<rect style="fill:#fff;" y="305.376" width="208" height="16"/>
<rect style="fill:#fff;" y="273.376" width="96" height="16"/>
<polygon style="fill:#fff;" points="112,273.376 112,289.376 120,289.376 158,289.376 208,289.376 208,273.376 158,273.376 120,273.376 "/>
<rect style="fill:#fff;" x="312" y="1.376" width="16" height="16"/>
<rect style="fill:#fff;" x="280" y="1.376" width="16" height="16"/>
<rect style="fill:#fff;" x="120" y="481.376" width="16" height="16"/>
<rect style="fill:#fff;" x="152" y="481.376" width="16" height="16"/>
<g>
</g>
<g>
</g>
<g>
</g>
<g>
</g>
<g>
</g>
<g>
</g>
<g>
</g>
<g>
</g>
<g>
</g>
<g>
</g>
<g>
</g>
<g>
</g>
<g>
</g>
<g>
</g>
<g>
</g>
</svg>
