<?xml version="1.0" encoding="UTF-8" standalone="no"?>
<svg
   xmlns:dc="http://purl.org/dc/elements/1.1/"
   xmlns:cc="http://creativecommons.org/ns#"
   xmlns:rdf="http://www.w3.org/1999/02/22-rdf-syntax-ns#"
   xmlns:svg="http://www.w3.org/2000/svg"
   xmlns="http://www.w3.org/2000/svg"
   xmlns:sodipodi="http://sodipodi.sourceforge.net/DTD/sodipodi-0.dtd"
   xmlns:inkscape="http://www.inkscape.org/namespaces/inkscape"
   height="496pt"
   viewBox="0 0 496 496"
   width="496pt"
   id="svg2"
   version="1.1"
   inkscape:version="0.91 r13725"
   sodipodi:docname="left.svg">
  <metadata
     id="metadata26">
    <rdf:RDF>
      <cc:Work
         rdf:about="">
        <dc:format>image/svg+xml</dc:format>
        <dc:type
           rdf:resource="http://purl.org/dc/dcmitype/StillImage" />
        <dc:title></dc:title>
      </cc:Work>
    </rdf:RDF>
  </metadata>
  <defs
     id="defs24" />
  <sodipodi:namedview
     pagecolor="#ffffff"
     bordercolor="#666666"
     borderopacity="1"
     objecttolerance="10"
     gridtolerance="10"
     guidetolerance="10"
     inkscape:pageopacity="0"
     inkscape:pageshadow="2"
     inkscape:window-width="1021"
     inkscape:window-height="647"
     id="namedview22"
     showgrid="false"
     inkscape:zoom="0.53831355"
     inkscape:cx="93.080894"
     inkscape:cy="418.55544"
     inkscape:window-x="605"
     inkscape:window-y="197"
     inkscape:window-maximized="0"
     inkscape:current-layer="svg2" />
  <path
     d="M 248,0 C 111.25286,0 0,111.25286 0,248 0,384.74714 111.25286,496 248,496 384.74714,496 496,384.74714 496,248 496,111.25286 384.74714,0 248,0 Z m 61.86182,274.37998 -6.50245,83.03776 -50.15794,-39.75508 -80.62347,-59.81514 59.44491,-68.73709 81.18142,-45.88208 z"
     id="path18"
     inkscape:connector-curvature="0"
     style="fill:#ebb530"
     sodipodi:nodetypes="sssssccccccc" />
  <path
     d="m 143.03778,231.40316 176.29346,-132.151675 0,302.061005 -176.29346,-132.1517 c 0,0 -29.2503,-16.49416 0,-37.75763 z m 138.51899,94.39407 0,-151.03052 -100.72563,75.51526 z"
     id="path3"
     inkscape:connector-curvature="0"
     sodipodi:nodetypes="ccccccccc"
     style="fill:#ffffff" />
</svg>
