<?xml version="1.0" encoding="iso-8859-1"?>
<!-- Generator: Adobe Illustrator 19.0.0, SVG Export Plug-In . SVG Version: 6.00 Build 0)  -->
<svg version="1.1" id="Capa_1" xmlns="http://www.w3.org/2000/svg" xmlns:xlink="http://www.w3.org/1999/xlink" x="0px" y="0px"
	 viewBox="0 0 496 496" style="enable-background:new 0 0 496 496;" xml:space="preserve">
<g>
	<rect x="128" y="104" style="fill:#ebb530;" width="80" height="384"/>
	<path style="fill:#ebb530;" d="M448,176h-80l40-56L448,176z"/>
	<path style="fill:#ebb530;" d="M408,440l-40-56h80L408,440z"/>
</g>
<path style="fill:#fff;" d="M288,64V0h-80h-80H48v64H0v432h496V64H288z M272,16v48h-64V16H272z M192,16v48h-48V16H192z M64,16h64v48H64V16z M16,80h32
	h80h80h80h32v400h-16V96H32v384H16V80z M176,112h112v368H176V112z M160,480H48V112h112V480z M480,480H336V80h144V480z"/>
<rect style="fill:#fff;" x="160" y="32" width="16" height="16"/>
<polygon style="fill:#fff;" points="229.656,53.656 240,43.312 250.344,53.656 261.656,42.344 240,20.688 218.344,42.344 "/>
<polygon style="fill:#fff;" points="106.344,26.344 96,36.688 85.656,26.344 74.344,37.656 96,59.312 117.656,37.656 "/>
<path style="fill:#fff;" d="M448,368V192h-80v176H448z M432,208v64h-16v16h16v64h-48v-64h16v-16h-16v-64H432z"/>
<rect style="fill:#fff;" x="400" y="232" width="16" height="16"/>
<rect style="fill:#fff;" x="400" y="312" width="16" height="16"/>
<g>
</g>
<g>
</g>
<g>
</g>
<g>
</g>
<g>
</g>
<g>
</g>
<g>
</g>
<g>
</g>
<g>
</g>
<g>
</g>
<g>
</g>
<g>
</g>
<g>
</g>
<g>
</g>
<g>
</g>
</svg>
