<?xml version="1.0" encoding="iso-8859-1"?>
<!-- Generator: Adobe Illustrator 19.0.0, SVG Export Plug-In . SVG Version: 6.00 Build 0)  -->
<svg version="1.1" id="Layer_1" xmlns="http://www.w3.org/2fff/svg" xmlns:xlink="http://www.w3.org/1999/xlink" x="0px" y="0px"
	 viewBox="0 0 496 496" style="enable-background:new 0 0 496 496;" xml:space="preserve">
<g>
	<path style="fill:#ebb530;" d="M232,159.128V168h32v-8.872l26.568-21.256C294,135.128,296,130.968,296,126.576v-0.104
		c0-5.48-3.096-10.496-8-12.944s-10.768-1.92-15.152,1.368L264,121.528v-34.4l26.568-21.256C294,63.128,296,58.968,296,54.576
		v-0.104c0-5.48-3.096-10.496-8-12.944s-10.768-1.92-15.152,1.368L264,49.528V24c0-8.84-7.16-16-16-16s-16,7.16-16,16v25.528
		l-8.848-6.632c-4.384-3.288-10.248-3.816-15.152-1.368s-8,7.464-8,12.944v0.104c0,4.4,2,8.552,5.432,11.304L232,87.128v34.4
		l-8.848-6.632c-4.384-3.288-10.256-3.816-15.152-1.368s-8,7.464-8,12.944v0.104c0,4.4,2,8.552,5.432,11.304L232,159.128z"/>
	<path style="fill:#ebb530;" d="M264,224.872V216h-32v8.872l-26.568,21.256C202,248.872,200,253.032,200,257.424v0.104
		c0,5.48,3.096,10.496,8,12.944s10.768,1.92,15.152-1.368l8.848-6.632v34.4l-26.568,21.256C202,320.872,200,325.032,200,329.424
		v0.104c0,5.48,3.096,10.496,8,12.944c0.264,0.128,0.552,0.16,0.824,0.272c3.76-2.848,8.712-4.096,13.656-2.864l1.736,0.432
		l7.784-5.84v7.768l3.672,0.912c2.248,0.56,4.352,1.592,6.16,3.032l21.768,17.28c0.248-1.12,0.4-2.272,0.4-3.464v-25.528
		l8.848,6.632c4.384,3.288,10.256,3.816,15.152,1.368s8-7.464,8-12.944v-0.104c0-4.4-2-8.552-5.432-11.304L264,296.872v-34.4
		l8.848,6.632c4.384,3.288,10.256,3.816,15.152,1.368s8-7.464,8-12.944v-0.104c0-4.4-2-8.552-5.432-11.304L264,224.872z"/>
	<path style="fill:#ebb530;" d="M224,208v-32h-8.872l-21.256-26.568C191.128,146,186.968,144,182.576,144h-0.104
		c-5.48,0-10.496,3.096-12.944,8s-1.92,10.768,1.368,15.152l6.632,8.848h-34.4l-21.256-26.568C119.128,146,114.968,144,110.576,144
		h-0.104c-5.48,0-10.496,3.096-12.944,8s-1.92,10.768,1.368,15.152l6.632,8.848H80c-8.84,0-16,7.16-16,16s7.16,16,16,16h25.528
		l-6.632,8.848c-3.288,4.384-3.816,10.256-1.368,15.152s7.464,8,12.944,8h0.104c4.4,0,8.552-2,11.304-5.432L143.128,208h34.4
		l-6.632,8.848c-3.288,4.384-3.816,10.256-1.368,15.152s7.464,8,12.944,8h0.104c4.4,0,8.552-2,11.304-5.432L215.128,208H224z"/>
	<path style="fill:#ebb530;" d="M416,176h-25.528l6.632-8.848c3.288-4.384,3.816-10.256,1.368-15.152s-7.464-8-12.944-8h-0.104
		c-4.4,0-8.552,2-11.304,5.432L352.872,176h-34.4l6.632-8.848c3.288-4.384,3.816-10.256,1.368-15.152s-7.464-8-12.944-8h-0.104
		c-4.4,0-8.552,2-11.304,5.432L280.872,176H272v32h8.872l21.256,26.568C304.872,238,309.032,240,313.424,240h0.104
		c5.48,0,10.496-3.096,12.944-8s1.92-10.768-1.368-15.152L318.472,208h34.4l21.256,26.568C376.872,238,381.032,240,385.424,240
		h0.104c5.48,0,10.496-3.096,12.944-8s1.92-10.768-1.368-15.152L390.472,208H416c8.84,0,16-7.16,16-16S424.84,176,416,176z"/>
</g>
<g>
	<path style="fill:#fff;" d="M352,400h-9.68c-12.792,0-25.328-4.368-35.312-12.288l-60.2-47.8
		c-2.736-2.168-5.832-3.688-9.208-4.52l-13.184-3.272c-12.88-3.176-26.008,4.624-29.24,17.448l-1.4,5.544
		c-2.48,9.824,1.56,20.192,10.04,25.824l20.008,13.232c0.48,0.32,0.888,0.704,1.344,1.048l-17.976,4.464
		c-1.144,0.28-2.312,0.488-3.48,0.6l-42.104,4.176L143.336,368.2c-1.872-3.72-4.712-6.904-8.208-9.232l-1.576-1.04
		c-6.528-4.328-14.792-5.208-22.112-2.384c-7.272,2.824-12.752,8.992-14.648,16.528l-0.432,3.024l-0.088-0.088
		C91.72,370.496,85.672,368,79.24,368h-5.88c-10.392,0-19.584,6.584-22.88,16.392l-1.232,3.68c-2.912,8.696-0.68,18.12,5.84,24.6
		l27.864,27.656c9.68,9.608,21.664,16.952,34.632,21.232l42.088,13.928c9.04,2.992,18.464,4.504,28,4.504h130.16
		c7.224,0,14.456-0.88,21.48-2.624L352,474.224V496h144V368H352V400z M112.408,375.632c0.712-2.384,2.456-4.256,4.816-5.168
		c2.528-0.976,5.256-0.68,7.512,0.816l1.568,1.032c1.176,0.784,2.128,1.848,2.752,3.096l15.488,30.744l-3.904,0.384
		c-7.304,0.712-14.416-1.808-19.584-6.936l-10.536-10.456L112.408,375.632z M335.456,461.84c-5.768,1.432-11.696,2.16-17.624,2.16
		h-130.16c-7.832,0-15.56-1.24-22.976-3.696L122.6,446.376c-10.632-3.512-20.448-9.528-28.384-17.408L66.36,401.32
		c-2.168-2.16-2.92-5.28-1.952-8.16l1.232-3.68c1.112-3.28,4.208-5.48,7.72-5.48h5.88c2.152,0,4.256,0.856,5.768,2.368
		l24.776,24.584c8.568,8.496,20.424,12.696,32.432,11.504l63.088-6.256c1.936-0.192,3.84-0.52,5.736-0.992l23.056-5.72
		c0.68,3.392,0.664,6.952-0.216,10.44l-2.552,10.128l15.512,3.904l2.552-10.128c4.128-16.376-2.6-33.656-16.736-43.008l-20-13.224
		c-2.832-1.88-4.184-5.328-3.36-8.568l1.4-5.544c1.08-4.296,5.472-6.912,9.864-5.832l13.2,3.272c1.144,0.28,2.184,0.8,3.104,1.52
		l60.2,47.8c12.8,10.168,28.872,15.76,45.256,15.76H352v41.744L335.456,461.84z M416,384h16v40c0,4.416-3.592,8-8,8s-8-3.584-8-8
		V384z M368,384h32v40c0,13.232,10.768,24,24,24s24-10.768,24-24v-40h32v96H368V384z"/>
	<rect x="416" y="456" style="fill:#fff;" width="16" height="16"/>
	<path style="fill:#fff;" d="M248,232c22.056,0,40-17.944,40-40s-17.944-40-40-40s-40,17.944-40,40S225.944,232,248,232z
		 M248,168c13.232,0,24,10.768,24,24s-10.768,24-24,24s-24-10.768-24-24S234.768,168,248,168z"/>
	<path style="fill:#fff;" d="M72,104c13.232,0,24-10.768,24-24S85.232,56,72,56S48,66.768,48,80S58.768,104,72,104z M72,72
		c4.408,0,8,3.584,8,8s-3.592,8-8,8s-8-3.584-8-8S67.592,72,72,72z"/>
	<path style="fill:#fff;" d="M352,296c0,13.232,10.768,24,24,24s24-10.768,24-24s-10.768-24-24-24S352,282.768,352,296z M384,296
		c0,4.416-3.592,8-8,8s-8-3.584-8-8s3.592-8,8-8S384,291.584,384,296z"/>
	<path style="fill:#fff;" d="M440,80c13.232,0,24-10.768,24-24s-10.768-24-24-24s-24,10.768-24,24S426.768,80,440,80z M440,48
		c4.408,0,8,3.584,8,8s-3.592,8-8,8s-8-3.584-8-8S435.592,48,440,48z"/>
	<path style="fill:#fff;" d="M64,288c0-13.232-10.768-24-24-24s-24,10.768-24,24s10.768,24,24,24S64,301.232,64,288z M40,296
		c-4.408,0-8-3.584-8-8s3.592-8,8-8s8,3.584,8,8S44.408,296,40,296z"/>
	<rect x="24" y="144" style="fill:#fff;" width="16" height="16"/>
	<rect x="480" y="136" style="fill:#fff;" width="16" height="16"/>
	<rect x="120" style="fill:#fff;" width="16" height="16"/>
	<rect x="144" y="312" style="fill:#fff;" width="16" height="16"/>
	<rect x="448" y="328" style="fill:#fff;" width="16" height="16"/>
	<rect y="360" style="fill:#fff;" width="16" height="16"/>
	<rect x="352" y="24" style="fill:#fff;" width="16" height="16"/>
	<rect x="432" y="232" style="fill:#fff;" width="16" height="16"/>
	<rect x="432" y="264" style="fill:#fff;" width="16" height="16"/>
	<rect x="448" y="248" style="fill:#fff;" width="16" height="16"/>
	<rect x="416" y="248" style="fill:#fff;" width="16" height="16"/>
	<rect x="96" y="264" style="fill:#fff;" width="16" height="16"/>
	<rect x="96" y="296" style="fill:#fff;" width="16" height="16"/>
	<rect x="112" y="280" style="fill:#fff;" width="16" height="16"/>
	<rect x="80" y="280" style="fill:#fff;" width="16" height="16"/>
	<rect x="352" y="72" style="fill:#fff;" width="16" height="16"/>
	<rect x="352" y="104" style="fill:#fff;" width="16" height="16"/>
	<rect x="368" y="88" style="fill:#fff;" width="16" height="16"/>
	<rect x="336" y="88" style="fill:#fff;" width="16" height="16"/>
</g>
<g>
</g>
<g>
</g>
<g>
</g>
<g>
</g>
<g>
</g>
<g>
</g>
<g>
</g>
<g>
</g>
<g>
</g>
<g>
</g>
<g>
</g>
<g>
</g>
<g>
</g>
<g>
</g>
<g>
</g>
</svg>
