<?xml version="1.0" encoding="iso-8859-1"?>
<!-- Generator: Adobe Illustrator 19.0.0, SVG Export Plug-In . SVG Version: 6.00 Build 0)  -->
<svg version="1.1" id="Layer_1" xmlns="http://www.w3.org/2000/svg" xmlns:xlink="http://www.w3.org/1999/xlink" x="0px" y="0px"
	 viewBox="0 0 290.626 290.626" style="enable-background:new 0 0 290.626 290.626;" xml:space="preserve">
<g>
	<g>
		<path style="fill:#ebb530;" d="M285.938,51.564c0,0-14.091,23.438-46.875,23.438s-46.875-23.438-46.875-23.438
			s14.091-23.438,46.875-23.438S285.938,51.564,285.938,51.564z"/>
		<rect x="103.125" y="164.064" style="fill:#fff;" width="98.438" height="9.375"/>
		<rect x="107.813" y="192.189" style="fill:#fff;" width="89.063" height="9.375"/>
		<path style="fill:#ffffff;" d="M239.063,0.001h-112.5v14.063H65.625v14.063h-37.5v-9.376H0v65.625h28.125v-9.375h37.5v14.063
			h60.938v14.063h9.375v32.813H93.75v9.375h125.714l-12.497,75H97.523L74.086,112.501H37.5v9.375h29.034l21.478,98.798
			C80.592,222.245,75,228.835,75,236.72c0,6.942,4.35,12.853,10.453,15.248c-3.544,4.106-5.766,9.384-5.766,15.22
			c0,12.923,10.514,23.438,23.438,23.438s23.438-10.514,23.438-23.438c0-5.297-1.833-10.134-4.809-14.063h56.489
			c-2.977,3.928-4.809,8.766-4.809,14.063c0,12.923,10.514,23.438,23.438,23.438c12.923,0,23.438-10.514,23.438-23.438
			s-10.514-23.438-23.438-23.438H91.402c-3.877,0-7.031-3.155-7.031-7.031s3.155-7.031,7.031-7.031h2.344h121.158l15.628-93.75
			H187.5v-32.813h51.563c28.43,0,51.563-23.133,51.563-51.563S267.492,0.001,239.063,0.001z M117.188,267.189
			c0,7.753-6.309,14.063-14.063,14.063s-14.063-6.309-14.063-14.063s6.309-14.063,14.063-14.063S117.188,259.435,117.188,267.189z
			 M210.938,267.189c0,7.753-6.309,14.063-14.063,14.063s-14.063-6.309-14.063-14.063s6.309-14.063,14.063-14.063
			S210.938,259.435,210.938,267.189z M9.375,75.001V28.126h9.375v46.875H9.375z M28.125,65.626V37.501h37.5v28.125H28.125z
			 M75,79.689v-4.688V28.126v-4.688h51.563v56.25H75V79.689z M178.125,135.939h-32.813v-32.813h32.813V135.939z M135.938,93.751
			v-4.688v-75V9.376h73.57c-13.289,9.338-22.008,24.75-22.008,42.188s8.723,32.85,22.008,42.188L135.938,93.751L135.938,93.751z
			 M239.063,93.751c-23.264,0-42.188-18.923-42.188-42.188s18.923-42.188,42.188-42.188s42.188,18.923,42.188,42.188
			S262.327,93.751,239.063,93.751z"/>
		<path style="fill:#ffffff;" d="M239.063,23.439c-15.511,0-28.125,12.614-28.125,28.125s12.614,28.125,28.125,28.125
			s28.125-12.614,28.125-28.125S254.573,23.439,239.063,23.439z M239.063,70.314c-10.341,0-18.75-8.409-18.75-18.75
			s8.409-18.75,18.75-18.75s18.75,8.409,18.75,18.75S249.403,70.314,239.063,70.314z"/>
	</g>
</g>
<g>
</g>
<g>
</g>
<g>
</g>
<g>
</g>
<g>
</g>
<g>
</g>
<g>
</g>
<g>
</g>
<g>
</g>
<g>
</g>
<g>
</g>
<g>
</g>
<g>
</g>
<g>
</g>
<g>
</g>
</svg>
