<?xml version="1.0" encoding="iso-8859-1"?>
<!-- Generator: Adobe Illustrator 19.0.0, SVG Export Plug-In . SVG Version: 6.00 Build 0)  -->
<svg xmlns="http://www.w3.org/2000/svg" xmlns:xlink="http://www.w3.org/1999/xlink" version="1.1" id="Capa_1" x="0px" y="0px" viewBox="0 0 494.944 494.944" style="enable-background:new 0 0 494.944 494.944;" xml:space="preserve">
<path style="fill:#ebb530;" d="M383.776,330.424l-3.304-26.416c-0.568-4.576-4.456-8.008-9.072-8.008  c-4.552,0-8.408,3.344-9.048,7.848l-4.024,28.176c-1.856,12.968-7.864,24.984-17.12,34.248C329.848,377.624,314.448,384,298.4,384  c-14.672,0-28.336-5.312-38.928-14.312V296h48v-64c0-17.76-9.648-33.264-23.984-41.568h-32.016v4.008  c0,8.68-3.448,17.008-9.592,23.152c-4.192,4.192-9.456,7.168-15.208,8.608l-19.768,4.944c-2.704,6.224-6.536,11.96-11.432,16.856  c-4.896-4.896-8.728-10.632-11.432-16.856l-19.768-4.944c-5.76-1.44-11.016-4.416-15.208-8.608  c-6.144-6.144-9.592-14.472-9.592-23.152v-4.016h-32c-14.344,8.296-24,23.808-24,41.576v64h48v136h48l8-48h16l8,48h48v32h6.384  c49.168,0,93.264-30.28,110.92-76.176C383.8,369.56,386.2,349.84,383.776,330.424z"/>
<g>
	<path style="fill:#fff;" d="M219.472,123.776c0-3.928,0.224-7.856,0.552-11.776h7.448c13.232,0,24-10.768,24-24   c0-11.568-8.224-21.24-19.128-23.496c0.744-1.648,1.472-3.304,2.28-4.92l-14.312-7.16c-11.016,22.04-16.84,46.712-16.84,71.352V128   h16V123.776z M227.472,80c4.408,0,8,3.584,8,8s-3.592,8-8,8h-5.208c1.072-5.408,2.448-10.752,4.12-16H227.472z"/>
	<path style="fill:#fff;" d="M163.472,112h7.448c0.328,3.92,0.552,7.848,0.552,11.776V128h16v-4.224   c0-24.64-5.824-49.312-16.84-71.352l-14.312,7.16c0.808,1.616,1.536,3.272,2.28,4.92C147.696,66.76,139.472,76.432,139.472,88   C139.472,101.232,150.24,112,163.472,112z M163.472,80h1.088c1.68,5.248,3.056,10.592,4.12,16h-5.208c-4.408,0-8-3.584-8-8   S159.064,80,163.472,80z"/>
	<path style="fill:#fff;" d="M432.944,176.416c-26.36,8.784-48.352,27.488-61.472,51.6c-13.112-24.12-35.104-42.824-61.472-51.6   l-6.4-2.136c2.48-5.992,3.872-12.384,3.872-18.952V143.12c1.704-1.736,3.328-3.56,4.8-5.52c7.224-9.624,11.2-21.552,11.2-33.6   V91.16c0.552-0.504,1.128-0.968,1.656-1.504c9.248-9.24,14.344-21.536,14.344-34.624V24h-12.224   c-21.984,0-43.984,4.672-64.128,13.496C248.944,15.016,223.96,0,195.472,0S142,15.016,127.824,37.496   C107.68,28.672,85.68,24,63.696,24H51.472v31.032c0,13.088,5.096,25.384,14.344,34.624c0.528,0.528,1.104,1,1.656,1.504V104   c0,12.048,3.984,23.976,11.2,33.592c1.472,1.968,3.096,3.792,4.8,5.528v12.208c0,9.864,2.896,19.432,8.368,27.648   c1.328,1.992,2.896,3.768,4.472,5.528C83.32,199.048,75.472,215.008,75.472,232v96c0,17.648,14.352,32,32,32   c5.856,0,11.272-1.696,16-4.448v139.392l32-21.328l30.848,20.56l8.464-101.544c0.064-0.704,1.32-0.704,1.384,0l8.464,101.544   l30.84-20.56l32,21.328v-23.008c51.464-0.672,98.256-33.112,116.768-81.24c6.888-17.92,9.56-37.336,7.92-56.44l9.512-9.136   c10.864-10.872,19.864-23.352,26.736-37.096c9.856-19.712,15.064-41.792,15.064-63.832v-51.296L432.944,176.416z M267.472,304h32   v24c0,8.824-7.176,16-16,16c-8.824,0-16-7.176-16-16V304z M267.472,355.552c4.728,2.752,10.144,4.448,16,4.448   c17.648,0,32-14.352,32-32v-38.28c6.752,13.064,15.384,24.976,25.672,35.264l8.568,8.968c-2.064,10.024-6.928,19.416-14.168,26.656   C325.632,370.528,312.432,376,298.4,376c-11.184,0-21.976-3.776-30.928-10.408V355.552z M299.472,192.872   c-1.512-1.552-3.144-2.992-4.84-4.368c1.576-1.76,3.144-3.536,4.472-5.528c0.144-0.208,0.232-0.44,0.368-0.656L299.472,192.872   L299.472,192.872z M291.472,155.328c0,6.704-1.968,13.192-5.68,18.776c-4.68,7.024-11.76,12.016-19.952,14.064l-6.368,1.592v-9.856   c6.08-5.416,10.76-12.352,13.44-20.224c6.472-0.64,12.744-2.408,18.56-5.176V155.328z M147.472,189.32   c4.896,1.704,10.128,2.68,15.6,2.68c0.504,0,0.992-0.12,1.496-0.136c1.256,4.928,3.656,9.36,6.904,13.08v4.432   c0,3.6,0.36,7.136,0.952,10.608l-6.216-1.56c-4.344-1.08-8.32-3.328-11.488-6.496c-4.672-4.672-7.248-10.88-7.248-17.488V189.32z    M195.472,200c-7.144,0-13.144-4.744-15.184-11.216c5.56-2.152,10.712-5.344,15.184-9.512c4.472,4.16,9.624,7.352,15.184,9.512   C208.616,195.256,202.616,200,195.472,200z M187.888,214.992c2.44,0.6,4.96,1.008,7.584,1.008s5.144-0.408,7.584-1.008   c-0.888,7.392-3.424,14.4-7.584,20.52C191.312,229.392,188.776,222.384,187.888,214.992z M219.472,209.376v-4.432   c3.248-3.72,5.648-8.152,6.904-13.08c0.512,0.016,0.992,0.136,1.496,0.136c5.472,0,10.704-0.976,15.6-2.68v5.112   c0,6.608-2.576,12.824-7.248,17.496c-3.168,3.168-7.144,5.424-11.496,6.504l-6.216,1.552   C219.112,216.512,219.472,212.976,219.472,209.376z M307.472,104c0,8.6-2.84,17.128-8,24c-5.888,7.848-14.52,13.168-24,15.128V104   h15.032c5.888,0,11.6-1.088,16.968-3.064V104z M323.472,40.048v14.984c0,8.816-3.432,17.088-9.656,23.312   C307.672,84.48,299.176,88,290.504,88h-15.032v-8c0-9.856-1.88-19.264-5.152-27.992C287.096,44.76,305.2,40.536,323.472,40.048z    M195.472,16c35.288,0,64,28.712,64,64v64.408c0,17.424-14.176,31.592-31.6,31.592c-8.32,0-16.464-3.376-22.336-9.248   l-10.064-10.072l-10.056,10.072c-5.888,5.872-14.032,9.248-22.344,9.248c-17.424,0-31.6-14.168-31.6-31.592V80   C131.472,44.712,160.184,16,195.472,16z M67.472,40.048c18.272,0.488,36.376,4.72,53.152,11.96   c-3.272,8.728-5.152,18.136-5.152,27.992v8H100.44c-8.672,0-17.168-3.52-23.312-9.656c-6.224-6.224-9.656-14.504-9.656-23.312   V40.048z M100.44,104h15.032v39.128c-9.48-1.96-18.112-7.28-24-15.136c-5.16-6.864-8-15.392-8-23.992v-3.064   C88.84,102.912,94.552,104,100.44,104z M118.032,159.68c2.68,7.872,7.36,14.808,13.44,20.224v9.856l-6.368-1.592   c-8.184-2.048-15.272-7.04-19.952-14.064c-3.712-5.584-5.68-12.072-5.68-18.776v-0.824   C105.288,157.264,111.56,159.032,118.032,159.68z M107.472,344c-8.824,0-16-7.176-16-16v-24h32v24   C123.472,336.824,116.296,344,107.472,344z M155.472,454.384l-16,10.672V440h35.304l-2.152,25.824L155.472,454.384z    M235.472,454.384l-17.152,11.44L216.168,440h35.304v25.056L235.472,454.384z M369.304,384.944   c-16.152,41.992-56.936,70.32-101.832,70.992V408h-16v16h-36.64l-2.728-32.696C211.392,382.72,204.088,376,195.472,376   s-15.92,6.72-16.64,15.304L176.112,424h-36.64v-96v-88h-16v48h-32v-56c0-13.368,6.808-25.816,17.848-33.208   c3.752,2.064,7.672,3.832,11.904,4.888l12.344,3.088c1.944,6.128,5.168,11.8,9.84,16.48c5.224,5.216,11.768,8.928,18.92,10.712   l16.064,4.016c2.944,5.712,6.752,11.016,11.424,15.688l5.656,5.648l5.656-5.656c4.672-4.672,8.48-9.968,11.424-15.68l16.064-4.016   c7.16-1.792,13.704-5.504,18.928-10.72c4.68-4.68,7.896-10.352,9.84-16.48l12.344-3.088c4.232-1.056,8.152-2.824,11.904-4.888   c11.032,7.4,17.84,19.856,17.84,33.216v56h-32v-48h-16v88v64h16v-7.504C277,389.352,287.576,392,298.4,392   c18.312,0,35.52-7.136,48.464-20.08c10.416-10.408,17.304-24.176,19.384-38.768l4.024-28.168c0.168-1.144,2.128-1.128,2.264,0.016   l3.304,26.416C378.096,349.464,375.832,367.968,369.304,384.944z M427.472,224.192c0,19.568-4.624,39.168-13.376,56.672   c-6.104,12.2-14.088,23.28-23.616,32.824l-0.656,0.632l-1.416-11.304C387.344,294.456,380.032,288,371.4,288   c-8.48,0-15.768,6.328-16.968,14.72l-1.616,11.328l-0.232-0.24c-9.648-9.656-17.632-20.736-23.736-32.936   c-8.752-17.504-13.376-37.104-13.376-56.68v-28.36c22.68,10.832,40.392,30.624,48.408,54.696l7.592,22.776l7.592-22.776   c8.016-24.072,25.728-43.864,48.408-54.696V224.192z"/>
	<rect x="219.472" y="248" style="fill:#fff;" width="16" height="16"/>
	<rect x="147.472" y="280" style="fill:#fff;" width="16" height="16"/>
	<rect x="195.472" y="296" style="fill:#fff;" width="16" height="16"/>
	<rect x="211.472" y="328" style="fill:#fff;" width="16" height="16"/>
	<rect x="227.472" y="368" style="fill:#fff;" width="16" height="16"/>
	<rect x="171.472" y="312" style="fill:#fff;" width="16" height="16"/>
	<rect x="147.472" y="352" style="fill:#fff;" width="16" height="16"/>
	<rect x="267.472" y="216" style="fill:#fff;" width="16" height="16"/>
	<rect x="99.472" y="240" style="fill:#fff;" width="16" height="16"/>
	<rect x="283.472" y="408" style="fill:#fff;" width="16" height="16"/>
	<rect x="331.472" y="392" style="fill:#fff;" width="16" height="16"/>
</g>
<g>
</g>
<g>
</g>
<g>
</g>
<g>
</g>
<g>
</g>
<g>
</g>
<g>
</g>
<g>
</g>
<g>
</g>
<g>
</g>
<g>
</g>
<g>
</g>
<g>
</g>
<g>
</g>
<g>
</g>
</svg>
