<?xml version="1.0" encoding="iso-8859-1"?>
<!-- Generator: Adobe Illustrator 19.0.0, SVG Export Plug-In . SVG Version: 6.00 Build 0)  -->
<svg version="1.1" id="Layer_1" xmlns="http://www.w3.org/2000/svg" xmlns:xlink="http://www.w3.org/1999/xlink" x="0px" y="0px"
	 viewBox="0 0 290.627 290.627" style="enable-background:new 0 0 290.627 290.627;" xml:space="preserve">
<g>
	<g>
		<path style="fill:#ebb530;" d="M79.689,159.375h131.25c2.93,0,5.508,1.369,7.228,3.473c1.35-5.634,2.147-11.484,2.147-17.536
			c0-41.423-33.577-75-75-75s-75,33.577-75,75c0,6.052,0.792,11.902,2.147,17.536C74.181,160.744,76.759,159.375,79.689,159.375z"/>
		<path style="fill:#fff;" d="M210.938,154.688H79.689c-7.753,0-14.062,6.309-14.062,14.063v84.375
			c0,7.753,6.309,14.063,14.062,14.063h32.812v14.063h-9.375v9.375h9.375h65.625h9.375v-9.375h-9.375v-14.063h32.812
			c7.753,0,14.063-6.309,14.063-14.063V168.75C225.001,160.997,218.692,154.688,210.938,154.688z M168.751,281.25h-46.875v-14.063
			h46.875V281.25z M215.626,253.125c0,2.583-2.1,4.688-4.688,4.688h-32.812h-65.625H79.689c-2.588,0-4.687-2.105-4.687-4.688V168.75
			c0-2.583,2.1-4.688,4.687-4.688h131.25c2.588,0,4.688,2.105,4.688,4.688v84.375H215.626z"/>
		<path style="fill:#fff;" d="M79.689,253.125h131.25V168.75H79.689V253.125z M89.064,178.125h112.5v65.625h-112.5V178.125z"/>
		<path style="fill:#fff;" d="M75.001,89.063v-75C75.001,6.309,68.692,0,60.939,0H14.064C6.31,0,0.001,6.309,0.001,14.063v75
			c0,7.753,6.309,14.063,14.062,14.063h46.875C68.692,103.125,75.001,96.816,75.001,89.063z M14.064,9.375h46.875
			c2.588,0,4.687,2.105,4.687,4.688V75H9.376V14.063C9.376,11.48,11.476,9.375,14.064,9.375z M60.939,93.75H37.501H14.064
			c-2.588,0-4.687-2.105-4.687-4.688v-4.688h28.124h28.125v4.688C65.626,91.645,63.526,93.75,60.939,93.75z"/>
		<circle style="fill:#fff;" cx="37.501" cy="89.063" r="4.688"/>
		<path style="fill:#fff;" d="M281.251,56.25V14.063C281.251,6.309,274.942,0,267.188,0h-65.625
			c-7.753,0-14.062,6.309-14.062,14.063V56.25h-9.375V75c0,5.17,4.205,9.375,9.375,9.375h93.75c5.17,0,9.375-4.205,9.375-9.375
			V56.25H281.251z M196.876,14.063c0-2.583,2.1-4.688,4.688-4.688h65.625c2.587,0,4.687,2.105,4.687,4.688V56.25h-32.812v4.688
			h-9.375V56.25h-32.812V14.063H196.876z M281.251,75h-93.75v-9.375h32.812v4.688h28.125v-4.688h32.812L281.251,75L281.251,75z"/>
		<path style="fill:#fff;" d="M37.318,113.812l-9-2.625c-3.234,11.114-4.88,22.594-4.88,34.125
			c0,29.002,10.388,57.117,29.25,79.167l7.125-6.094c-17.409-20.353-27-46.308-27-73.073
			C32.814,134.667,34.328,124.069,37.318,113.812z"/>
		<path style="fill:#fff;" d="M176.818,37.313l2.62-9c-11.114-3.234-22.594-4.875-34.125-4.875
			c-22.411,0-44.33,6.141-63.38,17.761l4.88,8.002C113.434,32.962,146.598,28.519,176.818,37.313z"/>
		<path style="fill:#fff;" d="M246.352,95.817c7.603,15.492,11.461,32.147,11.461,49.495c0,26.766-9.591,52.72-27,73.073
			l7.125,6.094c18.863-22.05,29.25-50.166,29.25-79.167c0-18.797-4.181-36.839-12.422-53.63L246.352,95.817z"/>
	</g>
</g>
<g>
</g>
<g>
</g>
<g>
</g>
<g>
</g>
<g>
</g>
<g>
</g>
<g>
</g>
<g>
</g>
<g>
</g>
<g>
</g>
<g>
</g>
<g>
</g>
<g>
</g>
<g>
</g>
<g>
</g>
</svg>
