<?xml version="1.0" encoding="iso-8859-1"?>
<!-- Generator: Adobe Illustrator 19.0.0, SVG Export Plug-In . SVG Version: 6.00 Build 0)  -->
<svg version="1.1" id="Layer_1" xmlns="http://www.w3.org/2000/svg" xmlns:xlink="http://www.w3.org/1999/xlink" x="0px" y="0px"
	 viewBox="0 0 290.626 290.626" style="enable-background:new 0 0 290.626 290.626;" xml:space="preserve">
<g>
	<g>
		<path style="fill:#fff;" d="M178.125,23.438C178.125,10.514,167.611,0,154.688,0H23.438C10.514,0,0,10.514,0,23.438v243.75
			c0,12.923,10.514,23.438,23.438,23.438h131.25c12.923,0,23.438-10.514,23.438-23.438v-75.052l24,0.038l47.33-9.469l24.291-11.813
			c6.544-3.225,9.314-10.969,6.305-17.616c-1.537-3.403-4.448-6.028-7.987-7.209c-3.534-1.195-7.444-0.834-10.725,0.947l-10.28,5.62
			l1.416-4.205c1.336-3.97,0.675-8.367-1.767-11.77s-6.398-5.428-10.584-5.428c-5.363,0-10.111,3.225-12.103,8.203l-6.094,15.253
			h-14.47l-0.253-0.136l10.144-5.391c6.094-3.239,9.066-10.387,7.064-16.992c-1.158-3.816-3.75-6.914-7.308-8.719
			c-3.558-1.809-7.589-2.077-11.348-0.75l-27.628,9.684V60.938v-37.5H178.125z M23.438,9.375h131.25
			c7.753,0,14.063,6.309,14.063,14.063V37.5H9.375V23.438C9.375,15.684,15.684,9.375,23.438,9.375z M154.688,281.25H23.438
			c-7.753,0-14.063-6.309-14.063-14.063v-28.125H168.75v28.125C168.75,274.941,162.441,281.25,154.688,281.25z M236.723,142.917
			c1.003-2.508,4.795-2.981,6.37-0.783c0.694,0.97,0.881,2.18,0.497,3.314l-3.108,9.239h-8.461L236.723,142.917z M208.861,131.541
			c1.322-0.464,2.747-0.37,4.003,0.267s2.17,1.73,2.578,3.075c0.703,2.33-0.342,4.852-2.494,5.995l-26.203,13.931l18.497,9.253
			h44.489l16.102-8.808c1.013-0.553,2.17-0.666,3.253-0.295c1.087,0.361,1.95,1.139,2.423,2.18c0.914,2.02,0.075,4.364-1.908,5.344
			l-22.584,11.152l-45.82,9.178h-60.009l-19.313-3.863v-24.262h34.331l14.752-9.844L208.861,131.541z M167.297,136.195
			l-13.931,9.117h-31.491V131.25H89.063v70.313h32.813v-13.05l17.878,3.567l28.997,0.042v37.566H9.375V46.875H168.75v88.8
			L167.297,136.195z M112.5,140.625v51.563H98.438v-51.563H112.5z"/>
		<rect x="84.375" y="18.75" style="fill:#fff;" width="37.5" height="9.375"/>
		<rect x="56.25" y="18.75" style="fill:#fff;" width="9.375" height="9.375"/>
		<path style="fill:#fff;" d="M89.063,243.75c-9.047,0-16.406,7.359-16.406,16.406c0,9.047,7.359,16.406,16.406,16.406
			s16.406-7.359,16.406-16.406S98.109,243.75,89.063,243.75z M89.063,267.188c-3.877,0-7.031-3.155-7.031-7.031
			s3.155-7.031,7.031-7.031s7.031,3.155,7.031,7.031S92.939,267.188,89.063,267.188z"/>
		<path style="fill:#fff;" d="M188.217,74.358l7.997,39.998c0.877,4.359,4.73,7.519,9.169,7.519h57.98
			c4.439,0,8.297-3.159,9.169-7.519l7.997-39.998c5.817-1.725,10.097-7.055,10.097-13.42c0-7.753-6.309-14.063-14.063-14.063
			h-28.125V23.438c0-7.753-6.309-14.063-14.063-14.063s-14.063,6.309-14.063,14.063v23.438h-28.125
			c-7.753,0-14.063,6.309-14.063,14.063C178.125,67.303,182.405,72.633,188.217,74.358z M263.367,112.5l-57.961,0.019L197.906,75
			h22.406h28.125h22.411L263.367,112.5z M276.563,56.25c2.583,0,4.688,2.1,4.688,4.688s-2.105,4.688-4.688,4.688h-28.125V56.25
			H276.563z M229.688,23.438c0-2.587,2.105-4.688,4.688-4.688s4.688,2.1,4.688,4.688v42.188h-9.375V23.438H229.688z M192.188,56.25
			h28.125v9.375h-28.125c-2.583,0-4.688-2.1-4.688-4.688S189.605,56.25,192.188,56.25z"/>
		<rect x="28.125" y="65.625" style="fill:#ebb530;" width="112.5" height="9.375"/>
		<rect x="42.188" y="93.75" style="fill:#ebb530;" width="98.438" height="9.375"/>
	</g>
</g>
<g>
</g>
<g>
</g>
<g>
</g>
<g>
</g>
<g>
</g>
<g>
</g>
<g>
</g>
<g>
</g>
<g>
</g>
<g>
</g>
<g>
</g>
<g>
</g>
<g>
</g>
<g>
</g>
<g>
</g>
</svg>
