<?xml version="1.0" encoding="iso-8859-1"?>
<!-- Generator: Adobe Illustrator 19.0.0, SVG Export Plug-In . SVG Version: 6.00 Build 0)  -->
<svg xmlns="http://www.w3.org/2000/svg" xmlns:xlink="http://www.w3.org/1999/xlink" version="1.1" id="Capa_1" x="0px" y="0px" viewBox="0 0 496 496" style="enable-background:new 0 0 496 496;" xml:space="preserve">
<polygon style="fill:#ebb530;" points="296,64 200,64 200,32 248,0 296,32 "/>
<g>
	<rect x="240" y="32" style="fill:#fff;" width="16" height="16"/>
	<rect x="272" y="128" style="fill:#fff;" width="16" height="16"/>
	<rect x="208" y="128" style="fill:#fff;" width="16" height="16"/>
	<rect x="240" y="152" style="fill:#fff;" width="16" height="16"/>
	<path style="fill:#fff;" d="M359.824,324.512c-1.264-17.504-11.936-32.392-26.984-39.688l0.152-0.088   c16.656-10,27.008-28.272,27.008-47.704c0-7.928-1.88-15.624-5.368-22.648C371.504,209.688,384,194.352,384,176   c0-19.32-13.768-35.48-32-39.192v-26.16c0-16.264-4.424-32.232-12.792-46.184C330.152,49.376,313.6,40,296,40v16   c12.008,0,23.312,6.4,29.488,16.696C332.36,84.16,336,97.28,336,110.648V152h8c13.232,0,24,10.768,24,24s-10.768,24-24,24v0.136   c-5.928-5.616-13.056-9.896-21.008-12.176l-25.936-7.408C311.136,167.4,320,148.736,320,128V95.992L281.888,96   c-10.464,0-20.944-2.48-30.312-7.16l-3.592-1.784l-3.576,1.792c-9.352,4.672-19.824,7.144-30.28,7.144H176V128   c0,20.736,8.864,39.4,22.944,52.552l-25.936,7.408c-7.952,2.272-15.08,6.552-21.008,12.176V200c-13.232,0-24-10.768-24-24   s10.768-24,24-24h8v-41.352c0-13.368,3.64-26.496,10.512-37.952C176.688,62.4,187.992,56,200,56V40   c-17.6,0-34.152,9.376-43.208,24.464C148.424,78.416,144,94.384,144,110.648v26.16c-18.232,3.72-32,19.872-32,39.192   c0,18.352,12.496,33.688,29.368,38.384c-3.488,7.024-5.368,14.72-5.368,22.648c0,19.432,10.352,37.704,27.008,47.704l0.152,0.088   c-15.048,7.296-25.72,22.184-26.984,39.688L35.44,425.24l8.12,5.416C47.568,433.328,142.792,496,248,496   s200.432-62.672,204.44-65.344l8.12-5.416L359.824,324.512z M216,267.312l4.688,4.688L200,292.688L195.312,288L216,267.312z    M232,283.312l19.72,19.72c2.72,2.728,4.28,6.488,4.28,10.344c0,8.064-6.56,14.624-14.632,14.624c-3.904,0-7.584-1.52-10.344-4.28   L211.312,304L232,283.312z M263.024,291.72l-3.712-3.72l4.688-4.688L284.688,304l-13.064,13.064   c0.152-1.224,0.376-2.424,0.376-3.688C272,305.184,268.816,297.504,263.024,291.72z M275.312,272l4.688-4.688L300.688,288   L296,292.688L275.312,272z M192,128v-16.008h22.136c11.608,0,23.224-2.464,33.864-7.16c10.64,4.696,22.272,7.168,33.888,7.168   L304,111.992V128c0,30.872-25.12,56-56,56S192,158.872,192,128z M262.584,198.512C260.08,204.088,254.504,208,248,208   s-12.08-3.912-14.584-9.488C238.128,199.488,243.008,200,248,200S257.872,199.488,262.584,198.512z M152,237.032   c0-6.936,2.032-13.664,5.88-19.44c4.608-6.904,11.536-11.96,19.52-14.24l38.488-11c0.048,0.024,0.096,0.048,0.144,0.072   C216.28,209.872,230.504,224,248,224s31.72-14.128,31.96-31.576c0.048-0.024,0.096-0.048,0.144-0.072l38.488,11   c7.984,2.28,14.92,7.336,19.52,14.24c3.856,5.776,5.888,12.504,5.888,19.44c0,13.832-7.376,26.856-19.248,33.984l-11.512,6.912   l-25.2-25.2c0.464-11.744,5.264-22.72,13.616-31.072l-11.312-11.312c-11.344,11.336-17.736,26.28-18.248,42.248l-13.752,13.752   L252.688,272L248,276.688L243.312,272l0,0l-19.408-19.408c-0.512-15.968-6.904-30.904-18.248-42.248l-11.312,11.312   c8.352,8.352,13.152,19.328,13.616,31.072l-25.2,25.2l-11.512-6.912C159.376,263.888,152,250.864,152,237.032z M180.992,296.304   l13.352,13.352l5.656,5.656l19.72,19.72c5.784,5.784,13.472,8.968,21.648,8.968c2.312,0,4.536-0.304,6.704-0.792   c2.152,0.472,4.336,0.792,6.56,0.792c8.176,0,15.864-3.184,21.656-8.968l25.368-25.376l13.352-13.352   C331.224,297.848,344,311.384,344,328c0,17.648-14.352,32-32,32c-7.112,0-13.944-2.44-19.752-7.048l-10.44-8.288l-2.4,13.12   C276.624,372.968,263.416,384,248,384s-28.624-11.032-31.4-26.216l-2.4-13.12l-10.44,8.288C197.944,357.56,191.112,360,184,360   c-17.648,0-32-14.352-32-32C152,311.384,164.776,297.848,180.992,296.304z M90.704,392.608   c11.944,2.408,50.48,12.704,71.664,46.744c-4.168,0.208-8.288,1.24-12.168,3.096c-6.728,3.216-11.88,8.64-15.008,15.304   c-34.4-12.696-61.448-27.56-74.384-35.24L90.704,392.608z M169.336,456.232c4.032,1.424,7.264,4.32,9.112,8.176   c1.056,2.208,1.52,4.576,1.512,6.96c-10.232-2.448-20.128-5.28-29.6-8.376c1.6-2.632,3.912-4.76,6.752-6.112   C160.96,455.04,165.296,454.816,169.336,456.232z M195.744,474.76c0.648-5.864-0.264-11.8-2.872-17.248   c-1.608-3.352-3.824-6.272-6.384-8.816C193.608,442.744,211.496,432,248,432c35.824,0,53.712,10.352,61.072,16.312   c-2.08,1.928-4,4.048-5.528,6.52c-3.776,6.104-5.224,13.136-4.48,20.16C282.512,478.072,265.368,480,248,480   C230.216,480,212.664,477.968,195.744,474.76z M317.144,463.256c2.248-3.632,5.776-6.168,9.944-7.152   c4.152-0.984,8.456-0.28,12.08,1.968c2.192,1.352,3.92,3.208,5.208,5.352c-9.48,3.064-19.368,5.848-29.592,8.256   C314.784,468.736,315.552,465.832,317.144,463.256z M359.736,458.16c-2.6-5.608-6.768-10.36-12.144-13.688   c-4.416-2.736-9.336-4.168-14.368-4.56c8.856-14.592,21.712-26.472,38.512-35.336l-7.472-14.16   c-20.632,10.888-36.224,25.8-46.584,44.344C307.08,426.688,285.92,416,248,416c-37.88,0-59.032,10.664-69.648,18.744   c-19.816-35.456-54.52-49.848-74.376-55.408l34.96-34.96C145.656,362.792,163.288,376,184,376c7.04,0,13.864-1.552,20.168-4.552   C211.704,388.496,228.696,400,248,400s36.296-11.504,43.832-28.552c6.304,3,13.128,4.552,20.168,4.552   c20.712,0,38.344-13.208,45.064-31.624l34.976,34.976c-3.256,0.92-6.888,2.064-10.816,3.52l5.544,15   c7.912-2.92,14.584-4.512,18.504-5.288l29.928,29.928C422.128,430.28,394.656,445.376,359.736,458.16z"/>
</g>
<g>
	<circle style="fill:#ebb530;" cx="248" cy="456" r="16"/>
	<circle style="fill:#ebb530;" cx="384" cy="424" r="16"/>
	<circle style="fill:#ebb530;" cx="112" cy="424" r="16"/>
</g>
<g>
</g>
<g>
</g>
<g>
</g>
<g>
</g>
<g>
</g>
<g>
</g>
<g>
</g>
<g>
</g>
<g>
</g>
<g>
</g>
<g>
</g>
<g>
</g>
<g>
</g>
<g>
</g>
<g>
</g>
</svg>
