<?xml version="1.0" encoding="iso-8859-1"?>
<!-- Generator: Adobe Illustrator 19.0.0, SVG Export Plug-In . SVG Version: 6.00 Build 0)  -->
<svg version="1.1" id="Capa_1" xmlns="http://www.w3.org/2000/svg" xmlns:xlink="http://www.w3.org/1999/xlink" x="0px" y="0px"
	 viewBox="0 0 496 496" style="enable-background:new 0 0 496 496;" xml:space="preserve">
<path style="fill:#fff;" d="M462.088,211.92l-19.744-3.04L459.312,192H488v-16h-35.312l-26.272,26.264l-3.608,3.512
	c-24.536-4.296-48.336-13.736-69.048-27.544C328.032,161.072,298.08,152,267.144,152c-29.752,0-58.744,8.448-83.832,24.416
	l-13.136,8.36C146.288,199.968,118.712,208,90.408,208c-18.952,0-37.128,5.824-52.544,16.84C14.152,241.776,0,269.272,0,298.408V312
	h80v-16H16.04c0.752-23.08,12.264-44.672,31.12-58.144C59.856,228.8,74.816,224,90.408,224c31.344,0,61.896-8.896,88.344-25.728
	l13.144-8.36C214.416,175.576,240.44,168,267.144,168c27.768,0,54.648,8.144,77.744,23.536c23.656,15.768,51,26.384,79.088,30.704
	l35.68,5.496c7.68,1.184,13.944,5.864,17.408,12.264H464v16h16v8h-16v16h16v16h-72v16h88v-60.544
	C496,231.56,481.736,214.936,462.088,211.92z"/>
<rect style="fill:#fff;" x="32" y="336" width="432" height="16"/>
<rect style="fill:#fff;" x="480" y="336" width="16" height="16"/>
<rect style="fill:#fff;" x="160" y="296" width="176" height="16"/>
<path style="fill:#fff;" d="M324.28,248H187.056l-13.6-27.2l6.584-3.752c1.112-0.632,2.2-1.512,3.304-2.368c1.336-1.04,2.68-2.064,4-2.904l13.144-8.368
	c19.952-12.696,43-19.408,66.656-19.408c22.104,0,49.504,9.48,73.296,25.344l6.656,4.44L324.28,248z M196.944,232H315.72
	l9.064-13.592C308.6,208.88,286.696,200,267.144,200c-20.6,0-40.68,5.84-58.064,16.904l-13.136,8.368
	c-0.576,0.368-1.16,0.792-1.736,1.232L196.944,232z"/>
<rect style="fill:#fff;" x="168" y="64" width="160" height="16"/>
<rect style="fill:#fff;" x="248" y="32" width="160" height="16"/>
<rect style="fill:#fff;" x="328" width="160" height="16"/>
<rect style="fill:#fff;" x="88" y="480" width="160" height="16"/>
<rect style="fill:#fff;" x="168" y="448" width="160" height="16"/>
<rect style="fill:#fff;" x="248" y="416" width="160" height="16"/>
<g>
	<circle style="fill:#ebb530;" cx="376" cy="288" r="48"/>
	<circle style="fill:#ebb530;" cx="120" cy="288" r="48"/>
</g>
<path style="fill:#fff;" d="M376,312c-13.232,0-24-10.768-24-24s10.768-24,24-24s24,10.768,24,24S389.232,312,376,312z M376,280c-4.408,0-8,3.584-8,8
	s3.592,8,8,8s8-3.584,8-8S380.408,280,376,280z"/>
<path style="fill:#fff;" d="M120,312c-13.232,0-24-10.768-24-24s10.768-24,24-24s24,10.768,24,24S133.232,312,120,312z M120,280c-4.408,0-8,3.584-8,8
	s3.592,8,8,8c4.408,0,8-3.584,8-8S124.408,280,120,280z"/>
<rect style="fill:#fff;" y="336" width="16" height="16"/>
<g>
</g>
<g>
</g>
<g>
</g>
<g>
</g>
<g>
</g>
<g>
</g>
<g>
</g>
<g>
</g>
<g>
</g>
<g>
</g>
<g>
</g>
<g>
</g>
<g>
</g>
<g>
</g>
<g>
</g>
</svg>
