<?xml version="1.0" encoding="iso-8859-1"?>
<!-- Generator: Adobe Illustrator 19.0.0, SVG Export Plug-In . SVG Version: 6.00 Build 0)  -->
<svg version="1.1" id="Layer_1" xmlns="http://www.w3.org/2000/svg" xmlns:xlink="http://www.w3.org/1999/xlink" x="0px" y="0px"
	 viewBox="0 0 290.628 290.628" style="enable-background:new 0 0 290.628 290.628;" xml:space="preserve">
<g>
	<g>
		<rect x="117.189" y="28.125" style="fill:#ebb530;" width="112.5" height="9.375"/>
		<rect x="117.189" y="46.875" style="fill:#ebb530;" width="112.5" height="9.375"/>
		<rect x="117.189" y="121.875" style="fill:#ebb530;" width="112.5" height="9.375"/>
		<rect x="117.189" y="140.625" style="fill:#ebb530;" width="112.5" height="9.375"/>
		<rect x="117.189" y="215.625" style="fill:#ebb530;" width="112.5" height="9.375"/>
		<rect x="117.189" y="234.375" style="fill:#ebb530;" width="112.5" height="9.375"/>
		<path style="fill:#fff;" d="M253.126,84.375V0H79.689c-23.26,0-42.188,18.923-42.188,42.188
			c0,12.45,5.456,23.625,14.062,31.355v31.041c-8.606,7.73-14.062,18.905-14.062,31.355s5.456,23.625,14.062,31.355v31.041
			c-8.606,7.73-14.062,18.905-14.062,31.355s5.456,23.625,14.062,31.355v29.583h26.334l9.375-18.75h116.076l9.375,18.75h26.339
			v-18.75h14.063V187.5h-14.063v-9.375h14.063V93.75h-14.063v-9.375H253.126z M46.876,42.188c0-18.089,14.719-32.813,32.812-32.813
			h164.063V75H79.689C61.595,75,46.876,60.277,46.876,42.188z M60.939,281.25v-13.828c4.856,2.423,10.233,3.928,15.923,4.308
			l-4.758,9.52H60.939L60.939,281.25z M229.688,281.25h-11.166l-4.687-9.375h15.853V281.25z M243.751,262.5h-34.603H81.479h-1.791
			c-18.094,0-32.812-14.723-32.812-32.813s14.719-32.813,32.812-32.813h164.063V262.5z M229.688,187.5h-150
			c-6.741,0-13.092,1.627-18.75,4.453v-18.277c5.658,2.822,12.009,4.453,18.75,4.453h150V187.5z M243.751,168.75H79.689
			c-18.094,0-32.812-14.723-32.812-32.813s14.719-32.813,32.812-32.813h164.062V168.75z M229.688,93.75h-150
			c-6.741,0-13.092,1.627-18.75,4.453V79.927c5.658,2.822,12.009,4.453,18.75,4.453h150V93.75z"/>
		<path style="fill:#fff;" d="M79.689,65.625c12.923,0,23.437-10.514,23.437-23.438S92.612,18.75,79.689,18.75
			S56.251,29.264,56.251,42.188S66.765,65.625,79.689,65.625z M79.689,28.125c7.753,0,14.062,6.309,14.062,14.063
			S87.442,56.25,79.689,56.25s-14.062-6.309-14.062-14.063S71.935,28.125,79.689,28.125z"/>
		<rect x="112.501" y="18.75" style="fill:#fff;" width="9.375" height="46.875"/>
		<rect x="131.251" y="18.75" style="fill:#fff;" width="9.375" height="46.875"/>
		<rect x="150.001" y="18.75" style="fill:#fff;" width="9.375" height="46.875"/>
		<rect x="168.751" y="18.75" style="fill:#fff;" width="9.375" height="46.875"/>
		<rect x="187.501" y="18.75" style="fill:#fff;" width="9.375" height="46.875"/>
		<rect x="206.251" y="18.75" style="fill:#fff;" width="9.375" height="46.875"/>
		<rect x="225.001" y="18.75" style="fill:#fff;" width="9.375" height="46.875"/>
		<path style="fill:#fff;" d="M56.251,135.938c0,12.923,10.514,23.438,23.437,23.438s23.437-10.514,23.437-23.438
			S92.612,112.5,79.689,112.5S56.251,123.014,56.251,135.938z M93.751,135.938c0,7.753-6.309,14.063-14.062,14.063
			s-14.062-6.309-14.062-14.063s6.309-14.063,14.062-14.063S93.751,128.184,93.751,135.938z"/>
		<rect x="112.501" y="112.5" style="fill:#fff;" width="9.375" height="46.875"/>
		<rect x="131.251" y="112.5" style="fill:#fff;" width="9.375" height="46.875"/>
		<rect x="150.001" y="112.5" style="fill:#fff;" width="9.375" height="46.875"/>
		<rect x="168.751" y="112.5" style="fill:#fff;" width="9.375" height="46.875"/>
		<rect x="187.501" y="112.5" style="fill:#fff;" width="9.375" height="46.875"/>
		<rect x="206.251" y="112.5" style="fill:#fff;" width="9.375" height="46.875"/>
		<rect x="225.001" y="112.5" style="fill:#fff;" width="9.375" height="46.875"/>
		<path style="fill:#fff;" d="M56.251,229.688c0,12.923,10.514,23.438,23.437,23.438s23.437-10.514,23.437-23.438
			S92.612,206.25,79.689,206.25S56.251,216.764,56.251,229.688z M93.751,229.688c0,7.753-6.309,14.063-14.062,14.063
			s-14.062-6.309-14.062-14.063s6.309-14.063,14.062-14.063S93.751,221.934,93.751,229.688z"/>
		<rect x="112.501" y="206.25" style="fill:#fff;" width="9.375" height="46.875"/>
		<rect x="131.251" y="206.25" style="fill:#fff;" width="9.375" height="46.875"/>
		<rect x="150.001" y="206.25" style="fill:#fff;" width="9.375" height="46.875"/>
		<rect x="168.751" y="206.25" style="fill:#fff;" width="9.375" height="46.875"/>
		<rect x="187.501" y="206.25" style="fill:#fff;" width="9.375" height="46.875"/>
		<rect x="206.251" y="206.25" style="fill:#fff;" width="9.375" height="46.875"/>
		<rect x="225.001" y="206.25" style="fill:#fff;" width="9.375" height="46.875"/>
	</g>
</g>
<g>
</g>
<g>
</g>
<g>
</g>
<g>
</g>
<g>
</g>
<g>
</g>
<g>
</g>
<g>
</g>
<g>
</g>
<g>
</g>
<g>
</g>
<g>
</g>
<g>
</g>
<g>
</g>
<g>
</g>
</svg>
