<?xml version="1.0" encoding="iso-8859-1"?>
<!-- Generator: Adobe Illustrator 19.0.0, SVG Export Plug-In . SVG Version: 6.00 Build 0)  -->
<svg version="1.1" id="Layer_1" xmlns="http://www.w3.org/2000/svg" xmlns:xlink="http://www.w3.org/1999/xlink" x="0px" y="0px"
	 viewBox="0 0 290.626 290.626" style="enable-background:new 0 0 290.626 290.626;" xml:space="preserve">
<g>
	<g>
		<path style="fill:#ebb530;" d="M84.376,98.438c-36.244,0-65.625,29.381-65.625,65.625c0,20.836,9.741,39.366,24.877,51.384
			l24.628-43.097c1.27-2.227,3.642-3.6,6.206-3.6c4.88,0,8.32,4.777,6.778,9.408l-16.209,48.623
			c6.117,1.884,12.609,2.906,19.345,2.906c36.244,0,65.625-29.381,65.625-65.625S120.62,98.438,84.376,98.438z"/>
		<path style="fill:#fff;" d="M89.064,257.227c0-9.572-6.853-17.587-16.298-19.059c-1.964-0.305-4.027-0.764-6.159-1.303
			l14.962-44.878c0.952,0.113,1.889,0.202,2.808,0.202c15.511,0,28.125-12.614,28.125-28.125s-12.614-28.125-28.125-28.125
			s-28.126,12.613-28.126,28.124c0,4.777,1.28,9.389,3.6,13.556l-24.525,42.909c-2.934-2.527-5.705-5.152-8.077-7.936l-1.397-1.655
			H14.064v65.625h55.664C80.387,276.563,89.064,267.886,89.064,257.227z M76.796,176.672L54.91,242.325
			c-1.223,3.661-4.627,6.113-8.48,6.113c-4.927,0-8.93-4.003-8.93-8.93v-1.514c0-1.552,0.408-3.084,1.177-4.43l33.656-58.889
			c0.431-0.764,1.247-1.238,2.128-1.238c1.092,0,1.72,0.642,1.997,1.022C76.735,174.839,77.139,175.636,76.796,176.672z
			 M84.376,145.313c10.341,0,18.75,8.409,18.75,18.75c0,10.252-8.273,18.581-18.487,18.722l1.05-3.145
			c1.205-3.6,0.595-7.584-1.627-10.664c-2.217-3.075-5.808-4.912-9.6-4.912c-3.22,0-6.248,1.327-8.447,3.567
			c-0.23-1.172-0.389-2.358-0.389-3.567C65.626,153.722,74.035,145.313,84.376,145.313z M23.439,222.333
			c2.194,2.273,4.617,4.42,7.139,6.506l-0.042,0.07c-1.575,2.766-2.409,5.906-2.409,9.08v1.514c0,10.097,8.212,18.309,18.305,18.309
			c7.725,0,14.545-4.838,17.175-12.061c2.667,0.698,5.25,1.298,7.72,1.678c4.847,0.755,8.362,4.875,8.362,9.797
			c0,5.494-4.467,9.961-9.961,9.961H23.439V222.333z"/>
		<path style="fill:#fff;" d="M206.251,46.875c31.341,0,84.375-4.936,84.375-23.438S237.592,0,206.251,0
			s-84.375,4.936-84.375,23.438S174.91,46.875,206.251,46.875z M206.251,9.375c46.833,0,74.114,9.305,75,14.039
			c-0.886,4.781-28.167,14.086-75,14.086c-46.758,0-74.025-9.277-74.995-14.063C132.226,18.652,159.493,9.375,206.251,9.375z"/>
		<path style="fill:#fff;" d="M281.25,74.977c-0.886,4.781-28.167,14.086-75,14.086c-13.144,0-25.964-0.82-37.5-2.311v-7.064
			h-30.469c-5.344-2.297-6.923-4.214-7.031-4.688V46.875h-9.375V75c0,1.753,0.539,3.291,1.322,4.688H0.001v210.938h150
			c10.341,0,18.75-8.409,18.75-18.75v-72.553c11.606,1.444,24.398,2.241,37.5,2.241c31.341,0,84.375-4.936,84.375-23.438V150h-9.375
			v28.102c-0.886,4.781-28.167,14.086-75,14.086c-13.162,0-25.983-0.825-37.5-2.311v-42.113c11.62,1.439,24.412,2.236,37.5,2.236
			c31.341,0,84.375-4.936,84.375-23.438V98.438h-9.375v28.102c-0.886,4.781-28.167,14.086-75,14.086
			c-13.144,0-25.964-0.82-37.5-2.311V96.197c11.62,1.444,24.412,2.241,37.5,2.241c31.341,0,84.375-4.936,84.375-23.438V46.875
			h-9.375V74.977z M159.376,271.875c0,5.17-4.205,9.375-9.375,9.375H9.376V89.063h150V271.875z"/>
		<path style="fill:#fff;" d="M225.001,243.75c0,7.753-6.309,14.063-14.063,14.063H191.09l9.802-16.336l-8.039-4.823
			L177.348,262.5l15.511,25.852l8.039-4.823l-9.806-16.341h19.847c12.923,0,23.437-10.514,23.437-23.438v-32.813h-9.375V243.75z"/>
		<path style="fill:#fff;" d="M65.626,46.875c0-7.753,6.309-14.063,14.062-14.063h19.847l-9.802,16.336l8.039,4.823
			l15.506-25.847L97.768,2.273l-8.039,4.823l9.806,16.341H79.689c-12.923,0-23.437,10.514-23.437,23.438v23.438h9.375V46.875H65.626
			z"/>
	</g>
</g>
<g>
</g>
<g>
</g>
<g>
</g>
<g>
</g>
<g>
</g>
<g>
</g>
<g>
</g>
<g>
</g>
<g>
</g>
<g>
</g>
<g>
</g>
<g>
</g>
<g>
</g>
<g>
</g>
<g>
</g>
</svg>
