<?xml version="1.0" encoding="iso-8859-1"?>
<!-- Generator: Adobe Illustrator 19.0.0, SVG Export Plug-In . SVG Version: 6.00 Build 0)  -->
<svg version="1.1" id="Layer_1" xmlns="http://www.w3.org/2000/svg" xmlns:xlink="http://www.w3.org/1999/xlink" x="0px" y="0px"
	 viewBox="0 0 290.627 290.627" style="enable-background:new 0 0 290.627 290.627;" xml:space="preserve">
<g>
	<g>
		<path style="fill:#ebb530;" d="M112.501,192.188c-25.889,0-46.875-20.986-46.875-46.875s20.986-46.875,46.875-46.875
			c3.211,0,6.347,0.328,9.375,0.942V32.813H89.064v26.63c-7.214,1.969-14.152,4.847-20.695,8.592L49.52,49.191l-33.141,33.14
			l18.844,18.848c-3.745,6.544-6.623,13.481-8.592,20.695H0.001v46.875h26.63c1.969,7.214,4.847,14.152,8.592,20.691l-18.844,18.848
			l33.141,33.145l18.848-18.844c6.544,3.745,13.481,6.623,20.695,8.592v26.63h32.812v-66.567
			C118.848,191.859,115.712,192.188,112.501,192.188z"/>
		<path style="fill:#fff;" d="M267.189,0h-131.25c-12.923,0-23.437,10.514-23.437,23.438V93.75
			c-28.43,0-51.562,23.133-51.562,51.563s23.133,51.563,51.562,51.563v70.313c0,12.923,10.514,23.438,23.437,23.438h131.25
			c12.923,0,23.437-10.514,23.437-23.438V23.438C290.626,10.514,280.112,0,267.189,0z M135.939,9.375h131.25
			c7.753,0,14.062,6.309,14.062,14.063V37.5H121.876V23.438C121.876,15.684,128.186,9.375,135.939,9.375z M281.251,46.875V225
			H121.876V46.875H281.251z M70.314,145.313c0-23.264,18.923-42.188,42.187-42.188V187.5
			C89.237,187.5,70.314,168.577,70.314,145.313z M267.189,281.25h-65.625h-65.625c-7.753,0-14.062-6.309-14.062-14.063v-32.813
			h79.687h79.687v32.813C281.251,274.941,274.943,281.25,267.189,281.25z"/>
		<rect x="178.126" y="18.75" style="fill:#fff;" width="46.875" height="9.375"/>
		<path style="fill:#fff;" d="M225.001,257.813c0-12.923-10.514-23.438-23.437-23.438s-23.437,10.514-23.437,23.438
			s10.514,23.438,23.437,23.438S225.001,270.736,225.001,257.813z M201.563,271.875c-7.753,0-14.063-6.309-14.063-14.063
			c0-7.753,6.309-14.063,14.063-14.063c7.753,0,14.062,6.309,14.062,14.063C215.626,265.566,209.317,271.875,201.563,271.875z"/>
		<path style="fill:#fff;" d="M131.79,138.122c0.755,1.439,19.153,35.316,69.773,35.316s69.019-33.877,69.773-35.316l1.148-2.184
			l-1.148-2.184c-0.755-1.439-19.153-35.316-69.773-35.316s-69.019,33.877-69.773,35.316l-1.148,2.184L131.79,138.122z
			 M173.438,135.938c0-15.511,12.614-28.125,28.125-28.125s28.125,12.614,28.125,28.125s-12.614,28.125-28.125,28.125
			S173.438,151.448,173.438,135.938z M261.695,135.938c-3.258,4.866-12.595,16.491-30.703,23.17
			c5.039-6.384,8.072-14.423,8.072-23.17s-3.033-16.786-8.072-23.17C249.1,119.447,258.438,131.072,261.695,135.938z
			 M172.135,112.767c-5.039,6.384-8.072,14.423-8.072,23.17s3.033,16.786,8.072,23.17c-18.122-6.684-27.455-18.319-30.703-23.17
			C144.686,131.077,154.023,119.447,172.135,112.767z"/>
		<rect x="135.939" y="65.625" style="fill:#fff;" width="18.75" height="9.375"/>
		<rect x="173.438" y="65.625" style="fill:#fff;" width="18.75" height="9.375"/>
		<rect x="210.938" y="65.625" style="fill:#fff;" width="18.75" height="9.375"/>
		<rect x="248.438" y="65.625" style="fill:#fff;" width="18.75" height="9.375"/>
		<rect x="135.939" y="196.875" style="fill:#fff;" width="18.75" height="9.375"/>
		<rect x="173.438" y="196.875" style="fill:#fff;" width="18.75" height="9.375"/>
		<rect x="210.938" y="196.875" style="fill:#fff;" width="18.75" height="9.375"/>
		<rect x="248.438" y="196.875" style="fill:#fff;" width="18.75" height="9.375"/>
	</g>
</g>
<g>
</g>
<g>
</g>
<g>
</g>
<g>
</g>
<g>
</g>
<g>
</g>
<g>
</g>
<g>
</g>
<g>
</g>
<g>
</g>
<g>
</g>
<g>
</g>
<g>
</g>
<g>
</g>
<g>
</g>
</svg>
