<?xml version="1.0" encoding="iso-8859-1"?>
<!-- Generator: Adobe Illustrator 19.0.0, SVG Export Plug-In . SVG Version: 6.00 Build 0)  -->
<svg version="1.1" id="Capa_1" xmlns="http://www.w3.org/2000/svg" xmlns:xlink="http://www.w3.org/1999/xlink" x="0px" y="0px"
	 viewBox="0 0 496 496" style="enable-background:new 0 0 496 496;" xml:space="preserve">
<g>
	<path style="fill:#ebb530;" d="M144,216l22.056-22.056c6.368-6.368,15-9.944,24-9.944l0,0C208.808,184,224,199.192,224,217.944l0,0
		c0,9-3.576,17.632-9.944,24L144,312l-70.056-70.056c-6.368-6.368-9.944-15-9.944-24l0,0C64,199.192,79.192,184,97.944,184l0,0
		c9,0,17.632,3.576,24,9.944L144,216z"/>
	<path style="fill:#ebb530;" d="M432,312c-35.288,0-64-28.712-64-64s28.712-64,64-64s64,28.712,64,64S467.288,312,432,312z"/>
</g>
<path style="fill:#fff;" d="M208,216.568c0,4.36-1.768,8.632-4.856,11.728l11.32,11.296c6.056-6.064,9.536-14.456,9.536-23.024
	c0-17.96-14.608-32.568-32.568-32.568v16C200.568,200,208,207.432,208,216.568z"/>
<polygon style="fill:#fff;" points="136,272 152,272 152,256 168,256 168,240 152,240 152,224 136,224 136,240 120,240 120,256 136,256 "/>
<path style="fill:#fff;" d="M464,248c0-17.648-14.352-32-32-32s-32,14.352-32,32c0,14.872,10.24,27.288,24,30.864V440c0,22.056-17.944,40-40,40
	s-40-17.944-40-40v-72c0-30.872-25.12-56-56-56s-56,25.128-56,56v72c0,22.056-17.944,40-40,40s-40-17.944-40-40v-56h16v-52.688
	l69.088-69.088c6.712-6.712,11.704-14.68,14.888-23.328c1.016-0.96,1.808-1.736,2.144-2.096C275.968,210.896,288,177.936,288,144V56
	c0-22.056-17.944-40-40-40h-8V0h-40c-13.232,0-24,10.768-24,24s10.768,24,24,24h40V32h8c13.232,0,24,10.768,24,24v88
	c0,22.424-5.928,44.344-16.736,63.368C250.776,176.12,223.904,152,191.432,152c-17.248,0-33.464,6.72-45.656,18.912L144,172.688
	l-1.776-1.776C130.032,158.72,113.816,152,96.568,152c-32.424,0-59.264,24.048-63.816,55.224C21.88,188.072,16,166.296,16,144V56
	c0-13.232,10.768-24,24-24h8v16h40c13.232,0,24-10.768,24-24S101.232,0,88,0H48v16h-8C17.944,16,0,33.944,0,56v88
	c0,34.12,12.152,67.208,34.68,93.688c0,0,0.576,0.56,1.384,1.328c3.192,8.608,8.16,16.528,14.84,23.208L120,331.312V384h16v56
	c0,30.872,25.12,56,56,56s56-25.128,56-56v-72c0-22.056,17.944-40,40-40s40,17.944,40,40v72c0,30.872,25.12,56,56,56
	s56-25.128,56-56V278.864C453.76,275.288,464,262.872,464,248z M224,32h-24c-4.408,0-8-3.584-8-8s3.592-8,8-8h24V32z M64,16h24
	c4.408,0,8,3.584,8,8s-3.592,8-8,8H64V16z M152,368h-16v-32h16V368z M48,216.568C48,189.792,69.792,168,96.568,168
	c12.976,0,25.168,5.056,34.344,14.224L144,195.312l13.088-13.088c9.176-9.168,21.368-14.224,34.344-14.224
	C218.208,168,240,189.792,240,216.568c0,12.968-5.048,25.168-14.224,34.344L156.688,320h-25.376l-69.088-69.088
	C53.048,241.744,48,229.536,48,216.568z M432,264c-8.824,0-16-7.176-16-16s7.176-16,16-16s16,7.176,16,16S440.824,264,432,264z"/>
<g>
</g>
<g>
</g>
<g>
</g>
<g>
</g>
<g>
</g>
<g>
</g>
<g>
</g>
<g>
</g>
<g>
</g>
<g>
</g>
<g>
</g>
<g>
</g>
<g>
</g>
<g>
</g>
<g>
</g>
</svg>
