<?xml version="1.0" encoding="iso-8859-1"?>
<!-- Generator: Adobe Illustrator 19.0.0, SVG Export Plug-In . SVG Version: 6.00 Build 0)  -->
<svg version="1.1" id="Capa_1" xmlns="http://www.w3.org/2000/svg" xmlns:xlink="http://www.w3.org/1999/xlink" x="0px" y="0px"
	 viewBox="0 0 496 496" style="enable-background:new 0 0 496 496;" xml:space="preserve">
<circle style="fill:#ebb530;" cx="376" cy="400" r="72"/>
<g>
	<path style="fill:#fff;" d="M368,336v8.64c-24.472,3.528-43.832,22.888-47.36,47.36H312v16h8.64
		c3.528,24.472,22.888,43.832,47.36,47.36V464h16v-8.64c24.472-3.528,43.832-22.888,47.36-47.36H440v-16h-8.64
		c-3.528-24.472-22.888-43.832-47.36-47.36V336H368z M415.192,392H400v16h15.192C412,423.648,399.648,436,384,439.192V424h-16
		v15.192C352.352,436,340,423.648,336.808,408H352v-16h-15.192C340,376.352,352.352,364,368,360.808V376h16v-15.192
		C399.648,364,412,376.352,415.192,392z"/>
	<path style="fill:#fff;" d="M432,0c-35.288,0-64,28.712-64,64v24c0,13.232,10.768,24,24,24s24-10.768,24-24V64
		c0-8.824,7.184-16,16-16s16,7.176,16,16v243.64c-21.752-1.88-50.056-3.64-80-3.64c-44.68,0-78.12,7.728-94.072,12.336
		c-16.832,4.856-35.032,4.856-51.856,0C206.12,311.728,172.68,304,128,304c-29.944,0-58.248,1.76-80,3.64V64c0-8.824,7.184-16,16-16
		s16,7.176,16,16v24c0,13.232,10.768,24,24,24s24-10.768,24-24V64c0-35.288-28.712-64-64-64S0,28.712,0,64v249.064V320v56h8
		c5.352,0,9.504,14.792,13.52,29.088C31.688,441.288,47.04,496,120,496c90.792,0,113.328-79.464,118.072-103.824
		c0.92-4.736,5.096-8.176,9.928-8.176s9.008,3.44,9.928,8.184C262.672,416.536,285.208,496,376,496
		c72.96,0,88.312-54.712,98.48-90.912C478.488,390.792,482.648,376,488,376h8v-56v-6.936V64C496,28.712,467.288,0,432,0z M432,32
		c-17.648,0-32,14.352-32,32v24c0,4.416-3.584,8-8,8s-8-3.584-8-8V64c0-26.472,21.528-48,48-48s48,21.528,48,48v246.912
		c-4.12-0.496-9.536-1.112-16-1.768V64C464,46.352,449.648,32,432,32z M64,16c26.472,0,48,21.528,48,48v24c0,4.416-3.584,8-8,8
		s-8-3.584-8-8V64c0-17.648-14.352-32-32-32S32,46.352,32,64v245.144c-6.464,0.664-11.88,1.272-16,1.768V64
		C16,37.528,37.528,16,64,16z M480,361.592c-11.328,4.984-15.832,21.056-20.92,39.176C449.168,436.064,436.832,480,376,480
		c-78.552,0-98.208-69.552-102.368-90.864C271.256,376.88,260.48,368,248,368c-12.48,0-23.256,8.88-25.632,21.128
		C218.208,410.448,198.552,480,120,480c-60.832,0-73.168-43.936-83.08-79.232c-5.088-18.12-9.592-34.192-20.92-39.176v-34.56
		C32.792,324.952,78.184,320,128,320c42.704,0,74.496,7.336,89.632,11.712c19.72,5.688,41.016,5.688,60.736,0
		C293.504,327.336,325.296,320,368,320c49.816,0,95.208,4.952,112,7.032V361.592z"/>
</g>
<g>
</g>
<g>
</g>
<g>
</g>
<g>
</g>
<g>
</g>
<g>
</g>
<g>
</g>
<g>
</g>
<g>
</g>
<g>
</g>
<g>
</g>
<g>
</g>
<g>
</g>
<g>
</g>
<g>
</g>
</svg>
