<?xml version="1.0" encoding="iso-8859-1"?>
<!-- Generator: Adobe Illustrator 19.0.0, SVG Export Plug-In . SVG Version: 6.00 Build 0)  -->
<svg xmlns="http://www.w3.org/2000/svg" xmlns:xlink="http://www.w3.org/1999/xlink" version="1.1" id="Capa_1" x="0px" y="0px" viewBox="0 0 496 496" style="enable-background:new 0 0 496 496;" xml:space="preserve">
<g>
	<rect x="221.656" y="48" style="fill:#ebb530;" width="96" height="48"/>
	<path style="fill:#ebb530;" d="M333.656,240h-128v-64h128V240z"/>
</g>
<g>
	<path style="fill:#fff;" d="M381.656,160h-16v-16h-16v-16h16c13.232,0,24-10.768,24-24V64c0-13.232-10.768-24-24-24h-16V24   h-54.064c-19.752,0-38.32-7.688-52.28-21.656L240.968,0h-51.312v51.056l-31.512-15.76c-0.6-9.248-4.072-18.2-10.832-24.952   l-5.656-5.656L82.344,64L88,69.656c7.424,7.424,17.464,11.104,27.68,11.104c6.648,0,13.304-1.752,19.416-4.864l54.56,47.736V144   h-16v16h-16c-17.648,0-32,14.352-32,32v112c0,17.648,14.352,32,32,32c5.856,0,11.272-1.696,16-4.448V336h32v160h128V336h32v-4.448   c4.728,2.752,10.144,4.448,16,4.448c17.648,0,32-14.352,32-32V192C413.656,174.352,399.304,160,381.656,160z M381.656,176   c8.824,0,16,7.176,16,16s-7.176,16-16,16h-16v-32H381.656z M365.656,56c4.408,0,8,3.592,8,8v40c0,4.408-3.592,8-8,8h-16V56H365.656   z M106.104,62.864l34.416-34.416c3.816,9.088,1.76,20.872-5.888,28.52C126.976,64.624,115.208,66.688,106.104,62.864z    M147.928,65.856c3.576-4.16,6.24-8.824,7.96-13.8l33.768,16.888v33.424L147.928,65.856z M157.656,176h16v32h-16   c-8.824,0-16-7.176-16-16S148.832,176,157.656,176z M157.656,320c-8.824,0-16-7.176-16-16v-84.448   c4.728,2.752,10.144,4.448,16,4.448h16v48v32C173.656,312.824,166.48,320,157.656,320z M253.656,376h-24   c-2.816,0-5.488,0.576-8,1.472V336h40v41.472C259.144,376.576,256.472,376,253.656,376z M261.656,400c0,4.408-3.592,8-8,8h-24   c-4.408,0-8-3.592-8-8s3.592-8,8-8h24C258.064,392,261.656,395.592,261.656,400z M221.656,422.528c2.512,0.896,5.184,1.472,8,1.472   h24c2.816,0,5.488-0.576,8-1.472V480h-40V422.528z M277.656,480v-57.472c2.512,0.896,5.184,1.472,8,1.472h24   c2.816,0,5.488-0.576,8-1.472V480H277.656z M277.656,400c0-4.408,3.592-8,8-8h24c4.408,0,8,3.592,8,8s-3.592,8-8,8h-24   C281.248,408,277.656,404.408,277.656,400z M317.656,377.472c-2.512-0.896-5.184-1.472-8-1.472h-24c-2.816,0-5.488,0.576-8,1.472   V336h40V377.472z M349.656,320h-16h-128h-16v-16v-32V160h112v-16h-96V16h28.776c16.68,15.504,38.264,24,61.168,24h38.056v104h-16   v16h32v112v32V320z M381.656,320c-8.824,0-16-7.176-16-16v-32v-48h16c5.856,0,11.272-1.696,16-4.448V304   C397.656,312.824,390.48,320,381.656,320z"/>
	<rect x="237.656" y="64" style="fill:#fff;" width="16" height="16"/>
	<rect x="285.656" y="64" style="fill:#fff;" width="16" height="16"/>
	<rect x="237.656" y="112" style="fill:#fff;" width="64" height="16"/>
	<rect x="205.656" y="256" style="fill:#fff;" width="128" height="16"/>
</g>
<g>
</g>
<g>
</g>
<g>
</g>
<g>
</g>
<g>
</g>
<g>
</g>
<g>
</g>
<g>
</g>
<g>
</g>
<g>
</g>
<g>
</g>
<g>
</g>
<g>
</g>
<g>
</g>
<g>
</g>
</svg>
