<?xml version="1.0" encoding="iso-8859-1"?>
<!-- Generator: Adobe Illustrator 19.0.0, SVG Export Plug-In . SVG Version: 6.00 Build 0)  -->
<svg version="1.1" id="Layer_1" xmlns="http://www.w3.org/2000/svg" xmlns:xlink="http://www.w3.org/1999/xlink" x="0px" y="0px"
	 viewBox="0 0 285.938 285.938" style="enable-background:new 0 0 285.938 285.938;" xml:space="preserve">
<g>
	<g>
		<path style="fill:#fff;" d="M217.969,103.125h-46.875v9.375h46.875c7.753,0,14.063,6.309,14.063,14.063v18.872
			c-3.928-2.977-8.766-4.809-14.063-4.809h-150c-7.753,0-14.063-6.309-14.063-14.063s6.31-14.063,14.063-14.063h51.563v-9.375
			H67.969c-12.923,0-23.438,10.514-23.438,23.438V262.5c0,12.923,10.514,23.438,23.438,23.438h150
			c12.923,0,23.438-10.514,23.438-23.438v-14.063v-65.625v-18.75v-37.5C241.406,113.639,230.892,103.125,217.969,103.125z
			 M232.031,239.063h-56.25c-12.923,0-23.438-10.514-23.438-23.438s10.514-23.438,23.438-23.438h56.25V239.063z M232.031,182.813
			h-56.25c-18.094,0-32.813,14.723-32.813,32.813s14.719,32.813,32.813,32.813h56.25V262.5c0,7.753-6.309,14.063-14.063,14.063h-150
			c-7.753,0-14.063-6.309-14.063-14.063V145.303c3.919,2.948,8.789,4.697,14.063,4.697h150c7.753,0,14.063,6.309,14.063,14.063
			V182.813z"/>
		<rect x="67.969" y="121.875" style="fill:#fff;" width="150" height="9.375"/>
		<circle style="fill:#ebb530;" cx="142.969" cy="89.063" r="37.5"/>
		<path style="fill:#fff;" d="M147.656,103.125h-9.375c-2.583,0-4.688-2.105-4.688-4.688h-9.375
			c0,7.753,6.309,14.063,14.063,14.063v4.688h9.375V112.5c7.753,0,14.063-6.309,14.063-14.063s-6.309-14.063-14.063-14.063h-9.375
			c-2.583,0-4.688-2.105-4.688-4.688S135.698,75,138.281,75h9.375c2.583,0,4.688,2.105,4.688,4.688h9.375
			c0-7.753-6.309-14.063-14.063-14.063v-4.688h-9.375v4.688c-7.753,0-14.063,6.309-14.063,14.063s6.309,14.063,14.063,14.063h9.375
			c2.583,0,4.688,2.105,4.688,4.688S150.239,103.125,147.656,103.125z"/>
		<path style="fill:#fff;" d="M161.719,215.625c0,7.753,6.309,14.063,14.063,14.063s14.063-6.309,14.063-14.063
			s-6.309-14.063-14.063-14.063S161.719,207.872,161.719,215.625z M180.469,215.625c0,2.587-2.105,4.688-4.688,4.688
			s-4.688-2.1-4.688-4.688s2.105-4.688,4.688-4.688S180.469,213.038,180.469,215.625z"/>
		<rect x="138.281" style="fill:#fff;" width="9.375" height="37.5"/>
		<rect x="171.094" y="14.063" style="fill:#fff;" width="9.375" height="37.5"/>
		<rect x="105.469" y="23.438" style="fill:#fff;" width="9.375" height="28.125"/>
	</g>
</g>
<g>
</g>
<g>
</g>
<g>
</g>
<g>
</g>
<g>
</g>
<g>
</g>
<g>
</g>
<g>
</g>
<g>
</g>
<g>
</g>
<g>
</g>
<g>
</g>
<g>
</g>
<g>
</g>
<g>
</g>
</svg>
